<?xml version='1.0' encoding='ascii'?>
<svg xmlns="http://www.w3.org/2000/svg" version="1.1" width="1080" height="1080">
    <g id="ViewLayer_LineSet" xmlns:inkscape="http://www.inkscape.org/namespaces/inkscape" inkscape:groupmode="lineset" inkscape:label="ViewLayer_LineSet">
        <g xmlns:inkscape="http://www.inkscape.org/namespaces/inkscape" inkscape:groupmode="layer" id="strokes" inkscape:label="strokes">
            <path fill="none" stroke-width="3.0" stroke-linecap="butt" stroke-opacity="1.0" stroke="rgb(0, 0, 0)" stroke-linejoin="round" d=" M 1081.419, 548.396 1073.386, 554.353 1070.992, 556.128 1064.105, 563.379 1061.486, 566.136 1055.790, 574.315 1050.617, 582.874 1050.373, 583.278 1047.336, 592.805 1045.188, 599.545 1044.353, 609.510 1043.767, 616.500 1045.290, 626.384 1046.331, 633.139 1049.982, 642.449 1050.104, 642.761 1053.082, 649.576 1057.301, 658.364 1062.912, 666.642 1065.005, 669.730 1072.175, 676.702 1074.121, 678.595 1082.065, 684.669 1082.649, 685.116 " />
            <path fill="none" stroke-width="3.0" stroke-linecap="butt" stroke-opacity="1.0" stroke="rgb(0, 0, 0)" stroke-linejoin="round" d=" M 1085.049, 553.481 1077.010, 559.428 1074.411, 561.350 1067.517, 568.594 1064.713, 571.539 1058.990, 579.740 1058.902, 579.866 1053.721, 588.420 1053.375, 588.991 1050.332, 598.517 1048.083, 605.557 1047.244, 615.522 1046.629, 622.825 1048.150, 632.708 1049.238, 639.773 1052.888, 649.083 1053.082, 649.576 " />
            <path fill="none" stroke-width="3.0" stroke-linecap="butt" stroke-opacity="1.0" stroke="rgb(0, 0, 0)" stroke-linejoin="round" d=" M 1081.666, 639.071 1079.914, 629.226 1079.040, 624.314 1079.945, 614.355 1080.482, 608.459 " />
            <path fill="none" stroke-width="3.0" stroke-linecap="butt" stroke-opacity="1.0" stroke="rgb(0, 0, 0)" stroke-linejoin="round" d=" M 809.751, 634.227 810.976, 634.316 820.950, 635.036 829.435, 635.649 839.399, 636.490 846.216, 637.065 856.209, 636.704 864.200, 636.415 873.122, 631.898 873.679, 631.616 882.066, 626.170 883.693, 625.113 889.868, 617.247 890.539, 616.391 896.071, 608.308 898.711, 598.663 900.707, 591.370 900.588, 585.585 899.855, 575.612 899.309, 568.185 895.180, 559.077 894.856, 558.363 889.688, 549.802 889.357, 549.253 882.326, 542.143 880.885, 540.686 872.773, 534.839 871.150, 533.669 861.388, 531.501 853.249, 529.692 843.257, 529.291 836.248, 529.009 826.264, 528.442 819.917, 528.082 809.933, 527.515 803.663, 527.159 793.679, 526.592 786.447, 526.182 784.382, 530.767 783.883, 540.755 783.385, 550.742 783.343, 551.588 782.844, 561.576 782.546, 567.536 782.048, 577.524 781.753, 583.426 781.254, 593.413 780.963, 599.257 780.464, 609.244 780.175, 615.029 779.677, 625.017 779.391, 630.744 778.892, 640.731 778.609, 646.400 778.111, 656.388 777.830, 661.999 777.332, 671.987 776.833, 681.974 776.822, 682.194 786.791, 682.987 794.035, 683.563 804.004, 684.356 807.056, 684.599 808.674, 677.223 809.210, 667.237 809.743, 657.305 810.279, 647.319 810.568, 641.919 810.976, 634.316 " />
            <path fill="none" stroke-width="3.0" stroke-linecap="butt" stroke-opacity="1.0" stroke="rgb(0, 0, 0)" stroke-linejoin="round" d=" M 807.056, 684.599 807.590, 674.613 808.125, 664.627 808.141, 664.321 808.675, 654.335 808.979, 648.657 809.513, 638.671 809.751, 634.227 " />
            <path fill="none" stroke-width="3.0" stroke-linecap="butt" stroke-opacity="1.0" stroke="rgb(0, 0, 0)" stroke-linejoin="round" d=" M 868.836, 585.660 865.419, 595.058 863.760, 599.620 854.770, 603.999 852.436, 605.135 842.462, 604.418 832.488, 603.700 832.073, 603.671 822.096, 603.001 812.690, 602.370 813.226, 592.385 813.762, 582.399 813.900, 579.818 814.436, 569.832 814.741, 564.150 815.022, 558.915 " />
            <path fill="none" stroke-width="3.0" stroke-linecap="butt" stroke-opacity="1.0" stroke="rgb(0, 0, 0)" stroke-linejoin="round" d=" M 811.134, 608.387 811.668, 598.401 812.202, 588.415 812.363, 585.419 812.897, 575.434 813.217, 569.463 813.751, 559.477 813.785, 558.837 815.022, 558.915 825.001, 559.549 833.731, 560.103 843.723, 560.520 853.201, 560.915 861.637, 566.285 867.073, 569.744 868.174, 579.684 868.836, 585.660 869.210, 589.037 " />
            <path fill="none" stroke-width="3.0" stroke-linecap="butt" stroke-opacity="1.0" stroke="rgb(0, 0, 0)" stroke-linejoin="round" d=" M 900.707, 591.370 899.974, 581.397 899.404, 573.643 895.274, 564.535 894.865, 563.632 889.696, 555.072 889.259, 554.347 882.228, 547.236 880.623, 545.612 872.512, 539.763 870.700, 538.456 860.939, 536.282 852.453, 534.391 842.462, 533.982 835.127, 533.683 825.143, 533.109 818.485, 532.726 808.502, 532.153 801.923, 531.775 791.939, 531.201 784.382, 530.767 " />
            <path fill="none" stroke-width="3.0" stroke-linecap="butt" stroke-opacity="1.0" stroke="rgb(0, 0, 0)" stroke-linejoin="round" d=" M 869.210, 589.037 865.791, 598.435 863.172, 605.633 854.177, 610.003 851.632, 611.240 841.659, 610.514 831.685, 609.787 830.883, 609.729 820.906, 609.051 811.134, 608.387 812.690, 602.370 " />
            <path fill="none" stroke-width="3.0" stroke-linecap="butt" stroke-opacity="1.0" stroke="rgb(0, 0, 0)" stroke-linejoin="round" d=" M 613.335, 575.301 610.208, 570.229 604.959, 561.718 603.185, 558.841 598.355, 551.009 593.106, 542.498 590.393, 538.099 585.465, 530.107 580.216, 521.595 578.592, 518.961 568.609, 518.388 558.625, 517.814 548.642, 517.241 547.169, 517.156 540.638, 521.495 545.955, 529.964 551.273, 538.433 555.287, 544.826 560.604, 553.294 565.626, 561.291 570.943, 569.761 576.261, 578.230 577.790, 580.664 583.107, 589.134 586.062, 593.841 590.778, 601.351 584.802, 609.369 578.826, 617.387 577.697, 618.901 572.263, 626.192 566.287, 634.210 564.716, 636.318 559.074, 643.888 554.158, 650.483 548.182, 658.501 542.206, 666.519 539.069, 670.727 549.037, 671.531 559.005, 672.335 568.972, 673.139 570.500, 673.262 576.407, 666.208 582.346, 658.163 582.947, 657.350 588.662, 649.608 594.601, 641.563 596.811, 638.568 601.897, 631.679 607.712, 623.802 " />
            <path fill="none" stroke-width="3.0" stroke-linecap="butt" stroke-opacity="1.0" stroke="rgb(0, 0, 0)" stroke-linejoin="round" d=" M 570.500, 673.262 576.439, 665.216 577.151, 664.252 582.961, 656.380 588.899, 648.334 591.247, 645.151 596.420, 638.143 602.358, 630.097 604.228, 627.564 607.392, 623.277 607.712, 623.802 612.913, 632.343 617.260, 639.482 622.012, 647.287 627.213, 655.828 629.726, 659.955 634.927, 668.496 635.038, 668.679 640.239, 677.220 641.307, 678.974 651.274, 679.778 661.242, 680.582 671.210, 681.386 673.500, 681.570 677.589, 674.256 672.294, 665.773 666.999, 657.290 663.524, 651.723 658.968, 644.424 653.754, 636.074 648.459, 627.591 646.808, 624.945 641.824, 616.962 636.529, 608.479 631.234, 599.996 629.893, 597.848 635.005, 591.100 641.043, 583.128 644.009, 579.212 649.494, 571.970 655.532, 563.999 657.331, 561.624 663.116, 553.985 668.733, 546.571 674.771, 538.600 680.808, 530.628 685.014, 525.076 675.030, 524.502 665.047, 523.929 655.063, 523.355 652.797, 523.225 648.180, 527.750 642.269, 535.816 640.299, 538.505 634.818, 545.985 628.907, 554.051 625.797, 558.295 620.393, 565.669 614.483, 573.735 613.335, 575.301 608.627, 581.726 " />
            <path fill="none" stroke-width="3.0" stroke-linecap="butt" stroke-opacity="1.0" stroke="rgb(0, 0, 0)" stroke-linejoin="round" d=" M 608.627, 581.726 604.841, 575.588 599.591, 567.077 597.685, 563.985 592.763, 556.007 587.513, 547.496 584.650, 542.853 579.627, 534.710 574.378, 526.199 572.624, 523.356 " />
            <path fill="none" stroke-width="3.0" stroke-linecap="butt" stroke-opacity="1.0" stroke="rgb(0, 0, 0)" stroke-linejoin="round" d=" M 578.592, 518.961 572.624, 523.356 562.641, 522.775 552.658, 522.194 542.675, 521.613 540.638, 521.495 " />
            <path fill="none" stroke-width="3.0" stroke-linecap="butt" stroke-opacity="1.0" stroke="rgb(0, 0, 0)" stroke-linejoin="round" d=" M 673.500, 681.570 668.204, 673.088 662.908, 664.606 659.167, 658.615 654.526, 651.178 649.213, 642.672 643.918, 634.188 642.135, 631.333 637.056, 623.201 631.760, 614.719 626.464, 606.236 624.898, 603.728 " />
            <path fill="none" stroke-width="3.0" stroke-linecap="butt" stroke-opacity="1.0" stroke="rgb(0, 0, 0)" stroke-linejoin="round" d=" M 629.893, 597.848 624.898, 603.728 630.099, 596.861 636.136, 588.889 639.260, 584.764 644.843, 577.393 650.880, 569.421 652.816, 566.864 658.704, 559.089 664.420, 551.542 670.457, 543.570 676.495, 535.598 680.992, 529.659 " />
            <path fill="none" stroke-width="3.0" stroke-linecap="butt" stroke-opacity="1.0" stroke="rgb(0, 0, 0)" stroke-linejoin="round" d=" M 685.014, 525.076 680.992, 529.659 671.009, 529.078 661.026, 528.497 651.043, 527.917 648.180, 527.750 " />
        </g>
    </g>
</svg>
