<?xml version='1.0' encoding='ascii'?>
<svg xmlns="http://www.w3.org/2000/svg" version="1.1" width="1080" height="1080">
    <g id="ViewLayer_LineSet" xmlns:inkscape="http://www.inkscape.org/namespaces/inkscape" inkscape:groupmode="lineset" inkscape:label="ViewLayer_LineSet">
        <g xmlns:inkscape="http://www.inkscape.org/namespaces/inkscape" inkscape:groupmode="layer" id="strokes" inkscape:label="strokes">
            <path fill="none" stroke-width="3.0" stroke-linecap="butt" stroke-opacity="1.0" stroke="rgb(0, 0, 0)" stroke-linejoin="round" d=" M 968.015, 596.717 969.934, 606.531 969.983, 606.784 969.266, 616.758 968.847, 622.578 965.549, 632.019 963.701, 637.310 957.578, 645.217 954.856, 648.732 947.670, 655.687 945.878, 657.421 936.309, 660.326 935.756, 660.493 928.082, 662.800 918.115, 661.990 909.804, 661.314 902.508, 657.990 893.503, 653.641 892.579, 653.195 886.572, 645.200 885.423, 643.670 880.460, 634.989 878.307, 631.222 876.404, 621.405 875.421, 616.335 " />
            <path fill="none" stroke-width="3.0" stroke-linecap="butt" stroke-opacity="1.0" stroke="rgb(0, 0, 0)" stroke-linejoin="round" d=" M 854.651, 656.523 860.268, 664.796 862.368, 667.889 869.506, 674.892 871.401, 676.752 879.305, 682.879 879.814, 683.273 888.486, 688.252 890.570, 689.448 900.140, 692.347 908.287, 694.814 918.260, 695.560 926.967, 696.211 936.874, 694.848 945.422, 693.672 954.721, 689.996 956.906, 689.132 965.743, 684.452 966.399, 684.105 974.500, 678.242 976.858, 676.536 983.706, 669.249 986.339, 666.447 992.025, 658.235 997.107, 649.623 997.526, 648.912 1000.485, 639.360 1002.737, 632.086 1003.377, 622.107 1003.870, 614.429 1002.277, 604.557 1001.067, 597.064 999.010, 591.072 995.263, 581.800 995.103, 581.405 990.777, 572.472 985.150, 564.205 982.982, 561.020 975.910, 553.950 973.974, 552.014 965.974, 546.015 965.341, 545.540 956.715, 540.482 954.671, 539.284 945.035, 536.609 936.697, 534.294 926.709, 533.787 918.051, 533.348 908.196, 535.042 899.858, 536.476 890.685, 540.457 888.821, 541.265 880.153, 546.252 879.614, 546.562 871.717, 552.697 869.655, 554.299 862.963, 561.729 860.638, 564.311 855.280, 572.493 850.358, 581.198 850.210, 581.459 847.439, 591.067 845.518, 597.731 844.579, 603.708 843.977, 613.690 843.538, 620.979 845.220, 630.837 846.431, 637.930 850.159, 647.210 850.370, 647.734 854.651, 656.523 " />
            <path fill="none" stroke-width="3.0" stroke-linecap="butt" stroke-opacity="1.0" stroke="rgb(0, 0, 0)" stroke-linejoin="round" d=" M 968.396, 597.369 970.315, 607.183 971.461, 613.046 970.741, 623.020 970.300, 629.137 966.997, 638.576 965.049, 644.140 958.920, 652.041 956.029, 655.766 948.836, 662.713 946.875, 664.607 937.302, 667.500 936.556, 667.725 928.732, 670.067 918.766, 669.246 910.100, 668.532 902.664, 665.139 893.661, 660.785 892.543, 660.245 886.537, 652.250 885.250, 650.537 880.287, 641.856 877.998, 637.851 876.093, 628.034 875.012, 622.460 875.421, 616.335 876.072, 606.601 879.173, 597.094 880.952, 591.638 887.029, 583.696 889.815, 580.055 896.779, 572.878 898.386, 571.222 907.888, 568.106 909.185, 567.681 917.001, 565.328 926.983, 565.922 935.577, 566.432 942.997, 569.779 952.036, 574.055 953.493, 574.744 959.525, 582.720 960.919, 584.563 965.961, 593.199 968.015, 596.717 968.396, 597.369 " />
            <path fill="none" stroke-width="3.0" stroke-linecap="butt" stroke-opacity="1.0" stroke="rgb(0, 0, 0)" stroke-linejoin="round" d=" M 1001.067, 597.064 997.320, 587.792 997.085, 587.209 992.725, 578.209 992.674, 578.102 987.047, 569.835 984.726, 566.425 977.655, 559.355 975.540, 557.240 967.541, 551.239 966.736, 550.636 958.111, 545.575 955.855, 544.251 946.220, 541.571 937.526, 539.153 927.539, 538.639 918.513, 538.175 908.657, 539.862 899.964, 541.350 890.787, 545.323 888.712, 546.221 880.041, 551.201 879.327, 551.611 871.425, 557.740 869.176, 559.485 862.479, 566.912 859.985, 569.679 854.526, 578.009 849.600, 586.712 849.359, 587.137 846.588, 596.746 844.579, 603.708 " />
            <path fill="none" stroke-width="3.0" stroke-linecap="butt" stroke-opacity="1.0" stroke="rgb(0, 0, 0)" stroke-linejoin="round" d=" M 613.469, 632.455 618.492, 632.827 628.465, 633.566 632.593, 633.871 642.556, 634.734 648.902, 635.284 658.895, 634.908 666.334, 634.629 675.176, 629.958 675.425, 629.826 683.696, 624.205 685.000, 623.319 690.947, 615.280 691.455, 614.594 696.647, 606.507 700.390, 600.450 702.764, 590.736 704.455, 583.814 703.536, 573.856 702.848, 566.411 698.662, 557.330 698.320, 556.588 693.131, 548.040 692.790, 547.478 685.788, 540.339 684.387, 538.912 676.314, 533.010 674.791, 531.896 665.041, 529.678 657.332, 527.923 647.340, 527.512 640.816, 527.244 630.833, 526.664 624.945, 526.321 614.962, 525.741 609.150, 525.403 599.166, 524.822 592.419, 524.430 586.643, 528.982 586.373, 538.978 586.103, 548.974 586.081, 549.807 585.811, 559.803 585.650, 565.759 585.380, 575.755 585.221, 581.651 584.951, 591.648 584.794, 597.486 584.524, 607.482 584.368, 613.261 584.098, 623.258 583.944, 628.979 583.674, 638.975 583.521, 644.639 583.252, 654.635 583.100, 660.241 582.831, 670.238 582.561, 680.234 582.555, 680.440 592.522, 681.253 599.282, 681.805 609.249, 682.618 611.935, 682.837 617.167, 675.494 617.478, 665.499 617.786, 655.571 618.096, 645.576 618.264, 640.183 618.492, 632.827 " />
            <path fill="none" stroke-width="3.0" stroke-linecap="butt" stroke-opacity="1.0" stroke="rgb(0, 0, 0)" stroke-linejoin="round" d=" M 611.935, 682.837 612.239, 672.841 612.544, 662.846 612.553, 662.555 612.857, 652.560 613.030, 646.888 613.334, 636.893 613.469, 632.455 " />
            <path fill="none" stroke-width="3.0" stroke-linecap="butt" stroke-opacity="1.0" stroke="rgb(0, 0, 0)" stroke-linejoin="round" d=" M 666.184, 599.293 658.129, 603.381 648.156, 602.646 638.333, 601.921 628.357, 601.236 619.492, 600.626 619.803, 590.631 620.113, 580.636 620.193, 578.069 620.503, 568.073 620.679, 562.398 620.835, 557.379 " />
            <path fill="none" stroke-width="3.0" stroke-linecap="butt" stroke-opacity="1.0" stroke="rgb(0, 0, 0)" stroke-linejoin="round" d=" M 614.257, 606.609 614.561, 596.614 614.866, 586.619 614.957, 583.637 615.261, 573.642 615.443, 567.677 615.747, 557.682 615.766, 557.049 620.835, 557.379 630.814, 558.028 635.142, 558.310 645.133, 558.737 654.046, 559.117 662.442, 564.549 667.691, 567.944 668.970, 577.862 670.178, 587.240 667.032, 596.733 666.184, 599.293 664.676, 603.841 " />
            <path fill="none" stroke-width="3.0" stroke-linecap="butt" stroke-opacity="1.0" stroke="rgb(0, 0, 0)" stroke-linejoin="round" d=" M 696.647, 606.507 699.018, 596.792 700.781, 589.565 699.858, 579.608 699.138, 571.835 694.949, 562.754 694.520, 561.823 689.330, 553.275 688.883, 552.538 681.881, 545.398 680.318, 543.803 672.247, 537.899 670.539, 536.649 660.790, 534.423 652.752, 532.588 642.761, 532.170 635.930, 531.884 625.947, 531.296 619.766, 530.932 609.783, 530.344 603.679, 529.985 593.697, 529.397 586.643, 528.982 " />
            <path fill="none" stroke-width="3.0" stroke-linecap="butt" stroke-opacity="1.0" stroke="rgb(0, 0, 0)" stroke-linejoin="round" d=" M 664.676, 603.841 655.756, 608.361 653.603, 609.452 643.631, 608.707 633.658, 607.962 633.443, 607.946 623.467, 607.251 614.257, 606.609 619.492, 600.626 " />
            <path fill="none" stroke-width="3.0" stroke-linecap="butt" stroke-opacity="1.0" stroke="rgb(0, 0, 0)" stroke-linejoin="round" d=" M 433.235, 570.521 431.823, 568.240 426.557, 559.739 424.770, 556.854 419.920, 549.024 414.654, 540.523 411.925, 536.116 406.975, 528.125 401.709, 519.624 400.073, 516.982 390.090, 516.396 380.108, 515.810 370.125, 515.223 369.497, 515.186 360.329, 519.181 359.627, 519.487 364.959, 527.947 370.292, 536.407 374.330, 542.813 379.663, 551.273 384.708, 559.276 390.041, 567.736 395.373, 576.195 396.917, 578.645 402.250, 587.105 405.221, 591.819 409.954, 599.328 404.201, 607.507 398.447, 615.686 397.606, 616.882 392.476, 624.175 386.722, 632.354 385.351, 634.303 380.025, 641.875 375.384, 648.472 369.630, 656.651 363.877, 664.830 361.140, 668.720 371.106, 669.543 381.072, 670.366 391.038, 671.189 391.722, 671.246 399.662, 665.167 400.887, 664.230 406.607, 656.028 412.327, 647.825 412.466, 647.626 418.186, 639.423 420.166, 636.584 424.971, 629.692 428.558, 624.549 " />
            <path fill="none" stroke-width="3.0" stroke-linecap="butt" stroke-opacity="1.0" stroke="rgb(0, 0, 0)" stroke-linejoin="round" d=" M 412.466, 647.626 407.065, 655.369 401.345, 663.572 400.887, 664.230 " />
            <path fill="none" stroke-width="3.0" stroke-linecap="butt" stroke-opacity="1.0" stroke="rgb(0, 0, 0)" stroke-linejoin="round" d=" M 391.722, 671.246 397.436, 663.040 397.998, 662.233 403.481, 654.359 409.196, 646.153 411.302, 643.128 416.183, 636.118 421.898, 627.912 423.552, 625.536 426.538, 621.248 428.558, 624.549 433.778, 633.078 436.453, 637.450 441.228, 645.254 446.448, 653.783 448.978, 657.919 454.198, 666.449 454.316, 666.642 459.536, 675.172 460.614, 676.934 470.580, 677.757 480.546, 678.580 490.512, 679.403 491.937, 679.521 499.091, 672.534 499.386, 672.246 494.075, 663.772 488.765, 655.299 485.266, 649.717 480.693, 642.420 475.459, 634.071 470.149, 625.598 468.486, 622.944 463.483, 614.963 458.173, 606.490 452.862, 598.016 451.506, 595.853 456.340, 589.103 462.161, 580.972 464.853, 577.212 470.675, 569.082 476.497, 560.951 477.450, 559.620 482.921, 551.979 488.231, 544.564 494.053, 536.433 499.875, 528.302 503.626, 523.063 493.643, 522.477 483.660, 521.891 473.678, 521.305 472.278, 521.222 464.212, 525.708 458.526, 533.934 456.776, 536.466 451.605, 543.947 445.918, 552.173 443.093, 556.260 437.995, 563.636 433.235, 570.521 427.549, 578.746 426.892, 579.697 " />
            <path fill="none" stroke-width="3.0" stroke-linecap="butt" stroke-opacity="1.0" stroke="rgb(0, 0, 0)" stroke-linejoin="round" d=" M 426.892, 579.697 423.090, 573.560 417.823, 565.060 415.902, 561.960 410.960, 553.982 405.693, 545.482 402.812, 540.832 397.767, 532.690 392.501, 524.190 390.734, 521.338 " />
            <path fill="none" stroke-width="3.0" stroke-linecap="butt" stroke-opacity="1.0" stroke="rgb(0, 0, 0)" stroke-linejoin="round" d=" M 400.073, 516.982 391.010, 521.209 390.734, 521.338 380.751, 520.744 370.769, 520.150 360.786, 519.556 359.627, 519.487 " />
            <path fill="none" stroke-width="3.0" stroke-linecap="butt" stroke-opacity="1.0" stroke="rgb(0, 0, 0)" stroke-linejoin="round" d=" M 491.937, 679.521 486.625, 671.048 481.314, 662.576 477.548, 656.570 472.890, 649.134 467.554, 640.630 462.245, 632.156 460.450, 629.293 455.350, 621.163 450.039, 612.690 444.727, 604.218 443.145, 601.694 " />
            <path fill="none" stroke-width="3.0" stroke-linecap="butt" stroke-opacity="1.0" stroke="rgb(0, 0, 0)" stroke-linejoin="round" d=" M 477.450, 559.620 471.628, 567.750 470.039, 569.969 464.853, 577.212 " />
            <path fill="none" stroke-width="3.0" stroke-linecap="butt" stroke-opacity="1.0" stroke="rgb(0, 0, 0)" stroke-linejoin="round" d=" M 451.506, 595.853 443.308, 601.580 443.145, 601.694 448.057, 594.825 453.873, 586.691 456.709, 582.726 461.982, 575.352 467.798, 567.218 469.512, 564.821 475.073, 557.044 480.471, 549.495 486.288, 541.361 492.104, 533.226 496.123, 527.607 " />
            <path fill="none" stroke-width="3.0" stroke-linecap="butt" stroke-opacity="1.0" stroke="rgb(0, 0, 0)" stroke-linejoin="round" d=" M 503.626, 523.063 496.123, 527.607 486.141, 527.013 476.158, 526.419 466.176, 525.825 464.212, 525.708 " />
        </g>
    </g>
</svg>
