<?xml version='1.0' encoding='ascii'?>
<svg xmlns="http://www.w3.org/2000/svg" version="1.1" width="1080" height="1080">
    <g id="ViewLayer_LineSet" xmlns:inkscape="http://www.inkscape.org/namespaces/inkscape" inkscape:groupmode="lineset" inkscape:label="ViewLayer_LineSet">
        <g xmlns:inkscape="http://www.inkscape.org/namespaces/inkscape" inkscape:groupmode="layer" id="strokes" inkscape:label="strokes">
            <path fill="none" stroke-width="3.0" stroke-linecap="butt" stroke-opacity="1.0" stroke="rgb(0, 0, 0)" stroke-linejoin="round" d=" M 622.025, 647.029 622.340, 637.034 622.498, 632.009 622.813, 622.014 622.973, 616.935 623.288, 606.940 623.450, 601.807 623.765, 591.812 623.928, 586.626 624.244, 576.631 624.409, 571.391 624.724, 561.396 624.891, 556.102 625.206, 546.106 625.374, 540.758 625.689, 530.762 626.006, 520.728 616.022, 520.156 606.038, 519.584 597.338, 519.086 591.801, 523.422 591.525, 533.418 591.250, 543.414 591.241, 543.730 590.966, 553.726 590.812, 559.287 590.537, 569.283 590.385, 574.788 590.109, 584.784 589.959, 590.233 589.684, 600.229 589.535, 605.623 589.259, 615.619 589.112, 620.957 588.837, 630.953 588.691, 636.237 588.415, 646.233 588.271, 651.462 587.996, 661.458 587.728, 671.173 597.696, 671.972 607.664, 672.771 616.389, 673.470 621.412, 666.478 621.727, 656.483 622.025, 647.029 " />
            <path fill="none" stroke-width="3.0" stroke-linecap="butt" stroke-opacity="1.0" stroke="rgb(0, 0, 0)" stroke-linejoin="round" d=" M 616.389, 673.470 616.698, 663.475 617.001, 653.679 617.311, 643.684 617.475, 638.393 617.784, 628.398 617.949, 623.051 618.259, 613.056 618.426, 607.654 618.735, 597.659 618.904, 592.202 619.214, 582.207 619.384, 576.693 619.694, 566.698 619.866, 561.129 620.176, 551.133 620.350, 545.507 620.659, 535.512 620.968, 525.517 620.981, 525.114 " />
            <path fill="none" stroke-width="3.0" stroke-linecap="butt" stroke-opacity="1.0" stroke="rgb(0, 0, 0)" stroke-linejoin="round" d=" M 626.006, 520.728 620.981, 525.114 610.998, 524.535 601.014, 523.956 591.801, 523.422 " />
            <path fill="none" stroke-width="3.0" stroke-linecap="butt" stroke-opacity="1.0" stroke="rgb(0, 0, 0)" stroke-linejoin="round" d=" M 347.819, 584.967 347.664, 584.646 345.316, 579.810 343.516, 576.102 340.136, 569.134 337.871, 564.470 336.047, 560.711 332.598, 553.605 330.417, 549.111 328.569, 545.303 325.052, 538.057 322.955, 533.735 321.082, 529.877 317.498, 522.490 315.484, 518.341 313.587, 514.433 310.195, 507.444 303.956, 507.082 296.744, 506.663 289.547, 506.245 281.649, 505.786 277.664, 507.213 274.604, 508.308 270.527, 509.768 270.602, 517.520 270.676, 525.211 270.750, 532.888 270.824, 540.551 270.898, 548.201 270.971, 555.837 271.045, 563.460 271.118, 571.069 271.191, 578.664 271.265, 586.247 271.338, 593.815 271.410, 601.371 271.483, 608.913 271.556, 616.442 271.628, 623.957 271.701, 631.460 271.773, 638.949 271.845, 646.425 271.917, 653.935 279.813, 654.578 287.007, 655.164 294.217, 655.751 298.518, 656.101 302.363, 653.715 305.250, 651.924 309.009, 649.592 308.970, 642.180 308.931, 634.801 308.892, 627.410 308.853, 620.006 308.814, 612.589 308.775, 605.159 308.735, 597.716 308.696, 590.260 308.661, 583.566 " />
            <path fill="none" stroke-width="3.0" stroke-linecap="butt" stroke-opacity="1.0" stroke="rgb(0, 0, 0)" stroke-linejoin="round" d=" M 297.930, 566.031 297.996, 576.031 298.025, 580.532 298.075, 588.145 298.124, 595.743 298.174, 603.329 298.223, 610.901 298.272, 618.460 298.321, 626.005 298.370, 633.537 298.419, 641.056 298.468, 648.561 298.518, 656.101 " />
            <path fill="none" stroke-width="3.0" stroke-linecap="butt" stroke-opacity="1.0" stroke="rgb(0, 0, 0)" stroke-linejoin="round" d=" M 300.044, 566.016 304.451, 574.992 304.661, 575.419 307.979, 582.178 308.661, 583.566 312.295, 590.969 315.690, 597.882 319.920, 606.499 323.390, 613.569 325.659, 618.188 327.536, 622.012 331.083, 629.236 333.883, 634.939 337.778, 635.241 345.124, 635.812 349.032, 636.116 352.589, 633.835 355.259, 632.123 358.735, 629.894 361.495, 624.695 364.999, 618.098 366.855, 614.600 369.102, 610.369 372.546, 603.883 376.753, 595.958 380.137, 589.584 381.961, 586.149 384.450, 581.463 385.336, 579.793 " />
            <path fill="none" stroke-width="3.0" stroke-linecap="butt" stroke-opacity="1.0" stroke="rgb(0, 0, 0)" stroke-linejoin="round" d=" M 299.543, 511.474 303.000, 518.589 304.933, 522.568 306.985, 526.792 310.638, 534.312 312.546, 538.240 314.683, 542.639 318.267, 550.016 320.153, 553.891 322.373, 558.468 325.887, 565.702 327.746, 569.528 330.053, 574.277 333.498, 581.369 335.332, 585.145 337.725, 590.068 341.294, 597.416 341.559, 596.910 344.901, 590.534 347.343, 585.876 347.819, 584.967 349.185, 582.362 352.628, 575.794 354.975, 571.316 356.855, 567.729 360.401, 560.965 362.652, 556.670 364.572, 553.007 368.221, 546.046 370.374, 541.937 372.334, 538.199 376.088, 531.038 378.143, 527.117 380.142, 523.302 383.748, 516.424 387.144, 514.895 389.693, 513.747 393.011, 512.252 399.226, 512.613 406.672, 513.046 414.135, 513.479 422.364, 513.957 422.302, 521.735 422.241, 529.451 422.180, 537.154 422.119, 544.843 422.058, 552.518 421.997, 560.180 421.937, 567.827 421.876, 575.462 421.816, 583.082 421.756, 590.689 421.696, 598.283 421.635, 605.863 421.576, 613.430 421.516, 620.983 421.456, 628.523 421.396, 636.050 421.337, 643.564 421.277, 651.064 421.218, 658.598 418.125, 661.030 415.750, 662.898 412.586, 665.387 404.359, 664.717 396.898, 664.110 389.455, 663.504 385.031, 663.144 385.059, 655.508 385.086, 647.907 385.114, 640.293 385.142, 632.665 385.170, 625.023 385.198, 617.367 385.227, 609.698 385.255, 602.015 385.283, 594.318 385.311, 586.607 385.336, 579.793 385.365, 571.897 385.381, 567.481 " />
            <path fill="none" stroke-width="3.0" stroke-linecap="butt" stroke-opacity="1.0" stroke="rgb(0, 0, 0)" stroke-linejoin="round" d=" M 310.195, 507.444 306.379, 508.888 303.448, 509.996 299.543, 511.474 293.201, 511.101 285.870, 510.670 278.555, 510.240 270.527, 509.768 " />
            <path fill="none" stroke-width="3.0" stroke-linecap="butt" stroke-opacity="1.0" stroke="rgb(0, 0, 0)" stroke-linejoin="round" d=" M 293.633, 572.609 297.930, 566.031 297.930, 566.031 300.044, 566.016 308.203, 565.957 " />
            <path fill="none" stroke-width="3.0" stroke-linecap="butt" stroke-opacity="1.0" stroke="rgb(0, 0, 0)" stroke-linejoin="round" d=" M 372.546, 603.883 374.384, 600.417 376.753, 595.958 " />
            <path fill="none" stroke-width="3.0" stroke-linecap="butt" stroke-opacity="1.0" stroke="rgb(0, 0, 0)" stroke-linejoin="round" d=" M 378.491, 580.493 375.119, 586.861 372.594, 591.627 370.743, 595.122 367.309, 601.605 364.909, 606.138 363.041, 609.664 359.547, 616.261 357.268, 620.563 355.385, 624.120 351.831, 630.830 349.032, 636.116 " />
            <path fill="none" stroke-width="3.0" stroke-linecap="butt" stroke-opacity="1.0" stroke="rgb(0, 0, 0)" stroke-linejoin="round" d=" M 413.603, 518.179 413.549, 526.098 413.494, 533.953 413.440, 541.794 413.386, 549.621 413.332, 557.434 413.278, 565.232 413.224, 573.016 413.171, 580.786 413.117, 588.542 413.063, 596.285 413.010, 604.013 412.957, 611.727 412.903, 619.427 412.850, 627.113 412.797, 634.786 412.744, 642.445 412.691, 650.090 412.639, 657.721 412.586, 665.387 " />
            <path fill="none" stroke-width="3.0" stroke-linecap="butt" stroke-opacity="1.0" stroke="rgb(0, 0, 0)" stroke-linejoin="round" d=" M 422.364, 513.957 419.226, 515.469 416.815, 516.631 413.603, 518.179 405.233, 517.687 397.642, 517.241 390.069, 516.795 383.748, 516.424 " />
            <path fill="none" stroke-width="3.0" stroke-linecap="butt" stroke-opacity="1.0" stroke="rgb(0, 0, 0)" stroke-linejoin="round" d=" M 389.840, 571.444 389.791, 571.401 385.381, 567.481 382.911, 572.146 378.491, 580.493 382.905, 572.146 " />
            <path fill="none" stroke-width="3.0" stroke-linecap="butt" stroke-opacity="1.0" stroke="rgb(0, 0, 0)" stroke-linejoin="round" d=" M 385.381, 567.481 382.905, 572.146 " />
            <path fill="none" stroke-width="3.0" stroke-linecap="butt" stroke-opacity="1.0" stroke="rgb(0, 0, 0)" stroke-linejoin="round" d=" M 166.811, 576.979 162.576, 571.093 156.915, 563.223 151.075, 555.105 150.173, 553.852 144.609, 546.115 138.769, 537.998 137.771, 536.610 132.302, 529.008 126.463, 520.890 125.369, 519.369 119.996, 511.901 114.156, 503.783 110.342, 498.481 100.359, 497.897 99.156, 497.827 90.314, 497.310 80.641, 499.846 76.100, 501.037 76.421, 511.032 76.720, 520.350 77.041, 530.345 77.195, 535.147 77.516, 545.142 77.668, 549.894 77.989, 559.889 78.140, 564.591 78.461, 574.586 78.611, 579.237 78.931, 589.232 79.079, 593.834 79.400, 603.829 79.546, 608.381 79.867, 618.376 80.012, 622.878 80.333, 632.873 80.614, 641.653 89.453, 642.377 99.419, 643.193 105.751, 643.712 114.860, 639.586 119.286, 637.581 119.010, 627.585 118.775, 619.046 118.500, 609.050 118.381, 604.733 118.105, 594.737 117.985, 590.373 117.710, 580.377 117.588, 575.964 117.517, 573.371 " />
            <path fill="none" stroke-width="3.0" stroke-linecap="butt" stroke-opacity="1.0" stroke="rgb(0, 0, 0)" stroke-linejoin="round" d=" M 105.751, 643.712 105.460, 633.717 105.202, 624.866 104.910, 614.870 104.777, 610.313 104.486, 600.317 104.352, 595.710 104.060, 585.714 103.924, 581.056 103.633, 571.061 103.341, 561.065 103.123, 553.585 109.006, 561.672 113.093, 567.291 117.517, 573.371 119.890, 576.634 125.637, 584.535 131.519, 592.621 132.523, 594.001 138.182, 601.780 144.064, 609.868 145.156, 611.370 150.728, 619.028 156.611, 627.115 159.185, 630.654 163.860, 637.079 169.742, 645.166 172.673, 649.196 182.640, 650.013 185.097, 650.214 194.236, 650.963 203.106, 646.345 206.420, 644.620 206.247, 634.621 206.095, 625.839 205.921, 615.841 205.843, 611.337 205.670, 601.339 205.591, 596.785 205.418, 586.787 205.338, 582.184 205.165, 572.186 205.084, 567.533 204.911, 557.534 204.829, 552.831 204.656, 542.833 204.574, 538.080 204.400, 528.081 204.317, 523.277 204.144, 513.279 203.986, 504.160 194.843, 503.625 184.861, 503.040 178.118, 502.646 168.545, 505.535 165.274, 506.523 165.492, 516.520 165.697, 525.897 165.915, 535.895 166.024, 540.898 166.242, 550.896 166.350, 555.847 166.568, 565.844 166.675, 570.744 166.811, 576.979 166.999, 585.589 167.217, 595.587 167.330, 600.797 " />
            <path fill="none" stroke-width="3.0" stroke-linecap="butt" stroke-opacity="1.0" stroke="rgb(0, 0, 0)" stroke-linejoin="round" d=" M 167.330, 600.797 162.763, 594.446 156.924, 586.328 154.493, 582.948 149.596, 576.142 143.834, 568.132 137.995, 560.014 136.973, 558.594 131.311, 550.721 125.470, 542.603 124.351, 541.047 118.786, 533.310 112.949, 525.190 111.733, 523.499 106.261, 515.899 100.422, 507.782 96.436, 502.242 " />
            <path fill="none" stroke-width="3.0" stroke-linecap="butt" stroke-opacity="1.0" stroke="rgb(0, 0, 0)" stroke-linejoin="round" d=" M 110.342, 498.481 100.689, 501.091 96.436, 502.242 86.454, 501.650 85.078, 501.569 76.100, 501.037 " />
            <path fill="none" stroke-width="3.0" stroke-linecap="butt" stroke-opacity="1.0" stroke="rgb(0, 0, 0)" stroke-linejoin="round" d=" M 194.236, 650.963 194.048, 640.965 193.877, 631.864 193.690, 621.865 193.600, 617.114 193.413, 607.116 193.322, 602.313 193.135, 592.315 193.044, 587.461 192.856, 577.463 192.764, 572.557 192.576, 562.559 192.483, 557.601 192.295, 547.603 192.201, 542.593 192.013, 532.595 191.918, 527.532 191.731, 517.534 191.553, 508.080 " />
            <path fill="none" stroke-width="3.0" stroke-linecap="butt" stroke-opacity="1.0" stroke="rgb(0, 0, 0)" stroke-linejoin="round" d=" M 203.986, 504.160 194.449, 507.167 191.553, 508.080 182.265, 507.530 172.282, 506.938 165.274, 506.523 " />
            <path fill="none" stroke-width="3.0" stroke-linecap="butt" stroke-opacity="1.0" stroke="rgb(0, 0, 0)" stroke-linejoin="round" d=" M 1042.290, 601.134 1035.818, 608.757 1029.345, 616.380 1028.160, 617.775 1022.079, 624.939 1015.606, 632.561 1013.631, 634.888 1007.159, 642.511 1001.813, 648.807 995.340, 656.430 988.868, 664.052 984.920, 668.702 986.594, 675.773 996.565, 676.533 1006.536, 677.294 1016.507, 678.054 1020.164, 678.333 1026.609, 670.688 1027.756, 669.328 1034.201, 661.682 1034.388, 661.461 1040.833, 653.815 1043.848, 650.240 1049.752, 643.236 1056.198, 635.590 1058.666, 632.663 1062.278, 628.378 1067.432, 636.948 1072.028, 644.591 1076.723, 652.400 1081.877, 660.970 1084.345, 665.074 " />
            <path fill="none" stroke-width="3.0" stroke-linecap="butt" stroke-opacity="1.0" stroke="rgb(0, 0, 0)" stroke-linejoin="round" d=" M 1081.782, 558.249 1075.731, 565.490 1069.319, 573.164 1062.906, 580.837 1062.554, 581.259 1058.879, 575.231 1053.673, 566.694 1051.931, 563.837 1047.153, 556.002 1041.947, 547.465 1039.276, 543.086 1034.400, 535.089 1029.194, 526.551 1027.601, 523.939 1017.616, 523.394 1007.631, 522.850 997.646, 522.305 994.046, 522.109 995.920, 526.544 1001.200, 535.036 1006.479, 543.529 1010.431, 549.886 1015.467, 557.986 1020.673, 566.360 1025.953, 574.853 1031.232, 583.345 1032.722, 585.742 1038.002, 594.235 1040.917, 598.925 1042.290, 601.134 1045.588, 606.439 1039.108, 614.055 1032.627, 621.671 1030.664, 623.978 1024.465, 631.265 1017.984, 638.881 1015.854, 641.385 1009.417, 648.950 1003.809, 655.541 997.328, 663.157 990.848, 670.773 986.594, 675.773 " />
            <path fill="none" stroke-width="3.0" stroke-linecap="butt" stroke-opacity="1.0" stroke="rgb(0, 0, 0)" stroke-linejoin="round" d=" M 1065.731, 586.828 1061.986, 580.688 1056.780, 572.150 1054.907, 569.079 1050.040, 561.097 1044.833, 552.559 1042.015, 547.937 1037.047, 539.790 1031.840, 531.252 1030.119, 528.430 " />
            <path fill="none" stroke-width="3.0" stroke-linecap="butt" stroke-opacity="1.0" stroke="rgb(0, 0, 0)" stroke-linejoin="round" d=" M 1027.601, 523.939 1030.119, 528.430 1020.135, 527.879 1010.150, 527.328 1000.165, 526.778 995.920, 526.544 " />
            <path fill="none" stroke-width="3.0" stroke-linecap="butt" stroke-opacity="1.0" stroke="rgb(0, 0, 0)" stroke-linejoin="round" d=" M 1085.340, 563.411 1079.169, 570.781 1072.749, 578.448 1066.328, 586.115 1065.731, 586.828 1062.554, 581.259 " />
            <path fill="none" stroke-width="3.0" stroke-linecap="butt" stroke-opacity="1.0" stroke="rgb(0, 0, 0)" stroke-linejoin="round" d=" M 382.911, 572.146 385.365, 571.897 " />
        </g>
    </g>
</svg>
