<?xml version='1.0' encoding='ascii'?>
<svg xmlns="http://www.w3.org/2000/svg" version="1.1" width="1080" height="1080">
    <g id="ViewLayer_LineSet" xmlns:inkscape="http://www.inkscape.org/namespaces/inkscape" inkscape:groupmode="lineset" inkscape:label="ViewLayer_LineSet">
        <g xmlns:inkscape="http://www.inkscape.org/namespaces/inkscape" inkscape:groupmode="layer" id="strokes" inkscape:label="strokes">
            <path fill="none" stroke-width="3.0" stroke-linecap="butt" stroke-opacity="1.0" stroke="rgb(0, 0, 0)" stroke-linejoin="round" d=" M 690.667, 648.586 691.063, 638.594 691.262, 633.568 691.658, 623.575 691.859, 618.496 692.254, 608.504 692.458, 603.372 692.853, 593.380 693.059, 588.193 693.454, 578.201 693.662, 572.961 694.057, 562.969 694.267, 557.674 694.663, 547.682 694.875, 542.333 695.270, 532.341 695.668, 522.308 685.684, 521.739 675.700, 521.171 666.703, 520.658 662.459, 525.024 662.101, 535.017 661.744, 545.011 661.733, 545.328 661.375, 555.322 661.176, 560.883 660.819, 570.876 660.622, 576.381 660.265, 586.374 660.070, 591.823 659.713, 601.816 659.520, 607.210 659.162, 617.203 658.971, 622.541 658.614, 632.535 658.425, 637.818 658.068, 647.811 657.881, 653.040 657.523, 663.033 657.176, 672.748 667.145, 673.541 677.113, 674.334 686.135, 675.052 689.897, 668.031 690.293, 658.039 690.667, 648.586 " />
            <path fill="none" stroke-width="3.0" stroke-linecap="butt" stroke-opacity="1.0" stroke="rgb(0, 0, 0)" stroke-linejoin="round" d=" M 686.135, 675.052 686.526, 665.059 686.910, 655.264 687.302, 645.272 687.509, 639.981 687.900, 629.988 688.110, 624.642 688.502, 614.650 688.713, 609.248 689.105, 599.256 689.319, 593.798 689.710, 583.806 689.926, 578.293 690.318, 568.300 690.536, 562.731 690.928, 552.738 691.148, 547.112 691.540, 537.120 691.931, 527.128 691.947, 526.723 " />
            <path fill="none" stroke-width="3.0" stroke-linecap="butt" stroke-opacity="1.0" stroke="rgb(0, 0, 0)" stroke-linejoin="round" d=" M 695.668, 522.308 691.947, 526.723 681.964, 526.148 671.980, 525.572 662.459, 525.024 " />
            <path fill="none" stroke-width="3.0" stroke-linecap="butt" stroke-opacity="1.0" stroke="rgb(0, 0, 0)" stroke-linejoin="round" d=" M 488.806, 590.935 487.306, 587.812 484.984, 582.977 483.204, 579.269 479.860, 572.302 477.619, 567.638 475.815, 563.880 472.404, 556.774 470.246, 552.281 468.418, 548.473 464.939, 541.228 462.864, 536.907 461.012, 533.049 457.467, 525.663 455.474, 521.515 453.598, 517.607 450.243, 510.619 443.868, 510.254 436.497, 509.831 429.143, 509.410 421.072, 508.947 417.994, 510.394 415.630, 511.505 412.481, 512.986 412.429, 520.735 412.376, 528.423 412.324, 536.097 412.272, 543.758 412.221, 551.405 412.169, 559.038 412.117, 566.658 412.066, 574.264 412.014, 581.857 411.963, 589.436 411.911, 597.002 411.860, 604.555 411.809, 612.094 411.758, 619.620 411.707, 627.133 411.656, 634.633 411.606, 642.119 411.555, 649.592 411.504, 657.100 419.573, 657.746 426.924, 658.336 434.292, 658.926 438.687, 659.278 441.628, 656.873 443.836, 655.066 446.711, 652.714 446.792, 645.304 446.872, 637.928 446.953, 630.540 447.034, 623.138 447.115, 615.724 447.196, 608.297 447.277, 600.856 447.358, 593.403 447.440, 585.937 447.493, 581.053 " />
            <path fill="none" stroke-width="3.0" stroke-linecap="butt" stroke-opacity="1.0" stroke="rgb(0, 0, 0)" stroke-linejoin="round" d=" M 439.586, 569.242 439.486, 579.242 439.441, 583.738 439.365, 591.348 439.289, 598.944 439.214, 606.526 439.138, 614.096 439.063, 621.651 438.987, 629.194 438.912, 636.723 438.837, 644.239 438.762, 651.742 438.687, 659.278 " />
            <path fill="none" stroke-width="3.0" stroke-linecap="butt" stroke-opacity="1.0" stroke="rgb(0, 0, 0)" stroke-linejoin="round" d=" M 441.749, 569.228 446.118, 578.223 446.317, 578.631 447.493, 581.053 449.600, 585.389 453.869, 594.178 457.228, 601.091 461.413, 609.707 464.847, 616.775 467.091, 621.395 468.948, 625.218 472.458, 632.441 475.227, 638.143 479.208, 638.448 486.716, 639.022 490.709, 639.327 493.342, 637.026 495.319, 635.298 497.892, 633.049 500.800, 627.854 504.491, 621.260 506.447, 617.764 508.813, 613.536 512.442, 607.054 516.874, 599.135 520.439, 592.765 522.361, 589.332 524.983, 584.649 528.484, 578.392 528.907, 577.638 " />
            <path fill="none" stroke-width="3.0" stroke-linecap="butt" stroke-opacity="1.0" stroke="rgb(0, 0, 0)" stroke-linejoin="round" d=" M 442.144, 514.706 445.563, 521.820 447.474, 525.799 449.504, 530.023 453.117, 537.542 455.004, 541.469 457.118, 545.868 460.662, 553.244 462.527, 557.119 464.723, 561.695 468.198, 568.928 470.037, 572.754 472.319, 577.502 475.726, 584.594 477.540, 588.369 479.906, 593.291 483.436, 600.639 483.716, 600.133 487.242, 593.761 488.806, 590.935 489.818, 589.106 491.761, 585.594 495.394, 579.030 497.870, 574.556 499.854, 570.971 503.594, 564.211 505.969, 559.919 507.995, 556.259 511.845, 549.302 514.116, 545.196 516.184, 541.460 520.144, 534.304 522.313, 530.386 524.422, 526.573 528.226, 519.699 530.661, 518.148 532.489, 516.984 534.868, 515.468 541.219, 515.832 548.828, 516.268 556.454, 516.705 564.863, 517.187 564.673, 524.963 564.484, 532.676 564.296, 540.376 564.109, 548.062 563.921, 555.734 563.734, 563.393 563.547, 571.038 563.361, 578.669 563.175, 586.287 562.989, 593.891 562.804, 601.482 562.618, 609.059 562.434, 616.623 562.249, 624.174 562.065, 631.711 561.881, 639.235 561.698, 646.746 561.515, 654.243 561.331, 661.775 559.154, 664.227 557.482, 666.111 555.255, 668.621 546.848, 667.948 539.224, 667.336 531.617, 666.727 527.096, 666.364 527.252, 658.732 527.407, 651.134 527.562, 643.522 527.718, 635.897 527.873, 628.258 528.030, 620.605 528.186, 612.939 528.343, 605.259 528.500, 597.565 528.657, 589.857 528.861, 579.859 528.907, 577.638 528.957, 575.153 529.047, 570.738 " />
            <path fill="none" stroke-width="3.0" stroke-linecap="butt" stroke-opacity="1.0" stroke="rgb(0, 0, 0)" stroke-linejoin="round" d=" M 450.243, 510.619 447.341, 512.083 445.113, 513.208 442.144, 514.706 435.661, 514.330 428.166, 513.896 420.688, 513.462 412.481, 512.986 " />
            <path fill="none" stroke-width="3.0" stroke-linecap="butt" stroke-opacity="1.0" stroke="rgb(0, 0, 0)" stroke-linejoin="round" d=" M 435.079, 575.816 439.587, 569.242 439.588, 569.242 441.749, 569.228 447.623, 569.190 450.098, 569.174 " />
            <path fill="none" stroke-width="3.0" stroke-linecap="butt" stroke-opacity="1.0" stroke="rgb(0, 0, 0)" stroke-linejoin="round" d=" M 512.442, 607.054 514.380, 603.591 516.874, 599.135 " />
            <path fill="none" stroke-width="3.0" stroke-linecap="butt" stroke-opacity="1.0" stroke="rgb(0, 0, 0)" stroke-linejoin="round" d=" M 521.780, 583.741 518.223, 590.106 515.560, 594.868 513.608, 598.361 509.987, 604.839 507.455, 609.370 505.485, 612.893 501.800, 619.486 499.396, 623.785 497.410, 627.340 493.662, 634.045 490.709, 639.327 " />
            <path fill="none" stroke-width="3.0" stroke-linecap="butt" stroke-opacity="1.0" stroke="rgb(0, 0, 0)" stroke-linejoin="round" d=" M 558.747, 521.469 558.559, 529.385 558.373, 537.237 558.187, 545.076 558.001, 552.899 557.816, 560.709 557.631, 568.504 557.446, 576.286 557.262, 584.053 557.078, 591.806 556.894, 599.545 556.711, 607.270 556.528, 614.982 556.345, 622.679 556.163, 630.362 555.981, 638.032 555.799, 645.688 555.618, 653.330 555.437, 660.958 555.255, 668.621 " />
            <path fill="none" stroke-width="3.0" stroke-linecap="butt" stroke-opacity="1.0" stroke="rgb(0, 0, 0)" stroke-linejoin="round" d=" M 564.863, 517.187 562.672, 518.721 560.989, 519.899 558.747, 521.469 550.190, 520.973 542.430, 520.523 534.688, 520.074 528.226, 519.699 " />
            <path fill="none" stroke-width="3.0" stroke-linecap="butt" stroke-opacity="1.0" stroke="rgb(0, 0, 0)" stroke-linejoin="round" d=" M 533.544, 574.702 531.539, 572.934 529.047, 570.738 526.442, 575.399 521.780, 583.741 526.436, 575.400 " />
            <path fill="none" stroke-width="3.0" stroke-linecap="butt" stroke-opacity="1.0" stroke="rgb(0, 0, 0)" stroke-linejoin="round" d=" M 529.047, 570.738 526.436, 575.400 " />
            <path fill="none" stroke-width="3.0" stroke-linecap="butt" stroke-opacity="1.0" stroke="rgb(0, 0, 0)" stroke-linejoin="round" d=" M 290.944, 583.250 288.993, 580.538 284.181, 573.850 278.519, 565.979 272.678, 557.862 271.776, 556.608 266.212, 548.872 260.371, 540.754 259.372, 539.367 253.904, 531.764 248.064, 523.647 246.969, 522.125 241.596, 514.657 235.756, 506.540 231.941, 501.237 221.957, 500.660 220.536, 500.578 211.520, 500.057 201.976, 503.043 199.449, 503.833 199.627, 513.832 199.794, 523.140 199.972, 533.138 200.058, 537.932 200.236, 547.931 200.321, 552.675 200.499, 562.673 200.583, 567.366 200.762, 577.365 200.845, 582.008 201.023, 592.007 201.105, 596.600 201.284, 606.598 201.365, 611.142 201.543, 621.141 201.624, 625.635 201.802, 635.634 201.959, 644.403 210.971, 645.131 220.938, 645.937 227.589, 646.474 236.389, 641.723 239.033, 640.296 238.898, 630.297 238.783, 621.766 238.648, 611.767 238.590, 607.458 238.455, 597.459 238.396, 593.102 238.261, 583.103 238.202, 578.698 238.121, 572.687 " />
            <path fill="none" stroke-width="3.0" stroke-linecap="butt" stroke-opacity="1.0" stroke="rgb(0, 0, 0)" stroke-linejoin="round" d=" M 227.589, 646.474 227.441, 636.475 227.310, 627.634 227.161, 617.635 227.094, 613.085 226.945, 603.087 226.877, 598.487 226.729, 588.488 226.659, 583.839 226.511, 573.840 226.363, 563.841 226.252, 556.376 232.135, 564.462 236.225, 570.082 238.121, 572.687 243.024, 579.425 248.773, 587.326 254.657, 595.412 255.661, 596.792 261.322, 604.572 267.205, 612.658 268.299, 614.161 273.873, 621.819 279.757, 629.905 282.333, 633.446 287.009, 639.871 292.893, 647.957 295.826, 651.988 305.793, 652.793 308.494, 653.011 317.812, 653.764 326.246, 648.391 327.846, 647.372 327.815, 637.372 327.788, 628.598 327.758, 618.598 327.744, 614.100 327.713, 604.100 327.699, 599.553 327.669, 589.554 327.654, 584.957 327.624, 574.957 327.610, 570.310 327.579, 560.310 327.565, 555.614 327.534, 545.614 327.519, 540.867 327.489, 530.867 327.474, 526.069 327.443, 516.069 327.416, 506.958 318.094, 506.418 308.111, 505.841 301.042, 505.432 291.660, 508.895 290.401, 509.359 290.475, 519.359 290.544, 528.727 290.617, 538.727 290.654, 543.723 290.727, 553.723 290.764, 558.667 290.837, 568.667 290.873, 573.559 290.944, 583.250 290.982, 588.400 291.055, 598.399 291.094, 603.603 " />
            <path fill="none" stroke-width="3.0" stroke-linecap="butt" stroke-opacity="1.0" stroke="rgb(0, 0, 0)" stroke-linejoin="round" d=" M 291.094, 603.603 286.526, 597.252 280.686, 589.134 278.255, 585.754 273.357, 578.947 267.595, 570.937 261.755, 562.820 260.733, 561.400 255.070, 553.526 249.229, 545.409 248.109, 543.852 242.544, 536.115 236.706, 527.996 235.489, 526.304 230.018, 518.705 224.178, 510.587 220.191, 505.047 " />
            <path fill="none" stroke-width="3.0" stroke-linecap="butt" stroke-opacity="1.0" stroke="rgb(0, 0, 0)" stroke-linejoin="round" d=" M 231.941, 501.237 222.428, 504.322 220.191, 505.047 210.208, 504.463 208.606, 504.369 199.449, 503.833 " />
            <path fill="none" stroke-width="3.0" stroke-linecap="butt" stroke-opacity="1.0" stroke="rgb(0, 0, 0)" stroke-linejoin="round" d=" M 317.812, 653.764 317.769, 643.764 317.731, 634.671 317.688, 624.671 317.668, 619.926 317.626, 609.926 317.605, 605.130 317.563, 595.130 317.542, 590.283 317.500, 580.283 317.479, 575.384 317.437, 565.384 317.416, 560.433 317.373, 550.433 317.352, 545.430 317.310, 535.430 317.288, 530.374 317.246, 520.374 317.205, 510.928 " />
            <path fill="none" stroke-width="3.0" stroke-linecap="butt" stroke-opacity="1.0" stroke="rgb(0, 0, 0)" stroke-linejoin="round" d=" M 327.416, 506.958 318.096, 510.582 317.205, 510.928 307.732, 510.374 297.749, 509.789 290.401, 509.359 " />
            <path fill="none" stroke-width="3.0" stroke-linecap="butt" stroke-opacity="1.0" stroke="rgb(0, 0, 0)" stroke-linejoin="round" d=" M 526.442, 575.399 528.957, 575.153 " />
        </g>
    </g>
</svg>
