<?xml version='1.0' encoding='ascii'?>
<svg xmlns="http://www.w3.org/2000/svg" version="1.1" width="1080" height="1080">
    <g id="ViewLayer_LineSet" xmlns:inkscape="http://www.inkscape.org/namespaces/inkscape" inkscape:groupmode="lineset" inkscape:label="ViewLayer_LineSet">
        <g xmlns:inkscape="http://www.inkscape.org/namespaces/inkscape" inkscape:groupmode="layer" id="strokes" inkscape:label="strokes">
            <path fill="none" stroke-width="3.0" stroke-linecap="butt" stroke-opacity="1.0" stroke="rgb(0, 0, 0)" stroke-linejoin="round" d=" M 410.428, 642.233 410.495, 632.233 410.528, 627.203 410.595, 617.204 410.628, 612.121 410.695, 602.121 410.729, 596.985 410.795, 586.985 410.830, 581.795 410.896, 571.795 410.931, 566.551 410.997, 556.552 411.033, 551.253 411.099, 541.254 411.134, 535.901 411.201, 525.901 411.268, 515.860 401.285, 515.277 391.302, 514.693 383.516, 514.238 374.382, 518.310 373.993, 518.484 373.970, 528.484 373.946, 538.484 373.946, 538.804 373.922, 548.804 373.909, 554.370 373.886, 564.370 373.873, 569.880 373.850, 579.880 373.837, 585.334 373.814, 595.334 373.802, 600.732 373.778, 610.732 373.766, 616.075 373.743, 626.075 373.730, 631.364 373.707, 641.364 373.695, 646.597 373.672, 656.597 373.649, 666.320 383.615, 667.138 393.582, 667.956 401.392, 668.597 409.296, 662.470 410.299, 661.692 410.365, 651.693 410.428, 642.233 " />
            <path fill="none" stroke-width="3.0" stroke-linecap="butt" stroke-opacity="1.0" stroke="rgb(0, 0, 0)" stroke-linejoin="round" d=" M 401.392, 668.597 401.448, 658.597 401.503, 648.794 401.559, 638.794 401.589, 633.499 401.645, 623.499 401.674, 618.148 401.730, 608.149 401.761, 602.743 401.817, 592.743 401.847, 587.281 401.903, 577.281 401.934, 571.764 401.990, 561.764 402.021, 556.190 402.077, 546.190 402.109, 540.560 402.165, 530.560 402.221, 520.560 402.223, 520.155 " />
            <path fill="none" stroke-width="3.0" stroke-linecap="butt" stroke-opacity="1.0" stroke="rgb(0, 0, 0)" stroke-linejoin="round" d=" M 411.268, 515.860 402.223, 520.155 392.240, 519.564 382.258, 518.973 373.993, 518.484 " />
            <path fill="none" stroke-width="3.0" stroke-linecap="butt" stroke-opacity="1.0" stroke="rgb(0, 0, 0)" stroke-linejoin="round" d=" M 88.276, 573.639 86.612, 570.278 83.164, 563.309 80.855, 558.643 78.994, 554.884 75.477, 547.776 73.253, 543.281 71.368, 539.472 67.781, 532.224 65.642, 527.902 63.732, 524.043 60.076, 516.655 58.022, 512.505 56.088, 508.595 52.629, 501.605 46.641, 501.248 39.718, 500.836 32.810, 500.425 25.229, 499.974 19.577, 501.362 15.236, 502.429 9.453, 503.849 9.762, 511.607 10.069, 519.303 10.375, 526.985 10.680, 534.654 10.985, 542.309 11.289, 549.950 11.593, 557.578 11.896, 565.192 12.199, 572.793 12.501, 580.381 12.803, 587.955 13.104, 595.515 13.404, 603.063 13.704, 610.596 14.004, 618.117 14.303, 625.625 14.601, 633.119 14.899, 640.600 15.198, 648.116 22.776, 648.751 29.680, 649.330 36.599, 649.911 40.726, 650.257 46.235, 647.909 50.371, 646.147 55.757, 643.851 55.497, 636.434 55.238, 629.050 54.979, 621.654 54.720, 614.245 54.460, 606.822 54.199, 599.387 53.938, 591.940 53.831, 588.883 " />
            <path fill="none" stroke-width="3.0" stroke-linecap="butt" stroke-opacity="1.0" stroke="rgb(0, 0, 0)" stroke-linejoin="round" d=" M 37.407, 560.125 37.775, 570.118 37.941, 574.636 38.222, 582.254 38.502, 589.858 38.782, 597.449 39.061, 605.026 39.339, 612.590 39.617, 620.140 39.895, 627.677 40.172, 635.201 40.449, 642.712 40.726, 650.257 " />
            <path fill="none" stroke-width="3.0" stroke-linecap="butt" stroke-opacity="1.0" stroke="rgb(0, 0, 0)" stroke-linejoin="round" d=" M 39.430, 560.108 43.905, 569.050 44.137, 569.514 47.520, 576.274 51.920, 585.066 53.831, 588.883 55.382, 591.981 59.694, 600.600 63.233, 607.671 65.546, 612.292 67.459, 616.116 71.076, 623.342 73.930, 629.046 77.668, 629.345 84.717, 629.909 88.467, 630.209 93.723, 627.967 97.669, 626.284 102.807, 624.092 105.295, 618.888 108.453, 612.282 110.127, 608.780 112.153, 604.544 115.258, 598.050 119.051, 590.116 121.781, 584.406 " />
            <path fill="none" stroke-width="3.0" stroke-linecap="butt" stroke-opacity="1.0" stroke="rgb(0, 0, 0)" stroke-linejoin="round" d=" M 37.280, 505.528 40.807, 512.645 42.779, 516.625 44.873, 520.850 48.599, 528.371 50.546, 532.300 52.727, 536.700 56.383, 544.079 58.308, 547.955 60.572, 552.533 64.157, 559.769 66.053, 563.596 68.408, 568.345 71.922, 575.440 73.793, 579.216 76.234, 584.140 79.876, 591.490 80.114, 590.983 83.118, 584.600 85.312, 579.936 86.968, 576.418 88.276, 573.639 90.063, 569.841 92.172, 565.359 93.862, 561.767 97.049, 554.995 99.072, 550.695 100.798, 547.028 104.078, 540.058 106.013, 535.944 107.774, 532.201 111.148, 525.032 112.996, 521.107 114.792, 517.287 118.034, 510.400 123.196, 508.911 127.071, 507.793 132.115, 506.338 138.081, 506.693 145.227, 507.119 152.390, 507.545 160.289, 508.016 160.463, 515.799 160.636, 523.521 160.809, 531.229 160.981, 538.923 161.153, 546.604 161.325, 554.270 161.496, 561.923 161.667, 569.563 161.838, 577.189 162.008, 584.801 162.178, 592.400 162.348, 599.985 162.518, 607.557 162.687, 615.116 162.856, 622.661 163.025, 630.193 163.193, 637.712 163.361, 645.217 163.530, 652.757 158.754, 655.150 155.085, 656.989 150.198, 659.439 142.303, 658.777 135.143, 658.176 127.999, 657.577 123.753, 657.221 123.546, 649.580 123.340, 641.974 123.133, 634.354 122.927, 626.720 122.720, 619.073 122.512, 611.412 122.304, 603.738 122.096, 596.049 121.887, 588.347 121.781, 584.406 121.678, 580.631 121.408, 570.634 121.280, 565.911 121.160, 561.491 " />
            <path fill="none" stroke-width="3.0" stroke-linecap="butt" stroke-opacity="1.0" stroke="rgb(0, 0, 0)" stroke-linejoin="round" d=" M 52.629, 501.605 47.130, 503.010 42.907, 504.090 37.280, 505.528 31.198, 505.161 24.167, 504.737 17.152, 504.314 9.453, 503.849 " />
            <path fill="none" stroke-width="3.0" stroke-linecap="butt" stroke-opacity="1.0" stroke="rgb(0, 0, 0)" stroke-linejoin="round" d=" M 33.495, 566.712 37.407, 560.125 37.407, 560.125 39.430, 560.108 47.237, 560.041 " />
            <path fill="none" stroke-width="3.0" stroke-linecap="butt" stroke-opacity="1.0" stroke="rgb(0, 0, 0)" stroke-linejoin="round" d=" M 115.258, 598.050 116.914, 594.581 119.051, 590.116 " />
            <path fill="none" stroke-width="3.0" stroke-linecap="butt" stroke-opacity="1.0" stroke="rgb(0, 0, 0)" stroke-linejoin="round" d=" M 114.963, 574.519 111.930, 580.895 109.659, 585.667 107.994, 589.165 104.906, 595.656 102.747, 600.195 101.067, 603.725 97.924, 610.330 95.875, 614.638 94.181, 618.199 90.985, 624.916 88.467, 630.209 " />
            <path fill="none" stroke-width="3.0" stroke-linecap="butt" stroke-opacity="1.0" stroke="rgb(0, 0, 0)" stroke-linejoin="round" d=" M 146.665, 512.128 146.855, 520.052 147.043, 527.913 147.231, 535.759 147.419, 543.592 147.607, 551.410 147.794, 559.214 147.981, 567.003 148.167, 574.779 148.353, 582.540 148.539, 590.288 148.725, 598.021 148.910, 605.741 149.095, 613.447 149.279, 621.138 149.463, 628.816 149.647, 636.480 149.830, 644.131 150.014, 651.767 150.198, 659.439 " />
            <path fill="none" stroke-width="3.0" stroke-linecap="butt" stroke-opacity="1.0" stroke="rgb(0, 0, 0)" stroke-linejoin="round" d=" M 160.289, 508.016 155.409, 509.489 151.660, 510.620 146.665, 512.128 138.638, 511.643 131.358, 511.204 124.095, 510.766 118.034, 510.400 " />
            <path fill="none" stroke-width="3.0" stroke-linecap="butt" stroke-opacity="1.0" stroke="rgb(0, 0, 0)" stroke-linejoin="round" d=" M 125.549, 565.453 121.160, 561.491 118.938, 566.161 114.963, 574.519 118.933, 566.162 " />
            <path fill="none" stroke-width="3.0" stroke-linecap="butt" stroke-opacity="1.0" stroke="rgb(0, 0, 0)" stroke-linejoin="round" d=" M 121.160, 561.491 118.933, 566.162 " />
            <path fill="none" stroke-width="3.0" stroke-linecap="butt" stroke-opacity="1.0" stroke="rgb(0, 0, 0)" stroke-linejoin="round" d=" M -7.388, 646.392 1.900, 642.685 8.305, 640.128 7.899, 630.136 7.542, 621.338 7.137, 611.346 6.953, 606.828 6.547, 596.836 6.362, 592.269 5.956, 582.277 5.769, 577.660 5.363, 567.668 5.174, 563.001 4.768, 553.009 4.577, 548.291 4.171, 538.300 3.978, 533.532 3.572, 523.540 3.376, 518.721 2.971, 508.730 2.600, 499.594 -6.250, 499.065 " />
            <path fill="none" stroke-width="3.0" stroke-linecap="butt" stroke-opacity="1.0" stroke="rgb(0, 0, 0)" stroke-linejoin="round" d=" M 2.600, 499.594 -7.126, 501.918 -13.459, 503.432 " />
            <path fill="none" stroke-width="3.0" stroke-linecap="butt" stroke-opacity="1.0" stroke="rgb(0, 0, 0)" stroke-linejoin="round" d=" M 1086.832, 530.492 1076.847, 529.942 1069.951, 529.563 1059.966, 529.014 1052.071, 528.580 1051.264, 538.547 1050.457, 548.515 1050.416, 549.016 1049.609, 558.983 1049.149, 564.671 1048.342, 574.639 1047.886, 580.269 1047.080, 590.237 1046.628, 595.811 1045.822, 605.779 1045.375, 611.297 1044.568, 621.264 1044.126, 626.726 1043.319, 636.694 1042.881, 642.100 1042.075, 652.067 1041.641, 657.419 1040.835, 667.386 1040.036, 677.251 1042.772, 684.595 1052.743, 685.362 1060.651, 685.970 1070.622, 686.737 1074.176, 687.010 1075.023, 677.046 1075.871, 667.082 1075.900, 666.738 1076.748, 656.774 1077.233, 651.079 1078.080, 641.115 1078.460, 636.653 1088.435, 637.350 1098.411, 638.047 1098.909, 638.082 " />
            <path fill="none" stroke-width="3.0" stroke-linecap="butt" stroke-opacity="1.0" stroke="rgb(0, 0, 0)" stroke-linejoin="round" d=" M 1055.086, 533.211 1054.275, 543.178 1053.465, 553.145 1053.393, 554.026 1052.582, 563.993 1052.096, 569.970 1051.285, 579.937 1050.804, 585.855 1049.993, 595.822 1049.517, 601.681 1048.706, 611.649 1048.234, 617.449 1047.423, 627.416 1046.956, 633.159 1046.146, 643.126 1045.683, 648.811 1044.872, 658.779 1044.415, 664.406 1043.604, 674.373 1042.793, 684.340 1042.772, 684.595 " />
            <path fill="none" stroke-width="3.0" stroke-linecap="butt" stroke-opacity="1.0" stroke="rgb(0, 0, 0)" stroke-linejoin="round" d=" M 1090.531, 535.183 1080.546, 534.627 1073.317, 534.225 1063.332, 533.670 1055.086, 533.211 1052.071, 528.580 " />
            <path fill="none" stroke-width="3.0" stroke-linecap="butt" stroke-opacity="1.0" stroke="rgb(0, 0, 0)" stroke-linejoin="round" d=" M 908.122, 604.473 913.394, 612.970 917.788, 620.054 922.742, 628.040 928.013, 636.538 929.646, 639.172 934.829, 647.525 939.358, 654.826 944.629, 663.323 949.901, 671.821 953.340, 677.365 954.452, 684.741 944.482, 683.965 934.512, 683.188 924.542, 682.411 920.911, 682.128 915.739, 673.570 914.689, 671.831 909.517, 663.272 909.416, 663.104 904.244, 654.545 901.758, 650.432 897.041, 642.625 891.869, 634.066 887.246, 626.415 883.806, 630.701 877.547, 638.499 875.318, 641.276 869.695, 648.282 863.436, 656.080 860.687, 659.506 854.371, 667.375 848.112, 675.173 847.142, 676.382 837.172, 675.605 827.202, 674.829 817.232, 674.052 814.395, 673.831 815.848, 666.797 822.139, 659.024 828.430, 651.250 831.952, 646.897 837.198, 640.416 843.219, 632.975 849.509, 625.202 851.272, 623.024 857.070, 615.859 863.360, 608.085 868.709, 601.476 " />
            <path fill="none" stroke-width="3.0" stroke-linecap="butt" stroke-opacity="1.0" stroke="rgb(0, 0, 0)" stroke-linejoin="round" d=" M 843.219, 632.975 836.928, 640.749 831.952, 646.897 " />
            <path fill="none" stroke-width="3.0" stroke-linecap="butt" stroke-opacity="1.0" stroke="rgb(0, 0, 0)" stroke-linejoin="round" d=" M 906.145, 606.875 908.122, 604.473 911.794, 600.011 918.147, 592.289 921.742, 587.919 927.805, 580.550 934.158, 572.828 936.464, 570.025 942.859, 562.252 949.066, 554.708 955.420, 546.986 961.773, 539.264 967.064, 532.833 965.695, 528.189 955.710, 527.634 945.725, 527.078 935.741, 526.523 932.133, 526.322 925.905, 534.146 919.676, 541.969 917.878, 544.228 911.649, 552.052 908.252, 556.318 902.487, 563.561 896.258, 571.384 889.930, 579.333 886.239, 573.307 881.016, 564.779 879.262, 561.915 874.464, 554.081 869.241, 545.553 866.555, 541.167 861.658, 533.172 856.436, 524.644 854.831, 522.024 844.846, 521.468 834.862, 520.913 824.877, 520.358 822.096, 520.203 820.736, 524.601 826.030, 533.085 831.324, 541.568 835.299, 547.939 840.594, 556.422 845.579, 564.410 850.873, 572.893 856.167, 581.377 857.672, 583.788 862.966, 592.272 865.897, 596.969 868.709, 601.476 870.585, 604.482 864.290, 612.251 857.994, 620.021 856.371, 622.024 850.466, 629.313 844.170, 637.083 842.264, 639.435 836.133, 647.002 830.792, 653.595 824.496, 661.365 818.201, 669.134 814.395, 673.831 " />
            <path fill="none" stroke-width="3.0" stroke-linecap="butt" stroke-opacity="1.0" stroke="rgb(0, 0, 0)" stroke-linejoin="round" d=" M 889.845, 584.865 886.084, 578.725 880.861, 570.198 878.976, 567.119 874.087, 559.138 868.864, 550.611 866.028, 545.981 861.039, 537.835 855.816, 529.308 854.083, 526.477 " />
            <path fill="none" stroke-width="3.0" stroke-linecap="butt" stroke-opacity="1.0" stroke="rgb(0, 0, 0)" stroke-linejoin="round" d=" M 854.831, 522.024 854.083, 526.477 844.099, 525.915 834.114, 525.354 824.130, 524.792 820.736, 524.601 " />
            <path fill="none" stroke-width="3.0" stroke-linecap="butt" stroke-opacity="1.0" stroke="rgb(0, 0, 0)" stroke-linejoin="round" d=" M 954.452, 684.741 949.180, 676.243 943.908, 667.746 940.206, 661.779 935.592, 654.339 930.312, 645.831 925.041, 637.333 923.276, 634.488 918.229, 626.354 912.958, 617.856 907.686, 609.359 906.145, 606.875 " />
            <path fill="none" stroke-width="3.0" stroke-linecap="butt" stroke-opacity="1.0" stroke="rgb(0, 0, 0)" stroke-linejoin="round" d=" M 917.878, 544.228 923.726, 536.884 929.954, 529.060 932.133, 526.322 932.854, 530.909 " />
            <path fill="none" stroke-width="3.0" stroke-linecap="butt" stroke-opacity="1.0" stroke="rgb(0, 0, 0)" stroke-linejoin="round" d=" M 967.064, 532.833 957.080, 532.271 947.095, 531.710 937.111, 531.148 932.854, 530.909 926.621, 538.728 924.284, 541.659 918.325, 549.137 912.091, 556.956 908.515, 561.442 902.640, 568.814 896.406, 576.634 890.173, 584.453 889.845, 584.865 889.930, 579.333 " />
            <path fill="none" stroke-width="3.0" stroke-linecap="butt" stroke-opacity="1.0" stroke="rgb(0, 0, 0)" stroke-linejoin="round" d=" M 118.938, 566.161 121.280, 565.911 " />
        </g>
    </g>
</svg>
