<?xml version='1.0' encoding='ascii'?>
<svg xmlns="http://www.w3.org/2000/svg" version="1.1" width="1080" height="1080">
    <g id="ViewLayer_LineSet" xmlns:inkscape="http://www.inkscape.org/namespaces/inkscape" inkscape:groupmode="lineset" inkscape:label="ViewLayer_LineSet">
        <g xmlns:inkscape="http://www.inkscape.org/namespaces/inkscape" inkscape:groupmode="layer" id="strokes" inkscape:label="strokes">
            <path fill="none" stroke-width="3.0" stroke-linecap="butt" stroke-opacity="1.0" stroke="rgb(0, 0, 0)" stroke-linejoin="round" d=" M 1037.090, 593.814 1038.958, 603.638 1039.677, 607.417 1038.878, 617.385 1038.411, 623.211 1035.021, 632.618 1033.103, 637.941 1026.904, 645.788 1024.082, 649.362 1016.835, 656.253 1014.946, 658.049 1005.367, 660.919 1004.697, 661.120 996.926, 663.426 986.958, 662.622 978.470, 661.938 971.123, 658.613 962.107, 654.288 961.127, 653.818 955.118, 645.824 953.967, 644.294 949.014, 635.606 946.870, 631.846 945.047, 622.173 " />
            <path fill="none" stroke-width="3.0" stroke-linecap="butt" stroke-opacity="1.0" stroke="rgb(0, 0, 0)" stroke-linejoin="round" d=" M 924.144, 657.155 929.760, 665.429 931.857, 668.520 939.006, 675.513 940.919, 677.384 948.836, 683.493 949.371, 683.906 958.056, 688.862 960.194, 690.081 969.771, 692.959 978.058, 695.449 988.031, 696.188 996.924, 696.847 1006.833, 695.500 1015.593, 694.310 1024.910, 690.677 1027.233, 689.772 1036.099, 685.145 1036.864, 684.745 1045.010, 678.945 1047.491, 677.179 1054.406, 669.955 1057.148, 667.090 1062.956, 658.880 1068.126, 650.320 1068.586, 649.558 1071.639, 640.036 1073.979, 632.734 1074.701, 622.760 1075.258, 615.078 1073.720, 605.197 1072.556, 597.714 1068.836, 588.431 1068.606, 587.859 1064.265, 578.851 1064.217, 578.752 1060.939, 573.110 1055.315, 564.841 1053.149, 561.658 1046.067, 554.598 1044.115, 552.652 1036.101, 546.671 1035.440, 546.178 1026.801, 541.142 1024.705, 539.920 1015.064, 537.265 1006.582, 534.929 996.595, 534.427 987.750, 533.981 977.892, 535.656 969.346, 537.108 960.153, 541.042 958.159, 541.895 949.460, 546.827 948.818, 547.192 940.873, 553.264 938.698, 554.926 931.938, 562.295 929.513, 564.938 924.040, 573.118 919.030, 581.773 918.851, 582.083 915.988, 591.664 913.989, 598.353 913.307, 608.330 912.830, 615.311 913.183, 621.612 914.810, 631.479 915.978, 638.563 919.680, 647.852 919.884, 648.366 924.144, 657.155 " />
            <path fill="none" stroke-width="3.0" stroke-linecap="butt" stroke-opacity="1.0" stroke="rgb(0, 0, 0)" stroke-linejoin="round" d=" M 1039.538, 598.016 1041.405, 607.840 1042.516, 613.692 1041.714, 623.660 1041.221, 629.782 1037.824, 639.187 1035.802, 644.783 1029.595, 652.624 1026.599, 656.408 1019.344, 663.290 1017.281, 665.247 1007.698, 668.105 1006.830, 668.364 998.905, 670.705 988.938, 669.891 980.089, 669.169 972.599, 665.775 963.585, 661.445 962.409, 660.880 956.401, 652.886 955.112, 651.172 950.159, 642.485 947.879, 638.487 946.026, 628.660 944.978, 623.096 945.047, 622.173 945.796, 612.201 946.169, 607.238 949.364, 597.763 951.214, 592.277 957.369, 584.395 960.258, 580.695 967.287, 573.582 968.986, 571.864 978.500, 568.785 979.926, 568.324 987.842, 565.972 997.825, 566.561 1006.606, 567.078 1014.079, 570.425 1023.129, 574.678 1024.648, 575.391 1030.683, 583.366 1032.079, 585.210 1037.090, 593.814 1039.538, 598.016 " />
            <path fill="none" stroke-width="3.0" stroke-linecap="butt" stroke-opacity="1.0" stroke="rgb(0, 0, 0)" stroke-linejoin="round" d=" M 1064.217, 578.752 1058.593, 570.484 1056.274, 567.076 1049.192, 560.016 1047.060, 557.890 1039.047, 551.908 1038.214, 551.285 1029.575, 546.248 1027.265, 544.900 1017.625, 542.241 1008.781, 539.801 998.794, 539.291 989.575, 538.821 979.715, 540.488 970.807, 541.994 961.610, 545.920 959.399, 546.864 950.695, 551.788 949.874, 552.253 941.924, 558.319 939.556, 560.125 932.790, 567.489 930.191, 570.317 924.611, 578.646 919.597, 587.298 919.321, 587.774 916.456, 597.354 914.365, 604.342 913.682, 614.319 913.183, 621.612 " />
            <path fill="none" stroke-width="3.0" stroke-linecap="butt" stroke-opacity="1.0" stroke="rgb(0, 0, 0)" stroke-linejoin="round" d=" M 676.301, 633.022 680.107, 633.302 690.080, 634.034 695.604, 634.440 705.567, 635.296 712.064, 635.854 722.057, 635.483 729.673, 635.200 738.541, 630.580 738.888, 630.399 747.197, 624.835 748.604, 623.893 754.625, 615.909 755.183, 615.169 760.485, 607.084 763.019, 601.016 765.478, 591.322 767.239, 584.381 766.379, 574.418 765.737, 566.979 761.569, 557.889 761.233, 557.156 756.051, 548.604 755.713, 548.046 748.701, 540.917 747.288, 539.479 739.202, 533.595 737.648, 532.464 727.893, 530.261 720.047, 528.489 710.055, 528.082 703.376, 527.809 693.392, 527.233 687.358, 526.885 677.374, 526.309 671.415, 525.965 661.432, 525.389 654.529, 524.990 649.941, 529.553 649.598, 539.547 649.255, 549.541 649.226, 550.377 648.883, 560.371 648.678, 566.328 648.335, 576.322 648.133, 582.219 647.790, 592.213 647.589, 598.052 647.246, 608.046 647.048, 613.827 646.705, 623.821 646.508, 629.544 646.165, 639.538 645.971, 645.202 645.628, 655.197 645.435, 660.804 645.092, 670.798 644.749, 680.792 644.742, 681.001 654.709, 681.808 661.624, 682.367 671.592, 683.174 674.395, 683.401 678.470, 676.047 678.853, 666.055 679.233, 656.126 679.616, 646.133 679.822, 640.739 680.107, 633.302 " />
            <path fill="none" stroke-width="3.0" stroke-linecap="butt" stroke-opacity="1.0" stroke="rgb(0, 0, 0)" stroke-linejoin="round" d=" M 674.395, 683.401 674.773, 673.408 675.151, 663.415 675.162, 663.120 675.540, 653.127 675.755, 647.454 676.133, 637.461 676.301, 633.022 " />
            <path fill="none" stroke-width="3.0" stroke-linecap="butt" stroke-opacity="1.0" stroke="rgb(0, 0, 0)" stroke-linejoin="round" d=" M 730.040, 599.079 721.099, 603.557 720.328, 603.942 710.355, 603.213 700.351, 602.481 690.374, 601.801 681.337, 601.184 681.719, 591.192 682.102, 581.199 682.200, 578.628 682.583, 568.636 682.800, 562.959 682.995, 557.869 " />
            <path fill="none" stroke-width="3.0" stroke-linecap="butt" stroke-opacity="1.0" stroke="rgb(0, 0, 0)" stroke-linejoin="round" d=" M 677.279, 607.178 677.657, 597.185 678.035, 587.192 678.148, 584.207 678.526, 574.215 678.752, 568.249 679.130, 558.256 679.154, 557.621 682.995, 557.869 692.974, 558.513 698.713, 558.884 708.704, 559.307 717.797, 559.693 726.207, 565.104 731.515, 568.520 732.737, 578.445 733.890, 587.815 730.656, 597.278 730.040, 599.079 728.216, 604.415 " />
            <path fill="none" stroke-width="3.0" stroke-linecap="butt" stroke-opacity="1.0" stroke="rgb(0, 0, 0)" stroke-linejoin="round" d=" M 760.485, 607.084 762.942, 597.390 764.779, 590.143 763.917, 580.180 763.245, 572.413 759.075, 563.324 758.652, 562.402 753.469, 553.850 753.025, 553.117 746.014, 545.986 744.438, 544.382 736.354, 538.495 734.613, 537.227 724.860, 535.018 716.678, 533.165 706.687, 532.750 699.695, 532.460 689.712, 531.876 683.378, 531.506 673.395, 530.923 667.139, 530.558 657.156, 529.975 649.941, 529.553 " />
            <path fill="none" stroke-width="3.0" stroke-linecap="butt" stroke-opacity="1.0" stroke="rgb(0, 0, 0)" stroke-linejoin="round" d=" M 728.216, 604.415 719.272, 608.886 716.994, 610.024 707.021, 609.285 697.049, 608.547 696.645, 608.517 686.669, 607.827 677.279, 607.178 681.337, 601.184 " />
            <path fill="none" stroke-width="3.0" stroke-linecap="butt" stroke-opacity="1.0" stroke="rgb(0, 0, 0)" stroke-linejoin="round" d=" M 486.684, 571.956 484.751, 568.831 479.490, 560.326 477.707, 557.443 472.863, 549.613 467.602, 541.109 464.877, 536.705 459.934, 528.713 454.673, 520.209 453.041, 517.570 443.058, 516.987 433.075, 516.405 423.092, 515.822 422.213, 515.771 413.334, 520.083 418.662, 528.546 423.990, 537.008 428.021, 543.411 433.349, 551.873 438.388, 559.874 443.716, 568.337 449.044, 576.799 450.583, 579.244 455.911, 587.707 458.878, 592.419 463.606, 599.928 457.785, 608.060 451.964, 616.191 451.040, 617.481 445.820, 624.773 439.999, 632.905 438.570, 634.901 433.150, 642.472 428.427, 649.069 422.606, 657.200 416.785, 665.331 413.933, 669.316 423.899, 670.133 433.866, 670.950 443.832, 671.768 444.766, 671.844 452.359, 665.336 452.965, 664.817 458.751, 656.661 464.538, 648.506 464.744, 648.214 470.531, 640.058 472.578, 637.173 477.467, 630.282 481.702, 624.311 " />
            <path fill="none" stroke-width="3.0" stroke-linecap="butt" stroke-opacity="1.0" stroke="rgb(0, 0, 0)" stroke-linejoin="round" d=" M 464.744, 648.214 459.250, 655.957 453.464, 664.113 452.965, 664.817 " />
            <path fill="none" stroke-width="3.0" stroke-linecap="butt" stroke-opacity="1.0" stroke="rgb(0, 0, 0)" stroke-linejoin="round" d=" M 444.766, 671.844 450.549, 663.686 451.154, 662.832 456.734, 654.959 462.516, 646.800 464.693, 643.729 469.660, 636.719 475.443, 628.560 477.159, 626.138 480.199, 621.850 481.702, 624.311 486.917, 632.844 490.099, 638.053 494.868, 645.857 500.082, 654.390 502.607, 658.524 507.821, 667.057 507.937, 667.247 513.151, 675.780 514.227, 677.540 524.193, 678.357 534.160, 679.174 544.126, 679.991 545.808, 680.129 552.260, 672.842 546.954, 664.366 541.648, 655.890 538.156, 650.313 533.588, 643.015 528.360, 634.665 523.054, 626.189 521.395, 623.538 516.398, 615.556 511.092, 607.080 505.786, 598.604 504.435, 596.445 509.351, 589.696 515.238, 581.612 518.010, 577.806 523.897, 569.723 529.784, 561.639 530.822, 560.215 536.386, 552.575 541.787, 545.159 547.674, 537.076 553.562, 528.993 557.445, 523.661 547.462, 523.078 537.479, 522.496 527.496, 521.913 525.839, 521.817 518.796, 526.314 513.042, 534.493 511.228, 537.071 505.965, 544.552 500.211, 552.730 497.302, 556.864 492.113, 564.240 486.684, 571.956 480.930, 580.134 480.814, 580.299 " />
            <path fill="none" stroke-width="3.0" stroke-linecap="butt" stroke-opacity="1.0" stroke="rgb(0, 0, 0)" stroke-linejoin="round" d=" M 480.814, 580.299 477.017, 574.162 471.755, 565.658 469.838, 562.561 464.902, 554.583 459.640, 546.080 456.764, 541.432 451.726, 533.290 446.465, 524.786 444.701, 521.937 " />
            <path fill="none" stroke-width="3.0" stroke-linecap="butt" stroke-opacity="1.0" stroke="rgb(0, 0, 0)" stroke-linejoin="round" d=" M 453.041, 517.570 444.701, 521.937 434.719, 521.347 424.736, 520.757 414.754, 520.167 413.334, 520.083 " />
            <path fill="none" stroke-width="3.0" stroke-linecap="butt" stroke-opacity="1.0" stroke="rgb(0, 0, 0)" stroke-linejoin="round" d=" M 545.808, 680.129 540.501, 671.654 535.194, 663.178 531.436, 657.177 526.783, 649.741 521.453, 641.236 516.148, 632.759 514.357, 629.898 509.264, 621.768 503.957, 613.292 498.650, 604.817 497.072, 602.298 " />
            <path fill="none" stroke-width="3.0" stroke-linecap="butt" stroke-opacity="1.0" stroke="rgb(0, 0, 0)" stroke-linejoin="round" d=" M 530.822, 560.215 524.935, 568.298 523.285, 570.563 518.010, 577.806 " />
            <path fill="none" stroke-width="3.0" stroke-linecap="butt" stroke-opacity="1.0" stroke="rgb(0, 0, 0)" stroke-linejoin="round" d=" M 504.435, 596.445 497.072, 602.298 502.070, 595.430 507.953, 587.343 510.873, 583.331 516.237, 575.958 522.121, 567.872 523.899, 565.427 529.557, 557.651 535.050, 550.103 540.933, 542.016 546.817, 533.930 550.975, 528.216 " />
            <path fill="none" stroke-width="3.0" stroke-linecap="butt" stroke-opacity="1.0" stroke="rgb(0, 0, 0)" stroke-linejoin="round" d=" M 557.445, 523.661 550.975, 528.216 540.992, 527.626 531.009, 527.036 521.027, 526.446 518.796, 526.314 " />
        </g>
    </g>
</svg>
