<?xml version='1.0' encoding='ascii'?>
<svg xmlns="http://www.w3.org/2000/svg" version="1.1" width="1080" height="1080">
    <g id="ViewLayer_LineSet" xmlns:inkscape="http://www.inkscape.org/namespaces/inkscape" inkscape:groupmode="lineset" inkscape:label="ViewLayer_LineSet">
        <g xmlns:inkscape="http://www.inkscape.org/namespaces/inkscape" inkscape:groupmode="layer" id="strokes" inkscape:label="strokes">
            <path fill="none" stroke-width="3.0" stroke-linecap="butt" stroke-opacity="1.0" stroke="rgb(0, 0, 0)" stroke-linejoin="round" d=" M 105.144, 635.312 104.852, 625.316 104.704, 620.270 104.413, 610.275 104.264, 605.176 103.972, 595.180 103.821, 590.027 103.529, 580.032 103.377, 574.825 103.085, 564.830 102.932, 559.569 102.640, 549.573 102.485, 544.259 102.193, 534.263 102.036, 528.894 101.744, 518.898 101.450, 508.837 91.468, 508.236 81.486, 507.634 75.019, 507.245 65.364, 509.847 59.747, 511.360 60.087, 521.354 60.427, 531.349 60.439, 531.697 60.779, 541.691 60.969, 547.276 61.309, 557.270 61.497, 562.798 61.838, 572.793 62.024, 578.265 62.364, 588.259 62.548, 593.676 62.888, 603.670 63.071, 609.032 63.411, 619.026 63.592, 624.333 63.932, 634.327 64.111, 639.579 64.451, 649.573 64.783, 659.318 74.747, 660.166 84.711, 661.013 91.202, 661.565 100.262, 657.333 105.712, 654.788 105.421, 644.792 105.144, 635.312 " />
            <path fill="none" stroke-width="3.0" stroke-linecap="butt" stroke-opacity="1.0" stroke="rgb(0, 0, 0)" stroke-linejoin="round" d=" M 91.202, 661.565 90.892, 651.569 90.589, 641.746 90.279, 631.750 90.115, 626.438 89.806, 616.443 89.640, 611.075 89.331, 601.079 89.163, 595.656 88.854, 585.661 88.684, 580.182 88.375, 570.187 88.204, 564.652 87.894, 554.656 87.721, 549.065 87.412, 539.070 87.238, 533.422 86.928, 523.426 86.619, 513.431 86.606, 513.000 " />
            <path fill="none" stroke-width="3.0" stroke-linecap="butt" stroke-opacity="1.0" stroke="rgb(0, 0, 0)" stroke-linejoin="round" d=" M 101.450, 508.837 91.822, 511.537 86.606, 513.000 76.624, 512.391 66.643, 511.781 59.747, 511.360 " />
            <path fill="none" stroke-width="3.0" stroke-linecap="butt" stroke-opacity="1.0" stroke="rgb(0, 0, 0)" stroke-linejoin="round" d=" M 864.040, 647.171 863.441, 657.153 863.104, 662.769 862.506, 672.751 861.907, 682.733 861.893, 682.962 871.862, 683.746 879.319, 684.333 889.288, 685.117 892.501, 685.370 893.136, 675.390 893.771, 665.410 893.791, 665.094 894.425, 655.114 894.787, 649.432 895.422, 639.452 895.705, 635.003 905.679, 635.716 915.633, 636.427 925.598, 637.259 932.621, 637.845 942.615, 637.490 950.847, 637.197 959.801, 632.745 960.495, 632.400 968.930, 627.028 970.702, 625.899 976.972, 618.108 977.720, 617.178 983.401, 609.096 986.157, 599.484 988.256, 592.160 987.607, 582.181 987.103, 574.435 985.341, 568.962 981.238, 559.843 980.921, 559.140 975.762, 550.573 975.435, 550.030 968.391, 542.932 966.933, 541.463 958.804, 535.639 957.138, 534.446 947.371, 532.298 939.042, 530.467 929.050, 530.069 921.829, 529.781 911.845, 529.220 905.297, 528.852 895.312, 528.291 888.842, 527.928 878.858, 527.367 871.414, 526.949 870.974, 531.549 870.375, 541.531 869.776, 551.513 869.725, 552.368 869.127, 562.350 868.769, 568.315 868.170, 578.297 867.816, 584.203 867.217, 594.185 866.867, 600.032 866.268, 610.014 865.921, 615.803 865.322, 625.785 864.979, 631.516 864.380, 641.498 864.040, 647.171 " />
            <path fill="none" stroke-width="3.0" stroke-linecap="butt" stroke-opacity="1.0" stroke="rgb(0, 0, 0)" stroke-linejoin="round" d=" M 897.348, 609.165 897.730, 603.163 898.364, 593.183 898.809, 586.200 899.443, 576.220 899.823, 570.245 900.458, 560.265 900.499, 559.620 910.479, 560.246 920.460, 560.873 920.695, 560.888 930.687, 561.301 940.413, 561.703 948.866, 567.045 953.762, 570.139 954.384, 570.533 " />
            <path fill="none" stroke-width="3.0" stroke-linecap="butt" stroke-opacity="1.0" stroke="rgb(0, 0, 0)" stroke-linejoin="round" d=" M 987.103, 574.435 982.999, 565.315 982.598, 564.424 977.438, 555.858 977.005, 555.139 969.962, 548.040 968.338, 546.404 960.210, 540.578 958.352, 539.247 948.587, 537.094 939.904, 535.180 929.912, 534.776 922.357, 534.470 912.373, 533.902 905.506, 533.512 895.522, 532.944 888.735, 532.559 878.751, 531.991 870.974, 531.549 " />
            <path fill="none" stroke-width="3.0" stroke-linecap="butt" stroke-opacity="1.0" stroke="rgb(0, 0, 0)" stroke-linejoin="round" d=" M 953.762, 570.139 954.785, 580.087 955.198, 584.094 951.666, 593.449 949.045, 600.390 940.025, 604.707 937.525, 605.903 927.550, 605.193 917.576, 604.484 916.914, 604.436 906.936, 603.774 897.730, 603.163 " />
            <path fill="none" stroke-width="3.0" stroke-linecap="butt" stroke-opacity="1.0" stroke="rgb(0, 0, 0)" stroke-linejoin="round" d=" M 954.384, 570.533 955.407, 580.480 956.368, 589.824 952.831, 599.178 950.094, 606.418 941.069, 610.725 938.351, 612.023 928.377, 611.304 918.403, 610.586 917.343, 610.510 907.366, 609.839 897.348, 609.165 " />
            <path fill="none" stroke-width="3.0" stroke-linecap="butt" stroke-opacity="1.0" stroke="rgb(0, 0, 0)" stroke-linejoin="round" d=" M 677.633, 601.991 671.554, 609.932 668.633, 613.748 663.148, 620.915 657.070, 628.855 655.529, 630.869 649.451, 638.809 644.870, 644.794 638.792, 652.735 632.714, 660.676 629.635, 664.699 624.739, 671.693 634.708, 672.488 644.676, 673.283 654.644, 674.078 656.580, 674.233 662.621, 666.264 663.410, 665.223 669.377, 657.352 675.419, 649.383 677.889, 646.125 683.201, 639.118 689.242, 631.149 691.220, 628.540 694.471, 624.253 699.662, 632.800 704.316, 640.460 709.057, 648.266 714.249, 656.812 716.753, 660.935 721.945, 669.481 722.054, 669.660 727.245, 678.206 728.308, 679.955 738.276, 680.750 748.244, 681.546 758.213, 682.341 760.920, 682.557 763.391, 675.223 758.104, 666.736 752.816, 658.248 749.352, 652.688 744.805, 645.389 739.600, 637.038 734.313, 628.550 732.667, 625.908 727.693, 617.924 722.405, 609.436 717.117, 600.949 716.324, 599.676 " />
            <path fill="none" stroke-width="3.0" stroke-linecap="butt" stroke-opacity="1.0" stroke="rgb(0, 0, 0)" stroke-linejoin="round" d=" M 712.410, 604.707 716.324, 599.676 717.750, 597.841 723.889, 589.947 727.156, 585.746 732.888, 578.375 739.027, 570.481 741.075, 567.847 747.120, 560.073 752.989, 552.527 759.128, 544.633 765.267, 536.739 770.005, 530.646 772.349, 526.044 762.366, 525.477 752.382, 524.909 742.398, 524.341 739.715, 524.189 733.701, 532.178 731.763, 534.753 726.234, 542.099 720.220, 550.088 717.132, 554.191 711.679, 561.436 705.665, 569.426 699.805, 577.212 696.097, 571.187 690.856, 562.670 689.088, 559.797 684.269, 551.965 679.028, 543.448 676.323, 539.054 671.405, 531.060 666.164, 522.543 664.546, 519.914 654.562, 519.346 644.578, 518.779 634.594, 518.211 632.715, 518.104 627.792, 522.461 633.103, 530.935 638.413, 539.409 642.414, 545.794 647.725, 554.267 652.735, 562.262 658.046, 570.735 663.356, 579.209 664.877, 581.636 670.187, 590.110 673.135, 594.814 677.633, 601.991 677.842, 602.325 671.763, 610.265 665.684, 618.206 664.408, 619.873 658.828, 627.163 652.749, 635.103 651.077, 637.288 645.283, 644.857 640.235, 651.451 634.156, 659.392 628.078, 667.332 624.739, 671.693 " />
            <path fill="none" stroke-width="3.0" stroke-linecap="butt" stroke-opacity="1.0" stroke="rgb(0, 0, 0)" stroke-linejoin="round" d=" M 696.130, 582.702 692.352, 576.564 687.110, 568.048 685.210, 564.960 680.299, 556.981 675.057, 548.465 672.203, 543.826 667.191, 535.683 661.949, 527.166 660.202, 524.327 " />
            <path fill="none" stroke-width="3.0" stroke-linecap="butt" stroke-opacity="1.0" stroke="rgb(0, 0, 0)" stroke-linejoin="round" d=" M 664.546, 519.914 660.202, 524.327 650.218, 523.752 640.235, 523.177 630.251, 522.603 627.792, 522.461 " />
            <path fill="none" stroke-width="3.0" stroke-linecap="butt" stroke-opacity="1.0" stroke="rgb(0, 0, 0)" stroke-linejoin="round" d=" M 760.920, 682.557 755.631, 674.070 750.343, 665.583 746.615, 659.599 741.982, 652.161 736.678, 643.655 731.391, 635.167 729.614, 632.314 724.545, 624.182 719.257, 615.695 713.968, 607.208 712.410, 604.707 " />
            <path fill="none" stroke-width="3.0" stroke-linecap="butt" stroke-opacity="1.0" stroke="rgb(0, 0, 0)" stroke-linejoin="round" d=" M 736.758, 528.733 730.743, 536.722 728.663, 539.486 723.033, 546.965 717.018, 554.954 713.766, 559.274 708.216, 566.648 702.202, 574.637 696.130, 582.702 699.805, 577.212 " />
            <path fill="none" stroke-width="3.0" stroke-linecap="butt" stroke-opacity="1.0" stroke="rgb(0, 0, 0)" stroke-linejoin="round" d=" M 770.005, 530.646 760.022, 530.072 750.038, 529.497 740.055, 528.923 736.758, 528.733 739.715, 524.189 " />
        </g>
    </g>
</svg>
