<?xml version='1.0' encoding='ascii'?>
<svg xmlns="http://www.w3.org/2000/svg" version="1.1" width="1080" height="1080">
    <g id="ViewLayer_LineSet" xmlns:inkscape="http://www.inkscape.org/namespaces/inkscape" inkscape:groupmode="lineset" inkscape:label="ViewLayer_LineSet">
        <g xmlns:inkscape="http://www.inkscape.org/namespaces/inkscape" inkscape:groupmode="layer" id="strokes" inkscape:label="strokes">
            <path fill="none" stroke-width="3.0" stroke-linecap="butt" stroke-opacity="1.0" stroke="rgb(0, 0, 0)" stroke-linejoin="round" d=" M 794.455, 626.844 791.589, 635.746 785.662, 643.800 783.181, 647.172 776.153, 654.286 774.593, 655.865 765.052, 658.857 764.788, 658.940 757.353, 661.249 747.387, 660.421 739.517, 659.766 732.348, 656.443 723.371, 652.036 722.585, 651.650 716.583, 643.652 715.438, 642.126 710.452, 633.458 708.277, 629.677 706.247, 619.885 705.145, 614.567 705.612, 604.578 705.873, 598.994 708.739, 589.413 709.834, 585.751 " />
            <path fill="none" stroke-width="3.0" stroke-linecap="butt" stroke-opacity="1.0" stroke="rgb(0, 0, 0)" stroke-linejoin="round" d=" M 682.312, 654.957 687.935, 663.226 690.040, 666.323 697.151, 673.354 699.003, 675.186 706.872, 681.357 707.317, 681.706 715.957, 686.742 717.907, 687.879 727.462, 690.832 735.262, 693.242 745.233, 694.004 753.478, 694.634 763.379, 693.229 771.402, 692.091 780.656, 688.302 782.500, 687.547 791.263, 682.730 791.650, 682.517 799.635, 676.497 801.694, 674.945 808.367, 667.497 810.737, 664.851 816.120, 656.637 820.978, 647.896 821.303, 647.311 824.024, 637.688 826.062, 630.481 827.376, 623.867 827.814, 613.877 828.136, 606.534 826.406, 596.684 825.142, 589.492 821.332, 580.246 821.158, 579.824 816.779, 570.891 811.147, 562.627 808.974, 559.439 801.928, 552.343 800.032, 550.434 792.066, 544.389 791.502, 543.961 782.908, 538.847 780.990, 537.705 771.369, 534.980 763.386, 532.719 753.399, 532.202 745.202, 531.777 735.355, 533.523 727.534, 534.910 718.412, 539.009 716.868, 539.703 708.283, 544.831 707.995, 545.003 700.222, 551.295 698.433, 552.743 691.918, 560.329 689.831, 562.759 685.880, 568.097 680.719, 576.430 676.021, 585.257 675.859, 585.561 673.324, 595.234 671.515, 602.135 671.116, 612.127 670.825, 619.410 672.643, 629.243 673.960, 636.363 677.753, 645.616 677.979, 646.167 682.312, 654.957 " />
            <path fill="none" stroke-width="3.0" stroke-linecap="butt" stroke-opacity="1.0" stroke="rgb(0, 0, 0)" stroke-linejoin="round" d=" M 794.419, 627.539 791.354, 637.058 789.587, 642.546 783.657, 650.598 781.021, 654.176 773.989, 661.285 772.272, 663.021 762.727, 666.003 762.282, 666.142 754.707, 668.485 744.742, 667.646 736.535, 666.955 729.229, 663.563 720.256, 659.149 719.282, 658.670 713.281, 650.672 711.998, 648.963 707.010, 640.295 704.698, 636.276 702.665, 626.485 701.502, 620.884 701.965, 610.894 702.237, 605.021 705.100, 595.440 706.709, 590.054 709.834, 585.751 715.123, 578.467 721.917, 571.129 723.303, 569.631 732.774, 566.419 733.754, 566.087 741.321, 563.732 751.302, 564.338 759.431, 564.832 766.719, 568.177 775.730, 572.514 777.033, 573.141 783.060, 581.121 784.449, 582.960 789.513, 591.583 791.970, 595.766 794.017, 605.554 795.248, 611.445 794.734, 621.432 794.455, 626.844 794.419, 627.539 " />
            <path fill="none" stroke-width="3.0" stroke-linecap="butt" stroke-opacity="1.0" stroke="rgb(0, 0, 0)" stroke-linejoin="round" d=" M 826.062, 630.481 826.499, 620.490 826.835, 612.820 825.102, 602.972 823.780, 595.453 819.968, 586.207 819.717, 585.597 815.314, 576.619 815.251, 576.490 809.619, 568.226 807.292, 564.813 800.247, 557.716 798.175, 555.628 790.211, 549.581 789.478, 549.025 780.887, 543.908 778.762, 542.642 769.142, 539.911 760.817, 537.547 750.831, 537.023 742.284, 536.574 732.437, 538.313 724.281, 539.753 715.157, 543.846 713.415, 544.628 704.828, 549.752 704.376, 550.022 696.602, 556.311 694.638, 557.899 688.123, 565.485 685.880, 568.097 " />
            <path fill="none" stroke-width="3.0" stroke-linecap="butt" stroke-opacity="1.0" stroke="rgb(0, 0, 0)" stroke-linejoin="round" d=" M 506.666, 631.491 513.760, 632.024 523.732, 632.773 525.486, 632.904 535.447, 633.780 541.538, 634.315 551.530, 633.931 558.668, 633.657 567.549, 628.852 575.753, 623.133 576.885, 622.343 582.873, 616.009 588.691, 607.876 589.007, 607.434 593.931, 599.489 596.158, 589.740 597.732, 582.851 596.712, 572.903 595.948, 565.446 591.730, 556.379 591.378, 555.623 586.178, 547.081 585.832, 546.513 578.845, 539.358 577.466, 537.946 569.416, 532.015 567.946, 530.932 558.202, 528.685 550.727, 526.961 540.736, 526.545 534.475, 526.284 524.492, 525.696 518.855, 525.364 508.872, 524.775 503.308, 524.447 493.326, 523.859 486.842, 523.477 479.046, 528.010 478.901, 538.009 478.756, 548.008 478.744, 548.838 478.599, 558.837 478.512, 564.791 478.367, 574.790 478.282, 580.686 478.137, 590.685 478.052, 596.522 477.907, 606.521 477.823, 612.299 477.678, 622.298 477.595, 628.019 477.450, 638.018 477.368, 643.680 477.223, 653.679 477.141, 659.285 476.996, 669.284 476.851, 679.283 476.848, 679.485 486.814, 680.310 493.310, 680.848 503.276, 681.673 505.763, 681.878 512.772, 674.746 512.962, 674.553 513.150, 664.555 513.336, 654.628 513.524, 644.630 513.625, 639.238 513.760, 632.024 " />
            <path fill="none" stroke-width="3.0" stroke-linecap="butt" stroke-opacity="1.0" stroke="rgb(0, 0, 0)" stroke-linejoin="round" d=" M 505.763, 681.878 505.942, 671.880 506.121, 661.882 506.126, 661.594 506.306, 651.596 506.407, 645.925 506.587, 635.927 506.666, 631.491 " />
            <path fill="none" stroke-width="3.0" stroke-linecap="butt" stroke-opacity="1.0" stroke="rgb(0, 0, 0)" stroke-linejoin="round" d=" M 557.664, 599.692 552.400, 602.426 542.428, 601.681 532.913, 600.970 522.937, 600.274 514.367, 599.677 514.554, 589.679 514.742, 579.681 514.790, 577.117 514.978, 567.119 515.084, 561.445 515.176, 556.549 " />
            <path fill="none" stroke-width="3.0" stroke-linecap="butt" stroke-opacity="1.0" stroke="rgb(0, 0, 0)" stroke-linejoin="round" d=" M 507.129, 605.642 507.309, 595.644 507.488, 585.645 507.541, 582.667 507.721, 572.669 507.827, 566.706 508.007, 556.707 508.018, 556.076 515.176, 556.549 525.154, 557.207 527.083, 557.335 537.074, 557.767 545.679, 558.139 554.053, 563.605 559.201, 566.965 560.575, 576.870 561.878, 586.263 558.884, 595.804 557.664, 599.692 556.669, 602.866 " />
            <path fill="none" stroke-width="3.0" stroke-linecap="butt" stroke-opacity="1.0" stroke="rgb(0, 0, 0)" stroke-linejoin="round" d=" M 576.885, 622.343 582.702, 614.209 583.126, 613.616 588.135, 605.528 590.356, 595.778 591.995, 588.583 590.969, 578.636 590.166, 570.851 585.946, 561.785 585.505, 560.839 580.305, 552.298 579.851, 551.553 572.866, 544.397 571.326, 542.819 563.277, 536.884 561.625, 535.666 551.883, 533.411 544.088, 531.607 534.097, 531.183 527.540, 530.905 517.558, 530.310 511.636, 529.956 501.654, 529.360 495.809, 529.011 485.826, 528.415 479.046, 528.010 " />
            <path fill="none" stroke-width="3.0" stroke-linecap="butt" stroke-opacity="1.0" stroke="rgb(0, 0, 0)" stroke-linejoin="round" d=" M 556.669, 602.866 547.792, 607.471 545.849, 608.479 535.877, 607.724 526.009, 606.976 516.034, 606.271 507.129, 605.642 514.367, 599.677 " />
            <path fill="none" stroke-width="3.0" stroke-linecap="butt" stroke-opacity="1.0" stroke="rgb(0, 0, 0)" stroke-linejoin="round" d=" M 379.682, 569.069 378.802, 567.649 373.531, 559.151 371.740, 556.263 366.884, 548.434 361.613, 539.936 358.878, 535.527 353.923, 527.536 348.652, 519.038 347.012, 516.394 337.030, 515.804 327.047, 515.214 317.065, 514.623 316.687, 514.601 307.386, 518.274 305.825, 518.891 311.162, 527.348 316.499, 535.804 320.545, 542.215 325.882, 550.672 330.935, 558.677 336.271, 567.134 341.608, 575.591 343.157, 578.045 348.494, 586.502 351.470, 591.218 356.208, 598.727 350.524, 606.953 344.839, 615.180 344.077, 616.282 339.038, 623.575 333.353, 631.802 332.039, 633.704 326.806, 641.276 322.247, 647.874 316.562, 656.101 310.878, 664.328 308.254, 668.124 318.220, 668.953 328.185, 669.782 338.151, 670.611 338.583, 670.647 346.810, 664.960 348.716, 663.642 354.369, 655.393 360.095, 647.037 365.747, 638.788 367.662, 635.994 372.384, 629.102 375.331, 624.801 " />
            <path fill="none" stroke-width="3.0" stroke-linecap="butt" stroke-opacity="1.0" stroke="rgb(0, 0, 0)" stroke-linejoin="round" d=" M 360.095, 647.037 354.788, 654.781 349.136, 663.030 348.716, 663.642 " />
            <path fill="none" stroke-width="3.0" stroke-linecap="butt" stroke-opacity="1.0" stroke="rgb(0, 0, 0)" stroke-linejoin="round" d=" M 338.583, 670.647 344.229, 662.393 344.749, 661.633 350.135, 653.759 355.780, 645.505 357.817, 642.527 362.612, 635.517 368.257, 627.263 369.850, 624.934 372.784, 620.645 375.331, 624.801 380.556, 633.328 382.712, 636.846 387.494, 644.650 392.719, 653.176 395.255, 657.315 400.480, 665.841 400.600, 666.037 405.825, 674.563 406.907, 676.329 416.873, 677.157 426.839, 677.986 436.804, 678.815 437.972, 678.912 445.554, 672.392 446.419, 671.649 441.104, 663.178 435.788, 654.708 432.283, 649.121 427.704, 641.825 422.465, 633.476 417.149, 625.005 415.483, 622.350 410.475, 614.369 405.160, 605.899 399.845, 597.428 398.484, 595.260 403.236, 588.510 408.990, 580.331 411.603, 576.618 417.358, 568.440 423.113, 560.263 423.985, 559.025 429.362, 551.383 434.581, 543.967 440.336, 535.789 446.091, 527.611 449.713, 522.466 439.730, 521.875 429.748, 521.285 419.765, 520.695 418.623, 520.628 409.651, 525.044 409.532, 525.102 403.915, 533.375 402.228, 535.860 397.149, 543.342 391.532, 551.615 388.788, 555.656 383.781, 563.032 379.682, 569.069 374.065, 577.342 372.876, 579.094 " />
            <path fill="none" stroke-width="3.0" stroke-linecap="butt" stroke-opacity="1.0" stroke="rgb(0, 0, 0)" stroke-linejoin="round" d=" M 372.876, 579.094 369.069, 572.958 363.797, 564.460 361.872, 561.358 356.923, 553.381 351.651, 544.884 348.764, 540.231 343.714, 532.090 338.442, 523.593 336.671, 520.738 " />
            <path fill="none" stroke-width="3.0" stroke-linecap="butt" stroke-opacity="1.0" stroke="rgb(0, 0, 0)" stroke-linejoin="round" d=" M 347.012, 516.394 337.793, 520.267 336.671, 520.738 326.689, 520.140 316.707, 519.543 306.724, 518.945 305.825, 518.891 " />
            <path fill="none" stroke-width="3.0" stroke-linecap="butt" stroke-opacity="1.0" stroke="rgb(0, 0, 0)" stroke-linejoin="round" d=" M 437.972, 678.912 432.655, 670.442 427.339, 661.972 423.566, 655.962 418.903, 648.527 413.561, 640.023 408.246, 631.552 406.449, 628.687 401.343, 620.557 396.026, 612.088 390.710, 603.618 389.123, 601.090 " />
            <path fill="none" stroke-width="3.0" stroke-linecap="butt" stroke-opacity="1.0" stroke="rgb(0, 0, 0)" stroke-linejoin="round" d=" M 423.985, 559.025 418.229, 567.202 416.700, 569.374 411.603, 576.618 " />
            <path fill="none" stroke-width="3.0" stroke-linecap="butt" stroke-opacity="1.0" stroke="rgb(0, 0, 0)" stroke-linejoin="round" d=" M 398.484, 595.260 389.996, 600.546 389.123, 601.090 393.949, 594.221 399.697, 586.038 402.449, 582.120 407.630, 574.746 413.379, 566.563 415.029, 564.214 420.493, 556.436 425.797, 548.887 431.545, 540.704 437.294, 532.522 441.175, 526.997 " />
            <path fill="none" stroke-width="3.0" stroke-linecap="butt" stroke-opacity="1.0" stroke="rgb(0, 0, 0)" stroke-linejoin="round" d=" M 449.713, 522.466 441.175, 526.997 431.193, 526.399 421.211, 525.801 411.229, 525.203 409.532, 525.102 " />
        </g>
    </g>
</svg>
