<?xml version='1.0' encoding='ascii'?>
<svg xmlns="http://www.w3.org/2000/svg" version="1.1" width="1080" height="1080">
    <g id="ViewLayer_LineSet" xmlns:inkscape="http://www.inkscape.org/namespaces/inkscape" inkscape:groupmode="lineset" inkscape:label="ViewLayer_LineSet">
        <g xmlns:inkscape="http://www.inkscape.org/namespaces/inkscape" inkscape:groupmode="layer" id="strokes" inkscape:label="strokes">
            <path fill="none" stroke-width="3.0" stroke-linecap="butt" stroke-opacity="1.0" stroke="rgb(0, 0, 0)" stroke-linejoin="round" d=" M 472.554, 646.259 465.911, 648.481 458.894, 650.805 448.930, 649.955 441.831, 649.350 434.882, 646.034 425.956, 641.526 425.412, 641.251 419.418, 633.247 418.280, 631.728 413.252, 623.083 411.038, 619.276 408.792, 609.532 407.553, 604.154 407.669, 594.154 407.734, 588.561 410.177, 578.864 411.443, 573.840 416.940, 565.486 418.950, 562.432 424.005, 556.467 " />
            <path fill="none" stroke-width="3.0" stroke-linecap="butt" stroke-opacity="1.0" stroke="rgb(0, 0, 0)" stroke-linejoin="round" d=" M 381.040, 644.415 386.672, 652.678 388.787, 655.781 395.850, 662.860 397.626, 664.640 405.435, 670.887 405.769, 671.154 414.350, 676.289 416.069, 677.317 425.594, 680.360 432.787, 682.658 442.757, 683.439 450.194, 684.022 460.081, 682.523 467.190, 681.446 476.349, 677.433 477.614, 676.879 486.165, 671.827 493.914, 665.507 495.481, 664.230 502.742, 657.353 503.086, 657.028 509.419, 649.289 511.225, 647.083 515.998, 638.996 520.440, 630.037 520.549, 629.818 522.848, 620.086 524.460, 613.267 524.548, 603.268 524.614, 595.913 522.649, 586.107 521.196, 578.856 517.278, 569.656 517.077, 569.184 512.605, 560.247 506.964, 551.989 504.782, 548.795 497.781, 541.655 495.955, 539.793 488.049, 533.670 487.605, 533.326 479.069, 528.117 477.371, 527.081 467.774, 524.272 460.413, 522.117 450.427, 521.592 443.036, 521.203 433.210, 523.060 426.285, 524.369 417.272, 528.701 416.268, 529.184 407.352, 533.711 406.969, 533.905 398.537, 539.319 391.017, 545.911 389.522, 547.222 383.357, 555.096 381.518, 557.446 376.880, 565.798 372.607, 574.839 372.556, 574.948 370.446, 584.723 368.973, 591.548 368.929, 601.548 368.896, 608.845 370.948, 618.632 372.454, 625.813 376.358, 635.019 376.614, 635.622 381.040, 644.415 " />
            <path fill="none" stroke-width="3.0" stroke-linecap="butt" stroke-opacity="1.0" stroke="rgb(0, 0, 0)" stroke-linejoin="round" d=" M 467.042, 652.340 457.626, 655.481 450.486, 657.840 440.523, 656.978 433.116, 656.338 426.040, 652.953 417.118, 648.437 416.396, 648.072 410.403, 640.067 409.128, 638.364 404.099, 629.721 401.744, 625.675 399.491, 615.933 398.181, 610.270 398.286, 600.270 398.348, 594.388 400.780, 584.688 402.107, 579.396 407.597, 571.037 409.735, 567.781 416.195, 560.148 417.234, 558.921 424.005, 556.467 427.074, 555.355 434.206, 552.985 444.187, 553.604 451.502, 554.057 458.559, 557.394 467.520, 561.833 468.556, 562.347 474.573, 570.334 475.953, 572.165 481.055, 580.765 483.552, 584.974 485.818, 594.713 487.203, 600.666 487.048, 610.664 486.954, 616.780 484.323, 626.428 482.854, 631.812 477.307, 640.133 475.082, 643.471 472.554, 646.259 467.042, 652.340 " />
            <path fill="none" stroke-width="3.0" stroke-linecap="butt" stroke-opacity="1.0" stroke="rgb(0, 0, 0)" stroke-linejoin="round" d=" M 495.481, 664.230 501.813, 656.489 503.760, 654.109 508.614, 645.876 513.050, 636.914 513.239, 636.531 515.531, 626.797 517.208, 619.673 517.289, 609.674 517.351, 601.991 515.379, 592.187 513.855, 584.608 509.934, 575.409 509.652, 574.747 505.174, 565.806 505.089, 565.636 499.449, 557.379 497.112, 553.959 490.113, 546.817 488.115, 544.779 480.211, 538.652 479.604, 538.182 471.072, 532.967 469.177, 531.809 459.582, 528.992 451.905, 526.738 441.919, 526.205 434.211, 525.793 424.384, 527.645 417.160, 529.006 408.148, 533.338 406.969, 533.905 " />
            <path fill="none" stroke-width="3.0" stroke-linecap="butt" stroke-opacity="1.0" stroke="rgb(0, 0, 0)" stroke-linejoin="round" d=" M -1.304, 575.351 0.079, 565.447 1.028, 558.653 -0.547, 548.778 -1.755, 541.208 " />
        </g>
    </g>
</svg>
