<?xml version='1.0' encoding='ascii'?>
<svg xmlns="http://www.w3.org/2000/svg" version="1.1" width="1080" height="1080">
    <g id="ViewLayer_LineSet" xmlns:inkscape="http://www.inkscape.org/namespaces/inkscape" inkscape:groupmode="lineset" inkscape:label="ViewLayer_LineSet">
        <g xmlns:inkscape="http://www.inkscape.org/namespaces/inkscape" inkscape:groupmode="layer" id="strokes" inkscape:label="strokes">
            <path fill="none" stroke-width="3.0" stroke-linecap="butt" stroke-opacity="1.0" stroke="rgb(0, 0, 0)" stroke-linejoin="round" d=" M 660.016, 647.891 660.375, 637.897 660.556, 632.872 660.916, 622.878 661.099, 617.799 661.458, 607.806 661.643, 602.673 662.003, 592.680 662.190, 587.494 662.549, 577.500 662.738, 572.260 663.097, 562.267 663.288, 556.972 663.648, 546.979 663.840, 541.630 664.200, 531.636 664.561, 521.603 654.577, 521.032 644.593, 520.462 635.729, 519.956 630.907, 524.308 630.587, 534.303 630.266, 544.298 630.256, 544.615 629.935, 554.610 629.756, 560.170 629.435, 570.165 629.259, 575.670 628.938, 585.664 628.763, 591.113 628.442, 601.108 628.269, 606.501 627.948, 616.496 627.777, 621.834 627.456, 631.829 627.286, 637.112 626.965, 647.107 626.798, 652.335 626.477, 662.330 626.165, 672.045 636.133, 672.841 646.102, 673.636 654.991, 674.346 659.316, 667.338 659.676, 657.344 660.016, 647.891 " />
            <path fill="none" stroke-width="3.0" stroke-linecap="butt" stroke-opacity="1.0" stroke="rgb(0, 0, 0)" stroke-linejoin="round" d=" M 654.991, 674.346 655.345, 664.352 655.693, 654.557 656.048, 644.563 656.236, 639.272 656.591, 629.278 656.781, 623.932 657.136, 613.938 657.327, 608.537 657.682, 598.543 657.876, 593.086 658.231, 583.092 658.427, 577.579 658.782, 567.585 658.979, 562.015 659.334, 552.022 659.534, 546.396 659.889, 536.402 660.244, 526.408 660.258, 526.005 " />
            <path fill="none" stroke-width="3.0" stroke-linecap="butt" stroke-opacity="1.0" stroke="rgb(0, 0, 0)" stroke-linejoin="round" d=" M 664.561, 521.603 660.258, 526.005 650.275, 525.428 640.291, 524.851 630.907, 524.308 " />
            <path fill="none" stroke-width="3.0" stroke-linecap="butt" stroke-opacity="1.0" stroke="rgb(0, 0, 0)" stroke-linejoin="round" d=" M 410.922, 587.653 410.154, 586.063 407.818, 581.227 406.027, 577.519 402.662, 570.552 400.409, 565.887 398.593, 562.129 395.161, 555.023 392.991, 550.530 391.152, 546.721 387.652, 539.476 385.564, 535.154 383.701, 531.296 380.134, 523.910 378.130, 519.761 376.242, 515.853 372.867, 508.865 366.567, 508.501 359.283, 508.081 352.016, 507.661 344.041, 507.201 340.462, 508.636 337.713, 509.739 334.051, 511.208 334.069, 518.959 334.087, 526.648 334.105, 534.324 334.122, 541.986 334.140, 549.634 334.157, 557.269 334.175, 564.891 334.192, 572.499 334.210, 580.093 334.227, 587.674 334.244, 595.241 334.262, 602.796 334.279, 610.337 334.296, 617.864 334.314, 625.378 334.331, 632.880 334.348, 640.367 334.365, 647.842 334.383, 655.351 342.355, 655.996 349.620, 656.583 356.901, 657.172 361.243, 657.523 364.684, 655.128 367.267, 653.330 370.631, 650.989 370.645, 643.578 370.660, 636.201 370.674, 628.810 370.689, 621.407 370.704, 613.991 370.718, 606.563 370.733, 599.121 370.747, 591.666 370.762, 584.199 370.766, 582.410 " />
            <path fill="none" stroke-width="3.0" stroke-linecap="butt" stroke-opacity="1.0" stroke="rgb(0, 0, 0)" stroke-linejoin="round" d=" M 361.321, 567.468 361.313, 577.468 361.309, 581.967 361.302, 589.578 361.296, 597.175 361.289, 604.760 361.283, 612.331 361.276, 619.888 361.269, 627.432 361.263, 634.963 361.256, 642.480 361.250, 649.984 361.243, 657.523 " />
            <path fill="none" stroke-width="3.0" stroke-linecap="butt" stroke-opacity="1.0" stroke="rgb(0, 0, 0)" stroke-linejoin="round" d=" M 363.457, 567.453 367.847, 576.438 368.052, 576.856 370.766, 582.410 371.354, 583.615 375.650, 592.405 379.029, 599.318 383.238, 607.934 386.692, 615.004 388.950, 619.623 390.818, 623.446 394.348, 630.670 397.134, 636.373 401.068, 636.676 408.486, 637.248 412.432, 637.553 415.576, 635.263 417.936, 633.544 421.008, 631.306 423.834, 626.109 427.421, 619.513 429.322, 616.016 431.623, 611.786 435.149, 605.302 439.457, 597.380 442.922, 591.007 444.790, 587.573 447.338, 582.889 449.562, 578.799 " />
            <path fill="none" stroke-width="3.0" stroke-linecap="butt" stroke-opacity="1.0" stroke="rgb(0, 0, 0)" stroke-linejoin="round" d=" M 363.357, 512.920 366.797, 520.035 368.720, 524.013 370.763, 528.237 374.397, 535.757 376.296, 539.685 378.423, 544.084 381.989, 551.460 383.865, 555.336 386.075, 559.911 389.572, 567.146 391.421, 570.972 393.717, 575.720 397.145, 582.812 398.970, 586.587 401.351, 591.510 404.902, 598.858 405.174, 598.352 408.599, 591.978 410.922, 587.653 411.100, 587.321 412.988, 583.808 416.516, 577.242 418.921, 572.766 420.847, 569.179 424.480, 562.417 426.786, 558.124 428.754, 554.462 432.493, 547.503 434.699, 543.395 436.707, 539.658 440.553, 532.500 442.659, 528.580 444.708, 524.766 448.402, 517.889 451.368, 516.350 453.594, 515.195 456.492, 513.691 462.768, 514.054 470.287, 514.488 477.823, 514.923 486.132, 515.402 486.013, 523.179 485.895, 530.894 485.777, 538.596 485.659, 546.283 485.542, 553.957 485.425, 561.617 485.308, 569.264 485.191, 576.897 485.074, 584.516 484.958, 592.122 484.841, 599.714 484.725, 607.293 484.610, 614.859 484.494, 622.411 484.379, 629.950 484.263, 637.475 484.148, 644.987 484.034, 652.486 483.918, 660.019 481.236, 662.461 479.175, 664.336 476.430, 666.834 468.123, 666.163 460.589, 665.554 453.073, 664.946 448.605, 664.585 448.690, 656.951 448.775, 649.351 448.860, 641.738 448.945, 634.111 449.030, 626.470 449.115, 618.816 449.201, 611.148 449.287, 603.466 449.373, 595.771 449.459, 588.061 449.562, 578.799 449.623, 573.354 449.672, 568.939 " />
            <path fill="none" stroke-width="3.0" stroke-linecap="butt" stroke-opacity="1.0" stroke="rgb(0, 0, 0)" stroke-linejoin="round" d=" M 372.867, 508.865 369.460, 510.317 366.843, 511.433 363.357, 512.920 356.952, 512.546 349.547, 512.113 342.159, 511.681 334.051, 511.208 " />
            <path fill="none" stroke-width="3.0" stroke-linecap="butt" stroke-opacity="1.0" stroke="rgb(0, 0, 0)" stroke-linejoin="round" d=" M 356.930, 574.044 361.321, 567.468 361.321, 567.468 363.457, 567.453 370.795, 567.403 371.701, 567.397 " />
            <path fill="none" stroke-width="3.0" stroke-linecap="butt" stroke-opacity="1.0" stroke="rgb(0, 0, 0)" stroke-linejoin="round" d=" M 435.149, 605.302 437.032, 601.838 439.457, 597.380 " />
            <path fill="none" stroke-width="3.0" stroke-linecap="butt" stroke-opacity="1.0" stroke="rgb(0, 0, 0)" stroke-linejoin="round" d=" M 442.613, 581.946 439.158, 588.313 436.571, 593.078 434.675, 596.571 431.157, 603.052 428.698, 607.584 426.785, 611.109 423.205, 617.704 420.870, 622.005 418.941, 625.561 415.300, 632.268 412.432, 637.553 " />
            <path fill="none" stroke-width="3.0" stroke-linecap="butt" stroke-opacity="1.0" stroke="rgb(0, 0, 0)" stroke-linejoin="round" d=" M 478.555, 519.651 478.441, 527.569 478.328, 535.423 478.214, 543.262 478.101, 551.088 477.989, 558.899 477.876, 566.696 477.764, 574.479 477.651, 582.248 477.540, 590.003 477.428, 597.744 477.316, 605.470 477.205, 613.183 477.094, 620.882 476.983, 628.567 476.872, 636.238 476.761, 643.896 476.651, 651.540 476.541, 659.170 476.430, 666.834 " />
            <path fill="none" stroke-width="3.0" stroke-linecap="butt" stroke-opacity="1.0" stroke="rgb(0, 0, 0)" stroke-linejoin="round" d=" M 486.132, 515.402 483.418, 516.924 481.333, 518.093 478.555, 519.651 470.102, 519.157 462.435, 518.709 454.786, 518.262 448.402, 517.889 " />
            <path fill="none" stroke-width="3.0" stroke-linecap="butt" stroke-opacity="1.0" stroke="rgb(0, 0, 0)" stroke-linejoin="round" d=" M 454.148, 572.902 453.217, 572.078 449.672, 568.939 447.142, 573.602 442.613, 581.946 447.136, 573.602 " />
            <path fill="none" stroke-width="3.0" stroke-linecap="butt" stroke-opacity="1.0" stroke="rgb(0, 0, 0)" stroke-linejoin="round" d=" M 449.672, 568.939 447.136, 573.602 " />
            <path fill="none" stroke-width="3.0" stroke-linecap="butt" stroke-opacity="1.0" stroke="rgb(0, 0, 0)" stroke-linejoin="round" d=" M 219.586, 579.662 219.076, 578.953 214.264, 572.265 208.602, 564.395 202.762, 556.277 201.860, 555.023 196.296, 547.287 190.456, 539.169 189.457, 537.782 183.989, 530.180 178.149, 522.062 177.055, 520.540 171.682, 513.072 165.842, 504.955 162.027, 499.653 152.044, 499.072 150.748, 498.996 141.833, 498.477 132.207, 501.189 128.529, 502.226 128.790, 512.222 129.032, 521.536 129.293, 531.532 129.418, 536.331 129.678, 546.328 129.802, 551.076 130.062, 561.073 130.184, 565.771 130.445, 575.767 130.566, 580.415 130.826, 590.412 130.946, 595.010 131.207, 605.006 131.325, 609.554 131.585, 619.551 131.703, 624.050 131.963, 634.047 132.192, 642.822 141.104, 643.548 151.070, 644.359 157.538, 644.886 166.531, 640.512 170.184, 638.735 169.968, 628.737 169.784, 620.202 169.568, 610.204 169.475, 605.892 169.260, 595.894 169.165, 591.533 168.950, 581.535 168.855, 577.126 168.767, 573.064 " />
            <path fill="none" stroke-width="3.0" stroke-linecap="butt" stroke-opacity="1.0" stroke="rgb(0, 0, 0)" stroke-linejoin="round" d=" M 157.538, 644.886 157.308, 634.889 157.104, 626.043 156.873, 616.045 156.768, 611.491 156.537, 601.494 156.431, 596.890 156.200, 586.893 156.093, 582.239 155.862, 572.242 155.631, 562.244 155.459, 554.771 161.342, 562.858 165.430, 568.477 168.767, 573.064 172.228, 577.820 177.976, 585.721 183.859, 593.807 184.863, 595.187 190.522, 602.967 196.405, 611.054 197.498, 612.556 203.071, 620.214 208.954, 628.301 211.529, 631.840 216.204, 638.266 222.087, 646.352 225.019, 650.383 234.986, 651.194 237.547, 651.403 246.762, 652.153 255.469, 647.236 258.032, 645.789 257.919, 635.790 257.820, 627.012 257.708, 617.013 257.657, 612.512 257.544, 602.512 257.493, 597.962 257.380, 587.963 257.328, 583.363 257.216, 573.363 257.163, 568.713 257.051, 558.714 256.998, 554.014 256.885, 544.015 256.831, 539.264 256.719, 529.265 256.665, 524.464 256.552, 514.464 256.449, 505.349 247.231, 504.812 237.248, 504.231 230.367, 503.830 220.863, 506.941 218.459, 507.728 218.616, 517.727 218.763, 527.100 218.919, 537.099 218.997, 542.099 219.154, 552.098 219.232, 557.046 219.388, 567.044 219.465, 571.940 219.586, 579.662 219.697, 586.784 219.854, 596.782 219.936, 601.990 " />
            <path fill="none" stroke-width="3.0" stroke-linecap="butt" stroke-opacity="1.0" stroke="rgb(0, 0, 0)" stroke-linejoin="round" d=" M 219.936, 601.990 215.368, 595.639 209.529, 587.521 207.098, 584.141 202.200, 577.334 196.439, 569.324 190.599, 561.207 189.577, 559.787 183.914, 551.913 178.074, 543.796 176.954, 542.239 171.389, 534.503 165.552, 526.383 164.335, 524.691 158.864, 517.092 153.024, 508.974 149.038, 503.434 " />
            <path fill="none" stroke-width="3.0" stroke-linecap="butt" stroke-opacity="1.0" stroke="rgb(0, 0, 0)" stroke-linejoin="round" d=" M 162.027, 499.653 152.426, 502.448 149.038, 503.434 139.055, 502.846 137.583, 502.759 128.529, 502.226 " />
            <path fill="none" stroke-width="3.0" stroke-linecap="butt" stroke-opacity="1.0" stroke="rgb(0, 0, 0)" stroke-linejoin="round" d=" M 246.762, 652.153 246.636, 642.154 246.521, 633.057 246.395, 623.058 246.335, 618.309 246.209, 608.310 246.149, 603.510 246.023, 593.511 245.962, 588.660 245.836, 578.661 245.774, 573.758 245.648, 563.759 245.585, 558.805 245.459, 548.805 245.396, 543.799 245.270, 533.799 245.206, 528.740 245.080, 518.741 244.961, 509.291 " />
            <path fill="none" stroke-width="3.0" stroke-linecap="butt" stroke-opacity="1.0" stroke="rgb(0, 0, 0)" stroke-linejoin="round" d=" M 256.449, 505.349 246.991, 508.594 244.961, 509.291 235.594, 508.739 225.611, 508.150 218.459, 507.728 " />
            <path fill="none" stroke-width="3.0" stroke-linecap="butt" stroke-opacity="1.0" stroke="rgb(0, 0, 0)" stroke-linejoin="round" d=" M 1090.835, 601.073 1084.313, 608.654 1077.792, 616.235 1076.005, 618.312 1069.844, 625.474 1063.323, 633.055 1061.286, 635.423 1054.765, 643.004 1049.313, 649.341 1042.792, 656.922 1036.271, 664.503 1032.200, 669.235 1034.749, 676.316 1044.720, 677.072 1054.692, 677.828 1064.663, 678.584 1068.548, 678.879 1075.044, 671.276 1076.242, 669.875 1082.737, 662.271 1082.963, 662.008 " />
            <path fill="none" stroke-width="3.0" stroke-linecap="butt" stroke-opacity="1.0" stroke="rgb(0, 0, 0)" stroke-linejoin="round" d=" M 1094.527, 606.987 1087.997, 614.561 1081.467, 622.134 1079.405, 624.525 1073.123, 631.811 1066.593, 639.385 1064.397, 641.930 1057.875, 649.495 1052.192, 656.086 1045.662, 663.659 1039.132, 671.233 1034.749, 676.316 " />
            <path fill="none" stroke-width="3.0" stroke-linecap="butt" stroke-opacity="1.0" stroke="rgb(0, 0, 0)" stroke-linejoin="round" d=" M 1086.266, 540.337 1081.065, 531.796 1079.348, 528.976 1075.915, 524.475 1065.930, 523.933 1055.945, 523.391 1045.959, 522.850 1042.130, 522.642 1047.406, 531.137 1052.681, 539.633 1056.359, 545.556 1061.298, 553.509 1066.403, 561.728 1071.678, 570.223 1073.341, 572.902 1078.218, 580.755 1083.494, 589.250 1086.254, 593.696 " />
            <path fill="none" stroke-width="3.0" stroke-linecap="butt" stroke-opacity="1.0" stroke="rgb(0, 0, 0)" stroke-linejoin="round" d=" M 1044.910, 527.087 1050.186, 535.582 1055.461, 544.078 1059.406, 550.431 1064.436, 558.531 1069.638, 566.905 1074.913, 575.401 1076.705, 578.287 1081.674, 586.289 " />
            <path fill="none" stroke-width="3.0" stroke-linecap="butt" stroke-opacity="1.0" stroke="rgb(0, 0, 0)" stroke-linejoin="round" d=" M 1079.348, 528.976 1069.363, 528.428 1059.378, 527.881 1049.393, 527.333 1044.910, 527.087 1042.130, 522.642 " />
            <path fill="none" stroke-width="3.0" stroke-linecap="butt" stroke-opacity="1.0" stroke="rgb(0, 0, 0)" stroke-linejoin="round" d=" M 447.142, 573.602 449.623, 573.354 " />
        </g>
    </g>
</svg>
