<?xml version='1.0' encoding='ascii'?>
<svg xmlns="http://www.w3.org/2000/svg" version="1.1" width="1080" height="1080">
    <g id="ViewLayer_LineSet" xmlns:inkscape="http://www.inkscape.org/namespaces/inkscape" inkscape:groupmode="lineset" inkscape:label="ViewLayer_LineSet">
        <g xmlns:inkscape="http://www.inkscape.org/namespaces/inkscape" inkscape:groupmode="layer" id="strokes" inkscape:label="strokes">
            <path fill="none" stroke-width="3.0" stroke-linecap="butt" stroke-opacity="1.0" stroke="rgb(0, 0, 0)" stroke-linejoin="round" d=" M 1090.007, 664.272 1080.039, 663.477 1071.310, 662.781 1063.894, 659.456 1054.863, 655.162 1053.807, 654.660 1047.796, 646.668 1046.643, 645.135 1041.898, 636.784 " />
            <path fill="none" stroke-width="3.0" stroke-linecap="butt" stroke-opacity="1.0" stroke="rgb(0, 0, 0)" stroke-linejoin="round" d=" M 1081.988, 534.837 1072.124, 536.486 1063.297, 537.961 1054.078, 541.835 1051.908, 542.747 1043.168, 547.606 1042.384, 548.042 1034.377, 554.032 1032.048, 555.774 1025.198, 563.059 1022.637, 565.783 1017.006, 573.963 1011.881, 582.550 1011.656, 582.926 1008.670, 592.470 1006.566, 599.194 1005.776, 609.163 1005.222, 616.150 1006.776, 626.029 1007.839, 632.790 1010.009, 639.417 1013.675, 648.721 1013.872, 649.219 1018.103, 658.008 1023.715, 666.285 1025.810, 669.374 1032.973, 676.352 1034.910, 678.238 1042.845, 684.323 1043.415, 684.760 1052.118, 689.685 1054.329, 690.936 1063.914, 693.786 1072.391, 696.305 1082.365, 697.036 1091.510, 697.706 " />
            <path fill="none" stroke-width="3.0" stroke-linecap="butt" stroke-opacity="1.0" stroke="rgb(0, 0, 0)" stroke-linejoin="round" d=" M 1042.361, 639.345 1041.898, 636.784 1040.116, 626.944 1039.575, 623.956 1040.435, 613.993 1040.943, 608.099 1044.265, 598.667 1046.211, 593.139 1052.469, 585.339 1055.500, 581.560 1062.615, 574.533 1064.440, 572.731 1073.970, 569.702 1075.571, 569.193 1083.623, 566.842 " />
            <path fill="none" stroke-width="3.0" stroke-linecap="butt" stroke-opacity="1.0" stroke="rgb(0, 0, 0)" stroke-linejoin="round" d=" M 1093.783, 671.566 1083.816, 670.762 1074.716, 670.028 1067.155, 666.633 1058.126, 662.335 1056.871, 661.738 1050.860, 653.746 1049.569, 652.030 1044.629, 643.335 1042.361, 639.345 " />
            <path fill="none" stroke-width="3.0" stroke-linecap="butt" stroke-opacity="1.0" stroke="rgb(0, 0, 0)" stroke-linejoin="round" d=" M 1085.655, 539.694 1075.790, 541.334 1066.589, 542.864 1057.366, 546.728 1054.971, 547.732 1046.226, 552.582 1045.256, 553.119 1037.243, 559.101 1034.713, 560.989 1027.856, 568.268 1025.113, 571.179 1019.436, 579.411 1019.370, 579.507 1014.238, 588.090 1013.913, 588.633 1010.922, 598.175 1008.720, 605.199 1007.926, 615.168 1007.346, 622.468 1008.898, 632.346 1010.009, 639.417 " />
            <path fill="none" stroke-width="3.0" stroke-linecap="butt" stroke-opacity="1.0" stroke="rgb(0, 0, 0)" stroke-linejoin="round" d=" M 769.080, 633.860 771.091, 634.006 781.065, 634.730 788.647, 635.280 798.612, 636.126 805.331, 636.696 815.324, 636.332 823.200, 636.045 832.106, 631.497 832.599, 631.245 840.963, 625.764 842.522, 624.741 848.651, 616.839 849.287, 616.019 854.749, 607.935 857.333, 598.275 859.281, 590.996 859.947, 585.218 859.176, 575.248 858.601, 567.818 854.460, 558.715 854.132, 557.995 848.960, 549.437 848.627, 548.885 841.601, 541.769 840.169, 540.318 832.065, 534.460 830.463, 533.302 820.703, 531.123 812.653, 529.326 802.661, 528.922 795.753, 528.643 785.769, 528.074 779.517, 527.717 769.533, 527.147 763.358, 526.795 753.374, 526.226 746.243, 525.819 743.409, 530.397 742.957, 540.387 742.506, 550.377 742.468, 551.219 742.017, 561.209 741.748, 567.168 741.296, 577.158 741.030, 583.058 740.579, 593.048 740.315, 598.890 739.864, 608.880 739.602, 614.663 739.151, 624.653 738.893, 630.378 738.441, 640.368 738.185, 646.035 737.734, 656.025 737.481, 661.635 737.029, 671.625 736.578, 681.615 736.568, 681.830 746.537, 682.627 753.681, 683.199 763.649, 683.996 766.625, 684.234 768.992, 676.865 769.481, 666.877 769.968, 656.946 770.457, 646.957 770.721, 641.560 771.091, 634.006 " />
            <path fill="none" stroke-width="3.0" stroke-linecap="butt" stroke-opacity="1.0" stroke="rgb(0, 0, 0)" stroke-linejoin="round" d=" M 766.625, 684.234 767.112, 674.245 767.599, 664.257 767.613, 663.955 768.100, 653.967 768.377, 648.291 768.863, 638.302 769.080, 633.860 " />
            <path fill="none" stroke-width="3.0" stroke-linecap="butt" stroke-opacity="1.0" stroke="rgb(0, 0, 0)" stroke-linejoin="round" d=" M 827.779, 587.005 824.417, 596.422 823.405, 599.256 814.429, 603.664 812.174, 604.772 802.200, 604.051 792.226, 603.330 791.929, 603.308 781.951, 602.636 772.658, 602.009 773.147, 592.021 773.636, 582.033 773.762, 579.455 774.251, 569.467 774.529, 563.787 774.784, 558.596 " />
            <path fill="none" stroke-width="3.0" stroke-linecap="butt" stroke-opacity="1.0" stroke="rgb(0, 0, 0)" stroke-linejoin="round" d=" M 770.339, 608.019 770.826, 598.030 771.313, 588.042 771.458, 585.050 771.945, 575.062 772.236, 569.093 772.723, 559.105 772.754, 558.466 774.784, 558.596 784.763, 559.233 792.582, 559.732 802.573, 560.150 811.934, 560.543 820.362, 565.925 825.759, 569.371 826.897, 579.306 827.779, 587.005 827.969, 588.665 " />
            <path fill="none" stroke-width="3.0" stroke-linecap="butt" stroke-opacity="1.0" stroke="rgb(0, 0, 0)" stroke-linejoin="round" d=" M 859.281, 590.996 858.508, 581.026 857.907, 573.268 853.765, 564.166 853.352, 563.258 848.179, 554.699 847.739, 553.972 840.715, 546.855 839.118, 545.237 831.015, 539.377 829.225, 538.082 819.467, 535.897 811.074, 534.017 801.082, 533.607 793.852, 533.310 783.868, 532.733 777.309, 532.355 767.325, 531.778 760.845, 531.404 750.862, 530.828 743.409, 530.397 " />
            <path fill="none" stroke-width="3.0" stroke-linecap="butt" stroke-opacity="1.0" stroke="rgb(0, 0, 0)" stroke-linejoin="round" d=" M 827.969, 588.665 824.606, 598.082 822.042, 605.262 813.062, 609.662 810.599, 610.869 800.625, 610.139 790.652, 609.410 789.971, 609.360 779.995, 608.678 770.339, 608.019 772.658, 602.009 " />
            <path fill="none" stroke-width="3.0" stroke-linecap="butt" stroke-opacity="1.0" stroke="rgb(0, 0, 0)" stroke-linejoin="round" d=" M 573.478, 574.256 570.720, 569.789 565.467, 561.280 563.690, 558.401 558.857, 550.570 553.604, 542.060 550.887, 537.660 545.954, 529.668 540.701, 521.158 539.075, 518.523 529.091, 517.947 519.108, 517.370 509.125, 516.794 507.839, 516.720 500.569, 521.050 505.890, 529.517 511.210, 537.984 515.230, 544.380 520.551, 552.847 525.578, 560.845 530.898, 569.312 536.219, 577.779 537.751, 580.217 543.072, 588.684 546.031, 593.393 550.750, 600.903 544.822, 608.957 538.894, 617.010 537.832, 618.454 532.465, 625.745 526.537, 633.799 525.011, 635.872 519.439, 643.442 514.584, 650.038 508.656, 658.091 502.728, 666.145 499.682, 670.283 509.650, 671.091 519.617, 671.899 529.584, 672.707 530.926, 672.816 537.554, 665.770 543.445, 657.690 549.337, 649.610 549.659, 649.169 555.550, 641.089 557.709, 638.129 562.732, 631.239 568.044, 623.954 " />
            <path fill="none" stroke-width="3.0" stroke-linecap="butt" stroke-opacity="1.0" stroke="rgb(0, 0, 0)" stroke-linejoin="round" d=" M 549.659, 649.169 544.013, 656.911 538.122, 664.991 537.554, 665.770 " />
            <path fill="none" stroke-width="3.0" stroke-linecap="butt" stroke-opacity="1.0" stroke="rgb(0, 0, 0)" stroke-linejoin="round" d=" M 530.926, 672.816 536.816, 664.734 537.493, 663.805 543.231, 655.932 549.120, 647.851 551.414, 644.703 556.522, 637.695 562.412, 629.613 564.233, 627.115 567.358, 622.827 568.044, 623.954 573.249, 632.492 577.236, 639.032 581.993, 646.837 587.198, 655.375 589.715, 659.504 594.920, 668.043 595.033, 668.228 600.238, 676.767 601.308, 678.522 611.275, 679.330 621.243, 680.138 631.210, 680.946 633.309, 681.117 638.142, 673.811 632.843, 665.330 627.544, 656.849 624.064, 651.279 619.505, 643.981 614.286, 635.630 608.988, 627.149 607.334, 624.502 602.346, 616.519 597.048, 608.038 591.749, 599.558 590.405, 597.406 595.456, 590.658 601.446, 582.651 604.350, 578.769 609.770, 571.527 615.761, 563.521 617.512, 561.180 623.228, 553.541 628.776, 546.127 634.767, 538.120 640.759, 530.113 644.861, 524.630 634.878, 524.054 624.895, 523.477 614.911, 522.901 612.837, 522.781 607.456, 527.298 601.594, 535.399 599.674, 538.053 594.261, 545.533 588.399, 553.635 585.353, 557.844 580.017, 565.219 574.155, 573.320 573.478, 574.256 568.398, 581.276 " />
            <path fill="none" stroke-width="3.0" stroke-linecap="butt" stroke-opacity="1.0" stroke="rgb(0, 0, 0)" stroke-linejoin="round" d=" M 568.398, 581.276 564.608, 575.139 559.355, 566.630 557.445, 563.537 552.519, 555.558 547.265, 547.050 544.398, 542.406 539.370, 534.263 534.117, 525.754 532.360, 522.909 " />
            <path fill="none" stroke-width="3.0" stroke-linecap="butt" stroke-opacity="1.0" stroke="rgb(0, 0, 0)" stroke-linejoin="round" d=" M 539.075, 518.523 532.360, 522.909 522.377, 522.325 512.394, 521.742 502.411, 521.158 500.569, 521.050 " />
            <path fill="none" stroke-width="3.0" stroke-linecap="butt" stroke-opacity="1.0" stroke="rgb(0, 0, 0)" stroke-linejoin="round" d=" M 633.309, 681.117 628.009, 672.636 622.710, 664.156 618.964, 658.162 614.319, 650.725 609.000, 642.220 603.702, 633.738 601.917, 630.881 596.833, 622.750 591.534, 614.269 586.234, 605.789 584.665, 603.278 " />
            <path fill="none" stroke-width="3.0" stroke-linecap="butt" stroke-opacity="1.0" stroke="rgb(0, 0, 0)" stroke-linejoin="round" d=" M 590.405, 597.406 584.665, 603.278 589.802, 596.411 595.791, 588.402 598.850, 584.313 604.364, 576.941 610.353, 568.933 612.240, 566.411 618.055, 558.636 623.701, 551.089 629.690, 543.081 635.680, 535.073 640.069, 529.204 " />
            <path fill="none" stroke-width="3.0" stroke-linecap="butt" stroke-opacity="1.0" stroke="rgb(0, 0, 0)" stroke-linejoin="round" d=" M 644.861, 524.630 640.069, 529.204 630.086, 528.621 620.103, 528.037 610.120, 527.454 607.456, 527.298 " />
        </g>
    </g>
</svg>
