<?xml version='1.0' encoding='ascii'?>
<svg xmlns="http://www.w3.org/2000/svg" version="1.1" width="1080" height="1080">
    <g id="ViewLayer_LineSet" xmlns:inkscape="http://www.inkscape.org/namespaces/inkscape" inkscape:groupmode="lineset" inkscape:label="ViewLayer_LineSet">
        <g xmlns:inkscape="http://www.inkscape.org/namespaces/inkscape" inkscape:groupmode="layer" id="strokes" inkscape:label="strokes">
            <path fill="none" stroke-width="3.0" stroke-linecap="butt" stroke-opacity="1.0" stroke="rgb(0, 0, 0)" stroke-linejoin="round" d=" M 892.098, 610.990 891.471, 620.971 891.414, 621.875 888.220, 631.351 886.448, 636.608 880.412, 644.581 877.800, 648.032 870.683, 655.058 868.997, 656.722 859.440, 659.666 859.017, 659.796 851.450, 662.104 841.484, 661.286 833.371, 660.619 826.131, 657.296 817.139, 652.921 816.277, 652.502 810.273, 644.505 809.125, 642.977 804.152, 634.302 801.989, 630.529 800.029, 620.723 798.969, 615.420 799.546, 605.436 799.853, 600.137 " />
            <path fill="none" stroke-width="3.0" stroke-linecap="butt" stroke-opacity="1.0" stroke="rgb(0, 0, 0)" stroke-linejoin="round" d=" M 777.297, 655.820 782.917, 664.092 785.019, 667.186 792.144, 674.202 794.020, 676.049 801.908, 682.196 802.389, 682.570 811.046, 687.574 813.070, 688.744 822.634, 691.667 830.625, 694.109 840.596, 694.861 849.097, 695.503 859.001, 694.122 867.313, 692.962 876.593, 689.237 878.624, 688.421 887.429, 683.680 887.963, 683.392 896.013, 677.460 898.235, 675.822 905.006, 668.463 907.520, 665.730 913.070, 657.518 918.053, 648.848 918.429, 648.194 921.281, 638.609 923.437, 631.366 923.986, 621.381 924.408, 613.707 923.830, 607.403 922.174, 597.541 920.969, 590.363 917.194, 581.103 917.028, 580.695 912.678, 571.762 907.049, 563.497 904.879, 560.311 897.818, 553.229 895.900, 551.305 887.915, 545.285 887.314, 544.831 878.702, 539.748 876.714, 538.575 867.085, 535.878 858.906, 533.587 848.919, 533.076 840.468, 532.643 830.616, 534.360 822.510, 535.773 813.359, 539.806 811.640, 540.564 803.008, 545.613 802.583, 545.862 794.740, 552.067 792.802, 553.600 786.188, 561.101 783.971, 563.615 778.743, 571.798 773.919, 580.558 773.805, 580.765 771.484, 586.430 768.818, 596.068 766.899, 603.002 766.388, 612.989 766.016, 620.275 767.759, 630.122 769.017, 637.227 772.775, 646.494 772.992, 647.031 777.297, 655.820 " />
            <path fill="none" stroke-width="3.0" stroke-linecap="butt" stroke-opacity="1.0" stroke="rgb(0, 0, 0)" stroke-linejoin="round" d=" M 892.368, 612.328 891.740, 622.308 891.356, 628.420 888.159, 637.895 886.293, 643.425 880.252, 651.393 877.477, 655.053 870.355, 662.072 868.505, 663.895 858.944, 666.827 858.333, 667.015 850.621, 669.357 840.655, 668.528 832.195, 667.824 824.818, 664.431 815.828, 660.051 814.775, 659.538 808.771, 651.541 807.486, 649.830 802.512, 641.155 800.212, 637.144 798.250, 627.339 797.132, 621.753 797.707, 611.769 798.046, 605.892 799.853, 600.137 802.743, 590.927 808.731, 582.918 811.405, 579.342 818.293, 572.093 819.800, 570.508 829.288, 567.350 830.443, 566.966 838.147, 564.612 848.129, 565.211 856.514, 565.714 863.874, 569.060 872.901, 573.363 874.289, 574.025 880.319, 582.003 881.710, 583.844 886.763, 592.474 889.207, 596.650 891.183, 606.452 892.098, 610.990 892.368, 612.328 " />
            <path fill="none" stroke-width="3.0" stroke-linecap="butt" stroke-opacity="1.0" stroke="rgb(0, 0, 0)" stroke-linejoin="round" d=" M 924.408, 613.707 922.752, 603.845 921.492, 596.341 917.716, 587.081 917.473, 586.486 913.094, 577.495 913.037, 577.378 907.408, 569.113 905.085, 565.702 898.025, 558.619 895.930, 556.517 887.946, 550.495 887.174, 549.913 878.564, 544.827 876.366, 543.529 866.739, 540.826 858.210, 538.432 848.224, 537.914 839.413, 537.456 829.560, 539.166 821.109, 540.633 811.955, 544.659 810.030, 545.506 801.396, 550.550 800.800, 550.898 792.955, 557.098 790.835, 558.773 784.218, 566.271 781.838, 568.969 776.513, 577.300 771.688, 586.060 771.484, 586.430 " />
            <path fill="none" stroke-width="3.0" stroke-linecap="butt" stroke-opacity="1.0" stroke="rgb(0, 0, 0)" stroke-linejoin="round" d=" M 552.728, 631.907 558.929, 632.370 568.901, 633.114 571.679, 633.322 581.641, 634.191 587.842, 634.733 597.835, 634.352 605.102, 634.076 613.918, 629.356 614.074, 629.272 622.307, 623.596 623.513, 622.764 628.622, 616.422 634.495, 608.329 634.845, 607.848 639.845, 599.904 642.135, 590.170 643.760, 583.266 642.783, 573.314 642.052, 565.862 637.847, 556.789 637.500, 556.039 632.305, 547.495 631.961, 546.929 624.968, 539.782 623.579, 538.363 615.519, 532.444 614.026, 531.348 604.279, 529.113 596.703, 527.376 586.712, 526.962 580.338, 526.698 570.355, 526.113 564.610, 525.777 554.627, 525.192 548.956, 524.859 538.973, 524.274 532.375, 523.888 525.450, 528.429 525.251, 538.427 525.053, 548.425 525.036, 549.256 524.837, 559.254 524.719, 565.209 524.520, 575.207 524.403, 581.102 524.204, 591.100 524.088, 596.938 523.889, 606.936 523.774, 612.714 523.575, 622.712 523.461, 628.433 523.262, 638.431 523.150, 644.094 522.951, 654.092 522.839, 659.697 522.641, 669.695 522.442, 679.693 522.438, 679.897 532.404, 680.717 539.014, 681.260 548.980, 682.080 551.553, 682.292 557.904, 674.959 558.144, 664.962 558.383, 655.035 558.624, 645.038 558.753, 639.646 558.929, 632.370 " />
            <path fill="none" stroke-width="3.0" stroke-linecap="butt" stroke-opacity="1.0" stroke="rgb(0, 0, 0)" stroke-linejoin="round" d=" M 551.553, 682.292 551.786, 672.295 552.019, 662.297 552.026, 662.009 552.259, 652.011 552.391, 646.341 552.625, 636.343 552.728, 631.907 " />
            <path fill="none" stroke-width="3.0" stroke-linecap="butt" stroke-opacity="1.0" stroke="rgb(0, 0, 0)" stroke-linejoin="round" d=" M 604.462, 599.515 597.999, 602.838 588.026, 602.097 578.379, 601.380 568.403, 600.689 559.705, 600.086 559.946, 590.089 560.186, 580.092 560.248, 577.527 560.489, 567.530 560.625, 561.856 560.744, 556.906 " />
            <path fill="none" stroke-width="3.0" stroke-linecap="butt" stroke-opacity="1.0" stroke="rgb(0, 0, 0)" stroke-linejoin="round" d=" M 553.331, 606.059 553.565, 596.062 553.798, 586.065 553.867, 583.086 554.101, 573.088 554.240, 567.125 554.473, 557.127 554.488, 556.496 560.744, 556.906 570.723, 557.561 573.687, 557.755 583.678, 558.185 592.415, 558.561 600.799, 564.012 605.991, 567.387 607.324, 577.298 608.586, 586.684 605.526, 596.205 604.462, 599.515 603.250, 603.287 " />
            <path fill="none" stroke-width="3.0" stroke-linecap="butt" stroke-opacity="1.0" stroke="rgb(0, 0, 0)" stroke-linejoin="round" d=" M 623.513, 622.764 629.387, 614.671 629.846, 614.038 634.934, 605.950 637.220, 596.215 638.912, 589.006 637.931, 579.055 637.163, 571.275 632.957, 562.203 632.521, 561.264 627.325, 552.720 626.874, 551.978 619.882, 544.829 618.332, 543.244 610.274, 537.322 608.597, 536.090 598.852, 533.848 590.953, 532.030 580.962, 531.609 574.286, 531.328 564.304, 530.735 558.270, 530.377 548.288, 529.785 542.331, 529.431 532.349, 528.839 525.450, 528.429 " />
            <path fill="none" stroke-width="3.0" stroke-linecap="butt" stroke-opacity="1.0" stroke="rgb(0, 0, 0)" stroke-linejoin="round" d=" M 603.250, 603.287 594.354, 607.855 592.321, 608.899 582.349, 608.148 572.343, 607.395 562.368, 606.694 553.331, 606.059 559.705, 600.086 " />
            <path fill="none" stroke-width="3.0" stroke-linecap="butt" stroke-opacity="1.0" stroke="rgb(0, 0, 0)" stroke-linejoin="round" d=" M 390.821, 569.372 389.829, 567.772 384.559, 559.273 382.769, 556.386 377.914, 548.557 372.644, 540.058 369.911, 535.649 364.956, 527.659 359.687, 519.160 358.048, 516.516 348.065, 515.927 338.082, 515.337 328.100, 514.748 327.670, 514.723 318.395, 518.459 317.015, 519.015 322.351, 527.472 327.687, 535.930 331.731, 542.340 337.067, 550.797 342.118, 558.802 347.454, 567.259 352.790, 575.716 354.338, 578.170 359.674, 586.627 362.649, 591.343 367.386, 598.852 361.687, 607.068 355.987, 615.285 355.210, 616.406 350.152, 623.700 344.452, 631.917 343.126, 633.829 337.874, 641.401 333.298, 647.998 327.599, 656.215 321.900, 664.432 319.253, 668.248 329.219, 669.076 339.184, 669.903 349.150, 670.731 349.635, 670.771 357.806, 665.006 359.566, 663.764 365.233, 655.525 370.987, 647.159 376.653, 638.920 378.581, 636.116 383.321, 629.225 386.400, 624.748 " />
            <path fill="none" stroke-width="3.0" stroke-linecap="butt" stroke-opacity="1.0" stroke="rgb(0, 0, 0)" stroke-linejoin="round" d=" M 370.987, 647.159 365.660, 654.903 359.994, 663.143 359.566, 663.764 " />
            <path fill="none" stroke-width="3.0" stroke-linecap="butt" stroke-opacity="1.0" stroke="rgb(0, 0, 0)" stroke-linejoin="round" d=" M 349.635, 670.771 355.295, 662.527 355.823, 661.758 361.229, 653.884 366.889, 645.639 368.940, 642.652 373.753, 635.642 379.413, 627.397 381.019, 625.059 383.963, 620.770 386.400, 624.748 391.624, 633.275 393.889, 636.972 398.669, 644.775 403.893, 653.302 406.428, 657.440 411.652, 665.967 411.772, 666.162 416.996, 674.690 418.077, 676.454 428.043, 677.282 438.008, 678.109 447.974, 678.937 449.195, 679.038 456.696, 672.424 457.435, 671.773 452.120, 663.302 446.806, 654.831 443.302, 649.245 438.725, 641.948 433.486, 633.600 428.172, 625.128 426.506, 622.474 421.499, 614.492 416.185, 606.021 410.871, 597.550 409.511, 595.383 414.280, 588.633 420.049, 580.465 422.678, 576.742 428.447, 568.574 434.216, 560.406 435.104, 559.148 440.500, 551.507 445.739, 544.091 451.508, 535.923 457.277, 527.755 460.925, 522.590 450.943, 522.000 440.960, 521.411 430.977, 520.822 429.782, 520.751 420.904, 525.228 415.273, 533.491 413.573, 535.986 408.474, 543.468 402.843, 551.731 400.082, 555.781 395.056, 563.158 390.821, 569.372 385.189, 577.635 384.110, 579.219 " />
            <path fill="none" stroke-width="3.0" stroke-linecap="butt" stroke-opacity="1.0" stroke="rgb(0, 0, 0)" stroke-linejoin="round" d=" M 384.110, 579.219 380.304, 573.083 375.033, 564.585 373.109, 561.483 368.161, 553.506 362.890, 545.008 360.005, 540.356 354.955, 532.215 349.685, 523.717 347.914, 520.863 " />
            <path fill="none" stroke-width="3.0" stroke-linecap="butt" stroke-opacity="1.0" stroke="rgb(0, 0, 0)" stroke-linejoin="round" d=" M 358.048, 516.516 348.857, 520.458 347.914, 520.863 337.932, 520.266 327.950, 519.669 317.968, 519.072 317.015, 519.015 " />
            <path fill="none" stroke-width="3.0" stroke-linecap="butt" stroke-opacity="1.0" stroke="rgb(0, 0, 0)" stroke-linejoin="round" d=" M 449.195, 679.038 443.880, 670.568 438.564, 662.098 434.793, 656.088 430.131, 648.653 424.790, 640.149 419.476, 631.678 417.680, 628.813 412.575, 620.683 407.259, 612.213 401.944, 603.743 400.358, 601.215 " />
            <path fill="none" stroke-width="3.0" stroke-linecap="butt" stroke-opacity="1.0" stroke="rgb(0, 0, 0)" stroke-linejoin="round" d=" M 435.104, 559.148 429.335, 567.316 427.793, 569.498 422.678, 576.742 " />
            <path fill="none" stroke-width="3.0" stroke-linecap="butt" stroke-opacity="1.0" stroke="rgb(0, 0, 0)" stroke-linejoin="round" d=" M 409.511, 595.383 401.078, 600.757 400.358, 601.215 405.202, 594.346 410.965, 586.173 413.734, 582.246 418.934, 574.872 424.696, 566.700 426.360, 564.340 431.844, 556.562 437.168, 549.013 442.930, 540.841 448.693, 532.668 452.603, 527.124 " />
            <path fill="none" stroke-width="3.0" stroke-linecap="butt" stroke-opacity="1.0" stroke="rgb(0, 0, 0)" stroke-linejoin="round" d=" M 460.925, 522.590 452.603, 527.124 442.621, 526.527 432.638, 525.930 422.656, 525.333 420.904, 525.228 " />
        </g>
    </g>
</svg>
