<?xml version='1.0' encoding='ascii'?>
<svg xmlns="http://www.w3.org/2000/svg" version="1.1" width="1080" height="1080">
    <g id="ViewLayer_LineSet" xmlns:inkscape="http://www.inkscape.org/namespaces/inkscape" inkscape:groupmode="lineset" inkscape:label="ViewLayer_LineSet">
        <g xmlns:inkscape="http://www.inkscape.org/namespaces/inkscape" inkscape:groupmode="layer" id="strokes" inkscape:label="strokes">
            <path fill="none" stroke-width="3.0" stroke-linecap="butt" stroke-opacity="1.0" stroke="rgb(0, 0, 0)" stroke-linejoin="round" d=" M 297.533, 639.673 297.467, 629.673 297.433, 624.639 297.367, 614.639 297.333, 609.552 297.267, 599.552 297.233, 594.412 297.167, 584.412 297.133, 579.217 297.066, 569.218 297.032, 563.969 296.966, 553.969 296.930, 548.667 296.864, 538.667 296.829, 533.309 296.763, 523.310 296.696, 513.263 286.713, 512.673 276.731, 512.083 269.432, 511.652 260.025, 515.042 257.784, 515.849 257.895, 525.849 258.006, 535.848 258.010, 536.176 258.121, 546.175 258.183, 551.746 258.294, 561.746 258.356, 567.261 258.467, 577.260 258.528, 582.720 258.639, 592.719 258.699, 598.123 258.810, 608.122 258.870, 613.471 258.981, 623.470 259.040, 628.763 259.151, 638.763 259.210, 644.002 259.321, 654.001 259.429, 663.731 269.395, 664.559 279.360, 665.387 286.683, 665.996 295.164, 660.699 297.662, 659.139 297.596, 649.139 297.533, 639.673 " />
            <path fill="none" stroke-width="3.0" stroke-linecap="butt" stroke-opacity="1.0" stroke="rgb(0, 0, 0)" stroke-linejoin="round" d=" M 286.683, 665.996 286.603, 655.996 286.526, 646.187 286.446, 636.188 286.405, 630.887 286.325, 620.888 286.283, 615.532 286.204, 605.533 286.161, 600.122 286.082, 590.122 286.038, 584.656 285.959, 574.656 285.915, 569.134 285.836, 559.134 285.792, 553.555 285.713, 543.555 285.668, 537.920 285.589, 527.920 285.510, 517.920 285.507, 517.509 " />
            <path fill="none" stroke-width="3.0" stroke-linecap="butt" stroke-opacity="1.0" stroke="rgb(0, 0, 0)" stroke-linejoin="round" d=" M 296.696, 513.263 287.347, 516.811 285.507, 517.509 275.524, 516.911 265.542, 516.314 257.784, 515.849 " />
            <path fill="none" stroke-width="3.0" stroke-linecap="butt" stroke-opacity="1.0" stroke="rgb(0, 0, 0)" stroke-linejoin="round" d=" M -1.098, 601.977 1.857, 595.479 5.468, 587.541 5.836, 586.731 " />
            <path fill="none" stroke-width="3.0" stroke-linecap="butt" stroke-opacity="1.0" stroke="rgb(0, 0, 0)" stroke-linejoin="round" d=" M 1.857, 595.479 3.433, 592.008 5.468, 587.541 " />
            <path fill="none" stroke-width="3.0" stroke-linecap="butt" stroke-opacity="1.0" stroke="rgb(0, 0, 0)" stroke-linejoin="round" d=" M 4.704, 558.851 4.883, 563.272 5.289, 573.264 5.481, 577.997 5.795, 585.715 5.836, 586.731 6.108, 593.420 6.421, 601.111 6.732, 608.788 7.044, 616.451 7.355, 624.100 7.665, 631.736 7.975, 639.358 8.284, 646.967 8.594, 654.610 12.762, 654.964 19.773, 655.560 26.801, 656.158 34.549, 656.817 40.196, 654.385 44.435, 652.559 49.954, 650.182 49.684, 642.640 49.416, 635.132 49.147, 627.611 48.878, 620.077 48.608, 612.530 48.338, 604.969 48.067, 597.394 47.796, 589.807 47.524, 582.206 47.252, 574.591 46.979, 566.963 46.706, 559.321 46.432, 551.666 46.158, 543.996 45.884, 536.314 45.609, 528.617 45.333, 520.907 45.057, 513.183 44.779, 505.397 37.026, 504.930 29.995, 504.506 22.980, 504.084 17.125, 503.731 11.320, 505.169 6.861, 506.273 0.919, 507.745 -2.161, 514.635 " />
            <path fill="none" stroke-width="3.0" stroke-linecap="butt" stroke-opacity="1.0" stroke="rgb(0, 0, 0)" stroke-linejoin="round" d=" M 29.011, 509.460 29.309, 517.387 29.604, 525.250 29.899, 533.099 30.194, 540.934 30.488, 548.755 30.781, 556.561 31.074, 564.353 31.366, 572.131 31.658, 579.895 31.950, 587.645 32.240, 595.381 32.530, 603.103 32.820, 610.811 33.109, 618.505 33.398, 626.185 33.686, 633.852 33.974, 641.504 34.261, 649.143 34.549, 656.817 " />
            <path fill="none" stroke-width="3.0" stroke-linecap="butt" stroke-opacity="1.0" stroke="rgb(0, 0, 0)" stroke-linejoin="round" d=" M 44.779, 505.397 39.131, 506.852 34.792, 507.971 29.011, 509.460 21.135, 508.979 13.993, 508.543 6.867, 508.108 0.919, 507.745 " />
            <path fill="none" stroke-width="3.0" stroke-linecap="butt" stroke-opacity="1.0" stroke="rgb(0, 0, 0)" stroke-linejoin="round" d=" M 9.063, 562.812 4.704, 558.851 2.592, 563.524 -1.188, 571.886 2.586, 563.524 " />
            <path fill="none" stroke-width="3.0" stroke-linecap="butt" stroke-opacity="1.0" stroke="rgb(0, 0, 0)" stroke-linejoin="round" d=" M 4.704, 558.851 2.586, 563.524 " />
            <path fill="none" stroke-width="3.0" stroke-linecap="butt" stroke-opacity="1.0" stroke="rgb(0, 0, 0)" stroke-linejoin="round" d=" M 1080.347, 542.487 1072.196, 536.694 1070.472, 535.469 1060.699, 533.349 1052.121, 531.488 1042.129, 531.095 1034.628, 530.800 1024.643, 530.246 1017.830, 529.869 1007.845, 529.315 1001.111, 528.942 991.126, 528.388 983.403, 527.960 982.675, 537.934 981.947, 547.907 981.911, 548.398 981.183, 558.371 980.768, 564.054 980.041, 574.027 979.630, 579.653 978.902, 589.627 978.496, 595.196 977.768, 605.170 977.365, 610.683 976.638, 620.656 976.239, 626.113 975.511, 636.087 975.117, 641.488 974.389, 651.462 973.999, 656.808 973.271, 666.781 972.552, 676.642 974.020, 683.974 983.990, 684.748 991.727, 685.348 1001.697, 686.121 1005.121, 686.387 1005.888, 676.416 1006.655, 666.446 1006.680, 666.114 1007.447, 656.143 1007.885, 650.453 1008.651, 640.483 1008.994, 636.026 1018.969, 636.729 1028.945, 637.432 1029.245, 637.453 1039.212, 638.273 1046.506, 638.874 1056.500, 638.526 1065.052, 638.229 1074.046, 633.859 1074.923, 633.433 1083.417, 628.156 1085.383, 626.934 " />
            <path fill="none" stroke-width="3.0" stroke-linecap="butt" stroke-opacity="1.0" stroke="rgb(0, 0, 0)" stroke-linejoin="round" d=" M 985.105, 532.580 984.374, 542.553 983.644, 552.526 983.581, 553.396 982.850, 563.369 982.413, 569.341 981.683, 579.314 981.250, 585.227 980.520, 595.201 980.091, 601.055 979.361, 611.028 978.937, 616.824 978.206, 626.797 977.786, 632.535 977.056, 642.508 976.640, 648.188 975.910, 658.162 975.498, 663.784 974.768, 673.757 974.038, 683.731 974.020, 683.974 " />
            <path fill="none" stroke-width="3.0" stroke-linecap="butt" stroke-opacity="1.0" stroke="rgb(0, 0, 0)" stroke-linejoin="round" d=" M 1010.981, 610.191 1011.433, 604.313 1012.200, 594.343 1012.747, 587.229 1013.514, 577.258 1013.974, 571.276 1014.741, 561.305 1014.791, 560.652 1024.772, 561.270 1034.753, 561.888 1035.317, 561.923 1045.308, 562.331 1055.361, 562.741 1063.836, 568.048 1066.477, 569.702 1069.463, 571.572 " />
            <path fill="none" stroke-width="3.0" stroke-linecap="butt" stroke-opacity="1.0" stroke="rgb(0, 0, 0)" stroke-linejoin="round" d=" M 1083.950, 547.448 1075.799, 541.654 1073.881, 540.291 1064.109, 538.166 1055.168, 536.221 1045.176, 535.822 1037.330, 535.508 1027.345, 534.948 1020.202, 534.548 1010.218, 533.988 1003.157, 533.592 993.173, 533.032 985.105, 532.580 983.403, 527.960 " />
            <path fill="none" stroke-width="3.0" stroke-linecap="butt" stroke-opacity="1.0" stroke="rgb(0, 0, 0)" stroke-linejoin="round" d=" M 1066.477, 569.702 1067.400, 579.660 1067.905, 585.112 1064.224, 594.409 1061.454, 601.405 1052.397, 605.643 1049.675, 606.916 1039.700, 606.216 1029.724, 605.516 1028.736, 605.446 1018.758, 604.793 1011.433, 604.313 " />
            <path fill="none" stroke-width="3.0" stroke-linecap="butt" stroke-opacity="1.0" stroke="rgb(0, 0, 0)" stroke-linejoin="round" d=" M 1069.463, 571.572 1070.383, 581.529 1071.245, 590.862 1067.557, 600.157 1064.662, 607.453 1055.599, 611.679 1052.649, 613.055 1042.674, 612.346 1032.700, 611.638 1031.302, 611.539 1021.323, 610.877 1011.345, 610.215 1010.981, 610.191 " />
            <path fill="none" stroke-width="3.0" stroke-linecap="butt" stroke-opacity="1.0" stroke="rgb(0, 0, 0)" stroke-linejoin="round" d=" M 834.259, 602.643 839.537, 611.137 844.568, 619.233 849.529, 627.218 854.807, 635.712 856.445, 638.349 861.636, 646.702 866.172, 654.002 871.450, 662.496 876.727, 670.990 880.176, 676.540 879.908, 683.900 869.938, 683.116 859.969, 682.332 850.000, 681.549 846.725, 681.291 841.545, 672.737 840.490, 670.994 835.311, 662.440 835.206, 662.268 830.027, 653.714 827.534, 649.597 822.807, 641.791 817.628, 633.237 812.993, 625.582 809.626, 629.868 803.449, 637.732 801.319, 640.445 795.816, 647.451 789.639, 655.315 786.999, 658.676 780.818, 666.546 774.640, 674.410 773.742, 675.554 763.772, 674.770 753.803, 673.987 743.834, 673.203 741.344, 673.007 744.123, 665.989 750.334, 658.151 756.544, 650.313 759.893, 646.087 765.029, 639.605 770.925, 632.163 777.136, 624.326 778.811, 622.211 784.489, 615.046 790.699, 607.208 795.098, 601.656 " />
            <path fill="none" stroke-width="3.0" stroke-linecap="butt" stroke-opacity="1.0" stroke="rgb(0, 0, 0)" stroke-linejoin="round" d=" M 770.925, 632.163 764.715, 640.001 759.893, 646.087 " />
            <path fill="none" stroke-width="3.0" stroke-linecap="butt" stroke-opacity="1.0" stroke="rgb(0, 0, 0)" stroke-linejoin="round" d=" M 831.523, 606.040 834.259, 602.643 837.052, 599.175 843.325, 591.387 846.792, 587.081 852.727, 579.712 859.000, 571.924 861.205, 569.186 867.465, 561.413 873.542, 553.868 879.814, 546.080 886.086, 538.292 891.161, 531.991 891.222, 527.363 881.238, 526.803 871.254, 526.243 861.269, 525.683 858.018, 525.500 851.871, 533.388 845.723, 541.275 844.061, 543.408 837.914, 551.295 834.637, 555.499 828.992, 562.742 822.844, 570.629 816.698, 578.516 813.001, 572.490 807.771, 563.966 806.011, 561.099 801.206, 553.266 795.976, 544.742 793.282, 540.353 788.377, 532.358 783.148, 523.835 781.538, 521.211 771.553, 520.651 761.569, 520.091 751.585, 519.531 749.151, 519.394 746.418, 523.777 751.719, 532.256 757.019, 540.736 761.005, 547.112 766.305, 555.592 771.300, 563.582 776.600, 572.062 781.901, 580.542 783.412, 582.959 788.712, 591.439 791.649, 596.138 795.098, 601.656 796.345, 603.651 790.131, 611.486 783.918, 619.321 782.431, 621.195 776.651, 628.485 770.438, 636.320 768.623, 638.608 762.622, 646.175 757.394, 652.769 751.180, 660.604 744.967, 668.440 741.344, 673.007 " />
            <path fill="none" stroke-width="3.0" stroke-linecap="butt" stroke-opacity="1.0" stroke="rgb(0, 0, 0)" stroke-linejoin="round" d=" M 815.230, 584.032 811.463, 577.893 806.233, 569.369 804.341, 566.287 799.445, 558.307 794.214, 549.784 791.371, 545.151 786.373, 537.006 781.143, 528.483 779.404, 525.649 " />
            <path fill="none" stroke-width="3.0" stroke-linecap="butt" stroke-opacity="1.0" stroke="rgb(0, 0, 0)" stroke-linejoin="round" d=" M 781.538, 521.211 779.404, 525.649 769.420, 525.082 759.436, 524.515 749.452, 523.949 746.418, 523.777 " />
            <path fill="none" stroke-width="3.0" stroke-linecap="butt" stroke-opacity="1.0" stroke="rgb(0, 0, 0)" stroke-linejoin="round" d=" M 879.908, 683.900 874.629, 675.406 869.351, 666.912 865.639, 660.939 861.018, 653.500 855.728, 644.992 850.451, 636.498 848.682, 633.650 843.627, 625.517 838.348, 617.024 833.070, 608.530 831.523, 606.040 " />
            <path fill="none" stroke-width="3.0" stroke-linecap="butt" stroke-opacity="1.0" stroke="rgb(0, 0, 0)" stroke-linejoin="round" d=" M 844.061, 543.408 849.786, 536.063 855.933, 528.175 858.018, 525.500 857.322, 530.070 " />
            <path fill="none" stroke-width="3.0" stroke-linecap="butt" stroke-opacity="1.0" stroke="rgb(0, 0, 0)" stroke-linejoin="round" d=" M 891.161, 531.991 881.177, 531.424 871.193, 530.857 861.209, 530.291 857.322, 530.070 851.172, 537.955 848.935, 540.822 843.102, 548.300 836.952, 556.185 833.502, 560.607 827.752, 567.979 821.601, 575.864 815.451, 583.749 815.230, 584.032 816.698, 578.516 " />
            <path fill="none" stroke-width="3.0" stroke-linecap="butt" stroke-opacity="1.0" stroke="rgb(0, 0, 0)" stroke-linejoin="round" d=" M 2.592, 563.524 4.883, 563.272 " />
        </g>
    </g>
</svg>
