<?xml version='1.0' encoding='ascii'?>
<svg xmlns="http://www.w3.org/2000/svg" version="1.1" width="1080" height="1080">
    <g id="ViewLayer_LineSet" xmlns:inkscape="http://www.inkscape.org/namespaces/inkscape" inkscape:groupmode="lineset" inkscape:label="ViewLayer_LineSet">
        <g xmlns:inkscape="http://www.inkscape.org/namespaces/inkscape" inkscape:groupmode="layer" id="strokes" inkscape:label="strokes">
            <path fill="none" stroke-width="3.0" stroke-linecap="butt" stroke-opacity="1.0" stroke="rgb(0, 0, 0)" stroke-linejoin="round" d=" M 1055.228, 593.064 1057.082, 602.890 1057.968, 607.583 1057.148, 617.550 1056.669, 623.376 1053.254, 632.775 1051.317, 638.106 1045.099, 645.938 1042.250, 649.527 1034.988, 656.401 1033.073, 658.214 1023.492, 661.075 1022.791, 661.284 1014.994, 663.590 1005.027, 662.788 996.492, 662.102 989.131, 658.777 980.112, 654.458 979.117, 653.981 973.108, 645.988 971.957, 644.457 967.007, 635.768 965.031, 632.301 " />
            <path fill="none" stroke-width="3.0" stroke-linecap="butt" stroke-opacity="1.0" stroke="rgb(0, 0, 0)" stroke-linejoin="round" d=" M 1082.994, 578.923 1079.354, 573.277 1073.730, 565.008 1071.565, 561.825 1064.480, 554.768 1062.523, 552.819 1054.506, 546.842 1053.838, 546.345 1045.195, 541.315 1043.086, 540.087 1033.444, 537.437 1024.924, 535.096 1014.936, 534.594 1006.043, 534.147 996.184, 535.817 987.583, 537.273 978.385, 541.196 976.357, 542.061 967.650, 546.978 966.980, 547.357 959.023, 553.413 956.819, 555.091 950.041, 562.443 947.590, 565.102 942.086, 573.282 937.053, 581.924 936.866, 582.246 933.979, 591.821 931.960, 598.517 931.257, 608.492 930.764, 615.474 931.461, 621.778 933.074, 631.648 934.231, 638.729 937.926, 648.021 938.128, 648.531 942.383, 657.320 947.998, 665.595 950.095, 668.686 957.246, 675.676 959.164, 677.550 967.085, 683.654 967.626, 684.071 976.315, 689.021 978.467, 690.247 988.045, 693.119 996.369, 695.615 1006.342, 696.352 1015.285, 697.013 1025.194, 695.671 1034.010, 694.477 1043.331, 690.856 1045.691, 689.939 1054.563, 685.327 1055.358, 684.913 1063.515, 679.129 1066.029, 677.347 1072.961, 670.140 1075.732, 667.259 1081.572, 659.049 " />
            <path fill="none" stroke-width="3.0" stroke-linecap="butt" stroke-opacity="1.0" stroke="rgb(0, 0, 0)" stroke-linejoin="round" d=" M 966.219, 638.653 965.031, 632.301 963.340, 623.263 964.111, 613.293 964.566, 607.405 967.786, 597.938 969.654, 592.444 975.829, 584.578 978.746, 580.863 985.792, 573.767 987.515, 572.032 997.032, 568.963 998.492, 568.493 1006.434, 566.141 1016.417, 566.728 1025.248, 567.248 1032.734, 570.595 1041.788, 574.841 1043.323, 575.561 1049.358, 583.535 1050.755, 585.380 1055.228, 593.064 1058.209, 598.185 " />
            <path fill="none" stroke-width="3.0" stroke-linecap="butt" stroke-opacity="1.0" stroke="rgb(0, 0, 0)" stroke-linejoin="round" d=" M 1058.209, 598.185 1060.062, 608.012 1061.165, 613.862 1060.341, 623.828 1059.835, 629.951 1056.413, 639.347 1054.372, 644.952 1048.145, 652.777 1045.120, 656.576 1037.850, 663.442 1035.760, 665.415 1026.174, 668.264 1025.273, 668.532 1017.322, 670.872 1007.355, 670.060 998.457, 669.335 990.954, 665.941 981.937, 661.618 980.745, 661.046 974.736, 653.053 973.448, 651.339 968.497, 642.650 966.219, 638.653 " />
            <path fill="none" stroke-width="3.0" stroke-linecap="butt" stroke-opacity="1.0" stroke="rgb(0, 0, 0)" stroke-linejoin="round" d=" M 1082.994, 578.923 1077.370, 570.654 1075.052, 567.246 1067.967, 560.189 1065.831, 558.061 1057.814, 552.083 1056.973, 551.456 1048.331, 546.424 1046.007, 545.071 1036.366, 542.416 1027.482, 539.971 1017.495, 539.462 1008.226, 538.990 998.365, 540.652 989.399, 542.162 980.197, 546.077 977.951, 547.032 969.239, 551.942 968.389, 552.421 960.426, 558.470 958.027, 560.293 951.243, 567.640 948.617, 570.484 943.005, 578.813 937.968, 587.452 937.683, 587.940 934.793, 597.514 932.681, 604.509 931.976, 614.484 931.461, 621.778 " />
            <path fill="none" stroke-width="3.0" stroke-linecap="butt" stroke-opacity="1.0" stroke="rgb(0, 0, 0)" stroke-linejoin="round" d=" M 693.704, 633.180 697.173, 633.434 707.146, 634.165 713.057, 634.598 723.020, 635.452 729.559, 636.012 739.552, 635.643 747.216, 635.359 756.092, 630.752 756.466, 630.558 764.786, 625.010 766.221, 624.053 772.262, 616.084 772.835, 615.329 778.167, 607.244 780.366, 601.172 782.849, 591.485 784.629, 584.538 783.786, 574.574 783.156, 567.136 778.993, 558.044 778.659, 557.314 773.478, 548.760 773.142, 548.204 766.127, 541.077 764.710, 539.637 756.621, 533.758 755.058, 532.621 745.302, 530.423 737.417, 528.647 727.426, 528.240 720.703, 527.966 710.720, 527.391 704.645, 527.041 694.661, 526.466 688.661, 526.121 678.678, 525.546 671.732, 525.146 667.473, 529.712 667.110, 539.705 666.746, 549.699 666.716, 550.535 666.353, 560.528 666.136, 566.485 665.773, 576.479 665.558, 582.377 665.195, 592.370 664.982, 598.210 664.619, 608.203 664.409, 613.984 664.045, 623.977 663.837, 629.700 663.474, 639.694 663.268, 645.359 662.905, 655.352 662.701, 660.960 662.337, 670.953 661.974, 680.947 661.966, 681.157 671.934, 681.962 678.892, 682.523 688.859, 683.328 691.695, 683.557 695.450, 676.201 695.853, 666.209 696.253, 656.280 696.655, 646.288 696.873, 640.893 697.173, 633.434 " />
            <path fill="none" stroke-width="3.0" stroke-linecap="butt" stroke-opacity="1.0" stroke="rgb(0, 0, 0)" stroke-linejoin="round" d=" M 691.695, 683.557 692.093, 673.565 692.492, 663.573 692.504, 663.277 692.902, 653.285 693.129, 647.611 693.527, 637.619 693.704, 633.180 " />
            <path fill="none" stroke-width="3.0" stroke-linecap="butt" stroke-opacity="1.0" stroke="rgb(0, 0, 0)" stroke-linejoin="round" d=" M 747.729, 599.023 738.781, 603.487 737.556, 604.098 727.583, 603.370 717.529, 602.637 707.552, 601.958 698.466, 601.339 698.869, 591.347 699.271, 581.355 699.375, 578.784 699.778, 568.792 700.006, 563.114 700.212, 558.005 " />
            <path fill="none" stroke-width="3.0" stroke-linecap="butt" stroke-opacity="1.0" stroke="rgb(0, 0, 0)" stroke-linejoin="round" d=" M 694.735, 607.336 695.133, 597.344 695.532, 587.352 695.651, 584.366 696.049, 574.374 696.287, 568.407 696.686, 558.415 696.711, 557.780 700.212, 558.005 710.191, 558.648 716.320, 559.043 726.311, 559.466 735.455, 559.852 743.868, 565.258 749.193, 568.680 750.399, 578.607 751.537, 587.975 748.278, 597.429 747.729, 599.023 745.816, 604.574 " />
            <path fill="none" stroke-width="3.0" stroke-linecap="butt" stroke-opacity="1.0" stroke="rgb(0, 0, 0)" stroke-linejoin="round" d=" M 778.167, 607.244 780.648, 597.556 782.506, 590.303 781.660, 580.339 781.001, 572.574 776.837, 563.482 776.415, 562.563 771.235, 554.010 770.791, 553.277 763.778, 546.149 762.197, 544.543 754.110, 538.661 752.359, 537.388 742.606, 535.183 734.385, 533.325 724.393, 532.911 717.356, 532.619 707.373, 532.037 700.997, 531.666 691.014, 531.084 684.716, 530.717 674.733, 530.135 667.473, 529.712 " />
            <path fill="none" stroke-width="3.0" stroke-linecap="butt" stroke-opacity="1.0" stroke="rgb(0, 0, 0)" stroke-linejoin="round" d=" M 745.816, 604.574 736.864, 609.031 734.552, 610.183 724.579, 609.446 714.606, 608.709 714.151, 608.675 704.174, 607.987 694.735, 607.336 698.466, 601.339 " />
            <path fill="none" stroke-width="3.0" stroke-linecap="butt" stroke-opacity="1.0" stroke="rgb(0, 0, 0)" stroke-linejoin="round" d=" M 502.406, 572.375 500.321, 569.004 495.062, 560.499 493.280, 557.617 488.438, 549.787 483.179, 541.281 480.455, 536.878 475.514, 528.886 470.255, 520.381 468.623, 517.742 458.640, 517.161 448.657, 516.580 438.674, 515.998 437.721, 515.943 429.134, 520.258 434.460, 528.722 439.787, 537.185 443.816, 543.586 449.143, 552.049 454.179, 560.050 459.506, 568.513 464.833, 576.977 466.371, 579.421 471.698, 587.884 474.663, 592.595 479.389, 600.105 473.549, 608.222 467.708, 616.339 466.759, 617.657 461.513, 624.949 455.672, 633.067 454.226, 635.077 448.778, 642.648 444.032, 649.244 438.191, 657.361 432.351, 665.478 429.464, 669.491 439.430, 670.307 449.397, 671.122 459.364, 671.938 460.371, 672.020 467.848, 665.379 468.285, 664.990 474.091, 656.848 479.897, 648.706 480.124, 648.387 485.930, 640.245 487.996, 637.346 492.910, 630.455 497.339, 624.244 " />
            <path fill="none" stroke-width="3.0" stroke-linecap="butt" stroke-opacity="1.0" stroke="rgb(0, 0, 0)" stroke-linejoin="round" d=" M 480.124, 648.387 474.603, 656.130 468.797, 664.272 468.285, 664.990 " />
            <path fill="none" stroke-width="3.0" stroke-linecap="butt" stroke-opacity="1.0" stroke="rgb(0, 0, 0)" stroke-linejoin="round" d=" M 460.371, 672.020 466.174, 663.876 466.792, 663.008 472.400, 655.135 478.202, 646.990 480.400, 643.905 485.393, 636.896 491.195, 628.751 492.930, 626.315 495.985, 622.027 497.339, 624.244 502.551, 632.778 505.881, 638.230 510.648, 646.035 515.860, 654.569 518.384, 658.701 523.597, 667.235 523.712, 667.424 528.924, 675.959 529.999, 677.718 539.965, 678.533 549.932, 679.349 559.899, 680.164 561.656, 680.308 567.815, 673.018 562.510, 664.541 557.205, 656.064 553.716, 650.488 549.149, 643.190 543.923, 634.840 538.619, 626.363 536.960, 623.713 531.965, 615.731 526.660, 607.254 521.356, 598.777 520.005, 596.619 524.946, 589.870 530.852, 581.800 533.648, 577.980 539.554, 569.911 545.460, 561.842 546.523, 560.390 552.115, 552.750 557.542, 545.335 563.449, 537.265 569.355, 529.196 573.278, 523.836 563.295, 523.255 553.311, 522.674 543.328, 522.092 541.596, 521.992 534.854, 526.493 529.080, 534.657 527.247, 537.249 521.957, 544.730 516.183, 552.894 513.250, 557.042 508.034, 564.417 502.406, 572.375 496.677, 580.476 " />
            <path fill="none" stroke-width="3.0" stroke-linecap="butt" stroke-opacity="1.0" stroke="rgb(0, 0, 0)" stroke-linejoin="round" d=" M 496.677, 580.476 492.881, 574.339 487.621, 565.834 485.705, 562.738 480.771, 554.760 475.511, 546.255 472.636, 541.608 467.600, 533.466 462.340, 524.962 460.578, 522.113 " />
            <path fill="none" stroke-width="3.0" stroke-linecap="butt" stroke-opacity="1.0" stroke="rgb(0, 0, 0)" stroke-linejoin="round" d=" M 468.623, 517.742 460.578, 522.113 450.595, 521.524 440.613, 520.935 430.630, 520.347 429.134, 520.258 " />
            <path fill="none" stroke-width="3.0" stroke-linecap="butt" stroke-opacity="1.0" stroke="rgb(0, 0, 0)" stroke-linejoin="round" d=" M 561.656, 680.308 556.350, 671.832 551.044, 663.355 547.289, 657.355 542.637, 649.919 537.310, 641.414 532.006, 632.937 530.216, 630.076 525.124, 621.946 519.818, 613.469 514.513, 604.993 512.937, 602.475 " />
            <path fill="none" stroke-width="3.0" stroke-linecap="butt" stroke-opacity="1.0" stroke="rgb(0, 0, 0)" stroke-linejoin="round" d=" M 546.523, 560.390 540.617, 568.459 538.949, 570.738 533.648, 577.980 " />
            <path fill="none" stroke-width="3.0" stroke-linecap="butt" stroke-opacity="1.0" stroke="rgb(0, 0, 0)" stroke-linejoin="round" d=" M 520.005, 596.619 512.937, 602.475 517.960, 595.607 523.862, 587.535 526.807, 583.509 532.199, 576.136 538.102, 568.064 539.899, 565.606 545.586, 557.829 551.106, 550.281 557.009, 542.209 562.912, 534.137 567.111, 528.395 " />
            <path fill="none" stroke-width="3.0" stroke-linecap="butt" stroke-opacity="1.0" stroke="rgb(0, 0, 0)" stroke-linejoin="round" d=" M 573.278, 523.836 567.111, 528.395 557.129, 527.806 547.146, 527.217 537.163, 526.629 534.854, 526.493 " />
        </g>
    </g>
</svg>
