<?xml version='1.0' encoding='ascii'?>
<svg xmlns="http://www.w3.org/2000/svg" version="1.1" width="1080" height="1080">
    <g id="ViewLayer_LineSet" xmlns:inkscape="http://www.inkscape.org/namespaces/inkscape" inkscape:groupmode="lineset" inkscape:label="ViewLayer_LineSet">
        <g xmlns:inkscape="http://www.inkscape.org/namespaces/inkscape" inkscape:groupmode="layer" id="strokes" inkscape:label="strokes">
            <path fill="none" stroke-width="3.0" stroke-linecap="butt" stroke-opacity="1.0" stroke="rgb(0, 0, 0)" stroke-linejoin="round" d=" M 578.623, 646.026 575.419, 649.456 565.982, 652.543 558.825, 654.861 548.861, 654.018 541.504, 653.395 534.481, 650.077 525.537, 645.602 524.912, 645.290 518.916, 637.287 517.776, 635.766 512.762, 627.114 510.560, 623.315 508.387, 613.554 507.194, 608.198 507.427, 598.200 507.558, 592.612 510.144, 582.953 511.497, 577.901 517.125, 569.635 519.257, 566.503 523.383, 561.780 " />
            <path fill="none" stroke-width="3.0" stroke-linecap="butt" stroke-opacity="1.0" stroke="rgb(0, 0, 0)" stroke-linejoin="round" d=" M 481.913, 648.509 487.542, 656.774 489.653, 659.875 496.733, 666.938 498.534, 668.735 506.363, 674.957 506.734, 675.252 515.335, 680.353 517.131, 681.419 526.667, 684.431 534.063, 686.768 544.033, 687.543 551.741, 688.143 561.633, 686.678 569.047, 685.580 578.241, 681.645 579.697, 681.022 588.448, 675.978 596.281, 669.761 598.008, 668.391 604.459, 660.749 606.543, 658.280 612.044, 651.175 616.988, 643.095 621.572, 634.207 621.718, 633.924 624.160, 624.227 625.883, 617.384 626.089, 607.386 626.240, 600.037 624.353, 590.217 622.964, 582.987 619.082, 573.771 618.891, 573.316 614.449, 564.380 608.812, 556.121 606.633, 552.928 599.616, 545.803 597.767, 543.925 589.841, 537.829 589.357, 537.456 580.801, 532.279 579.030, 531.207 569.424, 528.426 561.856, 526.234 551.869, 525.711 544.208, 525.310 534.375, 527.127 527.150, 528.463 518.098, 532.713 516.916, 533.269 508.431, 538.582 500.939, 543.476 493.330, 549.964 491.682, 551.369 485.395, 559.145 483.426, 561.582 478.613, 569.927 474.194, 578.897 474.109, 579.069 471.855, 588.812 470.271, 595.660 470.108, 605.658 469.989, 612.948 471.963, 622.751 473.405, 629.910 477.273, 639.132 477.518, 639.717 481.913, 648.509 " />
            <path fill="none" stroke-width="3.0" stroke-linecap="butt" stroke-opacity="1.0" stroke="rgb(0, 0, 0)" stroke-linejoin="round" d=" M 577.518, 647.628 570.691, 654.935 569.240, 656.488 559.733, 659.588 559.632, 659.621 552.346, 661.974 542.383, 661.119 534.708, 660.461 527.555, 657.073 518.616, 652.592 517.810, 652.187 511.814, 644.185 510.536, 642.480 505.521, 633.829 503.180, 629.792 501.000, 620.033 499.740, 614.391 499.965, 604.394 500.097, 598.517 502.675, 588.855 504.095, 583.535 509.718, 575.266 511.986, 571.931 518.563, 564.398 519.713, 563.080 523.383, 561.780 529.757, 559.523 537.035, 557.159 547.016, 557.774 554.604, 558.241 561.738, 561.582 570.716, 565.986 571.842, 566.539 577.862, 574.523 579.245, 576.357 584.334, 584.965 586.817, 589.165 589.010, 598.921 590.344, 604.852 590.068, 614.848 589.900, 620.958 587.122, 630.564 585.556, 635.981 579.876, 644.211 578.623, 646.026 577.518, 647.628 " />
            <path fill="none" stroke-width="3.0" stroke-linecap="butt" stroke-opacity="1.0" stroke="rgb(0, 0, 0)" stroke-linejoin="round" d=" M 606.543, 658.280 611.574, 650.055 616.155, 641.166 616.386, 640.717 618.823, 631.019 620.620, 623.870 620.820, 613.872 620.973, 606.196 619.081, 596.377 617.625, 588.819 613.740, 579.605 613.469, 578.961 609.016, 570.007 608.939, 569.851 603.301, 561.592 600.968, 558.174 593.953, 551.047 591.930, 548.992 584.006, 542.892 583.357, 542.393 574.805, 537.210 572.833, 536.016 563.230, 533.228 555.336, 530.936 545.350, 530.405 537.361, 529.980 527.527, 531.792 519.992, 533.180 510.939, 537.429 509.575, 538.069 501.099, 543.376 500.939, 543.476 " />
            <path fill="none" stroke-width="3.0" stroke-linecap="butt" stroke-opacity="1.0" stroke="rgb(0, 0, 0)" stroke-linejoin="round" d=" M -12.480, 659.646 -2.516, 660.504 2.757, 660.958 12.720, 661.817 14.283, 661.951 23.481, 658.027 30.587, 654.995 30.206, 645.002 29.827, 635.024 29.447, 625.032 29.240, 619.599 28.979, 612.748 " />
            <path fill="none" stroke-width="3.0" stroke-linecap="butt" stroke-opacity="1.0" stroke="rgb(0, 0, 0)" stroke-linejoin="round" d=" M 12.263, 611.445 22.233, 612.222 28.979, 612.748 29.674, 612.802 39.632, 613.714 44.536, 614.163 54.525, 613.710 60.274, 613.449 69.584, 609.799 75.939, 607.308 83.727, 602.543 91.556, 596.322 91.835, 596.100 97.018, 587.486 101.120, 579.508 102.650, 569.626 103.705, 562.820 102.223, 552.930 101.093, 545.382 96.735, 536.382 96.333, 535.551 91.083, 527.040 90.712, 526.438 83.797, 519.214 82.519, 517.879 74.570, 511.811 73.348, 510.878 63.632, 508.510 57.243, 506.952 47.252, 506.536 42.213, 506.325 32.231, 505.722 27.752, 505.452 17.770, 504.849 13.359, 504.582 3.378, 503.979 -1.885, 503.661 " />
            <path fill="none" stroke-width="3.0" stroke-linecap="butt" stroke-opacity="1.0" stroke="rgb(0, 0, 0)" stroke-linejoin="round" d=" M 14.283, 661.951 13.883, 651.959 13.484, 641.967 13.470, 641.619 13.070, 631.627 12.842, 625.914 12.442, 615.922 12.263, 611.445 " />
            <path fill="none" stroke-width="3.0" stroke-linecap="butt" stroke-opacity="1.0" stroke="rgb(0, 0, 0)" stroke-linejoin="round" d=" M 56.803, 582.105 46.833, 581.332 44.912, 581.183 34.938, 580.465 27.731, 579.946 27.351, 569.953 26.971, 559.961 26.871, 557.334 26.491, 547.341 26.274, 541.626 26.098, 537.001 " />
            <path fill="none" stroke-width="3.0" stroke-linecap="butt" stroke-opacity="1.0" stroke="rgb(0, 0, 0)" stroke-linejoin="round" d=" M 11.227, 585.536 10.827, 575.544 10.428, 565.552 10.306, 562.507 9.906, 552.515 9.666, 546.508 9.266, 536.516 9.240, 535.853 19.217, 536.532 26.098, 537.001 26.868, 537.053 36.859, 537.488 44.038, 537.800 52.309, 543.421 56.990, 546.602 58.800, 556.437 60.548, 565.936 58.292, 575.678 56.803, 582.105 56.690, 582.594 48.065, 587.655 47.043, 588.255 " />
            <path fill="none" stroke-width="3.0" stroke-linecap="butt" stroke-opacity="1.0" stroke="rgb(0, 0, 0)" stroke-linejoin="round" d=" M 60.274, 613.449 68.181, 608.605 76.003, 602.375 76.410, 602.051 81.549, 593.473 81.663, 593.284 85.817, 585.161 87.327, 575.276 88.414, 568.165 86.918, 558.277 85.725, 550.398 81.362, 541.400 80.867, 540.379 75.615, 531.868 75.135, 531.090 68.223, 523.862 66.789, 522.363 58.845, 516.289 57.451, 515.224 47.738, 512.845 41.072, 511.212 31.081, 510.787 25.793, 510.562 15.812, 509.950 11.093, 509.661 1.112, 509.050 -3.535, 508.765 " />
            <path fill="none" stroke-width="3.0" stroke-linecap="butt" stroke-opacity="1.0" stroke="rgb(0, 0, 0)" stroke-linejoin="round" d=" M 47.043, 588.255 37.074, 587.471 28.688, 586.812 18.715, 586.083 11.227, 585.536 20.698, 582.328 27.731, 579.946 " />
        </g>
    </g>
</svg>
