<?xml version='1.0' encoding='ascii'?>
<svg xmlns="http://www.w3.org/2000/svg" version="1.1" width="1080" height="1080">
    <g id="ViewLayer_LineSet" xmlns:inkscape="http://www.inkscape.org/namespaces/inkscape" inkscape:groupmode="lineset" inkscape:label="ViewLayer_LineSet">
        <g xmlns:inkscape="http://www.inkscape.org/namespaces/inkscape" inkscape:groupmode="layer" id="strokes" inkscape:label="strokes">
            <path fill="none" stroke-width="3.0" stroke-linecap="butt" stroke-opacity="1.0" stroke="rgb(0, 0, 0)" stroke-linejoin="round" d=" M -8.582, 657.655 1.382, 658.510 11.345, 659.364 17.523, 659.894 26.723, 655.976 33.365, 653.147 32.988, 643.154 32.630, 633.668 32.253, 623.675 32.063, 618.623 31.686, 608.630 31.494, 603.526 31.117, 593.533 30.922, 588.374 30.545, 578.382 30.349, 573.169 29.972, 563.177 29.773, 557.910 29.397, 547.917 29.196, 542.597 28.819, 532.604 28.616, 527.229 28.240, 517.236 27.860, 507.168 17.878, 506.563 7.897, 505.957 1.743, 505.583 -7.969, 507.967 -14.896, 509.668 " />
            <path fill="none" stroke-width="3.0" stroke-linecap="butt" stroke-opacity="1.0" stroke="rgb(0, 0, 0)" stroke-linejoin="round" d=" M 17.523, 659.894 17.127, 649.902 16.738, 640.071 16.342, 630.079 16.131, 624.760 15.736, 614.768 15.523, 609.394 15.127, 599.402 14.912, 593.973 14.516, 583.980 14.299, 578.495 13.903, 568.503 13.684, 562.962 13.288, 552.970 13.066, 547.372 12.671, 537.380 12.447, 531.726 12.051, 521.734 11.655, 511.742 11.638, 511.300 " />
            <path fill="none" stroke-width="3.0" stroke-linecap="butt" stroke-opacity="1.0" stroke="rgb(0, 0, 0)" stroke-linejoin="round" d=" M 27.860, 507.168 18.169, 509.637 11.638, 511.300 1.657, 510.686 -8.324, 510.072 -14.896, 509.668 " />
            <path fill="none" stroke-width="3.0" stroke-linecap="butt" stroke-opacity="1.0" stroke="rgb(0, 0, 0)" stroke-linejoin="round" d=" M 852.050, 634.609 852.458, 634.638 862.432, 635.355 871.854, 636.032 881.819, 636.868 888.737, 637.449 898.730, 637.091 906.840, 636.800 915.778, 632.315 916.402, 632.002 924.813, 626.592 926.511, 625.500 932.733, 617.671 933.442, 616.778 939.047, 608.696 941.744, 599.066 943.791, 591.759 943.099, 581.783 942.562, 574.032 941.647, 568.567 937.530, 559.454 937.210, 558.745 932.046, 550.181 931.717, 549.635 924.679, 542.531 923.230, 541.068 915.109, 535.232 913.466, 534.051 903.701, 531.893 895.469, 530.073 885.477, 529.674 878.363, 529.389 868.379, 528.825 861.933, 528.461 851.949, 527.897 845.581, 527.537 835.596, 526.973 828.260, 526.559 826.995, 531.152 826.447, 541.137 825.899, 551.122 825.852, 551.972 825.305, 561.957 824.977, 567.919 824.430, 577.904 824.106, 583.808 823.558, 593.793 823.237, 599.638 822.689, 609.623 822.372, 615.410 821.824, 625.395 821.509, 631.124 820.962, 641.109 820.650, 646.780 820.103, 656.765 819.795, 662.378 819.247, 672.363 818.699, 682.348 818.687, 682.572 828.655, 683.360 836.004, 683.942 845.973, 684.730 849.104, 684.978 849.944, 677.596 850.528, 667.613 851.109, 657.678 851.694, 647.695 852.010, 642.293 852.458, 634.638 " />
            <path fill="none" stroke-width="3.0" stroke-linecap="butt" stroke-opacity="1.0" stroke="rgb(0, 0, 0)" stroke-linejoin="round" d=" M 849.104, 684.978 849.688, 674.995 850.272, 665.012 850.290, 664.701 850.874, 654.718 851.206, 649.038 851.790, 639.055 852.050, 634.609 " />
            <path fill="none" stroke-width="3.0" stroke-linecap="butt" stroke-opacity="1.0" stroke="rgb(0, 0, 0)" stroke-linejoin="round" d=" M 911.552, 584.283 908.078, 593.660 905.730, 599.999 896.725, 604.347 894.309, 605.513 884.335, 604.800 874.360, 604.086 873.824, 604.047 863.846, 603.382 854.324, 602.746 854.908, 592.763 855.493, 582.780 855.644, 580.194 856.228, 570.211 856.561, 564.528 856.870, 559.248 " />
            <path fill="none" stroke-width="3.0" stroke-linecap="butt" stroke-opacity="1.0" stroke="rgb(0, 0, 0)" stroke-linejoin="round" d=" M 853.561, 608.770 854.145, 598.787 854.728, 588.804 854.904, 585.803 855.487, 575.820 855.837, 569.848 856.421, 559.865 856.458, 559.222 856.870, 559.248 866.850, 559.878 876.527, 560.489 886.519, 560.904 896.119, 561.303 904.563, 566.659 910.040, 570.132 911.102, 580.076 911.552, 584.283 912.101, 589.424 " />
            <path fill="none" stroke-width="3.0" stroke-linecap="butt" stroke-opacity="1.0" stroke="rgb(0, 0, 0)" stroke-linejoin="round" d=" M 942.562, 574.032 938.445, 564.919 938.039, 564.022 932.875, 555.459 932.440, 554.737 925.403, 547.632 923.788, 546.001 915.669, 540.164 913.835, 538.845 904.072, 536.682 895.489, 534.779 885.497, 534.373 878.054, 534.070 868.070, 533.499 861.309, 533.113 851.325, 532.542 844.644, 532.161 834.660, 531.590 826.995, 531.152 " />
            <path fill="none" stroke-width="3.0" stroke-linecap="butt" stroke-opacity="1.0" stroke="rgb(0, 0, 0)" stroke-linejoin="round" d=" M 912.101, 589.424 908.624, 598.800 905.947, 606.020 896.938, 610.358 894.307, 611.625 884.334, 610.903 874.360, 610.180 873.431, 610.113 863.454, 609.439 853.561, 608.770 854.324, 602.746 " />
            <path fill="none" stroke-width="3.0" stroke-linecap="butt" stroke-opacity="1.0" stroke="rgb(0, 0, 0)" stroke-linejoin="round" d=" M 655.624, 576.401 652.110, 570.696 646.865, 562.182 645.094, 559.307 640.270, 551.475 635.024, 542.961 632.316, 538.565 627.392, 530.572 622.147, 522.057 620.526, 519.426 610.542, 518.855 600.559, 518.285 590.575, 517.714 588.904, 517.618 583.158, 521.966 588.472, 530.438 593.785, 538.909 597.793, 545.298 603.108, 553.769 608.124, 561.765 613.438, 570.236 618.751, 578.707 620.277, 581.138 625.590, 589.610 628.542, 594.315 633.253, 601.826 627.227, 609.806 621.200, 617.786 620.001, 619.375 614.495, 626.666 608.469, 634.646 606.848, 636.791 601.132, 644.360 596.152, 650.955 590.125, 658.935 584.099, 666.915 580.865, 671.198 590.833, 671.998 600.801, 672.797 610.769, 673.597 612.496, 673.736 618.485, 665.727 619.234, 664.726 625.120, 656.854 631.109, 648.846 633.517, 645.626 638.757, 638.619 644.746, 630.610 646.668, 628.040 649.875, 623.753 655.071, 632.297 659.731, 639.959 664.479, 647.764 669.675, 656.308 672.184, 660.433 677.380, 668.977 677.490, 669.157 682.686, 677.701 683.751, 679.452 693.719, 680.252 703.687, 681.052 713.655, 681.851 716.149, 682.051 719.449, 674.728 714.158, 666.242 708.866, 657.757 705.396, 652.194 700.845, 644.895 695.635, 636.544 690.344, 628.058 688.695, 625.415 683.717, 617.431 678.425, 608.946 673.133, 600.461 671.938, 598.543 " />
            <path fill="none" stroke-width="3.0" stroke-linecap="butt" stroke-opacity="1.0" stroke="rgb(0, 0, 0)" stroke-linejoin="round" d=" M 667.592, 604.206 671.938, 598.543 672.861, 597.339 678.948, 589.405 682.141, 585.243 687.797, 577.872 693.884, 569.938 695.875, 567.344 701.839, 559.569 707.630, 552.022 713.717, 544.088 719.804, 536.155 724.419, 530.140 727.622, 525.548 717.638, 524.977 707.655, 524.407 697.671, 523.836 695.201, 523.695 691.394, 528.229 685.432, 536.258 683.408, 538.983 677.855, 546.463 671.893, 554.491 668.714, 558.772 663.239, 566.146 657.277, 574.175 655.624, 576.401 651.317, 582.202 647.535, 576.064 642.289, 567.550 640.385, 564.461 635.469, 556.482 630.223, 547.968 627.364, 543.328 622.346, 535.185 617.101, 526.671 615.350, 523.829 " />
            <path fill="none" stroke-width="3.0" stroke-linecap="butt" stroke-opacity="1.0" stroke="rgb(0, 0, 0)" stroke-linejoin="round" d=" M 620.526, 519.426 615.350, 523.829 605.367, 523.251 595.383, 522.674 585.400, 522.096 583.158, 521.966 " />
            <path fill="none" stroke-width="3.0" stroke-linecap="butt" stroke-opacity="1.0" stroke="rgb(0, 0, 0)" stroke-linejoin="round" d=" M 716.149, 682.051 710.857, 673.567 705.564, 665.082 701.830, 659.095 697.193, 651.657 691.884, 643.151 686.593, 634.666 684.813, 631.811 679.739, 623.679 674.447, 615.195 669.154, 606.710 667.592, 604.206 " />
            <path fill="none" stroke-width="3.0" stroke-linecap="butt" stroke-opacity="1.0" stroke="rgb(0, 0, 0)" stroke-linejoin="round" d=" M 724.419, 530.140 714.435, 529.563 704.452, 528.985 694.469, 528.407 691.394, 528.229 " />
        </g>
    </g>
</svg>
