<?xml version='1.0' encoding='ascii'?>
<svg xmlns="http://www.w3.org/2000/svg" version="1.1" width="1080" height="1080">
    <g id="ViewLayer_LineSet" xmlns:inkscape="http://www.inkscape.org/namespaces/inkscape" inkscape:groupmode="lineset" inkscape:label="ViewLayer_LineSet">
        <g xmlns:inkscape="http://www.inkscape.org/namespaces/inkscape" inkscape:groupmode="layer" id="strokes" inkscape:label="strokes">
            <path fill="none" stroke-width="3.0" stroke-linecap="butt" stroke-opacity="1.0" stroke="rgb(0, 0, 0)" stroke-linejoin="round" d=" M 692.846, 648.635 693.244, 638.643 693.444, 633.617 693.842, 623.625 694.045, 618.546 694.443, 608.554 694.648, 603.421 695.046, 593.429 695.253, 588.243 695.651, 578.251 695.860, 573.011 696.258, 563.019 696.469, 557.724 696.867, 547.732 697.080, 542.383 697.478, 532.391 697.878, 522.358 687.894, 521.789 677.911, 521.221 668.904, 520.708 664.701, 525.074 664.341, 535.068 663.981, 545.061 663.970, 545.379 663.610, 555.372 663.409, 560.933 663.049, 570.927 662.851, 576.431 662.491, 586.424 662.295, 591.873 661.935, 601.867 661.741, 607.260 661.381, 617.253 661.188, 622.591 660.828, 632.585 660.638, 637.868 660.278, 647.861 660.090, 653.090 659.730, 663.083 659.380, 672.798 669.349, 673.591 679.317, 674.384 688.348, 675.102 692.071, 668.080 692.469, 658.088 692.846, 648.635 " />
            <path fill="none" stroke-width="3.0" stroke-linecap="butt" stroke-opacity="1.0" stroke="rgb(0, 0, 0)" stroke-linejoin="round" d=" M 688.348, 675.102 688.742, 665.110 689.129, 655.314 689.523, 645.322 689.731, 640.031 690.126, 630.039 690.336, 624.692 690.731, 614.700 690.944, 609.298 691.338, 599.306 691.553, 593.849 691.947, 583.857 692.165, 578.343 692.559, 568.351 692.779, 562.781 693.173, 552.789 693.395, 547.163 693.789, 537.171 694.183, 527.179 694.199, 526.774 " />
            <path fill="none" stroke-width="3.0" stroke-linecap="butt" stroke-opacity="1.0" stroke="rgb(0, 0, 0)" stroke-linejoin="round" d=" M 697.878, 522.358 694.199, 526.774 684.216, 526.199 674.232, 525.624 664.701, 525.074 " />
            <path fill="none" stroke-width="3.0" stroke-linecap="butt" stroke-opacity="1.0" stroke="rgb(0, 0, 0)" stroke-linejoin="round" d=" M 559.276, 593.872 557.138, 589.396 554.829, 584.560 553.058, 580.852 549.732, 573.886 547.504, 569.222 545.710, 565.465 542.317, 558.359 540.171, 553.866 538.353, 550.059 534.893, 542.814 532.830, 538.493 530.988, 534.636 527.461, 527.250 525.480, 523.102 523.614, 519.194 520.277, 512.207 513.834, 511.840 506.384, 511.416 498.952, 510.992 490.795, 510.528 488.170, 511.985 486.154, 513.104 483.469, 514.595 483.353, 522.343 483.238, 530.030 483.122, 537.703 483.008, 545.362 482.893, 553.007 482.778, 560.639 482.664, 568.257 482.550, 575.862 482.436, 583.454 482.323, 591.032 482.209, 598.596 482.096, 606.147 481.983, 613.685 481.870, 621.210 481.757, 628.721 481.645, 636.220 481.533, 643.705 481.421, 651.176 481.308, 658.682 489.463, 659.331 496.893, 659.922 504.341, 660.514 508.782, 660.868 511.271, 658.452 513.139, 656.638 515.572, 654.275 515.713, 646.867 515.853, 639.492 515.994, 632.105 516.134, 624.705 516.276, 617.292 516.417, 609.866 516.558, 602.427 516.700, 594.975 516.842, 587.511 516.984, 580.033 516.987, 579.889 " />
            <path fill="none" stroke-width="3.0" stroke-linecap="butt" stroke-opacity="1.0" stroke="rgb(0, 0, 0)" stroke-linejoin="round" d=" M 510.424, 570.848 510.242, 580.847 510.160, 585.341 510.021, 592.950 509.883, 600.544 509.744, 608.126 509.606, 615.693 509.468, 623.248 509.331, 630.789 509.194, 638.317 509.057, 645.831 508.920, 653.332 508.782, 660.868 " />
            <path fill="none" stroke-width="3.0" stroke-linecap="butt" stroke-opacity="1.0" stroke="rgb(0, 0, 0)" stroke-linejoin="round" d=" M 512.612, 570.835 516.987, 579.889 517.155, 580.237 520.420, 586.995 524.667, 595.783 528.008, 602.696 532.170, 611.311 535.586, 618.379 537.818, 622.998 539.665, 626.821 543.156, 634.044 545.910, 639.746 549.934, 640.051 557.522, 640.627 561.559, 640.934 563.730, 638.622 565.359, 636.886 567.481, 634.626 570.462, 629.433 574.247, 622.842 576.253, 619.347 578.680, 615.120 582.400, 608.640 584.388, 605.178 586.945, 600.724 590.601, 594.356 592.572, 590.924 595.260, 586.242 598.850, 579.988 600.687, 576.788 " />
            <path fill="none" stroke-width="3.0" stroke-linecap="butt" stroke-opacity="1.0" stroke="rgb(0, 0, 0)" stroke-linejoin="round" d=" M 513.456, 516.323 516.855, 523.437 518.756, 527.415 520.775, 531.638 524.367, 539.157 526.244, 543.084 528.346, 547.483 531.870, 554.858 533.724, 558.733 535.909, 563.309 539.365, 570.542 541.193, 574.367 543.462, 579.115 546.850, 586.206 548.654, 589.981 551.007, 594.903 554.517, 602.250 554.805, 601.744 558.423, 595.375 559.276, 593.872 561.066, 590.721 563.060, 587.211 566.787, 580.649 569.328, 576.176 571.363, 572.592 575.202, 565.834 577.638, 561.544 579.717, 557.885 583.667, 550.931 585.998, 546.826 588.120, 543.091 592.183, 535.937 594.408, 532.020 596.573, 528.209 600.476, 521.337 602.431, 519.775 603.898, 518.603 605.808, 517.077 612.226, 517.442 619.916, 517.880 627.624, 518.319 636.123, 518.803 635.869, 526.577 635.617, 534.289 635.365, 541.987 635.114, 549.672 634.863, 557.343 634.613, 565.000 634.363, 572.643 634.114, 580.273 633.865, 587.890 633.616, 595.492 633.368, 603.082 633.121, 610.658 632.873, 618.220 632.627, 625.769 632.380, 633.305 632.135, 640.828 631.889, 648.337 631.644, 655.833 631.398, 663.363 629.679, 665.826 628.359, 667.718 626.600, 670.239 618.103, 669.563 610.397, 668.950 602.709, 668.339 598.139, 667.975 598.359, 660.344 598.578, 652.747 598.797, 645.137 599.016, 637.513 599.236, 629.876 599.456, 622.225 599.677, 614.560 599.898, 606.881 600.119, 599.189 600.341, 591.482 600.629, 581.486 600.764, 576.781 600.768, 576.647 600.891, 572.367 " />
            <path fill="none" stroke-width="3.0" stroke-linecap="butt" stroke-opacity="1.0" stroke="rgb(0, 0, 0)" stroke-linejoin="round" d=" M 520.277, 512.207 517.833, 513.681 515.956, 514.814 513.456, 516.323 506.902, 515.945 499.325, 515.509 491.765, 515.073 483.469, 514.595 " />
            <path fill="none" stroke-width="3.0" stroke-linecap="butt" stroke-opacity="1.0" stroke="rgb(0, 0, 0)" stroke-linejoin="round" d=" M 505.813, 577.419 510.425, 570.848 510.426, 570.848 512.612, 570.835 517.160, 570.807 520.837, 570.784 521.057, 570.783 " />
            <path fill="none" stroke-width="3.0" stroke-linecap="butt" stroke-opacity="1.0" stroke="rgb(0, 0, 0)" stroke-linejoin="round" d=" M 593.435, 585.366 589.786, 591.728 587.054, 596.489 585.052, 599.980 581.336, 606.457 578.739, 610.986 576.718, 614.508 572.937, 621.098 570.471, 625.397 568.433, 628.950 564.588, 635.653 561.559, 640.934 " />
            <path fill="none" stroke-width="3.0" stroke-linecap="butt" stroke-opacity="1.0" stroke="rgb(0, 0, 0)" stroke-linejoin="round" d=" M 631.330, 523.115 631.075, 531.029 630.823, 538.880 630.571, 546.717 630.319, 554.539 630.068, 562.347 629.818, 570.141 629.568, 577.921 629.318, 585.687 629.069, 593.438 628.820, 601.176 628.572, 608.900 628.324, 616.609 628.077, 624.305 627.830, 631.987 627.583, 639.655 627.337, 647.310 627.092, 654.950 626.846, 662.577 626.600, 670.239 " />
            <path fill="none" stroke-width="3.0" stroke-linecap="butt" stroke-opacity="1.0" stroke="rgb(0, 0, 0)" stroke-linejoin="round" d=" M 636.123, 518.803 634.406, 520.348 633.087, 521.534 631.330, 523.115 622.679, 522.617 614.835, 522.165 607.008, 521.714 600.476, 521.337 " />
            <path fill="none" stroke-width="3.0" stroke-linecap="butt" stroke-opacity="1.0" stroke="rgb(0, 0, 0)" stroke-linejoin="round" d=" M 605.407, 576.332 602.443, 573.729 600.891, 572.367 598.219, 577.027 593.435, 585.366 598.212, 577.027 " />
            <path fill="none" stroke-width="3.0" stroke-linecap="butt" stroke-opacity="1.0" stroke="rgb(0, 0, 0)" stroke-linejoin="round" d=" M 600.891, 572.367 598.212, 577.027 " />
            <path fill="none" stroke-width="3.0" stroke-linecap="butt" stroke-opacity="1.0" stroke="rgb(0, 0, 0)" stroke-linejoin="round" d=" M 424.529, 589.850 419.966, 583.507 415.153, 576.819 409.490, 568.949 403.650, 560.832 402.747, 559.577 397.182, 551.841 391.341, 543.724 390.342, 542.336 384.872, 534.734 379.032, 526.616 377.937, 525.094 372.563, 517.626 366.723, 509.509 362.907, 504.206 352.923, 503.636 351.266, 503.542 342.064, 503.016 332.754, 506.667 332.300, 506.845 332.325, 516.845 332.348, 526.145 332.373, 536.145 332.385, 540.932 332.410, 550.932 332.422, 555.669 332.447, 565.669 332.459, 570.356 332.484, 580.356 332.495, 584.993 332.520, 594.993 332.532, 599.579 332.557, 609.579 332.568, 614.117 332.593, 624.117 332.604, 628.604 332.629, 638.604 332.651, 647.366 341.850, 648.098 351.818, 648.892 358.813, 649.449 367.091, 643.839 368.005, 643.219 368.021, 633.219 368.036, 624.696 368.052, 614.696 368.059, 610.393 368.076, 600.393 368.083, 596.042 368.100, 586.042 368.107, 581.643 368.123, 572.100 " />
            <path fill="none" stroke-width="3.0" stroke-linecap="butt" stroke-opacity="1.0" stroke="rgb(0, 0, 0)" stroke-linejoin="round" d=" M 358.813, 649.449 358.819, 639.449 358.824, 630.616 358.830, 620.616 358.833, 616.072 358.839, 606.072 358.841, 601.479 358.847, 591.479 358.850, 586.835 358.855, 576.835 358.861, 566.835 358.866, 559.383 364.751, 567.468 368.123, 572.100 368.842, 573.088 374.728, 581.173 375.644, 582.431 381.395, 590.333 387.280, 598.417 388.286, 599.799 393.949, 607.578 399.834, 615.664 400.928, 617.168 406.505, 624.826 412.390, 632.911 414.967, 636.452 419.645, 642.878 425.530, 650.963 428.465, 654.995 438.434, 655.788 441.396, 656.024 450.908, 656.781 458.625, 650.337 458.748, 640.338 458.856, 631.569 458.979, 621.570 459.035, 617.077 459.158, 607.078 459.214, 602.535 459.337, 592.536 459.394, 587.943 459.517, 577.944 459.574, 573.302 459.697, 563.303 459.755, 558.610 459.878, 548.611 459.936, 543.869 460.060, 533.869 460.119, 529.076 460.242, 519.077 460.354, 509.971 450.840, 509.428 440.856, 508.858 433.434, 508.434 425.168, 512.414 425.086, 522.414 425.008, 531.776 424.926, 541.775 424.885, 546.766 424.802, 556.766 424.762, 561.705 424.679, 571.705 424.639, 576.592 424.556, 586.591 424.529, 589.850 424.516, 591.427 424.434, 601.427 424.391, 606.625 " />
            <path fill="none" stroke-width="3.0" stroke-linecap="butt" stroke-opacity="1.0" stroke="rgb(0, 0, 0)" stroke-linejoin="round" d=" M 424.391, 606.625 419.823, 600.273 413.983, 592.156 411.551, 588.776 406.653, 581.969 400.890, 573.959 395.049, 565.842 394.027, 564.422 388.363, 556.548 382.522, 548.431 381.402, 546.874 375.835, 539.137 369.997, 531.019 368.780, 529.326 363.308, 521.726 357.467, 513.609 353.480, 508.069 " />
            <path fill="none" stroke-width="3.0" stroke-linecap="butt" stroke-opacity="1.0" stroke="rgb(0, 0, 0)" stroke-linejoin="round" d=" M 362.907, 504.206 353.653, 507.998 353.480, 508.069 343.497, 507.492 341.650, 507.385 332.300, 506.845 " />
            <path fill="none" stroke-width="3.0" stroke-linecap="butt" stroke-opacity="1.0" stroke="rgb(0, 0, 0)" stroke-linejoin="round" d=" M 450.908, 656.781 451.022, 646.782 451.125, 637.695 451.240, 627.696 451.294, 622.956 451.408, 612.956 451.463, 608.165 451.577, 598.166 451.632, 593.323 451.746, 583.323 451.802, 578.429 451.916, 568.430 451.973, 563.483 452.087, 553.484 452.144, 548.486 452.258, 538.486 452.316, 533.435 452.430, 523.436 452.538, 513.996 " />
            <path fill="none" stroke-width="3.0" stroke-linecap="butt" stroke-opacity="1.0" stroke="rgb(0, 0, 0)" stroke-linejoin="round" d=" M 460.354, 509.971 452.538, 513.996 442.864, 513.437 432.881, 512.860 425.168, 512.414 " />
            <path fill="none" stroke-width="3.0" stroke-linecap="butt" stroke-opacity="1.0" stroke="rgb(0, 0, 0)" stroke-linejoin="round" d=" M 598.219, 577.027 600.687, 576.788 600.764, 576.781 " />
        </g>
    </g>
</svg>
