<?xml version='1.0' encoding='ascii'?>
<svg xmlns="http://www.w3.org/2000/svg" version="1.1" width="1080" height="1080">
    <g id="ViewLayer_LineSet" xmlns:inkscape="http://www.inkscape.org/namespaces/inkscape" inkscape:groupmode="lineset" inkscape:label="ViewLayer_LineSet">
        <g xmlns:inkscape="http://www.inkscape.org/namespaces/inkscape" inkscape:groupmode="layer" id="strokes" inkscape:label="strokes">
            <path fill="none" stroke-width="3.0" stroke-linecap="butt" stroke-opacity="1.0" stroke="rgb(0, 0, 0)" stroke-linejoin="round" d=" M 692.846, 648.635 693.244, 638.643 693.444, 633.617 693.842, 623.625 694.045, 618.546 694.443, 608.554 694.648, 603.421 695.046, 593.429 695.253, 588.243 695.651, 578.251 695.860, 573.011 696.258, 563.019 696.469, 557.724 696.867, 547.732 697.080, 542.383 697.478, 532.391 697.878, 522.358 687.894, 521.789 677.911, 521.221 668.904, 520.708 664.701, 525.074 664.341, 535.068 663.981, 545.061 663.970, 545.379 663.610, 555.372 663.409, 560.933 663.049, 570.927 662.851, 576.431 662.491, 586.424 662.295, 591.873 661.935, 601.867 661.741, 607.260 661.381, 617.253 661.188, 622.591 660.828, 632.585 660.638, 637.868 660.278, 647.861 660.090, 653.090 659.730, 663.083 659.380, 672.798 669.349, 673.591 679.317, 674.384 688.348, 675.102 692.071, 668.080 692.469, 658.088 692.846, 648.635 " />
            <path fill="none" stroke-width="3.0" stroke-linecap="butt" stroke-opacity="1.0" stroke="rgb(0, 0, 0)" stroke-linejoin="round" d=" M 688.348, 675.102 688.742, 665.110 689.129, 655.314 689.523, 645.322 689.731, 640.031 690.126, 630.039 690.336, 624.692 690.731, 614.700 690.944, 609.298 691.338, 599.306 691.553, 593.849 691.947, 583.857 692.165, 578.343 692.559, 568.351 692.779, 562.781 693.173, 552.789 693.395, 547.163 693.789, 537.171 694.183, 527.179 694.199, 526.774 " />
            <path fill="none" stroke-width="3.0" stroke-linecap="butt" stroke-opacity="1.0" stroke="rgb(0, 0, 0)" stroke-linejoin="round" d=" M 697.878, 522.358 694.199, 526.774 684.216, 526.199 674.232, 525.624 664.701, 525.074 " />
            <path fill="none" stroke-width="3.0" stroke-linecap="butt" stroke-opacity="1.0" stroke="rgb(0, 0, 0)" stroke-linejoin="round" d=" M 526.611, 592.514 524.767, 588.661 522.451, 583.826 520.676, 580.118 517.342, 573.152 515.108, 568.488 513.309, 564.730 509.908, 557.625 507.757, 553.131 505.934, 549.324 502.465, 542.079 500.397, 537.758 498.550, 533.900 495.015, 526.515 493.028, 522.366 491.158, 518.458 487.812, 511.471 481.400, 511.104 473.987, 510.681 466.591, 510.259 458.474, 509.795 455.639, 511.248 453.462, 512.363 450.562, 513.849 450.475, 521.598 450.389, 529.285 450.303, 536.958 450.218, 544.618 450.132, 552.264 450.047, 559.897 449.961, 567.516 449.876, 575.121 449.791, 582.713 449.707, 590.292 449.622, 597.857 449.537, 605.409 449.453, 612.948 449.369, 620.473 449.285, 627.985 449.201, 635.484 449.117, 642.970 449.034, 650.442 448.950, 657.949 457.065, 658.596 464.458, 659.187 471.869, 659.778 476.289, 660.131 478.987, 657.720 481.013, 655.909 483.651, 653.552 483.764, 646.142 483.876, 638.767 483.989, 631.379 484.102, 623.979 484.215, 616.565 484.329, 609.138 484.442, 601.699 484.556, 594.247 484.670, 586.781 484.767, 580.421 " />
            <path fill="none" stroke-width="3.0" stroke-linecap="butt" stroke-opacity="1.0" stroke="rgb(0, 0, 0)" stroke-linejoin="round" d=" M 477.586, 570.104 477.442, 580.103 477.377, 584.598 477.268, 592.207 477.158, 599.802 477.049, 607.384 476.940, 614.953 476.831, 622.508 476.722, 630.049 476.614, 637.578 476.506, 645.093 476.398, 652.595 476.289, 660.131 " />
            <path fill="none" stroke-width="3.0" stroke-linecap="butt" stroke-opacity="1.0" stroke="rgb(0, 0, 0)" stroke-linejoin="round" d=" M 479.762, 570.090 484.122, 579.090 484.317, 579.492 484.767, 580.421 487.591, 586.250 491.848, 595.039 495.198, 601.952 499.370, 610.567 502.794, 617.636 505.032, 622.255 506.883, 626.078 510.383, 633.301 513.145, 639.003 517.148, 639.308 524.699, 639.883 528.716, 640.189 531.101, 637.882 532.891, 636.150 535.222, 633.895 538.169, 628.701 541.911, 622.108 543.893, 618.613 546.292, 614.386 549.970, 607.905 554.463, 599.987 558.077, 593.618 560.025, 590.186 562.682, 585.504 566.231, 579.248 567.451, 577.099 " />
            <path fill="none" stroke-width="3.0" stroke-linecap="butt" stroke-opacity="1.0" stroke="rgb(0, 0, 0)" stroke-linejoin="round" d=" M 480.399, 515.574 483.807, 522.687 485.713, 526.666 487.737, 530.889 491.338, 538.408 493.220, 542.336 495.327, 546.734 498.861, 554.110 500.720, 557.985 502.910, 562.560 506.375, 569.794 508.208, 573.619 510.483, 578.367 513.880, 585.459 515.688, 589.233 518.047, 594.156 521.567, 601.503 521.851, 600.997 525.426, 594.627 526.611, 592.514 528.038, 589.972 530.009, 586.461 533.692, 579.898 536.203, 575.425 538.214, 571.840 542.007, 565.082 544.415, 560.791 546.469, 557.131 550.373, 550.176 552.677, 546.070 554.773, 542.335 558.789, 535.180 560.988, 531.262 563.126, 527.451 566.984, 520.578 569.161, 519.021 570.796, 517.852 572.923, 516.331 579.310, 516.696 586.963, 517.133 594.632, 517.571 603.089, 518.054 602.865, 525.829 602.643, 533.541 602.420, 541.240 602.199, 548.925 601.977, 556.597 601.756, 564.255 601.536, 571.899 601.316, 579.530 601.096, 587.147 600.876, 594.750 600.657, 602.340 600.439, 609.917 600.220, 617.480 600.003, 625.030 599.785, 632.566 599.568, 640.089 599.351, 647.599 599.135, 655.096 598.918, 662.627 596.987, 665.085 595.503, 666.973 593.527, 669.489 585.072, 668.814 577.404, 668.202 569.754, 667.591 565.206, 667.228 565.396, 659.597 565.586, 651.999 565.775, 644.389 565.965, 636.764 566.155, 629.126 566.346, 621.474 566.536, 613.808 566.728, 606.129 566.919, 598.436 567.111, 590.729 567.360, 580.732 567.451, 577.099 567.477, 576.026 567.587, 571.612 " />
            <path fill="none" stroke-width="3.0" stroke-linecap="butt" stroke-opacity="1.0" stroke="rgb(0, 0, 0)" stroke-linejoin="round" d=" M 487.812, 511.471 485.156, 512.940 483.116, 514.069 480.399, 515.574 473.877, 515.197 466.338, 514.761 458.817, 514.326 450.562, 513.849 " />
            <path fill="none" stroke-width="3.0" stroke-linecap="butt" stroke-opacity="1.0" stroke="rgb(0, 0, 0)" stroke-linejoin="round" d=" M 473.023, 576.676 477.586, 570.104 477.586, 570.104 479.762, 570.090 484.925, 570.057 488.163, 570.037 " />
            <path fill="none" stroke-width="3.0" stroke-linecap="butt" stroke-opacity="1.0" stroke="rgb(0, 0, 0)" stroke-linejoin="round" d=" M 549.970, 607.905 551.935, 604.443 554.463, 599.987 " />
            <path fill="none" stroke-width="3.0" stroke-linecap="butt" stroke-opacity="1.0" stroke="rgb(0, 0, 0)" stroke-linejoin="round" d=" M 560.219, 584.613 556.613, 590.976 553.913, 595.738 551.933, 599.229 548.261, 605.707 545.694, 610.237 543.697, 613.760 539.961, 620.351 537.524, 624.650 535.510, 628.204 531.709, 634.907 528.716, 640.189 " />
            <path fill="none" stroke-width="3.0" stroke-linecap="butt" stroke-opacity="1.0" stroke="rgb(0, 0, 0)" stroke-linejoin="round" d=" M 597.683, 522.352 597.460, 530.267 597.238, 538.119 597.016, 545.956 596.795, 553.779 596.575, 561.588 596.355, 569.382 596.135, 577.163 595.916, 584.929 595.697, 592.682 595.478, 600.420 595.260, 608.144 595.042, 615.855 594.825, 623.551 594.608, 631.234 594.391, 638.903 594.175, 646.558 593.959, 654.199 593.744, 661.827 593.527, 669.489 " />
            <path fill="none" stroke-width="3.0" stroke-linecap="butt" stroke-opacity="1.0" stroke="rgb(0, 0, 0)" stroke-linejoin="round" d=" M 603.089, 518.054 601.153, 519.594 599.665, 520.776 597.683, 522.352 589.076, 521.855 581.271, 521.404 573.484, 520.954 566.984, 520.578 " />
            <path fill="none" stroke-width="3.0" stroke-linecap="butt" stroke-opacity="1.0" stroke="rgb(0, 0, 0)" stroke-linejoin="round" d=" M 572.094, 575.576 569.573, 573.359 567.587, 571.612 564.946, 576.272 560.219, 584.613 564.940, 576.273 " />
            <path fill="none" stroke-width="3.0" stroke-linecap="butt" stroke-opacity="1.0" stroke="rgb(0, 0, 0)" stroke-linejoin="round" d=" M 567.587, 571.612 564.940, 576.273 " />
            <path fill="none" stroke-width="3.0" stroke-linecap="butt" stroke-opacity="1.0" stroke="rgb(0, 0, 0)" stroke-linejoin="round" d=" M 331.951, 585.292 329.186, 581.449 324.374, 574.761 318.712, 566.891 312.872, 558.773 311.969, 557.519 306.404, 549.783 300.564, 541.666 299.565, 540.278 294.096, 532.675 288.256, 524.558 287.162, 523.036 281.788, 515.568 275.947, 507.451 272.132, 502.148 262.149, 501.574 260.655, 501.487 251.582, 500.965 242.097, 504.131 240.219, 504.757 240.350, 514.756 240.473, 524.062 240.604, 534.061 240.667, 538.853 240.798, 548.852 240.861, 553.594 240.992, 563.593 241.054, 568.284 241.185, 578.283 241.246, 582.924 241.378, 592.923 241.438, 597.514 241.570, 607.513 241.629, 612.055 241.761, 622.054 241.820, 626.546 241.951, 636.545 242.066, 645.312 251.135, 646.042 261.103, 646.843 267.860, 647.387 276.525, 642.395 278.612, 641.193 278.524, 631.193 278.449, 622.665 278.360, 612.666 278.322, 608.359 278.234, 598.359 278.195, 594.004 278.107, 584.005 278.068, 579.602 278.005, 572.491 " />
            <path fill="none" stroke-width="3.0" stroke-linecap="butt" stroke-opacity="1.0" stroke="rgb(0, 0, 0)" stroke-linejoin="round" d=" M 267.860, 647.387 267.759, 637.387 267.670, 628.549 267.568, 618.549 267.522, 614.002 267.421, 604.002 267.375, 599.405 267.274, 589.405 267.227, 584.758 267.126, 574.759 267.024, 564.759 266.949, 557.299 272.833, 565.384 276.923, 571.004 278.005, 572.491 283.723, 580.347 289.473, 588.249 295.357, 596.334 296.362, 597.715 302.023, 605.494 307.907, 613.580 309.001, 615.084 314.576, 622.742 320.460, 630.828 323.036, 634.368 327.713, 640.794 333.597, 648.879 336.531, 652.910 346.499, 653.712 349.279, 653.936 358.657, 654.690 366.898, 649.026 367.980, 648.282 367.996, 638.282 368.011, 629.510 368.028, 619.510 368.035, 615.014 368.052, 605.014 368.059, 600.468 368.076, 590.468 368.083, 585.873 368.100, 575.873 368.107, 571.228 368.124, 561.228 368.132, 556.533 368.148, 546.533 368.156, 541.788 368.173, 531.788 368.181, 526.992 368.197, 516.992 368.212, 507.882 358.832, 507.342 348.848, 506.767 341.671, 506.353 332.379, 510.050 331.759, 510.297 331.785, 520.297 331.809, 529.663 331.835, 539.663 331.847, 544.657 331.873, 554.657 331.886, 559.599 331.911, 569.599 331.924, 574.490 331.949, 584.490 331.951, 585.292 331.962, 589.328 331.987, 599.328 332.001, 604.530 " />
            <path fill="none" stroke-width="3.0" stroke-linecap="butt" stroke-opacity="1.0" stroke="rgb(0, 0, 0)" stroke-linejoin="round" d=" M 332.001, 604.530 327.433, 598.179 321.593, 590.061 319.161, 586.681 314.264, 579.875 308.501, 571.865 302.661, 563.747 301.639, 562.327 295.975, 554.453 290.135, 546.336 289.015, 544.780 283.449, 537.043 277.611, 528.924 276.394, 527.232 270.923, 519.632 265.082, 511.515 261.096, 505.974 " />
            <path fill="none" stroke-width="3.0" stroke-linecap="butt" stroke-opacity="1.0" stroke="rgb(0, 0, 0)" stroke-linejoin="round" d=" M 272.132, 502.148 262.684, 505.424 261.096, 505.974 251.113, 505.392 249.435, 505.294 240.219, 504.757 " />
            <path fill="none" stroke-width="3.0" stroke-linecap="butt" stroke-opacity="1.0" stroke="rgb(0, 0, 0)" stroke-linejoin="round" d=" M 358.657, 654.690 358.663, 644.690 358.668, 635.599 358.673, 625.599 358.676, 620.856 358.681, 610.856 358.684, 606.061 358.690, 596.061 358.693, 591.216 358.698, 581.216 358.701, 576.318 358.706, 566.318 358.709, 561.369 358.715, 551.369 358.718, 546.367 358.723, 536.367 358.726, 531.313 358.732, 521.313 358.737, 511.870 " />
            <path fill="none" stroke-width="3.0" stroke-linecap="butt" stroke-opacity="1.0" stroke="rgb(0, 0, 0)" stroke-linejoin="round" d=" M 368.212, 507.882 358.995, 511.761 358.737, 511.870 349.202, 511.314 339.219, 510.732 331.759, 510.297 " />
            <path fill="none" stroke-width="3.0" stroke-linecap="butt" stroke-opacity="1.0" stroke="rgb(0, 0, 0)" stroke-linejoin="round" d=" M 564.946, 576.272 567.477, 576.026 " />
        </g>
    </g>
</svg>
