<?xml version='1.0' encoding='ascii'?>
<svg xmlns="http://www.w3.org/2000/svg" version="1.1" width="1080" height="1080">
    <g id="ViewLayer_LineSet" xmlns:inkscape="http://www.inkscape.org/namespaces/inkscape" inkscape:groupmode="lineset" inkscape:label="ViewLayer_LineSet">
        <g xmlns:inkscape="http://www.inkscape.org/namespaces/inkscape" inkscape:groupmode="layer" id="strokes" inkscape:label="strokes">
            <path fill="none" stroke-width="3.0" stroke-linecap="butt" stroke-opacity="1.0" stroke="rgb(0, 0, 0)" stroke-linejoin="round" d=" M 736.563, 637.487 730.699, 645.588 729.902, 646.688 722.925, 653.852 721.436, 655.382 711.903, 658.403 711.729, 658.458 704.368, 660.768 694.402, 659.934 686.669, 659.286 679.539, 655.964 670.571, 651.538 669.828, 651.171 663.828, 643.171 662.684, 641.647 657.690, 632.983 655.508, 629.198 653.440, 619.414 652.314, 614.087 652.718, 604.096 652.944, 598.513 655.737, 588.911 657.218, 583.815 663.030, 575.677 663.126, 575.542 " />
            <path fill="none" stroke-width="3.0" stroke-linecap="butt" stroke-opacity="1.0" stroke="rgb(0, 0, 0)" stroke-linejoin="round" d=" M 628.828, 654.471 634.452, 662.740 636.559, 665.837 643.661, 672.877 645.500, 674.700 653.358, 680.885 653.783, 681.220 662.412, 686.274 664.322, 687.393 673.871, 690.362 681.563, 692.754 691.534, 693.522 699.636, 694.145 709.535, 692.727 717.395, 691.600 726.635, 687.776 728.374, 687.056 737.112, 682.194 737.418, 682.024 745.364, 675.954 747.332, 674.451 753.948, 666.953 756.240, 664.356 761.529, 656.141 766.315, 647.361 766.613, 646.814 769.063, 639.904 771.710, 630.261 773.599, 623.379 773.976, 613.386 774.252, 606.044 772.479, 596.203 771.182, 589.002 767.353, 579.764 767.175, 579.334 762.779, 570.400 757.145, 562.138 754.971, 558.949 747.933, 551.845 746.049, 549.943 738.094, 543.884 737.551, 543.471 728.968, 538.339 727.089, 537.216 717.472, 534.475 709.599, 532.231 699.613, 531.710 691.558, 531.290 681.715, 533.052 674.053, 534.425 664.948, 538.561 663.502, 539.218 654.945, 544.391 654.733, 544.519 647.001, 550.861 645.295, 552.260 640.471, 557.407 634.014, 565.043 631.846, 567.606 626.779, 575.940 622.153, 584.806 622.014, 585.072 619.553, 594.764 617.805, 601.647 617.468, 611.642 617.223, 618.923 619.084, 628.748 620.433, 635.877 624.247, 645.122 624.477, 645.681 628.828, 654.471 " />
            <path fill="none" stroke-width="3.0" stroke-linecap="butt" stroke-opacity="1.0" stroke="rgb(0, 0, 0)" stroke-linejoin="round" d=" M 735.133, 642.051 729.267, 650.150 726.708, 653.683 719.728, 660.843 718.085, 662.529 708.549, 665.539 708.196, 665.651 700.698, 667.995 690.734, 667.150 682.669, 666.466 675.404, 663.074 666.440, 658.641 665.511, 658.182 659.511, 650.182 658.230, 648.474 653.234, 639.811 650.914, 635.788 648.842, 626.005 647.653, 620.395 648.053, 610.402 648.287, 604.531 651.076, 594.928 652.633, 589.563 658.444, 581.425 660.908, 577.975 663.126, 575.542 668.967, 569.137 678.427, 565.895 679.309, 565.592 686.799, 563.237 696.780, 563.847 704.764, 564.335 712.011, 567.680 721.013, 572.036 722.269, 572.644 728.294, 580.625 729.682, 582.463 734.753, 591.081 737.217, 595.269 739.303, 605.049 740.561, 610.948 740.110, 620.938 739.835, 627.043 736.845, 636.586 736.563, 637.487 735.133, 642.051 " />
            <path fill="none" stroke-width="3.0" stroke-linecap="butt" stroke-opacity="1.0" stroke="rgb(0, 0, 0)" stroke-linejoin="round" d=" M 766.613, 646.814 769.259, 637.171 771.231, 629.983 771.605, 619.990 771.892, 612.321 770.117, 602.480 768.759, 594.953 764.928, 585.716 764.671, 585.097 760.254, 576.125 760.188, 575.990 754.554, 567.727 752.226, 564.313 745.189, 557.208 743.130, 555.129 735.177, 549.067 734.466, 548.525 725.885, 543.390 723.801, 542.143 714.186, 539.395 705.976, 537.049 695.990, 536.521 687.592, 536.077 677.747, 537.833 669.758, 539.258 660.651, 543.390 659.012, 544.134 650.452, 549.304 650.081, 549.528 642.348, 555.869 640.471, 557.407 " />
            <path fill="none" stroke-width="3.0" stroke-linecap="butt" stroke-opacity="1.0" stroke="rgb(0, 0, 0)" stroke-linejoin="round" d=" M 506.045, 631.485 513.151, 632.019 523.123, 632.768 524.863, 632.899 534.824, 633.774 540.913, 634.309 550.906, 633.925 558.042, 633.651 566.922, 628.847 575.124, 623.127 576.256, 622.337 582.256, 616.003 588.073, 607.870 588.389, 607.429 593.311, 599.483 595.538, 589.734 597.112, 582.845 596.091, 572.897 595.326, 565.440 591.107, 556.374 590.756, 555.617 585.556, 547.075 585.210, 546.507 578.223, 539.353 576.844, 537.941 568.794, 532.009 567.324, 530.926 557.580, 528.679 550.107, 526.955 540.115, 526.539 533.856, 526.279 523.874, 525.690 518.238, 525.358 508.255, 524.769 502.693, 524.442 492.710, 523.853 486.227, 523.471 478.420, 528.005 478.276, 538.004 478.131, 548.003 478.119, 548.832 477.975, 558.831 477.889, 564.786 477.745, 574.785 477.660, 580.680 477.515, 590.679 477.431, 596.516 477.287, 606.515 477.203, 612.294 477.059, 622.293 476.976, 628.013 476.832, 638.012 476.750, 643.675 476.606, 653.674 476.525, 659.279 476.381, 669.278 476.236, 679.277 476.233, 679.480 486.199, 680.305 492.694, 680.842 502.660, 681.667 505.145, 681.873 512.160, 674.746 512.356, 674.548 512.543, 664.549 512.728, 654.623 512.915, 644.625 513.016, 639.233 513.151, 632.019 " />
            <path fill="none" stroke-width="3.0" stroke-linecap="butt" stroke-opacity="1.0" stroke="rgb(0, 0, 0)" stroke-linejoin="round" d=" M 505.145, 681.873 505.324, 671.874 505.502, 661.876 505.507, 661.588 505.686, 651.590 505.787, 645.920 505.966, 635.921 506.045, 631.485 " />
            <path fill="none" stroke-width="3.0" stroke-linecap="butt" stroke-opacity="1.0" stroke="rgb(0, 0, 0)" stroke-linejoin="round" d=" M 557.033, 599.695 551.785, 602.421 541.812, 601.675 532.300, 600.964 522.324, 600.269 513.755, 599.671 513.942, 589.673 514.129, 579.675 514.177, 577.111 514.364, 567.113 514.470, 561.439 514.561, 556.544 " />
            <path fill="none" stroke-width="3.0" stroke-linecap="butt" stroke-opacity="1.0" stroke="rgb(0, 0, 0)" stroke-linejoin="round" d=" M 506.506, 605.636 506.685, 595.638 506.863, 585.640 506.916, 582.662 507.095, 572.663 507.201, 566.700 507.380, 556.701 507.391, 556.070 514.561, 556.544 524.539, 557.202 526.455, 557.329 536.445, 557.761 545.049, 558.133 553.422, 563.599 558.570, 566.959 559.945, 576.864 561.248, 586.257 558.255, 595.798 557.033, 599.695 556.040, 602.860 " />
            <path fill="none" stroke-width="3.0" stroke-linecap="butt" stroke-opacity="1.0" stroke="rgb(0, 0, 0)" stroke-linejoin="round" d=" M 576.256, 622.337 582.072, 614.202 582.496, 613.610 587.503, 605.522 589.724, 595.772 591.362, 588.577 590.336, 578.630 589.532, 570.845 585.311, 561.779 584.871, 560.833 579.670, 552.292 579.217, 551.548 572.232, 544.392 570.691, 542.813 562.643, 536.878 560.991, 535.660 551.249, 533.405 543.456, 531.601 533.465, 531.178 526.909, 530.900 516.927, 530.304 511.007, 529.950 501.025, 529.354 495.181, 529.005 485.199, 528.409 478.420, 528.005 " />
            <path fill="none" stroke-width="3.0" stroke-linecap="butt" stroke-opacity="1.0" stroke="rgb(0, 0, 0)" stroke-linejoin="round" d=" M 556.040, 602.860 547.164, 607.466 545.222, 608.473 535.250, 607.718 525.384, 606.971 515.409, 606.266 506.506, 605.636 513.755, 599.671 " />
            <path fill="none" stroke-width="3.0" stroke-linecap="butt" stroke-opacity="1.0" stroke="rgb(0, 0, 0)" stroke-linejoin="round" d=" M 62.544, 550.818 57.989, 543.530 53.095, 535.699 47.795, 527.219 45.027, 522.789 40.032, 514.797 34.733, 506.317 33.068, 503.652 23.086, 503.053 13.104, 502.453 4.220, 501.919 -5.499, 504.272 -12.517, 505.971 -7.154, 514.411 -1.792, 522.852 2.305, 529.300 7.668, 537.740 12.767, 545.764 18.129, 554.205 23.492, 562.645 25.074, 565.136 30.437, 573.576 33.445, 578.311 38.216, 585.821 32.970, 594.334 27.725, 602.848 27.367, 603.428 22.861, 610.743 17.615, 619.257 16.601, 620.902 11.922, 628.497 7.845, 635.114 2.599, 643.628 -2.646, 652.141 -4.669, 655.424 5.295, 656.275 15.258, 657.125 24.179, 657.886 33.376, 653.961 40.043, 651.115 45.265, 642.586 50.239, 634.461 55.460, 625.932 57.019, 623.386 60.700, 617.373 " />
            <path fill="none" stroke-width="3.0" stroke-linecap="butt" stroke-opacity="1.0" stroke="rgb(0, 0, 0)" stroke-linejoin="round" d=" M 50.239, 634.461 45.482, 642.228 40.262, 650.757 40.043, 651.115 " />
            <path fill="none" stroke-width="3.0" stroke-linecap="butt" stroke-opacity="1.0" stroke="rgb(0, 0, 0)" stroke-linejoin="round" d=" M 24.179, 657.886 29.383, 649.348 29.689, 648.846 34.502, 640.949 39.707, 632.410 41.368, 629.684 45.654, 622.653 50.858, 614.114 52.123, 612.039 54.745, 607.737 60.002, 616.244 60.700, 617.373 64.760, 623.942 69.583, 631.747 74.840, 640.254 77.412, 644.415 82.669, 652.921 82.803, 653.139 88.061, 661.645 89.165, 663.433 99.129, 664.283 109.093, 665.134 118.712, 665.955 127.695, 661.560 133.068, 658.931 127.726, 650.477 122.385, 642.024 118.831, 636.400 114.220, 629.102 108.943, 620.752 103.601, 612.298 101.912, 609.624 96.868, 601.641 91.526, 593.187 86.185, 584.733 84.792, 582.529 89.056, 575.758 94.384, 567.296 96.565, 563.832 101.894, 555.370 107.222, 546.908 107.676, 546.187 112.502, 538.523 117.186, 531.086 122.515, 522.624 127.843, 514.162 130.766, 509.521 120.784, 508.921 110.802, 508.322 101.190, 507.744 91.558, 510.432 86.035, 511.973 80.860, 520.530 79.510, 522.762 74.972, 530.266 69.797, 538.823 67.503, 542.616 63.030, 550.014 62.544, 550.818 57.369, 559.375 53.288, 566.123 " />
            <path fill="none" stroke-width="3.0" stroke-linecap="butt" stroke-opacity="1.0" stroke="rgb(0, 0, 0)" stroke-linejoin="round" d=" M 53.288, 566.123 49.451, 559.986 44.149, 551.507 42.197, 548.384 37.209, 540.405 31.907, 531.926 28.985, 527.253 23.894, 519.110 18.593, 510.631 16.795, 507.756 " />
            <path fill="none" stroke-width="3.0" stroke-linecap="butt" stroke-opacity="1.0" stroke="rgb(0, 0, 0)" stroke-linejoin="round" d=" M 33.068, 503.652 23.371, 506.098 16.795, 507.756 6.814, 507.148 -3.168, 506.540 -12.517, 505.971 " />
            <path fill="none" stroke-width="3.0" stroke-linecap="butt" stroke-opacity="1.0" stroke="rgb(0, 0, 0)" stroke-linejoin="round" d=" M 118.712, 665.955 113.369, 657.502 108.026, 649.049 104.202, 643.001 99.506, 635.564 94.124, 627.059 88.783, 618.604 86.962, 615.720 81.817, 607.589 76.474, 599.137 71.131, 590.684 69.509, 588.118 " />
            <path fill="none" stroke-width="3.0" stroke-linecap="butt" stroke-opacity="1.0" stroke="rgb(0, 0, 0)" stroke-linejoin="round" d=" M 107.676, 546.187 102.346, 554.648 101.138, 556.567 96.565, 563.832 " />
            <path fill="none" stroke-width="3.0" stroke-linecap="butt" stroke-opacity="1.0" stroke="rgb(0, 0, 0)" stroke-linejoin="round" d=" M 84.792, 582.529 75.400, 585.964 69.509, 588.118 73.829, 581.228 79.141, 572.756 81.438, 569.091 86.076, 561.696 91.388, 553.223 92.699, 551.132 97.590, 543.331 102.338, 535.759 107.650, 527.287 112.963, 518.815 116.104, 513.804 " />
            <path fill="none" stroke-width="3.0" stroke-linecap="butt" stroke-opacity="1.0" stroke="rgb(0, 0, 0)" stroke-linejoin="round" d=" M 130.766, 509.521 121.167, 512.325 116.104, 513.804 106.123, 513.196 96.141, 512.588 86.035, 511.973 " />
        </g>
    </g>
</svg>
