<?xml version='1.0' encoding='ascii'?>
<svg xmlns="http://www.w3.org/2000/svg" version="1.1" width="1080" height="1080">
    <g id="ViewLayer_LineSet" xmlns:inkscape="http://www.inkscape.org/namespaces/inkscape" inkscape:groupmode="lineset" inkscape:label="ViewLayer_LineSet">
        <g xmlns:inkscape="http://www.inkscape.org/namespaces/inkscape" inkscape:groupmode="layer" id="strokes" inkscape:label="strokes">
            <path fill="none" stroke-width="3.0" stroke-linecap="butt" stroke-opacity="1.0" stroke="rgb(0, 0, 0)" stroke-linejoin="round" d=" M 738.535, 637.408 732.669, 645.507 731.801, 646.706 724.822, 653.868 723.330, 655.399 713.797, 658.419 713.620, 658.475 706.256, 660.785 696.291, 659.951 688.553, 659.303 681.421, 655.981 672.453, 651.556 671.708, 651.188 665.708, 643.188 664.564, 641.664 659.570, 633.000 657.389, 629.215 655.322, 619.431 654.197, 614.104 654.604, 604.113 654.831, 598.530 657.626, 588.928 659.109, 583.832 664.878, 575.759 " />
            <path fill="none" stroke-width="3.0" stroke-linecap="butt" stroke-opacity="1.0" stroke="rgb(0, 0, 0)" stroke-linejoin="round" d=" M 630.734, 654.488 636.358, 662.757 638.465, 665.854 645.567, 672.894 647.407, 674.717 655.265, 680.901 655.692, 681.237 664.321, 686.291 666.232, 687.410 675.781, 690.379 683.477, 692.772 693.448, 693.539 701.555, 694.163 711.454, 692.745 719.320, 691.618 728.560, 687.795 730.303, 687.073 739.043, 682.213 739.351, 682.042 747.299, 675.973 749.269, 674.469 755.888, 666.972 758.182, 664.374 763.474, 656.159 768.263, 647.380 768.562, 646.832 770.975, 639.921 773.625, 630.279 775.516, 623.396 775.895, 613.403 776.173, 606.062 774.401, 596.220 773.106, 589.019 769.277, 579.781 769.099, 579.351 764.703, 570.418 759.070, 562.155 756.896, 558.966 749.857, 551.862 747.973, 549.961 740.018, 543.902 739.474, 543.488 730.890, 538.357 729.010, 537.233 719.393, 534.493 711.516, 532.248 701.530, 531.727 693.470, 531.307 683.627, 533.069 675.959, 534.442 666.854, 538.577 665.405, 539.235 656.846, 544.407 656.631, 544.536 648.898, 550.876 647.189, 552.277 642.402, 557.425 635.942, 565.059 633.772, 567.623 628.701, 575.957 624.073, 584.822 623.933, 585.089 621.469, 594.781 619.719, 601.665 619.380, 611.659 619.134, 618.940 620.993, 628.766 622.341, 635.894 626.154, 645.139 626.384, 645.699 630.734, 654.488 " />
            <path fill="none" stroke-width="3.0" stroke-linecap="butt" stroke-opacity="1.0" stroke="rgb(0, 0, 0)" stroke-linejoin="round" d=" M 737.074, 642.069 731.206, 650.166 728.644, 653.700 721.662, 660.859 720.016, 662.546 710.480, 665.556 710.124, 665.668 702.623, 668.012 692.659, 667.168 684.589, 666.483 677.323, 663.091 668.358, 658.659 667.428, 658.199 661.427, 650.199 660.146, 648.492 655.151, 639.829 652.831, 635.805 650.760, 626.022 649.573, 620.412 649.974, 610.420 650.210, 604.549 653.001, 594.946 654.561, 589.581 660.374, 581.444 662.840, 577.992 664.878, 575.759 670.904, 569.155 680.364, 565.914 681.249, 565.610 688.742, 563.254 698.723, 563.865 706.713, 564.353 713.961, 567.698 722.963, 572.053 724.221, 572.661 730.246, 580.643 731.634, 582.480 736.705, 591.099 739.168, 595.286 741.253, 605.067 742.510, 610.966 742.057, 620.956 741.780, 627.061 738.788, 636.603 738.535, 637.408 737.074, 642.069 " />
            <path fill="none" stroke-width="3.0" stroke-linecap="butt" stroke-opacity="1.0" stroke="rgb(0, 0, 0)" stroke-linejoin="round" d=" M 768.562, 646.832 771.211, 637.189 773.186, 630.001 773.562, 620.008 773.850, 612.339 772.076, 602.498 770.720, 594.971 766.889, 585.733 766.633, 585.115 762.217, 576.143 762.150, 576.007 756.517, 567.745 754.189, 564.331 747.152, 557.226 745.092, 555.146 737.138, 549.085 736.427, 548.543 727.846, 543.409 725.760, 542.161 716.145, 539.414 707.931, 537.067 697.945, 536.539 689.542, 536.095 679.697, 537.850 671.701, 539.276 662.594, 543.406 660.951, 544.151 652.390, 549.320 652.016, 549.546 644.281, 555.884 642.402, 557.425 " />
            <path fill="none" stroke-width="3.0" stroke-linecap="butt" stroke-opacity="1.0" stroke="rgb(0, 0, 0)" stroke-linejoin="round" d=" M 506.045, 631.485 513.151, 632.019 523.123, 632.768 524.863, 632.899 534.824, 633.774 540.913, 634.309 550.906, 633.925 558.042, 633.651 566.922, 628.847 575.124, 623.127 576.256, 622.337 582.256, 616.003 588.073, 607.870 588.389, 607.429 593.311, 599.483 595.538, 589.734 597.112, 582.845 596.091, 572.897 595.326, 565.440 591.107, 556.374 590.756, 555.617 585.556, 547.075 585.210, 546.507 578.223, 539.353 576.844, 537.941 568.794, 532.009 567.324, 530.926 557.580, 528.679 550.107, 526.955 540.115, 526.539 533.856, 526.279 523.874, 525.690 518.238, 525.358 508.255, 524.769 502.693, 524.442 492.710, 523.853 486.227, 523.471 478.420, 528.005 478.276, 538.004 478.131, 548.003 478.119, 548.832 477.975, 558.831 477.889, 564.786 477.745, 574.785 477.660, 580.680 477.515, 590.679 477.431, 596.516 477.287, 606.515 477.203, 612.294 477.059, 622.293 476.976, 628.013 476.832, 638.012 476.750, 643.675 476.606, 653.674 476.525, 659.279 476.381, 669.278 476.236, 679.277 476.233, 679.480 486.199, 680.305 492.694, 680.842 502.660, 681.667 505.145, 681.873 512.160, 674.746 512.356, 674.548 512.543, 664.549 512.728, 654.623 512.915, 644.625 513.016, 639.233 513.151, 632.019 " />
            <path fill="none" stroke-width="3.0" stroke-linecap="butt" stroke-opacity="1.0" stroke="rgb(0, 0, 0)" stroke-linejoin="round" d=" M 505.145, 681.873 505.324, 671.874 505.502, 661.876 505.507, 661.588 505.686, 651.590 505.787, 645.920 505.966, 635.921 506.045, 631.485 " />
            <path fill="none" stroke-width="3.0" stroke-linecap="butt" stroke-opacity="1.0" stroke="rgb(0, 0, 0)" stroke-linejoin="round" d=" M 557.033, 599.695 551.785, 602.421 541.812, 601.675 532.300, 600.964 522.324, 600.269 513.755, 599.671 513.942, 589.673 514.129, 579.675 514.177, 577.111 514.364, 567.113 514.470, 561.439 514.561, 556.544 " />
            <path fill="none" stroke-width="3.0" stroke-linecap="butt" stroke-opacity="1.0" stroke="rgb(0, 0, 0)" stroke-linejoin="round" d=" M 506.506, 605.636 506.685, 595.638 506.863, 585.640 506.916, 582.662 507.095, 572.663 507.201, 566.700 507.380, 556.701 507.391, 556.070 514.561, 556.544 524.539, 557.202 526.455, 557.329 536.445, 557.761 545.049, 558.133 553.422, 563.599 558.570, 566.959 559.945, 576.864 561.248, 586.257 558.255, 595.798 557.033, 599.695 556.040, 602.860 " />
            <path fill="none" stroke-width="3.0" stroke-linecap="butt" stroke-opacity="1.0" stroke="rgb(0, 0, 0)" stroke-linejoin="round" d=" M 576.256, 622.337 582.072, 614.202 582.496, 613.610 587.503, 605.522 589.724, 595.772 591.362, 588.577 590.336, 578.630 589.532, 570.845 585.311, 561.779 584.871, 560.833 579.670, 552.292 579.217, 551.548 572.232, 544.392 570.691, 542.813 562.643, 536.878 560.991, 535.660 551.249, 533.405 543.456, 531.601 533.465, 531.178 526.909, 530.900 516.927, 530.304 511.007, 529.950 501.025, 529.354 495.181, 529.005 485.199, 528.409 478.420, 528.005 " />
            <path fill="none" stroke-width="3.0" stroke-linecap="butt" stroke-opacity="1.0" stroke="rgb(0, 0, 0)" stroke-linejoin="round" d=" M 556.040, 602.860 547.164, 607.466 545.222, 608.473 535.250, 607.718 525.384, 606.971 515.409, 606.266 506.506, 605.636 513.755, 599.671 " />
            <path fill="none" stroke-width="3.0" stroke-linecap="butt" stroke-opacity="1.0" stroke="rgb(0, 0, 0)" stroke-linejoin="round" d=" M 360.855, 568.000 360.167, 566.893 354.895, 558.396 353.102, 555.507 348.244, 547.678 342.972, 539.181 340.235, 534.770 335.277, 526.780 330.004, 518.282 328.363, 515.637 318.381, 515.047 308.398, 514.456 298.126, 513.848 288.782, 517.411 286.915, 518.123 292.253, 526.579 297.592, 535.035 301.641, 541.448 306.979, 549.904 312.035, 557.910 317.373, 566.366 322.711, 574.822 324.262, 577.278 329.601, 585.734 332.579, 590.451 337.319, 597.960 331.659, 606.204 325.999, 614.448 325.264, 615.518 320.256, 622.813 314.596, 631.057 313.301, 632.944 308.101, 640.517 303.571, 647.116 297.911, 655.360 292.251, 663.604 289.666, 667.370 299.631, 668.200 309.597, 669.030 319.562, 669.860 319.907, 669.889 328.225, 664.337 330.380, 662.898 336.009, 654.632 341.689, 646.290 347.317, 638.024 349.209, 635.245 353.902, 628.352 356.630, 624.345 " />
            <path fill="none" stroke-width="3.0" stroke-linecap="butt" stroke-opacity="1.0" stroke="rgb(0, 0, 0)" stroke-linejoin="round" d=" M 341.689, 646.290 336.414, 654.035 330.787, 662.302 330.380, 662.898 " />
            <path fill="none" stroke-width="3.0" stroke-linecap="butt" stroke-opacity="1.0" stroke="rgb(0, 0, 0)" stroke-linejoin="round" d=" M 319.907, 669.889 325.528, 661.618 326.034, 660.874 331.385, 652.998 337.006, 644.727 339.019, 641.764 343.784, 634.753 349.404, 626.481 350.976, 624.168 353.891, 619.879 356.630, 624.345 361.857, 632.870 363.825, 636.080 368.609, 643.883 373.836, 652.409 376.375, 656.548 381.602, 665.074 381.722, 665.271 386.949, 673.796 388.033, 675.563 397.998, 676.393 407.964, 677.223 417.929, 678.053 419.007, 678.142 426.725, 671.783 427.805, 670.893 422.488, 662.424 417.171, 653.954 413.663, 648.366 409.083, 641.069 403.841, 632.720 398.524, 624.251 396.856, 621.594 391.846, 613.613 386.529, 605.144 381.212, 596.674 379.850, 594.504 384.572, 587.752 390.303, 579.557 392.889, 575.859 398.620, 567.664 404.351, 559.469 405.195, 558.262 410.539, 550.620 415.727, 543.202 421.458, 535.007 427.189, 526.812 430.766, 521.697 420.784, 521.106 410.801, 520.515 400.819, 519.925 399.766, 519.862 390.723, 524.130 390.316, 524.322 384.724, 532.612 383.058, 535.082 378.011, 542.565 372.419, 550.855 369.703, 554.881 364.727, 562.259 360.855, 568.000 355.262, 576.291 353.891, 578.323 " />
            <path fill="none" stroke-width="3.0" stroke-linecap="butt" stroke-opacity="1.0" stroke="rgb(0, 0, 0)" stroke-linejoin="round" d=" M 353.891, 578.323 350.083, 572.187 344.809, 563.691 342.882, 560.587 337.931, 552.610 332.657, 544.114 329.768, 539.460 324.715, 531.319 319.442, 522.823 317.669, 519.967 " />
            <path fill="none" stroke-width="3.0" stroke-linecap="butt" stroke-opacity="1.0" stroke="rgb(0, 0, 0)" stroke-linejoin="round" d=" M 328.363, 515.637 319.094, 519.390 317.669, 519.967 307.687, 519.369 297.705, 518.770 287.723, 518.172 286.915, 518.123 " />
            <path fill="none" stroke-width="3.0" stroke-linecap="butt" stroke-opacity="1.0" stroke="rgb(0, 0, 0)" stroke-linejoin="round" d=" M 419.007, 678.142 413.689, 669.674 408.371, 661.205 404.595, 655.192 399.930, 647.757 394.585, 639.253 389.269, 630.783 387.470, 627.917 382.362, 619.787 377.044, 611.318 371.726, 602.850 370.137, 600.319 " />
            <path fill="none" stroke-width="3.0" stroke-linecap="butt" stroke-opacity="1.0" stroke="rgb(0, 0, 0)" stroke-linejoin="round" d=" M 405.195, 558.262 399.464, 566.457 397.955, 568.614 392.889, 575.859 " />
            <path fill="none" stroke-width="3.0" stroke-linecap="butt" stroke-opacity="1.0" stroke="rgb(0, 0, 0)" stroke-linejoin="round" d=" M 379.850, 594.504 371.270, 599.641 370.137, 600.319 374.933, 593.449 380.657, 585.249 383.381, 581.346 388.529, 573.971 394.253, 565.771 395.882, 563.437 401.311, 555.658 406.583, 548.107 412.306, 539.907 418.030, 531.707 421.865, 526.213 " />
            <path fill="none" stroke-width="3.0" stroke-linecap="butt" stroke-opacity="1.0" stroke="rgb(0, 0, 0)" stroke-linejoin="round" d=" M 430.766, 521.697 421.865, 526.213 411.883, 525.615 401.901, 525.017 391.919, 524.418 390.316, 524.322 " />
        </g>
    </g>
</svg>
