<?xml version='1.0' encoding='ascii'?>
<svg xmlns="http://www.w3.org/2000/svg" version="1.1" width="1080" height="1080">
    <g id="ViewLayer_LineSet" xmlns:inkscape="http://www.inkscape.org/namespaces/inkscape" inkscape:groupmode="lineset" inkscape:label="ViewLayer_LineSet">
        <g xmlns:inkscape="http://www.inkscape.org/namespaces/inkscape" inkscape:groupmode="layer" id="strokes" inkscape:label="strokes">
            <path fill="none" stroke-width="3.0" stroke-linecap="butt" stroke-opacity="1.0" stroke="rgb(0, 0, 0)" stroke-linejoin="round" d=" M 906.705, 610.014 906.061, 619.993 905.931, 622.006 902.718, 631.476 900.932, 636.740 894.879, 644.700 892.246, 648.163 885.117, 655.175 883.411, 656.853 873.851, 659.790 873.404, 659.927 865.817, 662.235 855.850, 661.418 847.700, 660.749 840.451, 657.426 831.456, 653.056 830.582, 652.632 824.577, 644.635 823.430, 643.107 818.458, 634.431 816.297, 630.659 814.348, 620.851 813.294, 615.550 813.888, 605.568 814.136, 601.402 " />
            <path fill="none" stroke-width="3.0" stroke-linecap="butt" stroke-opacity="1.0" stroke="rgb(0, 0, 0)" stroke-linejoin="round" d=" M 791.799, 655.952 797.418, 664.224 799.520, 667.318 806.648, 674.332 808.528, 676.181 816.419, 682.324 816.904, 682.702 825.565, 687.701 827.600, 688.876 837.165, 691.794 845.185, 694.241 855.157, 694.992 863.696, 695.636 873.600, 694.258 881.957, 693.096 891.240, 689.379 893.300, 688.554 902.111, 683.825 902.668, 683.526 910.728, 677.606 912.976, 675.956 919.761, 668.610 922.297, 665.865 927.872, 657.652 932.874, 648.993 933.258, 648.328 936.130, 638.750 938.304, 631.501 938.870, 621.517 939.305, 613.842 938.441, 607.536 936.796, 597.672 935.600, 590.496 931.831, 581.233 931.666, 580.828 927.320, 571.895 921.691, 563.630 919.522, 560.444 912.459, 553.364 910.538, 551.438 902.550, 545.422 901.942, 544.964 893.328, 539.886 891.329, 538.708 881.699, 536.015 873.490, 533.720 863.503, 533.209 855.013, 532.775 845.161, 534.488 837.011, 535.905 827.856, 539.928 826.110, 540.695 817.471, 545.733 817.025, 545.994 809.172, 552.185 807.211, 553.731 800.582, 561.218 798.345, 563.745 793.092, 571.928 788.250, 580.678 788.130, 580.895 786.084, 586.562 783.398, 596.195 781.463, 603.134 780.935, 613.120 780.549, 620.407 782.282, 630.256 783.531, 637.359 787.283, 646.628 787.499, 647.162 791.799, 655.952 " />
            <path fill="none" stroke-width="3.0" stroke-linecap="butt" stroke-opacity="1.0" stroke="rgb(0, 0, 0)" stroke-linejoin="round" d=" M 907.196, 612.462 906.551, 622.441 906.156, 628.554 902.939, 638.023 901.059, 643.559 895.000, 651.515 892.204, 655.186 885.068, 662.192 883.197, 664.029 873.635, 666.953 872.998, 667.148 865.265, 669.490 855.299, 668.663 846.801, 667.957 839.412, 664.564 830.420, 660.189 829.355, 659.671 823.350, 651.674 822.065, 649.963 817.093, 641.287 814.795, 637.277 812.844, 627.469 811.733, 621.885 812.325, 611.903 812.674, 606.025 814.136, 601.402 817.151, 591.867 817.406, 591.060 823.411, 583.064 826.105, 579.476 833.008, 572.240 834.533, 570.642 844.024, 567.492 845.205, 567.100 852.930, 564.746 862.913, 565.344 871.337, 565.849 878.708, 569.195 887.737, 573.493 889.138, 574.160 895.168, 582.137 896.560, 583.979 901.611, 592.610 904.054, 596.784 906.019, 606.589 906.705, 610.014 907.196, 612.462 " />
            <path fill="none" stroke-width="3.0" stroke-linecap="butt" stroke-opacity="1.0" stroke="rgb(0, 0, 0)" stroke-linejoin="round" d=" M 939.305, 613.842 937.661, 603.979 936.410, 596.476 932.640, 587.214 932.399, 586.621 928.023, 577.629 927.967, 577.514 922.339, 569.248 920.016, 565.837 912.954, 558.757 910.855, 556.652 902.868, 550.634 902.090, 550.048 893.477, 544.967 891.269, 543.664 881.640, 540.966 873.080, 538.567 863.094, 538.050 854.243, 537.591 844.389, 539.297 835.893, 540.767 826.735, 544.783 824.781, 545.640 816.140, 550.672 815.522, 551.031 807.666, 557.218 805.522, 558.907 798.890, 566.392 796.489, 569.102 791.138, 577.433 786.295, 586.182 786.084, 586.562 " />
            <path fill="none" stroke-width="3.0" stroke-linecap="butt" stroke-opacity="1.0" stroke="rgb(0, 0, 0)" stroke-linejoin="round" d=" M 563.113, 632.000 569.112, 632.448 579.085, 633.191 582.094, 633.416 592.056, 634.284 598.282, 634.827 608.274, 634.447 615.571, 634.170 624.392, 629.459 624.564, 629.367 632.803, 623.700 634.026, 622.859 638.936, 616.515 644.822, 608.431 645.179, 607.941 650.196, 599.997 652.501, 590.266 654.137, 583.360 653.170, 573.407 652.446, 565.956 648.245, 556.882 647.898, 556.133 642.705, 547.588 642.361, 547.023 635.366, 539.877 633.976, 538.457 625.913, 532.541 624.415, 531.442 614.668, 529.210 607.069, 527.470 597.078, 527.056 590.678, 526.792 580.695, 526.207 574.926, 525.870 564.943, 525.286 559.247, 524.952 549.264, 524.368 542.641, 523.980 535.913, 528.524 535.702, 538.522 535.491, 548.519 535.473, 549.350 535.262, 559.348 535.136, 565.303 534.925, 575.300 534.801, 581.196 534.590, 591.194 534.467, 597.031 534.256, 607.029 534.134, 612.808 533.923, 622.806 533.802, 628.526 533.591, 638.524 533.472, 644.187 533.261, 654.185 533.142, 659.790 532.931, 669.788 532.720, 679.786 532.716, 679.990 542.683, 680.809 549.318, 681.354 559.284, 682.172 561.876, 682.385 568.036, 675.051 568.289, 665.054 568.539, 655.127 568.792, 645.130 568.928, 639.738 569.112, 632.448 " />
            <path fill="none" stroke-width="3.0" stroke-linecap="butt" stroke-opacity="1.0" stroke="rgb(0, 0, 0)" stroke-linejoin="round" d=" M 561.876, 682.385 562.122, 672.388 562.367, 662.391 562.374, 662.102 562.620, 652.105 562.759, 646.434 563.004, 636.437 563.113, 632.000 " />
            <path fill="none" stroke-width="3.0" stroke-linecap="butt" stroke-opacity="1.0" stroke="rgb(0, 0, 0)" stroke-linejoin="round" d=" M 615.014, 599.476 608.279, 602.931 598.307, 602.191 588.629, 601.473 578.653, 600.782 569.927, 600.179 570.180, 590.182 570.432, 580.185 570.497, 577.620 570.750, 567.623 570.893, 561.949 571.018, 556.987 " />
            <path fill="none" stroke-width="3.0" stroke-linecap="butt" stroke-opacity="1.0" stroke="rgb(0, 0, 0)" stroke-linejoin="round" d=" M 563.748, 606.153 563.993, 596.156 564.239, 586.159 564.312, 583.180 564.557, 573.183 564.704, 567.219 564.949, 557.222 564.965, 556.590 571.018, 556.987 580.997, 557.641 584.194, 557.850 594.185, 558.279 602.953, 558.656 611.339, 564.104 616.540, 567.482 617.863, 577.395 619.116, 586.779 616.042, 596.295 615.014, 599.476 613.752, 603.382 " />
            <path fill="none" stroke-width="3.0" stroke-linecap="butt" stroke-opacity="1.0" stroke="rgb(0, 0, 0)" stroke-linejoin="round" d=" M 634.026, 622.859 639.912, 614.775 640.379, 614.133 645.485, 606.046 647.786, 596.314 649.490, 589.102 648.519, 579.149 647.759, 571.371 643.556, 562.297 643.121, 561.359 637.927, 552.815 637.476, 552.074 630.482, 544.926 628.930, 543.339 620.870, 537.420 619.188, 536.185 609.442, 533.946 601.519, 532.125 591.528, 531.705 584.826, 531.423 574.843, 530.831 568.784, 530.472 558.802, 529.880 552.820, 529.526 542.838, 528.934 535.913, 528.524 " />
            <path fill="none" stroke-width="3.0" stroke-linecap="butt" stroke-opacity="1.0" stroke="rgb(0, 0, 0)" stroke-linejoin="round" d=" M 613.752, 603.382 604.852, 607.941 602.798, 608.993 592.827, 608.244 582.789, 607.489 572.814, 606.789 563.748, 606.153 569.927, 600.179 " />
            <path fill="none" stroke-width="3.0" stroke-linecap="butt" stroke-opacity="1.0" stroke="rgb(0, 0, 0)" stroke-linejoin="round" d=" M 396.911, 569.537 395.858, 567.839 390.589, 559.340 388.799, 556.453 383.946, 548.624 378.676, 540.125 375.943, 535.716 370.989, 527.726 365.720, 519.226 364.082, 516.583 354.099, 515.994 344.116, 515.405 334.134, 514.816 333.676, 514.789 324.414, 518.561 323.133, 519.083 328.468, 527.540 333.804, 535.998 337.847, 542.408 343.183, 550.865 348.233, 558.870 353.569, 567.327 358.904, 575.785 360.452, 578.238 365.787, 586.696 368.762, 591.411 373.498, 598.920 367.791, 607.131 362.084, 615.343 361.297, 616.475 356.229, 623.768 350.522, 631.979 349.189, 633.897 343.926, 641.469 339.341, 648.066 333.634, 656.278 327.927, 664.489 325.267, 668.316 335.233, 669.143 345.199, 669.970 355.164, 670.797 355.678, 670.839 363.818, 665.031 365.499, 663.831 371.174, 655.597 376.942, 647.226 382.617, 638.992 384.552, 636.184 389.301, 629.292 392.453, 624.719 " />
            <path fill="none" stroke-width="3.0" stroke-linecap="butt" stroke-opacity="1.0" stroke="rgb(0, 0, 0)" stroke-linejoin="round" d=" M 376.942, 647.226 371.605, 654.970 365.931, 663.205 365.499, 663.831 " />
            <path fill="none" stroke-width="3.0" stroke-linecap="butt" stroke-opacity="1.0" stroke="rgb(0, 0, 0)" stroke-linejoin="round" d=" M 355.678, 670.839 361.346, 662.601 361.879, 661.826 367.296, 653.952 372.964, 645.713 375.023, 642.720 379.845, 635.710 385.513, 627.471 387.126, 625.128 390.076, 620.839 392.453, 624.719 397.676, 633.246 400.000, 637.041 404.780, 644.844 410.003, 653.371 412.538, 657.509 417.761, 666.036 417.880, 666.231 423.104, 674.759 424.185, 676.523 434.150, 677.350 444.116, 678.177 454.082, 679.004 455.332, 679.108 462.786, 672.442 463.458, 671.841 458.144, 663.369 452.831, 654.898 449.327, 649.313 444.751, 642.016 439.513, 633.667 434.199, 625.196 432.534, 622.541 427.528, 614.560 422.214, 606.089 416.900, 597.617 415.541, 595.451 420.319, 588.700 426.095, 580.537 428.733, 576.809 434.510, 568.647 440.287, 560.484 441.184, 559.216 446.591, 551.575 451.840, 544.159 457.617, 535.996 463.393, 527.834 467.056, 522.658 457.074, 522.069 447.091, 521.480 437.108, 520.891 435.883, 520.819 427.123, 525.297 421.483, 533.555 419.776, 536.055 414.667, 543.536 409.027, 551.794 406.258, 555.850 401.221, 563.226 396.911, 569.537 391.272, 577.795 390.253, 579.288 " />
            <path fill="none" stroke-width="3.0" stroke-linecap="butt" stroke-opacity="1.0" stroke="rgb(0, 0, 0)" stroke-linejoin="round" d=" M 390.253, 579.288 386.447, 573.151 381.177, 564.653 379.253, 561.551 374.306, 553.574 369.036, 545.076 366.151, 540.424 361.102, 532.283 355.832, 523.785 354.062, 520.931 " />
            <path fill="none" stroke-width="3.0" stroke-linecap="butt" stroke-opacity="1.0" stroke="rgb(0, 0, 0)" stroke-linejoin="round" d=" M 364.082, 516.583 354.908, 520.564 354.062, 520.931 344.080, 520.334 334.098, 519.738 324.116, 519.141 323.133, 519.083 " />
            <path fill="none" stroke-width="3.0" stroke-linecap="butt" stroke-opacity="1.0" stroke="rgb(0, 0, 0)" stroke-linejoin="round" d=" M 455.332, 679.108 450.017, 670.637 444.702, 662.166 440.932, 656.158 436.270, 648.722 430.930, 640.218 425.617, 631.746 423.821, 628.882 418.717, 620.752 413.402, 612.281 408.087, 603.811 406.502, 601.284 " />
            <path fill="none" stroke-width="3.0" stroke-linecap="butt" stroke-opacity="1.0" stroke="rgb(0, 0, 0)" stroke-linejoin="round" d=" M 441.184, 559.216 435.407, 567.378 433.859, 569.565 428.733, 576.809 " />
            <path fill="none" stroke-width="3.0" stroke-linecap="butt" stroke-opacity="1.0" stroke="rgb(0, 0, 0)" stroke-linejoin="round" d=" M 415.541, 595.451 407.139, 600.873 406.502, 601.284 411.355, 594.415 417.126, 586.248 419.904, 582.315 425.115, 574.941 430.885, 566.774 432.556, 564.409 438.051, 556.631 443.385, 549.083 449.156, 540.915 454.926, 532.748 458.851, 527.193 " />
            <path fill="none" stroke-width="3.0" stroke-linecap="butt" stroke-opacity="1.0" stroke="rgb(0, 0, 0)" stroke-linejoin="round" d=" M 467.056, 522.658 458.851, 527.193 448.869, 526.596 438.887, 526.000 428.905, 525.404 427.123, 525.297 " />
        </g>
    </g>
</svg>
