<?xml version='1.0' encoding='ascii'?>
<svg xmlns="http://www.w3.org/2000/svg" version="1.1" width="1080" height="1080">
    <g id="ViewLayer_LineSet" xmlns:inkscape="http://www.inkscape.org/namespaces/inkscape" inkscape:groupmode="lineset" inkscape:label="ViewLayer_LineSet">
        <g xmlns:inkscape="http://www.inkscape.org/namespaces/inkscape" inkscape:groupmode="layer" id="strokes" inkscape:label="strokes">
            <path fill="none" stroke-width="3.0" stroke-linecap="butt" stroke-opacity="1.0" stroke="rgb(0, 0, 0)" stroke-linejoin="round" d=" M 1081.161, 566.315 1075.432, 574.494 1070.236, 583.038 1069.982, 583.456 1066.919, 592.975 1064.748, 599.723 1063.890, 609.686 1063.288, 616.678 1064.795, 626.564 1065.825, 633.317 1069.468, 642.629 1069.589, 642.938 1073.724, 651.564 1077.153, 658.545 1082.763, 666.823 1084.856, 669.911 " />
            <path fill="none" stroke-width="3.0" stroke-linecap="butt" stroke-opacity="1.0" stroke="rgb(0, 0, 0)" stroke-linejoin="round" d=" M 1084.769, 571.721 1079.023, 579.906 1078.923, 580.048 1073.718, 588.587 1073.361, 589.173 1070.291, 598.690 1068.018, 605.738 1067.156, 615.701 1066.524, 623.006 1068.030, 632.892 1069.105, 639.954 1072.748, 649.267 1072.939, 649.756 1077.153, 658.545 " />
            <path fill="none" stroke-width="3.0" stroke-linecap="butt" stroke-opacity="1.0" stroke="rgb(0, 0, 0)" stroke-linejoin="round" d=" M 830.714, 634.416 831.534, 634.475 841.508, 635.194 850.457, 635.838 860.422, 636.677 867.289, 637.256 877.282, 636.896 885.332, 636.606 894.261, 632.105 894.852, 631.807 903.250, 626.379 904.913, 625.305 911.111, 617.457 911.801, 616.583 917.369, 608.500 920.038, 598.863 922.059, 591.563 921.346, 581.588 920.792, 573.836 920.291, 568.374 916.168, 559.264 915.846, 558.552 910.680, 549.990 910.350, 549.443 903.315, 542.335 901.871, 540.875 893.754, 535.034 892.121, 533.859 882.358, 531.695 874.172, 529.881 864.180, 529.480 857.120, 529.197 847.136, 528.632 840.740, 528.270 830.756, 527.704 824.437, 527.346 814.453, 526.781 807.169, 526.369 805.500, 530.958 804.977, 540.944 804.454, 550.930 804.410, 551.778 803.887, 561.764 803.575, 567.726 803.051, 577.712 802.742, 583.615 802.219, 593.602 801.913, 599.446 801.390, 609.432 801.087, 615.218 800.564, 625.204 800.264, 630.932 799.741, 640.918 799.444, 646.588 798.921, 656.574 798.627, 662.187 798.104, 672.173 797.581, 682.160 797.570, 682.381 807.538, 683.172 814.835, 683.751 824.803, 684.541 827.895, 684.787 829.127, 677.408 829.686, 667.423 830.243, 657.490 830.803, 647.505 831.106, 642.105 831.534, 634.475 " />
            <path fill="none" stroke-width="3.0" stroke-linecap="butt" stroke-opacity="1.0" stroke="rgb(0, 0, 0)" stroke-linejoin="round" d=" M 827.895, 684.787 828.453, 674.802 829.012, 664.818 829.029, 664.509 829.588, 654.525 829.906, 648.846 830.465, 638.862 830.714, 634.416 " />
            <path fill="none" stroke-width="3.0" stroke-linecap="butt" stroke-opacity="1.0" stroke="rgb(0, 0, 0)" stroke-linejoin="round" d=" M 890.003, 584.975 886.558, 594.363 884.560, 599.808 875.562, 604.171 873.188, 605.323 863.214, 604.607 853.239, 603.891 852.764, 603.857 842.787, 603.190 833.323, 602.557 833.883, 592.572 834.443, 582.588 834.588, 580.004 835.148, 570.020 835.466, 564.337 835.761, 559.080 " />
            <path fill="none" stroke-width="3.0" stroke-linecap="butt" stroke-opacity="1.0" stroke="rgb(0, 0, 0)" stroke-linejoin="round" d=" M 832.160, 608.577 832.719, 598.592 833.278, 588.608 833.445, 585.610 834.004, 575.625 834.339, 569.653 834.897, 559.669 834.933, 559.028 835.761, 559.080 845.741, 559.712 854.940, 560.295 864.932, 560.710 874.470, 561.107 882.911, 566.470 888.367, 569.937 889.449, 579.878 890.003, 584.975 890.466, 589.229 " />
            <path fill="none" stroke-width="3.0" stroke-linecap="butt" stroke-opacity="1.0" stroke="rgb(0, 0, 0)" stroke-linejoin="round" d=" M 920.792, 573.836 916.669, 564.726 916.261, 563.826 911.095, 555.263 910.659, 554.540 903.625, 547.432 902.015, 545.805 893.900, 539.962 892.077, 538.649 882.315, 536.480 873.781, 534.584 863.789, 534.176 856.401, 533.875 846.417, 533.302 839.708, 532.918 829.724, 532.346 823.095, 531.966 813.111, 531.394 805.500, 530.958 " />
            <path fill="none" stroke-width="3.0" stroke-linecap="butt" stroke-opacity="1.0" stroke="rgb(0, 0, 0)" stroke-linejoin="round" d=" M 890.466, 589.229 887.018, 598.616 884.371, 605.825 875.368, 610.179 872.781, 611.431 862.808, 610.706 852.834, 609.982 851.969, 609.919 841.992, 609.243 832.160, 608.577 833.323, 602.557 " />
            <path fill="none" stroke-width="3.0" stroke-linecap="butt" stroke-opacity="1.0" stroke="rgb(0, 0, 0)" stroke-linejoin="round" d=" M 634.196, 575.844 630.877, 570.460 625.630, 561.947 623.858, 559.071 619.031, 551.239 613.784, 542.726 611.073, 538.329 606.146, 530.336 600.900, 521.823 599.277, 519.190 589.294, 518.618 579.310, 518.046 569.327, 517.474 567.756, 517.384 561.612, 521.727 566.928, 530.198 572.243, 538.668 576.254, 545.058 581.570, 553.528 586.589, 561.525 591.905, 569.995 597.221, 578.465 598.748, 580.898 604.063, 589.368 607.017, 594.075 611.730, 601.585 605.729, 609.585 599.728, 617.584 598.565, 619.134 593.095, 626.425 587.094, 634.425 585.499, 636.551 579.820, 644.121 574.873, 650.716 568.872, 658.715 562.871, 666.714 559.686, 670.959 569.654, 671.761 579.622, 672.563 589.590, 673.365 591.216, 673.496 596.745, 666.437 602.709, 658.410 603.327, 657.579 609.078, 649.837 615.042, 641.810 617.279, 638.798 622.398, 631.908 628.361, 623.881 628.478, 623.725 " />
            <path fill="none" stroke-width="3.0" stroke-linecap="butt" stroke-opacity="1.0" stroke="rgb(0, 0, 0)" stroke-linejoin="round" d=" M 591.216, 673.496 597.179, 665.468 597.910, 664.485 603.757, 656.614 609.720, 648.586 612.098, 645.386 617.304, 638.378 623.267, 630.350 625.163, 627.799 628.348, 623.511 628.478, 623.725 633.676, 632.267 638.210, 639.717 642.960, 647.522 648.159, 656.065 650.670, 660.191 655.868, 668.733 655.979, 668.915 661.178, 677.458 662.244, 679.210 672.212, 680.012 682.179, 680.813 692.147, 681.615 694.538, 681.808 698.238, 674.488 692.945, 666.004 687.651, 657.520 684.179, 651.955 679.625, 644.656 674.413, 636.305 669.120, 627.821 667.470, 625.176 662.489, 617.193 657.195, 608.709 651.902, 600.225 650.563, 598.079 655.707, 591.331 661.769, 583.378 664.768, 579.444 670.288, 572.202 676.350, 564.249 678.174, 561.856 683.996, 554.217 689.648, 546.803 695.710, 538.850 701.772, 530.897 706.032, 525.309 696.048, 524.736 686.064, 524.164 676.081, 523.592 673.714, 523.456 669.496, 527.986 663.560, 536.034 661.564, 538.741 656.047, 546.220 650.111, 554.268 646.967, 558.530 641.528, 565.904 635.592, 573.952 634.196, 575.844 629.685, 581.960 " />
            <path fill="none" stroke-width="3.0" stroke-linecap="butt" stroke-opacity="1.0" stroke="rgb(0, 0, 0)" stroke-linejoin="round" d=" M 629.685, 581.960 625.901, 575.823 620.653, 567.310 618.748, 564.220 613.829, 556.241 608.581, 547.729 605.720, 543.087 600.700, 534.944 595.452, 526.432 593.700, 523.589 " />
            <path fill="none" stroke-width="3.0" stroke-linecap="butt" stroke-opacity="1.0" stroke="rgb(0, 0, 0)" stroke-linejoin="round" d=" M 599.277, 519.190 593.700, 523.589 583.717, 523.010 573.733, 522.431 563.750, 521.851 561.612, 521.727 " />
            <path fill="none" stroke-width="3.0" stroke-linecap="butt" stroke-opacity="1.0" stroke="rgb(0, 0, 0)" stroke-linejoin="round" d=" M 694.538, 681.808 689.244, 673.324 683.949, 664.840 680.212, 658.851 675.573, 651.414 670.262, 642.908 664.969, 634.424 663.188, 631.569 658.111, 623.437 652.817, 614.953 647.522, 606.470 645.959, 603.964 " />
            <path fill="none" stroke-width="3.0" stroke-linecap="butt" stroke-opacity="1.0" stroke="rgb(0, 0, 0)" stroke-linejoin="round" d=" M 650.563, 598.079 645.959, 603.964 651.193, 597.097 657.255, 589.144 660.412, 585.000 666.031, 577.629 672.093, 569.676 674.056, 567.100 679.982, 559.325 685.735, 551.779 691.797, 543.826 697.859, 535.872 702.414, 529.896 " />
            <path fill="none" stroke-width="3.0" stroke-linecap="butt" stroke-opacity="1.0" stroke="rgb(0, 0, 0)" stroke-linejoin="round" d=" M 706.032, 525.309 702.414, 529.896 692.430, 529.317 682.447, 528.738 672.464, 528.159 669.496, 527.986 " />
        </g>
    </g>
</svg>
