<?xml version='1.0' encoding='ascii'?>
<svg xmlns="http://www.w3.org/2000/svg" version="1.1" width="1080" height="1080">
    <g id="ViewLayer_LineSet" xmlns:inkscape="http://www.inkscape.org/namespaces/inkscape" inkscape:groupmode="lineset" inkscape:label="ViewLayer_LineSet">
        <g xmlns:inkscape="http://www.inkscape.org/namespaces/inkscape" inkscape:groupmode="layer" id="strokes" inkscape:label="strokes">
            <path fill="none" stroke-width="3.0" stroke-linecap="butt" stroke-opacity="1.0" stroke="rgb(0, 0, 0)" stroke-linejoin="round" d=" M 692.846, 648.635 693.244, 638.643 693.444, 633.617 693.842, 623.625 694.045, 618.546 694.443, 608.554 694.648, 603.421 695.046, 593.429 695.253, 588.243 695.651, 578.251 695.860, 573.011 696.258, 563.019 696.469, 557.724 696.867, 547.732 697.080, 542.383 697.478, 532.391 697.878, 522.358 687.894, 521.789 677.911, 521.221 668.904, 520.708 664.701, 525.074 664.341, 535.068 663.981, 545.061 663.970, 545.379 663.610, 555.372 663.409, 560.933 663.049, 570.927 662.851, 576.431 662.491, 586.424 662.295, 591.873 661.935, 601.867 661.741, 607.260 661.381, 617.253 661.188, 622.591 660.828, 632.585 660.638, 637.868 660.278, 647.861 660.090, 653.090 659.730, 663.083 659.380, 672.798 669.349, 673.591 679.317, 674.384 688.348, 675.102 692.071, 668.080 692.469, 658.088 692.846, 648.635 " />
            <path fill="none" stroke-width="3.0" stroke-linecap="butt" stroke-opacity="1.0" stroke="rgb(0, 0, 0)" stroke-linejoin="round" d=" M 688.348, 675.102 688.742, 665.110 689.129, 655.314 689.523, 645.322 689.731, 640.031 690.126, 630.039 690.336, 624.692 690.731, 614.700 690.944, 609.298 691.338, 599.306 691.553, 593.849 691.947, 583.857 692.165, 578.343 692.559, 568.351 692.779, 562.781 693.173, 552.789 693.395, 547.163 693.789, 537.171 694.183, 527.179 694.199, 526.774 " />
            <path fill="none" stroke-width="3.0" stroke-linecap="butt" stroke-opacity="1.0" stroke="rgb(0, 0, 0)" stroke-linejoin="round" d=" M 697.878, 522.358 694.199, 526.774 684.216, 526.199 674.232, 525.624 664.701, 525.074 " />
            <path fill="none" stroke-width="3.0" stroke-linecap="butt" stroke-opacity="1.0" stroke="rgb(0, 0, 0)" stroke-linejoin="round" d=" M 509.288, 591.792 507.601, 588.272 505.282, 583.437 503.505, 579.729 500.166, 572.762 497.929, 568.098 496.128, 564.341 492.722, 557.235 490.568, 552.742 488.742, 548.934 485.269, 541.689 483.198, 537.368 481.348, 533.510 477.808, 526.125 475.819, 521.976 473.946, 518.068 470.596, 511.080 464.201, 510.714 456.808, 510.292 449.431, 509.870 441.335, 509.407 438.389, 510.857 436.126, 511.970 433.112, 513.453 433.040, 521.203 432.970, 528.890 432.900, 536.564 432.829, 544.224 432.759, 551.870 432.689, 559.503 432.620, 567.123 432.550, 574.728 432.480, 582.321 432.411, 589.900 432.341, 597.465 432.272, 605.018 432.203, 612.557 432.134, 620.082 432.065, 627.595 431.996, 635.094 431.928, 642.580 431.859, 650.053 431.790, 657.560 439.884, 658.207 447.259, 658.797 454.650, 659.388 459.058, 659.740 461.867, 657.331 463.976, 655.523 466.723, 653.168 466.821, 645.758 466.919, 638.383 467.017, 630.995 467.116, 623.594 467.214, 616.180 467.313, 608.753 467.411, 601.313 467.510, 593.860 467.609, 586.394 467.685, 580.708 " />
            <path fill="none" stroke-width="3.0" stroke-linecap="butt" stroke-opacity="1.0" stroke="rgb(0, 0, 0)" stroke-linejoin="round" d=" M 460.173, 569.709 460.049, 579.708 459.993, 584.204 459.899, 591.813 459.805, 599.409 459.711, 606.991 459.617, 614.560 459.524, 622.115 459.430, 629.657 459.337, 637.186 459.244, 644.702 459.151, 652.204 459.058, 659.740 " />
            <path fill="none" stroke-width="3.0" stroke-linecap="butt" stroke-opacity="1.0" stroke="rgb(0, 0, 0)" stroke-linejoin="round" d=" M 462.343, 569.695 466.707, 578.693 466.904, 579.098 467.685, 580.708 470.181, 585.855 474.444, 594.645 477.798, 601.557 481.976, 610.173 485.405, 617.242 487.646, 621.860 489.500, 625.684 493.004, 632.907 495.769, 638.609 499.762, 638.914 507.293, 639.488 511.299, 639.794 513.798, 637.490 515.674, 635.760 518.116, 633.507 521.045, 628.312 524.763, 621.720 526.734, 618.224 529.118, 613.997 532.773, 607.515 537.238, 599.596 540.830, 593.227 542.766, 589.794 545.407, 585.112 548.934, 578.856 549.786, 577.344 " />
            <path fill="none" stroke-width="3.0" stroke-linecap="butt" stroke-opacity="1.0" stroke="rgb(0, 0, 0)" stroke-linejoin="round" d=" M 462.869, 515.176 466.282, 522.290 468.190, 526.269 470.217, 530.492 473.823, 538.011 475.707, 541.939 477.818, 546.337 481.357, 553.713 483.218, 557.588 485.411, 562.164 488.881, 569.397 490.716, 573.223 492.994, 577.971 496.396, 585.062 498.207, 588.837 500.569, 593.759 504.093, 601.107 504.376, 600.601 507.928, 594.230 509.288, 591.792 510.524, 589.575 512.482, 586.064 516.142, 579.501 518.637, 575.027 520.636, 571.442 524.405, 564.683 526.797, 560.391 528.838, 556.731 532.718, 549.776 535.006, 545.670 537.090, 541.934 541.080, 534.779 543.265, 530.861 545.390, 527.048 549.224, 520.175 551.519, 518.621 553.242, 517.454 555.484, 515.936 561.855, 516.300 569.487, 516.737 577.137, 517.174 585.572, 517.657 585.364, 525.432 585.157, 533.145 584.950, 540.844 584.744, 548.530 584.538, 556.202 584.333, 563.860 584.128, 571.504 583.923, 579.135 583.719, 586.753 583.515, 594.356 583.311, 601.947 583.108, 609.524 582.905, 617.087 582.702, 624.637 582.500, 632.174 582.298, 639.698 582.097, 647.208 581.896, 654.705 581.694, 662.236 579.650, 664.692 578.080, 666.578 575.989, 669.091 567.556, 668.417 559.908, 667.805 552.278, 667.195 547.742, 666.832 547.917, 659.200 548.090, 651.603 548.264, 643.992 548.438, 636.367 548.613, 628.728 548.787, 621.076 548.963, 613.410 549.138, 605.730 549.314, 598.037 549.490, 590.329 549.718, 580.332 549.786, 577.344 549.826, 575.626 549.927, 571.212 " />
            <path fill="none" stroke-width="3.0" stroke-linecap="butt" stroke-opacity="1.0" stroke="rgb(0, 0, 0)" stroke-linejoin="round" d=" M 470.596, 511.080 467.828, 512.548 465.701, 513.675 462.869, 515.176 456.365, 514.800 448.846, 514.364 441.344, 513.930 433.112, 513.453 " />
            <path fill="none" stroke-width="3.0" stroke-linecap="butt" stroke-opacity="1.0" stroke="rgb(0, 0, 0)" stroke-linejoin="round" d=" M 455.636, 576.282 460.173, 569.709 460.173, 569.709 462.343, 569.695 467.832, 569.660 470.720, 569.642 " />
            <path fill="none" stroke-width="3.0" stroke-linecap="butt" stroke-opacity="1.0" stroke="rgb(0, 0, 0)" stroke-linejoin="round" d=" M 532.773, 607.515 534.725, 604.052 537.238, 599.596 " />
            <path fill="none" stroke-width="3.0" stroke-linecap="butt" stroke-opacity="1.0" stroke="rgb(0, 0, 0)" stroke-linejoin="round" d=" M 542.604, 584.213 539.021, 590.577 536.338, 595.340 534.371, 598.831 530.722, 605.309 528.171, 609.840 526.187, 613.363 522.474, 619.954 520.052, 624.254 518.050, 627.808 514.274, 634.512 511.299, 639.794 " />
            <path fill="none" stroke-width="3.0" stroke-linecap="butt" stroke-opacity="1.0" stroke="rgb(0, 0, 0)" stroke-linejoin="round" d=" M 579.841, 521.948 579.634, 529.863 579.428, 537.715 579.223, 545.552 579.018, 553.376 578.814, 561.185 578.610, 568.980 578.406, 576.761 578.203, 584.528 578.000, 592.280 577.797, 600.019 577.595, 607.744 577.393, 615.455 577.192, 623.152 576.991, 630.835 576.790, 638.504 576.589, 646.159 576.389, 653.801 576.190, 661.429 575.989, 669.091 " />
            <path fill="none" stroke-width="3.0" stroke-linecap="butt" stroke-opacity="1.0" stroke="rgb(0, 0, 0)" stroke-linejoin="round" d=" M 585.572, 517.657 583.519, 519.194 581.942, 520.374 579.841, 521.948 571.257, 521.451 563.472, 521.000 555.706, 520.550 549.224, 520.175 " />
            <path fill="none" stroke-width="3.0" stroke-linecap="butt" stroke-opacity="1.0" stroke="rgb(0, 0, 0)" stroke-linejoin="round" d=" M 554.429, 575.176 552.144, 573.164 549.927, 571.212 547.302, 575.872 542.604, 584.213 547.296, 575.873 " />
            <path fill="none" stroke-width="3.0" stroke-linecap="butt" stroke-opacity="1.0" stroke="rgb(0, 0, 0)" stroke-linejoin="round" d=" M 549.927, 571.212 547.296, 575.873 " />
            <path fill="none" stroke-width="3.0" stroke-linecap="butt" stroke-opacity="1.0" stroke="rgb(0, 0, 0)" stroke-linejoin="round" d=" M 312.181, 584.310 309.807, 581.010 304.995, 574.322 299.333, 566.451 293.493, 558.334 292.590, 557.080 287.026, 549.343 281.185, 541.226 280.186, 539.838 274.717, 532.236 268.878, 524.119 267.783, 522.597 262.410, 515.129 256.569, 507.012 252.754, 501.709 242.771, 501.133 241.311, 501.049 232.267, 500.527 222.752, 503.604 220.562, 504.312 220.716, 514.311 220.859, 523.617 221.014, 533.616 221.087, 538.409 221.242, 548.408 221.315, 553.151 221.469, 563.149 221.541, 567.842 221.695, 577.840 221.767, 582.483 221.921, 592.481 221.992, 597.074 222.146, 607.072 222.216, 611.615 222.370, 621.614 222.439, 626.107 222.594, 636.106 222.729, 644.874 231.770, 645.603 241.738, 646.406 248.444, 646.947 257.176, 642.074 259.529, 640.760 259.419, 630.761 259.324, 622.232 259.213, 612.232 259.165, 607.925 259.054, 597.925 259.006, 593.570 258.895, 583.570 258.847, 579.166 258.774, 572.584 " />
            <path fill="none" stroke-width="3.0" stroke-linecap="butt" stroke-opacity="1.0" stroke="rgb(0, 0, 0)" stroke-linejoin="round" d=" M 248.444, 646.947 248.320, 636.948 248.210, 628.108 248.086, 618.109 248.030, 613.560 247.906, 603.561 247.849, 598.963 247.725, 588.963 247.667, 584.315 247.543, 574.316 247.420, 564.316 247.327, 556.854 253.211, 564.940 257.300, 570.560 258.774, 572.584 264.101, 579.903 269.850, 587.804 275.734, 595.890 276.738, 597.270 282.400, 605.050 288.283, 613.136 289.377, 614.639 294.951, 622.297 300.835, 630.383 303.411, 633.923 308.088, 640.349 313.972, 648.435 316.905, 652.466 326.873, 653.269 329.615, 653.490 338.964, 654.244 347.302, 648.723 348.629, 647.843 348.623, 637.843 348.618, 629.070 348.612, 619.070 348.609, 614.574 348.603, 604.574 348.600, 600.027 348.594, 590.027 348.591, 585.432 348.585, 575.432 348.582, 570.786 348.576, 560.786 348.573, 556.090 348.566, 546.090 348.563, 541.344 348.557, 531.344 348.554, 526.547 348.548, 516.547 348.542, 507.437 339.191, 506.897 329.207, 506.321 322.082, 505.909 312.745, 509.490 311.819, 509.845 311.868, 519.845 311.913, 529.212 311.962, 539.212 311.986, 544.207 312.035, 554.207 312.059, 559.150 312.108, 569.150 312.131, 574.041 312.180, 584.041 312.181, 584.310 312.204, 588.881 312.252, 598.881 312.278, 604.083 " />
            <path fill="none" stroke-width="3.0" stroke-linecap="butt" stroke-opacity="1.0" stroke="rgb(0, 0, 0)" stroke-linejoin="round" d=" M 312.278, 604.083 307.710, 597.732 301.870, 589.614 299.439, 586.234 294.541, 579.428 288.779, 571.418 282.938, 563.300 281.916, 561.880 276.253, 554.006 270.412, 545.889 269.292, 544.333 263.727, 536.596 257.889, 528.477 256.672, 526.785 251.201, 519.185 245.360, 511.068 241.374, 505.527 " />
            <path fill="none" stroke-width="3.0" stroke-linecap="butt" stroke-opacity="1.0" stroke="rgb(0, 0, 0)" stroke-linejoin="round" d=" M 252.754, 501.709 243.273, 504.890 241.374, 505.527 231.391, 504.944 229.750, 504.848 220.562, 504.312 " />
            <path fill="none" stroke-width="3.0" stroke-linecap="butt" stroke-opacity="1.0" stroke="rgb(0, 0, 0)" stroke-linejoin="round" d=" M 338.964, 654.244 338.946, 644.244 338.930, 635.152 338.913, 625.152 338.904, 620.408 338.887, 610.408 338.878, 605.613 338.861, 595.613 338.852, 590.766 338.835, 580.766 338.826, 575.868 338.809, 565.868 338.800, 560.918 338.782, 550.918 338.773, 545.916 338.756, 535.916 338.747, 530.861 338.729, 520.861 338.713, 511.416 " />
            <path fill="none" stroke-width="3.0" stroke-linecap="butt" stroke-opacity="1.0" stroke="rgb(0, 0, 0)" stroke-linejoin="round" d=" M 348.542, 507.437 339.273, 511.189 338.713, 511.416 329.207, 510.861 319.224, 510.277 311.819, 509.845 " />
            <path fill="none" stroke-width="3.0" stroke-linecap="butt" stroke-opacity="1.0" stroke="rgb(0, 0, 0)" stroke-linejoin="round" d=" M 547.302, 575.872 549.826, 575.626 " />
        </g>
    </g>
</svg>
