<?xml version='1.0' encoding='ascii'?>
<svg xmlns="http://www.w3.org/2000/svg" version="1.1" width="1080" height="1080">
    <g id="ViewLayer_LineSet" xmlns:inkscape="http://www.inkscape.org/namespaces/inkscape" inkscape:groupmode="lineset" inkscape:label="ViewLayer_LineSet">
        <g xmlns:inkscape="http://www.inkscape.org/namespaces/inkscape" inkscape:groupmode="layer" id="strokes" inkscape:label="strokes">
            <path fill="none" stroke-width="3.0" stroke-linecap="butt" stroke-opacity="1.0" stroke="rgb(0, 0, 0)" stroke-linejoin="round" d=" M 814.865, 625.516 811.773, 635.026 811.481, 635.927 805.531, 643.964 803.022, 647.353 795.975, 654.448 794.389, 656.044 784.844, 659.027 784.548, 659.119 777.085, 661.428 767.119, 660.602 759.198, 659.945 752.014, 656.622 743.034, 652.222 742.232, 651.829 736.229, 643.831 735.084, 642.304 730.100, 633.635 727.928, 629.856 725.913, 620.061 724.820, 614.746 725.310, 604.758 725.583, 599.173 728.476, 589.600 729.297, 586.884 " />
            <path fill="none" stroke-width="3.0" stroke-linecap="butt" stroke-opacity="1.0" stroke="rgb(0, 0, 0)" stroke-linejoin="round" d=" M 702.230, 655.138 707.852, 663.408 709.957, 666.504 717.070, 673.532 718.928, 675.367 726.801, 681.533 727.253, 681.887 735.896, 686.917 737.863, 688.061 747.419, 691.007 755.259, 693.424 765.230, 694.184 773.529, 694.816 783.430, 693.417 791.514, 692.274 800.774, 688.498 802.657, 687.731 811.429, 682.929 811.847, 682.700 819.845, 676.699 821.938, 675.129 828.632, 667.699 831.032, 665.035 836.450, 656.821 841.334, 648.095 841.670, 647.496 844.418, 637.881 846.481, 630.666 847.402, 624.049 847.864, 614.060 848.203, 606.716 846.488, 596.864 845.236, 589.675 841.434, 580.426 841.262, 580.007 836.888, 571.073 831.257, 562.810 829.085, 559.622 822.036, 552.529 820.135, 550.616 812.165, 544.577 811.593, 544.143 802.996, 539.036 801.063, 537.888 791.440, 535.168 783.416, 532.901 773.429, 532.385 765.178, 531.958 755.331, 533.699 747.450, 535.091 738.322, 539.176 736.741, 539.883 728.146, 544.995 727.829, 545.183 720.042, 551.457 718.222, 552.922 711.686, 560.491 709.572, 562.939 706.002, 568.279 700.806, 576.612 696.081, 585.426 695.911, 585.743 693.348, 595.409 691.516, 602.317 691.094, 612.308 690.786, 619.591 692.588, 629.427 693.893, 636.544 697.678, 645.800 697.902, 646.348 702.230, 655.138 " />
            <path fill="none" stroke-width="3.0" stroke-linecap="butt" stroke-opacity="1.0" stroke="rgb(0, 0, 0)" stroke-linejoin="round" d=" M 814.746, 627.724 811.654, 637.233 809.866, 642.730 803.912, 650.764 801.248, 654.360 794.196, 661.450 792.452, 663.204 782.903, 666.176 782.423, 666.325 774.819, 668.668 764.854, 667.831 756.594, 667.137 749.274, 663.745 740.297, 659.338 739.307, 658.852 733.304, 650.854 732.022, 649.145 727.037, 640.476 724.727, 636.458 722.709, 626.664 721.555, 621.066 722.041, 611.078 722.327, 605.204 725.218, 595.631 726.847, 590.237 729.297, 586.884 735.197, 578.810 735.313, 578.651 742.127, 571.331 743.538, 569.815 753.012, 566.615 754.029, 566.271 761.625, 563.917 771.606, 564.521 779.789, 565.017 787.092, 568.362 796.106, 572.692 797.427, 573.326 803.455, 581.306 804.844, 583.145 809.906, 591.770 812.360, 595.951 814.392, 605.743 815.614, 611.630 815.075, 621.616 814.865, 625.516 814.746, 627.724 " />
            <path fill="none" stroke-width="3.0" stroke-linecap="butt" stroke-opacity="1.0" stroke="rgb(0, 0, 0)" stroke-linejoin="round" d=" M 846.481, 630.666 846.942, 620.677 847.295, 613.006 845.579, 603.155 844.269, 595.639 840.466, 586.391 840.216, 585.784 835.818, 576.803 835.756, 576.676 830.125, 568.412 827.799, 564.999 820.751, 557.905 818.673, 555.815 810.705, 549.773 809.964, 549.211 801.369, 544.100 799.229, 542.828 789.607, 540.103 781.240, 537.733 771.254, 537.210 762.652, 536.759 752.803, 538.492 744.585, 539.938 735.455, 544.017 733.675, 544.812 725.077, 549.919 724.596, 550.205 716.806, 556.476 714.810, 558.083 708.273, 565.650 706.002, 568.279 " />
            <path fill="none" stroke-width="3.0" stroke-linecap="butt" stroke-opacity="1.0" stroke="rgb(0, 0, 0)" stroke-linejoin="round" d=" M 511.537, 631.535 518.537, 632.060 528.509, 632.809 530.371, 632.949 540.332, 633.823 546.434, 634.359 556.427, 633.975 563.579, 633.701 572.376, 628.947 572.469, 628.897 580.676, 623.182 581.816, 622.388 587.711, 616.053 593.535, 607.924 593.855, 607.478 598.786, 599.533 601.020, 589.786 602.600, 582.895 601.584, 572.946 600.823, 565.490 596.607, 556.423 596.255, 555.667 591.056, 547.125 590.710, 546.557 583.723, 539.403 582.343, 537.990 574.291, 532.060 572.819, 530.976 563.074, 528.730 555.589, 527.005 545.598, 526.589 539.325, 526.328 529.342, 525.740 523.694, 525.407 513.711, 524.819 508.136, 524.491 498.153, 523.903 491.657, 523.520 483.953, 528.055 483.803, 538.054 483.652, 548.052 483.639, 548.882 483.489, 558.881 483.399, 564.836 483.248, 574.834 483.159, 580.730 483.008, 590.729 482.920, 596.566 482.770, 606.565 482.682, 612.343 482.532, 622.342 482.445, 628.062 482.295, 638.061 482.209, 643.724 482.059, 653.723 481.974, 659.328 481.823, 669.327 481.672, 679.326 481.669, 679.529 491.635, 680.353 498.143, 680.891 508.109, 681.716 510.605, 681.922 517.569, 674.746 517.715, 674.596 517.908, 664.598 518.100, 654.671 518.293, 644.673 518.397, 639.281 518.537, 632.060 " />
            <path fill="none" stroke-width="3.0" stroke-linecap="butt" stroke-opacity="1.0" stroke="rgb(0, 0, 0)" stroke-linejoin="round" d=" M 510.605, 681.922 510.790, 671.924 510.975, 661.925 510.980, 661.638 511.165, 651.640 511.270, 645.969 511.455, 635.971 511.537, 631.535 " />
            <path fill="none" stroke-width="3.0" stroke-linecap="butt" stroke-opacity="1.0" stroke="rgb(0, 0, 0)" stroke-linejoin="round" d=" M 562.613, 599.673 557.222, 602.470 547.250, 601.725 537.721, 601.013 527.745, 600.318 519.161, 599.720 519.355, 589.722 519.548, 579.724 519.597, 577.160 519.790, 567.162 519.900, 561.488 519.995, 556.586 " />
            <path fill="none" stroke-width="3.0" stroke-linecap="butt" stroke-opacity="1.0" stroke="rgb(0, 0, 0)" stroke-linejoin="round" d=" M 512.015, 605.686 512.200, 595.688 512.385, 585.690 512.440, 582.712 512.625, 572.713 512.736, 566.750 512.920, 556.752 512.932, 556.120 519.995, 556.586 529.973, 557.245 532.012, 557.379 542.002, 557.811 550.621, 558.183 558.997, 563.648 564.149, 567.009 565.519, 576.915 566.818, 586.307 563.817, 595.846 562.613, 599.673 561.594, 602.911 " />
            <path fill="none" stroke-width="3.0" stroke-linecap="butt" stroke-opacity="1.0" stroke="rgb(0, 0, 0)" stroke-linejoin="round" d=" M 581.816, 622.388 587.639, 614.258 588.067, 613.660 593.084, 605.572 595.312, 595.824 596.957, 588.628 595.935, 578.680 595.136, 570.896 590.917, 561.829 590.477, 560.884 585.277, 552.343 584.824, 551.598 577.838, 544.443 576.297, 542.864 568.247, 536.930 566.592, 535.710 556.850, 533.457 549.044, 531.652 539.053, 531.228 532.483, 530.950 522.501, 530.354 516.568, 530.000 506.585, 529.405 500.728, 529.055 490.746, 528.460 483.953, 528.055 " />
            <path fill="none" stroke-width="3.0" stroke-linecap="butt" stroke-opacity="1.0" stroke="rgb(0, 0, 0)" stroke-linejoin="round" d=" M 561.594, 602.911 552.716, 607.511 550.763, 608.523 540.792, 607.769 530.909, 607.021 520.934, 606.316 512.015, 605.686 519.161, 599.720 " />
            <path fill="none" stroke-width="3.0" stroke-linecap="butt" stroke-opacity="1.0" stroke="rgb(0, 0, 0)" stroke-linejoin="round" d=" M 379.682, 569.069 378.802, 567.649 373.531, 559.151 371.740, 556.263 366.884, 548.434 361.613, 539.936 358.878, 535.527 353.923, 527.536 348.652, 519.038 347.012, 516.394 337.030, 515.804 327.047, 515.214 317.065, 514.623 316.687, 514.601 307.386, 518.274 305.825, 518.891 311.162, 527.348 316.499, 535.804 320.545, 542.215 325.882, 550.672 330.935, 558.677 336.271, 567.134 341.608, 575.591 343.157, 578.045 348.494, 586.502 351.470, 591.218 356.208, 598.727 350.524, 606.953 344.839, 615.180 344.077, 616.282 339.038, 623.575 333.353, 631.802 332.039, 633.704 326.806, 641.276 322.247, 647.874 316.562, 656.101 310.878, 664.328 308.254, 668.124 318.220, 668.953 328.185, 669.782 338.151, 670.611 338.583, 670.647 346.810, 664.960 348.716, 663.642 354.369, 655.393 360.095, 647.037 365.747, 638.788 367.662, 635.994 372.384, 629.102 375.331, 624.801 " />
            <path fill="none" stroke-width="3.0" stroke-linecap="butt" stroke-opacity="1.0" stroke="rgb(0, 0, 0)" stroke-linejoin="round" d=" M 360.095, 647.037 354.788, 654.781 349.136, 663.030 348.716, 663.642 " />
            <path fill="none" stroke-width="3.0" stroke-linecap="butt" stroke-opacity="1.0" stroke="rgb(0, 0, 0)" stroke-linejoin="round" d=" M 338.583, 670.647 344.229, 662.393 344.749, 661.633 350.135, 653.759 355.780, 645.505 357.817, 642.527 362.612, 635.517 368.257, 627.263 369.850, 624.934 372.784, 620.645 375.331, 624.801 380.556, 633.328 382.712, 636.846 387.494, 644.650 392.719, 653.176 395.255, 657.315 400.480, 665.841 400.600, 666.037 405.825, 674.563 406.907, 676.329 416.873, 677.157 426.839, 677.986 436.804, 678.815 437.972, 678.912 445.554, 672.392 446.419, 671.649 441.104, 663.178 435.788, 654.708 432.283, 649.121 427.704, 641.825 422.465, 633.476 417.149, 625.005 415.483, 622.350 410.475, 614.369 405.160, 605.899 399.845, 597.428 398.484, 595.260 403.236, 588.510 408.990, 580.331 411.603, 576.618 417.358, 568.440 423.113, 560.263 423.985, 559.025 429.362, 551.383 434.581, 543.967 440.336, 535.789 446.091, 527.611 449.713, 522.466 439.730, 521.875 429.748, 521.285 419.765, 520.695 418.623, 520.628 409.651, 525.044 409.532, 525.102 403.915, 533.375 402.228, 535.860 397.149, 543.342 391.532, 551.615 388.788, 555.656 383.781, 563.032 379.682, 569.069 374.065, 577.342 372.876, 579.094 " />
            <path fill="none" stroke-width="3.0" stroke-linecap="butt" stroke-opacity="1.0" stroke="rgb(0, 0, 0)" stroke-linejoin="round" d=" M 372.876, 579.094 369.069, 572.958 363.797, 564.460 361.872, 561.358 356.923, 553.381 351.651, 544.884 348.764, 540.231 343.714, 532.090 338.442, 523.593 336.671, 520.738 " />
            <path fill="none" stroke-width="3.0" stroke-linecap="butt" stroke-opacity="1.0" stroke="rgb(0, 0, 0)" stroke-linejoin="round" d=" M 347.012, 516.394 337.793, 520.267 336.671, 520.738 326.689, 520.140 316.707, 519.543 306.724, 518.945 305.825, 518.891 " />
            <path fill="none" stroke-width="3.0" stroke-linecap="butt" stroke-opacity="1.0" stroke="rgb(0, 0, 0)" stroke-linejoin="round" d=" M 437.972, 678.912 432.655, 670.442 427.339, 661.972 423.566, 655.962 418.903, 648.527 413.561, 640.023 408.246, 631.552 406.449, 628.687 401.343, 620.557 396.026, 612.088 390.710, 603.618 389.123, 601.090 " />
            <path fill="none" stroke-width="3.0" stroke-linecap="butt" stroke-opacity="1.0" stroke="rgb(0, 0, 0)" stroke-linejoin="round" d=" M 423.985, 559.025 418.229, 567.202 416.700, 569.374 411.603, 576.618 " />
            <path fill="none" stroke-width="3.0" stroke-linecap="butt" stroke-opacity="1.0" stroke="rgb(0, 0, 0)" stroke-linejoin="round" d=" M 398.484, 595.260 389.996, 600.546 389.123, 601.090 393.949, 594.221 399.697, 586.038 402.449, 582.120 407.630, 574.746 413.379, 566.563 415.029, 564.214 420.493, 556.436 425.797, 548.887 431.545, 540.704 437.294, 532.522 441.175, 526.997 " />
            <path fill="none" stroke-width="3.0" stroke-linecap="butt" stroke-opacity="1.0" stroke="rgb(0, 0, 0)" stroke-linejoin="round" d=" M 449.713, 522.466 441.175, 526.997 431.193, 526.399 421.211, 525.801 411.229, 525.203 409.532, 525.102 " />
        </g>
    </g>
</svg>
