<?xml version='1.0' encoding='ascii'?>
<svg xmlns="http://www.w3.org/2000/svg" version="1.1" width="1080" height="1080">
    <g id="ViewLayer_LineSet" xmlns:inkscape="http://www.inkscape.org/namespaces/inkscape" inkscape:groupmode="lineset" inkscape:label="ViewLayer_LineSet">
        <g xmlns:inkscape="http://www.inkscape.org/namespaces/inkscape" inkscape:groupmode="layer" id="strokes" inkscape:label="strokes">
            <path fill="none" stroke-width="3.0" stroke-linecap="butt" stroke-opacity="1.0" stroke="rgb(0, 0, 0)" stroke-linejoin="round" d=" M 736.563, 637.487 730.699, 645.588 729.902, 646.688 722.925, 653.852 721.436, 655.382 711.903, 658.403 711.729, 658.458 704.368, 660.768 694.402, 659.934 686.669, 659.286 679.539, 655.964 670.571, 651.538 669.828, 651.171 663.828, 643.171 662.684, 641.647 657.690, 632.983 655.508, 629.198 653.440, 619.414 652.314, 614.087 652.718, 604.096 652.944, 598.513 655.737, 588.911 657.218, 583.815 663.030, 575.677 663.126, 575.542 " />
            <path fill="none" stroke-width="3.0" stroke-linecap="butt" stroke-opacity="1.0" stroke="rgb(0, 0, 0)" stroke-linejoin="round" d=" M 628.828, 654.471 634.452, 662.740 636.559, 665.837 643.661, 672.877 645.500, 674.700 653.358, 680.885 653.783, 681.220 662.412, 686.274 664.322, 687.393 673.871, 690.362 681.563, 692.754 691.534, 693.522 699.636, 694.145 709.535, 692.727 717.395, 691.600 726.635, 687.776 728.374, 687.056 737.112, 682.194 737.418, 682.024 745.364, 675.954 747.332, 674.451 753.948, 666.953 756.240, 664.356 761.529, 656.141 766.315, 647.361 766.613, 646.814 769.063, 639.904 771.710, 630.261 773.599, 623.379 773.976, 613.386 774.252, 606.044 772.479, 596.203 771.182, 589.002 767.353, 579.764 767.175, 579.334 762.779, 570.400 757.145, 562.138 754.971, 558.949 747.933, 551.845 746.049, 549.943 738.094, 543.884 737.551, 543.471 728.968, 538.339 727.089, 537.216 717.472, 534.475 709.599, 532.231 699.613, 531.710 691.558, 531.290 681.715, 533.052 674.053, 534.425 664.948, 538.561 663.502, 539.218 654.945, 544.391 654.733, 544.519 647.001, 550.861 645.295, 552.260 640.471, 557.407 634.014, 565.043 631.846, 567.606 626.779, 575.940 622.153, 584.806 622.014, 585.072 619.553, 594.764 617.805, 601.647 617.468, 611.642 617.223, 618.923 619.084, 628.748 620.433, 635.877 624.247, 645.122 624.477, 645.681 628.828, 654.471 " />
            <path fill="none" stroke-width="3.0" stroke-linecap="butt" stroke-opacity="1.0" stroke="rgb(0, 0, 0)" stroke-linejoin="round" d=" M 735.133, 642.051 729.267, 650.150 726.708, 653.683 719.728, 660.843 718.085, 662.529 708.549, 665.539 708.196, 665.651 700.698, 667.995 690.734, 667.150 682.669, 666.466 675.404, 663.074 666.440, 658.641 665.511, 658.182 659.511, 650.182 658.230, 648.474 653.234, 639.811 650.914, 635.788 648.842, 626.005 647.653, 620.395 648.053, 610.402 648.287, 604.531 651.076, 594.928 652.633, 589.563 658.444, 581.425 660.908, 577.975 663.126, 575.542 668.967, 569.137 678.427, 565.895 679.309, 565.592 686.799, 563.237 696.780, 563.847 704.764, 564.335 712.011, 567.680 721.013, 572.036 722.269, 572.644 728.294, 580.625 729.682, 582.463 734.753, 591.081 737.217, 595.269 739.303, 605.049 740.561, 610.948 740.110, 620.938 739.835, 627.043 736.845, 636.586 736.563, 637.487 735.133, 642.051 " />
            <path fill="none" stroke-width="3.0" stroke-linecap="butt" stroke-opacity="1.0" stroke="rgb(0, 0, 0)" stroke-linejoin="round" d=" M 766.613, 646.814 769.259, 637.171 771.231, 629.983 771.605, 619.990 771.892, 612.321 770.117, 602.480 768.759, 594.953 764.928, 585.716 764.671, 585.097 760.254, 576.125 760.188, 575.990 754.554, 567.727 752.226, 564.313 745.189, 557.208 743.130, 555.129 735.177, 549.067 734.466, 548.525 725.885, 543.390 723.801, 542.143 714.186, 539.395 705.976, 537.049 695.990, 536.521 687.592, 536.077 677.747, 537.833 669.758, 539.258 660.651, 543.390 659.012, 544.134 650.452, 549.304 650.081, 549.528 642.348, 555.869 640.471, 557.407 " />
            <path fill="none" stroke-width="3.0" stroke-linecap="butt" stroke-opacity="1.0" stroke="rgb(0, 0, 0)" stroke-linejoin="round" d=" M 286.859, 622.589 296.830, 623.350 298.226, 623.457 305.052, 623.978 315.013, 624.869 320.575, 625.366 330.567, 624.953 337.087, 624.683 345.535, 619.862 354.081, 614.670 355.862, 613.588 363.909, 607.650 364.562, 607.168 370.098, 598.841 370.273, 598.576 374.832, 590.616 376.752, 580.803 378.092, 573.956 376.866, 564.032 375.940, 556.537 371.659, 547.499 371.285, 546.710 366.063, 538.182 365.706, 537.599 358.751, 530.413 357.418, 529.035 349.411, 523.044 348.052, 522.027 338.320, 519.728 331.328, 518.076 321.337, 517.660 315.620, 517.421 305.638, 516.827 300.515, 516.522 290.533, 515.927 285.482, 515.626 275.499, 515.031 269.558, 514.678 260.165, 518.108 257.607, 519.043 257.718, 529.042 257.830, 539.042 257.839, 539.892 257.951, 549.891 258.017, 555.862 258.129, 565.862 258.195, 571.773 258.306, 581.773 258.371, 587.626 258.483, 597.625 258.548, 603.420 258.659, 613.419 258.723, 619.155 258.835, 629.155 258.898, 634.833 259.009, 644.833 259.072, 650.454 259.184, 660.453 259.295, 670.452 259.298, 670.676 269.262, 671.515 275.215, 672.016 285.180, 672.855 287.255, 673.030 295.691, 667.659 298.502, 665.868 298.437, 655.869 298.372, 645.923 298.307, 635.924 298.272, 630.518 298.226, 623.457 " />
            <path fill="none" stroke-width="3.0" stroke-linecap="butt" stroke-opacity="1.0" stroke="rgb(0, 0, 0)" stroke-linejoin="round" d=" M 287.255, 673.030 287.177, 663.030 287.098, 653.030 287.096, 652.724 287.017, 642.725 286.973, 637.039 286.894, 627.039 286.859, 622.589 " />
            <path fill="none" stroke-width="3.0" stroke-linecap="butt" stroke-opacity="1.0" stroke="rgb(0, 0, 0)" stroke-linejoin="round" d=" M 334.459, 593.588 324.488, 592.832 315.952, 592.184 305.977, 591.478 298.013, 590.916 297.948, 580.916 297.883, 570.916 297.866, 568.332 297.801, 558.333 297.764, 552.644 297.732, 547.863 " />
            <path fill="none" stroke-width="3.0" stroke-linecap="butt" stroke-opacity="1.0" stroke="rgb(0, 0, 0)" stroke-linejoin="round" d=" M 286.656, 596.714 286.577, 586.714 286.499, 576.714 286.475, 573.715 286.396, 563.715 286.349, 557.737 286.271, 547.737 286.266, 547.096 296.244, 547.763 297.732, 547.863 304.692, 548.329 314.683, 548.762 322.654, 549.107 330.983, 554.641 335.923, 557.923 337.492, 567.799 338.991, 577.236 336.320, 586.873 334.459, 593.588 334.383, 593.864 " />
            <path fill="none" stroke-width="3.0" stroke-linecap="butt" stroke-opacity="1.0" stroke="rgb(0, 0, 0)" stroke-linejoin="round" d=" M 345.535, 619.862 353.580, 613.922 354.379, 613.332 359.907, 604.999 360.180, 604.587 364.809, 596.484 366.717, 586.668 368.107, 579.516 366.871, 569.593 365.896, 561.769 361.612, 552.733 361.148, 551.754 355.924, 543.226 355.459, 542.466 348.506, 535.279 347.013, 533.735 339.010, 527.739 337.474, 526.588 327.744, 524.280 320.452, 522.551 310.461, 522.126 304.468, 521.872 294.486, 521.269 289.100, 520.944 279.118, 520.342 273.805, 520.021 263.823, 519.418 257.607, 519.043 " />
            <path fill="none" stroke-width="3.0" stroke-linecap="butt" stroke-opacity="1.0" stroke="rgb(0, 0, 0)" stroke-linejoin="round" d=" M 334.383, 593.864 325.610, 598.664 324.084, 599.499 314.114, 598.731 304.905, 598.023 294.931, 597.307 286.656, 596.714 295.562, 592.167 298.013, 590.916 " />
        </g>
    </g>
</svg>
