<?xml version='1.0' encoding='ascii'?>
<svg xmlns="http://www.w3.org/2000/svg" version="1.1" width="1080" height="1080">
    <g id="ViewLayer_LineSet" xmlns:inkscape="http://www.inkscape.org/namespaces/inkscape" inkscape:groupmode="lineset" inkscape:label="ViewLayer_LineSet">
        <g xmlns:inkscape="http://www.inkscape.org/namespaces/inkscape" inkscape:groupmode="layer" id="strokes" inkscape:label="strokes">
            <path fill="none" stroke-width="3.0" stroke-linecap="butt" stroke-opacity="1.0" stroke="rgb(0, 0, 0)" stroke-linejoin="round" d=" M 672.978, 649.217 673.353, 639.224 673.490, 635.587 673.864, 625.594 674.003, 621.912 674.378, 611.919 674.517, 608.194 674.892, 598.201 675.034, 594.432 675.409, 584.439 675.552, 580.625 675.927, 570.632 676.071, 566.774 676.446, 556.781 676.593, 552.878 676.968, 542.885 677.273, 534.746 667.290, 534.157 657.308, 533.569 651.075, 533.202 646.969, 537.366 646.629, 547.360 646.345, 555.726 646.005, 565.721 645.866, 569.797 645.526, 579.791 645.389, 583.822 645.049, 593.816 644.913, 597.801 644.573, 607.795 644.439, 611.734 644.100, 621.728 643.967, 625.622 643.627, 635.616 643.496, 639.465 643.156, 649.459 643.027, 653.263 642.687, 663.257 642.419, 671.135 652.388, 671.927 662.356, 672.719 668.612, 673.217 672.316, 666.872 672.691, 656.879 672.978, 649.217 " />
            <path fill="none" stroke-width="3.0" stroke-linecap="butt" stroke-opacity="1.0" stroke="rgb(0, 0, 0)" stroke-linejoin="round" d=" M 668.612, 673.217 668.982, 663.223 669.277, 655.280 669.648, 645.287 669.791, 641.431 670.162, 631.438 670.307, 627.537 670.678, 617.544 670.824, 613.598 671.195, 603.605 671.343, 599.613 671.714, 589.620 671.864, 585.582 672.235, 575.589 672.386, 571.505 672.757, 561.512 672.910, 557.382 673.281, 547.389 673.594, 538.953 " />
            <path fill="none" stroke-width="3.0" stroke-linecap="butt" stroke-opacity="1.0" stroke="rgb(0, 0, 0)" stroke-linejoin="round" d=" M 677.273, 534.746 673.594, 538.953 663.612, 538.358 653.630, 537.763 646.969, 537.366 " />
            <path fill="none" stroke-width="3.0" stroke-linecap="butt" stroke-opacity="1.0" stroke="rgb(0, 0, 0)" stroke-linejoin="round" d=" M 551.784, 599.357 549.875, 595.362 547.774, 590.968 546.164, 587.599 543.139, 581.269 541.113, 577.031 539.481, 573.616 536.396, 567.160 534.445, 563.078 532.792, 559.619 529.646, 553.037 527.770, 549.112 526.095, 545.607 522.890, 538.898 521.088, 535.130 519.392, 531.580 516.359, 525.234 510.506, 524.889 503.739, 524.490 496.985, 524.092 489.572, 523.655 487.180, 525.056 485.345, 526.131 482.903, 527.562 482.798, 534.585 482.693, 541.552 482.589, 548.508 482.485, 555.453 482.382, 562.387 482.278, 569.310 482.175, 576.221 482.072, 583.122 481.969, 590.011 481.866, 596.889 481.763, 603.757 481.660, 610.613 481.558, 617.458 481.456, 624.292 481.354, 631.116 481.252, 637.928 481.150, 644.729 481.049, 651.520 480.947, 658.343 488.358, 658.932 495.110, 659.469 501.876, 660.007 505.910, 660.327 508.190, 658.134 509.903, 656.485 512.136, 654.336 512.261, 647.594 512.386, 640.884 512.512, 634.163 512.637, 627.432 512.762, 620.690 512.888, 613.937 513.014, 607.174 513.140, 600.399 513.266, 593.615 513.391, 586.935 " />
            <path fill="none" stroke-width="3.0" stroke-linecap="butt" stroke-opacity="1.0" stroke="rgb(0, 0, 0)" stroke-linejoin="round" d=" M 507.373, 578.604 507.194, 588.602 507.138, 591.750 507.014, 598.653 506.891, 605.545 506.768, 612.426 506.645, 619.296 506.522, 626.155 506.400, 633.003 506.277, 639.839 506.155, 646.665 506.033, 653.480 505.910, 660.327 " />
            <path fill="none" stroke-width="3.0" stroke-linecap="butt" stroke-opacity="1.0" stroke="rgb(0, 0, 0)" stroke-linejoin="round" d=" M 509.358, 578.594 513.391, 586.935 513.483, 587.126 516.449, 593.259 520.305, 601.236 523.339, 607.511 527.119, 615.331 530.221, 621.747 532.249, 625.940 533.927, 629.411 537.097, 635.968 539.600, 641.145 543.249, 641.423 550.131, 641.948 553.792, 642.227 555.809, 640.119 557.326, 638.535 559.302, 636.471 562.005, 631.750 565.435, 625.761 567.253, 622.587 569.451, 618.747 572.822, 612.862 574.622, 609.719 576.938, 605.675 580.248, 599.895 582.032, 596.780 584.465, 592.533 587.714, 586.858 589.239, 584.195 " />
            <path fill="none" stroke-width="3.0" stroke-linecap="butt" stroke-opacity="1.0" stroke="rgb(0, 0, 0)" stroke-linejoin="round" d=" M 510.105, 529.183 513.190, 535.634 514.915, 539.242 516.747, 543.072 520.008, 549.891 521.711, 553.453 523.619, 557.442 526.818, 564.132 528.501, 567.646 530.484, 571.797 533.621, 578.358 535.281, 581.828 537.341, 586.135 540.417, 592.568 542.055, 595.993 544.191, 600.459 547.378, 607.125 547.638, 606.666 550.913, 600.893 551.784, 599.357 553.305, 596.675 555.109, 593.494 558.481, 587.549 560.778, 583.497 562.619, 580.252 566.089, 574.133 568.291, 570.249 570.170, 566.937 573.739, 560.643 575.845, 556.929 577.761, 553.550 581.431, 547.080 583.440, 543.538 585.393, 540.092 588.917, 533.880 590.758, 532.388 592.142, 531.268 593.946, 529.807 599.761, 530.149 606.727, 530.560 613.707, 530.971 621.402, 531.425 621.184, 538.469 620.967, 545.457 620.750, 552.434 620.534, 559.400 620.318, 566.355 620.103, 573.298 619.888, 580.231 619.673, 587.152 619.459, 594.062 619.245, 600.960 619.031, 607.848 618.818, 614.724 618.605, 621.590 618.392, 628.444 618.180, 635.288 617.968, 642.120 617.756, 648.942 617.545, 655.752 617.333, 662.595 615.688, 664.828 614.426, 666.540 612.747, 668.820 605.054, 668.208 598.075, 667.654 591.111, 667.100 586.971, 666.771 587.161, 659.845 587.350, 652.952 587.540, 646.047 587.730, 639.131 587.920, 632.204 588.111, 625.265 588.302, 618.315 588.493, 611.354 588.684, 604.382 588.876, 597.398 589.151, 587.402 589.239, 584.195 589.242, 584.078 589.352, 580.080 " />
            <path fill="none" stroke-width="3.0" stroke-linecap="butt" stroke-opacity="1.0" stroke="rgb(0, 0, 0)" stroke-linejoin="round" d=" M 516.359, 525.234 514.116, 526.650 512.395, 527.737 510.105, 529.183 504.161, 528.829 497.289, 528.420 490.431, 528.011 482.903, 527.562 " />
            <path fill="none" stroke-width="3.0" stroke-linecap="butt" stroke-opacity="1.0" stroke="rgb(0, 0, 0)" stroke-linejoin="round" d=" M 503.190, 584.559 507.373, 578.604 507.373, 578.604 509.358, 578.594 513.546, 578.573 516.988, 578.556 517.019, 578.556 " />
            <path fill="none" stroke-width="3.0" stroke-linecap="butt" stroke-opacity="1.0" stroke="rgb(0, 0, 0)" stroke-linejoin="round" d=" M 582.618, 591.849 579.321, 597.612 576.852, 601.925 575.042, 605.088 571.684, 610.958 569.335, 615.063 567.508, 618.256 564.088, 624.232 561.857, 628.130 560.013, 631.354 556.533, 637.434 553.792, 642.227 " />
            <path fill="none" stroke-width="3.0" stroke-linecap="butt" stroke-opacity="1.0" stroke="rgb(0, 0, 0)" stroke-linejoin="round" d=" M 616.813, 535.543 616.595, 542.701 616.378, 549.804 616.162, 556.894 615.946, 563.973 615.730, 571.041 615.515, 578.096 615.300, 585.141 615.086, 592.173 614.871, 599.194 614.657, 606.204 614.444, 613.202 614.231, 620.188 614.018, 627.163 613.806, 634.127 613.594, 641.080 613.382, 648.021 613.170, 654.951 612.959, 661.869 612.747, 668.820 " />
            <path fill="none" stroke-width="3.0" stroke-linecap="butt" stroke-opacity="1.0" stroke="rgb(0, 0, 0)" stroke-linejoin="round" d=" M 621.402, 531.425 619.757, 532.902 618.494, 534.035 616.813, 535.543 608.994, 535.077 601.902, 534.654 594.825, 534.232 588.917, 533.880 " />
            <path fill="none" stroke-width="3.0" stroke-linecap="butt" stroke-opacity="1.0" stroke="rgb(0, 0, 0)" stroke-linejoin="round" d=" M 593.443, 583.676 590.844, 581.392 589.352, 580.080 586.939, 584.298 582.618, 591.849 586.932, 584.298 " />
            <path fill="none" stroke-width="3.0" stroke-linecap="butt" stroke-opacity="1.0" stroke="rgb(0, 0, 0)" stroke-linejoin="round" d=" M 589.352, 580.080 586.932, 584.298 " />
            <path fill="none" stroke-width="3.0" stroke-linecap="butt" stroke-opacity="1.0" stroke="rgb(0, 0, 0)" stroke-linejoin="round" d=" M 429.315, 595.763 425.074, 589.868 420.689, 583.775 415.531, 576.606 409.690, 568.489 409.388, 568.069 404.318, 561.021 398.477, 552.904 398.087, 552.362 393.105, 545.437 387.264, 537.319 386.787, 536.656 381.891, 529.852 376.050, 521.735 373.094, 517.627 363.112, 517.038 362.471, 517.000 354.072, 516.504 345.382, 520.204 345.392, 530.204 345.399, 537.739 345.409, 547.739 345.412, 551.179 345.422, 561.179 345.426, 564.578 345.435, 574.578 345.439, 577.935 345.449, 587.935 345.452, 591.251 345.462, 601.251 345.465, 604.525 345.475, 614.525 345.478, 617.758 345.488, 627.758 345.491, 630.950 345.501, 640.950 345.508, 648.040 353.905, 648.708 363.873, 649.501 369.384, 649.939 377.603, 644.249 377.631, 634.249 377.650, 627.358 377.678, 617.358 377.687, 614.319 377.715, 604.319 377.723, 601.240 377.751, 591.240 377.760, 588.121 377.784, 579.323 " />
            <path fill="none" stroke-width="3.0" stroke-linecap="butt" stroke-opacity="1.0" stroke="rgb(0, 0, 0)" stroke-linejoin="round" d=" M 369.384, 649.939 369.403, 639.939 369.416, 632.790 369.434, 622.790 369.440, 619.552 369.458, 609.552 369.464, 606.272 369.482, 596.272 369.488, 592.951 369.506, 582.951 369.525, 572.951 369.534, 567.988 375.419, 576.073 377.784, 579.323 378.612, 580.460 384.498, 588.544 384.802, 588.962 390.035, 596.152 395.920, 604.236 396.305, 604.765 401.458, 611.845 407.343, 619.930 407.809, 620.570 412.884, 627.539 418.769, 635.624 420.584, 638.118 424.841, 643.965 430.726, 652.050 432.867, 654.990 442.835, 655.784 444.638, 655.927 453.295, 656.616 460.289, 650.747 460.414, 640.748 460.503, 633.652 460.628, 623.653 460.668, 620.456 460.793, 610.457 460.833, 607.219 460.958, 597.220 460.999, 593.941 461.125, 583.942 461.166, 580.622 461.291, 570.622 461.333, 567.261 461.458, 557.261 461.501, 553.858 461.626, 543.859 461.669, 540.413 461.794, 530.414 461.886, 523.056 453.228, 522.544 443.245, 521.954 437.382, 521.607 429.935, 525.439 429.847, 535.439 429.780, 543.008 429.692, 553.008 429.660, 556.616 429.572, 566.616 429.541, 570.181 429.453, 580.181 429.422, 583.703 429.333, 593.703 429.315, 595.763 429.303, 597.183 429.215, 607.183 429.181, 610.997 " />
            <path fill="none" stroke-width="3.0" stroke-linecap="butt" stroke-opacity="1.0" stroke="rgb(0, 0, 0)" stroke-linejoin="round" d=" M 429.181, 610.997 425.026, 605.220 419.186, 597.103 417.502, 594.763 413.047, 588.572 407.806, 581.286 401.965, 573.169 401.564, 572.612 396.412, 565.450 390.571, 557.333 390.081, 556.652 385.018, 549.615 379.179, 541.496 378.600, 540.691 373.624, 533.779 367.783, 525.662 364.685, 521.356 " />
            <path fill="none" stroke-width="3.0" stroke-linecap="butt" stroke-opacity="1.0" stroke="rgb(0, 0, 0)" stroke-linejoin="round" d=" M 373.094, 517.627 364.685, 521.356 354.703, 520.760 353.905, 520.713 345.382, 520.204 " />
            <path fill="none" stroke-width="3.0" stroke-linecap="butt" stroke-opacity="1.0" stroke="rgb(0, 0, 0)" stroke-linejoin="round" d=" M 453.295, 656.616 453.412, 646.616 453.498, 639.257 453.615, 629.258 453.655, 625.857 453.772, 615.857 453.812, 612.414 453.929, 602.414 453.970, 598.928 454.087, 588.929 454.128, 585.400 454.245, 575.401 454.287, 571.830 454.404, 561.830 454.446, 558.216 454.563, 548.216 454.606, 544.559 454.723, 534.559 454.812, 526.926 " />
            <path fill="none" stroke-width="3.0" stroke-linecap="butt" stroke-opacity="1.0" stroke="rgb(0, 0, 0)" stroke-linejoin="round" d=" M 461.886, 523.056 454.812, 526.926 446.022, 526.400 436.039, 525.804 429.935, 525.439 " />
            <path fill="none" stroke-width="3.0" stroke-linecap="butt" stroke-opacity="1.0" stroke="rgb(0, 0, 0)" stroke-linejoin="round" d=" M 586.939, 584.298 589.242, 584.078 " />
        </g>
    </g>
</svg>
