<?xml version='1.0' encoding='ascii'?>
<svg xmlns="http://www.w3.org/2000/svg" version="1.1" width="1080" height="1080">
    <g id="ViewLayer_LineSet" xmlns:inkscape="http://www.inkscape.org/namespaces/inkscape" inkscape:groupmode="lineset" inkscape:label="ViewLayer_LineSet">
        <g xmlns:inkscape="http://www.inkscape.org/namespaces/inkscape" inkscape:groupmode="layer" id="strokes" inkscape:label="strokes">
            <path fill="none" stroke-width="3.0" stroke-linecap="butt" stroke-opacity="1.0" stroke="rgb(0, 0, 0)" stroke-linejoin="round" d=" M 692.846, 648.635 693.244, 638.643 693.444, 633.617 693.842, 623.625 694.045, 618.546 694.443, 608.554 694.648, 603.421 695.046, 593.429 695.253, 588.243 695.651, 578.251 695.860, 573.011 696.258, 563.019 696.469, 557.724 696.867, 547.732 697.080, 542.383 697.478, 532.391 697.878, 522.358 687.894, 521.789 677.911, 521.221 668.904, 520.708 664.701, 525.074 664.341, 535.068 663.981, 545.061 663.970, 545.379 663.610, 555.372 663.409, 560.933 663.049, 570.927 662.851, 576.431 662.491, 586.424 662.295, 591.873 661.935, 601.867 661.741, 607.260 661.381, 617.253 661.188, 622.591 660.828, 632.585 660.638, 637.868 660.278, 647.861 660.090, 653.090 659.730, 663.083 659.380, 672.798 669.349, 673.591 679.317, 674.384 688.348, 675.102 692.071, 668.080 692.469, 658.088 692.846, 648.635 " />
            <path fill="none" stroke-width="3.0" stroke-linecap="butt" stroke-opacity="1.0" stroke="rgb(0, 0, 0)" stroke-linejoin="round" d=" M 688.348, 675.102 688.742, 665.110 689.129, 655.314 689.523, 645.322 689.731, 640.031 690.126, 630.039 690.336, 624.692 690.731, 614.700 690.944, 609.298 691.338, 599.306 691.553, 593.849 691.947, 583.857 692.165, 578.343 692.559, 568.351 692.779, 562.781 693.173, 552.789 693.395, 547.163 693.789, 537.171 694.183, 527.179 694.199, 526.774 " />
            <path fill="none" stroke-width="3.0" stroke-linecap="butt" stroke-opacity="1.0" stroke="rgb(0, 0, 0)" stroke-linejoin="round" d=" M 697.878, 522.358 694.199, 526.774 684.216, 526.199 674.232, 525.624 664.701, 525.074 " />
            <path fill="none" stroke-width="3.0" stroke-linecap="butt" stroke-opacity="1.0" stroke="rgb(0, 0, 0)" stroke-linejoin="round" d=" M 557.108, 593.782 554.990, 589.347 552.680, 584.512 550.909, 580.804 547.583, 573.837 545.354, 569.174 543.560, 565.416 540.166, 558.311 538.020, 553.818 536.202, 550.010 532.741, 542.765 530.677, 538.444 528.835, 534.587 525.308, 527.201 523.326, 523.053 521.460, 519.145 518.123, 512.158 511.681, 511.791 504.235, 511.367 496.804, 510.944 488.650, 510.479 486.011, 511.936 483.985, 513.055 481.285, 514.546 481.171, 522.294 481.058, 529.980 480.944, 537.653 480.832, 545.312 480.719, 552.958 480.606, 560.590 480.494, 568.208 480.382, 575.813 480.270, 583.404 480.158, 590.982 480.047, 598.547 479.935, 606.098 479.824, 613.636 479.713, 621.161 479.602, 628.672 479.492, 636.171 479.381, 643.656 479.271, 651.128 479.161, 658.634 487.313, 659.282 494.741, 659.873 502.186, 660.466 506.626, 660.819 509.128, 658.403 511.007, 656.589 513.454, 654.227 513.593, 646.819 513.731, 639.444 513.870, 632.057 514.009, 624.657 514.148, 617.244 514.287, 609.818 514.427, 602.379 514.567, 594.927 514.707, 587.462 514.847, 579.984 514.848, 579.924 " />
            <path fill="none" stroke-width="3.0" stroke-linecap="butt" stroke-opacity="1.0" stroke="rgb(0, 0, 0)" stroke-linejoin="round" d=" M 508.245, 570.799 508.065, 580.797 507.984, 585.292 507.847, 592.900 507.711, 600.495 507.574, 608.076 507.438, 615.644 507.303, 623.199 507.167, 630.740 507.032, 638.268 506.896, 645.782 506.762, 653.283 506.626, 660.819 " />
            <path fill="none" stroke-width="3.0" stroke-linecap="butt" stroke-opacity="1.0" stroke="rgb(0, 0, 0)" stroke-linejoin="round" d=" M 510.432, 570.785 514.783, 579.789 514.848, 579.924 514.976, 580.188 518.242, 586.945 522.489, 595.734 525.831, 602.646 529.993, 611.262 533.409, 618.330 535.642, 622.949 537.490, 626.772 540.981, 633.995 543.736, 639.697 547.758, 640.002 555.344, 640.578 559.379, 640.884 561.564, 638.573 563.205, 636.837 565.340, 634.578 568.319, 629.384 572.101, 622.793 574.105, 619.298 576.530, 615.072 580.248, 608.591 582.234, 605.130 584.789, 600.675 588.443, 594.307 590.412, 590.875 593.098, 586.193 596.686, 579.939 598.524, 576.733 " />
            <path fill="none" stroke-width="3.0" stroke-linecap="butt" stroke-opacity="1.0" stroke="rgb(0, 0, 0)" stroke-linejoin="round" d=" M 511.262, 516.273 514.662, 523.387 516.563, 527.365 518.582, 531.589 522.175, 539.107 524.052, 543.035 526.155, 547.433 529.680, 554.809 531.534, 558.684 533.719, 563.259 537.175, 570.492 539.004, 574.318 541.274, 579.065 544.662, 586.157 546.466, 589.931 548.820, 594.853 552.331, 602.201 552.618, 601.695 556.233, 595.325 557.108, 593.782 558.874, 590.672 560.866, 587.161 564.591, 580.599 567.130, 576.126 569.164, 572.542 572.999, 565.784 575.434, 561.494 577.510, 557.835 581.458, 550.881 583.787, 546.776 585.907, 543.041 589.967, 535.887 592.190, 531.970 594.353, 528.159 598.254, 521.287 600.223, 519.725 601.701, 518.553 603.625, 517.027 610.042, 517.393 617.729, 517.831 625.435, 518.269 633.931, 518.753 633.679, 526.527 633.428, 534.239 633.179, 541.938 632.930, 549.622 632.681, 557.293 632.432, 564.950 632.185, 572.594 631.937, 580.224 631.690, 587.840 631.444, 595.443 631.197, 603.033 630.952, 610.609 630.706, 618.171 630.462, 625.720 630.217, 633.256 629.973, 640.779 629.730, 648.288 629.487, 655.784 629.242, 663.314 627.510, 665.777 626.179, 667.669 624.405, 670.189 615.911, 669.513 608.208, 668.900 600.522, 668.289 595.954, 667.926 596.171, 660.294 596.388, 652.698 596.605, 645.088 596.823, 637.464 597.041, 629.826 597.259, 622.175 597.477, 614.510 597.696, 606.831 597.916, 599.139 598.136, 591.432 598.421, 581.436 598.555, 576.730 598.557, 576.677 598.681, 572.317 " />
            <path fill="none" stroke-width="3.0" stroke-linecap="butt" stroke-opacity="1.0" stroke="rgb(0, 0, 0)" stroke-linejoin="round" d=" M 518.123, 512.158 515.665, 513.632 513.777, 514.765 511.262, 516.273 504.710, 515.896 497.136, 515.459 489.579, 515.024 481.285, 514.546 " />
            <path fill="none" stroke-width="3.0" stroke-linecap="butt" stroke-opacity="1.0" stroke="rgb(0, 0, 0)" stroke-linejoin="round" d=" M 503.637, 577.370 508.246, 570.799 508.247, 570.799 510.432, 570.785 515.021, 570.757 518.695, 570.734 518.874, 570.733 " />
            <path fill="none" stroke-width="3.0" stroke-linecap="butt" stroke-opacity="1.0" stroke="rgb(0, 0, 0)" stroke-linejoin="round" d=" M 591.231, 585.316 587.585, 591.678 584.855, 596.440 582.854, 599.930 579.141, 606.407 576.546, 610.936 574.526, 614.459 570.749, 621.049 568.285, 625.347 566.248, 628.901 562.406, 635.603 559.379, 640.884 " />
            <path fill="none" stroke-width="3.0" stroke-linecap="butt" stroke-opacity="1.0" stroke="rgb(0, 0, 0)" stroke-linejoin="round" d=" M 629.097, 523.064 628.844, 530.979 628.594, 538.830 628.344, 546.666 628.095, 554.489 627.846, 562.297 627.597, 570.091 627.349, 577.871 627.101, 585.636 626.854, 593.388 626.608, 601.126 626.361, 608.850 626.115, 616.559 625.870, 624.255 625.625, 631.937 625.381, 639.605 625.136, 647.260 624.893, 654.901 624.650, 662.527 624.405, 670.189 " />
            <path fill="none" stroke-width="3.0" stroke-linecap="butt" stroke-opacity="1.0" stroke="rgb(0, 0, 0)" stroke-linejoin="round" d=" M 633.931, 518.753 632.199, 520.297 630.869, 521.484 629.097, 523.064 620.449, 522.566 612.607, 522.114 604.784, 521.663 598.254, 521.287 " />
            <path fill="none" stroke-width="3.0" stroke-linecap="butt" stroke-opacity="1.0" stroke="rgb(0, 0, 0)" stroke-linejoin="round" d=" M 603.196, 576.281 600.262, 573.705 598.681, 572.317 596.010, 576.977 591.231, 585.316 596.004, 576.977 " />
            <path fill="none" stroke-width="3.0" stroke-linecap="butt" stroke-opacity="1.0" stroke="rgb(0, 0, 0)" stroke-linejoin="round" d=" M 598.681, 572.317 596.004, 576.977 " />
            <path fill="none" stroke-width="3.0" stroke-linecap="butt" stroke-opacity="1.0" stroke="rgb(0, 0, 0)" stroke-linejoin="round" d=" M 381.280, 587.730 377.550, 582.545 372.738, 575.857 367.075, 567.987 361.235, 559.870 360.332, 558.616 354.767, 550.879 348.926, 542.762 347.927, 541.374 342.458, 533.772 336.618, 525.655 335.523, 524.133 330.150, 516.665 324.309, 508.548 320.493, 503.245 310.510, 502.673 308.929, 502.582 299.788, 502.058 290.387, 505.467 289.276, 505.870 289.351, 515.869 289.421, 525.172 289.495, 535.171 289.531, 539.961 289.606, 549.961 289.641, 554.700 289.716, 564.699 289.751, 569.388 289.826, 579.388 289.860, 584.026 289.935, 594.026 289.969, 598.615 290.044, 608.614 290.078, 613.153 290.153, 623.153 290.186, 627.643 290.261, 637.643 290.327, 646.407 299.465, 647.138 309.433, 647.935 316.317, 648.486 324.792, 643.178 326.237, 642.273 326.205, 632.273 326.177, 623.747 326.145, 613.747 326.131, 609.443 326.098, 599.443 326.084, 595.090 326.051, 585.090 326.037, 580.689 326.010, 572.274 " />
            <path fill="none" stroke-width="3.0" stroke-linecap="butt" stroke-opacity="1.0" stroke="rgb(0, 0, 0)" stroke-linejoin="round" d=" M 316.317, 648.486 316.272, 638.486 316.233, 629.650 316.189, 619.650 316.169, 615.105 316.125, 605.105 316.105, 600.510 316.060, 590.510 316.040, 585.865 315.996, 575.865 315.952, 565.865 315.919, 558.409 321.803, 566.494 325.894, 572.115 326.010, 572.274 331.895, 580.359 332.695, 581.458 338.445, 589.359 344.330, 597.444 345.336, 598.825 350.998, 606.605 356.882, 614.690 357.976, 616.194 363.552, 623.853 369.437, 631.938 372.014, 635.479 376.691, 641.904 382.576, 649.989 385.510, 654.021 395.478, 654.818 398.355, 655.048 407.805, 655.804 415.770, 649.758 416.272, 649.377 416.346, 639.377 416.410, 630.607 416.483, 620.607 416.516, 616.113 416.590, 606.113 416.623, 601.569 416.696, 591.570 416.730, 586.976 416.803, 576.977 416.837, 572.333 416.911, 562.333 416.945, 557.640 417.018, 547.640 417.053, 542.896 417.127, 532.897 417.162, 528.102 417.235, 518.102 417.302, 508.995 407.850, 508.453 397.867, 507.881 390.559, 507.462 381.524, 511.425 381.492, 521.425 381.462, 530.789 381.430, 540.789 381.414, 545.781 381.382, 555.781 381.366, 560.721 381.334, 570.721 381.319, 575.610 381.287, 585.610 381.280, 587.730 381.271, 590.447 381.239, 600.447 381.223, 605.646 " />
            <path fill="none" stroke-width="3.0" stroke-linecap="butt" stroke-opacity="1.0" stroke="rgb(0, 0, 0)" stroke-linejoin="round" d=" M 381.223, 605.646 376.655, 599.295 370.815, 591.177 368.383, 587.797 363.485, 580.991 357.722, 572.981 351.882, 564.864 350.860, 563.443 345.196, 555.569 339.355, 547.452 338.235, 545.896 332.669, 538.159 326.831, 530.040 325.614, 528.348 320.142, 520.748 314.302, 512.631 310.315, 507.090 " />
            <path fill="none" stroke-width="3.0" stroke-linecap="butt" stroke-opacity="1.0" stroke="rgb(0, 0, 0)" stroke-linejoin="round" d=" M 320.493, 503.245 311.139, 506.779 310.315, 507.090 300.332, 506.511 298.564, 506.408 289.276, 505.870 " />
            <path fill="none" stroke-width="3.0" stroke-linecap="butt" stroke-opacity="1.0" stroke="rgb(0, 0, 0)" stroke-linejoin="round" d=" M 407.805, 655.804 407.868, 645.805 407.926, 636.716 407.989, 626.716 408.019, 621.975 408.083, 611.975 408.113, 607.182 408.176, 597.182 408.207, 592.338 408.271, 582.339 408.302, 577.443 408.365, 567.443 408.396, 562.496 408.460, 552.496 408.492, 547.496 408.555, 537.496 408.587, 532.444 408.651, 522.444 408.710, 513.003 " />
            <path fill="none" stroke-width="3.0" stroke-linecap="butt" stroke-opacity="1.0" stroke="rgb(0, 0, 0)" stroke-linejoin="round" d=" M 417.302, 508.995 408.710, 513.003 399.101, 512.445 389.118, 511.866 381.524, 511.425 " />
            <path fill="none" stroke-width="3.0" stroke-linecap="butt" stroke-opacity="1.0" stroke="rgb(0, 0, 0)" stroke-linejoin="round" d=" M 596.010, 576.977 598.524, 576.733 598.555, 576.730 " />
        </g>
    </g>
</svg>
