<?xml version='1.0' encoding='ascii'?>
<svg xmlns="http://www.w3.org/2000/svg" version="1.1" width="1080" height="1080">
    <g id="ViewLayer_LineSet" xmlns:inkscape="http://www.inkscape.org/namespaces/inkscape" inkscape:groupmode="lineset" inkscape:label="ViewLayer_LineSet">
        <g xmlns:inkscape="http://www.inkscape.org/namespaces/inkscape" inkscape:groupmode="layer" id="strokes" inkscape:label="strokes">
            <path fill="none" stroke-width="3.0" stroke-linecap="butt" stroke-opacity="1.0" stroke="rgb(0, 0, 0)" stroke-linejoin="round" d=" M 744.327, 637.177 738.454, 645.271 737.376, 646.756 730.392, 653.913 728.892, 655.450 719.358, 658.467 719.172, 658.526 711.800, 660.835 701.835, 660.002 694.082, 659.354 686.946, 656.031 677.978, 651.608 677.229, 651.238 671.228, 643.239 670.084, 641.714 665.091, 633.050 662.910, 629.265 660.847, 619.480 659.725, 614.155 660.138, 604.163 660.369, 598.580 663.172, 588.981 664.660, 583.882 670.019, 576.396 " />
            <path fill="none" stroke-width="3.0" stroke-linecap="butt" stroke-opacity="1.0" stroke="rgb(0, 0, 0)" stroke-linejoin="round" d=" M 636.330, 654.539 641.954, 662.808 644.061, 665.905 651.164, 672.944 653.005, 674.768 660.865, 680.951 661.293, 681.288 669.923, 686.340 671.839, 687.461 681.389, 690.428 689.096, 692.823 699.067, 693.589 707.189, 694.214 717.088, 692.797 724.971, 691.669 734.213, 687.850 735.967, 687.125 744.709, 682.269 745.025, 682.093 752.977, 676.030 754.957, 674.520 761.582, 667.029 763.885, 664.425 769.187, 656.211 773.983, 647.436 774.284, 646.884 776.588, 639.972 779.245, 630.332 781.143, 623.447 781.528, 613.455 781.811, 606.113 780.044, 596.270 778.752, 589.071 774.925, 579.832 774.747, 579.403 770.354, 570.469 764.721, 562.207 762.546, 559.018 755.507, 551.915 753.622, 550.012 745.665, 543.955 745.119, 543.539 736.534, 538.411 734.650, 537.285 725.032, 534.546 717.144, 532.299 707.158, 531.779 699.083, 531.358 689.239, 533.119 681.555, 534.493 672.448, 538.624 670.988, 539.286 662.427, 544.453 662.204, 544.587 654.466, 550.922 652.749, 552.328 648.070, 557.476 641.604, 565.105 639.426, 567.675 634.345, 576.009 629.709, 584.869 629.567, 585.141 627.095, 594.830 625.339, 601.716 624.994, 611.710 624.742, 618.991 626.597, 628.818 627.942, 635.945 631.752, 645.191 631.982, 645.750 636.330, 654.539 " />
            <path fill="none" stroke-width="3.0" stroke-linecap="butt" stroke-opacity="1.0" stroke="rgb(0, 0, 0)" stroke-linejoin="round" d=" M 742.772, 642.121 736.897, 650.213 734.327, 653.752 727.339, 660.906 725.686, 662.598 716.149, 665.605 715.783, 665.720 708.275, 668.064 698.310, 667.220 690.225, 666.535 682.955, 663.143 673.989, 658.713 673.054, 658.251 667.053, 650.251 665.772, 648.543 660.778, 639.879 658.459, 635.857 656.392, 626.073 655.207, 620.463 655.615, 610.472 655.855, 604.600 658.654, 595.000 660.219, 589.632 666.039, 581.501 668.513, 578.044 670.019, 576.396 676.589, 569.207 686.050, 565.969 686.946, 565.662 694.447, 563.306 704.428, 563.916 712.433, 564.405 719.686, 567.750 728.689, 572.103 729.952, 572.714 735.977, 580.695 737.364, 582.532 742.434, 591.152 744.897, 595.339 746.978, 605.120 748.232, 611.018 747.773, 621.008 747.492, 627.113 744.492, 636.652 744.327, 637.177 742.772, 642.121 " />
            <path fill="none" stroke-width="3.0" stroke-linecap="butt" stroke-opacity="1.0" stroke="rgb(0, 0, 0)" stroke-linejoin="round" d=" M 774.284, 646.884 776.941, 637.244 778.923, 630.053 779.305, 620.060 779.599, 612.392 777.830, 602.549 776.477, 595.023 772.649, 585.785 772.393, 585.168 767.978, 576.195 767.912, 576.060 762.279, 567.798 759.951, 564.383 752.913, 557.279 750.851, 555.199 742.897, 549.139 742.183, 548.595 733.601, 543.463 731.511, 542.213 721.895, 539.468 713.669, 537.119 703.683, 536.592 695.264, 536.147 685.419, 537.900 677.406, 539.328 668.297, 543.454 666.643, 544.203 658.080, 549.367 657.697, 549.598 649.958, 555.931 648.070, 557.476 " />
            <path fill="none" stroke-width="3.0" stroke-linecap="butt" stroke-opacity="1.0" stroke="rgb(0, 0, 0)" stroke-linejoin="round" d=" M 506.045, 631.485 513.151, 632.019 523.123, 632.768 524.863, 632.899 534.824, 633.774 540.913, 634.309 550.906, 633.925 558.042, 633.651 566.922, 628.847 575.124, 623.127 576.256, 622.337 582.256, 616.003 588.073, 607.870 588.389, 607.429 593.311, 599.483 595.538, 589.734 597.112, 582.845 596.091, 572.897 595.326, 565.440 591.107, 556.374 590.756, 555.617 585.556, 547.075 585.210, 546.507 578.223, 539.353 576.844, 537.941 568.794, 532.009 567.324, 530.926 557.580, 528.679 550.107, 526.955 540.115, 526.539 533.856, 526.279 523.874, 525.690 518.238, 525.358 508.255, 524.769 502.693, 524.442 492.710, 523.853 486.227, 523.471 478.420, 528.005 478.276, 538.004 478.131, 548.003 478.119, 548.832 477.975, 558.831 477.889, 564.786 477.745, 574.785 477.660, 580.680 477.515, 590.679 477.431, 596.516 477.287, 606.515 477.203, 612.294 477.059, 622.293 476.976, 628.013 476.832, 638.012 476.750, 643.675 476.606, 653.674 476.525, 659.279 476.381, 669.278 476.236, 679.277 476.233, 679.480 486.199, 680.305 492.694, 680.842 502.660, 681.667 505.145, 681.873 512.160, 674.746 512.356, 674.548 512.543, 664.549 512.728, 654.623 512.915, 644.625 513.016, 639.233 513.151, 632.019 " />
            <path fill="none" stroke-width="3.0" stroke-linecap="butt" stroke-opacity="1.0" stroke="rgb(0, 0, 0)" stroke-linejoin="round" d=" M 505.145, 681.873 505.324, 671.874 505.502, 661.876 505.507, 661.588 505.686, 651.590 505.787, 645.920 505.966, 635.921 506.045, 631.485 " />
            <path fill="none" stroke-width="3.0" stroke-linecap="butt" stroke-opacity="1.0" stroke="rgb(0, 0, 0)" stroke-linejoin="round" d=" M 557.033, 599.695 551.785, 602.421 541.812, 601.675 532.300, 600.964 522.324, 600.269 513.755, 599.671 513.942, 589.673 514.129, 579.675 514.177, 577.111 514.364, 567.113 514.470, 561.439 514.561, 556.544 " />
            <path fill="none" stroke-width="3.0" stroke-linecap="butt" stroke-opacity="1.0" stroke="rgb(0, 0, 0)" stroke-linejoin="round" d=" M 506.506, 605.636 506.685, 595.638 506.863, 585.640 506.916, 582.662 507.095, 572.663 507.201, 566.700 507.380, 556.701 507.391, 556.070 514.561, 556.544 524.539, 557.202 526.455, 557.329 536.445, 557.761 545.049, 558.133 553.422, 563.599 558.570, 566.959 559.945, 576.864 561.248, 586.257 558.255, 595.798 557.033, 599.695 556.040, 602.860 " />
            <path fill="none" stroke-width="3.0" stroke-linecap="butt" stroke-opacity="1.0" stroke="rgb(0, 0, 0)" stroke-linejoin="round" d=" M 576.256, 622.337 582.072, 614.202 582.496, 613.610 587.503, 605.522 589.724, 595.772 591.362, 588.577 590.336, 578.630 589.532, 570.845 585.311, 561.779 584.871, 560.833 579.670, 552.292 579.217, 551.548 572.232, 544.392 570.691, 542.813 562.643, 536.878 560.991, 535.660 551.249, 533.405 543.456, 531.601 533.465, 531.178 526.909, 530.900 516.927, 530.304 511.007, 529.950 501.025, 529.354 495.181, 529.005 485.199, 528.409 478.420, 528.005 " />
            <path fill="none" stroke-width="3.0" stroke-linecap="butt" stroke-opacity="1.0" stroke="rgb(0, 0, 0)" stroke-linejoin="round" d=" M 556.040, 602.860 547.164, 607.466 545.222, 608.473 535.250, 607.718 525.384, 606.971 515.409, 606.266 506.506, 605.636 513.755, 599.671 " />
            <path fill="none" stroke-width="3.0" stroke-linecap="butt" stroke-opacity="1.0" stroke="rgb(0, 0, 0)" stroke-linejoin="round" d=" M 379.682, 569.069 378.802, 567.649 373.531, 559.151 371.740, 556.263 366.884, 548.434 361.613, 539.936 358.878, 535.527 353.923, 527.536 348.652, 519.038 347.012, 516.394 337.030, 515.804 327.047, 515.214 317.065, 514.623 316.687, 514.601 307.386, 518.274 305.825, 518.891 311.162, 527.348 316.499, 535.804 320.545, 542.215 325.882, 550.672 330.935, 558.677 336.271, 567.134 341.608, 575.591 343.157, 578.045 348.494, 586.502 351.470, 591.218 356.208, 598.727 350.524, 606.953 344.839, 615.180 344.077, 616.282 339.038, 623.575 333.353, 631.802 332.039, 633.704 326.806, 641.276 322.247, 647.874 316.562, 656.101 310.878, 664.328 308.254, 668.124 318.220, 668.953 328.185, 669.782 338.151, 670.611 338.583, 670.647 346.810, 664.960 348.716, 663.642 354.369, 655.393 360.095, 647.037 365.747, 638.788 367.662, 635.994 372.384, 629.102 375.331, 624.801 " />
            <path fill="none" stroke-width="3.0" stroke-linecap="butt" stroke-opacity="1.0" stroke="rgb(0, 0, 0)" stroke-linejoin="round" d=" M 360.095, 647.037 354.788, 654.781 349.136, 663.030 348.716, 663.642 " />
            <path fill="none" stroke-width="3.0" stroke-linecap="butt" stroke-opacity="1.0" stroke="rgb(0, 0, 0)" stroke-linejoin="round" d=" M 338.583, 670.647 344.229, 662.393 344.749, 661.633 350.135, 653.759 355.780, 645.505 357.817, 642.527 362.612, 635.517 368.257, 627.263 369.850, 624.934 372.784, 620.645 375.331, 624.801 380.556, 633.328 382.712, 636.846 387.494, 644.650 392.719, 653.176 395.255, 657.315 400.480, 665.841 400.600, 666.037 405.825, 674.563 406.907, 676.329 416.873, 677.157 426.839, 677.986 436.804, 678.815 437.972, 678.912 445.554, 672.392 446.419, 671.649 441.104, 663.178 435.788, 654.708 432.283, 649.121 427.704, 641.825 422.465, 633.476 417.149, 625.005 415.483, 622.350 410.475, 614.369 405.160, 605.899 399.845, 597.428 398.484, 595.260 403.236, 588.510 408.990, 580.331 411.603, 576.618 417.358, 568.440 423.113, 560.263 423.985, 559.025 429.362, 551.383 434.581, 543.967 440.336, 535.789 446.091, 527.611 449.713, 522.466 439.730, 521.875 429.748, 521.285 419.765, 520.695 418.623, 520.628 409.651, 525.044 409.532, 525.102 403.915, 533.375 402.228, 535.860 397.149, 543.342 391.532, 551.615 388.788, 555.656 383.781, 563.032 379.682, 569.069 374.065, 577.342 372.876, 579.094 " />
            <path fill="none" stroke-width="3.0" stroke-linecap="butt" stroke-opacity="1.0" stroke="rgb(0, 0, 0)" stroke-linejoin="round" d=" M 372.876, 579.094 369.069, 572.958 363.797, 564.460 361.872, 561.358 356.923, 553.381 351.651, 544.884 348.764, 540.231 343.714, 532.090 338.442, 523.593 336.671, 520.738 " />
            <path fill="none" stroke-width="3.0" stroke-linecap="butt" stroke-opacity="1.0" stroke="rgb(0, 0, 0)" stroke-linejoin="round" d=" M 347.012, 516.394 337.793, 520.267 336.671, 520.738 326.689, 520.140 316.707, 519.543 306.724, 518.945 305.825, 518.891 " />
            <path fill="none" stroke-width="3.0" stroke-linecap="butt" stroke-opacity="1.0" stroke="rgb(0, 0, 0)" stroke-linejoin="round" d=" M 437.972, 678.912 432.655, 670.442 427.339, 661.972 423.566, 655.962 418.903, 648.527 413.561, 640.023 408.246, 631.552 406.449, 628.687 401.343, 620.557 396.026, 612.088 390.710, 603.618 389.123, 601.090 " />
            <path fill="none" stroke-width="3.0" stroke-linecap="butt" stroke-opacity="1.0" stroke="rgb(0, 0, 0)" stroke-linejoin="round" d=" M 423.985, 559.025 418.229, 567.202 416.700, 569.374 411.603, 576.618 " />
            <path fill="none" stroke-width="3.0" stroke-linecap="butt" stroke-opacity="1.0" stroke="rgb(0, 0, 0)" stroke-linejoin="round" d=" M 398.484, 595.260 389.996, 600.546 389.123, 601.090 393.949, 594.221 399.697, 586.038 402.449, 582.120 407.630, 574.746 413.379, 566.563 415.029, 564.214 420.493, 556.436 425.797, 548.887 431.545, 540.704 437.294, 532.522 441.175, 526.997 " />
            <path fill="none" stroke-width="3.0" stroke-linecap="butt" stroke-opacity="1.0" stroke="rgb(0, 0, 0)" stroke-linejoin="round" d=" M 449.713, 522.466 441.175, 526.997 431.193, 526.399 421.211, 525.801 411.229, 525.203 409.532, 525.102 " />
        </g>
    </g>
</svg>
