<?xml version='1.0' encoding='ascii'?>
<svg xmlns="http://www.w3.org/2000/svg" version="1.1" width="1080" height="1080">
    <g id="ViewLayer_LineSet" xmlns:inkscape="http://www.inkscape.org/namespaces/inkscape" inkscape:groupmode="lineset" inkscape:label="ViewLayer_LineSet">
        <g xmlns:inkscape="http://www.inkscape.org/namespaces/inkscape" inkscape:groupmode="layer" id="strokes" inkscape:label="strokes">
            <path fill="none" stroke-width="3.0" stroke-linecap="butt" stroke-opacity="1.0" stroke="rgb(0, 0, 0)" stroke-linejoin="round" d=" M 673.998, 648.208 674.374, 638.215 674.564, 633.189 674.940, 623.196 675.131, 618.117 675.507, 608.124 675.700, 602.992 676.076, 592.999 676.271, 587.813 676.647, 577.820 676.845, 572.580 677.221, 562.587 677.420, 557.293 677.796, 547.300 677.997, 541.951 678.373, 531.958 678.751, 521.924 668.767, 521.355 658.783, 520.785 649.859, 520.276 645.300, 524.635 644.963, 534.629 644.625, 544.623 644.615, 544.940 644.277, 554.935 644.089, 560.495 643.752, 570.489 643.566, 575.994 643.228, 585.988 643.044, 591.437 642.707, 601.431 642.525, 606.824 642.187, 616.819 642.007, 622.157 641.669, 632.151 641.491, 637.434 641.154, 647.428 640.977, 652.657 640.639, 662.651 640.311, 672.366 650.280, 673.160 660.248, 673.955 669.198, 674.668 673.266, 667.654 673.643, 657.661 673.998, 648.208 " />
            <path fill="none" stroke-width="3.0" stroke-linecap="butt" stroke-opacity="1.0" stroke="rgb(0, 0, 0)" stroke-linejoin="round" d=" M 669.198, 674.668 669.569, 664.675 669.934, 654.879 670.305, 644.886 670.502, 639.595 670.874, 629.602 671.072, 624.256 671.444, 614.263 671.645, 608.861 672.016, 598.868 672.219, 593.411 672.591, 583.418 672.796, 577.904 673.168, 567.911 673.375, 562.342 673.746, 552.349 673.956, 546.723 674.327, 536.729 674.699, 526.736 674.714, 526.333 " />
            <path fill="none" stroke-width="3.0" stroke-linecap="butt" stroke-opacity="1.0" stroke="rgb(0, 0, 0)" stroke-linejoin="round" d=" M 678.751, 521.924 674.714, 526.333 664.730, 525.756 654.747, 525.180 645.300, 524.635 " />
            <path fill="none" stroke-width="3.0" stroke-linecap="butt" stroke-opacity="1.0" stroke="rgb(0, 0, 0)" stroke-linejoin="round" d=" M 439.371, 588.856 438.333, 586.702 436.001, 581.866 434.214, 578.158 430.857, 571.191 428.609, 566.527 426.797, 562.769 423.373, 555.663 421.207, 551.169 419.372, 547.361 415.880, 540.116 413.797, 535.795 411.938, 531.937 408.378, 524.551 406.379, 520.402 404.495, 516.494 401.127, 509.506 394.800, 509.141 387.484, 508.720 380.186, 508.300 372.175, 507.839 368.779, 509.279 366.171, 510.384 362.697, 511.857 362.689, 519.608 362.681, 527.297 362.673, 534.972 362.665, 542.633 362.658, 550.281 362.650, 557.916 362.642, 565.536 362.634, 573.144 362.627, 580.737 362.619, 588.318 362.611, 595.885 362.603, 603.438 362.596, 610.979 362.588, 618.506 362.580, 626.020 362.573, 633.520 362.565, 641.007 362.558, 648.482 362.550, 655.990 370.558, 656.635 377.854, 657.223 385.167, 657.813 389.528, 658.164 392.786, 655.765 395.232, 653.965 398.418, 651.619 398.457, 644.209 398.495, 636.832 398.534, 629.442 398.573, 622.040 398.611, 614.624 398.650, 607.196 398.689, 599.755 398.728, 592.301 398.767, 584.834 398.783, 581.906 " />
            <path fill="none" stroke-width="3.0" stroke-linecap="butt" stroke-opacity="1.0" stroke="rgb(0, 0, 0)" stroke-linejoin="round" d=" M 389.906, 568.116 389.864, 578.116 389.845, 582.614 389.813, 590.224 389.782, 597.822 389.750, 605.405 389.718, 612.975 389.686, 620.532 389.655, 628.076 389.623, 635.606 389.592, 643.123 389.560, 650.626 389.528, 658.164 " />
            <path fill="none" stroke-width="3.0" stroke-linecap="butt" stroke-opacity="1.0" stroke="rgb(0, 0, 0)" stroke-linejoin="round" d=" M 392.052, 568.102 396.435, 577.090 396.637, 577.505 398.783, 581.906 399.932, 584.263 404.218, 593.053 407.590, 599.966 411.790, 608.582 415.237, 615.651 417.490, 620.270 419.354, 624.094 422.877, 631.317 425.657, 637.020 429.607, 637.323 437.058, 637.896 441.022, 638.201 443.979, 635.907 446.199, 634.185 449.089, 631.942 451.944, 626.746 455.570, 620.151 457.491, 616.655 459.815, 612.426 463.379, 605.942 467.732, 598.021 471.234, 591.650 473.122, 588.216 475.697, 583.532 478.535, 578.367 " />
            <path fill="none" stroke-width="3.0" stroke-linecap="butt" stroke-opacity="1.0" stroke="rgb(0, 0, 0)" stroke-linejoin="round" d=" M 392.133, 513.573 395.565, 520.687 397.484, 524.666 399.522, 528.890 403.148, 536.409 405.043, 540.337 407.165, 544.736 410.723, 552.112 412.595, 555.987 414.800, 560.563 418.289, 567.797 420.134, 571.623 422.425, 576.371 425.845, 583.463 427.666, 587.238 430.042, 592.161 433.585, 599.509 433.860, 599.002 437.322, 592.630 439.371, 588.856 439.851, 587.973 441.758, 584.461 445.325, 577.895 447.756, 573.420 449.703, 569.834 453.375, 563.073 455.707, 558.780 457.695, 555.119 461.475, 548.161 463.705, 544.053 465.735, 540.316 469.623, 533.159 471.751, 529.240 473.822, 525.426 477.557, 518.551 480.329, 517.007 482.409, 515.849 485.118, 514.341 491.421, 514.704 498.973, 515.138 506.541, 515.574 514.887, 516.054 514.742, 523.831 514.599, 531.545 514.455, 539.246 514.312, 546.933 514.169, 554.606 514.026, 562.266 513.883, 569.912 513.741, 577.544 513.599, 585.163 513.457, 592.768 513.316, 600.360 513.175, 607.939 513.034, 615.503 512.893, 623.055 512.752, 630.593 512.612, 638.118 512.472, 645.630 512.332, 653.128 512.192, 660.661 509.694, 663.106 507.776, 664.985 505.220, 667.487 496.876, 666.815 489.309, 666.205 481.760, 665.597 477.272, 665.235 477.383, 657.601 477.494, 650.002 477.604, 642.390 477.715, 634.764 477.826, 627.124 477.938, 619.470 478.049, 611.802 478.161, 604.121 478.273, 596.426 478.385, 588.717 478.530, 578.718 478.535, 578.367 478.598, 574.011 478.663, 569.596 " />
            <path fill="none" stroke-width="3.0" stroke-linecap="butt" stroke-opacity="1.0" stroke="rgb(0, 0, 0)" stroke-linejoin="round" d=" M 401.127, 509.506 397.905, 510.963 395.430, 512.082 392.133, 513.573 385.699, 513.198 378.261, 512.764 370.841, 512.332 362.697, 511.857 " />
            <path fill="none" stroke-width="3.0" stroke-linecap="butt" stroke-opacity="1.0" stroke="rgb(0, 0, 0)" stroke-linejoin="round" d=" M 385.473, 574.691 389.906, 568.116 389.906, 568.116 392.052, 568.102 398.855, 568.056 400.334, 568.046 " />
            <path fill="none" stroke-width="3.0" stroke-linecap="butt" stroke-opacity="1.0" stroke="rgb(0, 0, 0)" stroke-linejoin="round" d=" M 463.379, 605.942 465.282, 602.478 467.732, 598.021 " />
            <path fill="none" stroke-width="3.0" stroke-linecap="butt" stroke-opacity="1.0" stroke="rgb(0, 0, 0)" stroke-linejoin="round" d=" M 471.527, 582.602 468.035, 588.968 465.421, 593.732 463.504, 597.225 459.949, 603.705 457.463, 608.237 455.529, 611.761 451.911, 618.355 449.551, 622.655 447.600, 626.211 443.920, 632.917 441.022, 638.201 " />
            <path fill="none" stroke-width="3.0" stroke-linecap="butt" stroke-opacity="1.0" stroke="rgb(0, 0, 0)" stroke-linejoin="round" d=" M 507.844, 520.316 507.703, 528.232 507.563, 536.086 507.423, 543.925 507.283, 551.750 507.144, 559.560 507.005, 567.357 506.866, 575.139 506.728, 582.907 506.590, 590.662 506.452, 598.402 506.314, 606.128 506.176, 613.840 506.039, 621.539 505.902, 629.223 505.765, 636.894 505.629, 644.551 505.492, 652.194 505.356, 659.823 505.220, 667.487 " />
            <path fill="none" stroke-width="3.0" stroke-linecap="butt" stroke-opacity="1.0" stroke="rgb(0, 0, 0)" stroke-linejoin="round" d=" M 514.887, 516.054 512.364, 517.581 510.426, 518.753 507.844, 520.316 499.353, 519.821 491.652, 519.372 483.969, 518.924 477.557, 518.551 " />
            <path fill="none" stroke-width="3.0" stroke-linecap="butt" stroke-opacity="1.0" stroke="rgb(0, 0, 0)" stroke-linejoin="round" d=" M 483.146, 573.560 481.821, 572.388 478.663, 569.596 476.105, 574.258 471.527, 582.602 476.099, 574.259 " />
            <path fill="none" stroke-width="3.0" stroke-linecap="butt" stroke-opacity="1.0" stroke="rgb(0, 0, 0)" stroke-linejoin="round" d=" M 478.663, 569.596 476.099, 574.259 " />
            <path fill="none" stroke-width="3.0" stroke-linecap="butt" stroke-opacity="1.0" stroke="rgb(0, 0, 0)" stroke-linejoin="round" d=" M 244.530, 580.921 243.512, 579.507 238.700, 572.819 233.038, 564.948 227.198, 556.831 226.296, 555.577 220.732, 547.840 214.891, 539.723 213.893, 538.335 208.424, 530.733 202.585, 522.616 201.490, 521.094 196.117, 513.626 190.277, 505.509 186.462, 500.206 176.479, 499.627 175.139, 499.549 166.189, 499.029 156.589, 501.832 153.316, 502.787 153.547, 512.785 153.763, 522.096 153.995, 532.094 154.106, 536.891 154.338, 546.888 154.448, 551.635 154.680, 561.632 154.789, 566.328 155.021, 576.326 155.128, 580.972 155.360, 590.969 155.467, 595.565 155.699, 605.563 155.804, 610.109 156.036, 620.107 156.140, 624.604 156.372, 634.601 156.575, 643.374 165.522, 644.101 175.489, 644.911 182.021, 645.441 190.952, 640.941 194.247, 639.280 194.059, 629.282 193.899, 620.749 193.712, 610.750 193.631, 606.439 193.443, 596.441 193.362, 592.081 193.174, 582.083 193.092, 577.675 193.003, 572.927 " />
            <path fill="none" stroke-width="3.0" stroke-linecap="butt" stroke-opacity="1.0" stroke="rgb(0, 0, 0)" stroke-linejoin="round" d=" M 182.021, 645.441 181.819, 635.443 181.641, 626.599 181.439, 616.601 181.347, 612.048 181.145, 602.050 181.052, 597.448 180.850, 587.450 180.756, 582.798 180.554, 572.800 180.352, 562.802 180.201, 555.332 186.084, 563.419 190.173, 569.038 193.003, 572.927 196.971, 578.381 202.719, 586.282 208.603, 594.368 209.607, 595.748 215.267, 603.528 221.150, 611.614 222.243, 613.117 227.817, 620.775 233.700, 628.862 236.275, 632.401 240.950, 638.827 246.834, 646.913 249.766, 650.943 259.733, 651.753 262.343, 651.965 271.594, 652.716 280.214, 647.647 282.432, 646.343 282.348, 636.343 282.274, 627.566 282.190, 617.567 282.152, 613.067 282.068, 603.067 282.030, 598.518 281.946, 588.518 281.908, 583.920 281.823, 573.920 281.784, 569.271 281.700, 559.272 281.661, 554.573 281.577, 544.573 281.537, 539.824 281.453, 529.825 281.413, 525.025 281.329, 515.025 281.252, 505.911 271.998, 505.373 262.015, 504.794 255.068, 504.390 245.603, 507.617 243.603, 508.298 243.731, 518.297 243.850, 527.669 243.978, 537.668 244.041, 542.667 244.169, 552.666 244.232, 557.612 244.360, 567.611 244.422, 572.506 244.530, 580.921 244.612, 587.348 244.739, 597.348 244.806, 602.553 " />
            <path fill="none" stroke-width="3.0" stroke-linecap="butt" stroke-opacity="1.0" stroke="rgb(0, 0, 0)" stroke-linejoin="round" d=" M 244.806, 602.553 240.238, 596.202 234.398, 588.084 231.967, 584.705 227.070, 577.898 221.308, 569.888 215.468, 561.771 214.446, 560.350 208.783, 552.477 202.943, 544.359 201.823, 542.803 196.258, 535.066 190.420, 526.947 189.204, 525.255 183.732, 517.655 177.892, 509.538 173.906, 503.997 " />
            <path fill="none" stroke-width="3.0" stroke-linecap="butt" stroke-opacity="1.0" stroke="rgb(0, 0, 0)" stroke-linejoin="round" d=" M 186.462, 500.206 176.889, 503.097 173.906, 503.997 163.923, 503.411 162.406, 503.322 153.316, 502.787 " />
            <path fill="none" stroke-width="3.0" stroke-linecap="butt" stroke-opacity="1.0" stroke="rgb(0, 0, 0)" stroke-linejoin="round" d=" M 271.594, 652.716 271.497, 642.717 271.409, 633.621 271.312, 623.621 271.266, 618.874 271.169, 608.875 271.123, 604.077 271.026, 594.077 270.979, 589.227 270.882, 579.228 270.835, 574.327 270.738, 564.327 270.690, 559.374 270.593, 549.374 270.545, 544.369 270.448, 534.369 270.399, 529.311 270.302, 519.312 270.211, 509.863 " />
            <path fill="none" stroke-width="3.0" stroke-linecap="butt" stroke-opacity="1.0" stroke="rgb(0, 0, 0)" stroke-linejoin="round" d=" M 281.252, 505.911 271.837, 509.281 270.211, 509.863 260.806, 509.310 250.824, 508.723 243.603, 508.298 " />
            <path fill="none" stroke-width="3.0" stroke-linecap="butt" stroke-opacity="1.0" stroke="rgb(0, 0, 0)" stroke-linejoin="round" d=" M 1084.734, 635.686 1078.189, 643.246 1072.686, 649.604 1066.141, 657.164 1059.596, 664.724 1055.464, 669.497 1058.443, 676.583 1068.415, 677.337 1078.386, 678.091 1088.358, 678.845 1092.356, 679.147 " />
            <path fill="none" stroke-width="3.0" stroke-linecap="butt" stroke-opacity="1.0" stroke="rgb(0, 0, 0)" stroke-linejoin="round" d=" M 1081.719, 649.763 1075.999, 656.353 1069.445, 663.906 1062.891, 671.458 1058.443, 676.583 " />
            <path fill="none" stroke-width="3.0" stroke-linecap="butt" stroke-opacity="1.0" stroke="rgb(0, 0, 0)" stroke-linejoin="round" d=" M 1099.688, 524.738 1089.703, 524.198 1079.718, 523.658 1069.732, 523.117 1065.791, 522.904 1071.064, 531.401 1076.337, 539.897 1080.012, 545.819 " />
            <path fill="none" stroke-width="3.0" stroke-linecap="butt" stroke-opacity="1.0" stroke="rgb(0, 0, 0)" stroke-linejoin="round" d=" M 1103.570, 529.244 1093.585, 528.698 1083.600, 528.152 1073.615, 527.606 1069.016, 527.354 " />
            <path fill="none" stroke-width="3.0" stroke-linecap="butt" stroke-opacity="1.0" stroke="rgb(0, 0, 0)" stroke-linejoin="round" d=" M 1065.791, 522.904 1069.016, 527.354 1074.289, 535.851 1079.563, 544.347 1083.504, 550.698 " />
            <path fill="none" stroke-width="3.0" stroke-linecap="butt" stroke-opacity="1.0" stroke="rgb(0, 0, 0)" stroke-linejoin="round" d=" M 476.105, 574.258 478.598, 574.011 " />
        </g>
    </g>
</svg>
