<?xml version='1.0' encoding='ascii'?>
<svg xmlns="http://www.w3.org/2000/svg" version="1.1" width="1080" height="1080">
    <g id="ViewLayer_LineSet" xmlns:inkscape="http://www.inkscape.org/namespaces/inkscape" inkscape:groupmode="lineset" inkscape:label="ViewLayer_LineSet">
        <g xmlns:inkscape="http://www.inkscape.org/namespaces/inkscape" inkscape:groupmode="layer" id="strokes" inkscape:label="strokes">
            <path fill="none" stroke-width="3.0" stroke-linecap="butt" stroke-opacity="1.0" stroke="rgb(0, 0, 0)" stroke-linejoin="round" d=" M 1069.628, 585.410 1073.678, 592.370 1075.518, 602.199 1076.558, 607.752 1075.717, 617.717 1075.225, 623.545 1071.786, 632.935 1069.831, 638.275 1063.593, 646.090 1060.716, 649.694 1053.438, 656.552 1051.498, 658.381 1041.913, 661.234 1041.181, 661.451 1033.359, 663.757 1023.391, 662.957 1014.808, 662.268 1007.435, 658.943 998.412, 654.630 997.402, 654.147 991.393, 646.155 990.241, 644.623 985.293, 635.933 983.855, 633.406 " />
            <path fill="none" stroke-width="3.0" stroke-linecap="butt" stroke-opacity="1.0" stroke="rgb(0, 0, 0)" stroke-linejoin="round" d=" M 1081.233, 552.989 1073.212, 547.017 1072.537, 546.514 1063.891, 541.490 1061.768, 540.257 1052.124, 537.612 1043.566, 535.265 1033.578, 534.765 1024.636, 534.316 1014.775, 535.981 1006.119, 537.442 996.916, 541.352 994.853, 542.229 986.138, 547.132 985.440, 547.524 977.471, 553.564 975.236, 555.258 968.440, 562.594 965.963, 565.268 960.427, 573.449 955.372, 582.077 955.176, 582.413 952.264, 591.980 950.225, 598.682 949.500, 608.656 948.993, 615.639 950.591, 625.511 951.687, 632.280 952.783, 638.897 956.470, 648.192 956.672, 648.700 960.921, 657.489 966.535, 665.764 968.631, 668.854 975.785, 675.841 977.708, 677.719 985.632, 683.818 986.181, 684.240 994.873, 689.184 997.039, 690.416 1006.619, 693.282 1014.981, 695.784 1024.954, 696.520 1033.946, 697.183 1043.856, 695.845 1052.728, 694.647 1062.054, 691.037 1064.450, 690.110 1073.330, 685.511 1074.155, 685.084 1082.324, 679.316 1084.870, 677.518 " />
            <path fill="none" stroke-width="3.0" stroke-linecap="butt" stroke-opacity="1.0" stroke="rgb(0, 0, 0)" stroke-linejoin="round" d=" M 984.860, 638.822 983.855, 633.406 982.030, 623.574 982.004, 623.433 982.796, 613.464 983.264, 607.575 986.509, 598.116 988.397, 592.614 994.592, 584.765 997.537, 581.034 1004.600, 573.955 1006.347, 572.203 1015.868, 569.144 1017.362, 568.664 1025.331, 566.313 1035.314, 566.899 1044.195, 567.420 1051.695, 570.767 1060.752, 575.007 1062.304, 575.733 1068.339, 583.707 1069.628, 585.410 1069.736, 585.552 " />
            <path fill="none" stroke-width="3.0" stroke-linecap="butt" stroke-opacity="1.0" stroke="rgb(0, 0, 0)" stroke-linejoin="round" d=" M 1069.736, 585.552 1074.765, 594.196 1077.187, 598.358 1079.026, 608.187 1080.119, 614.034 1079.273, 623.998 1078.753, 630.123 1075.307, 639.510 1073.245, 645.124 1066.998, 652.932 1063.945, 656.747 1056.658, 663.596 1054.541, 665.586 1044.952, 668.426 1044.019, 668.702 1036.041, 671.042 1026.074, 670.232 1017.127, 669.505 1009.609, 666.111 1000.589, 661.793 999.382, 661.216 993.373, 653.223 992.083, 651.508 987.135, 642.818 984.860, 638.822 " />
            <path fill="none" stroke-width="3.0" stroke-linecap="butt" stroke-opacity="1.0" stroke="rgb(0, 0, 0)" stroke-linejoin="round" d=" M 1084.909, 558.234 1076.889, 552.261 1076.040, 551.629 1067.395, 546.603 1065.056, 545.244 1055.413, 542.595 1046.490, 540.143 1036.503, 539.636 1027.182, 539.163 1017.320, 540.819 1008.297, 542.334 999.089, 546.236 996.807, 547.203 988.087, 552.098 987.207, 552.592 979.232, 558.625 976.801, 560.463 969.999, 567.794 967.345, 570.654 961.700, 578.983 956.640, 587.608 956.345, 588.110 953.430, 597.675 951.296, 604.678 950.570, 614.651 950.039, 621.947 951.637, 631.819 952.783, 638.897 " />
            <path fill="none" stroke-width="3.0" stroke-linecap="butt" stroke-opacity="1.0" stroke="rgb(0, 0, 0)" stroke-linejoin="round" d=" M 711.718, 633.342 714.838, 633.570 724.811, 634.300 731.122, 634.761 741.085, 635.613 747.667, 636.176 757.660, 635.807 765.375, 635.523 774.258, 630.930 774.660, 630.722 782.991, 625.190 784.455, 624.217 790.518, 616.264 791.106, 615.493 796.468, 607.409 798.322, 601.335 800.828, 591.654 802.628, 584.701 801.802, 574.735 801.186, 567.299 797.028, 558.205 796.695, 557.477 791.517, 548.922 791.181, 548.367 784.164, 541.242 782.743, 539.800 774.651, 533.925 773.078, 532.784 763.322, 530.590 755.397, 528.809 745.405, 528.403 738.639, 528.128 728.655, 527.554 722.538, 527.203 712.554, 526.629 706.513, 526.282 696.529, 525.708 689.539, 525.307 685.620, 529.876 685.236, 539.868 684.852, 549.861 684.819, 550.698 684.435, 560.691 684.206, 566.649 683.821, 576.641 683.594, 582.540 683.210, 592.532 682.985, 598.372 682.601, 608.365 682.379, 614.146 681.994, 624.139 681.774, 629.862 681.390, 639.855 681.172, 645.520 680.787, 655.513 680.572, 661.121 680.187, 671.114 679.803, 681.107 679.795, 681.318 689.763, 682.121 696.765, 682.685 706.733, 683.488 709.602, 683.719 713.025, 676.360 713.449, 666.369 713.869, 656.439 714.292, 646.448 714.521, 641.052 714.838, 633.570 " />
            <path fill="none" stroke-width="3.0" stroke-linecap="butt" stroke-opacity="1.0" stroke="rgb(0, 0, 0)" stroke-linejoin="round" d=" M 709.602, 683.719 710.021, 673.728 710.441, 663.736 710.454, 663.439 710.873, 653.448 711.111, 647.774 711.531, 637.782 711.718, 633.342 " />
            <path fill="none" stroke-width="3.0" stroke-linecap="butt" stroke-opacity="1.0" stroke="rgb(0, 0, 0)" stroke-linejoin="round" d=" M 766.039, 598.965 757.084, 603.416 755.389, 604.259 745.415, 603.533 735.309, 602.797 725.332, 602.120 716.197, 601.499 716.620, 591.508 717.043, 581.517 717.152, 578.944 717.575, 568.953 717.816, 563.275 718.033, 558.146 " />
            <path fill="none" stroke-width="3.0" stroke-linecap="butt" stroke-opacity="1.0" stroke="rgb(0, 0, 0)" stroke-linejoin="round" d=" M 712.803, 607.499 713.222, 597.508 713.642, 587.517 713.768, 584.529 714.187, 574.538 714.438, 568.571 714.857, 558.580 714.884, 557.944 718.033, 558.146 728.013, 558.788 734.545, 559.208 744.536, 559.629 753.732, 560.017 762.149, 565.418 767.491, 568.845 768.681, 578.774 769.803, 588.140 766.519, 597.585 766.039, 598.965 764.032, 604.738 " />
            <path fill="none" stroke-width="3.0" stroke-linecap="butt" stroke-opacity="1.0" stroke="rgb(0, 0, 0)" stroke-linejoin="round" d=" M 796.468, 607.409 798.974, 597.728 800.853, 590.468 800.025, 580.503 799.380, 572.740 795.221, 563.646 794.802, 562.729 789.623, 554.174 789.180, 553.443 782.164, 546.318 780.580, 544.709 772.489, 538.832 770.729, 537.553 760.974, 535.354 752.712, 533.491 742.720, 533.077 735.637, 532.784 725.654, 532.204 719.234, 531.830 709.251, 531.250 702.909, 530.881 692.926, 530.300 685.620, 529.876 " />
            <path fill="none" stroke-width="3.0" stroke-linecap="butt" stroke-opacity="1.0" stroke="rgb(0, 0, 0)" stroke-linejoin="round" d=" M 764.032, 604.738 755.074, 609.182 752.726, 610.347 742.753, 609.612 732.780, 608.876 732.271, 608.839 722.294, 608.152 712.803, 607.499 716.197, 601.499 " />
            <path fill="none" stroke-width="3.0" stroke-linecap="butt" stroke-opacity="1.0" stroke="rgb(0, 0, 0)" stroke-linejoin="round" d=" M 518.989, 572.816 516.746, 569.187 511.488, 560.681 509.707, 557.800 504.867, 549.969 499.609, 541.463 496.887, 537.060 491.948, 529.068 486.690, 520.562 485.060, 517.924 475.077, 517.344 465.094, 516.764 455.111, 516.184 454.080, 516.124 445.800, 520.443 451.125, 528.907 456.451, 537.371 460.477, 543.771 465.803, 552.235 470.837, 560.235 476.162, 568.700 481.487, 577.164 483.024, 579.606 488.350, 588.070 491.313, 592.781 496.038, 600.291 490.177, 608.393 484.316, 616.495 483.341, 617.843 478.066, 625.135 472.205, 633.237 470.740, 635.262 465.264, 642.833 460.492, 649.429 454.631, 657.531 448.770, 665.634 445.846, 669.676 455.813, 670.489 465.780, 671.303 475.746, 672.117 476.832, 672.206 484.177, 665.420 484.446, 665.172 490.272, 657.044 496.098, 648.917 496.347, 648.569 502.173, 640.442 504.261, 637.528 509.200, 630.638 513.833, 624.174 " />
            <path fill="none" stroke-width="3.0" stroke-linecap="butt" stroke-opacity="1.0" stroke="rgb(0, 0, 0)" stroke-linejoin="round" d=" M 496.347, 648.569 490.796, 656.312 484.971, 664.440 484.446, 665.172 " />
            <path fill="none" stroke-width="3.0" stroke-linecap="butt" stroke-opacity="1.0" stroke="rgb(0, 0, 0)" stroke-linejoin="round" d=" M 476.832, 672.206 482.655, 664.076 483.287, 663.194 488.925, 655.321 494.748, 647.191 496.968, 644.091 501.987, 637.082 507.810, 628.952 509.565, 626.501 512.636, 622.214 513.833, 624.174 519.044, 632.709 522.529, 638.417 527.293, 646.222 532.504, 654.757 535.026, 658.888 540.237, 667.424 540.352, 667.612 545.562, 676.147 546.636, 677.905 556.602, 678.719 566.569, 679.533 576.536, 680.346 578.373, 680.496 584.223, 673.203 578.919, 664.725 573.616, 656.247 570.128, 650.672 565.564, 643.374 560.339, 635.024 555.036, 626.546 553.379, 623.897 548.385, 615.914 543.082, 607.437 537.779, 598.959 536.430, 596.803 541.396, 590.053 547.322, 581.998 550.143, 578.164 556.069, 570.110 561.996, 562.055 563.085, 560.574 568.706, 552.934 574.162, 545.519 580.088, 537.464 586.014, 529.410 589.978, 524.021 579.995, 523.441 570.012, 522.861 560.029, 522.281 558.217, 522.176 551.792, 526.680 545.998, 534.830 544.145, 537.436 538.826, 544.917 533.031, 553.067 530.072, 557.229 524.828, 564.604 518.989, 572.816 513.410, 580.662 " />
            <path fill="none" stroke-width="3.0" stroke-linecap="butt" stroke-opacity="1.0" stroke="rgb(0, 0, 0)" stroke-linejoin="round" d=" M 513.410, 580.662 509.615, 574.525 504.357, 566.020 502.442, 562.924 497.510, 554.946 492.251, 546.440 489.378, 541.794 484.344, 533.652 479.086, 525.146 477.325, 522.298 " />
            <path fill="none" stroke-width="3.0" stroke-linecap="butt" stroke-opacity="1.0" stroke="rgb(0, 0, 0)" stroke-linejoin="round" d=" M 485.060, 517.924 477.325, 522.298 467.342, 521.711 457.360, 521.123 447.377, 520.536 445.800, 520.443 " />
            <path fill="none" stroke-width="3.0" stroke-linecap="butt" stroke-opacity="1.0" stroke="rgb(0, 0, 0)" stroke-linejoin="round" d=" M 578.373, 680.496 573.068, 672.019 567.764, 663.542 564.011, 657.543 559.361, 650.107 554.035, 641.602 548.733, 633.124 546.944, 630.264 541.854, 622.133 536.550, 613.656 531.246, 605.178 529.671, 602.662 " />
            <path fill="none" stroke-width="3.0" stroke-linecap="butt" stroke-opacity="1.0" stroke="rgb(0, 0, 0)" stroke-linejoin="round" d=" M 563.085, 560.574 557.159, 568.629 555.472, 570.922 550.143, 578.164 " />
            <path fill="none" stroke-width="3.0" stroke-linecap="butt" stroke-opacity="1.0" stroke="rgb(0, 0, 0)" stroke-linejoin="round" d=" M 536.430, 596.803 529.671, 602.662 534.721, 595.795 540.644, 587.737 543.615, 583.696 549.035, 576.324 554.958, 568.267 556.777, 565.793 562.493, 558.017 568.043, 550.469 573.966, 542.412 579.889, 534.355 584.133, 528.583 " />
            <path fill="none" stroke-width="3.0" stroke-linecap="butt" stroke-opacity="1.0" stroke="rgb(0, 0, 0)" stroke-linejoin="round" d=" M 589.978, 524.021 584.133, 528.583 574.150, 527.996 564.167, 527.409 554.184, 526.821 551.792, 526.680 " />
        </g>
    </g>
</svg>
