<?xml version='1.0' encoding='ascii'?>
<svg xmlns="http://www.w3.org/2000/svg" version="1.1" width="1080" height="1080">
    <g id="ViewLayer_LineSet" xmlns:inkscape="http://www.inkscape.org/namespaces/inkscape" inkscape:groupmode="lineset" inkscape:label="ViewLayer_LineSet">
        <g xmlns:inkscape="http://www.inkscape.org/namespaces/inkscape" inkscape:groupmode="layer" id="strokes" inkscape:label="strokes">
            <path fill="none" stroke-width="3.0" stroke-linecap="butt" stroke-opacity="1.0" stroke="rgb(0, 0, 0)" stroke-linejoin="round" d=" M 692.846, 648.635 693.244, 638.643 693.444, 633.617 693.842, 623.625 694.045, 618.546 694.443, 608.554 694.648, 603.421 695.046, 593.429 695.253, 588.243 695.651, 578.251 695.860, 573.011 696.258, 563.019 696.469, 557.724 696.867, 547.732 697.080, 542.383 697.478, 532.391 697.878, 522.358 687.894, 521.789 677.911, 521.221 668.904, 520.708 664.701, 525.074 664.341, 535.068 663.981, 545.061 663.970, 545.379 663.610, 555.372 663.409, 560.933 663.049, 570.927 662.851, 576.431 662.491, 586.424 662.295, 591.873 661.935, 601.867 661.741, 607.260 661.381, 617.253 661.188, 622.591 660.828, 632.585 660.638, 637.868 660.278, 647.861 660.090, 653.090 659.730, 663.083 659.380, 672.798 669.349, 673.591 679.317, 674.384 688.348, 675.102 692.071, 668.080 692.469, 658.088 692.846, 648.635 " />
            <path fill="none" stroke-width="3.0" stroke-linecap="butt" stroke-opacity="1.0" stroke="rgb(0, 0, 0)" stroke-linejoin="round" d=" M 688.348, 675.102 688.742, 665.110 689.129, 655.314 689.523, 645.322 689.731, 640.031 690.126, 630.039 690.336, 624.692 690.731, 614.700 690.944, 609.298 691.338, 599.306 691.553, 593.849 691.947, 583.857 692.165, 578.343 692.559, 568.351 692.779, 562.781 693.173, 552.789 693.395, 547.163 693.789, 537.171 694.183, 527.179 694.199, 526.774 " />
            <path fill="none" stroke-width="3.0" stroke-linecap="butt" stroke-opacity="1.0" stroke="rgb(0, 0, 0)" stroke-linejoin="round" d=" M 697.878, 522.358 694.199, 526.774 684.216, 526.199 674.232, 525.624 664.701, 525.074 " />
            <path fill="none" stroke-width="3.0" stroke-linecap="butt" stroke-opacity="1.0" stroke="rgb(0, 0, 0)" stroke-linejoin="round" d=" M 559.276, 593.872 557.138, 589.396 554.829, 584.560 553.058, 580.852 549.732, 573.886 547.504, 569.222 545.710, 565.465 542.317, 558.359 540.171, 553.866 538.353, 550.059 534.893, 542.814 532.830, 538.493 530.988, 534.636 527.461, 527.250 525.480, 523.102 523.614, 519.194 520.277, 512.207 513.834, 511.840 506.384, 511.416 498.952, 510.992 490.795, 510.528 488.170, 511.985 486.154, 513.104 483.469, 514.595 483.353, 522.343 483.238, 530.030 483.122, 537.703 483.008, 545.362 482.893, 553.007 482.778, 560.639 482.664, 568.257 482.550, 575.862 482.436, 583.454 482.323, 591.032 482.209, 598.596 482.096, 606.147 481.983, 613.685 481.870, 621.210 481.757, 628.721 481.645, 636.220 481.533, 643.705 481.421, 651.176 481.308, 658.682 489.463, 659.331 496.893, 659.922 504.341, 660.514 508.782, 660.868 511.271, 658.452 513.139, 656.638 515.572, 654.275 515.713, 646.867 515.853, 639.492 515.994, 632.105 516.134, 624.705 516.276, 617.292 516.417, 609.866 516.558, 602.427 516.700, 594.975 516.842, 587.511 516.984, 580.033 516.987, 579.889 " />
            <path fill="none" stroke-width="3.0" stroke-linecap="butt" stroke-opacity="1.0" stroke="rgb(0, 0, 0)" stroke-linejoin="round" d=" M 510.424, 570.848 510.242, 580.847 510.160, 585.341 510.021, 592.950 509.883, 600.544 509.744, 608.126 509.606, 615.693 509.468, 623.248 509.331, 630.789 509.194, 638.317 509.057, 645.831 508.920, 653.332 508.782, 660.868 " />
            <path fill="none" stroke-width="3.0" stroke-linecap="butt" stroke-opacity="1.0" stroke="rgb(0, 0, 0)" stroke-linejoin="round" d=" M 512.612, 570.835 516.987, 579.889 517.155, 580.237 520.420, 586.995 524.667, 595.783 528.008, 602.696 532.170, 611.311 535.586, 618.379 537.818, 622.998 539.665, 626.821 543.156, 634.044 545.910, 639.746 549.934, 640.051 557.522, 640.627 561.559, 640.934 563.730, 638.622 565.359, 636.886 567.481, 634.626 570.462, 629.433 574.247, 622.842 576.253, 619.347 578.680, 615.120 582.400, 608.640 584.388, 605.178 586.945, 600.724 590.601, 594.356 592.572, 590.924 595.260, 586.242 598.850, 579.988 600.687, 576.788 " />
            <path fill="none" stroke-width="3.0" stroke-linecap="butt" stroke-opacity="1.0" stroke="rgb(0, 0, 0)" stroke-linejoin="round" d=" M 513.456, 516.323 516.855, 523.437 518.756, 527.415 520.775, 531.638 524.367, 539.157 526.244, 543.084 528.346, 547.483 531.870, 554.858 533.724, 558.733 535.909, 563.309 539.365, 570.542 541.193, 574.367 543.462, 579.115 546.850, 586.206 548.654, 589.981 551.007, 594.903 554.517, 602.250 554.805, 601.744 558.423, 595.375 559.276, 593.872 561.066, 590.721 563.060, 587.211 566.787, 580.649 569.328, 576.176 571.363, 572.592 575.202, 565.834 577.638, 561.544 579.717, 557.885 583.667, 550.931 585.998, 546.826 588.120, 543.091 592.183, 535.937 594.408, 532.020 596.573, 528.209 600.476, 521.337 602.431, 519.775 603.898, 518.603 605.808, 517.077 612.226, 517.442 619.916, 517.880 627.624, 518.319 636.123, 518.803 635.869, 526.577 635.617, 534.289 635.365, 541.987 635.114, 549.672 634.863, 557.343 634.613, 565.000 634.363, 572.643 634.114, 580.273 633.865, 587.890 633.616, 595.492 633.368, 603.082 633.121, 610.658 632.873, 618.220 632.627, 625.769 632.380, 633.305 632.135, 640.828 631.889, 648.337 631.644, 655.833 631.398, 663.363 629.679, 665.826 628.359, 667.718 626.600, 670.239 618.103, 669.563 610.397, 668.950 602.709, 668.339 598.139, 667.975 598.359, 660.344 598.578, 652.747 598.797, 645.137 599.016, 637.513 599.236, 629.876 599.456, 622.225 599.677, 614.560 599.898, 606.881 600.119, 599.189 600.341, 591.482 600.629, 581.486 600.764, 576.781 600.768, 576.647 600.891, 572.367 " />
            <path fill="none" stroke-width="3.0" stroke-linecap="butt" stroke-opacity="1.0" stroke="rgb(0, 0, 0)" stroke-linejoin="round" d=" M 520.277, 512.207 517.833, 513.681 515.956, 514.814 513.456, 516.323 506.902, 515.945 499.325, 515.509 491.765, 515.073 483.469, 514.595 " />
            <path fill="none" stroke-width="3.0" stroke-linecap="butt" stroke-opacity="1.0" stroke="rgb(0, 0, 0)" stroke-linejoin="round" d=" M 505.813, 577.419 510.425, 570.848 510.426, 570.848 512.612, 570.835 517.160, 570.807 520.837, 570.784 521.057, 570.783 " />
            <path fill="none" stroke-width="3.0" stroke-linecap="butt" stroke-opacity="1.0" stroke="rgb(0, 0, 0)" stroke-linejoin="round" d=" M 593.435, 585.366 589.786, 591.728 587.054, 596.489 585.052, 599.980 581.336, 606.457 578.739, 610.986 576.718, 614.508 572.937, 621.098 570.471, 625.397 568.433, 628.950 564.588, 635.653 561.559, 640.934 " />
            <path fill="none" stroke-width="3.0" stroke-linecap="butt" stroke-opacity="1.0" stroke="rgb(0, 0, 0)" stroke-linejoin="round" d=" M 631.330, 523.115 631.075, 531.029 630.823, 538.880 630.571, 546.717 630.319, 554.539 630.068, 562.347 629.818, 570.141 629.568, 577.921 629.318, 585.687 629.069, 593.438 628.820, 601.176 628.572, 608.900 628.324, 616.609 628.077, 624.305 627.830, 631.987 627.583, 639.655 627.337, 647.310 627.092, 654.950 626.846, 662.577 626.600, 670.239 " />
            <path fill="none" stroke-width="3.0" stroke-linecap="butt" stroke-opacity="1.0" stroke="rgb(0, 0, 0)" stroke-linejoin="round" d=" M 636.123, 518.803 634.406, 520.348 633.087, 521.534 631.330, 523.115 622.679, 522.617 614.835, 522.165 607.008, 521.714 600.476, 521.337 " />
            <path fill="none" stroke-width="3.0" stroke-linecap="butt" stroke-opacity="1.0" stroke="rgb(0, 0, 0)" stroke-linejoin="round" d=" M 605.407, 576.332 602.443, 573.729 600.891, 572.367 598.219, 577.027 593.435, 585.366 598.212, 577.027 " />
            <path fill="none" stroke-width="3.0" stroke-linecap="butt" stroke-opacity="1.0" stroke="rgb(0, 0, 0)" stroke-linejoin="round" d=" M 600.891, 572.367 598.212, 577.027 " />
            <path fill="none" stroke-width="3.0" stroke-linecap="butt" stroke-opacity="1.0" stroke="rgb(0, 0, 0)" stroke-linejoin="round" d=" M 394.008, 588.355 390.031, 582.828 385.219, 576.140 379.556, 568.270 373.716, 560.153 372.813, 558.899 367.248, 551.162 361.407, 543.045 360.408, 541.657 354.939, 534.055 349.099, 525.937 348.004, 524.416 342.630, 516.948 336.790, 508.831 332.974, 503.528 322.990, 502.956 321.387, 502.864 312.228, 502.340 302.852, 505.817 301.936, 506.157 301.997, 516.156 302.052, 525.458 302.113, 535.458 302.141, 540.247 302.201, 550.247 302.230, 554.985 302.290, 564.985 302.318, 569.673 302.378, 579.673 302.406, 584.311 302.466, 594.310 302.494, 598.898 302.554, 608.898 302.581, 613.437 302.641, 623.437 302.668, 627.926 302.728, 637.926 302.781, 646.689 311.937, 647.420 321.905, 648.217 328.822, 648.769 337.242, 643.375 338.528, 642.551 338.510, 632.551 338.494, 624.027 338.476, 614.027 338.469, 609.722 338.450, 599.723 338.443, 595.370 338.425, 585.370 338.417, 580.970 338.401, 572.221 " />
            <path fill="none" stroke-width="3.0" stroke-linecap="butt" stroke-opacity="1.0" stroke="rgb(0, 0, 0)" stroke-linejoin="round" d=" M 328.822, 648.769 328.792, 638.769 328.766, 629.934 328.737, 619.934 328.723, 615.389 328.694, 605.389 328.680, 600.795 328.651, 590.795 328.637, 586.150 328.608, 576.150 328.578, 566.151 328.556, 558.695 334.441, 566.781 338.401, 572.221 338.532, 572.401 344.417, 580.486 345.333, 581.744 351.084, 589.645 356.969, 597.730 357.974, 599.112 363.637, 606.891 369.521, 614.977 370.616, 616.481 376.191, 624.139 382.076, 632.224 384.653, 635.765 389.331, 642.190 395.216, 650.276 398.150, 654.307 408.118, 655.104 411.021, 655.335 420.488, 656.092 428.373, 649.942 428.735, 649.659 428.823, 639.660 428.900, 630.890 428.988, 620.891 429.028, 616.397 429.116, 606.397 429.156, 601.853 429.244, 591.854 429.284, 587.261 429.372, 577.261 429.413, 572.618 429.501, 562.619 429.542, 557.926 429.630, 547.926 429.672, 543.182 429.760, 533.183 429.802, 528.389 429.890, 518.389 429.970, 509.282 420.500, 508.740 410.517, 508.168 403.176, 507.748 394.367, 511.716 394.320, 521.716 394.276, 531.079 394.229, 541.079 394.206, 546.071 394.159, 556.071 394.136, 561.011 394.089, 571.010 394.066, 575.898 394.019, 585.898 394.008, 588.355 393.997, 590.735 393.950, 600.735 393.926, 605.934 " />
            <path fill="none" stroke-width="3.0" stroke-linecap="butt" stroke-opacity="1.0" stroke="rgb(0, 0, 0)" stroke-linejoin="round" d=" M 393.926, 605.934 389.357, 599.583 383.517, 591.465 381.086, 588.085 376.188, 581.278 370.425, 573.269 364.584, 565.151 363.562, 563.731 357.898, 555.857 352.057, 547.740 350.937, 546.183 345.371, 538.447 339.533, 530.328 338.316, 528.635 332.844, 521.036 327.003, 512.919 323.017, 507.378 " />
            <path fill="none" stroke-width="3.0" stroke-linecap="butt" stroke-opacity="1.0" stroke="rgb(0, 0, 0)" stroke-linejoin="round" d=" M 332.974, 503.528 323.647, 507.134 323.017, 507.378 313.033, 506.799 311.243, 506.696 301.936, 506.157 " />
            <path fill="none" stroke-width="3.0" stroke-linecap="butt" stroke-opacity="1.0" stroke="rgb(0, 0, 0)" stroke-linejoin="round" d=" M 420.488, 656.092 420.566, 646.092 420.638, 637.004 420.716, 627.004 420.753, 622.263 420.832, 612.264 420.869, 607.471 420.947, 597.472 420.985, 592.628 421.064, 582.628 421.102, 577.733 421.180, 567.733 421.219, 562.786 421.298, 552.786 421.337, 547.787 421.415, 537.787 421.455, 532.736 421.533, 522.736 421.607, 513.295 " />
            <path fill="none" stroke-width="3.0" stroke-linecap="butt" stroke-opacity="1.0" stroke="rgb(0, 0, 0)" stroke-linejoin="round" d=" M 429.970, 509.282 421.607, 513.295 411.979, 512.737 401.996, 512.158 394.367, 511.716 " />
            <path fill="none" stroke-width="3.0" stroke-linecap="butt" stroke-opacity="1.0" stroke="rgb(0, 0, 0)" stroke-linejoin="round" d=" M 598.219, 577.027 600.687, 576.788 600.764, 576.781 " />
        </g>
    </g>
</svg>
