<?xml version='1.0' encoding='ascii'?>
<svg xmlns="http://www.w3.org/2000/svg" version="1.1" width="1080" height="1080">
    <g id="ViewLayer_LineSet" xmlns:inkscape="http://www.inkscape.org/namespaces/inkscape" inkscape:groupmode="lineset" inkscape:label="ViewLayer_LineSet">
        <g xmlns:inkscape="http://www.inkscape.org/namespaces/inkscape" inkscape:groupmode="layer" id="strokes" inkscape:label="strokes">
            <path fill="none" stroke-width="3.0" stroke-linecap="butt" stroke-opacity="1.0" stroke="rgb(0, 0, 0)" stroke-linejoin="round" d=" M 543.779, 645.256 544.002, 635.258 544.114, 630.232 544.337, 620.234 544.450, 615.155 544.674, 605.157 544.788, 600.024 545.011, 590.026 545.127, 584.840 545.350, 574.842 545.467, 569.601 545.690, 559.604 545.808, 554.309 546.031, 544.311 546.151, 538.961 546.374, 528.964 546.598, 518.928 536.615, 518.352 526.631, 517.776 518.269, 517.293 511.258, 521.596 511.076, 531.594 510.893, 541.592 510.888, 541.909 510.705, 551.907 510.604, 557.469 510.422, 567.467 510.321, 572.973 510.139, 582.971 510.040, 588.422 509.857, 598.420 509.759, 603.814 509.577, 613.813 509.480, 619.152 509.297, 629.150 509.201, 634.435 509.019, 644.433 508.923, 649.663 508.741, 659.661 508.564, 669.379 518.531, 670.185 528.499, 670.990 536.885, 671.668 543.344, 664.709 543.568, 654.711 543.779, 645.256 " />
            <path fill="none" stroke-width="3.0" stroke-linecap="butt" stroke-opacity="1.0" stroke="rgb(0, 0, 0)" stroke-linejoin="round" d=" M 536.885, 671.668 537.101, 661.670 537.312, 651.873 537.528, 641.875 537.642, 636.583 537.858, 626.585 537.973, 621.238 538.189, 611.241 538.306, 605.838 538.521, 595.840 538.639, 590.382 538.855, 580.385 538.974, 574.870 539.189, 564.873 539.310, 559.302 539.525, 549.305 539.647, 543.678 539.862, 533.680 540.078, 523.682 540.087, 523.281 " />
            <path fill="none" stroke-width="3.0" stroke-linecap="butt" stroke-opacity="1.0" stroke="rgb(0, 0, 0)" stroke-linejoin="round" d=" M 546.598, 518.928 540.087, 523.281 530.104, 522.697 520.121, 522.114 511.258, 521.596 " />
            <path fill="none" stroke-width="3.0" stroke-linecap="butt" stroke-opacity="1.0" stroke="rgb(0, 0, 0)" stroke-linejoin="round" d=" M 241.434, 580.380 239.986, 577.423 238.172, 573.714 234.764, 566.746 232.481, 562.081 230.642, 558.322 227.165, 551.215 224.966, 546.721 223.103, 542.912 219.557, 535.665 217.443, 531.344 215.555, 527.485 211.941, 520.098 209.911, 515.948 207.999, 512.039 204.579, 505.050 198.443, 504.690 191.349, 504.274 184.271, 503.859 176.503, 503.403 171.835, 504.814 168.249, 505.898 163.473, 507.341 163.644, 515.096 163.813, 522.789 163.982, 530.468 164.151, 538.133 164.320, 545.785 164.488, 553.423 164.656, 561.048 164.823, 568.659 164.991, 576.257 165.158, 583.842 165.324, 591.413 165.491, 598.970 165.657, 606.514 165.823, 614.045 165.988, 621.563 166.154, 629.067 166.319, 636.559 166.483, 644.037 166.649, 651.549 174.414, 652.189 181.489, 652.772 188.580, 653.356 192.809, 653.705 197.337, 651.335 200.736, 649.556 205.162, 647.238 205.033, 639.824 204.903, 632.443 204.774, 625.050 204.645, 617.644 204.515, 610.224 204.385, 602.792 204.255, 595.347 204.124, 587.889 204.085, 585.634 " />
            <path fill="none" stroke-width="3.0" stroke-linecap="butt" stroke-opacity="1.0" stroke="rgb(0, 0, 0)" stroke-linejoin="round" d=" M 191.102, 563.610 191.291, 573.608 191.377, 578.115 191.521, 585.729 191.665, 593.330 191.809, 600.918 191.952, 608.492 192.096, 616.053 192.239, 623.600 192.382, 631.135 192.524, 638.655 192.666, 646.163 192.809, 653.705 " />
            <path fill="none" stroke-width="3.0" stroke-linecap="butt" stroke-opacity="1.0" stroke="rgb(0, 0, 0)" stroke-linejoin="round" d=" M 193.178, 563.594 197.613, 572.556 197.832, 572.998 201.177, 579.757 204.085, 585.634 205.527, 588.549 208.950, 595.463 213.213, 604.080 216.712, 611.151 218.999, 615.771 220.891, 619.595 224.466, 626.819 227.288, 632.523 231.119, 632.824 238.343, 633.392 242.186, 633.694 246.440, 631.429 249.633, 629.729 253.791, 627.515 256.439, 622.314 259.801, 615.713 261.583, 612.214 263.739, 607.981 267.044, 601.491 271.081, 593.563 274.329, 587.186 276.079, 583.749 277.184, 581.579 " />
            <path fill="none" stroke-width="3.0" stroke-linecap="butt" stroke-opacity="1.0" stroke="rgb(0, 0, 0)" stroke-linejoin="round" d=" M 192.001, 509.036 195.487, 516.152 197.436, 520.131 199.505, 524.355 203.188, 531.876 205.112, 535.804 207.267, 540.204 210.880, 547.582 212.782, 551.458 215.020, 556.034 218.564, 563.269 220.438, 567.096 222.765, 571.845 226.238, 578.938 228.087, 582.714 230.499, 587.637 234.098, 594.986 234.353, 594.480 237.556, 588.101 239.896, 583.441 241.434, 580.380 241.662, 579.925 244.962, 573.353 247.212, 568.874 249.014, 565.284 252.412, 558.517 254.570, 554.220 256.410, 550.556 259.908, 543.591 261.972, 539.480 263.850, 535.740 267.448, 528.576 269.419, 524.653 271.335, 520.836 274.791, 513.954 278.911, 512.441 282.004, 511.306 286.030, 509.828 292.142, 510.186 299.466, 510.616 306.806, 511.046 314.899, 511.521 314.934, 519.302 314.969, 527.020 315.004, 534.725 315.038, 542.416 315.073, 550.093 315.108, 557.757 315.142, 565.407 315.177, 573.043 315.211, 580.666 315.245, 588.275 315.280, 595.871 315.314, 603.453 315.348, 611.022 315.382, 618.578 315.416, 626.120 315.450, 633.649 315.484, 641.164 315.518, 648.666 315.552, 656.203 311.769, 658.620 308.863, 660.476 304.992, 662.948 296.902, 662.282 289.565, 661.677 282.244, 661.074 277.893, 660.715 277.824, 653.078 277.756, 645.475 277.688, 637.858 277.620, 630.228 277.551, 622.584 277.483, 614.926 277.414, 607.254 277.345, 599.569 277.277, 591.870 277.208, 584.157 277.184, 581.579 277.095, 571.580 277.076, 569.443 277.036, 565.025 " />
            <path fill="none" stroke-width="3.0" stroke-linecap="butt" stroke-opacity="1.0" stroke="rgb(0, 0, 0)" stroke-linejoin="round" d=" M 204.579, 505.050 200.073, 506.478 196.612, 507.575 192.001, 509.036 185.766, 508.666 178.558, 508.237 171.366, 507.810 163.473, 507.341 " />
            <path fill="none" stroke-width="3.0" stroke-linecap="butt" stroke-opacity="1.0" stroke="rgb(0, 0, 0)" stroke-linejoin="round" d=" M 186.963, 570.191 191.102, 563.610 191.102, 563.610 193.178, 563.594 201.193, 563.532 " />
            <path fill="none" stroke-width="3.0" stroke-linecap="butt" stroke-opacity="1.0" stroke="rgb(0, 0, 0)" stroke-linejoin="round" d=" M 267.044, 601.491 268.808, 598.024 271.081, 593.563 " />
            <path fill="none" stroke-width="3.0" stroke-linecap="butt" stroke-opacity="1.0" stroke="rgb(0, 0, 0)" stroke-linejoin="round" d=" M 270.430, 578.043 267.197, 584.415 264.776, 589.184 263.002, 592.680 259.710, 599.166 257.408, 603.702 255.618, 607.229 252.268, 613.829 250.083, 618.134 248.277, 621.693 244.870, 628.405 242.186, 633.694 " />
            <path fill="none" stroke-width="3.0" stroke-linecap="butt" stroke-opacity="1.0" stroke="rgb(0, 0, 0)" stroke-linejoin="round" d=" M 304.144, 515.698 304.190, 523.619 304.235, 531.477 304.280, 539.320 304.325, 547.149 304.370, 554.964 304.415, 562.764 304.460, 570.551 304.505, 578.323 304.550, 586.082 304.594, 593.826 304.639, 601.556 304.683, 609.273 304.728, 616.975 304.772, 624.664 304.816, 632.338 304.860, 639.999 304.904, 647.647 304.948, 655.280 304.992, 662.948 " />
            <path fill="none" stroke-width="3.0" stroke-linecap="butt" stroke-opacity="1.0" stroke="rgb(0, 0, 0)" stroke-linejoin="round" d=" M 314.899, 511.521 311.047, 513.017 308.087, 514.166 304.144, 515.698 295.915, 515.209 288.452, 514.766 281.006, 514.323 274.791, 513.954 " />
            <path fill="none" stroke-width="3.0" stroke-linecap="butt" stroke-opacity="1.0" stroke="rgb(0, 0, 0)" stroke-linejoin="round" d=" M 281.467, 568.988 277.036, 565.025 274.668, 569.692 270.430, 578.043 274.663, 569.693 " />
            <path fill="none" stroke-width="3.0" stroke-linecap="butt" stroke-opacity="1.0" stroke="rgb(0, 0, 0)" stroke-linejoin="round" d=" M 277.036, 565.025 274.663, 569.693 " />
            <path fill="none" stroke-width="3.0" stroke-linecap="butt" stroke-opacity="1.0" stroke="rgb(0, 0, 0)" stroke-linejoin="round" d=" M -2.056, 639.778 6.664, 640.500 16.630, 641.324 22.745, 641.830 32.005, 638.055 37.703, 635.731 37.332, 625.738 37.015, 617.192 36.644, 607.199 36.484, 602.877 36.113, 592.883 35.950, 588.513 35.580, 578.520 35.415, 574.101 35.409, 573.918 " />
            <path fill="none" stroke-width="3.0" stroke-linecap="butt" stroke-opacity="1.0" stroke="rgb(0, 0, 0)" stroke-linejoin="round" d=" M 22.745, 641.830 22.356, 631.838 22.011, 622.980 21.622, 612.988 21.445, 608.423 21.056, 598.431 20.877, 593.817 20.488, 583.825 20.306, 579.161 19.918, 569.168 19.529, 559.176 19.237, 551.683 25.119, 559.771 29.204, 565.389 35.087, 573.476 35.409, 573.918 36.000, 574.732 41.746, 582.633 47.627, 590.720 48.630, 592.099 54.288, 599.878 60.169, 607.966 61.260, 609.468 66.831, 617.126 72.713, 625.213 75.286, 628.752 79.959, 635.177 85.841, 643.265 88.771, 647.294 98.737, 648.118 101.029, 648.308 110.045, 649.054 119.122, 644.858 123.695, 642.744 123.424, 632.748 123.186, 623.960 122.916, 613.963 122.794, 609.454 122.524, 599.458 122.400, 594.899 122.130, 584.903 122.005, 580.295 121.735, 570.298 121.609, 565.640 121.339, 555.644 121.211, 550.936 120.941, 540.939 120.812, 536.181 120.542, 526.184 120.412, 521.375 120.141, 511.378 119.894, 502.253 110.874, 501.721 100.892, 501.132 94.372, 500.747 84.713, 503.335 80.026, 504.590 80.343, 514.585 80.640, 523.969 80.956, 533.964 81.115, 538.973 81.431, 548.968 81.588, 553.925 81.905, 563.920 82.060, 568.825 82.180, 572.623 82.497, 582.618 82.530, 583.674 82.847, 593.669 83.012, 598.885 " />
            <path fill="none" stroke-width="3.0" stroke-linecap="butt" stroke-opacity="1.0" stroke="rgb(0, 0, 0)" stroke-linejoin="round" d=" M 82.180, 572.623 79.728, 569.215 74.068, 561.345 68.228, 553.227 67.326, 551.973 61.763, 544.237 55.923, 536.119 54.925, 534.732 49.457, 527.130 43.618, 519.011 42.524, 517.491 37.152, 510.022 31.312, 501.905 27.498, 496.603 17.516, 496.014 16.462, 495.952 7.738, 495.437 -1.996, 497.732 -7.936, 499.132 " />
            <path fill="none" stroke-width="3.0" stroke-linecap="butt" stroke-opacity="1.0" stroke="rgb(0, 0, 0)" stroke-linejoin="round" d=" M 83.012, 598.885 78.445, 592.534 72.606, 584.416 70.175, 581.037 65.279, 574.230 59.518, 566.220 53.678, 558.102 52.657, 556.683 46.995, 548.809 41.155, 540.691 40.036, 539.135 34.471, 531.398 28.635, 523.278 27.419, 521.587 21.948, 513.988 16.108, 505.870 12.123, 500.330 " />
            <path fill="none" stroke-width="3.0" stroke-linecap="butt" stroke-opacity="1.0" stroke="rgb(0, 0, 0)" stroke-linejoin="round" d=" M 27.498, 496.603 17.780, 498.959 12.123, 500.330 2.141, 499.734 0.919, 499.661 -7.936, 499.132 " />
            <path fill="none" stroke-width="3.0" stroke-linecap="butt" stroke-opacity="1.0" stroke="rgb(0, 0, 0)" stroke-linejoin="round" d=" M 110.045, 649.054 109.759, 639.058 109.498, 629.951 109.211, 619.955 109.075, 615.198 108.788, 605.202 108.650, 600.393 108.363, 590.397 108.224, 585.538 107.937, 575.542 107.797, 570.630 107.510, 560.635 107.368, 555.671 107.081, 545.675 106.937, 540.660 106.651, 530.664 106.505, 525.596 106.219, 515.600 105.947, 506.139 " />
            <path fill="none" stroke-width="3.0" stroke-linecap="butt" stroke-opacity="1.0" stroke="rgb(0, 0, 0)" stroke-linejoin="round" d=" M 119.894, 502.253 110.261, 504.937 105.947, 506.139 96.786, 505.592 86.803, 504.995 80.026, 504.590 " />
            <path fill="none" stroke-width="3.0" stroke-linecap="butt" stroke-opacity="1.0" stroke="rgb(0, 0, 0)" stroke-linejoin="round" d=" M 968.172, 601.266 961.776, 608.953 955.380, 616.640 955.115, 616.957 949.155, 624.121 942.759, 631.808 940.876, 634.071 934.480, 641.758 929.293, 647.992 922.897, 655.679 916.501, 663.366 912.737, 667.889 913.076, 674.944 923.047, 675.711 933.017, 676.478 942.988, 677.246 946.294, 677.500 952.662, 669.789 953.732, 668.494 960.099, 660.783 960.228, 660.626 966.596, 652.915 969.496, 649.404 975.280, 642.399 981.647, 634.688 984.011, 631.825 987.550, 627.540 992.711, 636.105 997.319, 643.751 1002.024, 651.560 1007.185, 660.125 1009.661, 664.233 1014.822, 672.798 1014.920, 672.961 1020.081, 681.526 1021.126, 683.259 1031.096, 684.026 1041.067, 684.794 1051.037, 685.561 1055.150, 685.878 1052.173, 678.480 1046.910, 669.977 1041.647, 661.474 1038.221, 655.938 1033.702, 648.636 1028.530, 640.282 1023.268, 631.779 1021.640, 629.149 1016.697, 621.163 1011.435, 612.660 1007.875, 606.909 " />
            <path fill="none" stroke-width="3.0" stroke-linecap="butt" stroke-opacity="1.0" stroke="rgb(0, 0, 0)" stroke-linejoin="round" d=" M 1006.949, 608.003 1007.875, 606.909 1012.758, 601.140 1019.217, 593.506 1022.989, 589.049 1029.224, 581.682 1035.684, 574.048 1038.129, 571.158 1044.589, 563.524 1044.705, 563.386 1051.089, 555.843 1057.549, 548.210 1064.008, 540.576 1069.598, 533.971 1066.295, 529.305 1056.310, 528.756 1046.325, 528.207 1036.341, 527.658 1032.252, 527.433 1025.917, 535.170 1019.582, 542.908 1017.593, 545.336 1011.258, 553.074 1007.695, 557.425 1001.767, 564.667 995.431, 572.404 989.096, 580.141 988.854, 580.437 985.172, 574.410 979.959, 565.876 978.212, 563.016 973.426, 555.182 968.212, 546.649 965.535, 542.266 960.650, 534.271 955.437, 525.737 953.839, 523.121 943.854, 522.572 933.869, 522.023 923.884, 521.474 920.634, 521.295 921.127, 525.714 926.413, 534.203 931.699, 542.692 935.661, 549.054 940.947, 557.543 945.919, 565.527 951.205, 574.016 956.490, 582.505 957.987, 584.908 963.272, 593.397 966.194, 598.090 968.172, 601.266 970.873, 605.603 964.470, 613.285 958.067, 620.966 956.252, 623.144 950.178, 630.432 943.775, 638.113 941.742, 640.552 935.436, 648.118 929.941, 654.710 923.539, 662.392 917.136, 670.073 913.076, 674.944 " />
            <path fill="none" stroke-width="3.0" stroke-linecap="butt" stroke-opacity="1.0" stroke="rgb(0, 0, 0)" stroke-linejoin="round" d=" M 990.638, 585.990 986.887, 579.850 981.674, 571.316 979.795, 568.242 974.919, 560.260 969.705, 551.727 966.879, 547.102 961.902, 538.955 956.689, 530.422 954.963, 527.596 " />
            <path fill="none" stroke-width="3.0" stroke-linecap="butt" stroke-opacity="1.0" stroke="rgb(0, 0, 0)" stroke-linejoin="round" d=" M 953.839, 523.121 954.963, 527.596 944.978, 527.041 934.994, 526.485 925.009, 525.930 921.127, 525.714 " />
            <path fill="none" stroke-width="3.0" stroke-linecap="butt" stroke-opacity="1.0" stroke="rgb(0, 0, 0)" stroke-linejoin="round" d=" M 1055.150, 685.878 1049.887, 677.375 1044.624, 668.872 1040.935, 662.913 1036.331, 655.472 1031.062, 646.963 1025.800, 638.460 1024.042, 635.619 1019.007, 627.484 1013.744, 618.981 1008.481, 610.478 1006.949, 608.003 " />
            <path fill="none" stroke-width="3.0" stroke-linecap="butt" stroke-opacity="1.0" stroke="rgb(0, 0, 0)" stroke-linejoin="round" d=" M 1017.593, 545.336 1023.607, 537.993 1029.941, 530.255 1032.252, 527.433 1034.887, 532.041 " />
            <path fill="none" stroke-width="3.0" stroke-linecap="butt" stroke-opacity="1.0" stroke="rgb(0, 0, 0)" stroke-linejoin="round" d=" M 1069.598, 533.971 1059.613, 533.416 1049.629, 532.860 1039.644, 532.305 1034.887, 532.041 1028.546, 539.773 1026.071, 542.790 1019.939, 550.266 1013.597, 557.998 1009.847, 562.571 1003.802, 569.941 997.460, 577.673 991.118, 585.405 990.638, 585.990 988.854, 580.437 " />
            <path fill="none" stroke-width="3.0" stroke-linecap="butt" stroke-opacity="1.0" stroke="rgb(0, 0, 0)" stroke-linejoin="round" d=" M 274.668, 569.692 277.076, 569.443 " />
        </g>
    </g>
</svg>
