<?xml version='1.0' encoding='ascii'?>
<svg xmlns="http://www.w3.org/2000/svg" version="1.1" width="1080" height="1080">
    <g id="ViewLayer_LineSet" xmlns:inkscape="http://www.inkscape.org/namespaces/inkscape" inkscape:groupmode="lineset" inkscape:label="ViewLayer_LineSet">
        <g xmlns:inkscape="http://www.inkscape.org/namespaces/inkscape" inkscape:groupmode="layer" id="strokes" inkscape:label="strokes">
            <path fill="none" stroke-width="3.0" stroke-linecap="butt" stroke-opacity="1.0" stroke="rgb(0, 0, 0)" stroke-linejoin="round" d=" M 75.035, 635.016 74.513, 635.205 64.551, 634.328 58.445, 633.790 51.780, 630.486 42.924, 625.843 42.686, 625.718 36.702, 617.706 35.574, 616.195 30.494, 607.582 28.228, 603.740 25.709, 594.062 24.288, 588.599 23.953, 578.604 23.764, 572.977 25.644, 563.156 26.589, 558.221 31.546, 549.536 33.123, 546.773 39.110, 538.763 39.654, 538.036 41.916, 537.138 " />
            <path fill="none" stroke-width="3.0" stroke-linecap="butt" stroke-opacity="1.0" stroke="rgb(0, 0, 0)" stroke-linejoin="round" d=" M -6.966, 628.667 -1.322, 636.922 0.806, 640.035 7.807, 647.175 9.486, 648.887 17.215, 655.233 17.408, 655.392 25.909, 660.658 27.334, 661.540 36.820, 664.706 43.234, 666.848 53.202, 667.652 59.599, 668.169 69.464, 666.531 75.399, 665.545 84.474, 661.344 90.912, 658.364 99.921, 654.025 100.319, 653.834 107.980, 648.834 115.379, 642.107 116.236, 641.327 122.081, 633.214 123.428, 631.344 127.545, 623.231 131.405, 614.024 133.146, 604.177 134.338, 597.434 133.977, 587.441 133.711, 580.048 131.450, 570.307 129.747, 562.969 125.693, 553.828 125.454, 553.289 120.863, 544.348 115.211, 536.098 113.017, 532.895 106.074, 525.698 104.338, 523.899 96.512, 517.675 96.219, 517.442 87.762, 512.106 86.344, 511.211 76.781, 508.287 70.219, 506.281 60.233, 505.748 53.880, 505.409 44.086, 507.431 38.310, 508.623 28.631, 511.135 21.624, 512.953 12.785, 517.631 12.302, 517.887 4.650, 523.333 -2.484, 530.341 -3.434, 531.274 " />
            <path fill="none" stroke-width="3.0" stroke-linecap="butt" stroke-opacity="1.0" stroke="rgb(0, 0, 0)" stroke-linejoin="round" d=" M 73.939, 636.386 65.263, 639.557 58.683, 641.938 48.723, 641.048 42.348, 640.478 35.567, 637.106 26.716, 632.452 26.313, 632.240 20.330, 624.227 19.066, 622.534 13.983, 613.922 11.574, 609.840 9.043, 600.166 7.538, 594.415 7.183, 584.422 6.973, 578.504 8.830, 568.677 9.813, 563.474 14.750, 554.778 16.430, 551.819 22.400, 543.796 23.051, 542.923 32.104, 539.326 38.676, 536.933 41.916, 537.138 51.896, 537.770 54.923, 537.961 61.685, 541.287 70.575, 545.864 71.272, 546.223 77.277, 554.219 78.645, 556.040 83.795, 564.612 86.343, 568.853 88.886, 578.524 90.475, 584.564 90.783, 594.560 90.973, 600.709 88.923, 610.496 87.816, 615.780 82.819, 624.442 81.066, 627.479 75.035, 635.016 73.939, 636.386 " />
            <path fill="none" stroke-width="3.0" stroke-linecap="butt" stroke-opacity="1.0" stroke="rgb(0, 0, 0)" stroke-linejoin="round" d=" M 75.399, 665.545 84.408, 661.205 84.954, 660.942 92.733, 655.859 100.125, 649.125 101.113, 648.224 106.945, 640.101 108.408, 638.063 112.580, 629.803 116.427, 620.573 116.487, 620.429 118.208, 610.578 119.439, 603.530 119.062, 593.537 118.770, 585.814 116.497, 576.076 114.707, 568.408 110.647, 559.269 110.323, 558.540 105.750, 549.647 105.636, 549.425 99.984, 541.175 97.635, 537.746 90.695, 530.547 88.792, 528.572 80.970, 522.341 80.522, 521.985 72.070, 516.641 70.467, 515.627 60.907, 512.693 54.061, 510.591 44.075, 510.050 37.446, 509.691 27.653, 511.710 21.624, 512.953 " />
        </g>
    </g>
</svg>
