<?xml version='1.0' encoding='ascii'?>
<svg xmlns="http://www.w3.org/2000/svg" version="1.1" width="1080" height="1080">
    <g id="ViewLayer_LineSet" xmlns:inkscape="http://www.inkscape.org/namespaces/inkscape" inkscape:groupmode="lineset" inkscape:label="ViewLayer_LineSet">
        <g xmlns:inkscape="http://www.inkscape.org/namespaces/inkscape" inkscape:groupmode="layer" id="strokes" inkscape:label="strokes">
            <path fill="none" stroke-width="3.0" stroke-linecap="butt" stroke-opacity="1.0" stroke="rgb(0, 0, 0)" stroke-linejoin="round" d=" M 513.043, 644.559 513.230, 634.561 513.324, 629.534 513.511, 619.535 513.606, 614.455 513.793, 604.457 513.889, 599.323 514.076, 589.325 514.173, 584.138 514.360, 574.140 514.458, 568.898 514.645, 558.900 514.744, 553.604 514.931, 543.606 515.031, 538.256 515.218, 528.258 515.406, 518.221 505.423, 517.643 495.439, 517.065 487.210, 516.589 479.620, 520.879 479.474, 530.878 479.329, 540.876 479.324, 541.193 479.178, 551.192 479.098, 556.755 478.952, 566.754 478.872, 572.260 478.726, 582.259 478.647, 587.710 478.501, 597.709 478.422, 603.104 478.277, 613.103 478.199, 618.443 478.053, 628.442 477.977, 633.727 477.831, 643.726 477.755, 648.956 477.609, 658.955 477.468, 668.674 487.435, 669.482 497.402, 670.291 505.656, 670.960 512.679, 664.013 512.866, 654.015 513.043, 644.559 " />
            <path fill="none" stroke-width="3.0" stroke-linecap="butt" stroke-opacity="1.0" stroke="rgb(0, 0, 0)" stroke-linejoin="round" d=" M 505.656, 670.960 505.835, 660.962 506.010, 651.163 506.189, 641.165 506.283, 635.872 506.462, 625.874 506.558, 620.526 506.737, 610.528 506.834, 605.125 507.012, 595.126 507.110, 589.668 507.289, 579.669 507.388, 574.154 507.567, 564.156 507.666, 558.585 507.845, 548.587 507.946, 542.959 508.125, 532.961 508.303, 522.962 508.311, 522.560 " />
            <path fill="none" stroke-width="3.0" stroke-linecap="butt" stroke-opacity="1.0" stroke="rgb(0, 0, 0)" stroke-linejoin="round" d=" M 515.406, 518.221 508.311, 522.560 498.328, 521.975 488.345, 521.390 479.620, 520.879 " />
            <path fill="none" stroke-width="3.0" stroke-linecap="butt" stroke-opacity="1.0" stroke="rgb(0, 0, 0)" stroke-linejoin="round" d=" M 203.851, 578.741 202.790, 576.579 200.971, 572.870 197.552, 565.902 195.263, 561.237 193.419, 557.478 189.932, 550.371 187.727, 545.876 185.858, 542.068 182.303, 534.820 180.182, 530.499 178.289, 526.640 174.665, 519.252 172.629, 515.103 170.711, 511.194 167.282, 504.204 161.182, 503.845 154.130, 503.430 147.094, 503.016 139.372, 502.561 134.462, 503.966 130.691, 505.046 125.668, 506.484 125.872, 514.239 126.075, 521.933 126.278, 529.613 126.480, 537.279 126.682, 544.932 126.884, 552.571 127.085, 560.196 127.286, 567.808 127.487, 575.407 127.687, 582.992 127.887, 590.563 128.086, 598.122 128.285, 605.667 128.484, 613.198 128.683, 620.717 128.881, 628.222 129.079, 635.714 129.276, 643.193 129.474, 650.706 137.193, 651.345 144.226, 651.927 151.275, 652.510 155.479, 652.858 160.248, 650.494 163.828, 648.718 168.490, 646.407 168.328, 638.991 168.167, 631.610 168.006, 624.216 167.844, 616.809 167.683, 609.389 167.521, 601.956 167.358, 594.511 167.196, 587.052 167.182, 586.401 " />
            <path fill="none" stroke-width="3.0" stroke-linecap="butt" stroke-opacity="1.0" stroke="rgb(0, 0, 0)" stroke-linejoin="round" d=" M 153.376, 562.754 153.610, 572.751 153.715, 577.261 153.893, 584.876 154.070, 592.478 154.247, 600.066 154.424, 607.641 154.601, 615.203 154.777, 622.751 154.953, 630.286 155.128, 637.807 155.303, 645.315 155.479, 652.858 " />
            <path fill="none" stroke-width="3.0" stroke-linecap="butt" stroke-opacity="1.0" stroke="rgb(0, 0, 0)" stroke-linejoin="round" d=" M 155.439, 562.738 159.885, 571.695 160.106, 572.142 163.461, 578.902 167.182, 586.401 167.823, 587.693 171.255, 594.608 175.531, 603.226 179.039, 610.296 181.333, 614.916 183.230, 618.741 186.816, 625.965 189.645, 631.669 193.453, 631.970 200.635, 632.536 204.455, 632.838 208.955, 630.579 212.333, 628.883 216.731, 626.675 219.340, 621.473 222.652, 614.871 224.407, 611.370 226.531, 607.137 229.787, 600.646 233.764, 592.717 236.963, 586.339 238.688, 582.901 239.018, 582.244 " />
            <path fill="none" stroke-width="3.0" stroke-linecap="butt" stroke-opacity="1.0" stroke="rgb(0, 0, 0)" stroke-linejoin="round" d=" M 154.024, 508.175 157.519, 515.290 159.474, 519.270 161.549, 523.495 165.243, 531.016 167.173, 534.944 169.334, 539.344 172.958, 546.722 174.866, 550.598 177.110, 555.174 180.664, 562.410 182.543, 566.236 184.877, 570.986 188.360, 578.079 190.215, 581.855 192.634, 586.778 196.243, 594.128 196.494, 593.621 199.648, 587.241 201.953, 582.580 203.691, 579.064 203.851, 578.741 206.941, 572.491 209.156, 568.011 210.931, 564.421 214.277, 557.652 216.402, 553.355 218.214, 549.690 221.658, 542.724 223.691, 538.612 225.540, 534.871 229.083, 527.706 231.023, 523.782 232.910, 519.964 236.314, 513.081 240.690, 511.574 243.975, 510.443 248.250, 508.971 254.327, 509.328 261.607, 509.757 268.903, 510.187 276.949, 510.660 277.018, 518.442 277.087, 526.161 277.155, 533.866 277.224, 541.558 277.292, 549.236 277.360, 556.901 277.429, 564.551 277.497, 572.188 277.564, 579.812 277.632, 587.422 277.700, 595.019 277.767, 602.602 277.835, 610.171 277.902, 617.728 277.969, 625.271 278.036, 632.800 278.103, 640.316 278.170, 647.819 278.237, 655.357 274.210, 657.768 271.117, 659.619 266.997, 662.086 258.954, 661.421 251.660, 660.817 244.383, 660.215 240.058, 659.857 239.956, 652.219 239.854, 644.615 239.752, 636.997 239.649, 629.366 239.547, 621.722 239.444, 614.063 239.341, 606.391 239.238, 598.705 239.135, 591.005 239.032, 583.291 239.018, 582.244 238.884, 572.245 238.835, 568.575 238.775, 564.158 " />
            <path fill="none" stroke-width="3.0" stroke-linecap="butt" stroke-opacity="1.0" stroke="rgb(0, 0, 0)" stroke-linejoin="round" d=" M 167.282, 504.204 162.532, 505.627 158.884, 506.719 154.024, 508.175 147.826, 507.805 140.661, 507.378 133.513, 506.952 125.668, 506.484 " />
            <path fill="none" stroke-width="3.0" stroke-linecap="butt" stroke-opacity="1.0" stroke="rgb(0, 0, 0)" stroke-linejoin="round" d=" M 149.293, 569.337 153.376, 562.754 153.376, 562.754 155.439, 562.738 163.403, 562.675 " />
            <path fill="none" stroke-width="3.0" stroke-linecap="butt" stroke-opacity="1.0" stroke="rgb(0, 0, 0)" stroke-linejoin="round" d=" M 229.787, 600.646 231.524, 597.179 233.764, 592.717 " />
            <path fill="none" stroke-width="3.0" stroke-linecap="butt" stroke-opacity="1.0" stroke="rgb(0, 0, 0)" stroke-linejoin="round" d=" M 232.270, 577.178 229.086, 583.551 226.702, 588.320 224.954, 591.817 221.712, 598.304 219.446, 602.841 217.682, 606.369 214.383, 612.970 212.231, 617.275 210.453, 620.835 207.098, 627.548 204.455, 632.838 " />
            <path fill="none" stroke-width="3.0" stroke-linecap="butt" stroke-opacity="1.0" stroke="rgb(0, 0, 0)" stroke-linejoin="round" d=" M 265.490, 514.821 265.571, 522.743 265.651, 530.601 265.732, 538.446 265.812, 546.275 265.892, 554.091 265.971, 561.892 266.051, 569.680 266.131, 577.453 266.210, 585.212 266.289, 592.957 266.369, 600.688 266.448, 608.405 266.526, 616.109 266.605, 623.798 266.684, 631.474 266.762, 639.135 266.840, 646.783 266.918, 654.418 266.997, 662.086 " />
            <path fill="none" stroke-width="3.0" stroke-linecap="butt" stroke-opacity="1.0" stroke="rgb(0, 0, 0)" stroke-linejoin="round" d=" M 276.949, 510.660 272.844, 512.151 269.691, 513.296 265.490, 514.821 257.310, 514.334 249.892, 513.891 242.491, 513.450 236.314, 513.081 " />
            <path fill="none" stroke-width="3.0" stroke-linecap="butt" stroke-opacity="1.0" stroke="rgb(0, 0, 0)" stroke-linejoin="round" d=" M 243.196, 568.120 238.775, 564.158 236.443, 568.825 232.270, 577.178 236.438, 568.826 " />
            <path fill="none" stroke-width="3.0" stroke-linecap="butt" stroke-opacity="1.0" stroke="rgb(0, 0, 0)" stroke-linejoin="round" d=" M 238.775, 564.158 236.438, 568.826 " />
            <path fill="none" stroke-width="3.0" stroke-linecap="butt" stroke-opacity="1.0" stroke="rgb(0, 0, 0)" stroke-linejoin="round" d=" M -5.884, 641.181 3.420, 637.515 9.566, 635.094 9.162, 625.102 8.816, 616.553 8.412, 606.561 8.238, 602.236 7.834, 592.244 7.657, 587.872 7.253, 577.880 7.101, 574.123 " />
            <path fill="none" stroke-width="3.0" stroke-linecap="butt" stroke-opacity="1.0" stroke="rgb(0, 0, 0)" stroke-linejoin="round" d=" M 52.980, 571.104 51.155, 568.567 45.494, 560.697 39.654, 552.579 38.753, 551.326 33.189, 543.589 27.350, 535.471 26.352, 534.084 20.884, 526.482 15.045, 518.364 13.951, 516.843 8.579, 509.375 2.740, 501.257 -1.074, 495.955 " />
            <path fill="none" stroke-width="3.0" stroke-linecap="butt" stroke-opacity="1.0" stroke="rgb(0, 0, 0)" stroke-linejoin="round" d=" M -9.695, 551.027 -3.813, 559.115 0.272, 564.733 6.154, 572.820 7.067, 574.076 7.101, 574.123 12.812, 581.977 18.693, 590.064 19.696, 591.443 25.353, 599.222 31.234, 607.311 32.325, 608.812 37.896, 616.470 43.777, 624.558 46.350, 628.096 51.022, 634.521 56.904, 642.609 59.834, 646.638 69.799, 647.465 72.034, 647.651 81.008, 648.396 90.144, 644.330 95.163, 642.097 94.859, 632.102 94.592, 623.311 94.288, 613.316 94.151, 608.805 93.847, 598.810 93.708, 594.249 93.404, 584.254 93.264, 579.643 92.960, 569.648 92.819, 564.988 92.515, 554.992 92.372, 550.282 92.068, 540.287 91.923, 535.526 91.619, 525.530 91.473, 520.719 91.169, 510.723 90.892, 501.596 81.913, 501.064 71.931, 500.474 65.489, 500.092 55.805, 502.588 50.624, 503.924 50.975, 513.917 51.304, 523.304 51.654, 533.298 51.830, 538.309 52.180, 548.303 52.354, 553.262 52.705, 563.256 52.877, 568.164 52.980, 571.104 53.330, 581.098 53.397, 583.014 53.748, 593.008 53.931, 598.226 " />
            <path fill="none" stroke-width="3.0" stroke-linecap="butt" stroke-opacity="1.0" stroke="rgb(0, 0, 0)" stroke-linejoin="round" d=" M 53.931, 598.226 49.364, 591.875 43.525, 583.757 41.095, 580.378 36.198, 573.571 30.437, 565.561 24.598, 557.443 23.577, 556.024 17.915, 548.150 12.075, 540.032 10.956, 538.476 5.391, 530.739 -0.445, 522.619 -1.660, 520.928 " />
            <path fill="none" stroke-width="3.0" stroke-linecap="butt" stroke-opacity="1.0" stroke="rgb(0, 0, 0)" stroke-linejoin="round" d=" M 81.008, 648.396 80.688, 638.401 80.395, 629.291 80.075, 619.296 79.922, 614.537 79.601, 604.542 79.447, 599.731 79.126, 589.736 78.970, 584.875 78.649, 574.880 78.492, 569.966 78.171, 559.971 78.012, 555.006 77.691, 545.011 77.530, 539.993 77.209, 529.998 77.047, 524.928 76.726, 514.933 76.422, 505.470 " />
            <path fill="none" stroke-width="3.0" stroke-linecap="butt" stroke-opacity="1.0" stroke="rgb(0, 0, 0)" stroke-linejoin="round" d=" M 90.892, 501.596 81.232, 504.182 76.422, 505.470 67.304, 504.923 57.322, 504.325 50.624, 503.924 " />
            <path fill="none" stroke-width="3.0" stroke-linecap="butt" stroke-opacity="1.0" stroke="rgb(0, 0, 0)" stroke-linejoin="round" d=" M 943.291, 601.315 936.921, 609.023 930.592, 616.682 924.672, 623.847 918.302, 631.555 916.449, 633.797 910.079, 641.506 904.946, 647.718 898.576, 655.427 892.205, 663.135 888.503, 667.616 888.394, 674.665 898.364, 675.435 908.334, 676.205 918.305, 676.974 921.494, 677.220 927.834, 669.488 928.879, 668.214 935.219, 660.481 935.330, 660.346 941.671, 652.613 944.533, 649.123 950.277, 642.118 956.617, 634.385 958.947, 631.544 962.461, 627.258 967.625, 635.822 972.237, 643.470 976.945, 651.278 982.109, 659.841 984.587, 663.951 989.751, 672.514 989.850, 672.678 995.013, 681.242 996.059, 682.976 1006.030, 683.746 1016.000, 684.516 1025.970, 685.285 1029.962, 685.593 1027.452, 678.201 1022.187, 669.699 1016.922, 661.198 1013.493, 655.660 1008.971, 648.359 1003.797, 640.005 998.532, 631.503 996.903, 628.872 991.957, 620.886 986.693, 612.384 982.927, 606.303 " />
            <path fill="none" stroke-width="3.0" stroke-linecap="butt" stroke-opacity="1.0" stroke="rgb(0, 0, 0)" stroke-linejoin="round" d=" M 981.735, 607.721 982.927, 606.303 987.504, 600.858 993.937, 593.202 997.664, 588.766 1003.856, 581.399 1010.290, 573.743 1012.700, 570.874 1019.133, 563.218 1019.230, 563.103 1025.570, 555.560 1032.004, 547.904 1038.437, 540.248 1043.951, 533.686 1041.132, 529.026 1031.148, 528.475 1021.163, 527.924 1011.178, 527.374 1007.209, 527.155 1000.901, 534.914 994.592, 542.673 992.652, 545.059 986.343, 552.818 982.822, 557.148 976.934, 564.390 970.625, 572.149 964.316, 579.908 964.111, 580.161 960.427, 574.134 955.211, 565.602 953.462, 562.741 948.673, 554.907 943.457, 546.375 940.777, 541.992 935.890, 533.996 930.674, 525.464 929.075, 522.847 919.090, 522.296 909.105, 521.745 899.120, 521.195 895.987, 521.022 896.017, 525.436 901.305, 533.923 906.592, 542.411 910.558, 548.775 915.846, 557.263 920.821, 565.248 926.109, 573.735 931.397, 582.223 932.895, 584.628 938.183, 593.116 941.107, 597.809 943.291, 601.315 945.788, 605.323 939.412, 613.026 933.035, 620.730 931.269, 622.864 925.237, 630.152 918.861, 637.855 916.860, 640.273 910.598, 647.839 905.141, 654.431 898.765, 662.135 892.389, 669.838 888.394, 674.665 " />
            <path fill="none" stroke-width="3.0" stroke-linecap="butt" stroke-opacity="1.0" stroke="rgb(0, 0, 0)" stroke-linejoin="round" d=" M 965.427, 585.709 961.674, 579.569 956.458, 571.037 954.578, 567.961 949.698, 559.980 944.482, 551.448 941.654, 546.821 936.674, 538.675 931.458, 530.143 929.730, 527.316 " />
            <path fill="none" stroke-width="3.0" stroke-linecap="butt" stroke-opacity="1.0" stroke="rgb(0, 0, 0)" stroke-linejoin="round" d=" M 929.075, 522.847 929.730, 527.316 919.745, 526.759 909.761, 526.202 899.776, 525.646 896.017, 525.436 " />
            <path fill="none" stroke-width="3.0" stroke-linecap="butt" stroke-opacity="1.0" stroke="rgb(0, 0, 0)" stroke-linejoin="round" d=" M 1029.962, 685.593 1024.697, 677.092 1019.432, 668.590 1015.740, 662.629 1011.134, 655.189 1005.862, 646.680 1000.597, 638.178 998.838, 635.336 993.800, 627.202 988.534, 618.700 983.269, 610.198 981.735, 607.721 " />
            <path fill="none" stroke-width="3.0" stroke-linecap="butt" stroke-opacity="1.0" stroke="rgb(0, 0, 0)" stroke-linejoin="round" d=" M 992.652, 545.059 998.624, 537.716 1004.932, 529.956 1007.209, 527.155 1009.366, 531.758 " />
            <path fill="none" stroke-width="3.0" stroke-linecap="butt" stroke-opacity="1.0" stroke="rgb(0, 0, 0)" stroke-linejoin="round" d=" M 1043.951, 533.686 1033.967, 533.130 1023.982, 532.573 1013.998, 532.016 1009.366, 531.758 1003.051, 539.511 1000.611, 542.507 994.522, 549.984 988.207, 557.738 984.501, 562.288 978.498, 569.659 972.183, 577.413 965.868, 585.167 965.427, 585.709 964.111, 580.161 " />
            <path fill="none" stroke-width="3.0" stroke-linecap="butt" stroke-opacity="1.0" stroke="rgb(0, 0, 0)" stroke-linejoin="round" d=" M 236.443, 568.825 238.835, 568.575 " />
        </g>
    </g>
</svg>
