<?xml version='1.0' encoding='ascii'?>
<svg xmlns="http://www.w3.org/2000/svg" version="1.1" width="1080" height="1080">
    <g id="ViewLayer_LineSet" xmlns:inkscape="http://www.inkscape.org/namespaces/inkscape" inkscape:groupmode="lineset" inkscape:label="ViewLayer_LineSet">
        <g xmlns:inkscape="http://www.inkscape.org/namespaces/inkscape" inkscape:groupmode="layer" id="strokes" inkscape:label="strokes">
            <path fill="none" stroke-width="3.0" stroke-linecap="butt" stroke-opacity="1.0" stroke="rgb(0, 0, 0)" stroke-linejoin="round" d=" M 736.563, 637.487 730.699, 645.588 729.902, 646.688 722.925, 653.852 721.436, 655.382 711.903, 658.403 711.729, 658.458 704.368, 660.768 694.402, 659.934 686.669, 659.286 679.539, 655.964 670.571, 651.538 669.828, 651.171 663.828, 643.171 662.684, 641.647 657.690, 632.983 655.508, 629.198 653.440, 619.414 652.314, 614.087 652.718, 604.096 652.944, 598.513 655.737, 588.911 657.218, 583.815 663.030, 575.677 663.126, 575.542 " />
            <path fill="none" stroke-width="3.0" stroke-linecap="butt" stroke-opacity="1.0" stroke="rgb(0, 0, 0)" stroke-linejoin="round" d=" M 628.828, 654.471 634.452, 662.740 636.559, 665.837 643.661, 672.877 645.500, 674.700 653.358, 680.885 653.783, 681.220 662.412, 686.274 664.322, 687.393 673.871, 690.362 681.563, 692.754 691.534, 693.522 699.636, 694.145 709.535, 692.727 717.395, 691.600 726.635, 687.776 728.374, 687.056 737.112, 682.194 737.418, 682.024 745.364, 675.954 747.332, 674.451 753.948, 666.953 756.240, 664.356 761.529, 656.141 766.315, 647.361 766.613, 646.814 769.063, 639.904 771.710, 630.261 773.599, 623.379 773.976, 613.386 774.252, 606.044 772.479, 596.203 771.182, 589.002 767.353, 579.764 767.175, 579.334 762.779, 570.400 757.145, 562.138 754.971, 558.949 747.933, 551.845 746.049, 549.943 738.094, 543.884 737.551, 543.471 728.968, 538.339 727.089, 537.216 717.472, 534.475 709.599, 532.231 699.613, 531.710 691.558, 531.290 681.715, 533.052 674.053, 534.425 664.948, 538.561 663.502, 539.218 654.945, 544.391 654.733, 544.519 647.001, 550.861 645.295, 552.260 640.471, 557.407 634.014, 565.043 631.846, 567.606 626.779, 575.940 622.153, 584.806 622.014, 585.072 619.553, 594.764 617.805, 601.647 617.468, 611.642 617.223, 618.923 619.084, 628.748 620.433, 635.877 624.247, 645.122 624.477, 645.681 628.828, 654.471 " />
            <path fill="none" stroke-width="3.0" stroke-linecap="butt" stroke-opacity="1.0" stroke="rgb(0, 0, 0)" stroke-linejoin="round" d=" M 735.133, 642.051 729.267, 650.150 726.708, 653.683 719.728, 660.843 718.085, 662.529 708.549, 665.539 708.196, 665.651 700.698, 667.995 690.734, 667.150 682.669, 666.466 675.404, 663.074 666.440, 658.641 665.511, 658.182 659.511, 650.182 658.230, 648.474 653.234, 639.811 650.914, 635.788 648.842, 626.005 647.653, 620.395 648.053, 610.402 648.287, 604.531 651.076, 594.928 652.633, 589.563 658.444, 581.425 660.908, 577.975 663.126, 575.542 668.967, 569.137 678.427, 565.895 679.309, 565.592 686.799, 563.237 696.780, 563.847 704.764, 564.335 712.011, 567.680 721.013, 572.036 722.269, 572.644 728.294, 580.625 729.682, 582.463 734.753, 591.081 737.217, 595.269 739.303, 605.049 740.561, 610.948 740.110, 620.938 739.835, 627.043 736.845, 636.586 736.563, 637.487 735.133, 642.051 " />
            <path fill="none" stroke-width="3.0" stroke-linecap="butt" stroke-opacity="1.0" stroke="rgb(0, 0, 0)" stroke-linejoin="round" d=" M 766.613, 646.814 769.259, 637.171 771.231, 629.983 771.605, 619.990 771.892, 612.321 770.117, 602.480 768.759, 594.953 764.928, 585.716 764.671, 585.097 760.254, 576.125 760.188, 575.990 754.554, 567.727 752.226, 564.313 745.189, 557.208 743.130, 555.129 735.177, 549.067 734.466, 548.525 725.885, 543.390 723.801, 542.143 714.186, 539.395 705.976, 537.049 695.990, 536.521 687.592, 536.077 677.747, 537.833 669.758, 539.258 660.651, 543.390 659.012, 544.134 650.452, 549.304 650.081, 549.528 642.348, 555.869 640.471, 557.407 " />
            <path fill="none" stroke-width="3.0" stroke-linecap="butt" stroke-opacity="1.0" stroke="rgb(0, 0, 0)" stroke-linejoin="round" d=" M 360.155, 625.564 370.096, 626.319 378.557, 626.961 388.518, 627.847 394.256, 628.357 404.248, 627.954 410.974, 627.682 419.566, 622.866 427.726, 617.085 428.501, 616.536 436.601, 610.671 437.359, 610.123 442.991, 601.860 443.211, 601.537 447.891, 593.582 449.915, 583.788 451.332, 576.929 450.174, 566.996 449.302, 559.514 445.043, 550.467 444.676, 549.689 439.462, 541.156 439.108, 540.578 432.143, 533.403 430.794, 532.013 422.772, 526.042 421.377, 525.003 411.640, 522.721 404.488, 521.045 394.497, 520.629 388.598, 520.383 378.616, 519.791 373.322, 519.477 363.339, 518.884 358.117, 518.574 348.134, 517.982 342.012, 517.618 332.788, 521.479 331.447, 522.040 331.473, 532.040 331.499, 542.040 331.501, 542.882 331.527, 552.882 331.542, 558.846 331.568, 568.846 331.584, 574.752 331.610, 584.752 331.625, 590.599 331.651, 600.599 331.666, 606.387 331.692, 616.387 331.707, 622.117 331.733, 632.117 331.748, 637.790 331.774, 647.790 331.788, 653.405 331.814, 663.405 331.840, 673.405 331.841, 673.620 341.806, 674.454 347.940, 674.967 357.905, 675.802 360.118, 675.987 368.198, 670.095 370.015, 668.771 370.034, 658.771 370.053, 648.832 370.072, 638.832 370.082, 633.432 370.096, 626.319 " />
            <path fill="none" stroke-width="3.0" stroke-linecap="butt" stroke-opacity="1.0" stroke="rgb(0, 0, 0)" stroke-linejoin="round" d=" M 360.118, 675.987 360.125, 665.987 360.132, 655.987 360.133, 655.688 360.140, 645.688 360.144, 640.009 360.151, 630.009 360.155, 625.564 " />
            <path fill="none" stroke-width="3.0" stroke-linecap="butt" stroke-opacity="1.0" stroke="rgb(0, 0, 0)" stroke-linejoin="round" d=" M 408.823, 595.774 407.362, 596.559 397.390, 595.806 388.299, 595.120 378.323, 594.418 370.157, 593.844 370.176, 583.844 370.195, 573.844 370.200, 571.268 370.219, 561.268 370.230, 555.585 370.239, 550.765 " />
            <path fill="none" stroke-width="3.0" stroke-linecap="butt" stroke-opacity="1.0" stroke="rgb(0, 0, 0)" stroke-linejoin="round" d=" M 360.174, 599.698 360.181, 589.698 360.188, 579.698 360.191, 576.707 360.198, 566.707 360.202, 560.734 360.210, 550.734 360.210, 550.097 370.239, 550.765 378.850, 551.338 388.840, 551.771 397.023, 552.125 405.367, 557.636 410.376, 560.945 411.880, 570.831 413.314, 580.253 410.534, 589.859 408.823, 595.774 408.505, 596.873 " />
            <path fill="none" stroke-width="3.0" stroke-linecap="butt" stroke-opacity="1.0" stroke="rgb(0, 0, 0)" stroke-linejoin="round" d=" M 419.566, 622.866 427.666, 617.001 428.574, 616.344 434.201, 608.077 434.522, 607.604 439.278, 599.506 441.291, 589.711 442.764, 582.546 441.597, 572.614 440.680, 564.804 436.417, 555.758 435.961, 554.790 430.745, 546.258 430.284, 545.503 423.320, 538.326 421.811, 536.771 413.793, 530.796 412.218, 529.622 402.484, 527.332 395.024, 525.577 385.033, 525.153 378.852, 524.891 368.870, 524.290 363.305, 523.956 353.323, 523.355 347.833, 523.025 337.851, 522.425 331.447, 522.040 " />
            <path fill="none" stroke-width="3.0" stroke-linecap="butt" stroke-opacity="1.0" stroke="rgb(0, 0, 0)" stroke-linejoin="round" d=" M 408.505, 596.873 399.696, 601.606 398.033, 602.500 388.062, 601.737 378.633, 601.015 368.658, 600.303 360.174, 599.698 368.800, 594.639 370.157, 593.844 " />
        </g>
    </g>
</svg>
