<?xml version='1.0' encoding='ascii'?>
<svg xmlns="http://www.w3.org/2000/svg" version="1.1" width="1080" height="1080">
    <g id="ViewLayer_LineSet" xmlns:inkscape="http://www.inkscape.org/namespaces/inkscape" inkscape:groupmode="lineset" inkscape:label="ViewLayer_LineSet">
        <g xmlns:inkscape="http://www.inkscape.org/namespaces/inkscape" inkscape:groupmode="layer" id="strokes" inkscape:label="strokes">
            <path fill="none" stroke-width="3.0" stroke-linecap="butt" stroke-opacity="1.0" stroke="rgb(0, 0, 0)" stroke-linejoin="round" d=" M 863.748, 622.371 860.591, 631.860 859.094, 636.360 853.090, 644.356 850.515, 647.784 843.424, 654.835 841.774, 656.475 832.222, 659.433 831.845, 659.549 824.316, 661.858 814.350, 661.036 806.307, 660.374 799.088, 657.050 790.100, 652.666 789.260, 652.256 783.256, 644.259 782.110, 642.732 777.132, 634.059 774.966, 630.284 772.986, 620.482 771.914, 615.174 772.459, 605.189 772.764, 599.602 775.722, 590.049 775.870, 589.571 " />
            <path fill="none" stroke-width="3.0" stroke-linecap="butt" stroke-opacity="1.0" stroke="rgb(0, 0, 0)" stroke-linejoin="round" d=" M 749.907, 655.571 755.527, 663.842 757.630, 666.937 764.752, 673.958 766.621, 675.801 774.503, 681.954 774.974, 682.321 783.626, 687.334 785.629, 688.495 795.190, 691.426 803.126, 693.859 813.097, 694.614 821.524, 695.253 831.427, 693.865 839.656, 692.711 848.928, 688.968 850.906, 688.169 859.698, 683.406 860.190, 683.140 868.222, 677.182 870.396, 675.569 877.139, 668.185 879.612, 665.477 885.113, 657.264 890.060, 648.573 890.421, 647.940 893.236, 638.344 895.357, 631.111 895.874, 621.124 896.271, 613.452 896.235, 607.153 894.558, 597.294 893.336, 590.112 889.551, 580.856 889.383, 580.444 885.024, 571.511 879.394, 563.246 877.223, 560.060 870.167, 552.974 868.255, 551.054 860.276, 545.027 859.685, 544.580 851.078, 539.489 849.111, 538.325 839.484, 535.619 831.362, 533.337 821.375, 532.824 812.996, 532.393 803.146, 534.119 795.122, 535.525 785.980, 539.576 784.311, 540.316 775.693, 545.388 775.307, 545.615 767.484, 551.844 765.590, 553.353 759.004, 560.878 756.825, 563.368 751.642, 571.552 746.854, 580.331 746.752, 580.519 743.909, 586.180 741.280, 595.828 739.394, 602.752 738.915, 612.741 738.566, 620.026 740.331, 629.869 741.606, 636.978 745.374, 646.241 745.594, 646.782 749.907, 655.571 " />
            <path fill="none" stroke-width="3.0" stroke-linecap="butt" stroke-opacity="1.0" stroke="rgb(0, 0, 0)" stroke-linejoin="round" d=" M 863.403, 628.166 860.244, 637.654 858.407, 643.171 852.397, 651.164 849.663, 654.800 842.566, 661.845 840.755, 663.643 831.199, 666.590 830.635, 666.763 822.963, 669.106 812.997, 668.274 804.610, 667.574 797.253, 664.181 788.268, 659.791 787.239, 659.288 781.235, 651.291 779.951, 649.580 774.973, 640.908 772.669, 636.894 770.687, 627.093 769.556, 621.502 770.099, 611.517 770.418, 605.641 773.375, 596.089 775.051, 590.676 775.870, 589.571 781.826, 581.538 783.641, 579.090 790.502, 571.816 791.974, 570.255 801.457, 567.082 802.561, 566.712 810.226, 564.358 820.208, 564.960 828.519, 565.460 835.858, 568.806 844.881, 573.118 846.244, 573.770 852.273, 581.749 853.664, 583.589 858.719, 592.217 861.168, 596.395 863.164, 606.194 864.362, 612.073 863.767, 622.056 863.748, 622.371 863.403, 628.166 " />
            <path fill="none" stroke-width="3.0" stroke-linecap="butt" stroke-opacity="1.0" stroke="rgb(0, 0, 0)" stroke-linejoin="round" d=" M 896.271, 613.452 894.593, 603.594 893.315, 596.085 889.529, 586.829 889.284, 586.230 884.898, 577.243 884.839, 577.122 879.209, 568.858 876.885, 565.446 869.830, 558.359 867.741, 556.261 859.763, 550.232 859.002, 549.657 850.397, 544.562 848.221, 543.273 838.595, 540.563 830.126, 538.177 820.139, 537.657 811.405, 537.202 801.553, 538.920 793.187, 540.380 784.042, 544.425 782.170, 545.253 773.549, 550.320 772.995, 550.645 765.170, 556.871 763.095, 558.522 756.507, 566.045 754.167, 568.717 748.889, 577.050 744.101, 585.829 743.909, 586.180 " />
            <path fill="none" stroke-width="3.0" stroke-linecap="butt" stroke-opacity="1.0" stroke="rgb(0, 0, 0)" stroke-linejoin="round" d=" M 534.839, 631.745 541.386, 632.235 551.358, 632.981 553.739, 633.160 563.701, 634.031 569.858, 634.570 579.851, 634.189 587.068, 633.913 595.876, 629.178 596.005, 629.109 604.226, 623.416 605.404, 622.601 610.854, 616.262 616.706, 608.153 617.042, 607.687 622.013, 599.743 624.279, 590.003 625.884, 583.105 624.890, 573.154 624.146, 565.701 619.936, 556.630 619.587, 555.878 614.390, 547.334 614.046, 546.767 607.055, 539.617 605.670, 538.201 597.613, 532.277 596.130, 531.186 586.384, 528.947 578.847, 527.215 568.856, 526.800 562.526, 526.537 552.543, 525.951 546.840, 525.616 536.857, 525.030 531.227, 524.699 521.244, 524.113 514.691, 523.728 507.428, 528.267 507.250, 538.265 507.072, 548.264 507.057, 549.094 506.879, 559.092 506.773, 565.047 506.595, 575.045 506.490, 580.941 506.312, 590.939 506.208, 596.776 506.031, 606.775 505.928, 612.553 505.750, 622.552 505.648, 628.272 505.470, 638.271 505.369, 643.933 505.191, 653.932 505.091, 659.537 504.913, 669.535 504.735, 679.534 504.732, 679.737 514.698, 680.559 521.264, 681.100 531.230, 681.922 533.769, 682.131 540.450, 674.801 540.669, 664.804 540.888, 654.877 541.108, 644.880 541.227, 639.488 541.386, 632.235 " />
            <path fill="none" stroke-width="3.0" stroke-linecap="butt" stroke-opacity="1.0" stroke="rgb(0, 0, 0)" stroke-linejoin="round" d=" M 533.769, 682.131 533.981, 672.134 534.193, 662.136 534.200, 661.848 534.412, 651.850 534.532, 646.179 534.745, 636.182 534.839, 631.745 " />
            <path fill="none" stroke-width="3.0" stroke-linecap="butt" stroke-opacity="1.0" stroke="rgb(0, 0, 0)" stroke-linejoin="round" d=" M 586.286, 599.583 580.289, 602.678 570.317, 601.935 560.721, 601.221 550.745, 600.528 542.097, 599.927 542.317, 589.930 542.537, 579.932 542.593, 577.368 542.813, 567.370 542.938, 561.696 543.047, 556.767 " />
            <path fill="none" stroke-width="3.0" stroke-linecap="butt" stroke-opacity="1.0" stroke="rgb(0, 0, 0)" stroke-linejoin="round" d=" M 535.388, 605.897 535.600, 595.900 535.812, 585.902 535.875, 582.923 536.088, 572.925 536.214, 566.962 536.427, 556.964 536.440, 556.333 543.047, 556.767 553.025, 557.423 555.587, 557.592 565.578, 558.023 574.264, 558.397 582.644, 563.854 587.819, 567.223 589.168, 577.132 590.446, 586.520 587.411, 596.049 586.286, 599.583 585.159, 603.123 " />
            <path fill="none" stroke-width="3.0" stroke-linecap="butt" stroke-opacity="1.0" stroke="rgb(0, 0, 0)" stroke-linejoin="round" d=" M 605.404, 622.601 611.255, 614.491 611.701, 613.874 616.758, 605.786 619.019, 596.045 620.691, 588.842 619.692, 578.892 618.911, 571.110 614.699, 562.041 614.261, 561.099 609.064, 552.556 608.612, 551.813 601.622, 544.661 600.076, 543.079 592.022, 537.152 590.354, 535.925 580.610, 533.678 572.752, 531.866 562.760, 531.444 556.131, 531.164 546.149, 530.570 540.159, 530.214 530.176, 529.620 524.263, 529.268 514.281, 528.674 507.428, 528.267 " />
            <path fill="none" stroke-width="3.0" stroke-linecap="butt" stroke-opacity="1.0" stroke="rgb(0, 0, 0)" stroke-linejoin="round" d=" M 585.159, 603.123 576.270, 607.706 574.272, 608.736 564.300, 607.983 554.348, 607.232 544.373, 606.530 535.388, 605.897 542.097, 599.927 " />
            <path fill="none" stroke-width="3.0" stroke-linecap="butt" stroke-opacity="1.0" stroke="rgb(0, 0, 0)" stroke-linejoin="round" d=" M 382.522, 569.146 381.613, 567.681 376.343, 559.182 374.552, 556.295 369.696, 548.465 364.426, 539.967 361.691, 535.558 356.736, 527.568 351.465, 519.069 349.826, 516.425 339.843, 515.835 329.861, 515.245 319.878, 514.655 319.487, 514.632 310.193, 518.321 308.678, 518.923 314.015, 527.380 319.351, 535.836 323.397, 542.247 328.734, 550.704 333.786, 558.709 339.122, 567.166 344.459, 575.623 346.008, 578.077 351.344, 586.534 354.320, 591.250 359.058, 598.759 353.370, 606.983 347.681, 615.207 346.916, 616.314 341.872, 623.607 336.183, 631.831 334.865, 633.736 329.628, 641.308 325.065, 647.906 319.376, 656.130 313.688, 664.354 311.058, 668.156 321.024, 668.984 330.989, 669.813 340.955, 670.641 341.401, 670.678 349.613, 664.972 351.483, 663.674 357.139, 655.427 362.872, 647.068 368.528, 638.821 370.445, 636.025 375.172, 629.133 378.153, 624.788 " />
            <path fill="none" stroke-width="3.0" stroke-linecap="butt" stroke-opacity="1.0" stroke="rgb(0, 0, 0)" stroke-linejoin="round" d=" M 362.872, 647.068 357.559, 654.812 351.904, 663.059 351.483, 663.674 " />
            <path fill="none" stroke-width="3.0" stroke-linecap="butt" stroke-opacity="1.0" stroke="rgb(0, 0, 0)" stroke-linejoin="round" d=" M 341.401, 670.678 347.050, 662.427 347.572, 661.665 352.963, 653.791 358.612, 645.539 360.653, 642.559 365.452, 635.548 371.101, 627.297 372.697, 624.966 375.634, 620.677 378.153, 624.788 383.377, 633.314 385.562, 636.879 390.343, 644.682 395.568, 653.208 398.104, 657.347 403.329, 665.873 403.448, 666.069 408.673, 674.595 409.755, 676.361 419.721, 677.189 429.686, 678.018 439.652, 678.846 440.833, 678.944 448.395, 672.401 449.227, 671.680 443.912, 663.210 438.597, 654.739 435.092, 649.153 430.514, 641.856 425.274, 633.508 419.960, 625.037 418.294, 622.382 413.286, 614.401 407.971, 605.930 402.656, 597.459 401.296, 595.292 406.051, 588.541 411.810, 580.365 414.427, 576.650 420.185, 568.475 425.944, 560.299 426.820, 559.056 432.201, 551.415 437.426, 543.999 443.185, 535.824 448.943, 527.648 452.571, 522.497 442.589, 521.907 432.606, 521.317 422.624, 520.728 421.468, 520.659 412.432, 525.134 406.811, 533.405 405.121, 535.892 400.036, 543.374 394.415, 551.645 391.668, 555.688 386.655, 563.064 382.522, 569.146 376.901, 577.417 375.740, 579.126 " />
            <path fill="none" stroke-width="3.0" stroke-linecap="butt" stroke-opacity="1.0" stroke="rgb(0, 0, 0)" stroke-linejoin="round" d=" M 375.740, 579.126 371.933, 572.990 366.661, 564.492 364.737, 561.390 359.788, 553.413 354.516, 544.916 351.630, 540.263 346.580, 532.122 341.308, 523.625 339.537, 520.770 " />
            <path fill="none" stroke-width="3.0" stroke-linecap="butt" stroke-opacity="1.0" stroke="rgb(0, 0, 0)" stroke-linejoin="round" d=" M 349.826, 516.425 340.613, 520.316 339.537, 520.770 329.555, 520.172 319.573, 519.575 309.591, 518.977 308.678, 518.923 " />
            <path fill="none" stroke-width="3.0" stroke-linecap="butt" stroke-opacity="1.0" stroke="rgb(0, 0, 0)" stroke-linejoin="round" d=" M 440.833, 678.944 435.517, 670.474 430.201, 662.005 426.428, 655.994 421.765, 648.559 416.424, 640.055 411.109, 631.584 409.312, 628.719 404.206, 620.590 398.890, 612.120 393.574, 603.650 391.987, 601.122 " />
            <path fill="none" stroke-width="3.0" stroke-linecap="butt" stroke-opacity="1.0" stroke="rgb(0, 0, 0)" stroke-linejoin="round" d=" M 426.820, 559.056 421.060, 567.231 419.529, 569.406 414.427, 576.650 " />
            <path fill="none" stroke-width="3.0" stroke-linecap="butt" stroke-opacity="1.0" stroke="rgb(0, 0, 0)" stroke-linejoin="round" d=" M 401.296, 595.292 392.821, 600.600 391.987, 601.122 396.818, 594.253 402.570, 586.072 405.326, 582.152 410.512, 574.778 416.264, 566.598 417.918, 564.246 423.387, 556.468 428.696, 548.919 434.448, 540.739 440.200, 532.559 444.088, 527.029 " />
            <path fill="none" stroke-width="3.0" stroke-linecap="butt" stroke-opacity="1.0" stroke="rgb(0, 0, 0)" stroke-linejoin="round" d=" M 452.571, 522.497 444.088, 527.029 434.106, 526.432 424.124, 525.834 414.142, 525.237 412.432, 525.134 " />
        </g>
    </g>
</svg>
