<?xml version='1.0' encoding='ascii'?>
<svg xmlns="http://www.w3.org/2000/svg" version="1.1" width="1080" height="1080">
    <g id="ViewLayer_LineSet" xmlns:inkscape="http://www.inkscape.org/namespaces/inkscape" inkscape:groupmode="lineset" inkscape:label="ViewLayer_LineSet">
        <g xmlns:inkscape="http://www.inkscape.org/namespaces/inkscape" inkscape:groupmode="layer" id="strokes" inkscape:label="strokes">
            <path fill="none" stroke-width="3.0" stroke-linecap="butt" stroke-opacity="1.0" stroke="rgb(0, 0, 0)" stroke-linejoin="round" d=" M 736.563, 637.487 730.699, 645.588 729.902, 646.688 722.925, 653.852 721.436, 655.382 711.903, 658.403 711.729, 658.458 704.368, 660.768 694.402, 659.934 686.669, 659.286 679.539, 655.964 670.571, 651.538 669.828, 651.171 663.828, 643.171 662.684, 641.647 657.690, 632.983 655.508, 629.198 653.440, 619.414 652.314, 614.087 652.718, 604.096 652.944, 598.513 655.737, 588.911 657.218, 583.815 663.030, 575.677 663.126, 575.542 " />
            <path fill="none" stroke-width="3.0" stroke-linecap="butt" stroke-opacity="1.0" stroke="rgb(0, 0, 0)" stroke-linejoin="round" d=" M 628.828, 654.471 634.452, 662.740 636.559, 665.837 643.661, 672.877 645.500, 674.700 653.358, 680.885 653.783, 681.220 662.412, 686.274 664.322, 687.393 673.871, 690.362 681.563, 692.754 691.534, 693.522 699.636, 694.145 709.535, 692.727 717.395, 691.600 726.635, 687.776 728.374, 687.056 737.112, 682.194 737.418, 682.024 745.364, 675.954 747.332, 674.451 753.948, 666.953 756.240, 664.356 761.529, 656.141 766.315, 647.361 766.613, 646.814 769.063, 639.904 771.710, 630.261 773.599, 623.379 773.976, 613.386 774.252, 606.044 772.479, 596.203 771.182, 589.002 767.353, 579.764 767.175, 579.334 762.779, 570.400 757.145, 562.138 754.971, 558.949 747.933, 551.845 746.049, 549.943 738.094, 543.884 737.551, 543.471 728.968, 538.339 727.089, 537.216 717.472, 534.475 709.599, 532.231 699.613, 531.710 691.558, 531.290 681.715, 533.052 674.053, 534.425 664.948, 538.561 663.502, 539.218 654.945, 544.391 654.733, 544.519 647.001, 550.861 645.295, 552.260 640.471, 557.407 634.014, 565.043 631.846, 567.606 626.779, 575.940 622.153, 584.806 622.014, 585.072 619.553, 594.764 617.805, 601.647 617.468, 611.642 617.223, 618.923 619.084, 628.748 620.433, 635.877 624.247, 645.122 624.477, 645.681 628.828, 654.471 " />
            <path fill="none" stroke-width="3.0" stroke-linecap="butt" stroke-opacity="1.0" stroke="rgb(0, 0, 0)" stroke-linejoin="round" d=" M 735.133, 642.051 729.267, 650.150 726.708, 653.683 719.728, 660.843 718.085, 662.529 708.549, 665.539 708.196, 665.651 700.698, 667.995 690.734, 667.150 682.669, 666.466 675.404, 663.074 666.440, 658.641 665.511, 658.182 659.511, 650.182 658.230, 648.474 653.234, 639.811 650.914, 635.788 648.842, 626.005 647.653, 620.395 648.053, 610.402 648.287, 604.531 651.076, 594.928 652.633, 589.563 658.444, 581.425 660.908, 577.975 663.126, 575.542 668.967, 569.137 678.427, 565.895 679.309, 565.592 686.799, 563.237 696.780, 563.847 704.764, 564.335 712.011, 567.680 721.013, 572.036 722.269, 572.644 728.294, 580.625 729.682, 582.463 734.753, 591.081 737.217, 595.269 739.303, 605.049 740.561, 610.948 740.110, 620.938 739.835, 627.043 736.845, 636.586 736.563, 637.487 735.133, 642.051 " />
            <path fill="none" stroke-width="3.0" stroke-linecap="butt" stroke-opacity="1.0" stroke="rgb(0, 0, 0)" stroke-linejoin="round" d=" M 766.613, 646.814 769.259, 637.171 771.231, 629.983 771.605, 619.990 771.892, 612.321 770.117, 602.480 768.759, 594.953 764.928, 585.716 764.671, 585.097 760.254, 576.125 760.188, 575.990 754.554, 567.727 752.226, 564.313 745.189, 557.208 743.130, 555.129 735.177, 549.067 734.466, 548.525 725.885, 543.390 723.801, 542.143 714.186, 539.395 705.976, 537.049 695.990, 536.521 687.592, 536.077 677.747, 537.833 669.758, 539.258 660.651, 543.390 659.012, 544.134 650.452, 549.304 650.081, 549.528 642.348, 555.869 640.471, 557.407 " />
            <path fill="none" stroke-width="3.0" stroke-linecap="butt" stroke-opacity="1.0" stroke="rgb(0, 0, 0)" stroke-linejoin="round" d=" M 495.874, 631.072 503.178, 631.621 513.150, 632.371 514.663, 632.485 524.625, 633.361 530.689, 633.894 540.682, 633.509 547.789, 633.235 556.649, 628.430 564.845, 622.700 565.961, 621.919 572.155, 615.593 577.960, 607.451 578.268, 607.018 583.174, 599.072 585.386, 589.320 586.949, 582.432 585.919, 572.486 585.146, 565.027 580.925, 555.962 580.572, 555.204 575.371, 546.663 575.025, 546.094 568.040, 538.938 566.663, 537.527 558.614, 531.593 557.150, 530.513 547.406, 528.263 539.955, 526.543 529.964, 526.127 523.730, 525.867 513.748, 525.279 508.135, 524.948 498.153, 524.359 492.614, 524.032 482.631, 523.444 476.174, 523.063 468.174, 527.589 468.042, 537.588 467.909, 547.587 467.898, 548.417 467.766, 558.416 467.687, 564.372 467.555, 574.371 467.476, 580.267 467.344, 590.266 467.267, 596.104 467.134, 606.103 467.058, 611.882 466.925, 621.881 466.849, 627.602 466.717, 637.601 466.642, 643.264 466.509, 653.264 466.435, 658.869 466.303, 668.868 466.170, 678.868 466.167, 679.071 476.133, 679.897 482.603, 680.433 492.569, 681.258 495.035, 681.462 502.145, 674.430 502.433, 674.145 502.608, 664.146 502.782, 654.219 502.957, 644.221 503.052, 638.828 503.178, 631.621 " />
            <path fill="none" stroke-width="3.0" stroke-linecap="butt" stroke-opacity="1.0" stroke="rgb(0, 0, 0)" stroke-linejoin="round" d=" M 495.035, 681.462 495.202, 671.464 495.368, 661.465 495.373, 661.177 495.540, 651.178 495.634, 645.507 495.801, 635.509 495.874, 631.072 " />
            <path fill="none" stroke-width="3.0" stroke-linecap="butt" stroke-opacity="1.0" stroke="rgb(0, 0, 0)" stroke-linejoin="round" d=" M 546.699, 599.418 541.717, 602.012 531.745, 601.266 522.261, 600.557 512.285, 599.861 503.745, 599.265 503.920, 589.267 504.095, 579.268 504.140, 576.704 504.315, 566.706 504.415, 561.031 504.500, 556.141 " />
            <path fill="none" stroke-width="3.0" stroke-linecap="butt" stroke-opacity="1.0" stroke="rgb(0, 0, 0)" stroke-linejoin="round" d=" M 496.305, 605.222 496.472, 595.224 496.638, 585.225 496.688, 582.246 496.854, 572.248 496.954, 566.284 497.120, 556.285 497.131, 555.654 504.500, 556.141 514.478, 556.800 516.165, 556.911 526.156, 557.343 534.729, 557.714 543.101, 563.183 548.239, 566.540 549.623, 576.443 550.935, 585.838 547.957, 595.384 546.699, 599.418 545.755, 602.443 " />
            <path fill="none" stroke-width="3.0" stroke-linecap="butt" stroke-opacity="1.0" stroke="rgb(0, 0, 0)" stroke-linejoin="round" d=" M 565.961, 621.919 571.764, 613.775 572.180, 613.191 577.170, 605.103 579.376, 595.349 581.003, 588.156 579.967, 578.210 579.155, 570.424 574.932, 561.360 574.490, 560.412 569.289, 551.872 568.835, 551.126 561.851, 543.969 560.313, 542.392 552.267, 536.454 550.620, 535.239 540.878, 532.981 533.108, 531.181 523.117, 530.758 516.588, 530.481 506.606, 529.884 500.711, 529.532 490.728, 528.936 484.909, 528.588 474.927, 527.992 468.174, 527.589 " />
            <path fill="none" stroke-width="3.0" stroke-linecap="butt" stroke-opacity="1.0" stroke="rgb(0, 0, 0)" stroke-linejoin="round" d=" M 545.755, 602.443 536.883, 607.057 534.961, 608.057 524.989, 607.301 515.154, 606.555 505.179, 605.850 496.305, 605.222 503.745, 599.265 " />
            <path fill="none" stroke-width="3.0" stroke-linecap="butt" stroke-opacity="1.0" stroke="rgb(0, 0, 0)" stroke-linejoin="round" d=" M -1.794, 615.966 1.556, 621.377 6.388, 629.183 11.651, 637.685 14.230, 641.851 19.493, 650.353 19.631, 650.575 24.894, 659.078 26.003, 660.870 35.967, 661.725 45.930, 662.580 55.249, 663.379 64.371, 659.282 70.779, 656.403 65.432, 647.953 60.085, 639.502 56.522, 633.871 51.905, 626.573 46.620, 618.223 41.273, 609.772 39.579, 607.094 34.528, 599.111 29.181, 590.661 23.834, 582.210 22.435, 579.998 26.602, 573.224 31.840, 564.706 33.941, 561.291 39.180, 552.773 44.419, 544.255 44.800, 543.636 49.515, 535.968 54.093, 528.525 59.332, 520.008 64.571, 511.490 67.364, 506.948 57.382, 506.347 47.400, 505.745 38.090, 505.184 28.401, 507.659 21.729, 509.363 16.647, 517.976 15.359, 520.159 10.929, 527.667 5.847, 536.280 3.637, 540.025 -0.549, 547.120 " />
            <path fill="none" stroke-width="3.0" stroke-linecap="butt" stroke-opacity="1.0" stroke="rgb(0, 0, 0)" stroke-linejoin="round" d=" M 55.249, 663.379 49.900, 654.930 44.552, 646.480 40.718, 640.424 36.016, 632.988 30.625, 624.482 25.280, 616.031 23.453, 613.143 18.301, 605.012 12.952, 596.562 7.604, 588.113 5.975, 585.540 " />
            <path fill="none" stroke-width="3.0" stroke-linecap="butt" stroke-opacity="1.0" stroke="rgb(0, 0, 0)" stroke-linejoin="round" d=" M 44.800, 543.636 39.559, 552.152 38.409, 554.022 33.941, 561.291 " />
            <path fill="none" stroke-width="3.0" stroke-linecap="butt" stroke-opacity="1.0" stroke="rgb(0, 0, 0)" stroke-linejoin="round" d=" M 22.435, 579.998 12.957, 583.189 5.975, 585.540 10.195, 578.646 15.415, 570.117 17.627, 566.502 22.157, 559.102 27.377, 550.573 28.626, 548.532 33.403, 540.726 38.040, 533.150 43.261, 524.621 48.481, 516.091 51.486, 511.182 " />
            <path fill="none" stroke-width="3.0" stroke-linecap="butt" stroke-opacity="1.0" stroke="rgb(0, 0, 0)" stroke-linejoin="round" d=" M 67.364, 506.948 57.702, 509.524 51.486, 511.182 41.504, 510.572 31.523, 509.962 21.729, 509.363 " />
        </g>
    </g>
</svg>
