<?xml version='1.0' encoding='ascii'?>
<svg xmlns="http://www.w3.org/2000/svg" version="1.1" width="1080" height="1080">
    <g id="ViewLayer_LineSet" xmlns:inkscape="http://www.inkscape.org/namespaces/inkscape" inkscape:groupmode="lineset" inkscape:label="ViewLayer_LineSet">
        <g xmlns:inkscape="http://www.inkscape.org/namespaces/inkscape" inkscape:groupmode="layer" id="strokes" inkscape:label="strokes">
            <path fill="none" stroke-width="3.0" stroke-linecap="butt" stroke-opacity="1.0" stroke="rgb(0, 0, 0)" stroke-linejoin="round" d=" M 351.139, 642.771 348.400, 643.712 341.548, 646.043 331.585, 645.185 324.789, 644.599 317.927, 641.288 309.021, 636.739 308.571, 636.509 302.580, 628.502 301.445, 626.986 296.402, 618.351 294.172, 614.533 291.842, 604.808 290.547, 599.405 290.526, 589.405 290.513, 583.804 292.787, 574.065 293.953, 569.072 299.291, 560.616 301.163, 557.652 307.245, 550.206 " />
            <path fill="none" stroke-width="3.0" stroke-linecap="butt" stroke-opacity="1.0" stroke="rgb(0, 0, 0)" stroke-linejoin="round" d=" M 262.587, 639.607 268.223, 647.868 270.341, 650.974 277.386, 658.071 279.132, 659.831 286.917, 666.108 287.208, 666.342 295.765, 671.516 297.393, 672.501 306.908, 675.580 313.862, 677.831 323.831, 678.619 330.951, 679.182 340.832, 677.643 347.582, 676.591 356.699, 672.483 357.740, 672.014 366.055, 666.952 374.170, 661.108 376.104, 659.716 383.753, 653.274 384.986, 652.235 391.177, 644.382 392.836, 642.278 397.409, 634.183 401.680, 625.141 401.748, 624.996 403.879, 615.226 405.361, 608.434 405.312, 598.434 405.277, 591.069 403.221, 581.283 401.692, 574.006 397.732, 564.823 397.520, 564.331 393.011, 555.393 387.368, 547.138 385.182, 543.941 378.198, 536.784 376.400, 534.941 368.518, 528.787 368.120, 528.477 359.608, 523.230 357.996, 522.236 348.409, 519.393 341.293, 517.283 331.306, 516.755 324.232, 516.382 314.415, 518.286 307.842, 519.562 298.549, 523.255 296.409, 524.106 287.445, 528.539 286.483, 529.015 278.289, 534.439 270.880, 541.155 269.558, 542.354 263.543, 550.342 261.851, 552.589 257.419, 560.949 253.305, 570.108 251.366, 579.918 250.022, 586.721 250.117, 596.720 250.186, 604.027 252.329, 613.794 253.910, 621.002 257.858, 630.190 258.125, 630.813 262.587, 639.607 " />
            <path fill="none" stroke-width="3.0" stroke-linecap="butt" stroke-opacity="1.0" stroke="rgb(0, 0, 0)" stroke-linejoin="round" d=" M 347.033, 647.469 337.843, 650.620 330.874, 652.985 320.912, 652.115 313.820, 651.496 306.834, 648.115 297.933, 643.558 297.310, 643.238 291.319, 635.231 290.048, 633.531 285.002, 624.898 282.631, 620.841 280.292, 611.119 278.923, 605.430 278.888, 595.430 278.867, 589.538 281.125, 579.797 282.345, 574.535 287.673, 566.072 289.665, 562.908 295.983, 555.156 296.895, 554.037 306.266, 550.547 306.495, 550.462 307.245, 550.206 313.456, 548.085 323.437, 548.707 330.432, 549.143 337.399, 552.477 346.339, 556.957 347.271, 557.424 353.284, 565.414 354.661, 567.242 359.777, 575.834 362.289, 580.052 364.641, 589.772 366.087, 595.750 366.074, 605.750 366.066, 611.874 363.610, 621.567 362.255, 626.918 356.869, 635.344 354.795, 638.589 351.139, 642.771 347.033, 647.469 " />
            <path fill="none" stroke-width="3.0" stroke-linecap="butt" stroke-opacity="1.0" stroke="rgb(0, 0, 0)" stroke-linejoin="round" d=" M 366.055, 666.952 373.703, 660.509 375.086, 659.343 381.272, 651.487 383.065, 649.211 387.710, 640.969 391.972, 631.923 392.116, 631.615 394.236, 621.843 395.775, 614.745 395.715, 604.745 395.669, 597.052 393.605, 587.268 392.001, 579.662 388.037, 570.481 387.742, 569.800 383.236, 560.873 383.142, 560.687 377.498, 552.432 375.158, 549.010 368.176, 541.850 366.207, 539.831 358.328, 533.673 357.770, 533.237 349.262, 527.983 347.457, 526.869 337.872, 524.017 330.449, 521.808 320.463, 521.273 313.084, 520.877 303.266, 522.778 296.409, 524.106 " />
        </g>
    </g>
</svg>
