<?xml version='1.0' encoding='ascii'?>
<svg xmlns="http://www.w3.org/2000/svg" version="1.1" width="1080" height="1080">
    <g id="ViewLayer_LineSet" xmlns:inkscape="http://www.inkscape.org/namespaces/inkscape" inkscape:groupmode="lineset" inkscape:label="ViewLayer_LineSet">
        <g xmlns:inkscape="http://www.inkscape.org/namespaces/inkscape" inkscape:groupmode="layer" id="strokes" inkscape:label="strokes">
            <path fill="none" stroke-width="3.0" stroke-linecap="butt" stroke-opacity="1.0" stroke="rgb(0, 0, 0)" stroke-linejoin="round" d=" M 181.211, 637.036 181.008, 627.038 180.906, 621.998 180.703, 612.000 180.600, 606.906 180.397, 596.908 180.293, 591.761 180.090, 581.763 179.985, 576.562 179.782, 566.564 179.675, 561.309 179.473, 551.311 179.365, 546.001 179.162, 536.003 179.053, 530.639 178.851, 520.641 178.647, 510.587 168.665, 509.990 158.682, 509.393 151.887, 508.987 142.307, 511.858 138.047, 513.135 138.296, 523.132 138.546, 533.129 138.555, 533.468 138.804, 543.465 138.944, 549.043 139.193, 559.040 139.331, 564.563 139.581, 574.560 139.718, 580.026 139.967, 590.023 140.103, 595.434 140.352, 605.431 140.486, 610.787 140.736, 620.784 140.868, 626.085 141.118, 636.081 141.249, 641.328 141.499, 651.324 141.742, 661.063 151.707, 661.902 161.671, 662.742 168.491, 663.317 177.366, 658.709 181.606, 656.508 181.403, 646.510 181.211, 637.036 " />
            <path fill="none" stroke-width="3.0" stroke-linecap="butt" stroke-opacity="1.0" stroke="rgb(0, 0, 0)" stroke-linejoin="round" d=" M 168.491, 663.317 168.273, 653.319 168.058, 643.502 167.840, 633.504 167.724, 628.197 167.506, 618.199 167.389, 612.837 167.170, 602.839 167.052, 597.422 166.834, 587.424 166.714, 581.951 166.496, 571.953 166.375, 566.424 166.157, 556.426 166.035, 550.840 165.816, 540.843 165.693, 535.200 165.475, 525.202 165.257, 515.205 165.247, 514.783 " />
            <path fill="none" stroke-width="3.0" stroke-linecap="butt" stroke-opacity="1.0" stroke="rgb(0, 0, 0)" stroke-linejoin="round" d=" M 178.647, 510.587 169.104, 513.575 165.247, 514.783 155.266, 514.178 145.284, 513.574 138.047, 513.135 " />
            <path fill="none" stroke-width="3.0" stroke-linecap="butt" stroke-opacity="1.0" stroke="rgb(0, 0, 0)" stroke-linejoin="round" d=" M 908.246, 640.884 907.596, 650.863 907.248, 656.205 906.598, 666.184 905.956, 676.041 906.173, 683.362 916.143, 684.142 923.710, 684.734 933.680, 685.514 936.976, 685.771 937.663, 675.795 938.350, 665.819 938.372, 665.497 939.059, 655.520 939.451, 649.835 940.138, 639.859 940.444, 635.407 950.419, 636.116 960.500, 636.832 970.465, 637.659 977.596, 638.251 987.589, 637.899 995.948, 637.604 1004.918, 633.185 1005.684, 632.808 1014.143, 627.473 1015.991, 626.307 1022.309, 618.556 1023.098, 617.588 1028.856, 609.507 1031.672, 599.911 1033.826, 592.572 1033.220, 582.590 1032.750, 574.847 1028.660, 565.721 1028.263, 564.837 1025.719, 559.544 1020.564, 550.975 1020.239, 550.435 1013.189, 543.343 1011.722, 541.867 1003.583, 536.056 1001.895, 534.850 992.126, 532.713 983.698, 530.870 973.706, 530.474 966.375, 530.183 956.390, 529.625 949.737, 529.254 939.753, 528.696 933.178, 528.328 923.194, 527.770 915.639, 527.348 914.990, 537.327 914.340, 547.306 914.308, 547.787 913.659, 557.766 913.289, 563.444 912.639, 573.423 912.273, 579.045 911.623, 589.024 911.261, 594.589 910.611, 604.568 910.252, 610.076 909.602, 620.055 909.247, 625.508 908.597, 635.487 908.246, 640.884 " />
            <path fill="none" stroke-width="3.0" stroke-linecap="butt" stroke-opacity="1.0" stroke="rgb(0, 0, 0)" stroke-linejoin="round" d=" M 916.045, 531.956 915.395, 541.935 914.744, 551.913 914.688, 552.774 914.037, 562.752 913.648, 568.720 912.998, 578.699 912.612, 584.607 911.962, 594.586 911.580, 600.436 910.930, 610.415 910.552, 616.206 909.901, 626.185 909.528, 631.918 908.877, 641.897 908.507, 647.573 907.856, 657.552 907.490, 663.170 906.839, 673.149 906.189, 683.128 906.173, 683.362 " />
            <path fill="none" stroke-width="3.0" stroke-linecap="butt" stroke-opacity="1.0" stroke="rgb(0, 0, 0)" stroke-linejoin="round" d=" M 942.223, 609.570 942.633, 603.618 943.320, 593.641 943.804, 586.606 944.491, 576.630 944.903, 570.652 945.590, 560.675 945.635, 560.027 955.615, 560.651 965.596, 561.274 965.961, 561.297 975.952, 561.707 985.807, 562.112 994.269, 567.441 998.270, 569.961 999.830, 570.943 " />
            <path fill="none" stroke-width="3.0" stroke-linecap="butt" stroke-opacity="1.0" stroke="rgb(0, 0, 0)" stroke-linejoin="round" d=" M 1028.263, 564.837 1023.109, 556.267 1022.678, 555.551 1015.628, 548.459 1013.994, 546.816 1005.857, 541.003 1003.976, 539.659 994.208, 537.518 985.423, 535.591 975.431, 535.189 967.761, 534.880 957.777, 534.315 950.801, 533.921 940.817, 533.356 933.922, 532.967 923.938, 532.402 916.045, 531.956 915.639, 527.348 " />
            <path fill="none" stroke-width="3.0" stroke-linecap="butt" stroke-opacity="1.0" stroke="rgb(0, 0, 0)" stroke-linejoin="round" d=" M 998.270, 569.961 999.254, 579.912 999.707, 584.496 996.116, 593.829 993.437, 600.791 984.402, 605.076 981.815, 606.303 971.839, 605.597 961.864, 604.891 961.074, 604.835 951.095, 604.176 942.633, 603.618 " />
            <path fill="none" stroke-width="3.0" stroke-linecap="butt" stroke-opacity="1.0" stroke="rgb(0, 0, 0)" stroke-linejoin="round" d=" M 999.830, 570.943 1000.812, 580.895 1001.734, 590.234 998.138, 599.564 995.338, 606.827 986.298, 611.102 983.489, 612.430 973.514, 611.716 963.540, 611.001 962.347, 610.916 952.369, 610.249 942.223, 609.570 " />
            <path fill="none" stroke-width="3.0" stroke-linecap="butt" stroke-opacity="1.0" stroke="rgb(0, 0, 0)" stroke-linejoin="round" d=" M 723.586, 601.853 717.455, 609.753 713.962, 614.256 708.401, 621.422 702.271, 629.322 700.678, 631.375 694.547, 639.276 689.873, 645.300 683.742, 653.201 677.612, 661.101 674.428, 665.204 670.361, 672.207 680.330, 672.998 690.298, 673.788 700.267, 674.579 702.419, 674.750 708.514, 666.822 709.346, 665.741 715.397, 657.870 721.492, 649.942 724.027, 646.644 729.414, 639.637 735.509, 631.709 737.546, 629.060 740.842, 624.773 746.029, 633.323 750.675, 640.980 755.411, 648.787 760.598, 657.336 763.098, 661.457 768.285, 670.006 768.392, 670.182 773.579, 678.732 774.638, 680.478 784.607, 681.269 794.575, 682.059 804.544, 682.850 807.474, 683.082 809.083, 675.738 803.799, 667.248 798.515, 658.758 795.057, 653.202 790.515, 645.903 785.316, 637.551 780.032, 629.061 778.389, 626.421 773.420, 618.436 768.136, 609.946 762.852, 601.456 762.471, 600.844 " />
            <path fill="none" stroke-width="3.0" stroke-linecap="butt" stroke-opacity="1.0" stroke="rgb(0, 0, 0)" stroke-linejoin="round" d=" M 759.013, 605.229 762.471, 600.844 764.427, 598.363 770.619, 590.510 773.963, 586.268 779.775, 578.898 785.967, 571.046 788.076, 568.371 794.205, 560.597 800.155, 553.052 806.347, 545.199 812.539, 537.347 817.407, 531.172 818.858, 526.560 808.874, 525.995 798.890, 525.431 788.906, 524.866 786.001, 524.702 779.934, 532.651 773.867, 540.601 772.334, 542.611 766.267, 550.560 763.106, 554.703 757.578, 561.947 751.511, 569.897 745.539, 577.722 741.835, 571.697 736.599, 563.177 734.834, 560.306 730.020, 552.474 724.784, 543.955 722.083, 539.562 717.170, 531.568 711.934, 523.049 710.319, 520.422 700.335, 519.857 690.351, 519.292 680.367, 518.727 678.270, 518.609 674.205, 522.976 679.511, 531.452 684.817, 539.928 688.813, 546.310 694.119, 554.786 699.124, 562.778 704.430, 571.254 709.736, 579.730 711.254, 582.154 716.560, 590.630 719.504, 595.332 723.586, 601.853 724.206, 602.844 718.074, 610.743 711.942, 618.642 710.585, 620.390 704.926, 627.680 698.794, 635.579 697.067, 637.804 691.192, 645.373 686.073, 651.967 679.941, 659.866 673.809, 667.765 670.361, 672.207 " />
            <path fill="none" stroke-width="3.0" stroke-linecap="butt" stroke-opacity="1.0" stroke="rgb(0, 0, 0)" stroke-linejoin="round" d=" M 742.728, 583.222 738.954, 577.084 733.717, 568.565 731.820, 565.479 726.915, 557.500 721.677, 548.981 718.827, 544.345 713.820, 536.201 708.584, 527.681 706.839, 524.844 " />
            <path fill="none" stroke-width="3.0" stroke-linecap="butt" stroke-opacity="1.0" stroke="rgb(0, 0, 0)" stroke-linejoin="round" d=" M 710.319, 520.422 706.839, 524.844 696.856, 524.273 686.872, 523.701 676.888, 523.130 674.205, 522.976 " />
            <path fill="none" stroke-width="3.0" stroke-linecap="butt" stroke-opacity="1.0" stroke="rgb(0, 0, 0)" stroke-linejoin="round" d=" M 807.474, 683.082 802.189, 674.593 796.905, 666.103 793.183, 660.123 788.555, 652.685 783.257, 644.178 777.973, 635.688 776.199, 632.837 771.135, 624.704 765.851, 616.215 760.567, 607.725 759.013, 605.229 " />
            <path fill="none" stroke-width="3.0" stroke-linecap="butt" stroke-opacity="1.0" stroke="rgb(0, 0, 0)" stroke-linejoin="round" d=" M 772.334, 542.611 777.939, 535.265 784.006, 527.316 786.001, 524.702 783.928, 529.256 " />
            <path fill="none" stroke-width="3.0" stroke-linecap="butt" stroke-opacity="1.0" stroke="rgb(0, 0, 0)" stroke-linejoin="round" d=" M 817.407, 531.172 807.423, 530.601 797.440, 530.029 787.456, 529.458 783.928, 529.256 777.860, 537.204 775.719, 540.009 770.010, 547.487 763.941, 555.436 760.613, 559.796 754.984, 567.169 748.916, 575.117 742.728, 583.222 745.539, 577.722 " />
        </g>
    </g>
</svg>
