<?xml version='1.0' encoding='ascii'?>
<svg xmlns="http://www.w3.org/2000/svg" version="1.1" width="1080" height="1080">
    <g id="ViewLayer_LineSet" xmlns:inkscape="http://www.inkscape.org/namespaces/inkscape" inkscape:groupmode="lineset" inkscape:label="ViewLayer_LineSet">
        <g xmlns:inkscape="http://www.inkscape.org/namespaces/inkscape" inkscape:groupmode="layer" id="strokes" inkscape:label="strokes">
            <path fill="none" stroke-width="3.0" stroke-linecap="butt" stroke-opacity="1.0" stroke="rgb(0, 0, 0)" stroke-linejoin="round" d=" M 567.280, 652.313 567.437, 646.055 567.595, 639.787 567.752, 633.510 567.910, 627.223 568.068, 620.928 568.226, 614.623 568.385, 608.309 568.591, 600.086 558.615, 599.391 556.801, 599.264 554.219, 601.657 554.026, 609.926 553.877, 616.276 553.728, 622.617 553.580, 628.948 553.432, 635.270 553.284, 641.582 553.136, 647.885 552.989, 654.179 552.798, 662.347 562.766, 663.137 564.586, 663.281 567.076, 660.436 567.280, 652.313 " />
            <path fill="none" stroke-width="3.0" stroke-linecap="butt" stroke-opacity="1.0" stroke="rgb(0, 0, 0)" stroke-linejoin="round" d=" M 564.586, 663.281 564.789, 655.099 564.946, 648.795 565.102, 642.481 565.259, 636.158 565.417, 629.826 565.574, 623.484 565.732, 617.133 565.889, 610.772 566.095, 602.489 " />
            <path fill="none" stroke-width="3.0" stroke-linecap="butt" stroke-opacity="1.0" stroke="rgb(0, 0, 0)" stroke-linejoin="round" d=" M 568.591, 600.086 566.095, 602.489 556.119, 601.790 554.219, 601.657 " />
            <path fill="none" stroke-width="3.0" stroke-linecap="butt" stroke-opacity="1.0" stroke="rgb(0, 0, 0)" stroke-linejoin="round" d=" M 511.715, 629.029 510.917, 627.365 509.941, 625.334 509.194, 623.776 507.790, 620.851 506.850, 618.893 506.093, 617.315 504.662, 614.333 503.757, 612.448 502.990, 610.851 501.532, 607.813 500.662, 606.001 499.886, 604.384 498.401, 601.289 497.567, 599.551 496.781, 597.913 495.376, 594.987 492.678, 594.799 489.555, 594.581 486.435, 594.364 483.006, 594.125 481.884, 594.964 481.027, 595.605 479.894, 596.452 479.847, 599.652 479.800, 602.831 479.753, 606.006 479.707, 609.180 479.660, 612.351 479.613, 615.519 479.567, 618.686 479.520, 621.850 479.474, 625.011 479.427, 628.171 479.381, 631.328 479.334, 634.482 479.288, 637.635 479.241, 640.785 479.195, 643.932 479.149, 647.078 479.102, 650.221 479.056, 653.361 479.010, 656.520 482.438, 656.791 485.558, 657.038 488.681, 657.286 490.541, 657.433 491.639, 656.424 492.469, 655.662 493.557, 654.662 493.609, 651.522 493.660, 648.398 493.712, 645.273 493.763, 642.145 493.814, 639.015 493.866, 635.882 493.917, 632.747 493.969, 629.610 494.021, 626.471 494.061, 623.993 " />
            <path fill="none" stroke-width="3.0" stroke-linecap="butt" stroke-opacity="1.0" stroke="rgb(0, 0, 0)" stroke-linejoin="round" d=" M 491.145, 619.854 491.049, 625.873 490.998, 629.038 490.947, 632.200 490.896, 635.360 490.845, 638.517 490.794, 641.672 490.744, 644.825 490.693, 647.976 490.642, 651.124 490.592, 654.270 490.541, 657.433 " />
            <path fill="none" stroke-width="3.0" stroke-linecap="butt" stroke-opacity="1.0" stroke="rgb(0, 0, 0)" stroke-linejoin="round" d=" M 492.055, 619.856 493.954, 623.772 494.061, 623.993 495.319, 626.588 497.095, 630.251 498.493, 633.133 500.235, 636.726 501.665, 639.676 502.600, 641.603 503.373, 643.199 504.836, 646.215 505.990, 648.596 507.660, 648.726 510.808, 648.970 512.480, 649.100 513.523, 648.110 514.312, 647.361 515.345, 646.380 516.578, 644.197 518.141, 641.430 518.968, 639.965 519.968, 638.194 521.500, 635.483 523.367, 632.177 524.867, 629.522 525.674, 628.092 526.775, 626.145 528.242, 623.546 528.423, 623.226 " />
            <path fill="none" stroke-width="3.0" stroke-linecap="butt" stroke-opacity="1.0" stroke="rgb(0, 0, 0)" stroke-linejoin="round" d=" M 501.710, 616.817 503.152, 619.821 503.915, 621.410 504.863, 623.383 506.277, 626.330 507.031, 627.899 508.014, 629.946 509.481, 633.002 509.598, 632.792 511.079, 630.159 511.715, 629.029 512.160, 628.237 512.975, 626.789 514.495, 624.085 515.531, 622.244 516.359, 620.770 517.919, 617.996 518.909, 616.236 519.752, 614.737 521.352, 611.891 522.296, 610.214 523.153, 608.689 524.794, 605.772 525.691, 604.177 526.563, 602.626 528.133, 599.833 529.142, 598.971 529.904, 598.318 530.903, 597.464 533.548, 597.648 536.713, 597.868 539.881, 598.089 543.369, 598.332 543.298, 601.537 543.227, 604.720 543.157, 607.900 543.087, 611.078 543.016, 614.253 542.946, 617.426 542.876, 620.597 542.806, 623.765 542.736, 626.931 542.665, 630.095 542.595, 633.256 542.526, 636.415 542.456, 639.571 542.386, 642.726 542.316, 645.878 542.246, 649.027 542.176, 652.174 542.107, 655.319 542.037, 658.482 541.073, 659.499 540.338, 660.275 539.366, 661.302 535.878, 661.026 532.710, 660.775 529.546, 660.524 527.663, 660.375 527.728, 657.195 527.793, 654.032 527.857, 650.867 527.922, 647.700 527.987, 644.530 528.052, 641.359 528.117, 638.184 528.182, 635.008 528.247, 631.829 528.312, 628.647 528.423, 623.226 528.436, 622.585 528.473, 620.770 " />
            <path fill="none" stroke-width="3.0" stroke-linecap="butt" stroke-opacity="1.0" stroke="rgb(0, 0, 0)" stroke-linejoin="round" d=" M 495.376, 594.987 494.285, 595.830 493.453, 596.474 492.352, 597.325 " />
            <path fill="none" stroke-width="3.0" stroke-linecap="butt" stroke-opacity="1.0" stroke="rgb(0, 0, 0)" stroke-linejoin="round" d=" M 479.894, 596.452 483.347, 596.694 486.490, 596.914 489.635, 597.135 492.352, 597.325 493.768, 600.274 494.559, 601.923 495.400, 603.674 496.897, 606.793 497.679, 608.422 498.556, 610.247 500.026, 613.308 " />
            <path fill="none" stroke-width="3.0" stroke-linecap="butt" stroke-opacity="1.0" stroke="rgb(0, 0, 0)" stroke-linejoin="round" d=" M 491.174, 618.039 489.231, 622.568 491.145, 619.854 491.145, 619.854 492.055, 619.856 494.129, 619.859 495.564, 619.861 " />
            <path fill="none" stroke-width="3.0" stroke-linecap="butt" stroke-opacity="1.0" stroke="rgb(0, 0, 0)" stroke-linejoin="round" d=" M 500.026, 613.308 500.800, 614.916 501.710, 616.817 500.026, 613.308 " />
            <path fill="none" stroke-width="3.0" stroke-linecap="butt" stroke-opacity="1.0" stroke="rgb(0, 0, 0)" stroke-linejoin="round" d=" M 521.500, 635.483 522.316, 634.038 523.367, 632.177 " />
            <path fill="none" stroke-width="3.0" stroke-linecap="butt" stroke-opacity="1.0" stroke="rgb(0, 0, 0)" stroke-linejoin="round" d=" M 525.462, 626.106 523.984, 628.723 522.877, 630.685 522.064, 632.124 520.554, 634.798 519.498, 636.670 518.675, 638.127 517.133, 640.857 516.127, 642.640 515.294, 644.116 513.721, 646.902 512.480, 649.100 " />
            <path fill="none" stroke-width="3.0" stroke-linecap="butt" stroke-opacity="1.0" stroke="rgb(0, 0, 0)" stroke-linejoin="round" d=" M 540.689, 600.714 540.618, 603.942 540.548, 607.148 540.478, 610.351 540.408, 613.552 540.339, 616.751 540.269, 619.947 540.199, 623.141 540.129, 626.333 540.060, 629.522 539.990, 632.708 539.921, 635.893 539.851, 639.075 539.782, 642.254 539.712, 645.431 539.643, 648.606 539.574, 651.779 539.504, 654.949 539.435, 658.117 539.366, 661.302 " />
            <path fill="none" stroke-width="3.0" stroke-linecap="butt" stroke-opacity="1.0" stroke="rgb(0, 0, 0)" stroke-linejoin="round" d=" M 543.369, 598.332 542.402, 599.191 541.665, 599.847 540.689, 600.714 537.176, 600.467 533.985, 600.244 530.797, 600.020 528.133, 599.833 " />
            <path fill="none" stroke-width="3.0" stroke-linecap="butt" stroke-opacity="1.0" stroke="rgb(0, 0, 0)" stroke-linejoin="round" d=" M 528.473, 620.770 527.397, 622.677 525.462, 626.106 527.391, 622.678 " />
            <path fill="none" stroke-width="3.0" stroke-linecap="butt" stroke-opacity="1.0" stroke="rgb(0, 0, 0)" stroke-linejoin="round" d=" M 455.058, 627.521 452.859, 624.465 450.805, 621.611 448.389, 618.253 445.512, 614.254 443.137, 610.953 440.218, 606.897 437.884, 603.653 434.925, 599.540 432.632, 596.353 428.511, 590.626 423.488, 590.276 419.511, 589.999 415.958, 592.270 415.899, 600.367 415.854, 606.586 415.809, 612.795 415.764, 618.996 415.719, 625.187 415.674, 631.370 415.630, 637.543 415.585, 643.708 415.527, 651.709 419.504, 652.024 426.822, 652.604 430.276, 649.899 430.347, 641.942 430.402, 635.811 430.457, 629.671 430.513, 623.523 430.552, 619.137 " />
            <path fill="none" stroke-width="3.0" stroke-linecap="butt" stroke-opacity="1.0" stroke="rgb(0, 0, 0)" stroke-linejoin="round" d=" M 426.822, 652.604 426.890, 644.590 426.943, 638.415 426.996, 632.232 427.049, 626.039 427.135, 616.039 427.149, 614.462 430.552, 619.137 431.376, 620.269 434.258, 624.227 436.695, 627.575 439.614, 631.585 442.014, 634.881 447.333, 642.188 450.918, 647.113 452.900, 649.835 456.637, 654.967 462.131, 655.403 466.165, 655.723 469.347, 652.979 469.456, 644.977 469.540, 638.811 469.624, 632.637 469.708, 626.453 469.792, 620.261 469.876, 614.060 469.960, 607.849 470.045, 601.630 470.154, 593.616 466.119, 593.334 458.721, 592.818 455.442, 595.124 455.347, 603.183 455.272, 609.437 455.198, 615.682 455.124, 621.918 455.058, 627.521 455.050, 628.145 454.975, 634.536 " />
            <path fill="none" stroke-width="3.0" stroke-linecap="butt" stroke-opacity="1.0" stroke="rgb(0, 0, 0)" stroke-linejoin="round" d=" M 454.975, 634.536 453.045, 631.854 449.551, 626.997 447.482, 624.122 445.048, 620.739 442.149, 616.710 439.756, 613.384 436.815, 609.298 434.464, 606.029 431.485, 601.884 429.172, 598.675 425.021, 592.905 " />
            <path fill="none" stroke-width="3.0" stroke-linecap="butt" stroke-opacity="1.0" stroke="rgb(0, 0, 0)" stroke-linejoin="round" d=" M 428.511, 590.626 425.021, 592.905 419.963, 592.551 415.958, 592.270 " />
            <path fill="none" stroke-width="3.0" stroke-linecap="butt" stroke-opacity="1.0" stroke="rgb(0, 0, 0)" stroke-linejoin="round" d=" M 466.165, 655.723 466.272, 647.663 466.354, 641.454 466.436, 635.235 466.518, 629.007 466.600, 622.770 466.683, 616.524 466.766, 610.269 466.848, 604.004 466.955, 595.932 " />
            <path fill="none" stroke-width="3.0" stroke-linecap="butt" stroke-opacity="1.0" stroke="rgb(0, 0, 0)" stroke-linejoin="round" d=" M 470.154, 593.616 466.955, 595.932 462.892, 595.647 455.442, 595.124 " />
            <path fill="none" stroke-width="3.0" stroke-linecap="butt" stroke-opacity="1.0" stroke="rgb(0, 0, 0)" stroke-linejoin="round" d=" M 528.803, 622.552 530.334, 622.416 " />
            <path fill="none" stroke-width="3.0" stroke-linecap="butt" stroke-opacity="1.0" stroke="rgb(0, 0, 0)" stroke-linejoin="round" d=" M 527.397, 622.677 528.436, 622.585 " />
        </g>
    </g>
</svg>
