<?xml version='1.0' encoding='ascii'?>
<svg xmlns="http://www.w3.org/2000/svg" version="1.1" width="1080" height="1080">
    <g id="ViewLayer_LineSet" xmlns:inkscape="http://www.inkscape.org/namespaces/inkscape" inkscape:groupmode="lineset" inkscape:label="ViewLayer_LineSet">
        <g xmlns:inkscape="http://www.inkscape.org/namespaces/inkscape" inkscape:groupmode="layer" id="strokes" inkscape:label="strokes">
            <path fill="none" stroke-width="3.0" stroke-linecap="butt" stroke-opacity="1.0" stroke="rgb(0, 0, 0)" stroke-linejoin="round" d=" M 216.911, 638.971 211.763, 640.775 201.800, 639.908 195.339, 639.346 188.573, 636.038 179.691, 631.444 179.344, 631.265 173.357, 623.255 172.225, 621.742 167.164, 613.117 164.917, 609.287 162.495, 599.585 161.139, 594.153 160.965, 584.155 160.867, 578.542 162.950, 568.761 164.007, 563.798 169.164, 555.230 170.889, 552.365 177.054, 544.491 177.721, 543.639 180.210, 542.684 " />
            <path fill="none" stroke-width="3.0" stroke-linecap="butt" stroke-opacity="1.0" stroke="rgb(0, 0, 0)" stroke-linejoin="round" d=" M 131.578, 634.290 137.217, 642.548 139.341, 645.657 146.364, 652.776 148.078, 654.512 155.835, 660.822 156.079, 661.020 164.609, 666.239 166.138, 667.174 175.639, 670.295 182.331, 672.493 192.299, 673.289 199.067, 673.830 208.941, 672.243 215.294, 671.223 224.361, 667.005 225.160, 666.633 233.855, 661.693 237.863, 659.416 245.789, 654.427 253.320, 647.848 254.367, 646.934 260.394, 638.954 261.897, 636.964 266.249, 628.860 270.355, 619.664 272.297, 609.854 273.637, 603.088 273.437, 593.090 273.289, 585.713 271.133, 575.948 269.520, 568.642 265.515, 559.479 265.290, 558.965 260.741, 550.025 255.093, 541.772 252.903, 538.572 245.939, 531.396 244.172, 529.575 236.316, 523.387 235.970, 523.114 227.484, 517.824 225.966, 516.878 216.391, 513.996 209.544, 511.936 199.558, 511.406 192.834, 511.049 183.028, 513.009 176.843, 514.245 167.312, 517.271 162.857, 518.685 153.952, 523.235 153.224, 523.607 145.294, 529.042 138.014, 535.898 136.877, 536.969 131.034, 545.084 129.498, 547.218 125.293, 555.587 121.413, 564.755 119.665, 574.601 118.461, 581.382 118.709, 591.378 118.892, 598.698 121.134, 608.444 122.800, 615.681 126.795, 624.848 127.076, 625.494 131.578, 634.290 " />
            <path fill="none" stroke-width="3.0" stroke-linecap="butt" stroke-opacity="1.0" stroke="rgb(0, 0, 0)" stroke-linejoin="round" d=" M 214.303, 642.083 205.363, 645.243 198.583, 647.616 188.621, 646.737 181.878, 646.141 174.992, 642.765 166.115, 638.161 165.599, 637.893 159.612, 629.883 158.344, 628.186 153.280, 619.563 150.891, 615.495 148.458, 605.795 147.023, 600.077 146.833, 590.078 146.720, 584.175 148.784, 574.391 149.888, 569.159 155.029, 560.583 156.866, 557.518 163.019, 549.636 163.800, 548.635 173.134, 545.049 179.906, 542.665 180.210, 542.684 190.190, 543.311 196.528, 543.709 203.395, 547.038 212.312, 551.566 213.129, 551.980 219.138, 559.973 220.510, 561.798 225.643, 570.380 228.173, 574.609 230.618, 584.306 232.133, 590.314 232.276, 600.313 232.364, 606.448 230.104, 616.189 228.871, 621.505 223.670, 630.046 221.756, 633.189 216.911, 638.971 214.303, 642.083 " />
            <path fill="none" stroke-width="3.0" stroke-linecap="butt" stroke-opacity="1.0" stroke="rgb(0, 0, 0)" stroke-linejoin="round" d=" M 225.160, 666.633 233.214, 661.561 240.741, 654.978 241.929, 653.939 247.947, 645.953 249.575, 643.793 253.990, 635.543 258.053, 626.405 258.154, 626.179 260.081, 616.366 261.469, 609.294 261.255, 599.297 261.090, 591.591 258.923, 581.828 257.229, 574.193 253.218, 565.032 252.910, 564.328 248.371, 555.417 248.267, 555.213 242.620, 546.961 240.275, 543.535 233.314, 536.357 231.376, 534.359 223.525, 528.166 223.021, 527.768 214.539, 522.471 212.833, 521.405 203.260, 518.514 196.118, 516.357 186.132, 515.819 179.118, 515.440 169.311, 517.397 162.857, 518.685 " />
        </g>
    </g>
</svg>
