<?xml version='1.0' encoding='ascii'?>
<svg xmlns="http://www.w3.org/2000/svg" version="1.1" width="1080" height="1080">
    <g id="ViewLayer_LineSet" xmlns:inkscape="http://www.inkscape.org/namespaces/inkscape" inkscape:groupmode="lineset" inkscape:label="ViewLayer_LineSet">
        <g xmlns:inkscape="http://www.inkscape.org/namespaces/inkscape" inkscape:groupmode="layer" id="strokes" inkscape:label="strokes">
            <path fill="none" stroke-width="3.0" stroke-linecap="butt" stroke-opacity="1.0" stroke="rgb(0, 0, 0)" stroke-linejoin="round" d=" M 1089.149, 658.723 1079.559, 661.558 1078.763, 661.793 1070.888, 664.098 1060.920, 663.302 1052.240, 662.608 1044.839, 659.283 1035.811, 654.983 1034.770, 654.487 1028.759, 646.495 1027.607, 644.963 1022.664, 636.270 1022.312, 635.650 " />
            <path fill="none" stroke-width="3.0" stroke-linecap="butt" stroke-opacity="1.0" stroke="rgb(0, 0, 0)" stroke-linejoin="round" d=" M 1081.663, 535.612 1071.675, 535.113 1062.631, 534.662 1052.769, 536.316 1043.999, 537.786 1034.785, 541.672 1032.652, 542.572 1023.920, 547.446 1023.166, 547.867 1015.171, 553.874 1012.874, 555.600 1006.042, 562.903 1003.509, 565.610 997.910, 573.790 992.809, 582.390 992.594, 582.753 989.633, 592.304 987.551, 599.022 986.783, 608.992 986.245, 615.978 987.813, 625.854 988.887, 632.618 990.695, 639.242 994.368, 648.543 994.566, 649.044 998.804, 657.833 1004.416, 666.109 1006.512, 669.199 1013.672, 676.180 1015.604, 678.063 1023.536, 684.153 1024.098, 684.585 1032.798, 689.516 1034.993, 690.761 1044.577, 693.616 1053.015, 696.130 1062.988, 696.862 1072.082, 697.530 1081.993, 696.200 1090.981, 694.995 " />
            <path fill="none" stroke-width="3.0" stroke-linecap="butt" stroke-opacity="1.0" stroke="rgb(0, 0, 0)" stroke-linejoin="round" d=" M 1022.954, 639.169 1022.312, 635.650 1020.516, 625.812 1020.145, 623.779 1020.981, 613.814 1021.476, 607.923 1024.772, 598.481 1026.698, 592.962 1032.935, 585.145 1035.937, 581.383 1043.035, 574.338 1044.834, 572.553 1054.361, 569.514 1055.925, 569.015 1063.949, 566.664 1073.932, 567.247 1082.915, 567.772 " />
            <path fill="none" stroke-width="3.0" stroke-linecap="butt" stroke-opacity="1.0" stroke="rgb(0, 0, 0)" stroke-linejoin="round" d=" M 1082.327, 669.050 1074.295, 671.390 1064.328, 670.584 1055.280, 669.852 1047.733, 666.457 1038.707, 662.153 1037.468, 661.562 1031.458, 653.570 1030.167, 651.854 1025.224, 643.161 1022.954, 639.169 " />
            <path fill="none" stroke-width="3.0" stroke-linecap="butt" stroke-opacity="1.0" stroke="rgb(0, 0, 0)" stroke-linejoin="round" d=" M 1085.334, 540.496 1075.346, 539.991 1065.920, 539.515 1056.056, 541.160 1046.915, 542.685 1037.697, 546.562 1035.340, 547.554 1026.603, 552.419 1025.665, 552.941 1017.664, 558.940 1015.167, 560.812 1008.329, 568.108 1005.616, 571.002 999.906, 579.331 994.798, 587.927 994.484, 588.456 991.518, 598.007 989.339, 605.023 988.568, 614.994 988.004, 622.292 989.572, 632.169 990.695, 639.242 " />
            <path fill="none" stroke-width="3.0" stroke-linecap="butt" stroke-opacity="1.0" stroke="rgb(0, 0, 0)" stroke-linejoin="round" d=" M 749.439, 633.683 751.830, 633.857 761.804, 634.582 768.951, 635.102 778.915, 635.950 785.587, 636.518 795.580, 636.152 803.401, 635.866 812.299, 631.303 812.761, 631.066 821.113, 625.567 822.640, 624.562 828.746, 616.642 829.366, 615.839 834.794, 607.755 837.352, 598.087 839.276, 590.815 840.322, 585.041 839.531, 575.072 838.943, 567.640 834.796, 558.540 834.466, 557.817 829.292, 549.260 828.958, 548.708 821.935, 541.588 820.507, 540.141 812.406, 534.277 810.815, 533.125 801.056, 530.941 793.049, 529.149 783.057, 528.744 776.197, 528.466 766.213, 527.896 760.008, 527.541 750.024, 526.970 743.894, 526.619 733.911, 526.048 726.828, 525.643 723.622, 530.218 723.194, 540.209 722.766, 550.200 722.729, 551.041 722.301, 561.031 722.046, 566.990 721.617, 576.981 721.364, 582.881 720.936, 592.871 720.686, 598.712 720.257, 608.703 720.009, 614.486 719.581, 624.477 719.336, 630.201 718.907, 640.192 718.664, 645.859 718.236, 655.850 717.995, 661.459 717.567, 671.450 717.139, 681.441 717.129, 681.655 727.097, 682.454 734.193, 683.022 744.161, 683.822 747.101, 684.057 749.829, 676.692 750.296, 666.703 750.760, 656.772 751.226, 646.783 751.478, 641.386 751.830, 633.857 " />
            <path fill="none" stroke-width="3.0" stroke-linecap="butt" stroke-opacity="1.0" stroke="rgb(0, 0, 0)" stroke-linejoin="round" d=" M 747.101, 684.057 747.564, 674.068 748.028, 664.079 748.042, 663.778 748.506, 653.789 748.769, 648.113 749.233, 638.124 749.439, 633.683 " />
            <path fill="none" stroke-width="3.0" stroke-linecap="butt" stroke-opacity="1.0" stroke="rgb(0, 0, 0)" stroke-linejoin="round" d=" M 807.957, 587.661 804.622, 597.088 803.917, 599.080 794.948, 603.503 792.731, 604.596 782.757, 603.873 772.783, 603.150 772.542, 603.133 762.565, 602.459 753.326, 601.834 753.792, 591.845 754.259, 581.856 754.379, 579.280 754.846, 569.291 755.111, 563.612 755.353, 558.442 " />
            <path fill="none" stroke-width="3.0" stroke-linecap="butt" stroke-opacity="1.0" stroke="rgb(0, 0, 0)" stroke-linejoin="round" d=" M 750.639, 607.841 751.103, 597.851 751.567, 587.862 751.705, 584.872 752.169, 574.882 752.446, 568.914 752.910, 558.925 752.940, 558.287 755.353, 558.442 765.332, 559.080 772.711, 559.552 782.702, 559.972 792.006, 560.363 800.430, 565.751 805.809, 569.191 806.964, 579.124 807.957, 587.661 808.053, 588.485 " />
            <path fill="none" stroke-width="3.0" stroke-linecap="butt" stroke-opacity="1.0" stroke="rgb(0, 0, 0)" stroke-linejoin="round" d=" M 839.276, 590.815 838.484, 580.847 837.868, 573.087 833.720, 563.988 833.304, 563.076 828.130, 554.520 827.689, 553.791 820.667, 546.671 819.075, 545.056 810.976, 539.190 809.196, 537.901 799.439, 535.711 791.091, 533.837 781.099, 533.425 773.919, 533.130 763.936, 532.552 757.424, 532.175 747.441, 531.597 741.008, 531.225 731.025, 530.647 723.622, 530.218 " />
            <path fill="none" stroke-width="3.0" stroke-linecap="butt" stroke-opacity="1.0" stroke="rgb(0, 0, 0)" stroke-linejoin="round" d=" M 808.053, 588.485 804.717, 597.912 802.180, 605.083 793.207, 609.498 790.783, 610.690 780.810, 609.959 770.837, 609.227 770.215, 609.181 760.238, 608.498 750.639, 607.841 753.326, 601.834 " />
            <path fill="none" stroke-width="3.0" stroke-linecap="butt" stroke-opacity="1.0" stroke="rgb(0, 0, 0)" stroke-linejoin="round" d=" M 554.567, 573.758 551.987, 569.580 546.733, 561.072 544.954, 558.192 540.118, 550.361 534.864, 541.853 532.145, 537.452 527.210, 529.460 521.956, 520.951 520.328, 518.315 510.344, 517.738 500.361, 517.160 490.378, 516.582 489.181, 516.513 481.560, 520.840 486.882, 529.306 492.205, 537.772 496.226, 544.169 501.549, 552.635 506.579, 560.634 511.901, 569.100 517.223, 577.566 518.757, 580.005 524.079, 588.471 527.040, 593.181 531.761, 600.691 525.856, 608.761 519.951, 616.832 518.919, 618.242 513.585, 625.534 507.680, 633.604 506.175, 635.660 500.636, 643.231 495.810, 649.827 489.905, 657.897 484.000, 665.967 480.997, 670.072 490.964, 670.882 500.931, 671.692 510.899, 672.502 512.151, 672.604 519.121, 665.563 524.990, 657.466 530.859, 649.370 531.156, 648.961 537.025, 640.864 539.158, 637.921 544.153, 631.030 549.228, 624.029 " />
            <path fill="none" stroke-width="3.0" stroke-linecap="butt" stroke-opacity="1.0" stroke="rgb(0, 0, 0)" stroke-linejoin="round" d=" M 531.156, 648.961 525.543, 656.703 519.674, 664.800 519.121, 665.563 " />
            <path fill="none" stroke-width="3.0" stroke-linecap="butt" stroke-opacity="1.0" stroke="rgb(0, 0, 0)" stroke-linejoin="round" d=" M 512.151, 672.604 518.018, 664.506 518.680, 663.593 524.383, 655.720 530.249, 647.622 532.517, 644.491 537.595, 637.482 543.461, 629.384 545.259, 626.902 548.365, 622.614 549.228, 624.029 554.435, 632.566 558.248, 638.819 563.008, 646.623 568.215, 655.161 570.734, 659.291 575.941, 667.828 576.055, 668.014 581.262, 676.552 582.333, 678.308 592.300, 679.118 602.267, 679.928 612.234, 680.738 614.242, 680.901 619.428, 673.600 614.128, 665.120 608.827, 656.640 605.345, 651.068 600.783, 643.770 595.563, 635.420 590.263, 626.940 588.608, 624.292 583.618, 616.309 578.318, 607.830 573.017, 599.350 571.672, 597.197 576.693, 590.448 582.661, 582.424 585.536, 578.559 590.924, 571.317 596.893, 563.294 598.622, 560.970 604.305, 553.330 609.821, 545.916 615.790, 537.892 621.758, 529.869 625.813, 524.419 615.830, 523.841 605.846, 523.264 595.863, 522.686 593.880, 522.571 588.137, 527.084 582.298, 535.202 580.401, 537.839 575.021, 545.320 569.182, 553.438 566.166, 557.631 560.862, 565.005 555.023, 573.124 554.567, 573.758 549.313, 581.063 " />
            <path fill="none" stroke-width="3.0" stroke-linecap="butt" stroke-opacity="1.0" stroke="rgb(0, 0, 0)" stroke-linejoin="round" d=" M 549.313, 581.063 545.522, 574.926 540.266, 566.418 538.355, 563.324 533.427, 555.346 528.171, 546.838 525.302, 542.194 520.272, 534.051 515.017, 525.543 513.259, 522.697 " />
            <path fill="none" stroke-width="3.0" stroke-linecap="butt" stroke-opacity="1.0" stroke="rgb(0, 0, 0)" stroke-linejoin="round" d=" M 520.328, 518.315 513.259, 522.697 503.276, 522.112 493.293, 521.527 483.310, 520.942 481.560, 520.840 " />
            <path fill="none" stroke-width="3.0" stroke-linecap="butt" stroke-opacity="1.0" stroke="rgb(0, 0, 0)" stroke-linejoin="round" d=" M 614.242, 680.901 608.941, 672.422 603.640, 663.943 599.891, 657.947 595.244, 650.511 589.923, 642.005 584.624, 633.525 582.837, 630.667 577.752, 622.536 572.450, 614.057 567.149, 605.577 565.578, 603.064 " />
            <path fill="none" stroke-width="3.0" stroke-linecap="butt" stroke-opacity="1.0" stroke="rgb(0, 0, 0)" stroke-linejoin="round" d=" M 571.672, 597.197 565.578, 603.064 570.685, 596.197 576.651, 588.172 579.679, 584.099 585.161, 576.727 591.127, 568.702 592.990, 566.197 598.771, 558.421 604.383, 550.874 610.350, 542.849 616.316, 534.824 620.655, 528.989 " />
            <path fill="none" stroke-width="3.0" stroke-linecap="butt" stroke-opacity="1.0" stroke="rgb(0, 0, 0)" stroke-linejoin="round" d=" M 625.813, 524.419 620.655, 528.989 610.672, 528.404 600.689, 527.819 590.706, 527.234 588.137, 527.084 " />
        </g>
    </g>
</svg>
