<?xml version='1.0' encoding='ascii'?>
<svg xmlns="http://www.w3.org/2000/svg" version="1.1" width="1080" height="1080">
    <g id="ViewLayer_LineSet" xmlns:inkscape="http://www.inkscape.org/namespaces/inkscape" inkscape:groupmode="lineset" inkscape:label="ViewLayer_LineSet">
        <g xmlns:inkscape="http://www.inkscape.org/namespaces/inkscape" inkscape:groupmode="layer" id="strokes" inkscape:label="strokes">
            <path fill="none" stroke-width="3.0" stroke-linecap="butt" stroke-opacity="1.0" stroke="rgb(0, 0, 0)" stroke-linejoin="round" d=" M 736.563, 637.487 730.699, 645.588 729.902, 646.688 722.925, 653.852 721.436, 655.382 711.903, 658.403 711.729, 658.458 704.368, 660.768 694.402, 659.934 686.669, 659.286 679.539, 655.964 670.571, 651.538 669.828, 651.171 663.828, 643.171 662.684, 641.647 657.690, 632.983 655.508, 629.198 653.440, 619.414 652.314, 614.087 652.718, 604.096 652.944, 598.513 655.737, 588.911 657.218, 583.815 663.030, 575.677 663.126, 575.542 " />
            <path fill="none" stroke-width="3.0" stroke-linecap="butt" stroke-opacity="1.0" stroke="rgb(0, 0, 0)" stroke-linejoin="round" d=" M 628.828, 654.471 634.452, 662.740 636.559, 665.837 643.661, 672.877 645.500, 674.700 653.358, 680.885 653.783, 681.220 662.412, 686.274 664.322, 687.393 673.871, 690.362 681.563, 692.754 691.534, 693.522 699.636, 694.145 709.535, 692.727 717.395, 691.600 726.635, 687.776 728.374, 687.056 737.112, 682.194 737.418, 682.024 745.364, 675.954 747.332, 674.451 753.948, 666.953 756.240, 664.356 761.529, 656.141 766.315, 647.361 766.613, 646.814 769.063, 639.904 771.710, 630.261 773.599, 623.379 773.976, 613.386 774.252, 606.044 772.479, 596.203 771.182, 589.002 767.353, 579.764 767.175, 579.334 762.779, 570.400 757.145, 562.138 754.971, 558.949 747.933, 551.845 746.049, 549.943 738.094, 543.884 737.551, 543.471 728.968, 538.339 727.089, 537.216 717.472, 534.475 709.599, 532.231 699.613, 531.710 691.558, 531.290 681.715, 533.052 674.053, 534.425 664.948, 538.561 663.502, 539.218 654.945, 544.391 654.733, 544.519 647.001, 550.861 645.295, 552.260 640.471, 557.407 634.014, 565.043 631.846, 567.606 626.779, 575.940 622.153, 584.806 622.014, 585.072 619.553, 594.764 617.805, 601.647 617.468, 611.642 617.223, 618.923 619.084, 628.748 620.433, 635.877 624.247, 645.122 624.477, 645.681 628.828, 654.471 " />
            <path fill="none" stroke-width="3.0" stroke-linecap="butt" stroke-opacity="1.0" stroke="rgb(0, 0, 0)" stroke-linejoin="round" d=" M 735.133, 642.051 729.267, 650.150 726.708, 653.683 719.728, 660.843 718.085, 662.529 708.549, 665.539 708.196, 665.651 700.698, 667.995 690.734, 667.150 682.669, 666.466 675.404, 663.074 666.440, 658.641 665.511, 658.182 659.511, 650.182 658.230, 648.474 653.234, 639.811 650.914, 635.788 648.842, 626.005 647.653, 620.395 648.053, 610.402 648.287, 604.531 651.076, 594.928 652.633, 589.563 658.444, 581.425 660.908, 577.975 663.126, 575.542 668.967, 569.137 678.427, 565.895 679.309, 565.592 686.799, 563.237 696.780, 563.847 704.764, 564.335 712.011, 567.680 721.013, 572.036 722.269, 572.644 728.294, 580.625 729.682, 582.463 734.753, 591.081 737.217, 595.269 739.303, 605.049 740.561, 610.948 740.110, 620.938 739.835, 627.043 736.845, 636.586 736.563, 637.487 735.133, 642.051 " />
            <path fill="none" stroke-width="3.0" stroke-linecap="butt" stroke-opacity="1.0" stroke="rgb(0, 0, 0)" stroke-linejoin="round" d=" M 766.613, 646.814 769.259, 637.171 771.231, 629.983 771.605, 619.990 771.892, 612.321 770.117, 602.480 768.759, 594.953 764.928, 585.716 764.671, 585.097 760.254, 576.125 760.188, 575.990 754.554, 567.727 752.226, 564.313 745.189, 557.208 743.130, 555.129 735.177, 549.067 734.466, 548.525 725.885, 543.390 723.801, 542.143 714.186, 539.395 705.976, 537.049 695.990, 536.521 687.592, 536.077 677.747, 537.833 669.758, 539.258 660.651, 543.390 659.012, 544.134 650.452, 549.304 650.081, 549.528 642.348, 555.869 640.471, 557.407 " />
            <path fill="none" stroke-width="3.0" stroke-linecap="butt" stroke-opacity="1.0" stroke="rgb(0, 0, 0)" stroke-linejoin="round" d=" M 466.766, 629.891 474.635, 630.484 484.607, 631.235 485.472, 631.300 495.434, 632.178 501.428, 632.706 511.421, 632.317 518.446, 632.044 527.249, 627.237 535.424, 621.478 536.495, 620.724 543.245, 614.420 549.013, 606.252 549.302, 605.842 554.159, 597.895 556.332, 588.133 557.863, 581.252 556.805, 571.308 556.011, 563.845 551.782, 554.783 551.426, 554.021 546.222, 545.482 545.875, 544.911 538.893, 537.751 537.523, 536.345 529.480, 530.403 528.030, 529.332 518.288, 527.075 510.901, 525.364 500.910, 524.948 494.748, 524.691 484.765, 524.102 479.221, 523.774 469.239, 523.185 463.768, 522.862 453.785, 522.272 447.400, 521.895 438.850, 526.399 438.751, 536.398 438.653, 546.398 438.645, 547.230 438.546, 557.230 438.488, 563.187 438.389, 573.186 438.331, 579.084 438.233, 589.084 438.175, 594.923 438.077, 604.923 438.020, 610.704 437.921, 620.703 437.865, 626.426 437.766, 636.425 437.711, 642.090 437.612, 652.090 437.557, 657.698 437.459, 667.697 437.360, 677.697 437.358, 677.902 447.324, 678.730 453.721, 679.261 463.687, 680.088 466.099, 680.288 473.460, 673.519 474.033, 672.992 474.175, 662.993 474.315, 653.064 474.457, 643.065 474.533, 637.671 474.635, 630.484 " />
            <path fill="none" stroke-width="3.0" stroke-linecap="butt" stroke-opacity="1.0" stroke="rgb(0, 0, 0)" stroke-linejoin="round" d=" M 466.099, 680.288 466.231, 670.289 466.364, 660.290 466.368, 660.000 466.500, 650.001 466.575, 644.328 466.707, 634.329 466.766, 629.891 " />
            <path fill="none" stroke-width="3.0" stroke-linecap="butt" stroke-opacity="1.0" stroke="rgb(0, 0, 0)" stroke-linejoin="round" d=" M 517.123, 598.630 512.901, 600.843 502.929, 600.095 493.530, 599.391 483.554, 598.694 475.094, 598.102 475.236, 588.103 475.377, 578.104 475.414, 575.538 475.555, 565.539 475.636, 559.863 475.705, 554.988 " />
            <path fill="none" stroke-width="3.0" stroke-linecap="butt" stroke-opacity="1.0" stroke="rgb(0, 0, 0)" stroke-linejoin="round" d=" M 467.109, 604.038 467.241, 594.038 467.373, 584.039 467.413, 581.058 467.545, 571.059 467.624, 565.094 467.757, 555.095 467.765, 554.462 475.705, 554.988 485.683, 555.648 486.714, 555.716 496.705, 556.148 505.195, 556.516 513.561, 561.994 518.671, 565.340 520.081, 575.240 521.419, 584.640 518.483, 594.200 517.123, 598.630 516.319, 601.248 " />
            <path fill="none" stroke-width="3.0" stroke-linecap="butt" stroke-opacity="1.0" stroke="rgb(0, 0, 0)" stroke-linejoin="round" d=" M 536.495, 620.724 542.261, 612.553 542.656, 611.993 547.596, 603.902 549.761, 594.140 551.355, 586.953 550.290, 577.010 549.456, 569.219 545.224, 560.158 544.779, 559.206 539.575, 550.668 539.119, 549.920 532.140, 542.759 530.608, 541.187 522.568, 535.241 520.937, 534.034 511.196, 531.770 503.493, 529.979 493.502, 529.556 487.047, 529.282 477.065, 528.685 471.241, 528.336 461.259, 527.739 455.510, 527.395 445.528, 526.798 438.850, 526.399 " />
            <path fill="none" stroke-width="3.0" stroke-linecap="butt" stroke-opacity="1.0" stroke="rgb(0, 0, 0)" stroke-linejoin="round" d=" M 516.319, 601.248 507.460, 605.888 505.593, 606.865 495.622, 606.108 485.874, 605.367 475.899, 604.660 467.109, 604.038 475.094, 598.102 " />
            <path fill="none" stroke-width="3.0" stroke-linecap="butt" stroke-opacity="1.0" stroke="rgb(0, 0, 0)" stroke-linejoin="round" d=" M -11.299, 660.678 -2.057, 656.859 5.462, 653.752 0.110, 645.305 -5.242, 636.858 -8.816, 631.219 " />
            <path fill="none" stroke-width="3.0" stroke-linecap="butt" stroke-opacity="1.0" stroke="rgb(0, 0, 0)" stroke-linejoin="round" d=" M -12.066, 525.840 -6.923, 517.264 -1.780, 508.688 0.881, 504.250 -9.101, 503.646 -19.082, 503.042 -28.078, 502.498 " />
            <path fill="none" stroke-width="3.0" stroke-linecap="butt" stroke-opacity="1.0" stroke="rgb(0, 0, 0)" stroke-linejoin="round" d=" M -16.274, 508.431 -6.558, 506.063 0.881, 504.250 " />
        </g>
    </g>
</svg>
