<?xml version='1.0' encoding='ascii'?>
<svg xmlns="http://www.w3.org/2000/svg" version="1.1" width="1080" height="1080">
    <g id="ViewLayer_LineSet" xmlns:inkscape="http://www.inkscape.org/namespaces/inkscape" inkscape:groupmode="lineset" inkscape:label="ViewLayer_LineSet">
        <g xmlns:inkscape="http://www.inkscape.org/namespaces/inkscape" inkscape:groupmode="layer" id="strokes" inkscape:label="strokes">
            <path fill="none" stroke-width="3.0" stroke-linecap="butt" stroke-opacity="1.0" stroke="rgb(0, 0, 0)" stroke-linejoin="round" d=" M 953.523, 606.918 952.825, 616.894 952.437, 622.429 949.161, 631.877 947.329, 637.162 941.225, 645.082 938.526, 648.584 931.355, 655.553 929.585, 657.273 920.019, 660.186 919.494, 660.346 911.842, 662.653 901.875, 661.841 893.606, 661.167 886.322, 657.843 877.320, 653.489 876.409, 653.048 870.402, 645.053 869.254, 643.524 864.289, 634.844 862.134, 631.076 860.218, 621.261 859.185, 615.967 859.833, 605.988 859.870, 605.419 " />
            <path fill="none" stroke-width="3.0" stroke-linecap="butt" stroke-opacity="1.0" stroke="rgb(0, 0, 0)" stroke-linejoin="round" d=" M 838.258, 656.374 843.876, 664.647 845.976, 667.740 853.111, 674.746 855.002, 676.604 862.903, 682.734 863.405, 683.124 872.075, 688.109 874.146, 689.299 883.715, 692.203 891.829, 694.665 901.801, 695.412 910.464, 696.061 920.371, 694.694 928.868, 693.522 938.164, 689.835 940.316, 688.982 949.147, 684.289 949.777, 683.954 957.867, 678.077 960.196, 676.385 967.028, 669.083 969.636, 666.295 975.292, 658.083 980.354, 649.459 980.764, 648.760 983.700, 639.201 985.932, 631.934 986.553, 621.953 987.030, 614.276 985.423, 604.406 984.203, 596.911 982.471, 590.922 978.719, 581.653 978.557, 581.255 974.226, 572.322 968.599, 564.055 966.430, 560.870 959.361, 553.797 957.429, 551.864 949.432, 545.860 948.806, 545.390 940.182, 540.327 938.150, 539.134 928.516, 536.454 920.211, 534.144 910.224, 533.637 901.609, 533.198 891.755, 534.898 883.466, 536.327 874.297, 540.319 872.465, 541.117 863.805, 546.117 863.289, 546.414 855.404, 552.564 853.368, 554.151 846.692, 561.596 844.390, 564.164 839.060, 572.346 834.158, 581.063 834.018, 581.312 831.269, 590.927 829.366, 597.584 828.117, 603.558 827.534, 613.542 827.109, 620.830 828.805, 630.685 830.025, 637.782 833.760, 647.058 833.971, 647.585 838.258, 656.374 " />
            <path fill="none" stroke-width="3.0" stroke-linecap="butt" stroke-opacity="1.0" stroke="rgb(0, 0, 0)" stroke-linejoin="round" d=" M 954.699, 612.894 953.999, 622.870 953.570, 628.985 950.289, 638.432 948.359, 643.989 942.248, 651.904 939.382, 655.615 932.204, 662.577 930.266, 664.457 920.696, 667.358 919.979, 667.575 912.178, 669.917 902.212, 669.094 893.590, 668.383 886.166, 664.989 877.166, 660.630 876.063, 660.095 870.057, 652.100 868.770, 650.387 863.805, 641.707 861.513, 637.702 859.596, 627.887 858.507, 622.311 859.155, 612.332 859.536, 606.451 859.870, 605.419 862.949, 595.905 864.378, 591.487 870.436, 583.531 873.198, 579.904 880.146, 572.712 881.732, 571.071 891.231, 567.946 892.498, 567.530 900.290, 565.177 910.272, 565.771 918.822, 566.281 926.229, 569.627 935.266, 573.909 936.708, 574.592 942.739, 582.569 944.133, 584.411 949.177, 593.046 951.614, 597.217 953.523, 606.918 954.699, 612.894 " />
            <path fill="none" stroke-width="3.0" stroke-linecap="butt" stroke-opacity="1.0" stroke="rgb(0, 0, 0)" stroke-linejoin="round" d=" M 984.203, 596.911 980.450, 587.642 980.213, 587.056 975.850, 578.058 975.797, 577.949 970.170, 569.682 967.848, 566.272 960.779, 559.199 958.669, 557.087 950.673, 551.082 949.875, 550.483 941.253, 545.417 939.009, 544.098 929.376, 541.414 920.717, 539.001 910.730, 538.486 901.750, 538.023 891.894, 539.715 883.253, 541.198 874.081, 545.182 872.038, 546.070 863.374, 551.063 862.685, 551.460 854.795, 557.604 852.573, 559.335 845.894, 566.777 843.424, 569.528 837.993, 577.859 833.089, 586.574 832.856, 586.988 830.106, 596.602 828.117, 603.558 " />
            <path fill="none" stroke-width="3.0" stroke-linecap="butt" stroke-opacity="1.0" stroke="rgb(0, 0, 0)" stroke-linejoin="round" d=" M 599.626, 632.330 604.917, 632.723 614.890, 633.463 618.711, 633.746 628.673, 634.610 634.986, 635.158 644.979, 634.781 652.378, 634.503 661.215, 629.821 661.443, 629.700 669.705, 624.067 670.987, 623.193 676.917, 615.141 677.413, 614.467 681.513, 608.269 686.591, 600.326 688.946, 590.607 690.622, 583.689 689.690, 573.733 688.992, 566.286 684.801, 557.207 684.458, 556.463 679.268, 547.915 678.927, 547.353 671.926, 540.212 670.529, 538.786 662.458, 532.881 660.942, 531.771 651.192, 529.549 643.514, 527.799 633.522, 527.387 627.032, 527.120 617.049, 526.538 611.194, 526.197 601.211, 525.616 595.431, 525.279 585.448, 524.697 578.734, 524.306 572.696, 528.856 572.443, 538.853 572.189, 548.849 572.168, 549.681 571.914, 559.678 571.763, 565.633 571.510, 575.630 571.360, 581.526 571.107, 591.523 570.958, 597.361 570.705, 607.357 570.558, 613.137 570.305, 623.133 570.159, 628.854 569.906, 638.851 569.762, 644.514 569.509, 654.511 569.366, 660.117 569.113, 670.114 568.859, 680.111 568.854, 680.316 578.821, 681.131 585.546, 681.680 595.513, 682.495 598.173, 682.713 603.661, 675.372 603.955, 665.376 604.248, 655.449 604.542, 645.454 604.701, 640.061 604.917, 632.723 " />
            <path fill="none" stroke-width="3.0" stroke-linecap="butt" stroke-opacity="1.0" stroke="rgb(0, 0, 0)" stroke-linejoin="round" d=" M 598.173, 682.713 598.461, 672.717 598.750, 662.721 598.758, 662.430 599.046, 652.435 599.210, 646.763 599.498, 636.767 599.626, 632.330 " />
            <path fill="none" stroke-width="3.0" stroke-linecap="butt" stroke-opacity="1.0" stroke="rgb(0, 0, 0)" stroke-linejoin="round" d=" M 652.116, 599.343 644.425, 603.257 634.452, 602.521 624.669, 601.798 614.693, 601.111 605.866, 600.503 606.161, 590.507 606.455, 580.512 606.531, 577.945 606.825, 567.950 606.992, 562.274 607.140, 557.271 " />
            <path fill="none" stroke-width="3.0" stroke-linecap="butt" stroke-opacity="1.0" stroke="rgb(0, 0, 0)" stroke-linejoin="round" d=" M 600.371, 606.484 600.660, 596.488 600.948, 586.492 601.034, 583.511 601.322, 573.516 601.494, 567.551 601.782, 557.555 601.800, 556.923 607.140, 557.271 617.119, 557.922 621.136, 558.184 631.127, 558.611 640.000, 558.990 648.393, 564.426 653.629, 567.817 654.920, 577.734 656.141, 587.113 653.014, 596.612 652.116, 599.343 650.677, 603.715 " />
            <path fill="none" stroke-width="3.0" stroke-linecap="butt" stroke-opacity="1.0" stroke="rgb(0, 0, 0)" stroke-linejoin="round" d=" M 677.413, 614.467 682.582, 606.380 684.934, 596.661 686.681, 589.438 685.744, 579.482 685.013, 571.707 680.820, 562.629 680.390, 561.696 675.199, 553.149 674.750, 552.410 667.751, 545.268 666.191, 543.676 658.123, 537.767 656.422, 536.521 646.674, 534.292 638.667, 532.461 628.676, 532.042 621.881, 531.757 611.898, 531.168 605.750, 530.806 595.768, 530.217 589.698, 529.859 579.715, 529.270 572.696, 528.856 " />
            <path fill="none" stroke-width="3.0" stroke-linecap="butt" stroke-opacity="1.0" stroke="rgb(0, 0, 0)" stroke-linejoin="round" d=" M 650.677, 603.715 641.762, 608.245 639.636, 609.326 629.664, 608.580 619.518, 607.821 609.542, 607.124 600.371, 606.484 605.866, 600.503 " />
            <path fill="none" stroke-width="3.0" stroke-linecap="butt" stroke-opacity="1.0" stroke="rgb(0, 0, 0)" stroke-linejoin="round" d=" M 422.444, 570.229 421.138, 568.121 415.871, 559.620 414.083, 556.735 409.232, 548.905 403.965, 540.404 401.234, 535.997 396.283, 528.006 391.017, 519.506 389.380, 516.864 379.397, 516.276 369.414, 515.689 359.432, 515.102 358.854, 515.068 349.657, 518.995 348.784, 519.367 354.118, 527.826 359.451, 536.285 363.491, 542.693 368.825, 551.152 373.871, 559.155 379.205, 567.614 384.538, 576.073 386.083, 578.524 391.417, 586.983 394.389, 591.698 399.123, 599.207 393.383, 607.395 387.643, 615.584 386.818, 616.761 381.707, 624.054 375.967, 632.242 374.607, 634.182 369.300, 641.754 364.675, 648.351 358.936, 656.540 353.196, 664.728 350.482, 668.600 360.448, 669.424 370.414, 670.248 380.380, 671.073 381.013, 671.125 389.016, 665.129 390.373, 664.112 396.079, 655.900 401.786, 647.688 401.912, 647.507 407.618, 639.295 409.585, 636.465 414.374, 629.573 417.830, 624.598 " />
            <path fill="none" stroke-width="3.0" stroke-linecap="butt" stroke-opacity="1.0" stroke="rgb(0, 0, 0)" stroke-linejoin="round" d=" M 401.912, 647.507 396.530, 655.251 390.823, 663.463 390.373, 664.112 " />
            <path fill="none" stroke-width="3.0" stroke-linecap="butt" stroke-opacity="1.0" stroke="rgb(0, 0, 0)" stroke-linejoin="round" d=" M 381.013, 671.125 386.714, 662.909 387.267, 662.112 392.730, 654.238 398.431, 646.022 400.523, 643.007 405.387, 635.997 411.088, 627.781 412.729, 625.415 415.705, 621.126 417.830, 624.598 423.051, 633.128 425.623, 637.328 430.399, 645.132 435.620, 653.661 438.152, 657.797 443.372, 666.327 443.491, 666.520 448.711, 675.049 449.791, 676.812 459.757, 677.636 469.723, 678.460 479.689, 679.285 481.062, 679.398 488.309, 672.508 488.712, 672.125 483.400, 663.653 478.088, 655.180 474.588, 649.597 470.014, 642.300 464.779, 633.951 459.468, 625.478 457.804, 622.825 452.801, 614.843 447.489, 606.370 442.177, 597.898 440.821, 595.733 445.638, 588.983 451.446, 580.843 454.122, 577.093 459.930, 568.953 465.739, 560.812 466.675, 559.500 472.127, 551.859 477.419, 544.443 483.228, 536.303 489.036, 528.163 492.761, 522.943 482.778, 522.356 472.795, 521.769 462.813, 521.182 461.465, 521.103 453.193, 525.586 447.520, 533.822 445.783, 536.343 440.630, 543.825 434.958, 552.061 432.149, 556.138 427.069, 563.514 422.444, 570.229 416.771, 578.465 416.006, 579.575 " />
            <path fill="none" stroke-width="3.0" stroke-linecap="butt" stroke-opacity="1.0" stroke="rgb(0, 0, 0)" stroke-linejoin="round" d=" M 416.006, 579.575 412.203, 573.439 406.935, 564.939 405.014, 561.838 400.070, 553.861 394.802, 545.361 391.919, 540.711 386.874, 532.569 381.606, 524.069 379.838, 521.217 " />
            <path fill="none" stroke-width="3.0" stroke-linecap="butt" stroke-opacity="1.0" stroke="rgb(0, 0, 0)" stroke-linejoin="round" d=" M 389.380, 516.864 380.282, 521.014 379.838, 521.217 369.856, 520.622 359.874, 520.028 349.891, 519.433 348.784, 519.367 " />
            <path fill="none" stroke-width="3.0" stroke-linecap="butt" stroke-opacity="1.0" stroke="rgb(0, 0, 0)" stroke-linejoin="round" d=" M 481.062, 679.398 475.749, 670.926 470.436, 662.454 466.669, 656.447 462.010, 649.012 456.673, 640.508 451.362, 632.034 449.567, 629.171 444.466, 621.041 439.154, 612.569 433.841, 604.097 432.258, 601.572 " />
            <path fill="none" stroke-width="3.0" stroke-linecap="butt" stroke-opacity="1.0" stroke="rgb(0, 0, 0)" stroke-linejoin="round" d=" M 466.675, 559.500 460.867, 567.640 459.290, 569.849 454.122, 577.093 " />
            <path fill="none" stroke-width="3.0" stroke-linecap="butt" stroke-opacity="1.0" stroke="rgb(0, 0, 0)" stroke-linejoin="round" d=" M 440.821, 595.733 432.559, 601.367 432.258, 601.572 437.153, 594.704 442.955, 586.559 445.774, 582.603 451.028, 575.230 456.831, 567.086 458.532, 564.698 464.073, 556.921 469.453, 549.372 475.256, 541.228 481.059, 533.084 485.049, 527.484 " />
            <path fill="none" stroke-width="3.0" stroke-linecap="butt" stroke-opacity="1.0" stroke="rgb(0, 0, 0)" stroke-linejoin="round" d=" M 492.761, 522.943 485.049, 527.484 475.067, 526.889 465.085, 526.295 455.102, 525.700 453.193, 525.586 " />
        </g>
    </g>
</svg>
