<?xml version='1.0' encoding='ascii'?>
<svg xmlns="http://www.w3.org/2000/svg" version="1.1" width="1080" height="1080">
    <g id="ViewLayer_LineSet" xmlns:inkscape="http://www.inkscape.org/namespaces/inkscape" inkscape:groupmode="lineset" inkscape:label="ViewLayer_LineSet">
        <g xmlns:inkscape="http://www.inkscape.org/namespaces/inkscape" inkscape:groupmode="layer" id="strokes" inkscape:label="strokes">
            <path fill="none" stroke-width="3.0" stroke-linecap="butt" stroke-opacity="1.0" stroke="rgb(0, 0, 0)" stroke-linejoin="round" d=" M 736.563, 637.487 730.699, 645.588 729.902, 646.688 722.925, 653.852 721.436, 655.382 711.903, 658.403 711.729, 658.458 704.368, 660.768 694.402, 659.934 686.669, 659.286 679.539, 655.964 670.571, 651.538 669.828, 651.171 663.828, 643.171 662.684, 641.647 657.690, 632.983 655.508, 629.198 653.440, 619.414 652.314, 614.087 652.718, 604.096 652.944, 598.513 655.737, 588.911 657.218, 583.815 663.030, 575.677 663.126, 575.542 " />
            <path fill="none" stroke-width="3.0" stroke-linecap="butt" stroke-opacity="1.0" stroke="rgb(0, 0, 0)" stroke-linejoin="round" d=" M 628.828, 654.471 634.452, 662.740 636.559, 665.837 643.661, 672.877 645.500, 674.700 653.358, 680.885 653.783, 681.220 662.412, 686.274 664.322, 687.393 673.871, 690.362 681.563, 692.754 691.534, 693.522 699.636, 694.145 709.535, 692.727 717.395, 691.600 726.635, 687.776 728.374, 687.056 737.112, 682.194 737.418, 682.024 745.364, 675.954 747.332, 674.451 753.948, 666.953 756.240, 664.356 761.529, 656.141 766.315, 647.361 766.613, 646.814 769.063, 639.904 771.710, 630.261 773.599, 623.379 773.976, 613.386 774.252, 606.044 772.479, 596.203 771.182, 589.002 767.353, 579.764 767.175, 579.334 762.779, 570.400 757.145, 562.138 754.971, 558.949 747.933, 551.845 746.049, 549.943 738.094, 543.884 737.551, 543.471 728.968, 538.339 727.089, 537.216 717.472, 534.475 709.599, 532.231 699.613, 531.710 691.558, 531.290 681.715, 533.052 674.053, 534.425 664.948, 538.561 663.502, 539.218 654.945, 544.391 654.733, 544.519 647.001, 550.861 645.295, 552.260 640.471, 557.407 634.014, 565.043 631.846, 567.606 626.779, 575.940 622.153, 584.806 622.014, 585.072 619.553, 594.764 617.805, 601.647 617.468, 611.642 617.223, 618.923 619.084, 628.748 620.433, 635.877 624.247, 645.122 624.477, 645.681 628.828, 654.471 " />
            <path fill="none" stroke-width="3.0" stroke-linecap="butt" stroke-opacity="1.0" stroke="rgb(0, 0, 0)" stroke-linejoin="round" d=" M 735.133, 642.051 729.267, 650.150 726.708, 653.683 719.728, 660.843 718.085, 662.529 708.549, 665.539 708.196, 665.651 700.698, 667.995 690.734, 667.150 682.669, 666.466 675.404, 663.074 666.440, 658.641 665.511, 658.182 659.511, 650.182 658.230, 648.474 653.234, 639.811 650.914, 635.788 648.842, 626.005 647.653, 620.395 648.053, 610.402 648.287, 604.531 651.076, 594.928 652.633, 589.563 658.444, 581.425 660.908, 577.975 663.126, 575.542 668.967, 569.137 678.427, 565.895 679.309, 565.592 686.799, 563.237 696.780, 563.847 704.764, 564.335 712.011, 567.680 721.013, 572.036 722.269, 572.644 728.294, 580.625 729.682, 582.463 734.753, 591.081 737.217, 595.269 739.303, 605.049 740.561, 610.948 740.110, 620.938 739.835, 627.043 736.845, 636.586 736.563, 637.487 735.133, 642.051 " />
            <path fill="none" stroke-width="3.0" stroke-linecap="butt" stroke-opacity="1.0" stroke="rgb(0, 0, 0)" stroke-linejoin="round" d=" M 766.613, 646.814 769.259, 637.171 771.231, 629.983 771.605, 619.990 771.892, 612.321 770.117, 602.480 768.759, 594.953 764.928, 585.716 764.671, 585.097 760.254, 576.125 760.188, 575.990 754.554, 567.727 752.226, 564.313 745.189, 557.208 743.130, 555.129 735.177, 549.067 734.466, 548.525 725.885, 543.390 723.801, 542.143 714.186, 539.395 705.976, 537.049 695.990, 536.521 687.592, 536.077 677.747, 537.833 669.758, 539.258 660.651, 543.390 659.012, 544.134 650.452, 549.304 650.081, 549.528 642.348, 555.869 640.471, 557.407 " />
            <path fill="none" stroke-width="3.0" stroke-linecap="butt" stroke-opacity="1.0" stroke="rgb(0, 0, 0)" stroke-linejoin="round" d=" M 420.825, 628.026 429.586, 628.688 439.400, 629.430 449.361, 630.311 455.245, 630.832 465.237, 630.437 472.134, 630.164 480.846, 625.353 488.989, 619.549 489.990, 618.836 497.616, 612.568 503.326, 604.359 503.585, 603.987 508.366, 596.036 510.474, 586.261 511.956, 579.389 510.855, 569.450 510.028, 561.979 505.785, 552.923 505.425, 552.154 500.216, 543.617 499.866, 543.043 492.892, 535.877 491.531, 534.478 483.497, 528.523 482.070, 527.466 472.331, 525.199 465.045, 523.503 455.054, 523.087 449.005, 522.835 439.023, 522.244 433.587, 521.922 423.604, 521.331 418.240, 521.014 408.258, 520.423 401.986, 520.052 392.951, 524.338 392.567, 524.520 392.522, 534.520 392.478, 544.520 392.474, 545.356 392.429, 555.356 392.402, 561.316 392.357, 571.316 392.331, 577.217 392.286, 587.217 392.260, 593.059 392.215, 603.059 392.189, 608.843 392.144, 618.843 392.119, 624.569 392.074, 634.569 392.049, 640.237 392.004, 650.237 391.979, 655.848 391.934, 665.847 391.889, 675.847 391.888, 676.057 401.854, 676.887 408.137, 677.410 418.103, 678.241 420.429, 678.434 428.135, 672.061 429.209, 671.173 429.298, 661.173 429.386, 651.240 429.475, 641.241 429.523, 635.844 429.586, 628.688 " />
            <path fill="none" stroke-width="3.0" stroke-linecap="butt" stroke-opacity="1.0" stroke="rgb(0, 0, 0)" stroke-linejoin="round" d=" M 420.429, 678.434 420.507, 668.435 420.586, 658.435 420.588, 658.142 420.667, 648.142 420.711, 642.467 420.790, 632.467 420.825, 628.026 " />
            <path fill="none" stroke-width="3.0" stroke-linecap="butt" stroke-opacity="1.0" stroke="rgb(0, 0, 0)" stroke-linejoin="round" d=" M 470.449, 597.393 467.422, 598.997 457.450, 598.247 448.183, 597.550 438.208, 596.851 429.874, 596.267 429.963, 586.267 430.052, 576.268 430.074, 573.698 430.163, 563.698 430.214, 558.019 430.257, 553.167 " />
            <path fill="none" stroke-width="3.0" stroke-linecap="butt" stroke-opacity="1.0" stroke="rgb(0, 0, 0)" stroke-linejoin="round" d=" M 421.028, 602.167 421.106, 592.167 421.185, 582.168 421.208, 579.183 421.287, 569.183 421.333, 563.215 421.412, 553.215 421.417, 552.581 430.257, 553.167 440.233, 553.829 450.223, 554.262 458.581, 554.624 466.938, 560.116 472.004, 563.446 473.455, 573.340 474.834, 582.750 471.965, 592.329 470.449, 597.393 469.859, 599.363 " />
            <path fill="none" stroke-width="3.0" stroke-linecap="butt" stroke-opacity="1.0" stroke="rgb(0, 0, 0)" stroke-linejoin="round" d=" M 489.990, 618.836 495.696, 610.624 496.059, 610.102 500.919, 602.008 503.019, 592.231 504.560, 585.054 503.452, 575.116 502.582, 567.316 498.336, 558.262 497.887, 557.303 492.677, 548.767 492.219, 548.017 485.247, 540.848 483.725, 539.284 475.694, 533.325 474.087, 532.133 464.349, 529.857 456.751, 528.082 446.760, 527.658 440.423, 527.390 430.441, 526.791 424.729, 526.448 414.747, 525.850 409.109, 525.512 399.127, 524.914 392.567, 524.520 " />
            <path fill="none" stroke-width="3.0" stroke-linecap="butt" stroke-opacity="1.0" stroke="rgb(0, 0, 0)" stroke-linejoin="round" d=" M 469.859, 599.363 461.021, 604.042 459.243, 604.984 449.272, 604.224 439.661, 603.492 429.686, 602.783 421.028, 602.167 429.347, 596.618 429.874, 596.267 " />
        </g>
    </g>
</svg>
