<?xml version='1.0' encoding='ascii'?>
<svg xmlns="http://www.w3.org/2000/svg" version="1.1" width="1080" height="1080">
    <g id="ViewLayer_LineSet" xmlns:inkscape="http://www.inkscape.org/namespaces/inkscape" inkscape:groupmode="lineset" inkscape:label="ViewLayer_LineSet">
        <g xmlns:inkscape="http://www.inkscape.org/namespaces/inkscape" inkscape:groupmode="layer" id="strokes" inkscape:label="strokes">
            <path fill="none" stroke-width="3.0" stroke-linecap="butt" stroke-opacity="1.0" stroke="rgb(0, 0, 0)" stroke-linejoin="round" d=" M 692.846, 648.635 693.244, 638.643 693.444, 633.617 693.842, 623.625 694.045, 618.546 694.443, 608.554 694.648, 603.421 695.046, 593.429 695.253, 588.243 695.651, 578.251 695.860, 573.011 696.258, 563.019 696.469, 557.724 696.867, 547.732 697.080, 542.383 697.478, 532.391 697.878, 522.358 687.894, 521.789 677.911, 521.221 668.904, 520.708 664.701, 525.074 664.341, 535.068 663.981, 545.061 663.970, 545.379 663.610, 555.372 663.409, 560.933 663.049, 570.927 662.851, 576.431 662.491, 586.424 662.295, 591.873 661.935, 601.867 661.741, 607.260 661.381, 617.253 661.188, 622.591 660.828, 632.585 660.638, 637.868 660.278, 647.861 660.090, 653.090 659.730, 663.083 659.380, 672.798 669.349, 673.591 679.317, 674.384 688.348, 675.102 692.071, 668.080 692.469, 658.088 692.846, 648.635 " />
            <path fill="none" stroke-width="3.0" stroke-linecap="butt" stroke-opacity="1.0" stroke="rgb(0, 0, 0)" stroke-linejoin="round" d=" M 688.348, 675.102 688.742, 665.110 689.129, 655.314 689.523, 645.322 689.731, 640.031 690.126, 630.039 690.336, 624.692 690.731, 614.700 690.944, 609.298 691.338, 599.306 691.553, 593.849 691.947, 583.857 692.165, 578.343 692.559, 568.351 692.779, 562.781 693.173, 552.789 693.395, 547.163 693.789, 537.171 694.183, 527.179 694.199, 526.774 " />
            <path fill="none" stroke-width="3.0" stroke-linecap="butt" stroke-opacity="1.0" stroke="rgb(0, 0, 0)" stroke-linejoin="round" d=" M 697.878, 522.358 694.199, 526.774 684.216, 526.199 674.232, 525.624 664.701, 525.074 " />
            <path fill="none" stroke-width="3.0" stroke-linecap="butt" stroke-opacity="1.0" stroke="rgb(0, 0, 0)" stroke-linejoin="round" d=" M 540.524, 593.094 538.554, 588.974 536.241, 584.139 534.468, 580.431 531.137, 573.465 528.906, 568.801 527.109, 565.043 523.711, 557.938 521.562, 553.445 519.741, 549.637 516.276, 542.392 514.210, 538.071 512.365, 534.214 508.834, 526.828 506.849, 522.680 504.981, 518.772 501.639, 511.784 495.214, 511.418 487.785, 510.994 480.374, 510.571 472.240, 510.107 469.494, 511.562 467.386, 512.679 464.577, 514.167 464.478, 521.915 464.379, 529.602 464.281, 537.275 464.183, 544.935 464.085, 552.581 463.987, 560.213 463.889, 567.832 463.792, 575.437 463.695, 583.029 463.598, 590.607 463.501, 598.172 463.404, 605.724 463.307, 613.262 463.211, 620.787 463.115, 628.299 463.019, 635.797 462.923, 643.283 462.827, 650.755 462.731, 658.261 470.863, 658.909 478.272, 659.500 485.699, 660.092 490.128, 660.445 492.737, 658.031 494.695, 656.219 497.246, 653.860 497.371, 646.451 497.495, 639.076 497.620, 631.689 497.745, 624.288 497.870, 616.875 497.995, 609.448 498.120, 602.009 498.246, 594.557 498.372, 587.092 498.488, 580.193 " />
            <path fill="none" stroke-width="3.0" stroke-linecap="butt" stroke-opacity="1.0" stroke="rgb(0, 0, 0)" stroke-linejoin="round" d=" M 491.572, 570.421 491.411, 580.420 491.339, 584.915 491.217, 592.523 491.095, 600.118 490.974, 607.700 490.852, 615.268 490.731, 622.823 490.610, 630.364 490.490, 637.893 490.369, 645.407 490.249, 652.909 490.128, 660.445 " />
            <path fill="none" stroke-width="3.0" stroke-linecap="butt" stroke-opacity="1.0" stroke="rgb(0, 0, 0)" stroke-linejoin="round" d=" M 493.753, 570.407 498.109, 579.409 498.303, 579.810 498.488, 580.193 501.573, 586.567 505.826, 595.356 509.172, 602.269 513.339, 610.884 516.760, 617.952 518.996, 622.571 520.845, 626.395 524.341, 633.617 527.099, 639.319 531.111, 639.625 538.678, 640.200 542.704, 640.506 544.997, 638.197 546.719, 636.464 548.961, 634.207 551.923, 629.013 555.683, 622.421 557.675, 618.926 560.086, 614.699 563.782, 608.218 568.297, 600.301 571.929, 593.932 573.887, 590.500 576.557, 585.818 580.124, 579.563 581.639, 576.905 " />
            <path fill="none" stroke-width="3.0" stroke-linecap="butt" stroke-opacity="1.0" stroke="rgb(0, 0, 0)" stroke-linejoin="round" d=" M 494.477, 515.893 497.882, 523.007 499.786, 526.985 501.807, 531.208 505.405, 538.727 507.284, 542.655 509.390, 547.053 512.920, 554.429 514.776, 558.304 516.964, 562.879 520.425, 570.113 522.256, 573.938 524.529, 578.686 527.922, 585.777 529.728, 589.552 532.085, 594.474 535.600, 601.821 535.886, 601.315 539.479, 594.945 540.524, 593.094 542.104, 590.291 544.085, 586.781 547.787, 580.218 550.311, 575.745 552.332, 572.160 556.145, 565.402 558.565, 561.112 560.629, 557.452 564.553, 550.497 566.868, 546.392 568.975, 542.657 573.011, 535.503 575.221, 531.585 577.371, 527.774 581.248, 520.901 583.331, 519.342 584.894, 518.172 586.928, 516.649 593.329, 517.014 600.997, 517.451 608.683, 517.890 617.158, 518.373 616.921, 526.147 616.686, 533.860 616.451, 541.558 616.217, 549.243 615.983, 556.915 615.750, 564.572 615.517, 572.216 615.284, 579.846 615.052, 587.463 614.820, 595.066 614.589, 602.656 614.358, 610.232 614.127, 617.795 613.897, 625.345 613.667, 632.881 613.438, 640.404 613.209, 647.913 612.981, 655.410 612.751, 662.940 610.910, 665.401 609.496, 667.291 607.613, 669.808 599.140, 669.133 591.456, 668.521 583.789, 667.910 579.232, 667.546 579.435, 659.915 579.637, 652.318 579.839, 644.707 580.041, 637.083 580.244, 629.445 580.447, 621.794 580.651, 614.129 580.855, 606.449 581.059, 598.756 581.264, 591.050 581.529, 581.053 581.639, 576.905 581.654, 576.347 581.771, 571.934 " />
            <path fill="none" stroke-width="3.0" stroke-linecap="butt" stroke-opacity="1.0" stroke="rgb(0, 0, 0)" stroke-linejoin="round" d=" M 501.639, 511.784 499.073, 513.256 497.103, 514.387 494.477, 515.893 487.942, 515.516 480.387, 515.080 472.849, 514.644 464.577, 514.167 " />
            <path fill="none" stroke-width="3.0" stroke-linecap="butt" stroke-opacity="1.0" stroke="rgb(0, 0, 0)" stroke-linejoin="round" d=" M 486.988, 576.993 491.572, 570.421 491.572, 570.421 493.753, 570.407 498.654, 570.377 502.172, 570.355 " />
            <path fill="none" stroke-width="3.0" stroke-linecap="butt" stroke-opacity="1.0" stroke="rgb(0, 0, 0)" stroke-linejoin="round" d=" M 563.782, 608.218 565.756, 604.756 568.297, 600.301 " />
            <path fill="none" stroke-width="3.0" stroke-linecap="butt" stroke-opacity="1.0" stroke="rgb(0, 0, 0)" stroke-linejoin="round" d=" M 574.366, 584.934 570.741, 591.296 568.028, 596.058 566.038, 599.549 562.348, 606.026 559.768, 610.556 557.760, 614.079 554.005, 620.669 551.556, 624.968 549.532, 628.522 545.712, 635.225 542.704, 640.506 " />
            <path fill="none" stroke-width="3.0" stroke-linecap="butt" stroke-opacity="1.0" stroke="rgb(0, 0, 0)" stroke-linejoin="round" d=" M 612.013, 522.677 611.776, 530.592 611.542, 538.443 611.307, 546.280 611.073, 554.103 610.840, 561.911 610.607, 569.706 610.374, 577.486 610.142, 585.252 609.910, 593.004 609.678, 600.742 609.447, 608.466 609.217, 616.176 608.987, 623.873 608.757, 631.555 608.528, 639.223 608.299, 646.878 608.070, 654.519 607.842, 662.147 607.613, 669.808 " />
            <path fill="none" stroke-width="3.0" stroke-linecap="butt" stroke-opacity="1.0" stroke="rgb(0, 0, 0)" stroke-linejoin="round" d=" M 617.158, 518.373 615.315, 519.915 613.900, 521.099 612.013, 522.677 603.388, 522.179 595.566, 521.728 587.762, 521.277 581.248, 520.901 " />
            <path fill="none" stroke-width="3.0" stroke-linecap="butt" stroke-opacity="1.0" stroke="rgb(0, 0, 0)" stroke-linejoin="round" d=" M 586.282, 575.898 583.572, 573.516 581.771, 571.934 579.117, 576.594 574.366, 584.934 579.111, 576.594 " />
            <path fill="none" stroke-width="3.0" stroke-linecap="butt" stroke-opacity="1.0" stroke="rgb(0, 0, 0)" stroke-linejoin="round" d=" M 581.771, 571.934 579.111, 576.594 " />
            <path fill="none" stroke-width="3.0" stroke-linecap="butt" stroke-opacity="1.0" stroke="rgb(0, 0, 0)" stroke-linejoin="round" d=" M 350.135, 586.193 347.012, 581.853 342.200, 575.165 336.538, 567.295 330.697, 559.178 329.795, 557.924 324.230, 550.187 318.389, 542.070 317.390, 540.682 311.921, 533.080 306.081, 524.962 304.987, 523.441 299.613, 515.973 293.773, 507.855 289.957, 502.553 279.974, 501.979 278.448, 501.891 269.350, 501.368 259.893, 504.620 258.301, 505.168 258.411, 515.167 258.514, 524.471 258.624, 534.471 258.677, 539.262 258.788, 549.261 258.840, 554.002 258.951, 564.001 259.003, 568.691 259.113, 578.690 259.165, 583.330 259.275, 593.330 259.326, 597.920 259.436, 607.919 259.487, 612.460 259.597, 622.459 259.647, 626.951 259.757, 636.950 259.854, 645.716 268.949, 646.446 278.917, 647.246 285.720, 647.792 294.319, 642.687 296.166, 641.591 296.098, 631.591 296.040, 623.064 295.973, 613.065 295.943, 608.759 295.876, 598.759 295.846, 594.405 295.778, 584.405 295.748, 580.003 295.697, 572.409 " />
            <path fill="none" stroke-width="3.0" stroke-linecap="butt" stroke-opacity="1.0" stroke="rgb(0, 0, 0)" stroke-linejoin="round" d=" M 285.720, 647.792 285.640, 637.792 285.569, 628.955 285.489, 618.955 285.453, 614.409 285.373, 604.409 285.336, 599.812 285.256, 589.813 285.218, 585.166 285.138, 575.167 285.058, 565.167 284.998, 557.708 290.882, 565.794 294.973, 571.414 295.697, 572.409 301.582, 580.494 301.773, 580.757 307.523, 588.658 313.408, 596.743 314.413, 598.124 320.074, 605.904 325.958, 613.990 327.052, 615.493 332.628, 623.152 338.512, 631.237 341.089, 634.778 345.765, 641.203 351.650, 649.288 354.584, 653.320 364.552, 654.120 367.368, 654.346 376.772, 655.101 384.917, 649.300 385.780, 648.686 385.817, 638.686 385.850, 629.914 385.887, 619.915 385.904, 615.419 385.942, 605.419 385.959, 600.874 385.996, 590.875 386.014, 586.280 386.051, 576.280 386.068, 571.636 386.106, 561.636 386.124, 556.941 386.161, 546.942 386.179, 542.197 386.216, 532.197 386.234, 527.401 386.272, 517.401 386.306, 508.293 376.899, 507.752 366.916, 507.178 359.690, 506.762 350.444, 510.572 350.102, 510.713 350.106, 520.713 350.110, 530.078 350.115, 540.078 350.117, 545.072 350.121, 555.072 350.123, 560.013 350.128, 570.013 350.130, 574.903 350.134, 584.903 350.135, 586.193 350.136, 589.741 350.141, 599.741 350.143, 604.942 " />
            <path fill="none" stroke-width="3.0" stroke-linecap="butt" stroke-opacity="1.0" stroke="rgb(0, 0, 0)" stroke-linejoin="round" d=" M 350.143, 604.942 345.575, 598.590 339.735, 590.473 337.304, 587.093 332.406, 580.286 326.643, 572.276 320.803, 564.159 319.781, 562.739 314.117, 554.865 308.277, 546.748 307.156, 545.191 301.590, 537.454 295.752, 529.335 294.536, 527.643 289.064, 520.044 283.224, 511.926 279.237, 506.386 " />
            <path fill="none" stroke-width="3.0" stroke-linecap="butt" stroke-opacity="1.0" stroke="rgb(0, 0, 0)" stroke-linejoin="round" d=" M 289.957, 502.553 280.541, 505.919 279.237, 506.386 269.254, 505.805 267.543, 505.705 258.301, 505.168 " />
            <path fill="none" stroke-width="3.0" stroke-linecap="butt" stroke-opacity="1.0" stroke="rgb(0, 0, 0)" stroke-linejoin="round" d=" M 376.772, 655.101 376.799, 645.101 376.823, 636.011 376.850, 626.011 376.863, 621.268 376.890, 611.268 376.903, 606.475 376.930, 596.475 376.943, 591.630 376.970, 581.630 376.983, 576.733 377.010, 566.733 377.023, 561.785 377.050, 551.785 377.063, 546.784 377.090, 536.784 377.104, 531.730 377.131, 521.730 377.156, 512.288 " />
            <path fill="none" stroke-width="3.0" stroke-linecap="butt" stroke-opacity="1.0" stroke="rgb(0, 0, 0)" stroke-linejoin="round" d=" M 386.306, 508.293 377.156, 512.288 367.594, 511.731 357.611, 511.150 350.102, 510.713 " />
            <path fill="none" stroke-width="3.0" stroke-linecap="butt" stroke-opacity="1.0" stroke="rgb(0, 0, 0)" stroke-linejoin="round" d=" M 579.117, 576.594 581.654, 576.347 " />
        </g>
    </g>
</svg>
