<?xml version='1.0' encoding='ascii'?>
<svg xmlns="http://www.w3.org/2000/svg" version="1.1" width="1080" height="1080">
    <g id="ViewLayer_LineSet" xmlns:inkscape="http://www.inkscape.org/namespaces/inkscape" inkscape:groupmode="lineset" inkscape:label="ViewLayer_LineSet">
        <g xmlns:inkscape="http://www.inkscape.org/namespaces/inkscape" inkscape:groupmode="layer" id="strokes" inkscape:label="strokes">
            <path fill="none" stroke-width="3.0" stroke-linecap="butt" stroke-opacity="1.0" stroke="rgb(0, 0, 0)" stroke-linejoin="round" d=" M 717.935, 637.678 712.093, 645.794 711.973, 645.961 705.014, 653.142 703.547, 654.656 694.018, 657.687 693.873, 657.733 686.538, 660.044 676.573, 659.209 668.885, 658.565 661.768, 655.242 652.804, 650.811 652.075, 650.450 646.075, 642.450 644.932, 640.926 639.935, 632.264 637.751, 628.477 635.670, 618.696 634.535, 613.366 634.919, 603.373 635.133, 597.790 637.901, 588.180 639.366, 583.090 645.156, 574.937 646.625, 572.868 " />
            <path fill="none" stroke-width="3.0" stroke-linecap="butt" stroke-opacity="1.0" stroke="rgb(0, 0, 0)" stroke-linejoin="round" d=" M 610.829, 653.741 616.454, 662.009 618.562, 665.107 625.661, 672.149 627.495, 673.969 635.350, 680.158 635.769, 680.488 644.394, 685.548 646.290, 686.661 655.837, 689.635 663.493, 692.021 673.464, 692.789 681.518, 693.410 691.416, 691.986 699.221, 690.863 708.455, 687.025 710.160, 686.317 718.890, 681.439 719.168, 681.284 727.101, 675.195 729.038, 673.708 735.635, 666.193 737.901, 663.612 743.158, 655.395 747.919, 646.602 748.209, 646.067 751.012, 639.171 753.634, 629.521 755.503, 622.644 755.858, 612.650 756.119, 605.308 754.333, 595.469 753.025, 588.265 749.189, 579.030 749.009, 578.596 744.607, 569.663 738.973, 561.401 736.798, 558.211 729.763, 551.104 727.884, 549.206 719.932, 543.142 719.396, 542.734 710.816, 537.597 708.950, 536.480 699.335, 533.734 691.500, 531.496 681.513, 530.975 673.507, 530.557 663.664, 532.326 656.056, 533.694 646.958, 537.844 645.544, 538.489 636.996, 543.678 636.810, 543.792 629.092, 550.151 627.413, 551.534 622.243, 556.667 615.806, 564.320 613.664, 566.868 608.627, 575.203 604.026, 584.082 603.894, 584.336 601.458, 594.035 599.731, 600.914 599.415, 610.909 599.186, 618.191 601.060, 628.014 602.421, 635.146 606.241, 644.388 606.474, 644.950 610.829, 653.741 " />
            <path fill="none" stroke-width="3.0" stroke-linecap="butt" stroke-opacity="1.0" stroke="rgb(0, 0, 0)" stroke-linejoin="round" d=" M 716.809, 641.307 710.965, 649.422 708.431, 652.941 701.469, 660.119 699.850, 661.788 690.318, 664.810 689.996, 664.912 682.524, 667.257 672.560, 666.411 664.542, 665.730 657.291, 662.339 648.330, 657.900 647.416, 657.447 641.417, 649.447 640.136, 647.740 635.138, 639.078 632.816, 635.053 630.730, 625.273 629.533, 619.659 629.911, 609.666 630.133, 603.795 632.896, 594.184 634.436, 588.825 640.225, 580.670 642.664, 577.234 646.625, 572.868 650.682, 568.395 660.138, 565.141 660.988, 564.849 668.451, 562.492 678.433, 563.103 686.369, 563.589 693.602, 566.933 702.601, 571.295 703.841, 571.896 709.865, 579.877 711.252, 581.715 716.325, 590.332 718.792, 594.521 720.891, 604.298 722.158, 610.201 721.729, 620.192 721.466, 626.298 718.503, 635.848 717.935, 637.678 716.809, 641.307 " />
            <path fill="none" stroke-width="3.0" stroke-linecap="butt" stroke-opacity="1.0" stroke="rgb(0, 0, 0)" stroke-linejoin="round" d=" M 748.209, 646.067 750.830, 636.417 752.780, 629.234 753.133, 619.240 753.403, 611.571 751.614, 601.732 750.244, 594.201 746.406, 584.967 746.148, 584.345 741.727, 575.376 741.658, 575.238 736.024, 566.976 733.696, 563.561 726.662, 556.453 724.607, 554.377 716.657, 548.310 715.954, 547.774 707.377, 542.633 705.306, 541.392 695.693, 538.640 687.521, 536.300 677.535, 535.772 669.188, 535.330 659.344, 537.093 651.410, 538.513 642.310, 542.659 640.704, 543.391 632.155, 548.578 631.810, 548.787 624.091, 555.145 622.243, 556.667 " />
            <path fill="none" stroke-width="3.0" stroke-linecap="butt" stroke-opacity="1.0" stroke="rgb(0, 0, 0)" stroke-linejoin="round" d=" M 203.042, 619.188 213.013, 619.953 216.040, 620.186 220.997, 620.566 230.957, 621.464 236.318, 621.947 246.309, 621.522 252.593, 621.254 261.460, 616.629 264.647, 614.967 272.797, 610.217 280.780, 604.194 281.316, 603.790 286.739, 595.388 286.866, 595.191 291.285, 587.226 293.087, 577.390 294.339, 570.557 293.035, 560.643 292.047, 553.132 287.742, 544.106 287.360, 543.304 282.129, 534.781 281.768, 534.192 274.825, 526.995 273.509, 525.630 265.519, 519.616 264.202, 518.624 254.475, 516.304 247.668, 514.681 237.676, 514.264 232.166, 514.034 222.184, 513.437 217.258, 513.143 207.276, 512.546 202.420, 512.255 192.438, 511.658 186.704, 511.315 177.173, 514.343 173.168, 515.616 173.377, 525.614 173.586, 535.612 173.604, 536.473 173.813, 546.471 173.938, 552.450 174.147, 562.448 174.271, 568.367 174.480, 578.365 174.603, 584.226 174.812, 594.224 174.934, 600.026 175.143, 610.024 175.263, 615.768 175.472, 625.766 175.591, 631.452 175.800, 641.450 175.918, 647.079 176.127, 657.077 176.337, 667.074 176.341, 667.309 186.306, 668.154 192.051, 668.641 202.015, 669.485 203.934, 669.648 212.678, 664.795 216.725, 662.550 216.563, 652.551 216.402, 642.597 216.241, 632.598 216.154, 627.185 216.040, 620.186 " />
            <path fill="none" stroke-width="3.0" stroke-linecap="butt" stroke-opacity="1.0" stroke="rgb(0, 0, 0)" stroke-linejoin="round" d=" M 203.934, 669.648 203.758, 659.650 203.581, 649.651 203.575, 649.335 203.399, 639.336 203.298, 633.643 203.121, 623.645 203.042, 619.188 " />
            <path fill="none" stroke-width="3.0" stroke-linecap="butt" stroke-opacity="1.0" stroke="rgb(0, 0, 0)" stroke-linejoin="round" d=" M 249.710, 590.085 239.739, 589.324 233.221, 588.826 223.246, 588.117 215.513, 587.567 215.352, 577.569 215.190, 567.570 215.149, 564.975 214.987, 554.977 214.895, 549.281 214.818, 544.546 " />
            <path fill="none" stroke-width="3.0" stroke-linecap="butt" stroke-opacity="1.0" stroke="rgb(0, 0, 0)" stroke-linejoin="round" d=" M 202.585, 593.302 202.408, 583.303 202.231, 573.305 202.178, 570.294 202.001, 560.295 201.896, 554.309 201.719, 544.311 201.707, 543.664 211.685, 544.335 214.818, 544.546 219.890, 544.887 229.881, 545.320 237.611, 545.656 245.922, 551.216 250.783, 554.468 252.426, 564.332 254.000, 573.787 251.455, 583.458 249.710, 590.085 249.621, 590.424 240.891, 595.302 239.522, 596.067 " />
            <path fill="none" stroke-width="3.0" stroke-linecap="butt" stroke-opacity="1.0" stroke="rgb(0, 0, 0)" stroke-linejoin="round" d=" M 252.593, 621.254 260.876, 616.426 268.856, 610.399 269.532, 609.889 274.945, 601.481 275.167, 601.137 279.651, 593.028 281.438, 583.189 282.735, 576.051 281.419, 566.138 280.378, 558.298 276.070, 549.274 275.596, 548.282 270.364, 539.760 269.894, 538.994 262.954, 531.794 261.479, 530.264 253.493, 524.245 252.001, 523.119 242.276, 520.790 235.175, 519.090 225.184, 518.665 219.406, 518.420 209.424, 517.815 204.242, 517.500 194.260, 516.895 189.151, 516.585 179.169, 515.980 173.168, 515.616 " />
            <path fill="none" stroke-width="3.0" stroke-linecap="butt" stroke-opacity="1.0" stroke="rgb(0, 0, 0)" stroke-linejoin="round" d=" M 239.522, 596.067 229.551, 595.295 220.594, 594.601 210.620, 593.881 202.585, 593.302 211.726, 589.247 215.513, 587.567 " />
        </g>
    </g>
</svg>
