<?xml version='1.0' encoding='ascii'?>
<svg xmlns="http://www.w3.org/2000/svg" version="1.1" width="1080" height="1080">
    <g id="ViewLayer_LineSet" xmlns:inkscape="http://www.inkscape.org/namespaces/inkscape" inkscape:groupmode="lineset" inkscape:label="ViewLayer_LineSet">
        <g xmlns:inkscape="http://www.inkscape.org/namespaces/inkscape" inkscape:groupmode="layer" id="strokes" inkscape:label="strokes">
            <path fill="none" stroke-width="3.0" stroke-linecap="butt" stroke-opacity="1.0" stroke="rgb(0, 0, 0)" stroke-linejoin="round" d=" M 740.966, 637.311 735.097, 645.408 734.141, 646.727 727.160, 653.887 725.664, 655.420 716.131, 658.439 715.950, 658.496 708.583, 660.806 698.618, 659.972 690.873, 659.325 683.740, 656.002 674.772, 651.578 674.025, 651.209 668.024, 643.210 666.881, 641.685 661.887, 633.021 659.706, 629.236 657.641, 619.452 656.517, 614.126 656.926, 604.134 657.155, 598.551 659.953, 588.951 661.439, 583.853 667.035, 576.026 " />
            <path fill="none" stroke-width="3.0" stroke-linecap="butt" stroke-opacity="1.0" stroke="rgb(0, 0, 0)" stroke-linejoin="round" d=" M 633.083, 654.510 638.707, 662.778 640.813, 665.876 647.916, 672.915 649.756, 674.739 657.615, 680.922 658.042, 681.258 666.672, 686.311 668.585, 687.431 678.134, 690.400 685.835, 692.793 695.806, 693.560 703.919, 694.184 713.819, 692.767 721.691, 691.639 730.932, 687.818 732.680, 687.095 741.420, 682.237 741.732, 682.063 749.682, 675.997 751.656, 674.490 758.277, 666.996 760.575, 664.395 765.872, 656.180 770.664, 647.403 770.963, 646.854 773.331, 639.943 775.984, 630.301 777.878, 623.418 778.259, 613.425 778.539, 606.083 776.769, 596.241 775.475, 589.041 771.647, 579.803 771.469, 579.373 767.075, 570.439 761.441, 562.177 759.267, 558.988 752.228, 551.884 750.344, 549.983 742.388, 543.924 741.843, 543.510 733.259, 538.380 731.377, 537.255 721.759, 534.515 713.878, 532.270 703.892, 531.749 695.826, 531.329 685.982, 533.090 678.307, 534.463 669.202, 538.597 667.748, 539.257 659.188, 544.426 658.970, 544.558 651.235, 550.896 649.522, 552.299 644.780, 557.447 638.318, 565.078 636.145, 567.645 631.070, 575.979 626.438, 584.842 626.297, 585.111 623.830, 594.802 622.077, 601.686 621.736, 611.680 621.487, 618.962 623.344, 628.788 624.692, 635.916 628.503, 645.161 628.734, 645.720 633.083, 654.510 " />
            <path fill="none" stroke-width="3.0" stroke-linecap="butt" stroke-opacity="1.0" stroke="rgb(0, 0, 0)" stroke-linejoin="round" d=" M 739.465, 642.091 733.594, 650.186 731.029, 653.722 724.044, 660.879 722.396, 662.568 712.859, 665.576 712.499, 665.690 704.995, 668.034 695.031, 667.189 686.954, 666.505 679.686, 663.113 670.721, 658.682 669.789, 658.221 663.788, 650.221 662.507, 648.513 657.513, 639.850 655.193, 635.827 653.124, 626.043 651.937, 620.434 652.342, 610.442 652.579, 604.571 655.373, 594.969 656.935, 589.602 662.751, 581.468 665.221, 578.014 667.035, 576.026 673.290, 569.177 682.750, 565.937 683.640, 565.632 691.136, 563.276 701.117, 563.886 709.113, 564.375 716.363, 567.720 725.366, 572.074 726.626, 572.683 732.651, 580.664 734.039, 582.502 739.109, 591.121 741.573, 595.308 743.655, 605.089 744.911, 610.988 744.456, 620.977 744.177, 627.083 741.182, 636.624 740.966, 637.311 739.465, 642.091 " />
            <path fill="none" stroke-width="3.0" stroke-linecap="butt" stroke-opacity="1.0" stroke="rgb(0, 0, 0)" stroke-linejoin="round" d=" M 770.963, 646.854 773.616, 637.212 775.593, 630.023 775.972, 620.030 776.263, 612.361 774.491, 602.520 773.136, 594.993 769.306, 585.755 769.050, 585.137 764.635, 576.165 764.568, 576.030 758.935, 567.767 756.607, 564.353 749.569, 557.248 747.509, 555.168 739.555, 549.108 738.843, 548.565 730.261, 543.431 728.173, 542.183 718.558, 539.436 710.339, 537.089 700.353, 536.561 691.943, 536.116 682.098, 537.871 674.095, 539.297 664.987, 543.426 663.340, 544.173 654.778, 549.340 654.400, 549.568 646.664, 555.904 644.780, 557.447 " />
            <path fill="none" stroke-width="3.0" stroke-linecap="butt" stroke-opacity="1.0" stroke="rgb(0, 0, 0)" stroke-linejoin="round" d=" M 506.045, 631.485 513.151, 632.019 523.123, 632.768 524.863, 632.899 534.824, 633.774 540.913, 634.309 550.906, 633.925 558.042, 633.651 566.922, 628.847 575.124, 623.127 576.256, 622.337 582.256, 616.003 588.073, 607.870 588.389, 607.429 593.311, 599.483 595.538, 589.734 597.112, 582.845 596.091, 572.897 595.326, 565.440 591.107, 556.374 590.756, 555.617 585.556, 547.075 585.210, 546.507 578.223, 539.353 576.844, 537.941 568.794, 532.009 567.324, 530.926 557.580, 528.679 550.107, 526.955 540.115, 526.539 533.856, 526.279 523.874, 525.690 518.238, 525.358 508.255, 524.769 502.693, 524.442 492.710, 523.853 486.227, 523.471 478.420, 528.005 478.276, 538.004 478.131, 548.003 478.119, 548.832 477.975, 558.831 477.889, 564.786 477.745, 574.785 477.660, 580.680 477.515, 590.679 477.431, 596.516 477.287, 606.515 477.203, 612.294 477.059, 622.293 476.976, 628.013 476.832, 638.012 476.750, 643.675 476.606, 653.674 476.525, 659.279 476.381, 669.278 476.236, 679.277 476.233, 679.480 486.199, 680.305 492.694, 680.842 502.660, 681.667 505.145, 681.873 512.160, 674.746 512.356, 674.548 512.543, 664.549 512.728, 654.623 512.915, 644.625 513.016, 639.233 513.151, 632.019 " />
            <path fill="none" stroke-width="3.0" stroke-linecap="butt" stroke-opacity="1.0" stroke="rgb(0, 0, 0)" stroke-linejoin="round" d=" M 505.145, 681.873 505.324, 671.874 505.502, 661.876 505.507, 661.588 505.686, 651.590 505.787, 645.920 505.966, 635.921 506.045, 631.485 " />
            <path fill="none" stroke-width="3.0" stroke-linecap="butt" stroke-opacity="1.0" stroke="rgb(0, 0, 0)" stroke-linejoin="round" d=" M 557.033, 599.695 551.785, 602.421 541.812, 601.675 532.300, 600.964 522.324, 600.269 513.755, 599.671 513.942, 589.673 514.129, 579.675 514.177, 577.111 514.364, 567.113 514.470, 561.439 514.561, 556.544 " />
            <path fill="none" stroke-width="3.0" stroke-linecap="butt" stroke-opacity="1.0" stroke="rgb(0, 0, 0)" stroke-linejoin="round" d=" M 506.506, 605.636 506.685, 595.638 506.863, 585.640 506.916, 582.662 507.095, 572.663 507.201, 566.700 507.380, 556.701 507.391, 556.070 514.561, 556.544 524.539, 557.202 526.455, 557.329 536.445, 557.761 545.049, 558.133 553.422, 563.599 558.570, 566.959 559.945, 576.864 561.248, 586.257 558.255, 595.798 557.033, 599.695 556.040, 602.860 " />
            <path fill="none" stroke-width="3.0" stroke-linecap="butt" stroke-opacity="1.0" stroke="rgb(0, 0, 0)" stroke-linejoin="round" d=" M 576.256, 622.337 582.072, 614.202 582.496, 613.610 587.503, 605.522 589.724, 595.772 591.362, 588.577 590.336, 578.630 589.532, 570.845 585.311, 561.779 584.871, 560.833 579.670, 552.292 579.217, 551.548 572.232, 544.392 570.691, 542.813 562.643, 536.878 560.991, 535.660 551.249, 533.405 543.456, 531.601 533.465, 531.178 526.909, 530.900 516.927, 530.304 511.007, 529.950 501.025, 529.354 495.181, 529.005 485.199, 528.409 478.420, 528.005 " />
            <path fill="none" stroke-width="3.0" stroke-linecap="butt" stroke-opacity="1.0" stroke="rgb(0, 0, 0)" stroke-linejoin="round" d=" M 556.040, 602.860 547.164, 607.466 545.222, 608.473 535.250, 607.718 525.384, 606.971 515.409, 606.266 506.506, 605.636 513.755, 599.671 " />
            <path fill="none" stroke-width="3.0" stroke-linecap="butt" stroke-opacity="1.0" stroke="rgb(0, 0, 0)" stroke-linejoin="round" d=" M 374.862, 568.795 374.031, 567.455 368.760, 558.958 366.969, 556.070 362.112, 548.240 356.841, 539.742 354.106, 535.333 349.149, 527.342 343.878, 518.844 342.238, 516.200 332.255, 515.610 322.273, 515.019 312.290, 514.429 311.935, 514.408 302.623, 518.053 300.984, 518.694 306.321, 527.151 311.659, 535.607 315.705, 542.019 321.043, 550.475 326.096, 558.481 331.433, 566.937 336.771, 575.394 338.320, 577.849 343.657, 586.305 346.634, 591.021 351.373, 598.530 345.694, 606.761 340.015, 614.993 339.261, 616.086 334.230, 623.380 328.551, 631.611 327.242, 633.509 322.018, 641.082 317.466, 647.680 311.788, 655.911 306.109, 664.142 303.495, 667.931 313.461, 668.760 323.426, 669.589 333.392, 670.418 333.802, 670.452 342.052, 664.801 344.022, 663.452 349.669, 655.198 355.383, 646.845 361.029, 638.592 362.937, 635.802 367.652, 628.910 370.543, 624.684 " />
            <path fill="none" stroke-width="3.0" stroke-linecap="butt" stroke-opacity="1.0" stroke="rgb(0, 0, 0)" stroke-linejoin="round" d=" M 355.383, 646.845 350.084, 654.590 344.438, 662.844 344.022, 663.452 " />
            <path fill="none" stroke-width="3.0" stroke-linecap="butt" stroke-opacity="1.0" stroke="rgb(0, 0, 0)" stroke-linejoin="round" d=" M 333.802, 670.452 339.442, 662.194 339.958, 661.439 345.335, 653.564 350.974, 645.305 353.004, 642.331 357.792, 635.321 363.431, 627.062 365.018, 624.738 367.947, 620.449 370.543, 624.684 375.769, 633.210 377.877, 636.650 382.659, 644.453 387.885, 652.979 390.422, 657.118 395.647, 665.644 395.767, 665.840 400.993, 674.366 402.075, 676.132 412.041, 676.961 422.006, 677.790 431.972, 678.619 433.117, 678.715 440.735, 672.236 441.654, 671.455 436.338, 662.985 431.022, 654.515 427.516, 648.928 422.937, 641.631 417.697, 633.282 412.381, 624.812 410.715, 622.156 405.706, 614.175 400.390, 605.705 395.075, 597.235 393.714, 595.066 398.458, 588.315 404.206, 580.133 406.812, 576.424 412.561, 568.241 418.310, 560.059 419.174, 558.829 424.543, 551.188 429.754, 543.771 435.503, 535.589 441.252, 527.407 444.862, 522.268 434.880, 521.678 424.897, 521.088 414.915, 520.498 413.795, 520.431 404.804, 524.809 404.613, 524.902 399.002, 533.180 397.321, 535.660 392.249, 543.143 386.639, 551.420 383.902, 555.457 378.903, 562.834 374.862, 568.795 369.251, 577.073 368.016, 578.896 " />
            <path fill="none" stroke-width="3.0" stroke-linecap="butt" stroke-opacity="1.0" stroke="rgb(0, 0, 0)" stroke-linejoin="round" d=" M 368.016, 578.896 364.208, 572.760 358.936, 564.263 357.010, 561.160 352.061, 553.184 346.788, 544.687 343.901, 540.034 338.850, 531.893 333.578, 523.395 331.806, 520.541 " />
            <path fill="none" stroke-width="3.0" stroke-linecap="butt" stroke-opacity="1.0" stroke="rgb(0, 0, 0)" stroke-linejoin="round" d=" M 342.238, 516.200 333.005, 520.042 331.806, 520.541 321.824, 519.943 311.842, 519.345 301.860, 518.747 300.984, 518.694 " />
            <path fill="none" stroke-width="3.0" stroke-linecap="butt" stroke-opacity="1.0" stroke="rgb(0, 0, 0)" stroke-linejoin="round" d=" M 433.117, 678.715 427.800, 670.245 422.483, 661.776 418.709, 655.765 414.045, 648.330 408.703, 639.826 403.388, 631.355 401.590, 628.489 396.483, 620.360 391.167, 611.890 385.850, 603.421 384.262, 600.892 " />
            <path fill="none" stroke-width="3.0" stroke-linecap="butt" stroke-opacity="1.0" stroke="rgb(0, 0, 0)" stroke-linejoin="round" d=" M 419.174, 558.829 413.425, 567.011 411.901, 569.179 406.812, 576.424 " />
            <path fill="none" stroke-width="3.0" stroke-linecap="butt" stroke-opacity="1.0" stroke="rgb(0, 0, 0)" stroke-linejoin="round" d=" M 393.714, 595.066 385.201, 600.314 384.262, 600.892 389.081, 594.023 394.823, 585.836 397.568, 581.921 402.740, 574.548 408.482, 566.360 410.127, 564.015 415.582, 556.237 420.878, 548.687 426.620, 540.500 432.362, 532.313 436.231, 526.796 " />
            <path fill="none" stroke-width="3.0" stroke-linecap="butt" stroke-opacity="1.0" stroke="rgb(0, 0, 0)" stroke-linejoin="round" d=" M 444.862, 522.268 436.231, 526.796 426.249, 526.198 416.267, 525.600 406.285, 525.002 404.613, 524.902 " />
        </g>
    </g>
</svg>
