<?xml version='1.0' encoding='ascii'?>
<svg xmlns="http://www.w3.org/2000/svg" version="1.1" width="1080" height="1080">
    <g id="ViewLayer_LineSet" xmlns:inkscape="http://www.inkscape.org/namespaces/inkscape" inkscape:groupmode="lineset" inkscape:label="ViewLayer_LineSet">
        <g xmlns:inkscape="http://www.inkscape.org/namespaces/inkscape" inkscape:groupmode="layer" id="strokes" inkscape:label="strokes">
            <path fill="none" stroke-width="3.0" stroke-linecap="butt" stroke-opacity="1.0" stroke="rgb(0, 0, 0)" stroke-linejoin="round" d=" M 598.524, 646.497 598.811, 636.501 598.956, 631.475 599.243, 621.479 599.389, 616.400 599.677, 606.404 599.824, 601.272 600.112, 591.276 600.261, 586.090 600.548, 576.094 600.699, 570.853 600.986, 560.858 601.139, 555.563 601.426, 545.567 601.580, 540.218 601.867, 530.222 602.156, 520.188 592.172, 519.614 582.189, 519.041 573.590, 518.547 567.610, 522.873 567.363, 532.870 567.115, 542.867 567.107, 543.183 566.860, 553.180 566.722, 558.741 566.474, 568.738 566.338, 574.243 566.091, 584.240 565.956, 589.689 565.708, 599.686 565.575, 605.080 565.327, 615.077 565.195, 620.415 564.947, 630.412 564.816, 635.696 564.569, 645.693 564.439, 650.921 564.192, 660.918 563.951, 670.635 573.919, 671.435 583.887, 672.236 592.510, 672.929 597.964, 665.947 598.252, 655.951 598.524, 646.497 " />
            <path fill="none" stroke-width="3.0" stroke-linecap="butt" stroke-opacity="1.0" stroke="rgb(0, 0, 0)" stroke-linejoin="round" d=" M 592.510, 672.929 592.792, 662.933 593.067, 653.137 593.348, 643.141 593.497, 637.849 593.779, 627.853 593.929, 622.507 594.210, 612.511 594.362, 607.109 594.643, 597.113 594.797, 591.655 595.078, 581.659 595.233, 576.146 595.515, 566.150 595.671, 560.580 595.953, 550.584 596.111, 544.958 596.392, 534.962 596.673, 524.966 596.685, 524.564 " />
            <path fill="none" stroke-width="3.0" stroke-linecap="butt" stroke-opacity="1.0" stroke="rgb(0, 0, 0)" stroke-linejoin="round" d=" M 602.156, 520.188 596.685, 524.564 586.702, 523.983 576.718, 523.403 567.610, 522.873 " />
            <path fill="none" stroke-width="3.0" stroke-linecap="butt" stroke-opacity="1.0" stroke="rgb(0, 0, 0)" stroke-linejoin="round" d=" M 313.669, 583.503 311.499, 579.044 309.695, 575.335 306.305, 568.368 304.035, 563.703 302.206, 559.945 298.748, 552.838 296.561, 548.344 294.708, 544.535 291.182, 537.289 289.079, 532.967 287.202, 529.109 283.608, 521.722 281.589, 517.573 279.687, 513.664 276.286, 506.675 270.080, 506.314 262.906, 505.896 255.747, 505.479 247.891, 505.021 243.687, 506.443 240.458, 507.534 236.156, 508.989 236.262, 516.742 236.367, 524.433 236.471, 532.111 236.576, 539.775 236.680, 547.425 236.784, 555.062 236.888, 562.685 236.991, 570.295 237.095, 577.892 237.198, 585.475 237.301, 593.044 237.404, 600.600 237.507, 608.143 237.609, 615.673 237.712, 623.189 237.814, 630.692 237.916, 638.182 238.018, 645.658 238.120, 653.169 245.974, 653.811 253.129, 654.396 260.301, 654.982 264.579, 655.332 268.643, 652.951 271.695, 651.164 275.668, 648.837 275.600, 641.424 275.532, 634.044 275.464, 626.652 275.396, 619.247 275.328, 611.830 275.259, 604.399 275.191, 596.955 275.122, 589.499 275.074, 584.213 " />
            <path fill="none" stroke-width="3.0" stroke-linecap="butt" stroke-opacity="1.0" stroke="rgb(0, 0, 0)" stroke-linejoin="round" d=" M 263.632, 565.254 263.737, 575.253 263.785, 579.756 263.865, 587.369 263.944, 594.969 264.024, 602.555 264.104, 610.128 264.183, 617.687 264.263, 625.233 264.342, 632.766 264.421, 640.285 264.500, 647.791 264.579, 655.332 " />
            <path fill="none" stroke-width="3.0" stroke-linecap="butt" stroke-opacity="1.0" stroke="rgb(0, 0, 0)" stroke-linejoin="round" d=" M 265.734, 565.238 270.150, 574.210 270.363, 574.642 273.689, 581.401 275.074, 584.213 278.016, 590.192 281.420, 597.106 285.660, 605.723 289.140, 612.792 291.415, 617.412 293.297, 621.236 296.853, 628.460 299.660, 634.163 303.534, 634.465 310.841, 635.035 314.728, 635.338 318.509, 633.063 321.347, 631.355 325.042, 629.130 327.766, 623.931 331.224, 617.332 333.057, 613.834 335.274, 609.602 338.673, 603.115 342.826, 595.189 346.166, 588.814 347.967, 585.378 350.423, 580.692 350.601, 580.351 " />
            <path fill="none" stroke-width="3.0" stroke-linecap="butt" stroke-opacity="1.0" stroke="rgb(0, 0, 0)" stroke-linejoin="round" d=" M 265.016, 510.691 268.482, 517.806 270.420, 521.785 272.478, 526.010 276.140, 533.530 278.053, 537.458 280.196, 541.857 283.790, 549.234 285.681, 553.110 287.906, 557.686 291.430, 564.921 293.294, 568.747 295.607, 573.496 299.061, 580.589 300.900, 584.364 303.299, 589.287 306.878, 596.636 307.140, 596.130 310.437, 589.753 312.846, 585.094 313.669, 583.503 314.664, 581.580 318.061, 575.010 320.377, 570.532 322.232, 566.944 325.730, 560.179 327.951, 555.884 329.846, 552.220 333.446, 545.258 335.571, 541.148 337.504, 537.409 341.208, 530.248 343.236, 526.326 345.209, 522.510 348.767, 515.631 352.395, 514.107 355.118, 512.963 358.664, 511.474 364.846, 511.834 372.252, 512.266 379.676, 512.698 387.861, 513.175 387.831, 520.954 387.800, 528.671 387.770, 536.374 387.740, 544.064 387.710, 551.740 387.680, 559.402 387.649, 567.050 387.619, 574.685 387.590, 582.307 387.560, 589.914 387.530, 597.509 387.500, 605.090 387.470, 612.657 387.441, 620.211 387.411, 627.752 387.381, 635.279 387.352, 642.793 387.322, 650.294 387.293, 657.829 383.979, 660.256 381.433, 662.121 378.042, 664.604 369.859, 663.935 362.438, 663.329 355.034, 662.724 350.633, 662.364 350.630, 654.728 350.627, 647.126 350.624, 639.511 350.621, 631.882 350.618, 624.240 350.615, 616.584 350.612, 608.914 350.609, 601.230 350.607, 593.532 350.604, 585.821 350.601, 580.351 350.598, 571.109 350.596, 566.693 " />
            <path fill="none" stroke-width="3.0" stroke-linecap="butt" stroke-opacity="1.0" stroke="rgb(0, 0, 0)" stroke-linejoin="round" d=" M 276.286, 506.675 272.249, 508.114 269.147, 509.219 265.016, 510.691 258.708, 510.319 251.416, 509.889 244.141, 509.460 236.156, 508.989 " />
            <path fill="none" stroke-width="3.0" stroke-linecap="butt" stroke-opacity="1.0" stroke="rgb(0, 0, 0)" stroke-linejoin="round" d=" M 259.386, 571.833 263.632, 565.254 263.632, 565.254 265.734, 565.238 273.846, 565.179 " />
            <path fill="none" stroke-width="3.0" stroke-linecap="butt" stroke-opacity="1.0" stroke="rgb(0, 0, 0)" stroke-linejoin="round" d=" M 338.673, 603.115 340.488, 599.649 342.826, 595.189 " />
            <path fill="none" stroke-width="3.0" stroke-linecap="butt" stroke-opacity="1.0" stroke="rgb(0, 0, 0)" stroke-linejoin="round" d=" M 343.797, 579.707 340.469, 586.076 337.978, 590.843 336.152, 594.338 332.763, 600.822 330.395, 605.356 328.552, 608.882 325.104, 615.480 322.855, 619.783 320.997, 623.341 317.490, 630.051 314.728, 635.338 " />
            <path fill="none" stroke-width="3.0" stroke-linecap="butt" stroke-opacity="1.0" stroke="rgb(0, 0, 0)" stroke-linejoin="round" d=" M 378.461, 517.383 378.438, 525.302 378.416, 533.158 378.393, 541.000 378.371, 548.827 378.349, 556.641 378.327, 564.440 378.305, 572.225 378.283, 579.996 378.260, 587.753 378.238, 595.495 378.216, 603.224 378.195, 610.939 378.173, 618.640 378.151, 626.327 378.129, 634.000 378.107, 641.660 378.085, 649.306 378.064, 656.937 378.042, 664.604 " />
            <path fill="none" stroke-width="3.0" stroke-linecap="butt" stroke-opacity="1.0" stroke="rgb(0, 0, 0)" stroke-linejoin="round" d=" M 387.861, 513.175 384.494, 514.682 381.907, 515.840 378.461, 517.383 370.136, 516.891 362.586, 516.446 355.053, 516.002 348.767, 515.631 " />
            <path fill="none" stroke-width="3.0" stroke-linecap="butt" stroke-opacity="1.0" stroke="rgb(0, 0, 0)" stroke-linejoin="round" d=" M 355.046, 570.656 350.596, 566.693 348.159, 571.358 343.797, 579.707 348.153, 571.359 " />
            <path fill="none" stroke-width="3.0" stroke-linecap="butt" stroke-opacity="1.0" stroke="rgb(0, 0, 0)" stroke-linejoin="round" d=" M 350.596, 566.693 348.153, 571.359 " />
            <path fill="none" stroke-width="3.0" stroke-linecap="butt" stroke-opacity="1.0" stroke="rgb(0, 0, 0)" stroke-linejoin="round" d=" M 139.213, 575.566 135.554, 570.480 129.893, 562.610 124.053, 554.492 123.151, 553.239 117.587, 545.502 111.747, 537.385 110.749, 535.997 105.281, 528.395 99.442, 520.277 98.348, 518.756 92.975, 511.288 87.135, 503.170 83.321, 497.868 73.338, 497.283 72.184, 497.215 63.380, 496.699 53.686, 499.152 48.690, 500.416 49.043, 510.409 49.371, 519.730 49.724, 529.723 49.893, 534.528 50.246, 544.522 50.413, 549.276 50.766, 559.270 50.932, 563.974 51.284, 573.968 51.448, 578.621 51.801, 588.615 51.963, 593.219 52.316, 603.213 52.476, 607.767 52.829, 617.761 52.988, 622.266 53.340, 632.259 53.650, 641.041 62.450, 641.764 72.416, 642.584 78.677, 643.098 87.840, 639.092 92.676, 636.978 92.370, 626.982 92.108, 618.441 91.801, 608.446 91.669, 604.128 91.362, 594.132 91.228, 589.766 90.922, 579.771 90.786, 575.356 90.731, 573.542 " />
            <path fill="none" stroke-width="3.0" stroke-linecap="butt" stroke-opacity="1.0" stroke="rgb(0, 0, 0)" stroke-linejoin="round" d=" M 78.677, 643.098 78.354, 633.104 78.068, 624.251 77.745, 614.256 77.597, 609.696 77.274, 599.702 77.125, 595.092 76.802, 585.097 76.651, 580.438 76.328, 570.443 76.005, 560.448 75.763, 552.965 81.645, 561.052 85.731, 566.670 90.731, 573.542 92.528, 576.013 98.274, 583.914 104.157, 592.001 105.160, 593.380 110.818, 601.160 116.700, 609.247 117.792, 610.749 123.364, 618.407 129.246, 626.495 131.820, 630.033 136.494, 636.459 142.376, 644.546 145.307, 648.575 155.274, 649.395 157.677, 649.592 166.776, 650.340 175.720, 645.867 179.438, 644.008 179.233, 634.010 179.053, 625.226 178.848, 615.228 178.755, 610.723 178.550, 600.725 178.457, 596.170 178.252, 586.172 178.158, 581.568 177.953, 571.570 177.857, 566.916 177.652, 556.918 177.556, 552.213 177.351, 542.215 177.253, 537.460 177.048, 527.462 176.950, 522.656 176.745, 512.659 176.558, 503.538 167.456, 503.003 157.473, 502.418 150.803, 502.026 141.199, 504.811 137.469, 505.892 137.719, 515.889 137.954, 525.268 138.204, 535.265 138.329, 540.270 138.579, 550.267 138.703, 555.220 138.954, 565.217 139.076, 570.118 139.213, 575.566 139.448, 584.964 139.698, 594.961 139.829, 600.174 " />
            <path fill="none" stroke-width="3.0" stroke-linecap="butt" stroke-opacity="1.0" stroke="rgb(0, 0, 0)" stroke-linejoin="round" d=" M 139.829, 600.174 135.261, 593.823 129.422, 585.704 126.991, 582.325 122.095, 575.518 116.333, 567.508 110.493, 559.391 109.472, 557.971 103.810, 550.097 97.970, 541.979 96.850, 540.423 91.285, 532.686 85.448, 524.567 84.233, 522.875 78.761, 515.276 72.921, 507.158 68.936, 501.618 " />
            <path fill="none" stroke-width="3.0" stroke-linecap="butt" stroke-opacity="1.0" stroke="rgb(0, 0, 0)" stroke-linejoin="round" d=" M 83.321, 497.868 73.644, 500.391 68.936, 501.618 58.954, 501.025 57.628, 500.946 48.690, 500.416 " />
            <path fill="none" stroke-width="3.0" stroke-linecap="butt" stroke-opacity="1.0" stroke="rgb(0, 0, 0)" stroke-linejoin="round" d=" M 166.776, 650.340 166.556, 640.343 166.356, 631.239 166.136, 621.242 166.031, 616.489 165.811, 606.491 165.705, 601.687 165.485, 591.689 165.378, 586.833 165.158, 576.836 165.050, 571.928 164.830, 561.931 164.721, 556.971 164.501, 546.974 164.391, 541.962 164.171, 531.965 164.059, 526.901 163.839, 516.903 163.631, 507.447 " />
            <path fill="none" stroke-width="3.0" stroke-linecap="butt" stroke-opacity="1.0" stroke="rgb(0, 0, 0)" stroke-linejoin="round" d=" M 176.558, 503.538 166.986, 506.432 163.631, 507.447 154.384, 506.897 144.402, 506.304 137.469, 505.892 " />
            <path fill="none" stroke-width="3.0" stroke-linecap="butt" stroke-opacity="1.0" stroke="rgb(0, 0, 0)" stroke-linejoin="round" d=" M 1017.714, 601.176 1011.266, 608.820 1004.819, 616.464 1003.941, 617.504 997.900, 624.668 991.453, 632.312 989.508, 634.617 983.061, 642.261 977.768, 648.537 971.321, 656.181 964.873, 663.825 960.987, 668.432 962.218, 675.498 972.189, 676.261 982.160, 677.023 992.131, 677.786 995.671, 678.057 1002.091, 670.390 1003.212, 669.052 1009.632, 661.384 1009.799, 661.184 1016.219, 653.517 1019.195, 649.963 1025.060, 642.958 1031.480, 635.291 1033.913, 632.385 1037.501, 628.100 1042.657, 636.668 1047.257, 644.313 1051.956, 652.121 1057.112, 660.690 1059.582, 664.795 1064.738, 673.364 1064.835, 673.523 1069.991, 682.092 1071.032, 683.822 1081.003, 684.585 1090.974, 685.348 1100.945, 686.111 1105.297, 686.444 " />
            <path fill="none" stroke-width="3.0" stroke-linecap="butt" stroke-opacity="1.0" stroke="rgb(0, 0, 0)" stroke-linejoin="round" d=" M 1082.110, 527.986 1075.723, 535.681 1069.336, 543.375 1067.251, 545.888 1060.864, 553.583 1057.217, 557.976 1051.207, 565.217 1044.820, 572.912 1038.433, 580.607 1038.118, 580.986 1034.441, 574.959 1029.232, 566.423 1027.488, 563.565 1022.708, 555.730 1017.499, 547.194 1014.826, 542.814 1009.947, 534.818 1004.739, 526.282 1003.144, 523.668 993.159, 523.122 983.174, 522.576 973.189, 522.030 969.705, 521.839 971.122, 526.269 976.403, 534.760 981.685, 543.252 985.640, 549.610 990.678, 557.710 995.887, 566.084 1001.169, 574.575 1006.450, 583.067 1007.943, 585.466 1013.224, 593.957 1016.142, 598.648 1017.714, 601.176 1020.815, 606.162 1014.360, 613.800 1007.905, 621.438 1005.992, 623.702 999.834, 630.989 993.379, 638.627 991.281, 641.109 984.888, 648.674 979.317, 655.266 972.862, 662.904 966.407, 670.541 962.218, 675.498 " />
            <path fill="none" stroke-width="3.0" stroke-linecap="butt" stroke-opacity="1.0" stroke="rgb(0, 0, 0)" stroke-linejoin="round" d=" M 1040.833, 586.550 1037.086, 580.410 1031.877, 571.874 1030.003, 568.802 1025.132, 560.819 1019.923, 552.283 1017.102, 547.660 1012.131, 539.513 1006.923, 530.977 1005.200, 528.153 " />
            <path fill="none" stroke-width="3.0" stroke-linecap="butt" stroke-opacity="1.0" stroke="rgb(0, 0, 0)" stroke-linejoin="round" d=" M 1003.144, 523.668 1005.200, 528.153 995.215, 527.601 985.231, 527.049 975.246, 526.497 971.122, 526.269 " />
            <path fill="none" stroke-width="3.0" stroke-linecap="butt" stroke-opacity="1.0" stroke="rgb(0, 0, 0)" stroke-linejoin="round" d=" M 1082.940, 649.190 1077.774, 640.835 1072.515, 632.329 1070.891, 629.702 1065.953, 621.715 1060.695, 613.209 1057.541, 608.108 " />
            <path fill="none" stroke-width="3.0" stroke-linecap="butt" stroke-opacity="1.0" stroke="rgb(0, 0, 0)" stroke-linejoin="round" d=" M 1081.236, 647.527 1075.978, 639.021 1074.223, 636.182 1069.193, 628.047 1063.935, 619.541 1058.676, 611.036 1057.149, 608.565 1057.541, 608.108 1063.037, 601.702 1069.548, 594.113 1073.409, 589.612 1079.730, 582.245 1086.241, 574.656 1088.758, 571.722 " />
            <path fill="none" stroke-width="3.0" stroke-linecap="butt" stroke-opacity="1.0" stroke="rgb(0, 0, 0)" stroke-linejoin="round" d=" M 1067.251, 545.888 1073.347, 538.545 1079.733, 530.850 1082.110, 527.986 " />
            <path fill="none" stroke-width="3.0" stroke-linecap="butt" stroke-opacity="1.0" stroke="rgb(0, 0, 0)" stroke-linejoin="round" d=" M 1085.699, 532.605 1079.305, 540.293 1076.759, 543.353 1070.542, 550.829 1064.148, 558.518 1060.309, 563.133 1054.180, 570.503 1047.785, 578.191 1041.391, 585.879 1040.833, 586.550 1038.118, 580.986 " />
            <path fill="none" stroke-width="3.0" stroke-linecap="butt" stroke-opacity="1.0" stroke="rgb(0, 0, 0)" stroke-linejoin="round" d=" M 348.159, 571.358 350.598, 571.109 " />
        </g>
    </g>
</svg>
