<?xml version='1.0' encoding='ascii'?>
<svg xmlns="http://www.w3.org/2000/svg" version="1.1" width="1080" height="1080">
    <g id="ViewLayer_LineSet" xmlns:inkscape="http://www.inkscape.org/namespaces/inkscape" inkscape:groupmode="lineset" inkscape:label="ViewLayer_LineSet">
        <g xmlns:inkscape="http://www.inkscape.org/namespaces/inkscape" inkscape:groupmode="layer" id="strokes" inkscape:label="strokes">
            <path fill="none" stroke-width="3.0" stroke-linecap="butt" stroke-opacity="1.0" stroke="rgb(0, 0, 0)" stroke-linejoin="round" d=" M 692.846, 648.635 693.244, 638.643 693.444, 633.617 693.842, 623.625 694.045, 618.546 694.443, 608.554 694.648, 603.421 695.046, 593.429 695.253, 588.243 695.651, 578.251 695.860, 573.011 696.258, 563.019 696.469, 557.724 696.867, 547.732 697.080, 542.383 697.478, 532.391 697.878, 522.358 687.894, 521.789 677.911, 521.221 668.904, 520.708 664.701, 525.074 664.341, 535.068 663.981, 545.061 663.970, 545.379 663.610, 555.372 663.409, 560.933 663.049, 570.927 662.851, 576.431 662.491, 586.424 662.295, 591.873 661.935, 601.867 661.741, 607.260 661.381, 617.253 661.188, 622.591 660.828, 632.585 660.638, 637.868 660.278, 647.861 660.090, 653.090 659.730, 663.083 659.380, 672.798 669.349, 673.591 679.317, 674.384 688.348, 675.102 692.071, 668.080 692.469, 658.088 692.846, 648.635 " />
            <path fill="none" stroke-width="3.0" stroke-linecap="butt" stroke-opacity="1.0" stroke="rgb(0, 0, 0)" stroke-linejoin="round" d=" M 688.348, 675.102 688.742, 665.110 689.129, 655.314 689.523, 645.322 689.731, 640.031 690.126, 630.039 690.336, 624.692 690.731, 614.700 690.944, 609.298 691.338, 599.306 691.553, 593.849 691.947, 583.857 692.165, 578.343 692.559, 568.351 692.779, 562.781 693.173, 552.789 693.395, 547.163 693.789, 537.171 694.183, 527.179 694.199, 526.774 " />
            <path fill="none" stroke-width="3.0" stroke-linecap="butt" stroke-opacity="1.0" stroke="rgb(0, 0, 0)" stroke-linejoin="round" d=" M 697.878, 522.358 694.199, 526.774 684.216, 526.199 674.232, 525.624 664.701, 525.074 " />
            <path fill="none" stroke-width="3.0" stroke-linecap="butt" stroke-opacity="1.0" stroke="rgb(0, 0, 0)" stroke-linejoin="round" d=" M 559.276, 593.872 557.138, 589.396 554.829, 584.560 553.058, 580.852 549.732, 573.886 547.504, 569.222 545.710, 565.465 542.317, 558.359 540.171, 553.866 538.353, 550.059 534.893, 542.814 532.830, 538.493 530.988, 534.636 527.461, 527.250 525.480, 523.102 523.614, 519.194 520.277, 512.207 513.834, 511.840 506.384, 511.416 498.952, 510.992 490.795, 510.528 488.170, 511.985 486.154, 513.104 483.469, 514.595 483.353, 522.343 483.238, 530.030 483.122, 537.703 483.008, 545.362 482.893, 553.007 482.778, 560.639 482.664, 568.257 482.550, 575.862 482.436, 583.454 482.323, 591.032 482.209, 598.596 482.096, 606.147 481.983, 613.685 481.870, 621.210 481.757, 628.721 481.645, 636.220 481.533, 643.705 481.421, 651.176 481.308, 658.682 489.463, 659.331 496.893, 659.922 504.341, 660.514 508.782, 660.868 511.271, 658.452 513.139, 656.638 515.572, 654.275 515.713, 646.867 515.853, 639.492 515.994, 632.105 516.134, 624.705 516.276, 617.292 516.417, 609.866 516.558, 602.427 516.700, 594.975 516.842, 587.511 516.984, 580.033 516.987, 579.889 " />
            <path fill="none" stroke-width="3.0" stroke-linecap="butt" stroke-opacity="1.0" stroke="rgb(0, 0, 0)" stroke-linejoin="round" d=" M 510.424, 570.848 510.242, 580.847 510.160, 585.341 510.021, 592.950 509.883, 600.544 509.744, 608.126 509.606, 615.693 509.468, 623.248 509.331, 630.789 509.194, 638.317 509.057, 645.831 508.920, 653.332 508.782, 660.868 " />
            <path fill="none" stroke-width="3.0" stroke-linecap="butt" stroke-opacity="1.0" stroke="rgb(0, 0, 0)" stroke-linejoin="round" d=" M 512.612, 570.835 516.987, 579.889 517.155, 580.237 520.420, 586.995 524.667, 595.783 528.008, 602.696 532.170, 611.311 535.586, 618.379 537.818, 622.998 539.665, 626.821 543.156, 634.044 545.910, 639.746 549.934, 640.051 557.522, 640.627 561.559, 640.934 563.730, 638.622 565.359, 636.886 567.481, 634.626 570.462, 629.433 574.247, 622.842 576.253, 619.347 578.680, 615.120 582.400, 608.640 584.388, 605.178 586.945, 600.724 590.601, 594.356 592.572, 590.924 595.260, 586.242 598.850, 579.988 600.687, 576.788 " />
            <path fill="none" stroke-width="3.0" stroke-linecap="butt" stroke-opacity="1.0" stroke="rgb(0, 0, 0)" stroke-linejoin="round" d=" M 513.456, 516.323 516.855, 523.437 518.756, 527.415 520.775, 531.638 524.367, 539.157 526.244, 543.084 528.346, 547.483 531.870, 554.858 533.724, 558.733 535.909, 563.309 539.365, 570.542 541.193, 574.367 543.462, 579.115 546.850, 586.206 548.654, 589.981 551.007, 594.903 554.517, 602.250 554.805, 601.744 558.423, 595.375 559.276, 593.872 561.066, 590.721 563.060, 587.211 566.787, 580.649 569.328, 576.176 571.363, 572.592 575.202, 565.834 577.638, 561.544 579.717, 557.885 583.667, 550.931 585.998, 546.826 588.120, 543.091 592.183, 535.937 594.408, 532.020 596.573, 528.209 600.476, 521.337 602.431, 519.775 603.898, 518.603 605.808, 517.077 612.226, 517.442 619.916, 517.880 627.624, 518.319 636.123, 518.803 635.869, 526.577 635.617, 534.289 635.365, 541.987 635.114, 549.672 634.863, 557.343 634.613, 565.000 634.363, 572.643 634.114, 580.273 633.865, 587.890 633.616, 595.492 633.368, 603.082 633.121, 610.658 632.873, 618.220 632.627, 625.769 632.380, 633.305 632.135, 640.828 631.889, 648.337 631.644, 655.833 631.398, 663.363 629.679, 665.826 628.359, 667.718 626.600, 670.239 618.103, 669.563 610.397, 668.950 602.709, 668.339 598.139, 667.975 598.359, 660.344 598.578, 652.747 598.797, 645.137 599.016, 637.513 599.236, 629.876 599.456, 622.225 599.677, 614.560 599.898, 606.881 600.119, 599.189 600.341, 591.482 600.629, 581.486 600.764, 576.781 600.768, 576.647 600.891, 572.367 " />
            <path fill="none" stroke-width="3.0" stroke-linecap="butt" stroke-opacity="1.0" stroke="rgb(0, 0, 0)" stroke-linejoin="round" d=" M 520.277, 512.207 517.833, 513.681 515.956, 514.814 513.456, 516.323 506.902, 515.945 499.325, 515.509 491.765, 515.073 483.469, 514.595 " />
            <path fill="none" stroke-width="3.0" stroke-linecap="butt" stroke-opacity="1.0" stroke="rgb(0, 0, 0)" stroke-linejoin="round" d=" M 505.813, 577.419 510.425, 570.848 510.426, 570.848 512.612, 570.835 517.160, 570.807 520.837, 570.784 521.057, 570.783 " />
            <path fill="none" stroke-width="3.0" stroke-linecap="butt" stroke-opacity="1.0" stroke="rgb(0, 0, 0)" stroke-linejoin="round" d=" M 593.435, 585.366 589.786, 591.728 587.054, 596.489 585.052, 599.980 581.336, 606.457 578.739, 610.986 576.718, 614.508 572.937, 621.098 570.471, 625.397 568.433, 628.950 564.588, 635.653 561.559, 640.934 " />
            <path fill="none" stroke-width="3.0" stroke-linecap="butt" stroke-opacity="1.0" stroke="rgb(0, 0, 0)" stroke-linejoin="round" d=" M 631.330, 523.115 631.075, 531.029 630.823, 538.880 630.571, 546.717 630.319, 554.539 630.068, 562.347 629.818, 570.141 629.568, 577.921 629.318, 585.687 629.069, 593.438 628.820, 601.176 628.572, 608.900 628.324, 616.609 628.077, 624.305 627.830, 631.987 627.583, 639.655 627.337, 647.310 627.092, 654.950 626.846, 662.577 626.600, 670.239 " />
            <path fill="none" stroke-width="3.0" stroke-linecap="butt" stroke-opacity="1.0" stroke="rgb(0, 0, 0)" stroke-linejoin="round" d=" M 636.123, 518.803 634.406, 520.348 633.087, 521.534 631.330, 523.115 622.679, 522.617 614.835, 522.165 607.008, 521.714 600.476, 521.337 " />
            <path fill="none" stroke-width="3.0" stroke-linecap="butt" stroke-opacity="1.0" stroke="rgb(0, 0, 0)" stroke-linejoin="round" d=" M 605.407, 576.332 602.443, 573.729 600.891, 572.367 598.219, 577.027 593.435, 585.366 598.212, 577.027 " />
            <path fill="none" stroke-width="3.0" stroke-linecap="butt" stroke-opacity="1.0" stroke="rgb(0, 0, 0)" stroke-linejoin="round" d=" M 600.891, 572.367 598.212, 577.027 " />
            <path fill="none" stroke-width="3.0" stroke-linecap="butt" stroke-opacity="1.0" stroke="rgb(0, 0, 0)" stroke-linejoin="round" d=" M 404.683, 588.879 400.501, 583.066 395.688, 576.378 390.026, 568.507 384.185, 560.390 383.282, 559.136 377.717, 551.399 371.876, 543.283 370.877, 541.894 365.408, 534.292 359.568, 526.175 358.473, 524.653 353.099, 517.185 347.259, 509.068 343.443, 503.765 333.459, 503.194 331.837, 503.101 322.663, 502.577 313.309, 506.113 312.556, 506.397 312.604, 516.397 312.648, 525.698 312.696, 535.698 312.719, 540.487 312.767, 550.487 312.789, 555.224 312.837, 565.224 312.860, 569.912 312.908, 579.912 312.930, 584.549 312.977, 594.549 312.999, 599.137 313.047, 609.137 313.069, 613.675 313.117, 623.674 313.138, 628.163 313.186, 638.163 313.228, 646.926 322.399, 647.657 332.367, 648.453 339.311, 649.007 347.684, 643.539 348.837, 642.785 348.831, 632.785 348.826, 624.261 348.820, 614.261 348.818, 609.957 348.812, 599.957 348.809, 595.605 348.803, 585.605 348.801, 581.205 348.795, 572.178 " />
            <path fill="none" stroke-width="3.0" stroke-linecap="butt" stroke-opacity="1.0" stroke="rgb(0, 0, 0)" stroke-linejoin="round" d=" M 339.311, 649.007 339.294, 639.007 339.279, 630.173 339.262, 620.173 339.254, 615.628 339.237, 605.628 339.229, 601.034 339.212, 591.034 339.204, 586.390 339.187, 576.390 339.169, 566.390 339.157, 558.936 345.042, 567.021 348.795, 572.178 349.133, 572.642 355.018, 580.726 355.935, 581.985 361.685, 589.886 367.570, 597.971 368.576, 599.352 374.238, 607.132 380.123, 615.217 381.217, 616.721 386.793, 624.379 392.678, 632.465 395.256, 636.006 399.933, 642.431 405.818, 650.516 408.753, 654.548 418.721, 655.343 421.644, 655.576 431.127, 656.333 438.942, 650.094 439.189, 649.896 439.289, 639.897 439.377, 631.128 439.478, 621.128 439.523, 616.635 439.623, 606.635 439.668, 602.092 439.769, 592.092 439.815, 587.500 439.915, 577.500 439.962, 572.857 440.062, 562.858 440.109, 558.165 440.209, 548.166 440.257, 543.422 440.357, 533.423 440.405, 528.629 440.506, 518.630 440.597, 509.523 431.111, 508.981 421.128, 508.409 413.759, 507.988 405.139, 511.960 405.080, 521.960 405.025, 531.323 404.965, 541.323 404.936, 546.314 404.876, 556.314 404.847, 561.253 404.788, 571.253 404.759, 576.141 404.700, 586.141 404.683, 588.879 404.671, 590.977 404.612, 600.977 404.581, 606.176 " />
            <path fill="none" stroke-width="3.0" stroke-linecap="butt" stroke-opacity="1.0" stroke="rgb(0, 0, 0)" stroke-linejoin="round" d=" M 404.581, 606.176 400.012, 599.824 394.172, 591.707 391.741, 588.327 386.843, 581.520 381.080, 573.510 375.239, 565.393 374.217, 563.973 368.553, 556.099 362.712, 547.982 361.592, 546.425 356.026, 538.688 350.187, 530.570 348.970, 528.877 343.499, 521.277 337.658, 513.160 333.671, 507.620 " />
            <path fill="none" stroke-width="3.0" stroke-linecap="butt" stroke-opacity="1.0" stroke="rgb(0, 0, 0)" stroke-linejoin="round" d=" M 343.443, 503.765 334.140, 507.434 333.671, 507.620 323.688, 507.042 321.878, 506.937 312.556, 506.397 " />
            <path fill="none" stroke-width="3.0" stroke-linecap="butt" stroke-opacity="1.0" stroke="rgb(0, 0, 0)" stroke-linejoin="round" d=" M 431.127, 656.333 431.218, 646.333 431.301, 637.246 431.391, 627.246 431.435, 622.505 431.525, 612.506 431.569, 607.714 431.660, 597.714 431.704, 592.871 431.795, 582.872 431.839, 577.977 431.930, 567.977 431.975, 563.030 432.066, 553.031 432.111, 548.032 432.202, 538.032 432.248, 532.980 432.339, 522.981 432.425, 513.541 " />
            <path fill="none" stroke-width="3.0" stroke-linecap="butt" stroke-opacity="1.0" stroke="rgb(0, 0, 0)" stroke-linejoin="round" d=" M 440.597, 509.523 432.425, 513.541 422.781, 512.982 412.798, 512.404 405.139, 511.960 " />
            <path fill="none" stroke-width="3.0" stroke-linecap="butt" stroke-opacity="1.0" stroke="rgb(0, 0, 0)" stroke-linejoin="round" d=" M 598.219, 577.027 600.687, 576.788 600.764, 576.781 " />
        </g>
    </g>
</svg>
