<?xml version='1.0' encoding='ascii'?>
<svg xmlns="http://www.w3.org/2000/svg" version="1.1" width="1080" height="1080">
    <g id="ViewLayer_LineSet" xmlns:inkscape="http://www.inkscape.org/namespaces/inkscape" inkscape:groupmode="lineset" inkscape:label="ViewLayer_LineSet">
        <g xmlns:inkscape="http://www.inkscape.org/namespaces/inkscape" inkscape:groupmode="layer" id="strokes" inkscape:label="strokes">
            <path fill="none" stroke-width="3.0" stroke-linecap="butt" stroke-opacity="1.0" stroke="rgb(0, 0, 0)" stroke-linejoin="round" d=" M 219.943, 637.915 219.785, 627.916 219.706, 622.878 219.549, 612.879 219.469, 607.787 219.311, 597.789 219.230, 592.644 219.073, 582.645 218.991, 577.446 218.834, 567.448 218.751, 562.195 218.594, 552.196 218.511, 546.889 218.353, 536.890 218.269, 531.529 218.112, 521.530 217.954, 511.478 207.971, 510.884 197.989, 510.289 191.026, 509.875 181.495, 512.902 177.915, 514.039 178.119, 524.037 178.323, 534.035 178.330, 534.370 178.533, 544.368 178.647, 549.944 178.850, 559.942 178.963, 565.461 179.167, 575.459 179.278, 580.923 179.482, 590.921 179.592, 596.330 179.795, 606.328 179.904, 611.681 180.108, 621.679 180.216, 626.977 180.420, 636.975 180.526, 642.218 180.730, 652.216 180.928, 661.952 190.893, 662.787 200.858, 663.623 207.845, 664.209 216.607, 659.388 220.249, 657.384 220.092, 647.385 219.943, 637.915 " />
            <path fill="none" stroke-width="3.0" stroke-linecap="butt" stroke-opacity="1.0" stroke="rgb(0, 0, 0)" stroke-linejoin="round" d=" M 207.845, 664.209 207.673, 654.210 207.504, 644.396 207.332, 634.398 207.241, 629.093 207.069, 619.095 206.977, 613.735 206.805, 603.736 206.712, 598.321 206.540, 588.323 206.446, 582.852 206.274, 572.853 206.179, 567.326 206.007, 557.328 205.910, 551.744 205.738, 541.746 205.641, 536.106 205.469, 526.107 205.297, 516.109 205.290, 515.691 " />
            <path fill="none" stroke-width="3.0" stroke-linecap="butt" stroke-opacity="1.0" stroke="rgb(0, 0, 0)" stroke-linejoin="round" d=" M 217.954, 511.478 208.465, 514.635 205.290, 515.691 195.308, 515.089 185.326, 514.486 177.915, 514.039 " />
            <path fill="none" stroke-width="3.0" stroke-linecap="butt" stroke-opacity="1.0" stroke="rgb(0, 0, 0)" stroke-linejoin="round" d=" M 930.382, 641.084 929.706, 651.061 929.344, 656.405 928.668, 666.382 928.001, 676.240 928.632, 683.564 938.602, 684.342 946.225, 684.937 956.195, 685.715 959.533, 685.975 960.247, 676.001 960.960, 666.026 960.983, 665.701 961.697, 655.726 962.104, 650.040 962.817, 640.065 963.135, 635.612 973.111, 636.319 983.256, 637.037 993.222, 637.863 1000.406, 638.457 1010.400, 638.107 1018.823, 637.811 1027.801, 633.408 1028.604, 633.015 1037.074, 627.699 1038.961, 626.515 1045.304, 618.784 1046.114, 617.796 1051.911, 609.715 1054.757, 600.129 1056.939, 592.780 1056.355, 582.798 1055.903, 575.056 1051.819, 565.927 1051.425, 565.046 1048.440, 559.749 1043.288, 551.179 1042.964, 550.640 1035.910, 543.551 1034.438, 542.072 1026.296, 536.267 1024.595, 535.055 1014.825, 532.924 1006.348, 531.074 996.356, 530.680 988.968, 530.388 978.983, 529.831 972.278, 529.457 962.293, 528.901 955.666, 528.531 945.681, 527.975 938.070, 527.551 937.395, 537.528 936.719, 547.505 936.686, 547.989 936.011, 557.966 935.626, 563.646 934.950, 573.623 934.569, 579.246 933.894, 589.223 933.517, 594.790 932.841, 604.767 932.468, 610.277 931.792, 620.254 931.423, 625.709 930.747, 635.686 930.382, 641.084 " />
            <path fill="none" stroke-width="3.0" stroke-linecap="butt" stroke-opacity="1.0" stroke="rgb(0, 0, 0)" stroke-linejoin="round" d=" M 938.905, 532.162 938.228, 542.139 937.551, 552.116 937.493, 552.980 936.816, 562.957 936.411, 568.926 935.734, 578.903 935.333, 584.812 934.656, 594.790 934.259, 600.641 933.582, 610.618 933.189, 616.411 932.512, 626.388 932.123, 632.122 931.446, 642.100 931.060, 647.777 930.383, 657.754 930.002, 663.373 929.325, 673.350 928.648, 683.327 928.632, 683.564 " />
            <path fill="none" stroke-width="3.0" stroke-linecap="butt" stroke-opacity="1.0" stroke="rgb(0, 0, 0)" stroke-linejoin="round" d=" M 964.983, 609.776 965.407, 603.848 966.121, 593.874 966.626, 586.812 967.339, 576.838 967.767, 570.858 968.480, 560.884 968.527, 560.234 978.508, 560.856 988.488, 561.477 988.919, 561.504 998.911, 561.914 1008.831, 562.320 1017.297, 567.642 1020.847, 569.873 1022.880, 571.151 " />
            <path fill="none" stroke-width="3.0" stroke-linecap="butt" stroke-opacity="1.0" stroke="rgb(0, 0, 0)" stroke-linejoin="round" d=" M 1051.425, 565.046 1046.273, 556.475 1045.843, 555.761 1038.790, 548.672 1037.151, 547.025 1029.009, 541.219 1027.116, 539.868 1017.347, 537.732 1008.510, 535.800 998.518, 535.398 990.790, 535.088 980.806, 534.525 973.774, 534.128 963.790, 533.565 956.840, 533.174 946.856, 532.611 938.905, 532.162 938.070, 527.551 " />
            <path fill="none" stroke-width="3.0" stroke-linecap="butt" stroke-opacity="1.0" stroke="rgb(0, 0, 0)" stroke-linejoin="round" d=" M 1020.847, 569.873 1021.810, 579.827 1022.282, 584.699 1018.661, 594.021 1015.952, 600.994 1006.909, 605.264 1004.278, 606.506 994.303, 605.802 984.327, 605.098 983.471, 605.037 973.493, 604.381 965.407, 603.848 " />
            <path fill="none" stroke-width="3.0" stroke-linecap="butt" stroke-opacity="1.0" stroke="rgb(0, 0, 0)" stroke-linejoin="round" d=" M 1022.880, 571.151 1023.841, 581.105 1024.744, 590.441 1021.117, 599.761 1018.286, 607.034 1009.238, 611.293 1006.382, 612.637 996.408, 611.925 986.433, 611.212 985.172, 611.122 975.194, 610.457 965.217, 609.791 964.983, 609.776 " />
            <path fill="none" stroke-width="3.0" stroke-linecap="butt" stroke-opacity="1.0" stroke="rgb(0, 0, 0)" stroke-linejoin="round" d=" M 747.121, 601.786 740.964, 609.666 737.174, 614.516 731.575, 621.682 725.418, 629.561 723.798, 631.635 717.641, 639.515 712.918, 645.559 706.761, 653.439 700.604, 661.319 697.367, 665.462 693.724, 672.470 703.693, 673.259 713.661, 674.047 723.630, 674.835 725.894, 675.014 732.016, 667.108 732.869, 666.006 738.963, 658.136 745.085, 650.229 747.655, 646.910 753.080, 639.903 759.203, 631.996 761.270, 629.326 764.589, 625.039 769.774, 633.590 774.416, 641.247 779.149, 649.054 784.334, 657.605 786.831, 661.724 792.016, 670.275 792.121, 670.449 797.306, 679.001 798.364, 680.746 808.333, 681.534 818.302, 682.322 828.271, 683.111 831.314, 683.351 832.482, 676.002 827.200, 667.511 821.918, 659.020 818.463, 653.466 813.923, 646.166 808.727, 637.814 803.445, 629.322 801.803, 626.683 796.837, 618.699 791.555, 610.207 786.273, 601.716 786.100, 601.438 " />
            <path fill="none" stroke-width="3.0" stroke-linecap="butt" stroke-opacity="1.0" stroke="rgb(0, 0, 0)" stroke-linejoin="round" d=" M 782.878, 605.496 786.100, 601.438 788.330, 598.630 794.549, 590.799 797.933, 586.536 803.786, 579.166 810.004, 571.335 812.145, 568.639 818.317, 560.866 824.309, 553.320 830.527, 545.489 836.746, 537.658 841.682, 531.442 842.676, 526.824 832.691, 526.261 822.707, 525.698 812.723, 525.135 809.704, 524.965 803.610, 532.894 797.517, 540.823 795.941, 542.873 789.848, 550.802 786.649, 554.965 781.082, 562.209 774.989, 570.138 768.959, 577.983 765.258, 571.958 760.024, 563.437 758.261, 560.567 753.449, 552.735 748.215, 544.214 745.517, 539.822 740.606, 531.828 735.372, 523.307 733.759, 520.681 723.775, 520.118 713.791, 519.555 703.807, 518.992 701.599, 518.867 697.972, 523.239 703.277, 531.717 708.581, 540.194 712.573, 546.574 717.878, 555.051 722.879, 563.043 728.183, 571.520 733.488, 579.997 735.003, 582.419 740.307, 590.896 743.249, 595.597 747.121, 601.786 747.949, 603.109 741.790, 610.987 735.631, 618.866 734.232, 620.655 728.533, 627.945 722.374, 635.823 720.618, 638.069 714.702, 645.637 709.547, 652.231 703.388, 660.109 697.229, 667.987 693.724, 672.470 " />
            <path fill="none" stroke-width="3.0" stroke-linecap="butt" stroke-opacity="1.0" stroke="rgb(0, 0, 0)" stroke-linejoin="round" d=" M 766.590, 583.489 762.819, 577.350 757.584, 568.830 755.689, 565.745 750.786, 557.765 745.551, 549.245 742.703, 544.610 737.700, 536.466 732.465, 527.945 730.723, 525.109 " />
            <path fill="none" stroke-width="3.0" stroke-linecap="butt" stroke-opacity="1.0" stroke="rgb(0, 0, 0)" stroke-linejoin="round" d=" M 733.759, 520.681 730.723, 525.109 720.739, 524.539 710.755, 523.969 700.771, 523.399 697.972, 523.239 " />
            <path fill="none" stroke-width="3.0" stroke-linecap="butt" stroke-opacity="1.0" stroke="rgb(0, 0, 0)" stroke-linejoin="round" d=" M 831.314, 683.351 826.031, 674.860 820.749, 666.369 817.030, 660.392 812.404, 652.953 807.109, 644.446 801.828, 635.954 800.056, 633.105 794.994, 624.972 789.712, 616.481 784.430, 607.990 782.878, 605.496 " />
            <path fill="none" stroke-width="3.0" stroke-linecap="butt" stroke-opacity="1.0" stroke="rgb(0, 0, 0)" stroke-linejoin="round" d=" M 795.941, 542.873 801.586, 535.528 807.680, 527.599 809.704, 524.965 808.084, 529.524 " />
            <path fill="none" stroke-width="3.0" stroke-linecap="butt" stroke-opacity="1.0" stroke="rgb(0, 0, 0)" stroke-linejoin="round" d=" M 841.682, 531.442 831.698, 530.872 821.714, 530.302 811.730, 529.732 808.084, 529.524 801.989, 537.451 799.817, 540.276 794.067, 547.755 787.971, 555.682 784.603, 560.063 778.934, 567.435 772.839, 575.363 766.743, 583.290 766.590, 583.489 768.959, 577.983 " />
        </g>
    </g>
</svg>
