<?xml version='1.0' encoding='ascii'?>
<svg xmlns="http://www.w3.org/2000/svg" version="1.1" width="1080" height="1080">
    <g id="ViewLayer_LineSet" xmlns:inkscape="http://www.inkscape.org/namespaces/inkscape" inkscape:groupmode="lineset" inkscape:label="ViewLayer_LineSet">
        <g xmlns:inkscape="http://www.inkscape.org/namespaces/inkscape" inkscape:groupmode="layer" id="strokes" inkscape:label="strokes">
            <path fill="none" stroke-width="3.0" stroke-linecap="butt" stroke-opacity="1.0" stroke="rgb(0, 0, 0)" stroke-linejoin="round" d=" M 446.114, 643.042 446.222, 633.042 446.276, 628.014 446.385, 618.014 446.440, 612.933 446.548, 602.933 446.604, 597.798 446.712, 587.799 446.768, 582.610 446.877, 572.610 446.934, 567.368 447.042, 557.368 447.099, 552.071 447.208, 542.072 447.266, 536.720 447.374, 526.720 447.483, 516.681 437.500, 516.100 427.517, 515.518 419.576, 515.056 410.726, 519.317 410.660, 529.317 410.594, 539.316 410.592, 539.635 410.526, 549.635 410.490, 555.199 410.424, 565.199 410.388, 570.708 410.322, 580.707 410.286, 586.160 410.220, 596.160 410.185, 601.557 410.119, 611.557 410.084, 616.899 410.018, 626.898 409.983, 632.185 409.917, 642.185 409.883, 647.418 409.817, 657.417 409.753, 667.139 419.720, 667.953 429.686, 668.768 437.651, 669.418 445.314, 662.993 445.903, 662.500 446.011, 652.500 446.114, 643.042 " />
            <path fill="none" stroke-width="3.0" stroke-linecap="butt" stroke-opacity="1.0" stroke="rgb(0, 0, 0)" stroke-linejoin="round" d=" M 437.651, 669.418 437.750, 659.419 437.846, 649.618 437.945, 639.618 437.997, 634.324 438.096, 624.325 438.149, 618.975 438.248, 608.976 438.301, 603.571 438.400, 593.572 438.453, 588.111 438.552, 578.112 438.607, 572.595 438.705, 562.596 438.760, 557.023 438.859, 547.023 438.915, 541.394 439.013, 531.394 439.112, 521.395 439.116, 520.991 " />
            <path fill="none" stroke-width="3.0" stroke-linecap="butt" stroke-opacity="1.0" stroke="rgb(0, 0, 0)" stroke-linejoin="round" d=" M 447.483, 516.681 439.116, 520.991 429.133, 520.403 419.151, 519.814 410.726, 519.317 " />
            <path fill="none" stroke-width="3.0" stroke-linecap="butt" stroke-opacity="1.0" stroke="rgb(0, 0, 0)" stroke-linejoin="round" d=" M 127.019, 575.360 126.771, 574.856 124.940, 571.147 121.502, 564.178 119.200, 559.513 117.345, 555.753 113.838, 548.646 111.620, 544.151 109.740, 540.342 106.164, 533.094 104.031, 528.772 102.127, 524.913 98.482, 517.525 96.434, 513.375 94.505, 509.466 91.056, 502.476 85.030, 502.119 78.064, 501.705 71.113, 501.293 63.485, 500.841 58.082, 502.235 53.932, 503.306 48.403, 504.732 48.677, 512.489 48.949, 520.184 49.221, 527.866 49.491, 535.534 49.762, 543.188 50.032, 550.828 50.301, 558.455 50.570, 566.069 50.838, 573.669 51.107, 581.256 51.374, 588.829 51.641, 596.389 51.908, 603.935 52.174, 611.468 52.439, 618.988 52.704, 626.495 52.969, 633.989 53.233, 641.469 53.499, 648.984 61.124, 649.620 68.071, 650.200 75.034, 650.782 79.187, 651.129 84.447, 648.775 88.397, 647.008 93.540, 644.708 93.313, 637.291 93.087, 629.908 92.861, 622.512 92.634, 615.104 92.407, 607.683 92.180, 600.248 91.952, 592.801 91.806, 588.030 " />
            <path fill="none" stroke-width="3.0" stroke-linecap="butt" stroke-opacity="1.0" stroke="rgb(0, 0, 0)" stroke-linejoin="round" d=" M 76.275, 561.006 76.598, 571.001 76.744, 575.516 76.990, 583.133 77.236, 590.736 77.481, 598.326 77.726, 605.902 77.970, 613.465 78.214, 621.015 78.457, 628.552 78.700, 636.075 78.943, 643.584 79.187, 651.129 " />
            <path fill="none" stroke-width="3.0" stroke-linecap="butt" stroke-opacity="1.0" stroke="rgb(0, 0, 0)" stroke-linejoin="round" d=" M 78.311, 560.989 82.776, 569.937 83.005, 570.395 86.378, 577.155 90.766, 585.947 91.806, 588.030 94.218, 592.862 98.518, 601.480 102.046, 608.551 104.353, 613.171 106.261, 616.996 109.867, 624.221 112.713, 629.925 116.474, 630.224 123.568, 630.789 127.341, 631.090 132.344, 628.842 136.099, 627.155 140.989, 624.958 143.518, 619.754 146.728, 613.150 148.429, 609.648 150.487, 605.413 153.643, 598.920 157.498, 590.988 160.598, 584.607 161.058, 583.661 " />
            <path fill="none" stroke-width="3.0" stroke-linecap="butt" stroke-opacity="1.0" stroke="rgb(0, 0, 0)" stroke-linejoin="round" d=" M 76.408, 506.415 79.924, 513.531 81.890, 517.511 83.978, 521.736 87.693, 529.258 89.634, 533.186 91.809, 537.586 95.454, 544.965 97.373, 548.841 99.630, 553.418 103.205, 560.654 105.096, 564.481 107.443, 569.230 110.947, 576.324 112.813, 580.100 115.246, 585.024 118.877, 592.374 119.120, 591.867 122.174, 585.485 124.405, 580.822 126.089, 577.305 127.019, 575.360 129.236, 570.729 131.380, 566.247 133.099, 562.656 136.339, 555.885 138.396, 551.586 140.151, 547.920 143.486, 540.952 145.453, 536.838 147.245, 533.096 150.675, 525.928 152.553, 522.003 154.380, 518.184 157.676, 511.299 162.575, 509.804 166.252, 508.681 171.039, 507.220 177.041, 507.576 184.233, 508.003 191.441, 508.430 199.388, 508.902 199.527, 516.685 199.665, 524.406 199.803, 532.113 199.941, 539.806 200.078, 547.486 200.215, 555.152 200.352, 562.804 200.488, 570.443 200.624, 578.068 200.760, 585.679 200.896, 593.277 201.032, 600.862 201.167, 608.433 201.302, 615.991 201.437, 623.536 201.572, 631.067 201.706, 638.584 201.840, 646.089 201.975, 653.628 197.450, 656.028 193.974, 657.871 189.344, 660.326 181.399, 659.663 174.194, 659.061 167.006, 658.461 162.733, 658.104 162.561, 650.464 162.390, 642.859 162.219, 635.240 162.047, 627.607 161.875, 619.961 161.703, 612.301 161.530, 604.627 161.357, 596.939 161.184, 589.238 161.058, 583.661 161.010, 581.522 160.785, 571.525 160.679, 566.804 160.580, 562.385 " />
            <path fill="none" stroke-width="3.0" stroke-linecap="butt" stroke-opacity="1.0" stroke="rgb(0, 0, 0)" stroke-linejoin="round" d=" M 91.056, 502.476 85.808, 503.887 81.777, 504.971 76.408, 506.415 70.287, 506.047 63.211, 505.622 56.151, 505.198 48.403, 504.732 " />
            <path fill="none" stroke-width="3.0" stroke-linecap="butt" stroke-opacity="1.0" stroke="rgb(0, 0, 0)" stroke-linejoin="round" d=" M 72.306, 567.591 76.275, 561.006 76.275, 561.006 78.311, 560.989 86.171, 560.924 " />
            <path fill="none" stroke-width="3.0" stroke-linecap="butt" stroke-opacity="1.0" stroke="rgb(0, 0, 0)" stroke-linejoin="round" d=" M 153.643, 598.920 155.327, 595.451 157.498, 590.988 " />
            <path fill="none" stroke-width="3.0" stroke-linecap="butt" stroke-opacity="1.0" stroke="rgb(0, 0, 0)" stroke-linejoin="round" d=" M 154.279, 575.410 151.195, 581.785 148.887, 586.556 147.194, 590.054 144.054, 596.544 141.859, 601.082 140.151, 604.611 136.956, 611.215 134.873, 615.522 133.150, 619.082 129.901, 625.798 127.341, 631.090 " />
            <path fill="none" stroke-width="3.0" stroke-linecap="butt" stroke-opacity="1.0" stroke="rgb(0, 0, 0)" stroke-linejoin="round" d=" M 186.490, 513.030 186.643, 520.954 186.796, 528.814 186.948, 536.660 187.099, 544.491 187.251, 552.308 187.402, 560.111 187.553, 567.900 187.704, 575.675 187.854, 583.436 188.004, 591.182 188.154, 598.915 188.303, 606.634 188.453, 614.339 188.602, 622.030 188.750, 629.707 188.899, 637.370 189.047, 645.020 189.195, 652.656 189.344, 660.326 " />
            <path fill="none" stroke-width="3.0" stroke-linecap="butt" stroke-opacity="1.0" stroke="rgb(0, 0, 0)" stroke-linejoin="round" d=" M 199.388, 508.902 194.768, 510.381 191.219, 511.517 186.490, 513.030 178.412, 512.545 171.085, 512.105 163.776, 511.665 157.676, 511.299 " />
            <path fill="none" stroke-width="3.0" stroke-linecap="butt" stroke-opacity="1.0" stroke="rgb(0, 0, 0)" stroke-linejoin="round" d=" M 164.979, 566.347 160.580, 562.385 158.321, 567.054 154.279, 575.410 158.315, 567.055 " />
            <path fill="none" stroke-width="3.0" stroke-linecap="butt" stroke-opacity="1.0" stroke="rgb(0, 0, 0)" stroke-linejoin="round" d=" M 160.580, 562.385 158.315, 567.055 " />
            <path fill="none" stroke-width="3.0" stroke-linecap="butt" stroke-opacity="1.0" stroke="rgb(0, 0, 0)" stroke-linejoin="round" d=" M -7.608, 633.192 -1.727, 641.280 1.202, 645.309 11.167, 646.142 13.286, 646.319 22.175, 647.062 31.416, 643.241 37.353, 640.787 36.981, 630.794 36.654, 621.998 36.283, 612.005 36.115, 607.489 35.743, 597.496 35.573, 592.931 35.202, 582.938 35.030, 578.323 34.659, 568.330 34.485, 563.665 34.114, 553.672 33.938, 548.957 33.567, 538.964 33.390, 534.199 33.018, 524.206 32.839, 519.390 32.467, 509.396 32.128, 500.263 23.235, 499.734 13.252, 499.140 6.966, 498.766 -2.760, 501.092 -8.948, 502.573 " />
            <path fill="none" stroke-width="3.0" stroke-linecap="butt" stroke-opacity="1.0" stroke="rgb(0, 0, 0)" stroke-linejoin="round" d=" M 22.175, 647.062 21.785, 637.070 21.430, 627.954 21.040, 617.962 20.854, 613.198 20.464, 603.205 20.277, 598.390 19.887, 588.398 19.697, 583.531 19.308, 573.538 19.116, 568.620 18.726, 558.628 18.532, 553.657 18.143, 543.665 17.947, 538.642 17.557, 528.650 17.359, 523.575 16.969, 513.582 16.600, 504.114 " />
            <path fill="none" stroke-width="3.0" stroke-linecap="butt" stroke-opacity="1.0" stroke="rgb(0, 0, 0)" stroke-linejoin="round" d=" M 32.128, 500.263 22.422, 502.670 16.600, 504.114 7.570, 503.569 -2.412, 502.967 -8.948, 502.573 " />
            <path fill="none" stroke-width="3.0" stroke-linecap="butt" stroke-opacity="1.0" stroke="rgb(0, 0, 0)" stroke-linejoin="round" d=" M 1092.942, 529.771 1082.957, 529.223 1075.004, 528.787 1074.171, 538.752 1073.338, 548.717 1073.296, 549.223 1072.463, 559.188 1071.987, 564.877 1071.154, 574.843 1070.683, 580.475 1069.850, 590.440 1069.383, 596.017 1068.550, 605.982 1068.089, 611.502 1067.255, 621.467 1066.799, 626.931 1065.965, 636.896 1065.513, 642.304 1064.680, 652.270 1064.233, 657.623 1063.399, 667.588 1062.574, 677.455 1065.734, 684.802 1075.705, 685.567 1083.671, 686.178 " />
            <path fill="none" stroke-width="3.0" stroke-linecap="butt" stroke-opacity="1.0" stroke="rgb(0, 0, 0)" stroke-linejoin="round" d=" M 1078.458, 533.422 1077.621, 543.387 1076.783, 553.352 1076.709, 554.237 1075.871, 564.201 1075.369, 570.180 1074.531, 580.145 1074.034, 586.065 1073.196, 596.030 1072.703, 601.891 1071.866, 611.856 1071.378, 617.658 1070.541, 627.623 1070.058, 633.368 1069.220, 643.333 1068.742, 649.020 1067.905, 658.984 1067.431, 664.614 1066.594, 674.579 1065.756, 684.544 1065.734, 684.802 " />
            <path fill="none" stroke-width="3.0" stroke-linecap="butt" stroke-opacity="1.0" stroke="rgb(0, 0, 0)" stroke-linejoin="round" d=" M 1096.749, 534.437 1086.764, 533.883 1078.458, 533.422 1075.004, 528.787 " />
            <path fill="none" stroke-width="3.0" stroke-linecap="butt" stroke-opacity="1.0" stroke="rgb(0, 0, 0)" stroke-linejoin="round" d=" M 933.008, 605.084 938.278, 613.583 942.461, 620.331 947.412, 628.317 952.681, 636.816 954.313, 639.449 959.493, 647.802 964.019, 655.103 969.289, 663.602 974.558, 672.102 977.994, 677.643 979.571, 685.025 969.601, 684.250 959.631, 683.476 949.661, 682.702 945.910, 682.411 940.741, 673.850 939.692, 672.113 934.522, 663.553 934.422, 663.386 929.253, 654.825 926.770, 650.714 922.055, 642.906 916.886, 634.346 912.267, 626.696 908.802, 630.981 902.516, 638.758 900.253, 641.556 894.591, 648.562 888.304, 656.338 885.518, 659.785 879.231, 667.562 879.157, 667.654 872.870, 675.431 871.875, 676.661 861.905, 675.887 851.935, 675.112 841.965, 674.338 839.011, 674.109 840.017, 667.070 846.335, 659.318 852.652, 651.566 856.234, 647.170 861.516, 640.690 867.579, 633.249 873.897, 625.497 875.689, 623.298 881.527, 616.133 887.845, 608.381 893.518, 601.420 " />
            <path fill="none" stroke-width="3.0" stroke-linecap="butt" stroke-opacity="1.0" stroke="rgb(0, 0, 0)" stroke-linejoin="round" d=" M 867.579, 633.249 861.262, 641.001 856.234, 647.170 " />
            <path fill="none" stroke-width="3.0" stroke-linecap="butt" stroke-opacity="1.0" stroke="rgb(0, 0, 0)" stroke-linejoin="round" d=" M 931.291, 607.157 933.008, 605.084 936.979, 600.293 943.359, 592.592 946.998, 588.201 953.104, 580.832 959.484, 573.132 961.825, 570.308 968.264, 562.535 974.516, 554.992 980.896, 547.292 987.276, 539.591 992.641, 533.117 990.789, 528.467 980.805, 527.914 970.820, 527.360 960.835, 526.806 957.108, 526.600 950.852, 534.401 944.597, 542.203 942.752, 544.505 936.496, 552.307 933.059, 556.594 927.252, 563.837 920.996, 571.639 914.741, 579.440 914.606, 579.608 910.918, 573.582 905.697, 565.053 903.945, 562.190 899.150, 554.356 893.930, 545.827 891.245, 541.441 886.352, 533.446 881.132, 524.917 879.529, 522.297 869.544, 521.744 859.559, 521.190 849.575, 520.636 846.677, 520.476 845.778, 524.879 851.070, 533.364 856.362, 541.849 860.334, 548.217 865.627, 556.702 870.609, 564.688 875.901, 573.173 881.193, 581.658 882.696, 584.068 887.988, 592.553 890.916, 597.248 893.518, 601.420 895.602, 604.762 889.279, 612.509 882.957, 620.257 881.286, 622.304 875.339, 629.592 869.017, 637.340 867.079, 639.714 860.904, 647.280 855.525, 653.873 849.202, 661.621 842.880, 669.369 839.011, 674.109 " />
            <path fill="none" stroke-width="3.0" stroke-linecap="butt" stroke-opacity="1.0" stroke="rgb(0, 0, 0)" stroke-linejoin="round" d=" M 914.988, 585.146 911.230, 579.006 906.009, 570.477 904.125, 567.399 899.240, 559.418 894.019, 550.889 891.186, 546.261 886.200, 538.115 880.979, 529.586 879.247, 526.756 " />
            <path fill="none" stroke-width="3.0" stroke-linecap="butt" stroke-opacity="1.0" stroke="rgb(0, 0, 0)" stroke-linejoin="round" d=" M 879.529, 522.297 879.247, 526.756 869.263, 526.196 859.279, 525.636 849.294, 525.076 845.778, 524.879 " />
            <path fill="none" stroke-width="3.0" stroke-linecap="butt" stroke-opacity="1.0" stroke="rgb(0, 0, 0)" stroke-linejoin="round" d=" M 979.571, 685.025 974.301, 676.526 969.032, 668.027 965.333, 662.062 960.721, 654.622 955.444, 646.113 950.175, 637.614 948.412, 634.770 943.368, 626.636 938.099, 618.137 932.829, 609.638 931.291, 607.157 " />
            <path fill="none" stroke-width="3.0" stroke-linecap="butt" stroke-opacity="1.0" stroke="rgb(0, 0, 0)" stroke-linejoin="round" d=" M 942.752, 544.505 948.641, 537.161 954.896, 529.358 957.108, 526.600 958.306, 531.191 " />
            <path fill="none" stroke-width="3.0" stroke-linecap="butt" stroke-opacity="1.0" stroke="rgb(0, 0, 0)" stroke-linejoin="round" d=" M 992.641, 533.117 982.657, 532.557 972.672, 531.997 962.688, 531.437 958.306, 531.191 952.046, 538.989 949.675, 541.942 943.672, 549.418 937.412, 557.216 933.792, 561.724 927.874, 569.095 921.614, 576.893 915.353, 584.691 914.988, 585.146 914.606, 579.608 " />
            <path fill="none" stroke-width="3.0" stroke-linecap="butt" stroke-opacity="1.0" stroke="rgb(0, 0, 0)" stroke-linejoin="round" d=" M 158.321, 567.054 160.679, 566.804 " />
        </g>
    </g>
</svg>
