<?xml version='1.0' encoding='ascii'?>
<svg xmlns="http://www.w3.org/2000/svg" version="1.1" width="1080" height="1080">
    <g id="ViewLayer_LineSet" xmlns:inkscape="http://www.inkscape.org/namespaces/inkscape" inkscape:groupmode="lineset" inkscape:label="ViewLayer_LineSet">
        <g xmlns:inkscape="http://www.inkscape.org/namespaces/inkscape" inkscape:groupmode="layer" id="strokes" inkscape:label="strokes">
            <path fill="none" stroke-width="3.0" stroke-linecap="butt" stroke-opacity="1.0" stroke="rgb(0, 0, 0)" stroke-linejoin="round" d=" M 826.112, 624.788 823.006, 634.293 822.439, 636.026 816.477, 644.054 813.953, 647.452 806.896, 654.537 805.295, 656.144 795.749, 659.120 795.434, 659.218 787.955, 661.527 777.990, 660.702 770.040, 660.044 762.848, 656.721 753.867, 652.324 753.056, 651.927 747.053, 643.929 745.907, 642.403 740.925, 633.732 738.754, 629.954 736.747, 620.158 735.659, 614.844 736.161, 604.857 736.443, 599.271 739.350, 589.704 740.018, 587.506 " />
            <path fill="none" stroke-width="3.0" stroke-linecap="butt" stroke-opacity="1.0" stroke="rgb(0, 0, 0)" stroke-linejoin="round" d=" M 713.203, 655.238 718.825, 663.508 720.929, 666.603 728.045, 673.630 729.905, 675.467 737.780, 681.629 738.237, 681.987 746.882, 687.013 748.856, 688.161 758.414, 691.103 766.276, 693.524 776.247, 694.283 784.575, 694.917 794.477, 693.520 802.594, 692.374 811.857, 688.606 813.762, 687.832 822.539, 683.039 822.973, 682.801 830.980, 676.810 833.091, 675.230 839.796, 667.811 842.213, 665.137 847.650, 656.923 852.549, 648.205 852.890, 647.598 855.654, 637.988 857.730, 630.769 858.436, 624.149 858.909, 614.161 859.258, 606.816 857.552, 596.963 856.307, 589.775 852.509, 580.525 852.337, 580.107 847.967, 571.174 842.336, 562.910 840.164, 559.722 833.114, 552.631 831.210, 550.717 823.238, 544.680 822.662, 544.244 814.062, 539.140 812.122, 537.988 802.498, 535.272 794.451, 533.001 784.464, 532.486 776.184, 532.058 766.336, 533.795 758.422, 535.191 749.291, 539.268 747.690, 539.983 739.089, 545.085 738.757, 545.283 730.961, 551.546 729.124, 553.022 722.577, 560.580 720.448, 563.037 717.088, 568.380 711.873, 576.713 707.133, 585.518 706.958, 585.844 704.380, 595.505 702.536, 602.417 702.100, 612.408 701.783, 619.691 703.577, 629.529 704.874, 636.644 708.656, 645.902 708.879, 646.448 713.203, 655.238 " />
            <path fill="none" stroke-width="3.0" stroke-linecap="butt" stroke-opacity="1.0" stroke="rgb(0, 0, 0)" stroke-linejoin="round" d=" M 825.945, 627.825 822.837, 637.330 821.038, 642.832 815.071, 650.856 812.391, 654.461 805.329, 661.541 803.569, 663.305 794.019, 666.271 793.520, 666.426 785.900, 668.769 775.935, 667.933 767.646, 667.238 760.317, 663.845 751.338, 659.443 750.339, 658.953 744.336, 650.954 743.053, 649.245 738.070, 640.575 735.761, 636.559 733.751, 626.763 732.603, 621.166 733.102, 611.179 733.396, 605.305 736.302, 595.736 737.942, 590.338 740.018, 587.506 745.931, 579.441 746.436, 578.752 753.261, 571.443 754.686, 569.916 764.162, 566.722 765.199, 566.373 772.811, 564.018 782.792, 564.622 791.005, 565.119 798.316, 568.464 807.332, 572.790 808.663, 573.428 814.691, 581.408 816.080, 583.247 821.141, 591.872 823.594, 596.053 825.617, 605.846 826.833, 611.732 826.282, 621.717 826.112, 624.788 825.945, 627.825 " />
            <path fill="none" stroke-width="3.0" stroke-linecap="butt" stroke-opacity="1.0" stroke="rgb(0, 0, 0)" stroke-linejoin="round" d=" M 857.730, 630.769 858.204, 620.780 858.567, 613.109 856.860, 603.256 855.558, 595.741 851.758, 586.491 851.509, 585.886 847.114, 576.904 847.053, 576.779 841.422, 568.515 839.096, 565.102 832.047, 558.010 829.967, 555.917 821.996, 549.878 821.251, 549.314 812.653, 544.207 810.505, 542.930 800.882, 540.209 792.491, 537.835 782.505, 537.312 773.873, 536.861 764.023, 538.590 755.771, 540.039 746.638, 544.111 744.836, 544.914 736.233, 550.012 735.735, 550.307 727.937, 556.567 725.924, 558.184 719.375, 565.741 717.088, 568.380 " />
            <path fill="none" stroke-width="3.0" stroke-linecap="butt" stroke-opacity="1.0" stroke="rgb(0, 0, 0)" stroke-linejoin="round" d=" M 515.718, 631.573 522.636, 632.092 532.608, 632.840 534.564, 632.986 544.525, 633.860 550.637, 634.397 560.630, 634.014 567.793, 633.739 576.593, 628.988 576.692, 628.935 584.901, 623.224 586.049, 622.426 591.863, 616.090 597.693, 607.965 598.015, 607.516 602.954, 599.571 605.194, 589.825 606.778, 582.932 605.766, 572.984 605.008, 565.528 600.793, 556.460 600.442, 555.705 595.243, 547.162 594.897, 546.595 587.909, 539.441 586.528, 538.028 578.476, 532.099 577.001, 531.014 567.257, 528.769 559.762, 527.042 549.771, 526.627 543.488, 526.366 533.505, 525.778 527.847, 525.445 517.864, 524.857 512.279, 524.528 502.296, 523.940 495.790, 523.557 488.165, 528.093 488.010, 538.091 487.854, 548.090 487.841, 548.920 487.685, 558.919 487.593, 564.873 487.437, 574.872 487.345, 580.768 487.190, 590.767 487.099, 596.604 486.943, 606.602 486.853, 612.381 486.698, 622.380 486.609, 628.100 486.453, 638.099 486.365, 643.762 486.209, 653.760 486.122, 659.366 485.966, 669.364 485.811, 679.363 485.807, 679.566 495.773, 680.390 502.292, 680.929 512.258, 681.753 514.761, 681.960 521.686, 674.745 521.794, 674.633 521.992, 664.635 522.189, 654.708 522.387, 644.710 522.493, 639.319 522.636, 632.092 " />
            <path fill="none" stroke-width="3.0" stroke-linecap="butt" stroke-opacity="1.0" stroke="rgb(0, 0, 0)" stroke-linejoin="round" d=" M 514.761, 681.960 514.951, 671.961 515.141, 661.963 515.147, 661.676 515.336, 651.677 515.444, 646.007 515.634, 636.009 515.718, 631.573 " />
            <path fill="none" stroke-width="3.0" stroke-linecap="butt" stroke-opacity="1.0" stroke="rgb(0, 0, 0)" stroke-linejoin="round" d=" M 566.860, 599.657 561.361, 602.507 551.389, 601.763 541.848, 601.050 531.872, 600.356 523.277, 599.757 523.475, 589.759 523.673, 579.761 523.723, 577.198 523.921, 567.200 524.034, 561.526 524.131, 556.619 " />
            <path fill="none" stroke-width="3.0" stroke-linecap="butt" stroke-opacity="1.0" stroke="rgb(0, 0, 0)" stroke-linejoin="round" d=" M 516.209, 605.724 516.399, 595.726 516.589, 585.728 516.645, 582.750 516.835, 572.751 516.948, 566.788 517.138, 556.790 517.150, 556.158 524.131, 556.619 534.109, 557.277 536.242, 557.417 546.232, 557.849 554.864, 558.222 563.240, 563.685 568.396, 567.048 569.762, 576.954 571.057, 586.345 568.050, 595.883 566.860, 599.657 565.823, 602.949 " />
            <path fill="none" stroke-width="3.0" stroke-linecap="butt" stroke-opacity="1.0" stroke="rgb(0, 0, 0)" stroke-linejoin="round" d=" M 586.049, 622.426 591.876, 614.299 592.307, 613.699 597.331, 605.611 599.566, 595.863 601.215, 588.666 600.198, 578.718 599.402, 570.934 595.184, 561.867 594.745, 560.923 589.545, 552.381 589.092, 551.637 582.106, 544.482 580.563, 542.903 572.513, 536.970 570.856, 535.749 561.113, 533.497 553.298, 531.690 543.307, 531.267 536.726, 530.988 526.744, 530.393 520.801, 530.039 510.818, 529.443 504.951, 529.094 494.969, 528.498 488.165, 528.093 " />
            <path fill="none" stroke-width="3.0" stroke-linecap="butt" stroke-opacity="1.0" stroke="rgb(0, 0, 0)" stroke-linejoin="round" d=" M 565.823, 602.949 556.942, 607.546 554.981, 608.561 545.010, 607.807 535.115, 607.059 525.139, 606.354 516.209, 605.724 523.277, 599.757 " />
            <path fill="none" stroke-width="3.0" stroke-linecap="butt" stroke-opacity="1.0" stroke="rgb(0, 0, 0)" stroke-linejoin="round" d=" M 379.682, 569.069 378.802, 567.649 373.531, 559.151 371.740, 556.263 366.884, 548.434 361.613, 539.936 358.878, 535.527 353.923, 527.536 348.652, 519.038 347.012, 516.394 337.030, 515.804 327.047, 515.214 317.065, 514.623 316.687, 514.601 307.386, 518.274 305.825, 518.891 311.162, 527.348 316.499, 535.804 320.545, 542.215 325.882, 550.672 330.935, 558.677 336.271, 567.134 341.608, 575.591 343.157, 578.045 348.494, 586.502 351.470, 591.218 356.208, 598.727 350.524, 606.953 344.839, 615.180 344.077, 616.282 339.038, 623.575 333.353, 631.802 332.039, 633.704 326.806, 641.276 322.247, 647.874 316.562, 656.101 310.878, 664.328 308.254, 668.124 318.220, 668.953 328.185, 669.782 338.151, 670.611 338.583, 670.647 346.810, 664.960 348.716, 663.642 354.369, 655.393 360.095, 647.037 365.747, 638.788 367.662, 635.994 372.384, 629.102 375.331, 624.801 " />
            <path fill="none" stroke-width="3.0" stroke-linecap="butt" stroke-opacity="1.0" stroke="rgb(0, 0, 0)" stroke-linejoin="round" d=" M 360.095, 647.037 354.788, 654.781 349.136, 663.030 348.716, 663.642 " />
            <path fill="none" stroke-width="3.0" stroke-linecap="butt" stroke-opacity="1.0" stroke="rgb(0, 0, 0)" stroke-linejoin="round" d=" M 338.583, 670.647 344.229, 662.393 344.749, 661.633 350.135, 653.759 355.780, 645.505 357.817, 642.527 362.612, 635.517 368.257, 627.263 369.850, 624.934 372.784, 620.645 375.331, 624.801 380.556, 633.328 382.712, 636.846 387.494, 644.650 392.719, 653.176 395.255, 657.315 400.480, 665.841 400.600, 666.037 405.825, 674.563 406.907, 676.329 416.873, 677.157 426.839, 677.986 436.804, 678.815 437.972, 678.912 445.554, 672.392 446.419, 671.649 441.104, 663.178 435.788, 654.708 432.283, 649.121 427.704, 641.825 422.465, 633.476 417.149, 625.005 415.483, 622.350 410.475, 614.369 405.160, 605.899 399.845, 597.428 398.484, 595.260 403.236, 588.510 408.990, 580.331 411.603, 576.618 417.358, 568.440 423.113, 560.263 423.985, 559.025 429.362, 551.383 434.581, 543.967 440.336, 535.789 446.091, 527.611 449.713, 522.466 439.730, 521.875 429.748, 521.285 419.765, 520.695 418.623, 520.628 409.651, 525.044 409.532, 525.102 403.915, 533.375 402.228, 535.860 397.149, 543.342 391.532, 551.615 388.788, 555.656 383.781, 563.032 379.682, 569.069 374.065, 577.342 372.876, 579.094 " />
            <path fill="none" stroke-width="3.0" stroke-linecap="butt" stroke-opacity="1.0" stroke="rgb(0, 0, 0)" stroke-linejoin="round" d=" M 372.876, 579.094 369.069, 572.958 363.797, 564.460 361.872, 561.358 356.923, 553.381 351.651, 544.884 348.764, 540.231 343.714, 532.090 338.442, 523.593 336.671, 520.738 " />
            <path fill="none" stroke-width="3.0" stroke-linecap="butt" stroke-opacity="1.0" stroke="rgb(0, 0, 0)" stroke-linejoin="round" d=" M 347.012, 516.394 337.793, 520.267 336.671, 520.738 326.689, 520.140 316.707, 519.543 306.724, 518.945 305.825, 518.891 " />
            <path fill="none" stroke-width="3.0" stroke-linecap="butt" stroke-opacity="1.0" stroke="rgb(0, 0, 0)" stroke-linejoin="round" d=" M 437.972, 678.912 432.655, 670.442 427.339, 661.972 423.566, 655.962 418.903, 648.527 413.561, 640.023 408.246, 631.552 406.449, 628.687 401.343, 620.557 396.026, 612.088 390.710, 603.618 389.123, 601.090 " />
            <path fill="none" stroke-width="3.0" stroke-linecap="butt" stroke-opacity="1.0" stroke="rgb(0, 0, 0)" stroke-linejoin="round" d=" M 423.985, 559.025 418.229, 567.202 416.700, 569.374 411.603, 576.618 " />
            <path fill="none" stroke-width="3.0" stroke-linecap="butt" stroke-opacity="1.0" stroke="rgb(0, 0, 0)" stroke-linejoin="round" d=" M 398.484, 595.260 389.996, 600.546 389.123, 601.090 393.949, 594.221 399.697, 586.038 402.449, 582.120 407.630, 574.746 413.379, 566.563 415.029, 564.214 420.493, 556.436 425.797, 548.887 431.545, 540.704 437.294, 532.522 441.175, 526.997 " />
            <path fill="none" stroke-width="3.0" stroke-linecap="butt" stroke-opacity="1.0" stroke="rgb(0, 0, 0)" stroke-linejoin="round" d=" M 449.713, 522.466 441.175, 526.997 431.193, 526.399 421.211, 525.801 411.229, 525.203 409.532, 525.102 " />
        </g>
    </g>
</svg>
