<?xml version='1.0' encoding='ascii'?>
<svg xmlns="http://www.w3.org/2000/svg" version="1.1" width="1080" height="1080">
    <g id="ViewLayer_LineSet" xmlns:inkscape="http://www.inkscape.org/namespaces/inkscape" inkscape:groupmode="lineset" inkscape:label="ViewLayer_LineSet">
        <g xmlns:inkscape="http://www.inkscape.org/namespaces/inkscape" inkscape:groupmode="layer" id="strokes" inkscape:label="strokes">
            <path fill="none" stroke-width="3.0" stroke-linecap="butt" stroke-opacity="1.0" stroke="rgb(0, 0, 0)" stroke-linejoin="round" d=" M 736.563, 637.487 730.699, 645.588 729.902, 646.688 722.925, 653.852 721.436, 655.382 711.903, 658.403 711.729, 658.458 704.368, 660.768 694.402, 659.934 686.669, 659.286 679.539, 655.964 670.571, 651.538 669.828, 651.171 663.828, 643.171 662.684, 641.647 657.690, 632.983 655.508, 629.198 653.440, 619.414 652.314, 614.087 652.718, 604.096 652.944, 598.513 655.737, 588.911 657.218, 583.815 663.030, 575.677 663.126, 575.542 " />
            <path fill="none" stroke-width="3.0" stroke-linecap="butt" stroke-opacity="1.0" stroke="rgb(0, 0, 0)" stroke-linejoin="round" d=" M 628.828, 654.471 634.452, 662.740 636.559, 665.837 643.661, 672.877 645.500, 674.700 653.358, 680.885 653.783, 681.220 662.412, 686.274 664.322, 687.393 673.871, 690.362 681.563, 692.754 691.534, 693.522 699.636, 694.145 709.535, 692.727 717.395, 691.600 726.635, 687.776 728.374, 687.056 737.112, 682.194 737.418, 682.024 745.364, 675.954 747.332, 674.451 753.948, 666.953 756.240, 664.356 761.529, 656.141 766.315, 647.361 766.613, 646.814 769.063, 639.904 771.710, 630.261 773.599, 623.379 773.976, 613.386 774.252, 606.044 772.479, 596.203 771.182, 589.002 767.353, 579.764 767.175, 579.334 762.779, 570.400 757.145, 562.138 754.971, 558.949 747.933, 551.845 746.049, 549.943 738.094, 543.884 737.551, 543.471 728.968, 538.339 727.089, 537.216 717.472, 534.475 709.599, 532.231 699.613, 531.710 691.558, 531.290 681.715, 533.052 674.053, 534.425 664.948, 538.561 663.502, 539.218 654.945, 544.391 654.733, 544.519 647.001, 550.861 645.295, 552.260 640.471, 557.407 634.014, 565.043 631.846, 567.606 626.779, 575.940 622.153, 584.806 622.014, 585.072 619.553, 594.764 617.805, 601.647 617.468, 611.642 617.223, 618.923 619.084, 628.748 620.433, 635.877 624.247, 645.122 624.477, 645.681 628.828, 654.471 " />
            <path fill="none" stroke-width="3.0" stroke-linecap="butt" stroke-opacity="1.0" stroke="rgb(0, 0, 0)" stroke-linejoin="round" d=" M 735.133, 642.051 729.267, 650.150 726.708, 653.683 719.728, 660.843 718.085, 662.529 708.549, 665.539 708.196, 665.651 700.698, 667.995 690.734, 667.150 682.669, 666.466 675.404, 663.074 666.440, 658.641 665.511, 658.182 659.511, 650.182 658.230, 648.474 653.234, 639.811 650.914, 635.788 648.842, 626.005 647.653, 620.395 648.053, 610.402 648.287, 604.531 651.076, 594.928 652.633, 589.563 658.444, 581.425 660.908, 577.975 663.126, 575.542 668.967, 569.137 678.427, 565.895 679.309, 565.592 686.799, 563.237 696.780, 563.847 704.764, 564.335 712.011, 567.680 721.013, 572.036 722.269, 572.644 728.294, 580.625 729.682, 582.463 734.753, 591.081 737.217, 595.269 739.303, 605.049 740.561, 610.948 740.110, 620.938 739.835, 627.043 736.845, 636.586 736.563, 637.487 735.133, 642.051 " />
            <path fill="none" stroke-width="3.0" stroke-linecap="butt" stroke-opacity="1.0" stroke="rgb(0, 0, 0)" stroke-linejoin="round" d=" M 766.613, 646.814 769.259, 637.171 771.231, 629.983 771.605, 619.990 771.892, 612.321 770.117, 602.480 768.759, 594.953 764.928, 585.716 764.671, 585.097 760.254, 576.125 760.188, 575.990 754.554, 567.727 752.226, 564.313 745.189, 557.208 743.130, 555.129 735.177, 549.067 734.466, 548.525 725.885, 543.390 723.801, 542.143 714.186, 539.395 705.976, 537.049 695.990, 536.521 687.592, 536.077 677.747, 537.833 669.758, 539.258 660.651, 543.390 659.012, 544.134 650.452, 549.304 650.081, 549.528 642.348, 555.869 640.471, 557.407 " />
            <path fill="none" stroke-width="3.0" stroke-linecap="butt" stroke-opacity="1.0" stroke="rgb(0, 0, 0)" stroke-linejoin="round" d=" M 506.045, 631.485 513.151, 632.019 523.123, 632.768 524.863, 632.899 534.824, 633.774 540.913, 634.309 550.906, 633.925 558.042, 633.651 566.922, 628.847 575.124, 623.127 576.256, 622.337 582.256, 616.003 588.073, 607.870 588.389, 607.429 593.311, 599.483 595.538, 589.734 597.112, 582.845 596.091, 572.897 595.326, 565.440 591.107, 556.374 590.756, 555.617 585.556, 547.075 585.210, 546.507 578.223, 539.353 576.844, 537.941 568.794, 532.009 567.324, 530.926 557.580, 528.679 550.107, 526.955 540.115, 526.539 533.856, 526.279 523.874, 525.690 518.238, 525.358 508.255, 524.769 502.693, 524.442 492.710, 523.853 486.227, 523.471 478.420, 528.005 478.276, 538.004 478.131, 548.003 478.119, 548.832 477.975, 558.831 477.889, 564.786 477.745, 574.785 477.660, 580.680 477.515, 590.679 477.431, 596.516 477.287, 606.515 477.203, 612.294 477.059, 622.293 476.976, 628.013 476.832, 638.012 476.750, 643.675 476.606, 653.674 476.525, 659.279 476.381, 669.278 476.236, 679.277 476.233, 679.480 486.199, 680.305 492.694, 680.842 502.660, 681.667 505.145, 681.873 512.160, 674.746 512.356, 674.548 512.543, 664.549 512.728, 654.623 512.915, 644.625 513.016, 639.233 513.151, 632.019 " />
            <path fill="none" stroke-width="3.0" stroke-linecap="butt" stroke-opacity="1.0" stroke="rgb(0, 0, 0)" stroke-linejoin="round" d=" M 505.145, 681.873 505.324, 671.874 505.502, 661.876 505.507, 661.588 505.686, 651.590 505.787, 645.920 505.966, 635.921 506.045, 631.485 " />
            <path fill="none" stroke-width="3.0" stroke-linecap="butt" stroke-opacity="1.0" stroke="rgb(0, 0, 0)" stroke-linejoin="round" d=" M 557.033, 599.695 551.785, 602.421 541.812, 601.675 532.300, 600.964 522.324, 600.269 513.755, 599.671 513.942, 589.673 514.129, 579.675 514.177, 577.111 514.364, 567.113 514.470, 561.439 514.561, 556.544 " />
            <path fill="none" stroke-width="3.0" stroke-linecap="butt" stroke-opacity="1.0" stroke="rgb(0, 0, 0)" stroke-linejoin="round" d=" M 506.506, 605.636 506.685, 595.638 506.863, 585.640 506.916, 582.662 507.095, 572.663 507.201, 566.700 507.380, 556.701 507.391, 556.070 514.561, 556.544 524.539, 557.202 526.455, 557.329 536.445, 557.761 545.049, 558.133 553.422, 563.599 558.570, 566.959 559.945, 576.864 561.248, 586.257 558.255, 595.798 557.033, 599.695 556.040, 602.860 " />
            <path fill="none" stroke-width="3.0" stroke-linecap="butt" stroke-opacity="1.0" stroke="rgb(0, 0, 0)" stroke-linejoin="round" d=" M 576.256, 622.337 582.072, 614.202 582.496, 613.610 587.503, 605.522 589.724, 595.772 591.362, 588.577 590.336, 578.630 589.532, 570.845 585.311, 561.779 584.871, 560.833 579.670, 552.292 579.217, 551.548 572.232, 544.392 570.691, 542.813 562.643, 536.878 560.991, 535.660 551.249, 533.405 543.456, 531.601 533.465, 531.178 526.909, 530.900 516.927, 530.304 511.007, 529.950 501.025, 529.354 495.181, 529.005 485.199, 528.409 478.420, 528.005 " />
            <path fill="none" stroke-width="3.0" stroke-linecap="butt" stroke-opacity="1.0" stroke="rgb(0, 0, 0)" stroke-linejoin="round" d=" M 556.040, 602.860 547.164, 607.466 545.222, 608.473 535.250, 607.718 525.384, 606.971 515.409, 606.266 506.506, 605.636 513.755, 599.671 " />
            <path fill="none" stroke-width="3.0" stroke-linecap="butt" stroke-opacity="1.0" stroke="rgb(0, 0, 0)" stroke-linejoin="round" d=" M 176.759, 557.455 171.469, 548.969 170.937, 548.114 166.057, 540.284 160.767, 531.797 158.011, 527.375 153.030, 519.383 147.741, 510.896 146.085, 508.240 136.103, 507.643 126.121, 507.047 116.706, 506.485 107.084, 509.208 102.084, 510.622 107.437, 519.069 112.791, 527.515 116.869, 533.949 122.223, 542.396 127.305, 550.413 132.658, 558.859 138.011, 567.306 139.582, 569.783 144.935, 578.230 147.932, 582.958 152.691, 590.467 147.282, 598.878 141.873, 607.289 141.381, 608.055 136.682, 615.363 131.273, 623.774 130.156, 625.511 125.278, 633.098 121.027, 639.708 115.619, 648.119 110.210, 656.530 107.981, 659.996 117.945, 660.839 127.910, 661.681 137.362, 662.480 146.318, 658.032 151.163, 655.625 156.545, 647.196 161.785, 638.989 167.166, 630.560 168.848, 627.925 173.256, 621.021 173.918, 619.983 " />
            <path fill="none" stroke-width="3.0" stroke-linecap="butt" stroke-opacity="1.0" stroke="rgb(0, 0, 0)" stroke-linejoin="round" d=" M 161.785, 638.989 156.829, 646.747 151.449, 655.176 151.163, 655.625 " />
            <path fill="none" stroke-width="3.0" stroke-linecap="butt" stroke-opacity="1.0" stroke="rgb(0, 0, 0)" stroke-linejoin="round" d=" M 137.362, 662.480 142.730, 654.043 143.108, 653.450 148.128, 645.560 153.496, 637.123 155.287, 634.307 159.756, 627.284 165.124, 618.847 166.502, 616.681 169.236, 612.384 173.918, 619.983 179.164, 628.497 179.220, 628.588 184.028, 636.392 189.274, 644.906 191.833, 649.059 197.079, 657.573 197.208, 657.782 202.453, 666.296 203.550, 668.075 213.514, 668.918 223.479, 669.760 233.643, 670.619 242.288, 665.593 245.872, 663.510 240.540, 655.050 235.207, 646.590 231.671, 640.980 227.072, 633.682 221.808, 625.333 216.476, 616.873 214.795, 614.205 209.764, 606.223 204.432, 597.763 199.100, 589.304 197.719, 587.112 202.158, 580.349 207.644, 571.988 209.976, 568.435 215.463, 560.075 220.950, 551.715 221.545, 550.809 226.569, 543.153 231.446, 535.723 236.933, 527.363 242.420, 519.003 245.584, 514.181 235.602, 513.585 225.620, 512.989 215.463, 512.383 205.975, 515.540 202.491, 516.699 197.152, 525.155 195.686, 527.477 190.953, 534.974 185.614, 543.429 183.163, 547.311 178.498, 554.701 176.759, 557.455 171.420, 565.911 168.337, 570.793 " />
            <path fill="none" stroke-width="3.0" stroke-linecap="butt" stroke-opacity="1.0" stroke="rgb(0, 0, 0)" stroke-linejoin="round" d=" M 168.337, 570.793 164.511, 564.656 159.220, 556.170 157.277, 553.054 152.303, 545.077 147.012, 536.591 144.103, 531.925 139.027, 523.783 133.736, 515.297 131.948, 512.430 " />
            <path fill="none" stroke-width="3.0" stroke-linecap="butt" stroke-opacity="1.0" stroke="rgb(0, 0, 0)" stroke-linejoin="round" d=" M 146.085, 508.240 136.498, 511.081 131.948, 512.430 121.966, 511.826 111.985, 511.221 102.084, 510.622 " />
            <path fill="none" stroke-width="3.0" stroke-linecap="butt" stroke-opacity="1.0" stroke="rgb(0, 0, 0)" stroke-linejoin="round" d=" M 233.643, 670.619 228.310, 662.161 222.976, 653.702 219.171, 647.667 214.486, 640.231 209.119, 631.726 203.788, 623.266 201.975, 620.388 196.844, 612.258 191.510, 603.799 186.177, 595.340 184.567, 592.788 " />
            <path fill="none" stroke-width="3.0" stroke-linecap="butt" stroke-opacity="1.0" stroke="rgb(0, 0, 0)" stroke-linejoin="round" d=" M 221.545, 550.809 216.057, 559.168 214.738, 561.178 209.976, 568.435 " />
            <path fill="none" stroke-width="3.0" stroke-linecap="butt" stroke-opacity="1.0" stroke="rgb(0, 0, 0)" stroke-linejoin="round" d=" M 197.719, 587.112 188.537, 591.075 184.567, 592.788 189.070, 585.906 194.544, 577.537 197.000, 573.782 201.833, 566.394 207.307, 558.025 208.736, 555.841 213.833, 548.049 218.781, 540.485 224.255, 532.117 229.729, 523.748 233.127, 518.553 " />
            <path fill="none" stroke-width="3.0" stroke-linecap="butt" stroke-opacity="1.0" stroke="rgb(0, 0, 0)" stroke-linejoin="round" d=" M 245.584, 514.181 236.148, 517.493 233.127, 518.553 223.146, 517.949 213.164, 517.345 203.182, 516.741 202.491, 516.699 " />
        </g>
    </g>
</svg>
