<?xml version='1.0' encoding='ascii'?>
<svg xmlns="http://www.w3.org/2000/svg" version="1.1" width="1080" height="1080">
    <g id="ViewLayer_LineSet" xmlns:inkscape="http://www.inkscape.org/namespaces/inkscape" inkscape:groupmode="lineset" inkscape:label="ViewLayer_LineSet">
        <g xmlns:inkscape="http://www.inkscape.org/namespaces/inkscape" inkscape:groupmode="layer" id="strokes" inkscape:label="strokes">
            <path fill="none" stroke-width="3.0" stroke-linecap="butt" stroke-opacity="1.0" stroke="rgb(0, 0, 0)" stroke-linejoin="round" d=" M 692.846, 648.635 693.244, 638.643 693.444, 633.617 693.842, 623.625 694.045, 618.546 694.443, 608.554 694.648, 603.421 695.046, 593.429 695.253, 588.243 695.651, 578.251 695.860, 573.011 696.258, 563.019 696.469, 557.724 696.867, 547.732 697.080, 542.383 697.478, 532.391 697.878, 522.358 687.894, 521.789 677.911, 521.221 668.904, 520.708 664.701, 525.074 664.341, 535.068 663.981, 545.061 663.970, 545.379 663.610, 555.372 663.409, 560.933 663.049, 570.927 662.851, 576.431 662.491, 586.424 662.295, 591.873 661.935, 601.867 661.741, 607.260 661.381, 617.253 661.188, 622.591 660.828, 632.585 660.638, 637.868 660.278, 647.861 660.090, 653.090 659.730, 663.083 659.380, 672.798 669.349, 673.591 679.317, 674.384 688.348, 675.102 692.071, 668.080 692.469, 658.088 692.846, 648.635 " />
            <path fill="none" stroke-width="3.0" stroke-linecap="butt" stroke-opacity="1.0" stroke="rgb(0, 0, 0)" stroke-linejoin="round" d=" M 688.348, 675.102 688.742, 665.110 689.129, 655.314 689.523, 645.322 689.731, 640.031 690.126, 630.039 690.336, 624.692 690.731, 614.700 690.944, 609.298 691.338, 599.306 691.553, 593.849 691.947, 583.857 692.165, 578.343 692.559, 568.351 692.779, 562.781 693.173, 552.789 693.395, 547.163 693.789, 537.171 694.183, 527.179 694.199, 526.774 " />
            <path fill="none" stroke-width="3.0" stroke-linecap="butt" stroke-opacity="1.0" stroke="rgb(0, 0, 0)" stroke-linejoin="round" d=" M 697.878, 522.358 694.199, 526.774 684.216, 526.199 674.232, 525.624 664.701, 525.074 " />
            <path fill="none" stroke-width="3.0" stroke-linecap="butt" stroke-opacity="1.0" stroke="rgb(0, 0, 0)" stroke-linejoin="round" d=" M 559.276, 593.872 557.138, 589.396 554.829, 584.560 553.058, 580.852 549.732, 573.886 547.504, 569.222 545.710, 565.465 542.317, 558.359 540.171, 553.866 538.353, 550.059 534.893, 542.814 532.830, 538.493 530.988, 534.636 527.461, 527.250 525.480, 523.102 523.614, 519.194 520.277, 512.207 513.834, 511.840 506.384, 511.416 498.952, 510.992 490.795, 510.528 488.170, 511.985 486.154, 513.104 483.469, 514.595 483.353, 522.343 483.238, 530.030 483.122, 537.703 483.008, 545.362 482.893, 553.007 482.778, 560.639 482.664, 568.257 482.550, 575.862 482.436, 583.454 482.323, 591.032 482.209, 598.596 482.096, 606.147 481.983, 613.685 481.870, 621.210 481.757, 628.721 481.645, 636.220 481.533, 643.705 481.421, 651.176 481.308, 658.682 489.463, 659.331 496.893, 659.922 504.341, 660.514 508.782, 660.868 511.271, 658.452 513.139, 656.638 515.572, 654.275 515.713, 646.867 515.853, 639.492 515.994, 632.105 516.134, 624.705 516.276, 617.292 516.417, 609.866 516.558, 602.427 516.700, 594.975 516.842, 587.511 516.984, 580.033 516.987, 579.889 " />
            <path fill="none" stroke-width="3.0" stroke-linecap="butt" stroke-opacity="1.0" stroke="rgb(0, 0, 0)" stroke-linejoin="round" d=" M 510.424, 570.848 510.242, 580.847 510.160, 585.341 510.021, 592.950 509.883, 600.544 509.744, 608.126 509.606, 615.693 509.468, 623.248 509.331, 630.789 509.194, 638.317 509.057, 645.831 508.920, 653.332 508.782, 660.868 " />
            <path fill="none" stroke-width="3.0" stroke-linecap="butt" stroke-opacity="1.0" stroke="rgb(0, 0, 0)" stroke-linejoin="round" d=" M 512.612, 570.835 516.987, 579.889 517.155, 580.237 520.420, 586.995 524.667, 595.783 528.008, 602.696 532.170, 611.311 535.586, 618.379 537.818, 622.998 539.665, 626.821 543.156, 634.044 545.910, 639.746 549.934, 640.051 557.522, 640.627 561.559, 640.934 563.730, 638.622 565.359, 636.886 567.481, 634.626 570.462, 629.433 574.247, 622.842 576.253, 619.347 578.680, 615.120 582.400, 608.640 584.388, 605.178 586.945, 600.724 590.601, 594.356 592.572, 590.924 595.260, 586.242 598.850, 579.988 600.687, 576.788 " />
            <path fill="none" stroke-width="3.0" stroke-linecap="butt" stroke-opacity="1.0" stroke="rgb(0, 0, 0)" stroke-linejoin="round" d=" M 513.456, 516.323 516.855, 523.437 518.756, 527.415 520.775, 531.638 524.367, 539.157 526.244, 543.084 528.346, 547.483 531.870, 554.858 533.724, 558.733 535.909, 563.309 539.365, 570.542 541.193, 574.367 543.462, 579.115 546.850, 586.206 548.654, 589.981 551.007, 594.903 554.517, 602.250 554.805, 601.744 558.423, 595.375 559.276, 593.872 561.066, 590.721 563.060, 587.211 566.787, 580.649 569.328, 576.176 571.363, 572.592 575.202, 565.834 577.638, 561.544 579.717, 557.885 583.667, 550.931 585.998, 546.826 588.120, 543.091 592.183, 535.937 594.408, 532.020 596.573, 528.209 600.476, 521.337 602.431, 519.775 603.898, 518.603 605.808, 517.077 612.226, 517.442 619.916, 517.880 627.624, 518.319 636.123, 518.803 635.869, 526.577 635.617, 534.289 635.365, 541.987 635.114, 549.672 634.863, 557.343 634.613, 565.000 634.363, 572.643 634.114, 580.273 633.865, 587.890 633.616, 595.492 633.368, 603.082 633.121, 610.658 632.873, 618.220 632.627, 625.769 632.380, 633.305 632.135, 640.828 631.889, 648.337 631.644, 655.833 631.398, 663.363 629.679, 665.826 628.359, 667.718 626.600, 670.239 618.103, 669.563 610.397, 668.950 602.709, 668.339 598.139, 667.975 598.359, 660.344 598.578, 652.747 598.797, 645.137 599.016, 637.513 599.236, 629.876 599.456, 622.225 599.677, 614.560 599.898, 606.881 600.119, 599.189 600.341, 591.482 600.629, 581.486 600.764, 576.781 600.768, 576.647 600.891, 572.367 " />
            <path fill="none" stroke-width="3.0" stroke-linecap="butt" stroke-opacity="1.0" stroke="rgb(0, 0, 0)" stroke-linejoin="round" d=" M 520.277, 512.207 517.833, 513.681 515.956, 514.814 513.456, 516.323 506.902, 515.945 499.325, 515.509 491.765, 515.073 483.469, 514.595 " />
            <path fill="none" stroke-width="3.0" stroke-linecap="butt" stroke-opacity="1.0" stroke="rgb(0, 0, 0)" stroke-linejoin="round" d=" M 505.813, 577.419 510.425, 570.848 510.426, 570.848 512.612, 570.835 517.160, 570.807 520.837, 570.784 521.057, 570.783 " />
            <path fill="none" stroke-width="3.0" stroke-linecap="butt" stroke-opacity="1.0" stroke="rgb(0, 0, 0)" stroke-linejoin="round" d=" M 593.435, 585.366 589.786, 591.728 587.054, 596.489 585.052, 599.980 581.336, 606.457 578.739, 610.986 576.718, 614.508 572.937, 621.098 570.471, 625.397 568.433, 628.950 564.588, 635.653 561.559, 640.934 " />
            <path fill="none" stroke-width="3.0" stroke-linecap="butt" stroke-opacity="1.0" stroke="rgb(0, 0, 0)" stroke-linejoin="round" d=" M 631.330, 523.115 631.075, 531.029 630.823, 538.880 630.571, 546.717 630.319, 554.539 630.068, 562.347 629.818, 570.141 629.568, 577.921 629.318, 585.687 629.069, 593.438 628.820, 601.176 628.572, 608.900 628.324, 616.609 628.077, 624.305 627.830, 631.987 627.583, 639.655 627.337, 647.310 627.092, 654.950 626.846, 662.577 626.600, 670.239 " />
            <path fill="none" stroke-width="3.0" stroke-linecap="butt" stroke-opacity="1.0" stroke="rgb(0, 0, 0)" stroke-linejoin="round" d=" M 636.123, 518.803 634.406, 520.348 633.087, 521.534 631.330, 523.115 622.679, 522.617 614.835, 522.165 607.008, 521.714 600.476, 521.337 " />
            <path fill="none" stroke-width="3.0" stroke-linecap="butt" stroke-opacity="1.0" stroke="rgb(0, 0, 0)" stroke-linejoin="round" d=" M 605.407, 576.332 602.443, 573.729 600.891, 572.367 598.219, 577.027 593.435, 585.366 598.212, 577.027 " />
            <path fill="none" stroke-width="3.0" stroke-linecap="butt" stroke-opacity="1.0" stroke="rgb(0, 0, 0)" stroke-linejoin="round" d=" M 600.891, 572.367 598.212, 577.027 " />
            <path fill="none" stroke-width="3.0" stroke-linecap="butt" stroke-opacity="1.0" stroke="rgb(0, 0, 0)" stroke-linejoin="round" d=" M 413.191, 589.296 408.845, 583.255 404.032, 576.567 398.369, 568.697 392.529, 560.580 391.626, 559.325 386.061, 551.589 380.220, 543.472 379.221, 542.084 373.752, 534.482 367.911, 526.364 366.817, 524.842 361.443, 517.374 355.602, 509.257 351.786, 503.954 341.802, 503.384 340.165, 503.290 330.979, 502.765 321.644, 506.350 321.019, 506.589 321.057, 516.589 321.093, 525.890 321.131, 535.890 321.149, 540.678 321.187, 550.678 321.205, 555.415 321.243, 565.415 321.261, 570.102 321.299, 580.102 321.317, 584.739 321.355, 594.739 321.372, 599.327 321.410, 609.327 321.427, 613.864 321.465, 623.864 321.482, 628.352 321.520, 638.352 321.554, 647.115 330.736, 647.847 340.705, 648.641 347.671, 649.197 356.004, 643.668 357.054, 642.971 357.057, 632.971 357.060, 624.448 357.064, 614.448 357.066, 610.144 357.069, 600.144 357.071, 595.793 357.075, 585.793 357.076, 581.393 357.080, 572.145 " />
            <path fill="none" stroke-width="3.0" stroke-linecap="butt" stroke-opacity="1.0" stroke="rgb(0, 0, 0)" stroke-linejoin="round" d=" M 347.671, 649.197 347.664, 639.197 347.657, 630.363 347.650, 620.363 347.646, 615.819 347.639, 605.819 347.636, 601.225 347.628, 591.225 347.625, 586.581 347.618, 576.581 347.610, 566.581 347.605, 559.127 353.490, 567.212 357.080, 572.145 357.581, 572.833 363.467, 580.918 364.383, 582.176 370.134, 590.077 376.019, 598.162 377.024, 599.544 382.687, 607.323 388.572, 615.409 389.667, 616.913 395.243, 624.571 401.128, 632.656 403.705, 636.197 408.383, 642.623 414.268, 650.707 417.203, 654.739 427.171, 655.534 430.111, 655.768 439.606, 656.525 447.363, 650.214 447.520, 650.085 447.630, 640.086 447.727, 631.317 447.837, 621.318 447.887, 616.824 447.997, 606.825 448.047, 602.282 448.157, 592.283 448.207, 587.690 448.317, 577.691 448.369, 573.048 448.479, 563.049 448.530, 558.356 448.640, 548.357 448.693, 543.614 448.803, 533.614 448.855, 528.821 448.966, 518.821 449.066, 509.716 439.568, 509.172 429.584, 508.602 422.193, 508.179 413.725, 512.155 413.656, 522.155 413.591, 531.517 413.521, 541.517 413.487, 546.508 413.418, 556.508 413.384, 561.447 413.314, 571.447 413.280, 576.334 413.211, 586.334 413.191, 589.296 413.178, 591.170 413.109, 601.170 413.073, 606.368 " />
            <path fill="none" stroke-width="3.0" stroke-linecap="butt" stroke-opacity="1.0" stroke="rgb(0, 0, 0)" stroke-linejoin="round" d=" M 413.073, 606.368 408.504, 600.017 402.664, 591.900 400.232, 588.519 395.334, 581.713 389.571, 573.703 383.731, 565.586 382.709, 564.165 377.045, 556.291 371.204, 548.174 370.083, 546.618 364.517, 538.881 358.679, 530.762 357.462, 529.070 351.990, 521.470 346.149, 513.353 342.162, 507.812 " />
            <path fill="none" stroke-width="3.0" stroke-linecap="butt" stroke-opacity="1.0" stroke="rgb(0, 0, 0)" stroke-linejoin="round" d=" M 351.786, 503.954 342.504, 507.675 342.162, 507.812 332.179, 507.235 330.353, 507.129 321.019, 506.589 " />
            <path fill="none" stroke-width="3.0" stroke-linecap="butt" stroke-opacity="1.0" stroke="rgb(0, 0, 0)" stroke-linejoin="round" d=" M 439.606, 656.525 439.707, 646.526 439.799, 637.439 439.899, 627.439 439.947, 622.699 440.048, 612.699 440.096, 607.907 440.197, 597.908 440.246, 593.065 440.347, 583.065 440.396, 578.171 440.497, 568.171 440.547, 563.225 440.648, 553.225 440.698, 548.226 440.799, 538.227 440.850, 533.176 440.951, 523.176 441.046, 513.736 " />
            <path fill="none" stroke-width="3.0" stroke-linecap="butt" stroke-opacity="1.0" stroke="rgb(0, 0, 0)" stroke-linejoin="round" d=" M 449.066, 509.716 441.046, 513.736 431.390, 513.177 421.406, 512.600 413.725, 512.155 " />
            <path fill="none" stroke-width="3.0" stroke-linecap="butt" stroke-opacity="1.0" stroke="rgb(0, 0, 0)" stroke-linejoin="round" d=" M 598.219, 577.027 600.687, 576.788 600.764, 576.781 " />
        </g>
    </g>
</svg>
