<?xml version='1.0' encoding='ascii'?>
<svg xmlns="http://www.w3.org/2000/svg" version="1.1" width="1080" height="1080">
    <g id="ViewLayer_LineSet" xmlns:inkscape="http://www.inkscape.org/namespaces/inkscape" inkscape:groupmode="lineset" inkscape:label="ViewLayer_LineSet">
        <g xmlns:inkscape="http://www.inkscape.org/namespaces/inkscape" inkscape:groupmode="layer" id="strokes" inkscape:label="strokes">
            <path fill="none" stroke-width="3.0" stroke-linecap="butt" stroke-opacity="1.0" stroke="rgb(0, 0, 0)" stroke-linejoin="round" d=" M 1019.278, 594.555 1021.159, 604.377 1021.710, 607.254 1020.932, 617.223 1020.478, 623.047 1017.111, 632.464 1015.211, 637.778 1009.032, 645.641 1006.235, 649.199 999.004, 656.107 997.141, 657.887 987.564, 660.766 986.925, 660.958 979.178, 663.265 969.211, 662.459 960.768, 661.777 953.434, 658.452 944.421, 654.121 943.455, 653.657 937.447, 645.663 936.297, 644.133 931.341, 635.447 929.195, 631.685 927.329, 621.860 927.105, 620.679 " />
            <path fill="none" stroke-width="3.0" stroke-linecap="butt" stroke-opacity="1.0" stroke="rgb(0, 0, 0)" stroke-linejoin="round" d=" M 906.229, 656.992 911.845, 665.266 913.943, 668.357 921.089, 675.353 922.997, 677.221 930.911, 683.335 931.439, 683.742 940.121, 688.704 942.245, 689.918 951.820, 692.801 960.071, 695.285 970.044, 696.026 978.890, 696.683 988.798, 695.332 997.503, 694.146 1006.815, 690.502 1009.103, 689.607 1017.961, 684.966 1018.698, 684.580 1026.833, 678.764 1029.282, 677.013 1036.180, 669.773 1038.894, 666.924 1044.670, 658.714 1049.818, 650.140 1050.267, 649.392 1053.296, 639.861 1055.613, 632.567 1056.314, 622.592 1056.854, 614.911 1055.302, 605.032 1054.126, 597.546 1050.399, 588.267 1050.168, 587.691 1045.822, 578.685 1045.774, 578.585 1042.852, 572.945 1037.226, 564.677 1035.060, 561.494 1027.981, 554.431 1026.033, 552.487 1018.022, 546.501 1017.369, 546.013 1008.733, 540.972 1006.651, 539.756 997.011, 537.096 988.566, 534.765 978.579, 534.262 969.782, 533.818 959.924, 535.498 951.432, 536.945 942.244, 540.891 940.284, 541.733 931.593, 546.679 930.977, 547.029 923.044, 553.118 920.899, 554.764 914.156, 562.149 911.757, 564.776 906.314, 572.957 901.326, 581.625 901.155, 581.922 898.316, 591.510 896.338, 598.193 895.676, 608.171 895.213, 615.151 895.228, 621.449 896.870, 631.313 898.049, 638.400 901.758, 647.687 901.964, 648.203 906.229, 656.992 " />
            <path fill="none" stroke-width="3.0" stroke-linecap="butt" stroke-opacity="1.0" stroke="rgb(0, 0, 0)" stroke-linejoin="round" d=" M 1021.198, 597.849 1023.078, 607.671 1024.198, 613.526 1023.417, 623.495 1022.938, 629.616 1019.565, 639.029 1017.563, 644.617 1011.375, 652.473 1008.407, 656.243 1001.167, 663.141 999.131, 665.082 989.550, 667.949 988.713, 668.200 980.815, 670.540 970.848, 669.725 962.046, 669.004 954.570, 665.611 945.559, 661.275 944.398, 660.716 938.390, 652.722 937.102, 651.008 932.146, 642.323 929.864, 638.323 927.998, 628.498 926.941, 622.932 927.105, 620.679 927.833, 610.705 928.098, 607.074 931.269, 597.590 933.101, 592.112 939.236, 584.215 942.098, 580.530 949.111, 573.401 950.785, 571.698 960.297, 568.610 961.689, 568.158 969.579, 565.806 979.562, 566.396 988.295, 566.912 995.754, 570.259 1004.802, 574.517 1006.305, 575.224 1012.338, 583.199 1013.734, 585.044 1018.770, 593.683 1019.278, 594.555 1021.198, 597.849 " />
            <path fill="none" stroke-width="3.0" stroke-linecap="butt" stroke-opacity="1.0" stroke="rgb(0, 0, 0)" stroke-linejoin="round" d=" M 1045.774, 578.585 1040.148, 570.317 1037.829, 566.908 1030.750, 559.845 1028.623, 557.723 1020.613, 551.735 1019.787, 551.118 1011.152, 546.074 1008.856, 544.733 999.217, 542.068 990.412, 539.634 980.425, 539.123 971.256, 538.654 961.397, 540.326 952.544, 541.827 943.352, 545.766 941.176, 546.698 932.481, 551.636 931.687, 552.087 923.749, 558.169 921.412, 559.960 914.664, 567.340 912.092, 570.152 906.543, 578.482 901.552, 587.147 901.285, 587.609 898.444, 597.197 896.375, 604.179 895.712, 614.157 895.228, 621.449 " />
            <path fill="none" stroke-width="3.0" stroke-linecap="butt" stroke-opacity="1.0" stroke="rgb(0, 0, 0)" stroke-linejoin="round" d=" M 659.542, 632.871 663.673, 633.175 673.646, 633.909 678.798, 634.289 688.761, 635.146 695.218, 635.702 705.211, 635.330 712.779, 635.048 721.640, 630.414 721.961, 630.246 730.260, 624.667 731.639, 623.740 737.641, 615.741 738.186, 615.015 743.458, 606.930 746.315, 600.865 748.751, 591.166 750.493, 584.230 749.617, 574.268 748.964, 566.828 744.790, 557.740 744.453, 557.005 739.269, 548.453 738.930, 547.895 731.921, 540.763 730.511, 539.328 722.429, 533.439 720.883, 532.313 711.129, 530.106 703.319, 528.339 693.327, 527.930 686.690, 527.658 676.706, 527.081 670.711, 526.734 660.728, 526.157 654.808, 525.815 644.824, 525.238 637.963, 524.841 633.058, 529.401 632.734, 539.396 632.411, 549.390 632.384, 550.225 632.060, 560.220 631.867, 566.176 631.544, 576.171 631.353, 582.068 631.029, 592.063 630.841, 597.901 630.517, 607.896 630.330, 613.676 630.006, 623.671 629.821, 629.393 629.498, 639.388 629.314, 645.052 628.991, 655.047 628.809, 660.654 628.486, 670.649 628.162, 680.643 628.155, 680.851 638.123, 681.660 644.996, 682.217 654.964, 683.025 657.735, 683.250 662.120, 675.900 662.483, 665.906 662.844, 655.978 663.207, 645.985 663.403, 640.591 663.673, 633.175 " />
            <path fill="none" stroke-width="3.0" stroke-linecap="butt" stroke-opacity="1.0" stroke="rgb(0, 0, 0)" stroke-linejoin="round" d=" M 657.735, 683.250 658.094, 673.257 658.452, 663.263 658.463, 662.969 658.821, 652.976 659.025, 647.303 659.383, 637.310 659.542, 632.871 " />
            <path fill="none" stroke-width="3.0" stroke-linecap="butt" stroke-opacity="1.0" stroke="rgb(0, 0, 0)" stroke-linejoin="round" d=" M 713.007, 599.135 704.072, 603.625 703.738, 603.793 693.765, 603.062 683.810, 602.332 673.833, 601.650 664.841, 601.035 665.205, 591.042 665.568, 581.049 665.661, 578.479 666.025, 568.486 666.231, 562.809 666.416, 557.738 " />
            <path fill="none" stroke-width="3.0" stroke-linecap="butt" stroke-opacity="1.0" stroke="rgb(0, 0, 0)" stroke-linejoin="round" d=" M 660.470, 607.026 660.828, 597.033 661.187, 587.039 661.294, 584.055 661.652, 574.062 661.866, 568.096 662.224, 558.103 662.247, 557.468 666.416, 557.738 676.395, 558.384 681.757, 558.731 691.748, 559.155 700.793, 559.539 709.199, 564.956 714.492, 568.367 715.729, 578.290 716.897, 587.662 713.686, 597.133 713.007, 599.135 711.269, 604.262 " />
            <path fill="none" stroke-width="3.0" stroke-linecap="butt" stroke-opacity="1.0" stroke="rgb(0, 0, 0)" stroke-linejoin="round" d=" M 743.458, 606.930 745.892, 597.231 747.710, 589.988 746.831, 580.027 746.146, 572.259 741.971, 563.172 741.547, 562.248 736.362, 553.697 735.917, 552.962 728.909, 545.829 727.335, 544.228 719.255, 538.336 717.523, 537.073 707.771, 534.859 699.628, 533.011 689.636, 532.595 682.687, 532.306 672.704, 531.722 666.411, 531.353 656.428, 530.769 650.213, 530.405 640.230, 529.821 633.058, 529.401 " />
            <path fill="none" stroke-width="3.0" stroke-linecap="butt" stroke-opacity="1.0" stroke="rgb(0, 0, 0)" stroke-linejoin="round" d=" M 711.269, 604.262 702.331, 608.746 700.086, 609.871 690.114, 609.131 680.141, 608.391 679.788, 608.365 669.812, 607.674 660.470, 607.026 664.841, 601.035 " />
            <path fill="none" stroke-width="3.0" stroke-linecap="butt" stroke-opacity="1.0" stroke="rgb(0, 0, 0)" stroke-linejoin="round" d=" M 471.864, 571.559 470.074, 568.667 464.812, 560.163 463.027, 557.280 458.182, 549.450 452.919, 540.946 450.193, 536.541 445.248, 528.550 439.986, 520.046 438.353, 517.406 428.370, 516.823 418.387, 516.240 408.404, 515.656 407.595, 515.609 398.547, 519.868 398.441, 519.918 403.770, 528.379 409.099, 536.841 413.132, 543.245 418.462, 551.706 423.502, 559.708 428.831, 568.170 434.161, 576.631 435.701, 579.078 441.031, 587.540 443.999, 592.252 448.728, 599.762 442.925, 607.906 437.123, 616.050 436.222, 617.315 431.027, 624.607 425.225, 632.752 423.812, 634.735 418.418, 642.306 413.718, 648.903 407.916, 657.047 402.113, 665.192 399.293, 669.151 409.259, 669.970 419.226, 670.788 429.192, 671.607 430.057, 671.678 437.753, 665.293 438.523, 664.654 444.291, 656.486 450.059, 648.317 450.247, 648.051 456.015, 639.882 458.044, 637.009 462.909, 630.118 466.964, 624.375 " />
            <path fill="none" stroke-width="3.0" stroke-linecap="butt" stroke-opacity="1.0" stroke="rgb(0, 0, 0)" stroke-linejoin="round" d=" M 450.247, 648.051 444.779, 655.794 439.011, 663.963 438.523, 664.654 " />
            <path fill="none" stroke-width="3.0" stroke-linecap="butt" stroke-opacity="1.0" stroke="rgb(0, 0, 0)" stroke-linejoin="round" d=" M 430.057, 671.678 435.821, 663.506 436.414, 662.666 441.967, 654.792 447.730, 646.620 449.887, 643.562 454.831, 636.552 460.594, 628.380 462.294, 625.971 465.318, 621.683 466.964, 624.375 472.180, 632.908 475.223, 637.886 479.993, 645.690 485.209, 654.222 487.736, 658.356 492.951, 666.888 493.068, 667.079 498.283, 675.611 499.360, 677.372 509.326, 678.190 519.293, 679.009 529.259, 679.828 530.869, 679.960 537.598, 672.677 532.291, 664.201 526.983, 655.726 523.490, 650.147 518.920, 642.850 513.691, 634.500 508.383, 626.025 506.723, 623.373 501.725, 615.392 496.417, 606.916 491.110, 598.441 489.757, 596.281 494.651, 589.531 500.520, 581.434 503.269, 577.641 509.139, 569.545 515.008, 561.448 516.022, 560.050 521.560, 552.409 526.936, 544.994 532.805, 536.898 538.674, 528.801 542.521, 523.495 532.538, 522.911 522.555, 522.328 512.572, 521.745 510.986, 521.652 503.660, 526.146 497.924, 534.338 496.128, 536.903 490.891, 544.384 485.155, 552.576 482.270, 556.696 477.106, 564.072 471.864, 571.559 466.128, 579.751 465.861, 580.132 " />
            <path fill="none" stroke-width="3.0" stroke-linecap="butt" stroke-opacity="1.0" stroke="rgb(0, 0, 0)" stroke-linejoin="round" d=" M 465.861, 580.132 462.063, 573.995 456.799, 565.492 454.882, 562.394 449.944, 554.417 444.680, 545.914 441.803, 541.265 436.763, 533.124 431.500, 524.621 429.736, 521.770 " />
            <path fill="none" stroke-width="3.0" stroke-linecap="butt" stroke-opacity="1.0" stroke="rgb(0, 0, 0)" stroke-linejoin="round" d=" M 438.353, 517.406 429.736, 521.770 419.753, 521.180 409.771, 520.589 399.788, 519.998 398.441, 519.918 " />
            <path fill="none" stroke-width="3.0" stroke-linecap="butt" stroke-opacity="1.0" stroke="rgb(0, 0, 0)" stroke-linejoin="round" d=" M 530.869, 679.960 525.561, 671.486 520.253, 663.011 516.493, 657.008 511.838, 649.572 506.507, 641.068 501.200, 632.592 499.409, 629.730 494.313, 621.600 489.005, 613.125 483.697, 604.650 482.118, 602.130 " />
            <path fill="none" stroke-width="3.0" stroke-linecap="butt" stroke-opacity="1.0" stroke="rgb(0, 0, 0)" stroke-linejoin="round" d=" M 516.022, 560.050 510.152, 568.146 508.520, 570.398 503.269, 577.641 " />
            <path fill="none" stroke-width="3.0" stroke-linecap="butt" stroke-opacity="1.0" stroke="rgb(0, 0, 0)" stroke-linejoin="round" d=" M 489.757, 596.281 482.118, 602.130 487.092, 595.262 492.957, 587.162 495.853, 583.163 501.192, 575.790 507.057, 567.690 508.818, 565.259 514.448, 557.482 519.915, 549.934 525.780, 541.834 531.645, 533.735 535.764, 528.047 " />
            <path fill="none" stroke-width="3.0" stroke-linecap="butt" stroke-opacity="1.0" stroke="rgb(0, 0, 0)" stroke-linejoin="round" d=" M 542.521, 523.495 535.764, 528.047 525.781, 527.456 515.799, 526.865 505.816, 526.274 503.660, 526.146 " />
        </g>
    </g>
</svg>
