<?xml version='1.0' encoding='ascii'?>
<svg xmlns="http://www.w3.org/2000/svg" version="1.1" width="1080" height="1080">
    <g id="ViewLayer_LineSet" xmlns:inkscape="http://www.inkscape.org/namespaces/inkscape" inkscape:groupmode="lineset" inkscape:label="ViewLayer_LineSet">
        <g xmlns:inkscape="http://www.inkscape.org/namespaces/inkscape" inkscape:groupmode="layer" id="strokes" inkscape:label="strokes">
            <path fill="none" stroke-width="3.0" stroke-linecap="butt" stroke-opacity="1.0" stroke="rgb(0, 0, 0)" stroke-linejoin="round" d=" M 1088.621, 638.446 1082.363, 646.245 1079.458, 649.865 1072.165, 656.706 1070.197, 658.551 1060.610, 661.395 1059.846, 661.621 1051.998, 663.927 1042.030, 663.128 1033.399, 662.437 1026.012, 659.112 1016.986, 654.806 1015.961, 654.316 1009.951, 646.324 1008.799, 644.792 1003.854, 636.100 1002.957, 634.523 " />
            <path fill="none" stroke-width="3.0" stroke-linecap="butt" stroke-opacity="1.0" stroke="rgb(0, 0, 0)" stroke-linejoin="round" d=" M 1080.729, 540.430 1071.084, 537.790 1062.487, 535.438 1052.499, 534.938 1043.506, 534.488 1033.645, 536.147 1024.933, 537.613 1015.724, 541.512 1013.626, 542.400 1004.902, 547.288 1004.177, 547.695 996.195, 553.718 993.929, 555.428 987.115, 562.747 984.610, 565.438 979.043, 573.618 973.965, 582.233 973.760, 582.582 970.824, 592.141 968.763, 598.851 968.017, 608.823 967.494, 615.808 969.078, 625.682 970.163, 632.448 971.612, 639.068 975.293, 648.367 975.492, 648.871 979.735, 657.660 985.349, 665.936 987.445, 669.026 994.602, 676.010 996.529, 677.890 1004.457, 683.984 1005.013, 684.411 1013.708, 689.349 1015.889, 690.588 1025.471, 693.448 1033.871, 695.956 1043.844, 696.690 1052.886, 697.355 1062.797, 696.022 1071.726, 694.820 1081.056, 691.222 1083.491, 690.283 " />
            <path fill="none" stroke-width="3.0" stroke-linecap="butt" stroke-opacity="1.0" stroke="rgb(0, 0, 0)" stroke-linejoin="round" d=" M 1003.780, 638.995 1002.957, 634.523 1001.146, 624.689 1000.947, 623.605 1001.761, 613.638 1002.242, 607.748 1005.513, 598.298 1007.419, 592.787 1013.635, 584.954 1016.609, 581.207 1023.689, 574.145 1025.462, 572.377 1034.986, 569.328 1036.515, 568.839 1044.511, 566.487 1054.494, 567.072 1063.426, 567.595 1070.940, 570.942 1080.000, 575.176 1081.569, 575.909 " />
            <path fill="none" stroke-width="3.0" stroke-linecap="butt" stroke-opacity="1.0" stroke="rgb(0, 0, 0)" stroke-linejoin="round" d=" M 1083.051, 656.921 1075.748, 663.752 1073.603, 665.759 1064.012, 668.590 1063.045, 668.875 1055.040, 671.215 1045.073, 670.407 1036.075, 669.677 1028.544, 666.283 1019.521, 661.972 1018.298, 661.388 1012.288, 653.395 1010.998, 651.680 1006.052, 642.989 1003.780, 638.995 " />
            <path fill="none" stroke-width="3.0" stroke-linecap="butt" stroke-opacity="1.0" stroke="rgb(0, 0, 0)" stroke-linejoin="round" d=" M 1084.390, 545.420 1074.746, 542.776 1065.782, 540.319 1055.795, 539.813 1046.421, 539.338 1036.558, 540.989 1027.477, 542.509 1018.264, 546.398 1015.945, 547.378 1007.216, 552.258 1006.307, 552.766 998.319, 558.782 995.856, 560.637 989.036, 567.950 986.352, 570.827 980.675, 579.156 975.591, 587.767 975.287, 588.282 972.347, 597.840 970.190, 604.850 969.442, 614.822 968.895, 622.119 970.478, 631.993 971.612, 639.068 " />
            <path fill="none" stroke-width="3.0" stroke-linecap="butt" stroke-opacity="1.0" stroke="rgb(0, 0, 0)" stroke-linejoin="round" d=" M 730.307, 633.510 733.068, 633.711 743.041, 634.439 749.764, 634.929 759.728, 635.779 766.354, 636.344 776.347, 635.977 784.115, 635.692 793.005, 631.114 793.437, 630.892 801.778, 625.376 803.273, 624.387 809.357, 616.451 809.961, 615.664 815.355, 607.579 817.887, 597.905 819.788, 590.639 821.204, 584.868 820.396, 574.901 819.793, 567.467 815.640, 558.370 815.309, 557.645 810.133, 549.089 809.798, 548.535 802.778, 541.413 801.353, 539.968 793.257, 534.099 791.675, 532.952 781.917, 530.763 773.952, 528.976 763.960, 528.571 757.148, 528.295 747.164, 527.722 741.003, 527.369 731.020, 526.797 724.935, 526.448 714.951, 525.876 707.915, 525.473 704.348, 530.045 703.942, 540.036 703.536, 550.028 703.502, 550.867 703.096, 560.859 702.853, 566.817 702.447, 576.809 702.208, 582.708 701.802, 592.700 701.564, 598.540 701.158, 608.532 700.923, 614.314 700.517, 624.305 700.285, 630.029 699.879, 640.021 699.648, 645.687 699.242, 655.679 699.014, 661.288 698.608, 671.280 698.202, 681.271 698.194, 681.484 708.161, 682.285 715.210, 682.851 725.178, 683.652 728.081, 683.886 731.163, 676.523 731.607, 666.533 732.049, 656.603 732.494, 646.613 732.734, 641.217 733.068, 633.711 " />
            <path fill="none" stroke-width="3.0" stroke-linecap="butt" stroke-opacity="1.0" stroke="rgb(0, 0, 0)" stroke-linejoin="round" d=" M 728.081, 683.886 728.523, 673.895 728.964, 663.905 728.977, 663.606 729.419, 653.616 729.669, 647.941 730.111, 637.951 730.307, 633.510 " />
            <path fill="none" stroke-width="3.0" stroke-linecap="butt" stroke-opacity="1.0" stroke="rgb(0, 0, 0)" stroke-linejoin="round" d=" M 788.652, 588.306 785.343, 597.742 784.934, 598.909 775.972, 603.346 773.791, 604.425 763.818, 603.701 753.658, 602.963 743.681, 602.287 734.494, 601.665 734.939, 591.674 735.383, 581.684 735.498, 579.110 735.943, 569.120 736.195, 563.441 736.424, 558.292 " />
            <path fill="none" stroke-width="3.0" stroke-linecap="butt" stroke-opacity="1.0" stroke="rgb(0, 0, 0)" stroke-linejoin="round" d=" M 731.449, 607.668 731.890, 597.677 732.331, 587.687 732.464, 584.698 732.905, 574.708 733.169, 568.740 733.610, 558.750 733.638, 558.113 736.424, 558.292 746.404, 558.932 753.353, 559.378 763.344, 559.798 772.594, 560.188 781.014, 565.582 786.374, 569.016 787.547, 578.947 788.652, 588.306 788.653, 588.310 " />
            <path fill="none" stroke-width="3.0" stroke-linecap="butt" stroke-opacity="1.0" stroke="rgb(0, 0, 0)" stroke-linejoin="round" d=" M 819.788, 590.639 818.978, 580.672 818.347, 572.911 814.194, 563.815 813.776, 562.900 808.599, 554.345 808.158, 553.615 801.139, 546.492 799.550, 544.880 791.456, 539.008 789.686, 537.725 779.930, 535.530 771.625, 533.661 761.634, 533.249 754.503, 532.955 744.520, 532.375 738.054, 532.000 728.071, 531.421 721.685, 531.051 711.701, 530.471 704.348, 530.045 " />
            <path fill="none" stroke-width="3.0" stroke-linecap="butt" stroke-opacity="1.0" stroke="rgb(0, 0, 0)" stroke-linejoin="round" d=" M 788.653, 588.310 785.343, 597.747 782.831, 604.908 773.866, 609.338 771.481, 610.516 761.508, 609.783 751.535, 609.049 750.970, 609.008 740.993, 608.323 731.449, 607.668 734.494, 601.665 " />
            <path fill="none" stroke-width="3.0" stroke-linecap="butt" stroke-opacity="1.0" stroke="rgb(0, 0, 0)" stroke-linejoin="round" d=" M 536.390, 573.278 533.981, 569.379 528.725, 560.872 526.945, 557.992 522.107, 550.161 516.851, 541.654 514.131, 537.252 509.193, 529.260 503.938, 520.753 502.308, 518.116 492.325, 517.537 482.342, 516.958 472.359, 516.379 471.247, 516.314 463.289, 520.637 468.613, 529.102 473.937, 537.567 477.961, 543.966 483.285, 552.431 488.317, 560.430 493.641, 568.895 498.965, 577.360 500.500, 579.802 505.824, 588.267 508.786, 592.977 513.509, 600.487 507.627, 608.573 501.744, 616.660 500.741, 618.038 495.437, 625.330 489.555, 633.417 488.070, 635.457 482.563, 643.027 477.765, 649.624 471.883, 657.710 466.000, 665.797 463.037, 669.870 473.004, 670.682 482.971, 671.494 492.938, 672.306 494.106, 672.401 501.305, 665.460 501.405, 665.363 507.252, 657.251 513.099, 649.138 513.371, 648.761 519.218, 640.648 521.328, 637.720 526.294, 630.830 531.143, 624.102 " />
            <path fill="none" stroke-width="3.0" stroke-linecap="butt" stroke-opacity="1.0" stroke="rgb(0, 0, 0)" stroke-linejoin="round" d=" M 513.371, 648.761 507.790, 656.504 501.943, 664.616 501.405, 665.363 " />
            <path fill="none" stroke-width="3.0" stroke-linecap="butt" stroke-opacity="1.0" stroke="rgb(0, 0, 0)" stroke-linejoin="round" d=" M 494.106, 672.401 499.950, 664.286 500.596, 663.389 506.266, 655.516 512.111, 647.402 514.354, 644.287 519.402, 637.278 525.246, 629.163 527.022, 626.698 530.111, 622.410 531.143, 624.102 536.352, 632.638 539.998, 638.614 544.760, 646.418 549.969, 654.954 552.490, 659.085 557.699, 667.621 557.813, 667.809 563.022, 676.345 564.094, 678.102 574.061, 678.914 584.028, 679.726 593.995, 680.538 595.915, 680.695 601.441, 673.397 596.139, 664.918 590.837, 656.439 587.352, 650.866 582.789, 643.568 577.566, 635.218 572.264, 626.739 570.608, 624.090 565.617, 616.108 560.315, 607.629 555.013, 599.150 553.666, 596.996 558.659, 590.246 564.606, 582.207 567.453, 578.358 573.400, 570.318 579.347, 562.279 580.465, 560.768 586.116, 553.128 591.602, 545.713 597.549, 537.674 603.496, 529.634 607.504, 524.216 597.521, 523.637 587.538, 523.058 577.554, 522.479 575.659, 522.369 569.567, 526.878 563.751, 535.012 561.877, 537.633 556.528, 545.114 550.711, 553.248 547.725, 557.425 542.452, 564.800 536.635, 572.935 536.390, 573.278 530.969, 580.859 " />
            <path fill="none" stroke-width="3.0" stroke-linecap="butt" stroke-opacity="1.0" stroke="rgb(0, 0, 0)" stroke-linejoin="round" d=" M 530.969, 580.859 527.176, 574.721 521.919, 566.215 520.006, 563.120 515.076, 555.142 509.819, 546.635 506.948, 541.990 501.916, 533.847 496.659, 525.341 494.899, 522.493 " />
            <path fill="none" stroke-width="3.0" stroke-linecap="butt" stroke-opacity="1.0" stroke="rgb(0, 0, 0)" stroke-linejoin="round" d=" M 502.308, 518.116 494.899, 522.493 484.917, 521.907 474.934, 521.321 464.951, 520.735 463.289, 520.637 " />
            <path fill="none" stroke-width="3.0" stroke-linecap="butt" stroke-opacity="1.0" stroke="rgb(0, 0, 0)" stroke-linejoin="round" d=" M 595.915, 680.695 590.613, 672.216 585.310, 663.738 581.559, 657.741 576.910, 650.305 571.587, 641.799 566.286, 633.320 564.499, 630.461 559.411, 622.330 554.108, 613.852 548.805, 605.374 547.232, 602.859 " />
            <path fill="none" stroke-width="3.0" stroke-linecap="butt" stroke-opacity="1.0" stroke="rgb(0, 0, 0)" stroke-linejoin="round" d=" M 580.465, 560.768 574.518, 568.807 572.811, 571.115 567.453, 578.358 " />
            <path fill="none" stroke-width="3.0" stroke-linecap="butt" stroke-opacity="1.0" stroke="rgb(0, 0, 0)" stroke-linejoin="round" d=" M 553.666, 596.996 547.232, 602.859 552.310, 595.991 558.254, 587.950 561.253, 583.893 566.703, 576.521 572.648, 568.480 574.488, 565.991 580.236, 558.215 585.816, 550.667 591.760, 542.626 597.705, 534.585 601.995, 528.782 " />
            <path fill="none" stroke-width="3.0" stroke-linecap="butt" stroke-opacity="1.0" stroke="rgb(0, 0, 0)" stroke-linejoin="round" d=" M 607.504, 524.216 601.995, 528.782 592.012, 528.196 582.029, 527.609 572.046, 527.023 569.567, 526.878 " />
        </g>
    </g>
</svg>
