<?xml version='1.0' encoding='ascii'?>
<svg xmlns="http://www.w3.org/2000/svg" version="1.1" width="1080" height="1080">
    <g id="ViewLayer_LineSet" xmlns:inkscape="http://www.inkscape.org/namespaces/inkscape" inkscape:groupmode="lineset" inkscape:label="ViewLayer_LineSet">
        <g xmlns:inkscape="http://www.inkscape.org/namespaces/inkscape" inkscape:groupmode="layer" id="strokes" inkscape:label="strokes">
            <path fill="none" stroke-width="3.0" stroke-linecap="butt" stroke-opacity="1.0" stroke="rgb(0, 0, 0)" stroke-linejoin="round" d=" M 68.316, 634.477 67.981, 624.482 67.811, 619.434 67.476, 609.439 67.305, 604.338 66.970, 594.343 66.797, 589.188 66.462, 579.193 66.288, 573.984 65.953, 563.990 65.776, 558.727 65.441, 548.732 65.263, 543.415 64.928, 533.420 64.748, 528.048 64.413, 518.054 64.075, 507.989 54.094, 507.386 44.112, 506.782 37.804, 506.401 28.118, 508.888 21.837, 510.501 22.221, 520.493 22.605, 530.486 22.619, 530.839 23.003, 540.832 23.217, 546.420 23.601, 556.412 23.814, 561.944 24.198, 571.937 24.408, 577.412 24.792, 587.405 25.000, 592.825 25.384, 602.817 25.590, 608.182 25.974, 618.175 26.178, 623.485 26.562, 633.477 26.764, 638.732 27.148, 648.725 27.522, 658.474 37.486, 659.324 47.450, 660.175 53.782, 660.716 62.917, 656.649 68.969, 653.954 68.634, 643.960 68.316, 634.477 " />
            <path fill="none" stroke-width="3.0" stroke-linecap="butt" stroke-opacity="1.0" stroke="rgb(0, 0, 0)" stroke-linejoin="round" d=" M 53.782, 660.716 53.429, 650.722 53.081, 640.895 52.728, 630.901 52.540, 625.586 52.187, 615.592 51.997, 610.221 51.644, 600.227 51.453, 594.801 51.099, 584.807 50.906, 579.325 50.552, 569.332 50.357, 563.793 50.004, 553.800 49.806, 548.205 49.453, 538.211 49.253, 532.560 48.900, 522.567 48.547, 512.573 48.531, 512.137 " />
            <path fill="none" stroke-width="3.0" stroke-linecap="butt" stroke-opacity="1.0" stroke="rgb(0, 0, 0)" stroke-linejoin="round" d=" M 64.075, 507.989 54.413, 510.567 48.531, 512.137 38.550, 511.525 28.569, 510.913 21.837, 510.501 " />
            <path fill="none" stroke-width="3.0" stroke-linecap="butt" stroke-opacity="1.0" stroke="rgb(0, 0, 0)" stroke-linejoin="round" d=" M 842.193, 646.974 841.620, 656.958 841.298, 662.572 840.725, 672.556 840.152, 682.540 840.139, 682.766 850.108, 683.552 857.510, 684.136 867.479, 684.923 870.651, 685.173 871.260, 675.191 871.869, 665.210 871.888, 664.897 872.497, 654.915 872.844, 649.234 873.453, 639.252 873.725, 634.805 883.699, 635.519 893.590, 636.228 903.555, 637.062 910.526, 637.646 920.519, 637.289 928.690, 636.997 937.636, 632.529 938.295, 632.200 946.717, 626.809 948.452, 625.698 954.698, 617.888 955.426, 616.977 961.069, 608.895 963.795, 599.274 965.868, 591.958 965.197, 581.981 964.676, 574.232 963.341, 568.763 959.231, 559.647 958.913, 558.941 953.751, 550.376 953.423, 549.832 946.382, 542.730 944.929, 541.264 936.804, 535.434 935.149, 534.247 925.384, 532.094 917.103, 530.269 907.111, 529.870 899.944, 529.584 889.960, 529.021 883.463, 528.655 873.479, 528.093 867.060, 527.731 857.076, 527.169 849.686, 526.753 848.830, 531.349 848.257, 541.333 847.684, 551.316 847.635, 552.168 847.062, 562.152 846.720, 568.116 846.147, 578.099 845.808, 584.004 845.235, 593.988 844.899, 599.834 844.326, 609.818 843.994, 615.605 843.421, 625.589 843.092, 631.319 842.519, 641.302 842.193, 646.974 " />
            <path fill="none" stroke-width="3.0" stroke-linecap="butt" stroke-opacity="1.0" stroke="rgb(0, 0, 0)" stroke-linejoin="round" d=" M 875.301, 608.966 875.669, 602.940 876.278, 592.958 876.703, 586.000 877.312, 576.019 877.676, 570.045 878.285, 560.063 878.325, 559.419 888.305, 560.048 898.457, 560.688 908.448, 561.101 918.111, 561.501 926.560, 566.851 931.897, 570.230 932.057, 570.331 " />
            <path fill="none" stroke-width="3.0" stroke-linecap="butt" stroke-opacity="1.0" stroke="rgb(0, 0, 0)" stroke-linejoin="round" d=" M 964.676, 574.232 960.566, 565.116 960.163, 564.222 955.001, 555.657 954.567, 554.937 947.527, 547.835 945.907, 546.201 937.784, 540.370 935.938, 539.045 926.173, 536.887 917.541, 534.979 907.550, 534.573 900.051, 534.269 890.067, 533.700 883.253, 533.311 873.269, 532.742 866.536, 532.358 856.552, 531.789 848.830, 531.349 " />
            <path fill="none" stroke-width="3.0" stroke-linecap="butt" stroke-opacity="1.0" stroke="rgb(0, 0, 0)" stroke-linejoin="round" d=" M 931.897, 570.230 932.940, 580.176 933.331, 583.896 929.828, 593.263 927.236, 600.194 918.223, 604.526 915.766, 605.707 905.792, 604.995 895.817, 604.283 895.218, 604.241 885.240, 603.577 875.669, 602.940 " />
            <path fill="none" stroke-width="3.0" stroke-linecap="butt" stroke-opacity="1.0" stroke="rgb(0, 0, 0)" stroke-linejoin="round" d=" M 932.057, 570.331 933.100, 580.277 934.080, 589.623 930.573, 598.988 927.866, 606.218 918.849, 610.541 916.175, 611.823 906.201, 611.102 896.227, 610.382 895.234, 610.310 885.256, 609.637 875.301, 608.966 " />
            <path fill="none" stroke-width="3.0" stroke-linecap="butt" stroke-opacity="1.0" stroke="rgb(0, 0, 0)" stroke-linejoin="round" d=" M 655.297, 602.061 649.244, 610.022 646.599, 613.501 641.151, 620.668 635.098, 628.629 633.582, 630.622 627.923, 638.066 622.994, 644.548 616.942, 652.509 610.890, 660.469 607.860, 664.454 602.562, 671.443 612.531, 672.240 622.499, 673.038 632.467, 673.835 634.297, 673.982 640.312, 665.993 641.081, 664.972 647.007, 657.101 653.022, 649.112 655.460, 645.873 660.736, 638.866 666.751, 630.877 668.701, 628.287 671.929, 624.000 677.123, 632.545 681.780, 640.207 686.524, 648.012 691.719, 656.557 694.225, 660.681 699.419, 669.226 699.528, 669.406 704.723, 677.951 705.786, 679.701 715.754, 680.499 725.722, 681.296 735.691, 682.094 738.290, 682.301 741.180, 674.973 735.891, 666.486 730.601, 658.000 727.134, 652.438 722.585, 645.139 717.378, 636.788 712.088, 628.302 710.441, 625.659 705.464, 617.675 700.175, 609.189 694.885, 600.702 693.889, 599.104 " />
            <path fill="none" stroke-width="3.0" stroke-linecap="butt" stroke-opacity="1.0" stroke="rgb(0, 0, 0)" stroke-linejoin="round" d=" M 689.757, 604.454 693.889, 599.104 695.061, 597.588 701.173, 589.673 704.403, 585.492 710.096, 578.121 716.209, 570.207 718.228, 567.593 724.233, 559.818 730.062, 552.272 736.175, 544.358 742.287, 536.444 746.963, 530.391 749.741, 525.794 739.758, 525.224 729.774, 524.655 719.790, 524.086 717.215, 523.939 711.227, 531.948 709.317, 534.503 703.825, 541.850 697.837, 549.859 694.784, 553.943 689.368, 561.188 683.380, 569.197 677.573, 576.964 673.863, 570.939 668.620, 562.424 666.851, 559.549 662.029, 551.718 656.786, 543.202 654.079, 538.807 649.158, 530.813 643.915, 522.298 642.296, 519.668 632.312, 519.098 622.328, 518.529 612.344, 517.960 610.570, 517.859 605.231, 522.211 610.543, 530.684 615.855, 539.156 619.860, 545.543 625.173, 554.016 630.186, 562.010 635.498, 570.483 640.810, 578.955 642.333, 581.385 647.645, 589.857 650.595, 594.562 655.297, 602.061 655.304, 602.073 649.252, 610.033 643.199, 617.994 641.962, 619.621 636.419, 626.912 630.367, 634.872 628.721, 637.037 622.966, 644.606 617.953, 651.201 611.900, 659.161 605.848, 667.121 602.562, 671.443 " />
            <path fill="none" stroke-width="3.0" stroke-linecap="butt" stroke-opacity="1.0" stroke="rgb(0, 0, 0)" stroke-linejoin="round" d=" M 673.478, 582.449 669.698, 576.311 664.455, 567.796 662.553, 564.708 657.639, 556.729 652.395, 548.214 649.538, 543.575 644.524, 535.431 639.280, 526.916 637.531, 524.075 " />
            <path fill="none" stroke-width="3.0" stroke-linecap="butt" stroke-opacity="1.0" stroke="rgb(0, 0, 0)" stroke-linejoin="round" d=" M 642.296, 519.668 637.531, 524.075 627.548, 523.499 617.564, 522.923 607.581, 522.347 605.231, 522.211 " />
            <path fill="none" stroke-width="3.0" stroke-linecap="butt" stroke-opacity="1.0" stroke="rgb(0, 0, 0)" stroke-linejoin="round" d=" M 738.290, 682.301 733.000, 673.816 727.709, 665.330 723.978, 659.344 719.343, 651.907 714.037, 643.400 708.747, 634.913 706.969, 632.060 701.897, 623.928 696.607, 615.442 691.317, 606.956 689.757, 604.454 " />
            <path fill="none" stroke-width="3.0" stroke-linecap="butt" stroke-opacity="1.0" stroke="rgb(0, 0, 0)" stroke-linejoin="round" d=" M 713.828, 528.478 707.840, 536.487 705.788, 539.232 700.197, 546.711 694.209, 554.720 690.994, 559.021 685.482, 566.394 679.494, 574.403 673.478, 582.449 677.573, 576.964 " />
            <path fill="none" stroke-width="3.0" stroke-linecap="butt" stroke-opacity="1.0" stroke="rgb(0, 0, 0)" stroke-linejoin="round" d=" M 746.963, 530.391 736.979, 529.814 726.996, 529.238 717.013, 528.662 713.828, 528.478 717.215, 523.939 " />
        </g>
    </g>
</svg>
