<?xml version='1.0' encoding='ascii'?>
<svg xmlns="http://www.w3.org/2000/svg" version="1.1" width="1080" height="1080">
    <g id="ViewLayer_LineSet" xmlns:inkscape="http://www.inkscape.org/namespaces/inkscape" inkscape:groupmode="lineset" inkscape:label="ViewLayer_LineSet">
        <g xmlns:inkscape="http://www.inkscape.org/namespaces/inkscape" inkscape:groupmode="layer" id="strokes" inkscape:label="strokes">
            <path fill="none" stroke-width="3.0" stroke-linecap="butt" stroke-opacity="1.0" stroke="rgb(0, 0, 0)" stroke-linejoin="round" d=" M 480.404, 643.819 480.552, 633.820 480.627, 628.793 480.776, 618.794 480.851, 613.713 481.000, 603.714 481.076, 598.580 481.225, 588.581 481.302, 583.393 481.450, 573.394 481.528, 568.152 481.677, 558.153 481.756, 552.857 481.904, 542.858 481.984, 537.507 482.133, 527.508 482.282, 517.470 472.299, 516.891 462.315, 516.311 454.227, 515.841 446.022, 520.117 445.916, 530.116 445.809, 540.116 445.806, 540.433 445.699, 550.433 445.640, 555.996 445.533, 565.996 445.474, 571.503 445.367, 581.503 445.309, 586.954 445.203, 596.954 445.145, 602.350 445.038, 612.349 444.981, 617.690 444.875, 627.689 444.818, 632.975 444.711, 642.975 444.656, 648.206 444.549, 658.205 444.445, 667.925 454.412, 668.737 464.379, 669.548 472.492, 670.208 479.889, 663.480 480.114, 663.275 480.263, 653.276 480.404, 643.819 " />
            <path fill="none" stroke-width="3.0" stroke-linecap="butt" stroke-opacity="1.0" stroke="rgb(0, 0, 0)" stroke-linejoin="round" d=" M 472.492, 670.208 472.632, 660.209 472.769, 650.410 472.908, 640.411 472.982, 635.117 473.122, 625.118 473.197, 619.770 473.337, 609.771 473.412, 604.367 473.552, 594.368 473.628, 588.909 473.768, 578.910 473.845, 573.394 473.985, 563.395 474.063, 557.823 474.203, 547.824 474.281, 542.196 474.421, 532.197 474.561, 522.198 474.567, 521.795 " />
            <path fill="none" stroke-width="3.0" stroke-linecap="butt" stroke-opacity="1.0" stroke="rgb(0, 0, 0)" stroke-linejoin="round" d=" M 482.282, 517.470 474.567, 521.795 464.584, 521.208 454.601, 520.621 446.022, 520.117 " />
            <path fill="none" stroke-width="3.0" stroke-linecap="butt" stroke-opacity="1.0" stroke="rgb(0, 0, 0)" stroke-linejoin="round" d=" M 165.629, 577.064 164.968, 575.722 163.143, 572.013 159.715, 565.044 157.419, 560.379 155.569, 556.620 152.073, 549.513 149.861, 545.018 147.987, 541.209 144.421, 533.962 142.294, 529.640 140.396, 525.781 136.761, 518.393 134.719, 514.243 132.796, 510.334 129.357, 503.344 123.294, 502.986 116.285, 502.572 109.291, 502.159 101.616, 501.705 96.460, 503.105 92.501, 504.180 87.226, 505.612 87.465, 513.368 87.703, 521.063 87.939, 528.744 88.176, 536.411 88.412, 544.064 88.648, 551.704 88.883, 559.330 89.117, 566.943 89.352, 574.542 89.586, 582.128 89.819, 589.701 90.052, 597.260 90.285, 604.805 90.517, 612.338 90.749, 619.857 90.981, 627.363 91.212, 634.856 91.442, 642.335 91.674, 649.849 99.346, 650.487 106.336, 651.068 113.343, 651.650 117.521, 651.998 122.535, 649.639 126.298, 647.868 131.200, 645.561 131.006, 638.145 130.812, 630.763 130.619, 623.368 130.425, 615.961 130.231, 608.540 130.036, 601.107 129.841, 593.660 129.672, 587.201 " />
            <path fill="none" stroke-width="3.0" stroke-linecap="butt" stroke-opacity="1.0" stroke="rgb(0, 0, 0)" stroke-linejoin="round" d=" M 115.016, 561.884 115.294, 571.881 115.419, 576.392 115.631, 584.009 115.842, 591.611 116.053, 599.200 116.264, 606.776 116.474, 614.338 116.684, 621.887 116.894, 629.423 117.103, 636.945 117.312, 644.454 117.521, 651.998 " />
            <path fill="none" stroke-width="3.0" stroke-linecap="butt" stroke-opacity="1.0" stroke="rgb(0, 0, 0)" stroke-linejoin="round" d=" M 117.066, 561.868 121.521, 570.820 121.746, 571.273 125.110, 578.033 129.485, 586.824 129.672, 587.201 132.927, 593.739 137.214, 602.357 140.733, 609.428 143.033, 614.048 144.935, 617.872 148.531, 625.098 151.369, 630.801 155.154, 631.101 162.291, 631.667 166.088, 631.968 170.838, 629.715 174.404, 628.023 179.047, 625.821 181.616, 620.618 184.877, 614.014 186.605, 610.514 188.697, 606.279 191.903, 599.787 195.819, 591.857 198.969, 585.477 200.223, 582.939 " />
            <path fill="none" stroke-width="3.0" stroke-linecap="butt" stroke-opacity="1.0" stroke="rgb(0, 0, 0)" stroke-linejoin="round" d=" M 115.407, 507.299 118.913, 514.415 120.873, 518.395 122.955, 522.620 126.660, 530.141 128.595, 534.070 130.763, 538.469 134.397, 545.848 136.311, 549.724 138.561, 554.301 142.125, 561.536 144.011, 565.363 146.351, 570.112 149.845, 577.206 151.705, 580.982 154.131, 585.906 157.751, 593.255 157.998, 592.749 161.102, 586.368 163.370, 581.705 165.081, 578.189 165.629, 577.064 168.280, 571.615 170.460, 567.134 172.207, 563.543 175.500, 556.773 177.591, 552.475 179.375, 548.809 182.765, 541.842 184.765, 537.730 186.586, 533.988 190.073, 526.821 191.982, 522.897 193.839, 519.079 197.189, 512.195 201.825, 510.693 205.305, 509.567 209.835, 508.100 215.875, 508.457 223.111, 508.884 230.363, 509.313 238.360, 509.786 238.464, 517.568 238.567, 525.288 238.670, 532.994 238.773, 540.687 238.875, 548.365 238.978, 556.031 239.080, 563.682 239.182, 571.320 239.284, 578.944 239.386, 586.555 239.488, 594.152 239.589, 601.736 239.690, 609.307 239.791, 616.864 239.892, 624.407 239.993, 631.938 240.093, 639.455 240.193, 646.959 240.294, 654.497 236.019, 656.902 232.736, 658.749 228.362, 661.211 220.368, 660.546 213.119, 659.944 205.886, 659.342 201.586, 658.985 201.449, 651.346 201.313, 643.741 201.176, 636.123 201.040, 628.491 200.903, 620.846 200.765, 613.186 200.628, 605.513 200.490, 597.826 200.352, 590.126 200.223, 582.939 200.213, 582.411 200.034, 572.413 199.950, 567.694 199.870, 563.276 " />
            <path fill="none" stroke-width="3.0" stroke-linecap="butt" stroke-opacity="1.0" stroke="rgb(0, 0, 0)" stroke-linejoin="round" d=" M 129.357, 503.344 124.359, 504.761 120.521, 505.849 115.407, 507.299 109.248, 506.931 102.127, 506.504 95.023, 506.079 87.226, 505.612 " />
            <path fill="none" stroke-width="3.0" stroke-linecap="butt" stroke-opacity="1.0" stroke="rgb(0, 0, 0)" stroke-linejoin="round" d=" M 110.989, 568.469 115.016, 561.884 115.016, 561.884 117.066, 561.868 124.978, 561.804 " />
            <path fill="none" stroke-width="3.0" stroke-linecap="butt" stroke-opacity="1.0" stroke="rgb(0, 0, 0)" stroke-linejoin="round" d=" M 191.903, 599.787 193.613, 596.319 195.819, 591.857 " />
            <path fill="none" stroke-width="3.0" stroke-linecap="butt" stroke-opacity="1.0" stroke="rgb(0, 0, 0)" stroke-linejoin="round" d=" M 193.467, 576.298 190.333, 582.672 187.986, 587.442 186.266, 590.940 183.075, 597.428 180.844, 601.966 179.108, 605.494 175.861, 612.097 173.743, 616.403 171.992, 619.963 168.690, 626.678 166.088, 631.968 " />
            <path fill="none" stroke-width="3.0" stroke-linecap="butt" stroke-opacity="1.0" stroke="rgb(0, 0, 0)" stroke-linejoin="round" d=" M 226.185, 513.930 226.302, 521.853 226.418, 529.712 226.534, 537.557 226.650, 545.388 226.765, 553.204 226.881, 561.006 226.996, 568.794 227.111, 576.568 227.225, 584.328 227.340, 592.074 227.454, 599.806 227.568, 607.524 227.682, 615.228 227.796, 622.918 227.909, 630.595 228.023, 638.257 228.136, 645.906 228.249, 653.541 228.362, 661.211 " />
            <path fill="none" stroke-width="3.0" stroke-linecap="butt" stroke-opacity="1.0" stroke="rgb(0, 0, 0)" stroke-linejoin="round" d=" M 238.360, 509.786 233.999, 511.270 230.649, 512.411 226.185, 513.930 218.055, 513.444 210.683, 513.002 203.328, 512.562 197.189, 512.195 " />
            <path fill="none" stroke-width="3.0" stroke-linecap="butt" stroke-opacity="1.0" stroke="rgb(0, 0, 0)" stroke-linejoin="round" d=" M 204.281, 567.238 199.870, 563.276 197.575, 567.944 193.467, 576.298 197.569, 567.945 " />
            <path fill="none" stroke-width="3.0" stroke-linecap="butt" stroke-opacity="1.0" stroke="rgb(0, 0, 0)" stroke-linejoin="round" d=" M 199.870, 563.276 197.569, 567.945 " />
            <path fill="none" stroke-width="3.0" stroke-linecap="butt" stroke-opacity="1.0" stroke="rgb(0, 0, 0)" stroke-linejoin="round" d=" M 23.479, 569.562 22.293, 567.913 16.633, 560.042 10.793, 551.925 9.892, 550.671 4.329, 542.935 -1.511, 534.817 -2.509, 533.430 " />
            <path fill="none" stroke-width="3.0" stroke-linecap="butt" stroke-opacity="1.0" stroke="rgb(0, 0, 0)" stroke-linejoin="round" d=" M -3.873, 598.560 2.007, 606.648 3.099, 608.149 8.669, 615.807 14.550, 623.895 17.122, 627.433 21.795, 633.858 27.676, 641.946 30.605, 645.975 40.570, 646.805 42.747, 646.987 51.679, 647.731 60.870, 643.791 66.344, 641.444 66.006, 631.450 65.709, 622.657 65.372, 612.662 65.219, 608.149 64.882, 598.155 64.727, 593.592 64.390, 583.598 64.234, 578.985 63.896, 568.991 63.739, 564.328 63.401, 554.334 63.242, 549.621 62.904, 539.627 62.743, 534.864 62.406, 524.870 62.243, 520.056 61.906, 510.062 61.597, 500.931 52.661, 500.401 42.679, 499.809 36.314, 499.431 26.609, 501.840 20.927, 503.250 21.312, 513.243 21.673, 522.632 22.058, 532.625 22.251, 537.639 22.635, 547.631 22.826, 552.593 23.211, 562.586 23.400, 567.495 23.479, 569.562 23.864, 579.554 23.972, 582.346 24.356, 592.339 24.557, 597.560 " />
            <path fill="none" stroke-width="3.0" stroke-linecap="butt" stroke-opacity="1.0" stroke="rgb(0, 0, 0)" stroke-linejoin="round" d=" M 24.557, 597.560 19.990, 591.209 14.152, 583.091 11.721, 579.712 6.825, 572.905 1.064, 564.895 -4.775, 556.777 -5.796, 555.358 " />
            <path fill="none" stroke-width="3.0" stroke-linecap="butt" stroke-opacity="1.0" stroke="rgb(0, 0, 0)" stroke-linejoin="round" d=" M 51.679, 647.731 51.324, 637.737 51.000, 628.624 50.645, 618.631 50.476, 613.869 50.121, 603.875 49.950, 599.063 49.595, 589.069 49.422, 584.205 49.067, 574.211 48.892, 569.295 48.537, 559.301 48.361, 554.333 48.006, 544.340 47.827, 539.320 47.472, 529.326 47.292, 524.253 46.937, 514.260 46.600, 504.794 " />
            <path fill="none" stroke-width="3.0" stroke-linecap="butt" stroke-opacity="1.0" stroke="rgb(0, 0, 0)" stroke-linejoin="round" d=" M 61.597, 500.931 51.913, 503.425 46.600, 504.794 37.526, 504.248 27.544, 503.648 20.927, 503.250 " />
            <path fill="none" stroke-width="3.0" stroke-linecap="butt" stroke-opacity="1.0" stroke="rgb(0, 0, 0)" stroke-linejoin="round" d=" M 957.958, 605.695 963.225, 614.195 967.198, 620.608 972.146, 628.594 977.413, 637.095 979.044, 639.727 984.221, 648.080 988.745, 655.381 994.012, 663.882 999.279, 672.382 1002.712, 677.922 1004.755, 685.309 994.785, 684.537 984.815, 683.765 974.845, 682.993 970.973, 682.693 965.807, 674.131 964.759, 672.395 959.593, 663.833 959.493, 663.668 954.327, 655.106 951.846, 650.996 947.135, 643.188 941.969, 634.626 937.353, 626.977 933.863, 631.262 927.550, 639.017 925.254, 641.837 919.551, 648.842 913.237, 656.597 910.413, 660.066 904.099, 667.820 904.007, 667.934 897.693, 675.689 896.673, 676.940 886.703, 676.169 876.733, 675.397 866.763, 674.625 863.692, 674.387 864.249, 667.342 870.593, 659.612 876.937, 651.882 880.579, 647.444 885.898, 640.963 892.003, 633.523 898.347, 625.793 900.170, 623.572 906.049, 616.408 912.392, 608.677 918.393, 601.366 " />
            <path fill="none" stroke-width="3.0" stroke-linecap="butt" stroke-opacity="1.0" stroke="rgb(0, 0, 0)" stroke-linejoin="round" d=" M 892.003, 633.523 885.660, 641.253 880.579, 647.444 " />
            <path fill="none" stroke-width="3.0" stroke-linecap="butt" stroke-opacity="1.0" stroke="rgb(0, 0, 0)" stroke-linejoin="round" d=" M 956.502, 607.439 957.958, 605.695 962.230, 600.575 968.637, 592.897 972.320, 588.483 978.469, 581.115 984.876, 573.437 987.251, 570.591 993.658, 562.913 993.736, 562.819 1000.031, 555.275 1006.439, 547.598 1012.846, 539.920 1018.285, 533.402 1015.950, 528.746 1005.965, 528.194 995.980, 527.642 985.995, 527.090 982.147, 526.877 975.865, 534.658 969.583, 542.438 967.691, 544.782 961.408, 552.562 957.929, 556.871 952.082, 564.113 945.800, 571.894 939.517, 579.674 939.347, 579.884 935.661, 573.858 930.443, 565.327 928.693, 562.465 923.901, 554.631 918.682, 546.101 916.000, 541.716 911.110, 533.721 905.892, 525.190 904.291, 522.572 894.306, 522.020 884.321, 521.468 874.336, 520.915 871.321, 520.749 870.886, 525.157 876.176, 533.643 881.466, 542.130 885.435, 548.496 890.725, 556.982 895.704, 564.968 900.994, 573.454 906.284, 581.940 907.784, 584.348 913.074, 592.834 916.001, 597.529 918.393, 601.366 920.684, 605.042 914.334, 612.768 907.985, 620.493 906.266, 622.584 900.277, 629.872 893.928, 637.597 891.958, 639.993 885.740, 647.560 880.322, 654.152 873.972, 661.878 867.623, 669.603 863.692, 674.387 " />
            <path fill="none" stroke-width="3.0" stroke-linecap="butt" stroke-opacity="1.0" stroke="rgb(0, 0, 0)" stroke-linejoin="round" d=" M 940.196, 585.427 936.440, 579.287 931.222, 570.757 929.340, 567.680 924.458, 559.699 919.239, 551.168 916.408, 546.541 911.425, 538.395 906.207, 529.864 904.477, 527.036 " />
            <path fill="none" stroke-width="3.0" stroke-linecap="butt" stroke-opacity="1.0" stroke="rgb(0, 0, 0)" stroke-linejoin="round" d=" M 904.291, 522.572 904.477, 527.036 894.493, 526.478 884.509, 525.919 874.524, 525.361 870.886, 525.157 " />
            <path fill="none" stroke-width="3.0" stroke-linecap="butt" stroke-opacity="1.0" stroke="rgb(0, 0, 0)" stroke-linejoin="round" d=" M 1004.755, 685.309 999.488, 676.809 994.221, 668.308 990.525, 662.345 985.916, 654.905 980.642, 646.396 975.375, 637.896 973.614, 635.053 968.573, 626.919 963.305, 618.418 958.038, 609.918 956.502, 607.439 " />
            <path fill="none" stroke-width="3.0" stroke-linecap="butt" stroke-opacity="1.0" stroke="rgb(0, 0, 0)" stroke-linejoin="round" d=" M 967.691, 544.782 973.621, 537.438 979.903, 529.657 982.147, 526.877 983.825, 531.474 " />
            <path fill="none" stroke-width="3.0" stroke-linecap="butt" stroke-opacity="1.0" stroke="rgb(0, 0, 0)" stroke-linejoin="round" d=" M 1018.285, 533.402 1008.300, 532.843 998.316, 532.285 988.331, 531.726 983.825, 531.474 977.537, 539.250 975.132, 542.224 969.086, 549.701 962.798, 557.477 959.135, 562.006 953.175, 569.377 946.887, 577.153 940.599, 584.929 940.196, 585.427 939.347, 579.884 " />
            <path fill="none" stroke-width="3.0" stroke-linecap="butt" stroke-opacity="1.0" stroke="rgb(0, 0, 0)" stroke-linejoin="round" d=" M 197.575, 567.944 199.950, 567.694 " />
        </g>
    </g>
</svg>
