<?xml version='1.0' encoding='ascii'?>
<svg xmlns="http://www.w3.org/2000/svg" version="1.1" width="1080" height="1080">
    <g id="ViewLayer_LineSet" xmlns:inkscape="http://www.inkscape.org/namespaces/inkscape" inkscape:groupmode="lineset" inkscape:label="ViewLayer_LineSet">
        <g xmlns:inkscape="http://www.inkscape.org/namespaces/inkscape" inkscape:groupmode="layer" id="strokes" inkscape:label="strokes">
            <path fill="none" stroke-width="3.0" stroke-linecap="butt" stroke-opacity="1.0" stroke="rgb(0, 0, 0)" stroke-linejoin="round" d=" M 850.578, 623.213 847.439, 632.708 846.270, 636.243 840.280, 644.250 837.723, 647.668 830.644, 654.731 829.012, 656.359 819.461, 659.323 819.106, 659.434 811.595, 661.742 801.629, 660.919 793.618, 660.258 786.409, 656.935 777.423, 652.546 776.593, 652.141 770.590, 644.144 769.444, 642.617 764.465, 633.944 762.296, 630.168 760.307, 620.368 759.229, 615.059 759.760, 605.073 760.057, 599.486 762.997, 589.928 763.328, 588.850 " />
            <path fill="none" stroke-width="3.0" stroke-linecap="butt" stroke-opacity="1.0" stroke="rgb(0, 0, 0)" stroke-linejoin="round" d=" M 737.066, 655.455 742.687, 663.725 744.790, 666.820 751.909, 673.843 753.775, 675.684 761.655, 681.840 762.121, 682.204 770.771, 687.222 772.763, 688.378 782.323, 691.313 790.233, 693.742 800.204, 694.498 808.597, 695.135 818.500, 693.744 826.689, 692.593 835.958, 688.841 837.910, 688.051 846.698, 683.278 847.169, 683.021 855.192, 677.052 857.345, 675.451 864.074, 668.054 866.527, 665.358 872.006, 657.145 876.937, 648.445 877.291, 647.820 880.087, 638.219 882.193, 630.991 882.695, 621.004 883.080, 613.332 883.298, 607.035 881.611, 597.178 880.381, 589.994 876.591, 580.740 876.422, 580.326 872.059, 571.393 866.429, 563.129 864.258, 559.942 857.203, 552.854 855.295, 550.936 847.318, 544.905 846.732, 544.463 838.128, 539.367 836.170, 538.207 826.544, 535.498 818.448, 533.220 808.461, 532.706 800.117, 532.276 790.268, 534.006 782.282, 535.408 773.144, 539.468 771.499, 540.199 762.887, 545.282 762.519, 545.499 754.706, 551.740 752.832, 553.237 746.259, 560.774 744.098, 563.252 738.937, 571.436 735.939, 576.932 731.167, 585.720 730.982, 586.062 728.370, 595.715 726.499, 602.635 726.035, 612.624 725.697, 619.909 727.472, 629.750 728.755, 636.861 732.527, 646.122 732.748, 646.665 737.066, 655.455 " />
            <path fill="none" stroke-width="3.0" stroke-linecap="butt" stroke-opacity="1.0" stroke="rgb(0, 0, 0)" stroke-linejoin="round" d=" M 850.297, 628.047 847.156, 637.541 845.333, 643.053 839.338, 651.056 836.623, 654.682 829.538, 661.739 827.745, 663.525 818.191, 666.478 817.650, 666.645 809.996, 668.988 800.031, 668.155 791.678, 667.456 784.331, 664.064 775.348, 659.669 774.329, 659.171 768.325, 651.173 767.042, 649.463 762.062, 640.791 759.756, 636.777 757.764, 626.977 756.627, 621.385 757.155, 611.399 757.465, 605.523 760.405, 595.965 762.068, 590.558 763.328, 588.850 769.269, 580.806 770.624, 578.972 777.473, 571.685 778.928, 570.136 788.409, 566.956 789.490, 566.594 797.135, 564.239 807.117, 564.841 815.394, 565.341 822.724, 568.686 831.744, 573.003 833.096, 573.651 839.124, 581.629 840.515, 583.470 845.572, 592.096 848.022, 596.275 850.028, 606.072 851.232, 611.954 850.652, 621.937 850.578, 623.213 850.297, 628.047 " />
            <path fill="none" stroke-width="3.0" stroke-linecap="butt" stroke-opacity="1.0" stroke="rgb(0, 0, 0)" stroke-linejoin="round" d=" M 883.080, 613.332 881.392, 603.475 880.105, 595.965 876.314, 586.711 876.068, 586.109 871.679, 577.124 871.619, 577.002 865.989, 568.738 863.664, 565.325 856.611, 558.237 854.525, 556.141 846.549, 550.108 845.794, 549.537 837.192, 544.438 835.025, 543.153 825.401, 540.439 816.959, 538.058 806.972, 537.536 798.274, 537.083 788.423, 538.805 780.097, 540.260 770.956, 544.315 769.108, 545.134 760.493, 550.212 759.959, 550.527 752.143, 556.765 750.090, 558.403 743.516, 565.938 741.194, 568.599 735.939, 576.932 " />
            <path fill="none" stroke-width="3.0" stroke-linecap="butt" stroke-opacity="1.0" stroke="rgb(0, 0, 0)" stroke-linejoin="round" d=" M 527.403, 631.678 534.095, 632.179 544.067, 632.926 546.282, 633.092 556.244, 633.965 562.384, 634.503 572.376, 634.121 579.573, 633.845 588.377, 629.105 588.495, 629.041 596.711, 623.341 597.877, 622.533 603.469, 616.195 609.312, 608.080 609.643, 607.621 614.601, 599.676 616.857, 589.934 618.454, 583.038 617.453, 573.088 616.704, 565.634 612.492, 556.564 612.142, 555.810 606.944, 547.267 606.599, 546.700 599.609, 539.549 598.226, 538.134 590.171, 532.208 588.691, 531.119 578.945, 528.878 571.425, 527.148 561.434, 526.733 555.122, 526.471 545.140, 525.884 539.454, 525.550 529.471, 524.963 523.859, 524.633 513.876, 524.046 507.341, 523.662 499.937, 528.199 499.768, 538.198 499.598, 548.196 499.584, 549.026 499.415, 559.025 499.314, 564.979 499.145, 574.978 499.045, 580.874 498.876, 590.872 498.777, 596.709 498.608, 606.708 498.510, 612.486 498.341, 622.485 498.244, 628.205 498.075, 638.204 497.979, 643.867 497.809, 653.865 497.714, 659.470 497.545, 669.469 497.376, 679.467 497.372, 679.671 507.339, 680.493 513.886, 681.034 523.852, 681.856 526.377, 682.065 533.195, 674.736 533.406, 664.738 533.616, 654.812 533.827, 644.814 533.942, 639.422 534.095, 632.179 " />
            <path fill="none" stroke-width="3.0" stroke-linecap="butt" stroke-opacity="1.0" stroke="rgb(0, 0, 0)" stroke-linejoin="round" d=" M 526.377, 682.065 526.581, 672.067 526.784, 662.069 526.790, 661.781 526.994, 651.783 527.109, 646.112 527.313, 636.114 527.403, 631.678 " />
            <path fill="none" stroke-width="3.0" stroke-linecap="butt" stroke-opacity="1.0" stroke="rgb(0, 0, 0)" stroke-linejoin="round" d=" M 578.732, 599.611 572.928, 602.612 562.956, 601.868 553.381, 601.154 543.406, 600.461 534.778, 599.861 534.990, 589.864 535.201, 579.866 535.255, 577.302 535.467, 567.304 535.587, 561.630 535.691, 556.709 " />
            <path fill="none" stroke-width="3.0" stroke-linecap="butt" stroke-opacity="1.0" stroke="rgb(0, 0, 0)" stroke-linejoin="round" d=" M 527.929, 605.830 528.133, 595.832 528.336, 585.834 528.397, 582.856 528.601, 572.858 528.722, 566.894 528.926, 556.896 528.938, 556.265 535.691, 556.709 545.669, 557.366 548.064, 557.524 558.055, 557.955 566.720, 558.329 575.098, 563.788 580.266, 567.155 581.621, 577.063 582.906, 586.452 579.882, 595.984 578.732, 599.611 577.639, 603.056 " />
            <path fill="none" stroke-width="3.0" stroke-linecap="butt" stroke-opacity="1.0" stroke="rgb(0, 0, 0)" stroke-linejoin="round" d=" M 597.877, 622.533 603.719, 614.417 604.159, 613.806 609.203, 605.718 611.454, 595.975 613.117, 588.773 612.111, 578.824 611.324, 571.042 607.110, 561.973 606.672, 561.030 601.473, 552.488 601.021, 551.745 594.033, 544.592 592.488, 543.010 584.435, 537.081 582.772, 535.857 573.028, 533.607 565.186, 531.797 555.195, 531.375 548.585, 531.096 538.603, 530.501 532.631, 530.146 522.648, 529.551 516.753, 529.200 506.771, 528.606 499.937, 528.199 " />
            <path fill="none" stroke-width="3.0" stroke-linecap="butt" stroke-opacity="1.0" stroke="rgb(0, 0, 0)" stroke-linejoin="round" d=" M 577.639, 603.056 568.754, 607.644 566.770, 608.668 556.799, 607.915 546.868, 607.165 536.893, 606.462 527.929, 605.830 534.778, 599.861 " />
            <path fill="none" stroke-width="3.0" stroke-linecap="butt" stroke-opacity="1.0" stroke="rgb(0, 0, 0)" stroke-linejoin="round" d=" M 380.399, 569.088 379.512, 567.657 374.241, 559.159 372.450, 556.271 367.594, 548.442 362.323, 539.944 359.589, 535.535 354.633, 527.544 349.362, 519.046 347.723, 516.402 337.740, 515.812 327.757, 515.222 317.775, 514.631 317.394, 514.609 308.095, 518.286 306.545, 518.899 311.882, 527.356 317.219, 535.812 321.265, 542.223 326.602, 550.680 331.654, 558.685 336.991, 567.142 342.328, 575.599 343.877, 578.053 349.214, 586.510 352.190, 591.226 356.928, 598.735 351.242, 606.961 345.556, 615.187 344.794, 616.290 339.753, 623.583 334.068, 631.809 332.752, 633.712 327.519, 641.284 322.959, 647.882 317.273, 656.108 311.587, 664.334 308.962, 668.132 318.928, 668.961 328.893, 669.790 338.859, 670.618 339.295, 670.655 347.517, 664.963 349.415, 663.650 355.068, 655.402 360.796, 647.045 366.449, 638.796 368.364, 636.002 373.088, 629.110 376.043, 624.798 " />
            <path fill="none" stroke-width="3.0" stroke-linecap="butt" stroke-opacity="1.0" stroke="rgb(0, 0, 0)" stroke-linejoin="round" d=" M 360.796, 647.045 355.487, 654.789 349.834, 663.038 349.415, 663.650 " />
            <path fill="none" stroke-width="3.0" stroke-linecap="butt" stroke-opacity="1.0" stroke="rgb(0, 0, 0)" stroke-linejoin="round" d=" M 339.295, 670.655 344.941, 662.401 345.462, 661.641 350.849, 653.767 356.495, 645.513 358.533, 642.535 363.329, 635.525 368.975, 627.271 370.569, 624.942 373.503, 620.653 376.043, 624.798 381.268, 633.324 383.431, 636.854 388.213, 644.658 393.438, 653.184 395.974, 657.323 401.199, 665.849 401.319, 666.045 406.544, 674.571 407.626, 676.337 417.592, 677.165 427.557, 677.994 437.523, 678.823 438.694, 678.920 446.271, 672.394 447.128, 671.657 441.813, 663.186 436.498, 654.716 432.992, 649.129 428.414, 641.833 423.174, 633.484 417.859, 625.013 416.193, 622.358 411.185, 614.377 405.870, 605.906 400.554, 597.436 399.194, 595.268 403.946, 588.517 409.702, 580.340 412.316, 576.626 418.072, 568.449 423.828, 560.272 424.700, 559.033 430.079, 551.391 435.299, 543.975 441.055, 535.798 446.811, 527.621 450.434, 522.474 440.452, 521.883 430.469, 521.293 420.487, 520.703 419.341, 520.635 410.372, 525.057 410.264, 525.110 404.646, 533.383 402.959, 535.868 397.878, 543.350 392.260, 551.623 389.515, 555.664 384.506, 563.040 380.399, 569.088 374.781, 577.361 373.599, 579.102 " />
            <path fill="none" stroke-width="3.0" stroke-linecap="butt" stroke-opacity="1.0" stroke="rgb(0, 0, 0)" stroke-linejoin="round" d=" M 373.599, 579.102 369.792, 572.966 364.520, 564.468 362.595, 561.366 357.646, 553.389 352.374, 544.892 349.488, 540.239 344.437, 532.098 339.165, 523.601 337.394, 520.746 " />
            <path fill="none" stroke-width="3.0" stroke-linecap="butt" stroke-opacity="1.0" stroke="rgb(0, 0, 0)" stroke-linejoin="round" d=" M 347.723, 516.402 338.505, 520.279 337.394, 520.746 327.412, 520.148 317.430, 519.551 307.448, 518.953 306.545, 518.899 " />
            <path fill="none" stroke-width="3.0" stroke-linecap="butt" stroke-opacity="1.0" stroke="rgb(0, 0, 0)" stroke-linejoin="round" d=" M 438.694, 678.920 433.378, 670.450 428.061, 661.981 424.289, 655.970 419.625, 648.535 414.283, 640.031 408.969, 631.560 407.171, 628.695 402.066, 620.565 396.749, 612.096 391.433, 603.626 389.846, 601.098 " />
            <path fill="none" stroke-width="3.0" stroke-linecap="butt" stroke-opacity="1.0" stroke="rgb(0, 0, 0)" stroke-linejoin="round" d=" M 424.700, 559.033 418.944, 567.210 417.414, 569.382 412.316, 576.626 " />
            <path fill="none" stroke-width="3.0" stroke-linecap="butt" stroke-opacity="1.0" stroke="rgb(0, 0, 0)" stroke-linejoin="round" d=" M 399.194, 595.268 390.709, 600.560 389.846, 601.098 394.673, 594.229 400.422, 586.046 403.176, 582.128 408.358, 574.754 414.107, 566.572 415.759, 564.222 421.223, 556.444 426.529, 548.895 432.278, 540.713 438.027, 532.531 441.911, 527.005 " />
            <path fill="none" stroke-width="3.0" stroke-linecap="butt" stroke-opacity="1.0" stroke="rgb(0, 0, 0)" stroke-linejoin="round" d=" M 450.434, 522.474 441.911, 527.005 431.928, 526.407 421.946, 525.810 411.964, 525.212 410.264, 525.110 " />
        </g>
    </g>
</svg>
