<?xml version='1.0' encoding='ascii'?>
<svg xmlns="http://www.w3.org/2000/svg" version="1.1" width="1080" height="1080">
    <g id="ViewLayer_LineSet" xmlns:inkscape="http://www.inkscape.org/namespaces/inkscape" inkscape:groupmode="lineset" inkscape:label="ViewLayer_LineSet">
        <g xmlns:inkscape="http://www.inkscape.org/namespaces/inkscape" inkscape:groupmode="layer" id="strokes" inkscape:label="strokes">
            <path fill="none" stroke-width="3.0" stroke-linecap="butt" stroke-opacity="1.0" stroke="rgb(0, 0, 0)" stroke-linejoin="round" d=" M 1001.813, 595.287 1003.707, 605.106 1004.090, 607.094 1003.333, 617.065 1002.891, 622.887 999.547, 632.312 997.665, 637.619 991.505, 645.496 988.734, 649.040 981.518, 655.964 979.679, 657.728 970.105, 660.616 969.495, 660.800 961.773, 663.107 951.806, 662.299 943.408, 661.619 936.087, 658.295 927.076, 653.958 926.125, 653.500 920.117, 645.505 918.967, 643.975 914.009, 635.291 911.861, 631.527 909.982, 621.705 909.505, 619.206 " />
            <path fill="none" stroke-width="3.0" stroke-linecap="butt" stroke-opacity="1.0" stroke="rgb(0, 0, 0)" stroke-linejoin="round" d=" M 888.660, 656.832 894.276, 665.106 896.375, 668.198 903.518, 675.196 905.422, 677.062 913.332, 683.179 913.854, 683.583 922.532, 688.550 924.642, 689.758 934.216, 692.646 942.432, 695.125 952.404, 695.867 961.203, 696.522 971.111, 695.167 979.762, 693.984 989.070, 690.329 991.323, 689.445 1000.174, 684.791 1000.883, 684.418 1009.007, 678.586 1011.424, 676.851 1018.305, 669.594 1020.992, 666.761 1026.737, 658.551 1031.863, 649.964 1032.302, 649.228 1035.306, 639.690 1037.602, 632.403 1038.282, 622.426 1038.806, 614.747 1037.240, 604.870 1036.053, 597.382 1032.319, 588.105 1032.086, 587.527 1029.429, 581.717 1025.113, 572.784 1019.487, 564.516 1017.321, 561.332 1010.244, 554.267 1008.300, 552.326 1000.293, 546.336 999.647, 545.852 991.014, 540.805 988.944, 539.595 979.306, 536.930 970.897, 534.605 960.910, 534.100 952.161, 533.658 942.304, 535.343 933.864, 536.785 924.681, 540.743 922.754, 541.573 914.071, 546.533 913.481, 546.870 905.560, 552.974 903.443, 554.606 896.718, 562.006 894.344, 564.618 888.930, 572.799 883.964, 581.479 883.802, 581.764 880.986, 591.359 879.027, 598.035 878.385, 608.015 877.936, 614.993 877.621, 621.289 879.276, 631.151 880.466, 638.240 884.181, 647.524 884.389, 648.043 888.660, 656.832 " />
            <path fill="none" stroke-width="3.0" stroke-linecap="butt" stroke-opacity="1.0" stroke="rgb(0, 0, 0)" stroke-linejoin="round" d=" M 1003.212, 597.686 1005.105, 607.505 1006.234, 613.362 1005.474, 623.333 1005.007, 629.453 1001.658, 638.875 999.675, 644.455 993.507, 652.326 990.565, 656.080 983.341, 662.995 981.330, 664.920 971.753, 667.796 970.947, 668.038 963.073, 670.379 953.107, 669.562 944.351, 668.844 936.889, 665.450 927.881, 661.108 926.734, 660.555 920.727, 652.561 919.439, 650.848 914.481, 642.164 912.196, 638.162 910.317, 628.340 909.252, 622.771 909.505, 619.206 910.212, 609.231 910.376, 606.913 913.523, 597.421 915.337, 591.950 921.452, 584.038 924.289, 580.368 931.285, 573.222 932.936, 571.536 942.444, 568.439 943.805, 567.996 951.669, 565.643 961.652, 566.234 970.338, 566.748 977.783, 570.095 986.828, 574.360 988.315, 575.061 994.348, 583.036 995.743, 584.880 1000.781, 593.518 1001.813, 595.287 1003.212, 597.686 " />
            <path fill="none" stroke-width="3.0" stroke-linecap="butt" stroke-opacity="1.0" stroke="rgb(0, 0, 0)" stroke-linejoin="round" d=" M 1032.086, 587.527 1027.735, 578.523 1027.686, 578.420 1022.060, 570.153 1019.740, 566.744 1012.664, 559.678 1010.541, 557.558 1002.535, 551.566 1001.716, 550.953 993.085, 545.904 990.802, 544.569 981.165, 541.899 972.397, 539.470 962.410, 538.958 953.290, 538.491 943.431, 540.168 934.633, 541.665 925.446, 545.615 923.305, 546.535 914.618, 551.488 913.851, 551.925 905.926, 558.023 903.618, 559.798 896.888, 567.194 894.343, 569.991 888.824, 578.321 883.855, 586.999 883.597, 587.449 880.780, 597.043 878.731, 604.018 878.090, 613.998 877.621, 621.289 " />
            <path fill="none" stroke-width="3.0" stroke-linecap="butt" stroke-opacity="1.0" stroke="rgb(0, 0, 0)" stroke-linejoin="round" d=" M 643.461, 632.726 647.903, 633.054 657.876, 633.789 662.671, 634.143 672.634, 635.003 679.052, 635.556 689.045, 635.183 696.568, 634.902 705.423, 630.255 705.719, 630.100 714.008, 624.506 715.361, 623.593 721.343, 615.580 721.875, 614.868 727.120, 606.783 730.286, 600.720 732.700, 591.016 734.424, 584.085 733.533, 574.125 732.868, 566.682 728.690, 557.597 728.351, 556.860 723.165, 548.309 722.826, 547.750 715.819, 540.615 714.412, 539.183 706.333, 533.290 704.795, 532.167 695.043, 529.956 687.268, 528.194 677.276, 527.784 670.678, 527.514 660.695, 526.936 654.737, 526.590 644.754, 526.012 638.871, 525.671 628.888, 525.093 622.066, 524.698 616.857, 529.255 616.552, 539.250 616.248, 549.245 616.222, 550.079 615.918, 560.074 615.736, 566.030 615.431, 576.026 615.251, 581.923 614.947, 591.918 614.769, 597.756 614.464, 607.752 614.288, 613.531 613.983, 623.527 613.808, 629.249 613.504, 639.244 613.331, 644.908 613.026, 654.903 612.855, 660.510 612.550, 670.505 612.246, 680.501 612.239, 680.708 622.206, 681.518 629.040, 682.073 639.008, 682.883 641.749, 683.106 646.430, 675.758 646.775, 665.764 647.117, 655.836 647.462, 645.842 647.648, 640.449 647.903, 633.054 " />
            <path fill="none" stroke-width="3.0" stroke-linecap="butt" stroke-opacity="1.0" stroke="rgb(0, 0, 0)" stroke-linejoin="round" d=" M 641.749, 683.106 642.089, 673.112 642.429, 663.118 642.439, 662.825 642.778, 652.831 642.971, 647.158 643.311, 637.164 643.461, 632.726 " />
            <path fill="none" stroke-width="3.0" stroke-linecap="butt" stroke-opacity="1.0" stroke="rgb(0, 0, 0)" stroke-linejoin="round" d=" M 696.663, 599.189 687.819, 603.649 677.846, 602.917 667.937, 602.189 657.960, 601.505 649.013, 600.893 649.358, 590.899 649.703, 580.905 649.791, 578.336 650.136, 568.342 650.332, 562.666 650.506, 557.613 " />
            <path fill="none" stroke-width="3.0" stroke-linecap="butt" stroke-opacity="1.0" stroke="rgb(0, 0, 0)" stroke-linejoin="round" d=" M 644.340, 606.881 644.679, 596.887 645.019, 586.893 645.120, 583.910 645.460, 573.915 645.663, 567.950 646.002, 557.956 646.024, 557.322 650.506, 557.613 660.485, 558.260 665.487, 558.584 675.478, 559.009 684.477, 559.392 692.879, 564.814 698.157, 568.219 699.408, 578.141 700.590, 587.515 697.402, 596.993 696.663, 599.189 695.007, 604.115 " />
            <path fill="none" stroke-width="3.0" stroke-linecap="butt" stroke-opacity="1.0" stroke="rgb(0, 0, 0)" stroke-linejoin="round" d=" M 727.120, 606.783 729.531, 597.078 731.330, 589.841 730.436, 579.881 729.739, 572.111 725.559, 563.026 725.133, 562.100 719.946, 553.550 719.500, 552.814 712.495, 545.679 710.925, 544.080 702.848, 538.184 701.124, 536.925 691.373, 534.707 683.267, 532.864 673.275, 532.447 666.367, 532.159 656.384, 531.573 650.130, 531.206 640.147, 530.621 633.971, 530.259 623.988, 529.673 616.857, 529.255 " />
            <path fill="none" stroke-width="3.0" stroke-linecap="butt" stroke-opacity="1.0" stroke="rgb(0, 0, 0)" stroke-linejoin="round" d=" M 695.007, 604.115 686.074, 608.611 683.862, 609.725 673.889, 608.983 663.917, 608.242 663.612, 608.219 653.636, 607.526 644.340, 606.881 649.013, 600.893 " />
            <path fill="none" stroke-width="3.0" stroke-linecap="butt" stroke-opacity="1.0" stroke="rgb(0, 0, 0)" stroke-linejoin="round" d=" M 457.987, 571.187 456.332, 568.513 451.069, 560.011 449.283, 557.127 444.436, 549.297 439.173, 540.794 436.445, 536.388 431.499, 528.397 426.235, 519.894 424.601, 517.254 414.618, 516.669 404.635, 516.085 394.652, 515.500 393.908, 515.457 384.815, 519.618 384.497, 519.763 389.827, 528.224 395.158, 536.685 399.193, 543.090 404.523, 551.550 409.566, 559.553 414.896, 568.014 420.226, 576.475 421.768, 578.923 427.099, 587.383 430.068, 592.096 434.799, 599.606 429.014, 607.763 423.229, 615.919 422.349, 617.159 417.178, 624.452 411.393, 632.609 409.995, 634.580 404.625, 642.151 399.947, 648.748 394.162, 656.905 388.377, 665.062 385.587, 668.996 395.553, 669.816 405.519, 670.637 415.485, 671.457 416.285, 671.523 424.073, 665.250 425.002, 664.502 430.753, 656.321 436.504, 648.140 436.674, 647.898 442.425, 639.717 444.436, 636.856 449.280, 629.965 453.166, 624.437 " />
            <path fill="none" stroke-width="3.0" stroke-linecap="butt" stroke-opacity="1.0" stroke="rgb(0, 0, 0)" stroke-linejoin="round" d=" M 436.674, 647.898 431.230, 655.641 425.480, 663.822 425.002, 664.502 " />
            <path fill="none" stroke-width="3.0" stroke-linecap="butt" stroke-opacity="1.0" stroke="rgb(0, 0, 0)" stroke-linejoin="round" d=" M 416.285, 671.523 422.031, 663.339 422.613, 662.510 428.141, 654.637 433.887, 646.452 436.025, 643.406 440.947, 636.396 446.693, 628.212 448.376, 625.815 451.387, 621.527 453.166, 624.437 458.383, 632.968 461.295, 637.729 466.067, 645.533 471.284, 654.064 473.812, 658.199 479.029, 666.730 479.146, 666.922 484.363, 675.453 485.440, 677.215 495.407, 678.035 505.373, 678.855 515.339, 679.675 516.883, 679.802 523.870, 672.522 518.562, 664.047 513.253, 655.573 509.758, 649.993 505.187, 642.696 499.956, 634.346 494.648, 625.871 492.986, 623.219 487.986, 615.237 482.678, 606.763 477.369, 598.288 476.016, 596.127 480.888, 589.377 486.740, 581.268 489.468, 577.487 495.321, 569.378 501.173, 561.270 502.165, 559.895 507.679, 552.255 513.031, 544.839 518.883, 536.731 524.736, 528.622 528.548, 523.340 518.565, 522.755 508.582, 522.171 498.599, 521.586 497.081, 521.498 489.488, 525.989 483.770, 534.193 481.991, 536.746 476.777, 544.227 471.059, 552.431 468.195, 556.540 463.055, 563.915 457.987, 571.187 452.269, 579.391 451.862, 579.975 " />
            <path fill="none" stroke-width="3.0" stroke-linecap="butt" stroke-opacity="1.0" stroke="rgb(0, 0, 0)" stroke-linejoin="round" d=" M 451.862, 579.975 448.062, 573.839 442.797, 565.337 440.878, 562.238 435.939, 554.260 430.674, 545.759 427.795, 541.110 422.754, 532.968 417.490, 524.466 415.724, 521.615 " />
            <path fill="none" stroke-width="3.0" stroke-linecap="butt" stroke-opacity="1.0" stroke="rgb(0, 0, 0)" stroke-linejoin="round" d=" M 424.601, 517.254 415.724, 521.615 405.742, 521.023 395.759, 520.431 385.777, 519.839 384.497, 519.763 " />
            <path fill="none" stroke-width="3.0" stroke-linecap="butt" stroke-opacity="1.0" stroke="rgb(0, 0, 0)" stroke-linejoin="round" d=" M 516.883, 679.802 511.573, 671.328 506.264, 662.854 502.502, 656.851 497.846, 649.415 492.513, 640.910 487.206, 632.435 485.413, 629.573 480.316, 621.443 475.006, 612.969 469.697, 604.495 468.117, 601.973 " />
            <path fill="none" stroke-width="3.0" stroke-linecap="butt" stroke-opacity="1.0" stroke="rgb(0, 0, 0)" stroke-linejoin="round" d=" M 502.165, 559.895 496.313, 568.004 494.696, 570.244 489.468, 577.487 " />
            <path fill="none" stroke-width="3.0" stroke-linecap="butt" stroke-opacity="1.0" stroke="rgb(0, 0, 0)" stroke-linejoin="round" d=" M 476.016, 596.127 468.117, 601.973 473.069, 595.105 478.916, 586.993 481.790, 583.006 487.106, 575.633 492.953, 567.521 494.697, 565.102 500.303, 557.325 505.745, 549.776 511.592, 541.664 517.440, 533.552 521.523, 527.888 " />
            <path fill="none" stroke-width="3.0" stroke-linecap="butt" stroke-opacity="1.0" stroke="rgb(0, 0, 0)" stroke-linejoin="round" d=" M 528.548, 523.340 521.523, 527.888 511.541, 527.297 501.558, 526.705 491.576, 526.113 489.488, 525.989 " />
        </g>
    </g>
</svg>
