<?xml version='1.0' encoding='ascii'?>
<svg xmlns="http://www.w3.org/2000/svg" version="1.1" width="1080" height="1080">
    <g id="ViewLayer_LineSet" xmlns:inkscape="http://www.inkscape.org/namespaces/inkscape" inkscape:groupmode="lineset" inkscape:label="ViewLayer_LineSet">
        <g xmlns:inkscape="http://www.inkscape.org/namespaces/inkscape" inkscape:groupmode="layer" id="strokes" inkscape:label="strokes">
            <path fill="none" stroke-width="3.0" stroke-linecap="butt" stroke-opacity="1.0" stroke="rgb(0, 0, 0)" stroke-linejoin="round" d=" M 937.441, 607.976 936.761, 617.953 936.466, 622.284 933.211, 631.740 931.395, 637.017 925.309, 644.951 922.632, 648.440 915.475, 655.424 913.728, 657.129 904.164, 660.050 903.666, 660.202 896.036, 662.509 886.069, 661.695 877.841, 661.024 870.569, 657.700 861.569, 653.340 860.671, 652.905 854.665, 644.909 853.517, 643.381 848.549, 634.702 846.392, 630.933 844.465, 621.120 843.425, 615.824 844.055, 605.844 844.168, 604.046 " />
            <path fill="none" stroke-width="3.0" stroke-linecap="butt" stroke-opacity="1.0" stroke="rgb(0, 0, 0)" stroke-linejoin="round" d=" M 822.303, 656.229 827.921, 664.502 830.022, 667.595 837.154, 674.604 839.042, 676.459 846.939, 682.593 847.436, 682.979 856.102, 687.969 858.161, 689.154 867.728, 692.063 875.810, 694.519 885.782, 695.268 894.403, 695.915 904.309, 694.545 912.758, 693.376 922.049, 689.679 924.170, 688.835 932.994, 684.129 933.598, 683.807 941.679, 677.915 943.979, 676.238 950.795, 668.921 953.378, 666.147 959.007, 657.935 964.048, 649.299 964.449, 648.612 967.363, 639.046 969.575, 631.785 970.177, 621.803 970.640, 614.127 969.021, 604.259 967.790, 596.762 966.375, 590.776 962.616, 581.509 962.454, 581.108 958.117, 572.175 952.490, 563.909 950.321, 560.724 943.254, 553.649 941.325, 551.718 933.331, 545.710 932.712, 545.244 924.091, 540.176 922.071, 538.988 912.438, 536.303 904.166, 533.999 894.179, 533.490 885.607, 533.053 875.753, 534.757 867.513, 536.182 858.348, 540.185 856.545, 540.972 847.893, 545.985 847.401, 546.270 839.526, 552.434 837.516, 554.007 830.857, 561.467 828.577, 564.020 823.274, 572.203 818.392, 580.930 818.259, 581.169 815.531, 590.789 813.646, 597.442 812.095, 603.413 811.531, 613.397 811.119, 620.685 812.827, 630.538 814.058, 637.637 817.798, 646.911 818.012, 647.440 822.303, 656.229 " />
            <path fill="none" stroke-width="3.0" stroke-linecap="butt" stroke-opacity="1.0" stroke="rgb(0, 0, 0)" stroke-linejoin="round" d=" M 938.385, 612.746 937.704, 622.723 937.287, 628.837 934.028, 638.292 932.115, 643.841 926.022, 651.770 923.180, 655.468 916.016, 662.445 914.102, 664.310 904.534, 667.219 903.844, 667.428 896.067, 669.770 886.101, 668.946 877.522, 668.236 870.110, 664.843 861.113, 660.478 860.022, 659.949 854.017, 651.954 852.731, 650.242 847.763, 641.563 845.469, 637.556 843.540, 627.744 842.444, 622.165 843.072, 612.184 843.443, 606.305 844.168, 604.046 847.225, 594.524 848.247, 591.341 854.287, 583.371 857.026, 579.757 863.958, 572.550 865.523, 570.923 875.019, 567.790 876.257, 567.382 884.026, 565.029 894.008, 565.625 902.514, 566.132 909.909, 569.479 918.943, 573.766 920.371, 574.444 926.402, 582.420 927.795, 584.263 932.842, 592.896 935.281, 597.068 937.223, 606.878 937.441, 607.976 938.385, 612.746 " />
            <path fill="none" stroke-width="3.0" stroke-linecap="butt" stroke-opacity="1.0" stroke="rgb(0, 0, 0)" stroke-linejoin="round" d=" M 967.790, 596.762 964.031, 587.495 963.793, 586.907 959.425, 577.911 959.371, 577.800 953.743, 569.533 951.421, 566.123 944.355, 559.047 942.248, 556.938 934.256, 550.928 933.465, 550.333 924.846, 545.263 922.614, 543.949 912.982, 541.260 904.357, 538.852 894.371, 538.336 885.435, 537.875 875.580, 539.571 866.988, 541.050 857.821, 545.045 855.809, 545.922 847.153, 550.929 846.488, 551.313 838.610, 557.472 836.415, 559.188 829.752, 566.644 827.305, 569.382 821.902, 577.713 817.018, 586.439 816.793, 586.842 814.065, 596.463 812.095, 603.413 " />
            <path fill="none" stroke-width="3.0" stroke-linecap="butt" stroke-opacity="1.0" stroke="rgb(0, 0, 0)" stroke-linejoin="round" d=" M 586.596, 632.212 592.140, 632.624 602.112, 633.365 605.643, 633.628 615.606, 634.494 621.888, 635.040 631.880, 634.662 639.243, 634.384 648.074, 629.691 648.282, 629.581 656.536, 623.936 657.797, 623.073 663.711, 615.010 664.197, 614.347 668.547, 608.152 673.603, 600.208 675.940, 590.485 677.602, 583.571 676.657, 573.616 675.950, 566.168 671.756, 557.090 671.411, 556.345 666.220, 547.798 665.878, 547.235 658.879, 540.092 657.484, 538.668 649.417, 532.759 647.907, 531.654 638.158, 529.428 630.508, 527.681 620.517, 527.269 614.059, 527.002 604.076, 526.420 598.251, 526.080 588.268, 525.498 582.518, 525.162 572.535, 524.580 565.854, 524.190 559.569, 528.737 559.331, 538.734 559.093, 548.731 559.073, 549.563 558.834, 559.560 558.692, 565.515 558.454, 575.512 558.313, 581.408 558.075, 591.405 557.936, 597.243 557.697, 607.240 557.560, 613.019 557.321, 623.016 557.185, 628.737 556.946, 638.734 556.811, 644.397 556.573, 654.394 556.439, 660.000 556.201, 669.997 555.963, 679.995 555.958, 680.199 565.924, 681.015 572.618, 681.563 582.584, 682.380 585.220, 682.595 590.948, 675.257 591.227, 665.261 591.505, 655.334 591.784, 645.338 591.935, 639.945 592.140, 632.624 " />
            <path fill="none" stroke-width="3.0" stroke-linecap="butt" stroke-opacity="1.0" stroke="rgb(0, 0, 0)" stroke-linejoin="round" d=" M 585.220, 682.595 585.493, 672.599 585.766, 662.603 585.774, 662.313 586.047, 652.317 586.202, 646.645 586.475, 636.649 586.596, 632.212 " />
            <path fill="none" stroke-width="3.0" stroke-linecap="butt" stroke-opacity="1.0" stroke="rgb(0, 0, 0)" stroke-linejoin="round" d=" M 638.875, 599.389 631.526, 603.140 621.553, 602.403 611.808, 601.682 601.831, 600.993 593.041, 600.387 593.320, 590.391 593.600, 580.395 593.672, 577.829 593.951, 567.833 594.110, 562.158 594.249, 557.169 " />
            <path fill="none" stroke-width="3.0" stroke-linecap="butt" stroke-opacity="1.0" stroke="rgb(0, 0, 0)" stroke-linejoin="round" d=" M 587.302, 606.366 587.575, 596.369 587.848, 586.373 587.929, 583.393 588.202, 573.397 588.365, 567.432 588.638, 557.436 588.655, 556.804 594.249, 557.169 604.228, 557.821 607.953, 558.064 617.944, 558.492 626.779, 558.871 635.170, 564.311 640.393, 567.697 641.696, 577.612 642.928, 586.994 639.820, 596.499 638.875, 599.389 637.500, 603.596 " />
            <path fill="none" stroke-width="3.0" stroke-linecap="butt" stroke-opacity="1.0" stroke="rgb(0, 0, 0)" stroke-linejoin="round" d=" M 664.197, 614.347 669.344, 606.261 671.677, 596.537 673.409, 589.317 672.460, 579.363 671.719, 571.587 667.522, 562.510 667.090, 561.576 661.898, 553.029 661.448, 552.290 654.451, 545.146 652.894, 543.555 644.829, 537.643 643.135, 536.401 633.387, 534.168 625.410, 532.341 615.419, 531.921 608.657, 531.637 598.674, 531.048 592.559, 530.686 582.576, 530.096 576.537, 529.740 566.555, 529.150 559.569, 528.737 " />
            <path fill="none" stroke-width="3.0" stroke-linecap="butt" stroke-opacity="1.0" stroke="rgb(0, 0, 0)" stroke-linejoin="round" d=" M 637.500, 603.596 628.590, 608.136 626.490, 609.207 616.518, 608.459 606.411, 607.702 596.435, 607.004 587.302, 606.366 593.041, 600.387 " />
            <path fill="none" stroke-width="3.0" stroke-linecap="butt" stroke-opacity="1.0" stroke="rgb(0, 0, 0)" stroke-linejoin="round" d=" M 412.765, 569.967 411.554, 568.014 406.287, 559.514 404.498, 556.628 399.646, 548.798 394.378, 540.298 391.646, 535.891 386.694, 527.900 381.427, 519.400 379.789, 516.757 369.807, 516.169 359.824, 515.582 349.841, 514.994 349.309, 514.963 340.087, 518.829 339.060, 519.259 344.394, 527.718 349.728, 536.176 353.769, 542.585 359.104, 551.043 364.152, 559.047 369.486, 567.505 374.820, 575.964 376.366, 578.416 381.700, 586.874 384.674, 591.589 389.409, 599.098 383.681, 607.295 377.954, 615.492 377.143, 616.652 372.048, 623.945 366.321, 632.143 364.971, 634.074 359.681, 641.646 355.071, 648.243 349.344, 656.440 343.616, 664.638 340.923, 668.493 350.889, 669.318 360.855, 670.143 370.821, 670.968 371.408, 671.017 379.465, 665.093 380.943, 664.005 386.638, 655.785 392.446, 647.401 398.140, 639.180 400.095, 636.358 404.869, 629.466 408.210, 624.644 " />
            <path fill="none" stroke-width="3.0" stroke-linecap="butt" stroke-opacity="1.0" stroke="rgb(0, 0, 0)" stroke-linejoin="round" d=" M 392.446, 647.401 387.081, 655.144 381.387, 663.365 380.943, 664.005 " />
            <path fill="none" stroke-width="3.0" stroke-linecap="butt" stroke-opacity="1.0" stroke="rgb(0, 0, 0)" stroke-linejoin="round" d=" M 371.408, 671.017 377.097, 662.792 377.642, 662.004 383.088, 654.130 388.776, 645.905 390.856, 642.898 395.704, 635.888 401.392, 627.664 403.023, 625.306 405.989, 621.017 408.210, 624.644 413.431, 633.172 415.909, 637.219 420.687, 645.023 425.909, 653.551 428.441, 657.688 433.663, 666.217 433.782, 666.411 439.004, 674.939 440.083, 676.703 450.049, 677.528 460.015, 678.353 469.981, 679.178 471.308, 679.288 478.636, 672.484 479.138, 672.017 473.826, 663.545 468.513, 655.073 465.012, 649.489 460.437, 642.193 455.201, 633.843 449.888, 625.371 448.224, 622.717 443.220, 614.736 437.907, 606.264 432.595, 597.791 431.237, 595.626 436.040, 588.876 441.836, 580.727 444.497, 576.985 450.294, 568.837 456.090, 560.688 457.012, 559.392 462.447, 551.751 467.722, 544.336 473.519, 536.187 479.315, 528.038 483.016, 522.835 473.034, 522.247 463.051, 521.659 453.068, 521.072 451.767, 520.995 443.310, 525.477 437.650, 533.721 435.924, 536.234 430.788, 543.716 425.128, 551.960 422.334, 556.029 417.270, 563.405 412.765, 569.967 407.105, 578.211 406.243, 579.466 " />
            <path fill="none" stroke-width="3.0" stroke-linecap="butt" stroke-opacity="1.0" stroke="rgb(0, 0, 0)" stroke-linejoin="round" d=" M 406.243, 579.466 402.439, 573.330 397.170, 564.830 395.248, 561.729 390.303, 553.752 385.034, 545.253 382.151, 540.602 377.104, 532.461 371.835, 523.961 370.067, 521.108 " />
            <path fill="none" stroke-width="3.0" stroke-linecap="butt" stroke-opacity="1.0" stroke="rgb(0, 0, 0)" stroke-linejoin="round" d=" M 379.789, 516.757 370.662, 520.842 370.067, 521.108 360.085, 520.513 350.102, 519.918 340.120, 519.322 339.060, 519.259 " />
            <path fill="none" stroke-width="3.0" stroke-linecap="butt" stroke-opacity="1.0" stroke="rgb(0, 0, 0)" stroke-linejoin="round" d=" M 471.308, 679.288 465.994, 670.816 460.681, 662.345 456.912, 656.337 452.252, 648.902 446.914, 640.398 441.602, 631.925 439.807, 629.061 434.705, 620.931 429.391, 612.460 424.078, 603.988 422.494, 601.463 " />
            <path fill="none" stroke-width="3.0" stroke-linecap="butt" stroke-opacity="1.0" stroke="rgb(0, 0, 0)" stroke-linejoin="round" d=" M 457.012, 559.392 451.215, 567.541 449.649, 569.742 444.497, 576.985 " />
            <path fill="none" stroke-width="3.0" stroke-linecap="butt" stroke-opacity="1.0" stroke="rgb(0, 0, 0)" stroke-linejoin="round" d=" M 431.237, 595.626 422.920, 601.178 422.494, 601.463 427.373, 594.594 433.163, 586.441 435.967, 582.494 441.204, 575.121 446.995, 566.968 448.685, 564.589 454.208, 556.811 459.571, 549.263 465.361, 541.110 471.152, 532.957 475.118, 527.373 " />
            <path fill="none" stroke-width="3.0" stroke-linecap="butt" stroke-opacity="1.0" stroke="rgb(0, 0, 0)" stroke-linejoin="round" d=" M 483.016, 522.835 475.118, 527.373 465.136, 526.778 455.153, 526.183 445.171, 525.588 443.310, 525.477 " />
        </g>
    </g>
</svg>
