<?xml version='1.0' encoding='ascii'?>
<svg xmlns="http://www.w3.org/2000/svg" version="1.1" width="1080" height="1080">
    <g id="ViewLayer_LineSet" xmlns:inkscape="http://www.inkscape.org/namespaces/inkscape" inkscape:groupmode="lineset" inkscape:label="ViewLayer_LineSet">
        <g xmlns:inkscape="http://www.inkscape.org/namespaces/inkscape" inkscape:groupmode="layer" id="strokes" inkscape:label="strokes">
            <path fill="none" stroke-width="3.0" stroke-linecap="butt" stroke-opacity="1.0" stroke="rgb(0, 0, 0)" stroke-linejoin="round" d=" M 572.357, 645.904 572.614, 635.907 572.743, 630.881 572.999, 620.884 573.130, 615.805 573.386, 605.808 573.518, 600.675 573.775, 590.679 573.908, 585.492 574.165, 575.495 574.299, 570.255 574.556, 560.258 574.692, 554.964 574.949, 544.967 575.086, 539.618 575.343, 529.621 575.600, 519.586 565.617, 519.011 555.634, 518.436 547.148, 517.948 540.675, 522.263 540.459, 532.260 540.243, 542.258 540.236, 542.574 540.019, 552.572 539.899, 558.133 539.683, 568.131 539.564, 573.636 539.347, 583.634 539.229, 589.083 539.013, 599.081 538.896, 604.475 538.680, 614.473 538.564, 619.811 538.348, 629.809 538.234, 635.093 538.017, 645.091 537.904, 650.320 537.688, 660.318 537.478, 670.034 547.445, 670.838 557.413, 671.641 565.923, 672.326 571.857, 665.355 572.114, 655.358 572.357, 645.904 " />
            <path fill="none" stroke-width="3.0" stroke-linecap="butt" stroke-opacity="1.0" stroke="rgb(0, 0, 0)" stroke-linejoin="round" d=" M 565.923, 672.326 566.173, 662.330 566.418, 652.533 566.668, 642.536 566.800, 637.244 567.050, 627.247 567.184, 621.901 567.433, 611.904 567.569, 606.502 567.818, 596.505 567.955, 591.047 568.205, 581.050 568.343, 575.536 568.593, 565.539 568.732, 559.969 568.982, 549.973 569.122, 544.346 569.372, 534.349 569.622, 524.352 569.632, 523.950 " />
            <path fill="none" stroke-width="3.0" stroke-linecap="butt" stroke-opacity="1.0" stroke="rgb(0, 0, 0)" stroke-linejoin="round" d=" M 575.600, 519.586 569.632, 523.950 559.649, 523.369 549.666, 522.787 540.675, 522.263 " />
            <path fill="none" stroke-width="3.0" stroke-linecap="butt" stroke-opacity="1.0" stroke="rgb(0, 0, 0)" stroke-linejoin="round" d=" M 278.124, 581.970 276.306, 578.246 274.497, 574.537 271.098, 567.570 268.822, 562.905 266.988, 559.146 263.521, 552.039 261.328, 547.545 259.470, 543.736 255.934, 536.490 253.826, 532.168 251.943, 528.310 248.340, 520.923 246.315, 516.773 244.408, 512.864 240.998, 505.875 234.826, 505.515 227.691, 505.098 220.573, 504.682 212.760, 504.225 208.327, 505.641 204.923, 506.729 200.387, 508.178 200.525, 515.932 200.662, 523.624 200.798, 531.302 200.934, 538.967 201.070, 546.618 201.206, 554.255 201.341, 561.880 201.476, 569.490 201.611, 577.087 201.746, 584.671 201.880, 592.241 202.014, 599.798 202.148, 607.341 202.282, 614.872 202.415, 622.389 202.549, 629.892 202.682, 637.383 202.814, 644.860 202.948, 652.372 210.758, 653.013 217.874, 653.597 225.006, 654.182 229.260, 654.531 233.552, 652.156 236.774, 650.372 240.971, 648.050 240.872, 640.636 240.774, 633.256 240.676, 625.863 240.578, 618.458 240.480, 611.039 240.381, 603.608 240.282, 596.164 240.183, 588.707 240.133, 584.903 " />
            <path fill="none" stroke-width="3.0" stroke-linecap="butt" stroke-opacity="1.0" stroke="rgb(0, 0, 0)" stroke-linejoin="round" d=" M 227.939, 564.444 228.085, 574.443 228.151, 578.948 228.263, 586.562 228.375, 594.162 228.486, 601.749 228.597, 609.323 228.708, 616.883 228.818, 624.429 228.929, 631.963 229.039, 639.483 229.149, 646.990 229.260, 654.531 " />
            <path fill="none" stroke-width="3.0" stroke-linecap="butt" stroke-opacity="1.0" stroke="rgb(0, 0, 0)" stroke-linejoin="round" d=" M 230.028, 564.429 234.453, 573.396 234.669, 573.833 238.005, 580.592 240.133, 584.903 242.343, 589.383 245.756, 596.297 250.008, 604.914 253.497, 611.984 255.778, 616.604 257.664, 620.428 261.230, 627.653 264.044, 633.356 267.897, 633.657 275.164, 634.226 279.029, 634.529 283.042, 632.259 286.055, 630.554 289.978, 628.335 292.665, 623.135 296.076, 616.535 297.883, 613.036 300.070, 608.804 303.423, 602.316 307.519, 594.389 310.814, 588.013 312.590, 584.576 314.465, 580.947 " />
            <path fill="none" stroke-width="3.0" stroke-linecap="butt" stroke-opacity="1.0" stroke="rgb(0, 0, 0)" stroke-linejoin="round" d=" M 229.084, 509.876 232.560, 516.992 234.503, 520.971 236.567, 525.195 240.239, 532.716 242.158, 536.644 244.307, 541.044 247.910, 548.421 249.806, 552.297 252.038, 556.873 255.571, 564.108 257.440, 567.934 259.760, 572.683 263.224, 579.776 265.068, 583.552 267.473, 588.475 271.062, 595.824 271.320, 595.318 274.571, 588.940 276.946, 584.280 278.124, 581.970 278.738, 580.765 282.088, 574.195 284.371, 569.716 286.200, 566.127 289.649, 559.361 291.839, 555.065 293.707, 551.401 297.257, 544.438 299.351, 540.327 301.258, 536.588 304.910, 529.425 306.909, 525.503 308.854, 521.686 312.362, 514.806 316.233, 513.287 319.138, 512.147 322.919, 510.664 329.067, 511.023 336.433, 511.453 343.815, 511.885 351.955, 512.361 351.957, 520.141 351.959, 527.858 351.960, 535.562 351.962, 543.253 351.964, 550.929 351.966, 558.592 351.967, 566.241 351.969, 573.877 351.971, 581.499 351.972, 589.107 351.974, 596.703 351.976, 604.284 351.978, 611.852 351.979, 619.407 351.981, 626.948 351.983, 634.477 351.984, 641.991 351.986, 649.493 351.988, 657.029 348.443, 659.451 345.720, 661.311 342.093, 663.789 333.956, 663.121 326.576, 662.516 319.213, 661.912 314.836, 661.552 314.801, 653.916 314.766, 646.313 314.731, 638.697 314.696, 631.068 314.661, 623.425 314.626, 615.768 314.590, 608.097 314.555, 600.412 314.520, 592.714 314.484, 585.002 314.465, 580.947 314.420, 570.947 314.417, 570.289 314.396, 565.872 " />
            <path fill="none" stroke-width="3.0" stroke-linecap="butt" stroke-opacity="1.0" stroke="rgb(0, 0, 0)" stroke-linejoin="round" d=" M 240.998, 505.875 236.730, 507.309 233.452, 508.410 229.084, 509.876 222.812, 509.505 215.561, 509.076 208.327, 508.648 200.387, 508.178 " />
            <path fill="none" stroke-width="3.0" stroke-linecap="butt" stroke-opacity="1.0" stroke="rgb(0, 0, 0)" stroke-linejoin="round" d=" M 223.745, 571.025 227.939, 564.444 227.939, 564.444 230.028, 564.429 238.092, 564.368 " />
            <path fill="none" stroke-width="3.0" stroke-linecap="butt" stroke-opacity="1.0" stroke="rgb(0, 0, 0)" stroke-linejoin="round" d=" M 303.423, 602.316 305.213, 598.849 307.519, 594.389 " />
            <path fill="none" stroke-width="3.0" stroke-linecap="butt" stroke-opacity="1.0" stroke="rgb(0, 0, 0)" stroke-linejoin="round" d=" M 307.692, 578.888 304.411, 585.258 301.954, 590.026 300.153, 593.522 296.812, 600.007 294.477, 604.542 292.660, 608.069 289.260, 614.667 287.043, 618.971 285.210, 622.530 281.752, 629.241 279.029, 634.529 " />
            <path fill="none" stroke-width="3.0" stroke-linecap="butt" stroke-opacity="1.0" stroke="rgb(0, 0, 0)" stroke-linejoin="round" d=" M 341.888, 516.553 341.899, 524.474 341.910, 532.330 341.921, 540.173 341.932, 548.001 341.943, 555.815 341.954, 563.615 341.965, 571.401 341.975, 579.172 341.986, 586.930 341.997, 594.674 342.008, 602.403 342.018, 610.119 342.029, 617.820 342.040, 625.508 342.050, 633.182 342.061, 640.842 342.072, 648.489 342.082, 656.122 342.093, 663.789 " />
            <path fill="none" stroke-width="3.0" stroke-linecap="butt" stroke-opacity="1.0" stroke="rgb(0, 0, 0)" stroke-linejoin="round" d=" M 351.955, 512.361 348.349, 513.862 345.579, 515.016 341.888, 516.553 333.610, 516.063 326.103, 515.619 318.613, 515.176 312.362, 514.806 " />
            <path fill="none" stroke-width="3.0" stroke-linecap="butt" stroke-opacity="1.0" stroke="rgb(0, 0, 0)" stroke-linejoin="round" d=" M 318.836, 569.835 314.396, 565.872 311.993, 570.538 307.692, 578.888 311.987, 570.539 " />
            <path fill="none" stroke-width="3.0" stroke-linecap="butt" stroke-opacity="1.0" stroke="rgb(0, 0, 0)" stroke-linejoin="round" d=" M 314.396, 565.872 311.987, 570.539 " />
            <path fill="none" stroke-width="3.0" stroke-linecap="butt" stroke-opacity="1.0" stroke="rgb(0, 0, 0)" stroke-linejoin="round" d=" M 110.964, 574.112 107.900, 569.854 102.239, 561.983 96.399, 553.866 95.498, 552.612 89.934, 544.875 84.094, 536.758 83.096, 535.370 77.628, 527.768 71.789, 519.650 70.695, 518.129 65.322, 510.661 59.483, 502.543 55.668, 497.241 45.686, 496.654 44.581, 496.589 35.817, 496.074 26.102, 498.446 20.639, 499.780 21.024, 509.772 21.383, 519.095 21.768, 529.088 21.953, 533.895 22.338, 543.888 22.521, 548.644 22.906, 558.637 23.087, 563.343 23.472, 573.335 23.651, 577.991 24.036, 587.984 24.214, 592.590 24.598, 602.583 24.774, 607.139 25.159, 617.132 25.332, 621.639 25.717, 631.631 26.055, 640.416 34.815, 641.138 44.781, 641.960 50.970, 642.470 60.183, 638.581 65.445, 636.360 65.106, 626.366 64.817, 617.822 64.478, 607.828 64.332, 603.508 63.993, 593.514 63.846, 589.145 63.507, 579.151 63.357, 574.734 63.323, 573.725 " />
            <path fill="none" stroke-width="3.0" stroke-linecap="butt" stroke-opacity="1.0" stroke="rgb(0, 0, 0)" stroke-linejoin="round" d=" M 50.970, 642.470 50.615, 632.477 50.299, 623.621 49.944, 613.628 49.781, 609.066 49.426, 599.072 49.261, 594.461 48.906, 584.467 48.740, 579.805 48.384, 569.812 48.028, 559.818 47.762, 552.330 53.644, 560.417 57.730, 566.036 63.323, 573.725 64.526, 575.378 70.272, 583.280 76.154, 591.367 77.157, 592.746 82.815, 600.525 88.696, 608.613 89.788, 610.115 95.360, 617.773 101.242, 625.860 103.815, 629.399 108.489, 635.824 114.371, 643.911 117.301, 647.941 127.267, 648.763 129.615, 648.956 138.674, 649.703 147.686, 645.371 151.825, 643.382 151.587, 633.385 151.379, 624.599 151.141, 614.602 151.034, 610.095 150.797, 600.097 150.689, 595.541 150.451, 585.544 150.342, 580.937 150.104, 570.940 149.994, 566.284 149.756, 556.287 149.645, 551.580 149.407, 541.583 149.294, 536.826 149.057, 526.829 148.943, 522.022 148.705, 512.025 148.489, 502.901 139.427, 502.368 129.444, 501.781 122.849, 501.393 113.216, 504.077 109.014, 505.247 109.297, 515.243 109.562, 524.625 109.845, 534.621 109.987, 539.628 110.270, 549.624 110.411, 554.579 110.694, 564.575 110.832, 569.478 110.964, 574.112 111.247, 584.108 111.253, 584.325 111.536, 594.321 111.684, 599.536 " />
            <path fill="none" stroke-width="3.0" stroke-linecap="butt" stroke-opacity="1.0" stroke="rgb(0, 0, 0)" stroke-linejoin="round" d=" M 111.684, 599.536 107.116, 593.185 101.277, 585.066 98.847, 581.687 93.950, 574.880 88.189, 566.870 82.349, 558.753 81.328, 557.333 75.666, 549.459 69.826, 541.341 68.706, 539.785 63.142, 532.049 57.305, 523.929 56.089, 522.237 50.618, 514.638 44.778, 506.520 40.793, 500.980 " />
            <path fill="none" stroke-width="3.0" stroke-linecap="butt" stroke-opacity="1.0" stroke="rgb(0, 0, 0)" stroke-linejoin="round" d=" M 55.668, 497.241 45.970, 499.679 40.793, 500.980 30.811, 500.385 29.536, 500.310 20.639, 499.780 " />
            <path fill="none" stroke-width="3.0" stroke-linecap="butt" stroke-opacity="1.0" stroke="rgb(0, 0, 0)" stroke-linejoin="round" d=" M 138.674, 649.703 138.421, 639.706 138.190, 630.601 137.937, 620.604 137.817, 615.849 137.564, 605.852 137.442, 601.046 137.189, 591.049 137.066, 586.192 136.813, 576.195 136.689, 571.286 136.436, 561.289 136.310, 556.328 136.057, 546.331 135.930, 541.317 135.677, 531.320 135.549, 526.254 135.296, 516.258 135.057, 506.799 " />
            <path fill="none" stroke-width="3.0" stroke-linecap="butt" stroke-opacity="1.0" stroke="rgb(0, 0, 0)" stroke-linejoin="round" d=" M 148.489, 502.901 138.885, 505.688 135.057, 506.799 125.852, 506.251 115.870, 505.656 109.014, 505.247 " />
            <path fill="none" stroke-width="3.0" stroke-linecap="butt" stroke-opacity="1.0" stroke="rgb(0, 0, 0)" stroke-linejoin="round" d=" M 992.994, 601.220 986.572, 608.885 980.150, 616.550 979.580, 617.231 973.579, 624.395 967.157, 632.060 965.243, 634.345 958.821, 642.010 953.581, 648.265 947.160, 655.930 940.738, 663.596 936.913, 668.161 937.699, 675.221 947.670, 675.986 957.640, 676.751 967.611, 677.517 971.035, 677.779 977.429, 670.090 978.524, 668.774 984.917, 661.085 985.066, 660.906 991.460, 653.217 994.398, 649.684 1000.222, 642.679 1006.616, 634.990 1009.015, 632.106 1012.578, 627.821 1017.737, 636.387 1022.341, 644.033 1027.043, 651.841 1032.201, 660.408 1034.674, 664.515 1039.833, 673.081 1039.930, 673.243 1045.089, 681.809 1046.132, 683.541 1056.102, 684.307 1066.073, 685.072 1076.044, 685.837 1080.276, 686.161 1076.833, 678.758 1071.573, 670.254 1066.312, 661.749 1062.889, 656.215 1058.373, 648.914 1053.204, 640.559 1047.943, 632.055 1046.318, 629.426 1041.377, 621.439 1036.117, 612.935 1032.761, 607.511 " />
            <path fill="none" stroke-width="3.0" stroke-linecap="butt" stroke-opacity="1.0" stroke="rgb(0, 0, 0)" stroke-linejoin="round" d=" M 1091.397, 529.583 1081.412, 529.036 1071.427, 528.488 1061.442, 527.941 1057.233, 527.710 1050.872, 535.426 1044.511, 543.142 1042.474, 545.613 1036.113, 553.329 1032.509, 557.701 1026.539, 564.943 1020.178, 572.658 1013.816, 580.374 1013.538, 580.712 1009.858, 574.685 1004.647, 566.150 1002.902, 563.291 998.119, 555.457 992.907, 546.922 990.233, 542.541 985.351, 534.545 980.140, 526.010 978.544, 523.395 968.559, 522.848 958.574, 522.300 948.589, 521.753 945.221, 521.568 946.177, 525.992 951.461, 534.482 956.745, 542.972 960.703, 549.333 965.744, 557.433 970.956, 565.806 976.239, 574.296 981.523, 582.787 983.017, 585.188 988.301, 593.678 991.221, 598.370 992.994, 601.220 995.896, 605.884 989.467, 613.543 983.038, 621.203 981.174, 623.424 975.058, 630.711 968.629, 638.370 966.564, 640.831 960.214, 648.397 954.681, 654.989 948.252, 662.648 941.823, 670.308 937.699, 675.221 " />
            <path fill="none" stroke-width="3.0" stroke-linecap="butt" stroke-opacity="1.0" stroke="rgb(0, 0, 0)" stroke-linejoin="round" d=" M 1015.788, 586.271 1012.039, 580.130 1006.828, 571.596 1004.952, 568.523 1000.079, 560.541 994.867, 552.006 992.044, 547.382 987.070, 539.235 981.859, 530.700 980.134, 527.875 " />
            <path fill="none" stroke-width="3.0" stroke-linecap="butt" stroke-opacity="1.0" stroke="rgb(0, 0, 0)" stroke-linejoin="round" d=" M 978.544, 523.395 980.134, 527.875 970.150, 527.321 960.165, 526.768 950.180, 526.214 946.177, 525.992 " />
            <path fill="none" stroke-width="3.0" stroke-linecap="butt" stroke-opacity="1.0" stroke="rgb(0, 0, 0)" stroke-linejoin="round" d=" M 1080.276, 686.161 1075.015, 677.657 1069.754, 669.153 1066.069, 663.196 1061.468, 655.755 1056.202, 647.246 1050.942, 638.741 1049.185, 635.901 1044.153, 627.766 1038.892, 619.262 1033.631, 610.757 1032.102, 608.285 1032.761, 607.511 1037.950, 601.422 1044.436, 593.810 1048.252, 589.331 1054.530, 581.964 1061.016, 574.352 1063.497, 571.441 1069.982, 563.829 1070.118, 563.669 1076.546, 556.127 1083.031, 548.515 1089.517, 540.904 1095.182, 534.255 " />
            <path fill="none" stroke-width="3.0" stroke-linecap="butt" stroke-opacity="1.0" stroke="rgb(0, 0, 0)" stroke-linejoin="round" d=" M 1042.474, 545.613 1048.529, 538.270 1054.890, 530.553 1057.233, 527.710 1060.347, 532.323 " />
            <path fill="none" stroke-width="3.0" stroke-linecap="butt" stroke-opacity="1.0" stroke="rgb(0, 0, 0)" stroke-linejoin="round" d=" M 1095.182, 534.255 1085.198, 533.701 1075.213, 533.148 1065.228, 532.594 1060.347, 532.323 1053.978, 540.033 1051.468, 543.072 1045.294, 550.548 1038.925, 558.258 1035.131, 562.852 1029.044, 570.223 1022.676, 577.933 1016.307, 585.643 1015.788, 586.271 1013.538, 580.712 " />
            <path fill="none" stroke-width="3.0" stroke-linecap="butt" stroke-opacity="1.0" stroke="rgb(0, 0, 0)" stroke-linejoin="round" d=" M 311.993, 570.538 314.417, 570.289 " />
        </g>
    </g>
</svg>
