<?xml version='1.0' encoding='ascii'?>
<svg xmlns="http://www.w3.org/2000/svg" version="1.1" width="1080" height="1080">
    <g id="ViewLayer_LineSet" xmlns:inkscape="http://www.inkscape.org/namespaces/inkscape" inkscape:groupmode="lineset" inkscape:label="ViewLayer_LineSet">
        <g xmlns:inkscape="http://www.inkscape.org/namespaces/inkscape" inkscape:groupmode="layer" id="strokes" inkscape:label="strokes">
            <path fill="none" stroke-width="3.0" stroke-linecap="butt" stroke-opacity="1.0" stroke="rgb(0, 0, 0)" stroke-linejoin="round" d=" M 692.846, 648.635 693.244, 638.643 693.444, 633.617 693.842, 623.625 694.045, 618.546 694.443, 608.554 694.648, 603.421 695.046, 593.429 695.253, 588.243 695.651, 578.251 695.860, 573.011 696.258, 563.019 696.469, 557.724 696.867, 547.732 697.080, 542.383 697.478, 532.391 697.878, 522.358 687.894, 521.789 677.911, 521.221 668.904, 520.708 664.701, 525.074 664.341, 535.068 663.981, 545.061 663.970, 545.379 663.610, 555.372 663.409, 560.933 663.049, 570.927 662.851, 576.431 662.491, 586.424 662.295, 591.873 661.935, 601.867 661.741, 607.260 661.381, 617.253 661.188, 622.591 660.828, 632.585 660.638, 637.868 660.278, 647.861 660.090, 653.090 659.730, 663.083 659.380, 672.798 669.349, 673.591 679.317, 674.384 688.348, 675.102 692.071, 668.080 692.469, 658.088 692.846, 648.635 " />
            <path fill="none" stroke-width="3.0" stroke-linecap="butt" stroke-opacity="1.0" stroke="rgb(0, 0, 0)" stroke-linejoin="round" d=" M 688.348, 675.102 688.742, 665.110 689.129, 655.314 689.523, 645.322 689.731, 640.031 690.126, 630.039 690.336, 624.692 690.731, 614.700 690.944, 609.298 691.338, 599.306 691.553, 593.849 691.947, 583.857 692.165, 578.343 692.559, 568.351 692.779, 562.781 693.173, 552.789 693.395, 547.163 693.789, 537.171 694.183, 527.179 694.199, 526.774 " />
            <path fill="none" stroke-width="3.0" stroke-linecap="butt" stroke-opacity="1.0" stroke="rgb(0, 0, 0)" stroke-linejoin="round" d=" M 697.878, 522.358 694.199, 526.774 684.216, 526.199 674.232, 525.624 664.701, 525.074 " />
            <path fill="none" stroke-width="3.0" stroke-linecap="butt" stroke-opacity="1.0" stroke="rgb(0, 0, 0)" stroke-linejoin="round" d=" M 550.774, 593.520 548.712, 589.205 546.401, 584.369 544.629, 580.661 541.301, 573.695 539.071, 569.031 537.276, 565.274 533.881, 558.168 531.734, 553.675 529.914, 549.868 526.452, 542.623 524.387, 538.302 522.544, 534.444 519.015, 527.059 517.033, 522.910 515.165, 519.003 511.826, 512.015 505.391, 511.649 497.951, 511.225 490.528, 510.802 482.382, 510.337 479.702, 511.793 477.644, 512.912 474.903, 514.401 474.794, 522.149 474.687, 529.836 474.579, 537.509 474.472, 545.168 474.365, 552.814 474.258, 560.446 474.151, 568.064 474.045, 575.669 473.939, 583.261 473.832, 590.839 473.726, 598.404 473.621, 605.955 473.515, 613.493 473.410, 621.018 473.304, 628.530 473.199, 636.028 473.095, 643.513 472.990, 650.985 472.885, 658.492 481.029, 659.140 488.450, 659.731 495.888, 660.323 500.324, 660.676 502.867, 658.261 504.776, 656.448 507.263, 654.087 507.396, 646.678 507.529, 639.304 507.663, 631.916 507.796, 624.516 507.930, 617.103 508.064, 609.677 508.198, 602.238 508.333, 594.786 508.467, 587.321 508.599, 580.026 " />
            <path fill="none" stroke-width="3.0" stroke-linecap="butt" stroke-opacity="1.0" stroke="rgb(0, 0, 0)" stroke-linejoin="round" d=" M 501.876, 570.655 501.704, 580.653 501.626, 585.148 501.495, 592.756 501.364, 600.351 501.233, 607.933 501.103, 615.501 500.973, 623.055 500.843, 630.596 500.713, 638.124 500.583, 645.639 500.454, 653.140 500.324, 660.676 " />
            <path fill="none" stroke-width="3.0" stroke-linecap="butt" stroke-opacity="1.0" stroke="rgb(0, 0, 0)" stroke-linejoin="round" d=" M 504.061, 570.641 508.414, 579.644 508.599, 580.026 508.607, 580.043 511.875, 586.801 516.124, 595.590 519.467, 602.502 523.632, 611.118 527.050, 618.186 529.284, 622.805 531.132, 626.628 534.625, 633.851 537.381, 639.553 541.399, 639.858 548.978, 640.434 553.010, 640.740 555.236, 638.429 556.908, 636.695 559.084, 634.436 562.056, 629.242 565.830, 622.651 567.829, 619.156 570.249, 614.929 573.959, 608.449 575.940, 604.987 578.490, 600.532 582.135, 594.164 584.100, 590.732 586.780, 586.050 590.359, 579.795 592.094, 576.764 " />
            <path fill="none" stroke-width="3.0" stroke-linecap="butt" stroke-opacity="1.0" stroke="rgb(0, 0, 0)" stroke-linejoin="round" d=" M 504.851, 516.128 508.252, 523.242 510.155, 527.220 512.175, 531.444 515.769, 538.962 517.647, 542.890 519.751, 547.288 523.278, 554.664 525.133, 558.539 527.319, 563.114 530.777, 570.347 532.607, 574.173 534.878, 578.920 538.268, 586.012 540.073, 589.786 542.427, 594.709 545.940, 602.056 546.227, 601.550 549.833, 595.180 550.774, 593.520 552.468, 590.527 554.456, 587.016 558.172, 580.454 560.705, 575.981 562.734, 572.396 566.561, 565.639 568.990, 561.348 571.062, 557.689 575.000, 550.734 577.324, 546.629 579.439, 542.894 583.490, 535.740 585.709, 531.823 587.866, 528.012 591.758, 521.140 593.771, 519.579 595.281, 518.408 597.247, 516.883 603.658, 517.248 611.338, 517.686 619.036, 518.124 627.524, 518.608 627.278, 526.382 627.033, 534.094 626.789, 541.793 626.546, 549.478 626.303, 557.149 626.060, 564.806 625.818, 572.450 625.576, 580.080 625.335, 587.696 625.094, 595.299 624.853, 602.889 624.613, 610.465 624.374, 618.028 624.134, 625.577 623.896, 633.113 623.657, 640.636 623.419, 648.145 623.182, 655.641 622.943, 663.172 621.169, 665.634 619.806, 667.525 617.991, 670.044 609.505, 669.368 601.809, 668.755 594.130, 668.144 589.567, 667.781 589.779, 660.150 589.990, 652.553 590.201, 644.943 590.413, 637.319 590.625, 629.681 590.837, 622.029 591.050, 614.364 591.263, 606.685 591.477, 598.993 591.691, 591.286 591.969, 581.290 592.094, 576.764 592.099, 576.584 592.222, 572.171 " />
            <path fill="none" stroke-width="3.0" stroke-linecap="butt" stroke-opacity="1.0" stroke="rgb(0, 0, 0)" stroke-linejoin="round" d=" M 511.826, 512.015 509.327, 513.489 507.408, 514.620 504.851, 516.128 498.305, 515.751 490.738, 515.314 483.188, 514.879 474.903, 514.401 " />
            <path fill="none" stroke-width="3.0" stroke-linecap="butt" stroke-opacity="1.0" stroke="rgb(0, 0, 0)" stroke-linejoin="round" d=" M 497.277, 577.226 501.877, 570.655 501.878, 570.655 504.061, 570.641 508.769, 570.612 512.437, 570.589 512.494, 570.589 " />
            <path fill="none" stroke-width="3.0" stroke-linecap="butt" stroke-opacity="1.0" stroke="rgb(0, 0, 0)" stroke-linejoin="round" d=" M 584.789, 585.170 581.151, 591.532 578.427, 596.294 576.431, 599.785 572.727, 606.262 570.137, 610.791 568.122, 614.314 564.353, 620.904 561.895, 625.202 559.863, 628.756 556.029, 635.459 553.010, 640.740 " />
            <path fill="none" stroke-width="3.0" stroke-linecap="butt" stroke-opacity="1.0" stroke="rgb(0, 0, 0)" stroke-linejoin="round" d=" M 622.571, 522.917 622.325, 530.831 622.080, 538.682 621.836, 546.519 621.593, 554.341 621.350, 562.150 621.107, 569.944 620.865, 577.724 620.623, 585.490 620.382, 593.241 620.141, 600.979 619.901, 608.703 619.661, 616.413 619.421, 624.109 619.182, 631.791 618.943, 639.460 618.705, 647.114 618.467, 654.755 618.230, 662.382 617.991, 670.044 " />
            <path fill="none" stroke-width="3.0" stroke-linecap="butt" stroke-opacity="1.0" stroke="rgb(0, 0, 0)" stroke-linejoin="round" d=" M 627.524, 518.608 625.750, 520.151 624.387, 521.337 622.571, 522.917 613.932, 522.418 606.098, 521.967 598.282, 521.516 591.758, 521.140 " />
            <path fill="none" stroke-width="3.0" stroke-linecap="butt" stroke-opacity="1.0" stroke="rgb(0, 0, 0)" stroke-linejoin="round" d=" M 596.735, 576.135 593.886, 573.633 592.222, 572.171 589.557, 576.831 584.789, 585.170 589.551, 576.831 " />
            <path fill="none" stroke-width="3.0" stroke-linecap="butt" stroke-opacity="1.0" stroke="rgb(0, 0, 0)" stroke-linejoin="round" d=" M 592.222, 572.171 589.551, 576.831 " />
            <path fill="none" stroke-width="3.0" stroke-linecap="butt" stroke-opacity="1.0" stroke="rgb(0, 0, 0)" stroke-linejoin="round" d=" M 366.617, 587.007 363.172, 582.219 358.359, 575.531 352.697, 567.661 346.857, 559.544 345.954, 558.290 340.389, 550.553 334.548, 542.436 333.550, 541.048 328.081, 533.446 322.241, 525.329 321.146, 523.807 315.772, 516.339 309.931, 508.222 306.116, 502.919 296.132, 502.346 294.577, 502.257 285.456, 501.733 276.028, 505.067 274.692, 505.539 274.783, 515.539 274.869, 524.842 274.960, 534.841 275.004, 539.632 275.096, 549.631 275.139, 554.371 275.231, 564.370 275.274, 569.060 275.365, 579.059 275.408, 583.699 275.499, 593.698 275.541, 598.288 275.633, 608.287 275.675, 612.827 275.766, 622.826 275.807, 627.317 275.899, 637.316 275.979, 646.081 285.097, 646.812 295.065, 647.611 301.911, 648.159 310.446, 642.948 312.079, 641.952 312.030, 631.952 311.988, 623.426 311.939, 613.426 311.917, 609.121 311.868, 599.121 311.847, 594.768 311.798, 584.768 311.776, 580.366 311.737, 572.337 " />
            <path fill="none" stroke-width="3.0" stroke-linecap="butt" stroke-opacity="1.0" stroke="rgb(0, 0, 0)" stroke-linejoin="round" d=" M 301.911, 648.159 301.850, 638.159 301.796, 629.323 301.735, 619.323 301.707, 614.777 301.646, 604.777 301.618, 600.181 301.556, 590.182 301.528, 585.536 301.467, 575.536 301.406, 565.536 301.360, 558.079 307.245, 566.164 311.335, 571.785 311.737, 572.337 317.622, 580.421 318.136, 581.128 323.886, 589.029 329.771, 597.114 330.776, 598.495 336.438, 606.275 342.322, 614.360 343.416, 615.864 348.992, 623.522 354.876, 631.608 357.453, 635.149 362.130, 641.574 368.015, 649.659 370.949, 653.691 380.917, 654.489 383.766, 654.718 393.193, 655.473 401.246, 649.544 401.915, 649.051 401.972, 639.052 402.021, 630.281 402.078, 620.281 402.103, 615.786 402.160, 605.786 402.185, 601.242 402.242, 591.242 402.268, 586.648 402.324, 576.649 402.350, 572.005 402.407, 562.005 402.433, 557.311 402.490, 547.311 402.517, 542.567 402.573, 532.567 402.600, 527.772 402.657, 517.772 402.708, 508.664 393.277, 508.123 383.294, 507.550 376.025, 507.132 366.824, 511.049 366.729, 511.090 366.715, 521.090 366.701, 530.454 366.686, 540.454 366.678, 545.447 366.663, 555.447 366.656, 560.388 366.641, 570.388 366.634, 575.277 366.619, 585.277 366.617, 587.007 366.612, 590.114 366.597, 600.114 366.590, 605.314 " />
            <path fill="none" stroke-width="3.0" stroke-linecap="butt" stroke-opacity="1.0" stroke="rgb(0, 0, 0)" stroke-linejoin="round" d=" M 366.590, 605.314 362.021, 598.963 356.181, 590.846 353.750, 587.465 348.852, 580.659 343.089, 572.649 337.249, 564.532 336.227, 563.111 330.563, 555.237 324.722, 547.120 323.602, 545.564 318.036, 537.827 312.198, 529.708 310.981, 528.016 305.509, 520.416 299.669, 512.299 295.682, 506.758 " />
            <path fill="none" stroke-width="3.0" stroke-linecap="butt" stroke-opacity="1.0" stroke="rgb(0, 0, 0)" stroke-linejoin="round" d=" M 306.116, 502.919 296.731, 506.372 295.682, 506.758 285.699, 506.178 283.958, 506.077 274.692, 505.539 " />
            <path fill="none" stroke-width="3.0" stroke-linecap="butt" stroke-opacity="1.0" stroke="rgb(0, 0, 0)" stroke-linejoin="round" d=" M 393.193, 655.473 393.240, 645.473 393.282, 636.384 393.328, 626.384 393.350, 621.642 393.396, 611.642 393.418, 606.849 393.464, 596.849 393.487, 592.005 393.533, 582.005 393.556, 577.109 393.602, 567.109 393.625, 562.161 393.671, 552.161 393.694, 547.161 393.740, 537.161 393.764, 532.108 393.810, 522.108 393.854, 512.666 " />
            <path fill="none" stroke-width="3.0" stroke-linecap="butt" stroke-opacity="1.0" stroke="rgb(0, 0, 0)" stroke-linejoin="round" d=" M 402.708, 508.664 393.854, 512.666 384.267, 512.109 374.284, 511.529 366.729, 511.090 " />
            <path fill="none" stroke-width="3.0" stroke-linecap="butt" stroke-opacity="1.0" stroke="rgb(0, 0, 0)" stroke-linejoin="round" d=" M 589.557, 576.831 592.099, 576.584 " />
        </g>
    </g>
</svg>
