<?xml version='1.0' encoding='ascii'?>
<svg xmlns="http://www.w3.org/2000/svg" version="1.1" width="1080" height="1080">
    <g id="ViewLayer_LineSet" xmlns:inkscape="http://www.inkscape.org/namespaces/inkscape" inkscape:groupmode="lineset" inkscape:label="ViewLayer_LineSet">
        <g xmlns:inkscape="http://www.inkscape.org/namespaces/inkscape" inkscape:groupmode="layer" id="strokes" inkscape:label="strokes">
            <path fill="none" stroke-width="3.0" stroke-linecap="butt" stroke-opacity="1.0" stroke="rgb(0, 0, 0)" stroke-linejoin="round" d=" M 804.304, 626.202 801.227, 635.717 801.189, 635.833 795.251, 643.879 792.757, 647.259 785.719, 654.364 784.147, 655.951 774.604, 658.939 774.324, 659.026 766.876, 661.335 756.910, 660.508 749.015, 659.853 741.839, 656.530 732.860, 652.126 732.067, 651.736 726.065, 643.738 724.919, 642.212 719.934, 633.543 717.760, 629.763 715.738, 619.970 714.640, 614.653 715.118, 604.665 715.385, 599.080 718.264, 589.503 719.227, 586.299 " />
            <path fill="none" stroke-width="3.0" stroke-linecap="butt" stroke-opacity="1.0" stroke="rgb(0, 0, 0)" stroke-linejoin="round" d=" M 691.925, 655.044 697.547, 663.314 699.652, 666.410 706.764, 673.440 708.619, 675.273 716.490, 681.441 716.939, 681.793 725.580, 686.826 727.538, 687.967 737.093, 690.916 744.912, 693.330 754.883, 694.091 763.155, 694.722 773.056, 693.320 781.108, 692.179 790.365, 688.397 792.228, 687.636 800.995, 682.826 801.397, 682.605 809.389, 676.594 811.464, 675.033 818.147, 667.595 820.532, 664.940 825.932, 656.726 830.802, 647.992 831.132, 647.400 833.867, 637.781 835.916, 630.570 837.041, 623.955 837.490, 613.965 837.820, 606.621 836.098, 596.771 834.840, 589.580 831.034, 580.333 830.860, 579.912 826.484, 570.979 820.852, 562.715 818.680, 559.527 811.632, 552.433 809.734, 550.522 801.766, 544.479 801.198, 544.049 792.603, 538.938 790.677, 537.793 781.055, 535.071 773.053, 532.807 763.066, 532.290 754.843, 531.865 744.996, 533.608 737.145, 534.998 728.021, 539.089 726.459, 539.790 717.869, 544.910 717.567, 545.090 709.787, 551.373 707.983, 552.829 701.458, 560.407 699.358, 562.846 695.591, 568.185 690.413, 576.518 685.702, 585.339 685.537, 585.649 682.988, 595.319 681.168, 602.223 680.757, 612.214 680.458, 619.497 682.269, 629.332 683.580, 636.451 687.369, 645.705 687.594, 646.254 691.925, 655.044 " />
            <path fill="none" stroke-width="3.0" stroke-linecap="butt" stroke-opacity="1.0" stroke="rgb(0, 0, 0)" stroke-linejoin="round" d=" M 804.229, 627.628 801.151, 637.142 799.374, 642.635 793.432, 650.678 790.783, 654.265 783.741, 661.365 782.011, 663.109 772.464, 666.086 772.002, 666.230 764.413, 668.573 754.448, 667.735 746.215, 667.043 738.903, 663.651 729.928, 659.240 728.946, 658.758 722.944, 650.760 721.662, 649.050 716.675, 640.382 714.364, 636.364 712.338, 626.572 711.180, 620.971 711.654, 610.983 711.933, 605.109 714.809, 595.532 716.428, 590.143 719.227, 586.299 724.867, 578.556 731.670, 571.227 733.069, 569.720 742.541, 566.513 743.539, 566.176 751.120, 563.821 761.101, 564.426 769.256, 564.921 776.551, 568.267 785.564, 572.600 786.876, 573.230 792.903, 581.210 794.292, 583.049 799.355, 591.673 801.811, 595.855 803.850, 605.645 805.077, 611.534 804.551, 621.520 804.304, 626.202 804.229, 627.628 " />
            <path fill="none" stroke-width="3.0" stroke-linecap="butt" stroke-opacity="1.0" stroke="rgb(0, 0, 0)" stroke-linejoin="round" d=" M 835.916, 630.570 836.365, 620.580 836.709, 612.910 834.984, 603.060 833.668, 595.542 829.860, 586.296 829.610, 585.687 825.209, 576.707 825.147, 576.580 819.515, 568.316 817.189, 564.903 810.142, 557.807 808.068, 555.718 800.101, 549.674 799.365, 549.115 790.771, 544.001 788.639, 542.732 779.019, 540.003 770.673, 537.637 760.687, 537.113 752.114, 536.663 742.266, 538.399 734.080, 539.842 724.953, 543.929 723.192, 544.717 714.600, 549.833 714.134, 550.110 706.353, 556.391 704.374, 557.988 697.847, 565.565 695.591, 568.185 " />
            <path fill="none" stroke-width="3.0" stroke-linecap="butt" stroke-opacity="1.0" stroke="rgb(0, 0, 0)" stroke-linejoin="round" d=" M 508.508, 631.507 515.566, 632.038 525.538, 632.786 527.333, 632.921 537.295, 633.796 543.389, 634.331 553.382, 633.948 560.525, 633.673 569.410, 628.869 577.614, 623.152 578.750, 622.360 584.702, 616.026 590.523, 607.894 590.840, 607.451 595.767, 599.506 597.997, 589.758 599.573, 582.867 598.555, 572.919 597.791, 565.463 593.574, 556.396 593.222, 555.640 588.023, 547.098 587.677, 546.529 580.690, 539.375 579.310, 537.963 571.259, 532.032 569.788, 530.949 560.044, 528.702 552.565, 526.978 542.574, 526.562 536.309, 526.301 526.326, 525.713 520.685, 525.380 510.702, 524.792 505.134, 524.464 495.151, 523.875 488.662, 523.493 480.902, 528.027 480.754, 538.026 480.607, 548.025 480.595, 548.855 480.448, 558.853 480.360, 564.808 480.213, 574.807 480.126, 580.703 479.979, 590.702 479.893, 596.539 479.746, 606.537 479.661, 612.316 479.513, 622.315 479.429, 628.035 479.282, 638.034 479.199, 643.697 479.051, 653.696 478.969, 659.301 478.822, 669.300 478.674, 679.299 478.671, 679.502 488.637, 680.327 495.138, 680.864 505.104, 681.689 507.594, 681.895 514.586, 674.746 514.759, 674.570 514.949, 664.571 515.137, 654.645 515.327, 644.647 515.429, 639.255 515.566, 632.038 " />
            <path fill="none" stroke-width="3.0" stroke-linecap="butt" stroke-opacity="1.0" stroke="rgb(0, 0, 0)" stroke-linejoin="round" d=" M 507.594, 681.895 507.775, 671.897 507.957, 661.898 507.962, 661.611 508.143, 651.612 508.246, 645.942 508.428, 635.944 508.508, 631.507 " />
            <path fill="none" stroke-width="3.0" stroke-linecap="butt" stroke-opacity="1.0" stroke="rgb(0, 0, 0)" stroke-linejoin="round" d=" M 559.536, 599.685 554.223, 602.443 544.251, 601.698 534.731, 600.986 524.755, 600.291 516.180, 599.693 516.370, 589.695 516.559, 579.697 516.608, 577.133 516.798, 567.135 516.905, 561.461 516.998, 556.563 " />
            <path fill="none" stroke-width="3.0" stroke-linecap="butt" stroke-opacity="1.0" stroke="rgb(0, 0, 0)" stroke-linejoin="round" d=" M 508.977, 605.659 509.158, 595.660 509.340, 585.662 509.394, 582.684 509.575, 572.686 509.683, 566.722 509.865, 556.724 509.876, 556.093 516.998, 556.563 526.976, 557.221 528.947, 557.351 538.938, 557.783 547.548, 558.156 555.922, 563.621 561.072, 566.982 562.445, 576.887 563.746, 586.279 560.750, 595.820 559.536, 599.685 558.531, 602.883 " />
            <path fill="none" stroke-width="3.0" stroke-linecap="butt" stroke-opacity="1.0" stroke="rgb(0, 0, 0)" stroke-linejoin="round" d=" M 578.750, 622.360 584.569, 614.227 584.994, 613.633 590.006, 605.545 592.230, 595.795 593.871, 588.600 592.847, 578.652 592.045, 570.868 587.825, 561.802 587.385, 560.856 582.185, 552.315 581.732, 551.570 574.746, 544.415 573.205, 542.836 565.157, 536.902 563.503, 535.682 553.761, 533.428 545.962, 531.624 535.971, 531.200 529.409, 530.922 519.427, 530.327 513.501, 529.973 503.519, 529.377 497.669, 529.028 487.687, 528.432 480.902, 528.027 " />
            <path fill="none" stroke-width="3.0" stroke-linecap="butt" stroke-opacity="1.0" stroke="rgb(0, 0, 0)" stroke-linejoin="round" d=" M 558.531, 602.883 549.654, 607.486 547.707, 608.496 537.735, 607.741 527.862, 606.993 517.887, 606.288 508.977, 605.659 516.180, 599.693 " />
            <path fill="none" stroke-width="3.0" stroke-linecap="butt" stroke-opacity="1.0" stroke="rgb(0, 0, 0)" stroke-linejoin="round" d=" M 379.682, 569.069 378.802, 567.649 373.531, 559.151 371.740, 556.263 366.884, 548.434 361.613, 539.936 358.878, 535.527 353.923, 527.536 348.652, 519.038 347.012, 516.394 337.030, 515.804 327.047, 515.214 317.065, 514.623 316.687, 514.601 307.386, 518.274 305.825, 518.891 311.162, 527.348 316.499, 535.804 320.545, 542.215 325.882, 550.672 330.935, 558.677 336.271, 567.134 341.608, 575.591 343.157, 578.045 348.494, 586.502 351.470, 591.218 356.208, 598.727 350.524, 606.953 344.839, 615.180 344.077, 616.282 339.038, 623.575 333.353, 631.802 332.039, 633.704 326.806, 641.276 322.247, 647.874 316.562, 656.101 310.878, 664.328 308.254, 668.124 318.220, 668.953 328.185, 669.782 338.151, 670.611 338.583, 670.647 346.810, 664.960 348.716, 663.642 354.369, 655.393 360.095, 647.037 365.747, 638.788 367.662, 635.994 372.384, 629.102 375.331, 624.801 " />
            <path fill="none" stroke-width="3.0" stroke-linecap="butt" stroke-opacity="1.0" stroke="rgb(0, 0, 0)" stroke-linejoin="round" d=" M 360.095, 647.037 354.788, 654.781 349.136, 663.030 348.716, 663.642 " />
            <path fill="none" stroke-width="3.0" stroke-linecap="butt" stroke-opacity="1.0" stroke="rgb(0, 0, 0)" stroke-linejoin="round" d=" M 338.583, 670.647 344.229, 662.393 344.749, 661.633 350.135, 653.759 355.780, 645.505 357.817, 642.527 362.612, 635.517 368.257, 627.263 369.850, 624.934 372.784, 620.645 375.331, 624.801 380.556, 633.328 382.712, 636.846 387.494, 644.650 392.719, 653.176 395.255, 657.315 400.480, 665.841 400.600, 666.037 405.825, 674.563 406.907, 676.329 416.873, 677.157 426.839, 677.986 436.804, 678.815 437.972, 678.912 445.554, 672.392 446.419, 671.649 441.104, 663.178 435.788, 654.708 432.283, 649.121 427.704, 641.825 422.465, 633.476 417.149, 625.005 415.483, 622.350 410.475, 614.369 405.160, 605.899 399.845, 597.428 398.484, 595.260 403.236, 588.510 408.990, 580.331 411.603, 576.618 417.358, 568.440 423.113, 560.263 423.985, 559.025 429.362, 551.383 434.581, 543.967 440.336, 535.789 446.091, 527.611 449.713, 522.466 439.730, 521.875 429.748, 521.285 419.765, 520.695 418.623, 520.628 409.651, 525.044 409.532, 525.102 403.915, 533.375 402.228, 535.860 397.149, 543.342 391.532, 551.615 388.788, 555.656 383.781, 563.032 379.682, 569.069 374.065, 577.342 372.876, 579.094 " />
            <path fill="none" stroke-width="3.0" stroke-linecap="butt" stroke-opacity="1.0" stroke="rgb(0, 0, 0)" stroke-linejoin="round" d=" M 372.876, 579.094 369.069, 572.958 363.797, 564.460 361.872, 561.358 356.923, 553.381 351.651, 544.884 348.764, 540.231 343.714, 532.090 338.442, 523.593 336.671, 520.738 " />
            <path fill="none" stroke-width="3.0" stroke-linecap="butt" stroke-opacity="1.0" stroke="rgb(0, 0, 0)" stroke-linejoin="round" d=" M 347.012, 516.394 337.793, 520.267 336.671, 520.738 326.689, 520.140 316.707, 519.543 306.724, 518.945 305.825, 518.891 " />
            <path fill="none" stroke-width="3.0" stroke-linecap="butt" stroke-opacity="1.0" stroke="rgb(0, 0, 0)" stroke-linejoin="round" d=" M 437.972, 678.912 432.655, 670.442 427.339, 661.972 423.566, 655.962 418.903, 648.527 413.561, 640.023 408.246, 631.552 406.449, 628.687 401.343, 620.557 396.026, 612.088 390.710, 603.618 389.123, 601.090 " />
            <path fill="none" stroke-width="3.0" stroke-linecap="butt" stroke-opacity="1.0" stroke="rgb(0, 0, 0)" stroke-linejoin="round" d=" M 423.985, 559.025 418.229, 567.202 416.700, 569.374 411.603, 576.618 " />
            <path fill="none" stroke-width="3.0" stroke-linecap="butt" stroke-opacity="1.0" stroke="rgb(0, 0, 0)" stroke-linejoin="round" d=" M 398.484, 595.260 389.996, 600.546 389.123, 601.090 393.949, 594.221 399.697, 586.038 402.449, 582.120 407.630, 574.746 413.379, 566.563 415.029, 564.214 420.493, 556.436 425.797, 548.887 431.545, 540.704 437.294, 532.522 441.175, 526.997 " />
            <path fill="none" stroke-width="3.0" stroke-linecap="butt" stroke-opacity="1.0" stroke="rgb(0, 0, 0)" stroke-linejoin="round" d=" M 449.713, 522.466 441.175, 526.997 431.193, 526.399 421.211, 525.801 411.229, 525.203 409.532, 525.102 " />
        </g>
    </g>
</svg>
