<?xml version='1.0' encoding='ascii'?>
<svg xmlns="http://www.w3.org/2000/svg" version="1.1" width="1080" height="1080">
    <g id="ViewLayer_LineSet" xmlns:inkscape="http://www.inkscape.org/namespaces/inkscape" inkscape:groupmode="lineset" inkscape:label="ViewLayer_LineSet">
        <g xmlns:inkscape="http://www.inkscape.org/namespaces/inkscape" inkscape:groupmode="layer" id="strokes" inkscape:label="strokes">
            <path fill="none" stroke-width="3.0" stroke-linecap="butt" stroke-opacity="1.0" stroke="rgb(0, 0, 0)" stroke-linejoin="round" d=" M 142.860, 636.167 142.612, 626.170 142.487, 621.127 142.240, 611.130 142.113, 606.033 141.866, 596.036 141.738, 590.887 141.490, 580.890 141.361, 575.686 141.114, 565.689 140.983, 560.431 140.736, 550.434 140.604, 545.122 140.356, 535.126 140.223, 529.759 139.976, 519.762 139.726, 509.704 129.744, 509.105 119.762, 508.506 113.132, 508.108 103.512, 510.838 98.570, 512.240 98.865, 522.236 99.161, 532.231 99.171, 532.575 99.466, 542.570 99.631, 548.152 99.926, 558.147 100.090, 563.673 100.385, 573.669 100.547, 579.138 100.842, 589.134 101.002, 594.548 101.297, 604.543 101.456, 609.902 101.751, 619.897 101.908, 625.201 102.203, 635.197 102.358, 640.446 102.653, 650.441 102.941, 660.183 112.906, 661.026 122.870, 661.870 129.524, 662.433 138.498, 658.021 143.342, 655.640 143.095, 645.643 142.860, 636.167 " />
            <path fill="none" stroke-width="3.0" stroke-linecap="butt" stroke-opacity="1.0" stroke="rgb(0, 0, 0)" stroke-linejoin="round" d=" M 129.524, 662.433 129.260, 652.436 129.000, 642.616 128.736, 632.619 128.596, 627.310 128.332, 617.313 128.190, 611.948 127.926, 601.952 127.782, 596.531 127.518, 586.535 127.374, 581.059 127.109, 571.062 126.963, 565.530 126.699, 555.533 126.551, 549.945 126.287, 539.948 126.138, 534.303 125.874, 524.307 125.610, 514.310 125.599, 513.884 " />
            <path fill="none" stroke-width="3.0" stroke-linecap="butt" stroke-opacity="1.0" stroke="rgb(0, 0, 0)" stroke-linejoin="round" d=" M 139.726, 509.704 130.137, 512.541 125.599, 513.884 115.617, 513.277 105.635, 512.670 98.570, 512.240 " />
            <path fill="none" stroke-width="3.0" stroke-linecap="butt" stroke-opacity="1.0" stroke="rgb(0, 0, 0)" stroke-linejoin="round" d=" M 886.308, 640.687 885.684, 650.667 885.350, 656.008 884.726, 665.988 884.110, 675.844 883.916, 683.161 893.885, 683.943 901.397, 684.532 911.367, 685.315 914.621, 685.570 915.281, 675.592 915.942, 665.614 915.963, 665.295 916.624, 655.316 917.000, 649.633 917.661, 639.654 917.956, 635.204 927.930, 635.915 937.947, 636.629 947.913, 637.458 954.989, 638.048 964.983, 637.694 973.278, 637.400 982.240, 632.964 982.970, 632.603 991.416, 627.250 993.227, 626.102 999.521, 618.331 1000.289, 617.382 1006.008, 609.301 1008.794, 599.697 1010.920, 592.365 1010.293, 582.385 1009.806, 574.640 1007.613, 569.163 1003.516, 560.041 1003.201, 559.341 998.045, 550.773 997.719, 550.232 990.671, 543.137 989.209, 541.664 981.075, 535.846 979.398, 534.647 969.630, 532.505 961.252, 530.668 951.260, 530.271 943.984, 529.982 934.000, 529.422 927.399, 529.052 917.415, 528.493 910.893, 528.127 900.908, 527.568 893.409, 527.148 892.785, 537.128 892.161, 547.109 892.131, 547.587 891.507, 557.568 891.152, 563.245 890.528, 573.225 890.176, 578.846 889.552, 588.826 889.204, 594.390 888.580, 604.370 888.235, 609.878 887.611, 619.859 887.270, 625.310 886.646, 635.291 886.308, 640.687 " />
            <path fill="none" stroke-width="3.0" stroke-linecap="butt" stroke-opacity="1.0" stroke="rgb(0, 0, 0)" stroke-linejoin="round" d=" M 893.390, 531.752 892.766, 541.732 892.141, 551.712 892.087, 552.570 891.463, 562.550 891.090, 568.517 890.465, 578.497 890.096, 584.404 889.471, 594.385 889.105, 600.233 888.481, 610.214 888.118, 616.004 887.494, 625.984 887.135, 631.717 886.510, 641.697 886.155, 647.371 885.531, 657.352 885.180, 662.969 884.555, 672.949 883.930, 682.930 883.916, 683.161 " />
            <path fill="none" stroke-width="3.0" stroke-linecap="butt" stroke-opacity="1.0" stroke="rgb(0, 0, 0)" stroke-linejoin="round" d=" M 919.667, 609.367 920.062, 603.390 920.723, 593.412 921.187, 586.402 921.848, 576.424 922.244, 570.447 922.904, 560.469 922.947, 559.822 932.928, 560.448 942.908, 561.073 943.208, 561.092 953.200, 561.503 962.990, 561.907 971.447, 567.242 975.897, 570.050 976.986, 570.737 " />
            <path fill="none" stroke-width="3.0" stroke-linecap="butt" stroke-opacity="1.0" stroke="rgb(0, 0, 0)" stroke-linejoin="round" d=" M 1009.806, 574.640 1005.708, 565.518 1005.310, 564.630 1000.153, 556.062 999.721, 555.344 992.674, 548.249 991.045, 546.609 982.913, 540.790 981.043, 539.452 971.276, 537.305 962.543, 535.385 952.551, 534.982 944.939, 534.674 934.955, 534.108 928.033, 533.716 918.049, 533.150 911.209, 532.762 901.225, 532.196 893.390, 531.752 893.409, 527.148 " />
            <path fill="none" stroke-width="3.0" stroke-linecap="butt" stroke-opacity="1.0" stroke="rgb(0, 0, 0)" stroke-linejoin="round" d=" M 975.897, 570.050 976.901, 579.999 977.334, 584.294 973.773, 593.638 971.124, 600.590 962.096, 604.891 959.552, 606.103 949.578, 605.395 939.603, 604.687 938.877, 604.635 928.898, 603.975 920.062, 603.390 " />
            <path fill="none" stroke-width="3.0" stroke-linecap="butt" stroke-opacity="1.0" stroke="rgb(0, 0, 0)" stroke-linejoin="round" d=" M 976.986, 570.737 977.989, 580.687 978.931, 590.028 975.364, 599.371 972.596, 606.622 963.564, 610.913 960.800, 612.226 950.826, 611.509 940.852, 610.793 939.726, 610.712 929.748, 610.043 919.667, 609.367 " />
            <path fill="none" stroke-width="3.0" stroke-linecap="butt" stroke-opacity="1.0" stroke="rgb(0, 0, 0)" stroke-linejoin="round" d=" M 700.409, 601.922 694.305, 609.842 691.101, 614.000 685.579, 621.166 679.474, 629.087 677.908, 631.120 671.804, 639.041 667.176, 645.045 661.072, 652.966 654.968, 660.887 651.837, 664.949 647.352, 671.948 657.321, 672.741 667.289, 673.534 677.258, 674.327 679.301, 674.489 685.369, 666.541 686.179, 665.480 692.187, 657.609 698.255, 649.661 700.758, 646.382 706.107, 639.375 712.175, 631.427 714.182, 628.797 717.455, 624.511 722.645, 633.059 727.294, 640.718 732.033, 648.524 737.223, 657.072 739.725, 661.193 744.914, 669.742 745.022, 669.919 750.211, 678.467 751.272, 680.214 761.240, 681.007 771.209, 681.800 781.177, 682.593 783.995, 682.817 786.039, 675.479 780.753, 666.990 775.467, 658.501 772.006, 652.943 767.461, 645.644 762.260, 637.292 756.974, 628.803 755.330, 626.162 750.358, 618.178 745.072, 609.689 739.786, 601.200 739.198, 600.256 " />
            <path fill="none" stroke-width="3.0" stroke-linecap="butt" stroke-opacity="1.0" stroke="rgb(0, 0, 0)" stroke-linejoin="round" d=" M 735.510, 604.966 739.198, 600.256 740.886, 598.100 747.051, 590.226 750.357, 586.005 756.128, 578.635 762.293, 570.761 764.372, 568.107 770.458, 560.333 776.368, 552.787 782.533, 544.914 788.698, 537.040 793.501, 530.907 795.402, 526.300 785.418, 525.734 775.434, 525.168 765.450, 524.601 762.657, 524.443 756.617, 532.413 750.577, 540.383 749.084, 542.353 743.044, 550.322 739.919, 554.445 734.429, 561.689 728.389, 569.659 722.473, 577.465 718.768, 571.440 713.529, 562.922 711.763, 560.050 706.946, 552.217 701.707, 543.699 699.005, 539.306 694.089, 531.312 688.850, 522.794 687.234, 520.166 677.250, 519.599 667.266, 519.033 657.282, 518.467 655.295, 518.354 650.797, 522.716 656.105, 531.191 661.414, 539.666 665.412, 546.050 670.721, 554.524 675.728, 562.518 681.037, 570.992 686.345, 579.467 687.864, 581.893 693.172, 590.368 696.118, 595.071 700.409, 601.922 700.823, 602.582 694.718, 610.502 688.612, 618.422 687.296, 620.129 681.677, 627.419 675.572, 635.339 673.873, 637.544 668.038, 645.112 662.955, 651.707 656.850, 659.627 650.745, 667.547 647.352, 671.948 " />
            <path fill="none" stroke-width="3.0" stroke-linecap="butt" stroke-opacity="1.0" stroke="rgb(0, 0, 0)" stroke-linejoin="round" d=" M 719.227, 582.960 715.451, 576.822 710.211, 568.304 708.313, 565.218 703.405, 557.238 698.165, 548.721 695.313, 544.083 690.303, 535.939 685.064, 527.422 683.318, 524.583 " />
            <path fill="none" stroke-width="3.0" stroke-linecap="butt" stroke-opacity="1.0" stroke="rgb(0, 0, 0)" stroke-linejoin="round" d=" M 687.234, 520.166 683.318, 524.583 673.335, 524.010 663.351, 523.437 653.368, 522.864 650.797, 522.716 " />
            <path fill="none" stroke-width="3.0" stroke-linecap="butt" stroke-opacity="1.0" stroke="rgb(0, 0, 0)" stroke-linejoin="round" d=" M 783.995, 682.817 778.708, 674.329 773.422, 665.841 769.697, 659.859 765.066, 652.421 759.765, 643.914 754.480, 635.425 752.705, 632.573 747.638, 624.441 742.352, 615.953 737.065, 607.464 735.510, 604.966 " />
            <path fill="none" stroke-width="3.0" stroke-linecap="butt" stroke-opacity="1.0" stroke="rgb(0, 0, 0)" stroke-linejoin="round" d=" M 749.084, 542.353 754.651, 535.007 760.691, 527.037 762.657, 524.443 760.138, 528.992 " />
            <path fill="none" stroke-width="3.0" stroke-linecap="butt" stroke-opacity="1.0" stroke="rgb(0, 0, 0)" stroke-linejoin="round" d=" M 793.501, 530.907 783.517, 530.334 773.533, 529.761 763.550, 529.188 760.138, 528.992 754.097, 536.961 751.987, 539.745 746.317, 547.224 740.276, 555.193 736.986, 559.533 731.397, 566.906 725.356, 574.875 719.227, 582.960 722.473, 577.465 " />
        </g>
    </g>
</svg>
