<?xml version='1.0' encoding='ascii'?>
<svg xmlns="http://www.w3.org/2000/svg" version="1.1" width="1080" height="1080">
    <g id="ViewLayer_LineSet" xmlns:inkscape="http://www.inkscape.org/namespaces/inkscape" inkscape:groupmode="lineset" inkscape:label="ViewLayer_LineSet">
        <g xmlns:inkscape="http://www.inkscape.org/namespaces/inkscape" inkscape:groupmode="layer" id="strokes" inkscape:label="strokes">
            <path fill="none" stroke-width="3.0" stroke-linecap="butt" stroke-opacity="1.0" stroke="rgb(0, 0, 0)" stroke-linejoin="round" d=" M 335.884, 640.543 335.863, 630.543 335.852, 625.510 335.831, 615.510 335.820, 610.425 335.799, 600.425 335.788, 595.286 335.767, 585.286 335.756, 580.093 335.735, 570.093 335.724, 564.846 335.702, 554.846 335.691, 549.545 335.670, 539.545 335.659, 534.190 335.638, 524.190 335.616, 514.145 325.634, 513.558 315.651, 512.970 308.187, 512.530 298.857, 516.129 297.260, 516.744 297.326, 526.744 297.391, 536.744 297.393, 537.069 297.459, 547.068 297.496, 552.638 297.561, 562.637 297.597, 568.151 297.663, 578.150 297.699, 583.608 297.764, 593.607 297.800, 599.009 297.865, 609.009 297.900, 614.355 297.966, 624.355 298.001, 629.647 298.066, 639.647 298.100, 644.883 298.166, 654.883 298.230, 664.611 308.196, 665.435 318.162, 666.260 325.650, 666.879 333.962, 661.320 335.925, 660.006 335.904, 650.006 335.884, 640.543 " />
            <path fill="none" stroke-width="3.0" stroke-linecap="butt" stroke-opacity="1.0" stroke="rgb(0, 0, 0)" stroke-linejoin="round" d=" M 325.650, 666.879 325.616, 656.879 325.584, 647.073 325.550, 637.073 325.533, 631.774 325.500, 621.775 325.482, 616.421 325.448, 606.421 325.430, 601.012 325.397, 591.012 325.379, 585.548 325.346, 575.548 325.327, 570.027 325.294, 560.027 325.275, 554.450 325.242, 544.450 325.223, 538.817 325.190, 528.817 325.157, 518.817 325.155, 518.408 " />
            <path fill="none" stroke-width="3.0" stroke-linecap="butt" stroke-opacity="1.0" stroke="rgb(0, 0, 0)" stroke-linejoin="round" d=" M 335.616, 514.145 326.356, 517.919 325.155, 518.408 315.173, 517.813 305.191, 517.217 297.260, 516.744 " />
            <path fill="none" stroke-width="3.0" stroke-linecap="butt" stroke-opacity="1.0" stroke="rgb(0, 0, 0)" stroke-linejoin="round" d=" M -3.002, 627.302 0.689, 627.600 7.651, 628.162 11.354, 628.461 17.113, 626.230 21.436, 624.555 27.066, 622.375 29.473, 617.169 32.530, 610.561 34.149, 607.057 36.109, 602.820 39.114, 596.324 42.784, 588.387 43.913, 585.947 " />
            <path fill="none" stroke-width="3.0" stroke-linecap="butt" stroke-opacity="1.0" stroke="rgb(0, 0, 0)" stroke-linejoin="round" d=" M -1.153, 582.385 2.510, 589.736 2.740, 589.229 5.644, 582.843 7.765, 578.178 9.366, 574.659 11.397, 570.192 12.358, 568.080 14.397, 563.596 16.030, 560.002 19.111, 553.228 21.066, 548.927 22.735, 545.258 25.905, 538.286 27.776, 534.171 29.479, 530.426 32.740, 523.255 34.526, 519.328 36.263, 515.507 39.396, 508.617 45.082, 507.140 49.349, 506.031 54.904, 504.588 60.796, 504.941 67.854, 505.365 74.928, 505.789 82.728, 506.257 82.973, 514.043 83.215, 521.766 83.456, 529.475 83.698, 537.171 83.939, 544.853 84.179, 552.521 84.419, 560.176 84.659, 567.817 84.898, 575.444 85.137, 583.058 85.375, 590.659 85.613, 598.246 85.851, 605.819 86.088, 613.379 86.324, 620.926 86.561, 628.459 86.796, 635.980 87.032, 643.486 87.268, 651.028 81.993, 653.410 77.942, 655.240 72.545, 657.678 64.748, 657.018 57.677, 656.420 50.622, 655.823 46.429, 655.468 46.152, 647.825 45.877, 640.218 45.601, 632.596 45.325, 624.961 45.048, 617.312 44.771, 609.650 44.493, 601.974 44.215, 594.284 43.936, 586.580 43.913, 585.947 43.657, 578.862 43.295, 568.869 43.124, 564.139 42.964, 559.719 " />
            <path fill="none" stroke-width="3.0" stroke-linecap="butt" stroke-opacity="1.0" stroke="rgb(0, 0, 0)" stroke-linejoin="round" d=" M 11.397, 570.192 10.582, 568.554 7.114, 561.585 4.792, 556.919 2.921, 553.160 -0.617, 546.051 " />
            <path fill="none" stroke-width="3.0" stroke-linecap="butt" stroke-opacity="1.0" stroke="rgb(0, 0, 0)" stroke-linejoin="round" d=" M 39.114, 596.324 40.717, 592.853 42.784, 588.387 " />
            <path fill="none" stroke-width="3.0" stroke-linecap="butt" stroke-opacity="1.0" stroke="rgb(0, 0, 0)" stroke-linejoin="round" d=" M 36.972, 572.751 34.040, 579.129 31.844, 583.903 30.234, 587.402 27.248, 593.896 25.161, 598.436 23.537, 601.968 20.498, 608.575 18.516, 612.884 16.879, 616.447 13.788, 623.166 11.354, 628.461 " />
            <path fill="none" stroke-width="3.0" stroke-linecap="butt" stroke-opacity="1.0" stroke="rgb(0, 0, 0)" stroke-linejoin="round" d=" M 67.665, 510.337 67.928, 518.263 68.188, 526.125 68.448, 533.973 68.707, 541.807 68.966, 549.627 69.225, 557.432 69.483, 565.224 69.740, 573.001 69.997, 580.764 70.254, 588.513 70.510, 596.248 70.766, 603.969 71.021, 611.677 71.276, 619.370 71.530, 627.050 71.784, 634.715 72.038, 642.367 72.290, 650.005 72.545, 657.678 " />
            <path fill="none" stroke-width="3.0" stroke-linecap="butt" stroke-opacity="1.0" stroke="rgb(0, 0, 0)" stroke-linejoin="round" d=" M 82.728, 506.257 77.333, 507.719 73.188, 508.841 67.665, 510.337 59.740, 509.855 52.552, 509.418 45.381, 508.982 39.396, 508.617 " />
            <path fill="none" stroke-width="3.0" stroke-linecap="butt" stroke-opacity="1.0" stroke="rgb(0, 0, 0)" stroke-linejoin="round" d=" M 47.333, 563.680 42.964, 559.719 40.816, 564.390 36.972, 572.751 40.811, 564.391 " />
            <path fill="none" stroke-width="3.0" stroke-linecap="butt" stroke-opacity="1.0" stroke="rgb(0, 0, 0)" stroke-linejoin="round" d=" M 42.964, 559.719 40.811, 564.391 " />
            <path fill="none" stroke-width="3.0" stroke-linecap="butt" stroke-opacity="1.0" stroke="rgb(0, 0, 0)" stroke-linejoin="round" d=" M 1093.580, 535.678 1083.806, 533.563 1075.177, 531.696 1065.185, 531.304 1057.627, 531.007 1047.642, 530.455 1040.775, 530.076 1030.790, 529.524 1024.002, 529.148 1014.017, 528.596 1006.236, 528.166 1005.482, 538.138 1004.728, 548.109 1004.690, 548.603 1003.936, 558.575 1003.506, 564.259 1002.752, 574.230 1002.327, 579.858 1001.573, 589.830 1001.151, 595.400 1000.397, 605.372 999.980, 610.887 999.226, 620.858 998.813, 626.317 998.059, 636.289 997.650, 641.692 996.896, 651.663 996.492, 657.011 995.737, 666.982 994.992, 676.845 996.882, 684.181 1006.852, 684.952 1014.646, 685.555 1024.616, 686.326 1028.083, 686.594 1028.877, 676.626 1029.671, 666.657 1029.697, 666.321 1030.491, 656.353 1030.944, 650.661 1031.738, 640.693 1032.093, 636.235 1042.068, 636.935 1052.044, 637.636 1052.410, 637.662 1062.376, 638.480 1069.726, 639.083 1079.720, 638.737 1088.337, 638.439 " />
            <path fill="none" stroke-width="3.0" stroke-linecap="butt" stroke-opacity="1.0" stroke="rgb(0, 0, 0)" stroke-linejoin="round" d=" M 1008.375, 532.789 1007.618, 542.761 1006.861, 552.732 1006.795, 553.605 1006.038, 563.577 1005.584, 569.550 1004.827, 579.521 1004.378, 585.436 1003.621, 595.407 1003.177, 601.263 1002.419, 611.234 1001.979, 617.032 1001.222, 627.003 1000.787, 632.742 1000.030, 642.714 999.598, 648.395 998.841, 658.367 998.414, 663.991 997.657, 673.962 996.900, 683.934 996.882, 684.181 " />
            <path fill="none" stroke-width="3.0" stroke-linecap="butt" stroke-opacity="1.0" stroke="rgb(0, 0, 0)" stroke-linejoin="round" d=" M 1034.150, 610.400 1034.616, 604.547 1035.410, 594.579 1035.978, 587.438 1036.772, 577.470 1037.249, 571.486 1038.042, 561.517 1038.094, 560.862 1048.075, 561.479 1058.057, 562.095 1058.687, 562.134 1068.679, 562.541 1078.798, 562.952 1087.277, 568.253 1089.463, 569.619 " />
            <path fill="none" stroke-width="3.0" stroke-linecap="butt" stroke-opacity="1.0" stroke="rgb(0, 0, 0)" stroke-linejoin="round" d=" M 1097.436, 540.503 1087.663, 538.384 1078.669, 536.433 1068.677, 536.035 1060.772, 535.720 1050.787, 535.161 1043.588, 534.759 1033.604, 534.200 1026.487, 533.802 1016.502, 533.244 1008.375, 532.789 1006.236, 528.166 " />
            <path fill="none" stroke-width="3.0" stroke-linecap="butt" stroke-opacity="1.0" stroke="rgb(0, 0, 0)" stroke-linejoin="round" d=" M 1084.374, 601.612 1075.308, 605.834 1072.542, 607.122 1062.566, 606.424 1052.590, 605.726 1051.536, 605.652 1041.557, 605.000 1034.616, 604.547 " />
            <path fill="none" stroke-width="3.0" stroke-linecap="butt" stroke-opacity="1.0" stroke="rgb(0, 0, 0)" stroke-linejoin="round" d=" M 1088.021, 607.664 1078.950, 611.874 1075.954, 613.265 1065.979, 612.559 1056.004, 611.852 1054.537, 611.748 1044.558, 611.089 1034.580, 610.429 1034.150, 610.400 " />
            <path fill="none" stroke-width="3.0" stroke-linecap="butt" stroke-opacity="1.0" stroke="rgb(0, 0, 0)" stroke-linejoin="round" d=" M 858.706, 603.251 863.981, 611.747 868.800, 619.506 873.758, 627.491 879.034, 635.986 880.671, 638.622 885.859, 646.975 890.393, 654.275 895.668, 662.770 900.944, 671.265 904.389, 676.814 904.578, 684.178 894.608, 683.397 884.639, 682.616 874.669, 681.835 871.276, 681.569 866.099, 673.013 865.046, 671.272 859.869, 662.716 859.766, 662.545 854.589, 653.990 852.099, 649.874 847.375, 642.067 842.198, 633.511 837.567, 625.858 834.176, 630.144 827.971, 637.987 825.809, 640.720 820.266, 647.726 814.061, 655.569 811.386, 658.951 805.160, 666.821 798.955, 674.663 798.033, 675.828 788.064, 675.047 778.094, 674.266 768.125, 673.484 765.520, 673.280 767.860, 666.257 774.098, 658.440 780.335, 650.624 783.741, 646.356 788.913, 639.874 794.850, 632.432 801.088, 624.616 802.792, 622.480 808.509, 615.315 814.746, 607.499 819.458, 601.594 " />
            <path fill="none" stroke-width="3.0" stroke-linecap="butt" stroke-opacity="1.0" stroke="rgb(0, 0, 0)" stroke-linejoin="round" d=" M 794.850, 632.432 788.613, 640.249 783.741, 646.356 " />
            <path fill="none" stroke-width="3.0" stroke-linecap="butt" stroke-opacity="1.0" stroke="rgb(0, 0, 0)" stroke-linejoin="round" d=" M 856.219, 606.317 858.706, 603.251 861.788, 599.452 868.087, 591.686 871.596, 587.359 877.574, 579.990 883.873, 572.223 886.112, 569.464 892.416, 561.691 898.536, 554.146 904.836, 546.380 911.135, 538.614 916.281, 532.270 915.869, 527.636 905.884, 527.078 895.900, 526.520 885.915, 525.961 882.546, 525.773 876.372, 533.639 870.197, 541.505 868.490, 543.680 862.316, 551.546 859.000, 555.770 853.315, 563.014 847.140, 570.880 840.934, 578.787 837.239, 572.761 832.011, 564.236 830.253, 561.369 825.450, 553.536 820.223, 545.011 817.531, 540.622 812.629, 532.628 807.402, 524.103 805.794, 521.480 795.809, 520.922 785.825, 520.363 775.841, 519.805 773.292, 519.662 771.013, 524.050 776.312, 532.531 781.610, 541.012 785.592, 547.386 790.891, 555.867 795.882, 563.856 801.181, 572.337 806.479, 580.818 807.988, 583.234 813.286, 591.715 816.221, 596.414 819.458, 601.594 820.914, 603.926 814.673, 611.740 808.432, 619.553 806.901, 621.470 801.080, 628.759 794.839, 636.573 792.995, 638.882 786.950, 646.449 781.684, 653.043 775.443, 660.856 769.203, 668.670 765.520, 673.280 " />
            <path fill="none" stroke-width="3.0" stroke-linecap="butt" stroke-opacity="1.0" stroke="rgb(0, 0, 0)" stroke-linejoin="round" d=" M 839.924, 584.308 836.159, 578.169 830.931, 569.644 829.041, 566.563 824.147, 558.582 818.919, 550.058 816.078, 545.426 811.083, 537.281 805.856, 528.756 804.119, 525.923 " />
            <path fill="none" stroke-width="3.0" stroke-linecap="butt" stroke-opacity="1.0" stroke="rgb(0, 0, 0)" stroke-linejoin="round" d=" M 805.794, 521.480 804.119, 525.923 794.135, 525.358 784.151, 524.793 774.167, 524.228 771.013, 524.050 " />
            <path fill="none" stroke-width="3.0" stroke-linecap="butt" stroke-opacity="1.0" stroke="rgb(0, 0, 0)" stroke-linejoin="round" d=" M 904.578, 684.178 899.302, 675.684 894.025, 667.189 890.317, 661.217 885.698, 653.778 880.411, 645.270 875.136, 636.775 873.369, 633.928 868.316, 625.795 863.040, 617.300 857.764, 608.805 856.219, 606.317 " />
            <path fill="none" stroke-width="3.0" stroke-linecap="butt" stroke-opacity="1.0" stroke="rgb(0, 0, 0)" stroke-linejoin="round" d=" M 868.490, 543.680 874.256, 536.335 880.430, 528.469 882.546, 525.773 882.319, 530.348 " />
            <path fill="none" stroke-width="3.0" stroke-linecap="butt" stroke-opacity="1.0" stroke="rgb(0, 0, 0)" stroke-linejoin="round" d=" M 916.281, 532.270 906.297, 531.705 896.313, 531.140 886.329, 530.575 882.319, 530.348 876.141, 538.211 873.872, 541.099 867.997, 548.577 861.819, 556.440 858.327, 560.884 852.536, 568.256 846.357, 576.119 840.179, 583.982 839.924, 584.308 840.934, 578.787 " />
            <path fill="none" stroke-width="3.0" stroke-linecap="butt" stroke-opacity="1.0" stroke="rgb(0, 0, 0)" stroke-linejoin="round" d=" M 40.816, 564.390 43.124, 564.139 " />
        </g>
    </g>
</svg>
