<?xml version='1.0' encoding='ascii'?>
<svg xmlns="http://www.w3.org/2000/svg" version="1.1" width="1080" height="1080">
    <g id="ViewLayer_LineSet" xmlns:inkscape="http://www.inkscape.org/namespaces/inkscape" inkscape:groupmode="lineset" inkscape:label="ViewLayer_LineSet">
        <g xmlns:inkscape="http://www.inkscape.org/namespaces/inkscape" inkscape:groupmode="layer" id="strokes" inkscape:label="strokes">
            <path fill="none" stroke-width="3.0" stroke-linecap="butt" stroke-opacity="1.0" stroke="rgb(0, 0, 0)" stroke-linejoin="round" d=" M 753.746, 636.802 747.862, 644.888 746.443, 646.838 739.450, 653.987 737.938, 655.532 728.403, 658.544 728.201, 658.607 720.817, 660.917 710.852, 660.085 703.076, 659.435 695.933, 656.113 686.963, 651.692 686.207, 651.320 680.206, 643.320 679.062, 641.795 674.070, 633.130 671.890, 629.347 669.834, 619.560 668.715, 614.236 669.139, 604.245 669.376, 598.662 672.191, 589.066 673.688, 583.964 678.380, 577.428 " />
            <path fill="none" stroke-width="3.0" stroke-linecap="butt" stroke-opacity="1.0" stroke="rgb(0, 0, 0)" stroke-linejoin="round" d=" M 645.432, 654.622 651.056, 662.891 653.162, 665.988 660.267, 673.025 662.110, 674.851 669.971, 681.031 670.403, 681.370 679.035, 686.419 680.958, 687.544 690.508, 690.508 698.234, 692.906 708.205, 693.671 716.352, 694.297 726.251, 692.883 734.161, 691.753 743.406, 687.939 745.178, 687.208 753.924, 682.360 754.254, 682.177 762.213, 676.122 764.208, 674.604 770.843, 667.122 773.159, 664.509 778.477, 656.295 783.285, 647.527 783.591, 646.969 785.716, 640.055 788.386, 630.418 790.294, 623.530 790.690, 613.538 790.980, 606.196 789.221, 596.352 787.934, 589.154 784.111, 579.914 783.934, 579.486 779.543, 570.552 773.910, 562.290 771.736, 559.101 764.696, 551.999 762.808, 550.096 754.850, 544.041 754.300, 543.623 745.714, 538.497 743.822, 537.368 734.204, 534.632 726.297, 532.382 716.311, 531.862 708.212, 531.441 698.368, 533.198 690.656, 534.575 681.546, 538.700 680.070, 539.368 671.503, 544.528 671.268, 544.669 663.523, 550.995 661.792, 552.410 657.287, 557.560 650.812, 565.180 648.621, 567.758 643.524, 576.092 638.876, 584.946 638.730, 585.224 636.246, 594.910 634.479, 601.799 634.123, 611.792 633.864, 619.074 635.711, 628.902 637.051, 636.028 640.858, 645.275 641.087, 645.832 645.432, 654.622 " />
            <path fill="none" stroke-width="3.0" stroke-linecap="butt" stroke-opacity="1.0" stroke="rgb(0, 0, 0)" stroke-linejoin="round" d=" M 752.039, 642.205 746.152, 650.289 743.570, 653.836 736.573, 660.980 734.907, 662.681 725.369, 665.683 724.987, 665.803 717.465, 668.147 707.501, 667.304 699.391, 666.618 692.114, 663.226 683.147, 658.799 682.204, 658.333 676.204, 650.334 674.922, 648.626 669.929, 639.961 667.612, 635.940 665.551, 626.154 664.371, 620.546 664.790, 610.555 665.036, 604.683 667.848, 595.087 669.421, 589.716 675.252, 581.592 677.739, 578.128 678.380, 577.428 685.135, 570.055 685.836, 569.290 695.299, 566.058 696.211, 565.746 703.725, 563.390 713.706, 564.000 721.736, 564.489 728.995, 567.835 738.000, 572.184 739.271, 572.798 745.296, 580.779 746.684, 582.617 751.753, 591.237 754.215, 595.423 756.289, 605.206 757.539, 611.102 757.068, 621.091 756.780, 627.197 753.746, 636.802 752.039, 642.205 " />
            <path fill="none" stroke-width="3.0" stroke-linecap="butt" stroke-opacity="1.0" stroke="rgb(0, 0, 0)" stroke-linejoin="round" d=" M 783.591, 646.969 786.261, 637.331 788.254, 630.137 788.647, 620.145 788.949, 612.476 787.187, 602.633 785.840, 595.108 782.015, 585.868 781.760, 585.252 777.348, 576.279 777.282, 576.145 771.649, 567.882 769.321, 564.468 762.282, 557.366 760.219, 555.284 752.262, 549.226 751.545, 548.680 742.960, 543.551 740.864, 542.298 731.247, 539.555 723.002, 537.204 713.015, 536.677 704.571, 536.231 694.726, 537.982 686.685, 539.412 677.573, 543.531 675.901, 544.287 667.333, 549.443 666.937, 549.681 659.191, 556.006 657.287, 557.560 " />
            <path fill="none" stroke-width="3.0" stroke-linecap="butt" stroke-opacity="1.0" stroke="rgb(0, 0, 0)" stroke-linejoin="round" d=" M 506.045, 631.485 513.151, 632.019 523.123, 632.768 524.863, 632.899 534.824, 633.774 540.913, 634.309 550.906, 633.925 558.042, 633.651 566.922, 628.847 575.124, 623.127 576.256, 622.337 582.256, 616.003 588.073, 607.870 588.389, 607.429 593.311, 599.483 595.538, 589.734 597.112, 582.845 596.091, 572.897 595.326, 565.440 591.107, 556.374 590.756, 555.617 585.556, 547.075 585.210, 546.507 578.223, 539.353 576.844, 537.941 568.794, 532.009 567.324, 530.926 557.580, 528.679 550.107, 526.955 540.115, 526.539 533.856, 526.279 523.874, 525.690 518.238, 525.358 508.255, 524.769 502.693, 524.442 492.710, 523.853 486.227, 523.471 478.420, 528.005 478.276, 538.004 478.131, 548.003 478.119, 548.832 477.975, 558.831 477.889, 564.786 477.745, 574.785 477.660, 580.680 477.515, 590.679 477.431, 596.516 477.287, 606.515 477.203, 612.294 477.059, 622.293 476.976, 628.013 476.832, 638.012 476.750, 643.675 476.606, 653.674 476.525, 659.279 476.381, 669.278 476.236, 679.277 476.233, 679.480 486.199, 680.305 492.694, 680.842 502.660, 681.667 505.145, 681.873 512.160, 674.746 512.356, 674.548 512.543, 664.549 512.728, 654.623 512.915, 644.625 513.016, 639.233 513.151, 632.019 " />
            <path fill="none" stroke-width="3.0" stroke-linecap="butt" stroke-opacity="1.0" stroke="rgb(0, 0, 0)" stroke-linejoin="round" d=" M 505.145, 681.873 505.324, 671.874 505.502, 661.876 505.507, 661.588 505.686, 651.590 505.787, 645.920 505.966, 635.921 506.045, 631.485 " />
            <path fill="none" stroke-width="3.0" stroke-linecap="butt" stroke-opacity="1.0" stroke="rgb(0, 0, 0)" stroke-linejoin="round" d=" M 557.033, 599.695 551.785, 602.421 541.812, 601.675 532.300, 600.964 522.324, 600.269 513.755, 599.671 513.942, 589.673 514.129, 579.675 514.177, 577.111 514.364, 567.113 514.470, 561.439 514.561, 556.544 " />
            <path fill="none" stroke-width="3.0" stroke-linecap="butt" stroke-opacity="1.0" stroke="rgb(0, 0, 0)" stroke-linejoin="round" d=" M 506.506, 605.636 506.685, 595.638 506.863, 585.640 506.916, 582.662 507.095, 572.663 507.201, 566.700 507.380, 556.701 507.391, 556.070 514.561, 556.544 524.539, 557.202 526.455, 557.329 536.445, 557.761 545.049, 558.133 553.422, 563.599 558.570, 566.959 559.945, 576.864 561.248, 586.257 558.255, 595.798 557.033, 599.695 556.040, 602.860 " />
            <path fill="none" stroke-width="3.0" stroke-linecap="butt" stroke-opacity="1.0" stroke="rgb(0, 0, 0)" stroke-linejoin="round" d=" M 576.256, 622.337 582.072, 614.202 582.496, 613.610 587.503, 605.522 589.724, 595.772 591.362, 588.577 590.336, 578.630 589.532, 570.845 585.311, 561.779 584.871, 560.833 579.670, 552.292 579.217, 551.548 572.232, 544.392 570.691, 542.813 562.643, 536.878 560.991, 535.660 551.249, 533.405 543.456, 531.601 533.465, 531.178 526.909, 530.900 516.927, 530.304 511.007, 529.950 501.025, 529.354 495.181, 529.005 485.199, 528.409 478.420, 528.005 " />
            <path fill="none" stroke-width="3.0" stroke-linecap="butt" stroke-opacity="1.0" stroke="rgb(0, 0, 0)" stroke-linejoin="round" d=" M 556.040, 602.860 547.164, 607.466 545.222, 608.473 535.250, 607.718 525.384, 606.971 515.409, 606.266 506.506, 605.636 513.755, 599.671 " />
            <path fill="none" stroke-width="3.0" stroke-linecap="butt" stroke-opacity="1.0" stroke="rgb(0, 0, 0)" stroke-linejoin="round" d=" M 379.682, 569.069 378.802, 567.649 373.531, 559.151 371.740, 556.263 366.884, 548.434 361.613, 539.936 358.878, 535.527 353.923, 527.536 348.652, 519.038 347.012, 516.394 337.030, 515.804 327.047, 515.214 317.065, 514.623 316.687, 514.601 307.386, 518.274 305.825, 518.891 311.162, 527.348 316.499, 535.804 320.545, 542.215 325.882, 550.672 330.935, 558.677 336.271, 567.134 341.608, 575.591 343.157, 578.045 348.494, 586.502 351.470, 591.218 356.208, 598.727 350.524, 606.953 344.839, 615.180 344.077, 616.282 339.038, 623.575 333.353, 631.802 332.039, 633.704 326.806, 641.276 322.247, 647.874 316.562, 656.101 310.878, 664.328 308.254, 668.124 318.220, 668.953 328.185, 669.782 338.151, 670.611 338.583, 670.647 346.810, 664.960 348.716, 663.642 354.369, 655.393 360.095, 647.037 365.747, 638.788 367.662, 635.994 372.384, 629.102 375.331, 624.801 " />
            <path fill="none" stroke-width="3.0" stroke-linecap="butt" stroke-opacity="1.0" stroke="rgb(0, 0, 0)" stroke-linejoin="round" d=" M 360.095, 647.037 354.788, 654.781 349.136, 663.030 348.716, 663.642 " />
            <path fill="none" stroke-width="3.0" stroke-linecap="butt" stroke-opacity="1.0" stroke="rgb(0, 0, 0)" stroke-linejoin="round" d=" M 338.583, 670.647 344.229, 662.393 344.749, 661.633 350.135, 653.759 355.780, 645.505 357.817, 642.527 362.612, 635.517 368.257, 627.263 369.850, 624.934 372.784, 620.645 375.331, 624.801 380.556, 633.328 382.712, 636.846 387.494, 644.650 392.719, 653.176 395.255, 657.315 400.480, 665.841 400.600, 666.037 405.825, 674.563 406.907, 676.329 416.873, 677.157 426.839, 677.986 436.804, 678.815 437.972, 678.912 445.554, 672.392 446.419, 671.649 441.104, 663.178 435.788, 654.708 432.283, 649.121 427.704, 641.825 422.465, 633.476 417.149, 625.005 415.483, 622.350 410.475, 614.369 405.160, 605.899 399.845, 597.428 398.484, 595.260 403.236, 588.510 408.990, 580.331 411.603, 576.618 417.358, 568.440 423.113, 560.263 423.985, 559.025 429.362, 551.383 434.581, 543.967 440.336, 535.789 446.091, 527.611 449.713, 522.466 439.730, 521.875 429.748, 521.285 419.765, 520.695 418.623, 520.628 409.651, 525.044 409.532, 525.102 403.915, 533.375 402.228, 535.860 397.149, 543.342 391.532, 551.615 388.788, 555.656 383.781, 563.032 379.682, 569.069 374.065, 577.342 372.876, 579.094 " />
            <path fill="none" stroke-width="3.0" stroke-linecap="butt" stroke-opacity="1.0" stroke="rgb(0, 0, 0)" stroke-linejoin="round" d=" M 372.876, 579.094 369.069, 572.958 363.797, 564.460 361.872, 561.358 356.923, 553.381 351.651, 544.884 348.764, 540.231 343.714, 532.090 338.442, 523.593 336.671, 520.738 " />
            <path fill="none" stroke-width="3.0" stroke-linecap="butt" stroke-opacity="1.0" stroke="rgb(0, 0, 0)" stroke-linejoin="round" d=" M 347.012, 516.394 337.793, 520.267 336.671, 520.738 326.689, 520.140 316.707, 519.543 306.724, 518.945 305.825, 518.891 " />
            <path fill="none" stroke-width="3.0" stroke-linecap="butt" stroke-opacity="1.0" stroke="rgb(0, 0, 0)" stroke-linejoin="round" d=" M 437.972, 678.912 432.655, 670.442 427.339, 661.972 423.566, 655.962 418.903, 648.527 413.561, 640.023 408.246, 631.552 406.449, 628.687 401.343, 620.557 396.026, 612.088 390.710, 603.618 389.123, 601.090 " />
            <path fill="none" stroke-width="3.0" stroke-linecap="butt" stroke-opacity="1.0" stroke="rgb(0, 0, 0)" stroke-linejoin="round" d=" M 423.985, 559.025 418.229, 567.202 416.700, 569.374 411.603, 576.618 " />
            <path fill="none" stroke-width="3.0" stroke-linecap="butt" stroke-opacity="1.0" stroke="rgb(0, 0, 0)" stroke-linejoin="round" d=" M 398.484, 595.260 389.996, 600.546 389.123, 601.090 393.949, 594.221 399.697, 586.038 402.449, 582.120 407.630, 574.746 413.379, 566.563 415.029, 564.214 420.493, 556.436 425.797, 548.887 431.545, 540.704 437.294, 532.522 441.175, 526.997 " />
            <path fill="none" stroke-width="3.0" stroke-linecap="butt" stroke-opacity="1.0" stroke="rgb(0, 0, 0)" stroke-linejoin="round" d=" M 449.713, 522.466 441.175, 526.997 431.193, 526.399 421.211, 525.801 411.229, 525.203 409.532, 525.102 " />
        </g>
    </g>
</svg>
