<?xml version='1.0' encoding='ascii'?>
<svg xmlns="http://www.w3.org/2000/svg" version="1.1" width="1080" height="1080">
    <g id="ViewLayer_LineSet" xmlns:inkscape="http://www.inkscape.org/namespaces/inkscape" inkscape:groupmode="lineset" inkscape:label="ViewLayer_LineSet">
        <g xmlns:inkscape="http://www.inkscape.org/namespaces/inkscape" inkscape:groupmode="layer" id="strokes" inkscape:label="strokes">
            <path fill="none" stroke-width="3.0" stroke-linecap="butt" stroke-opacity="1.0" stroke="rgb(0, 0, 0)" stroke-linejoin="round" d=" M 1083.154, 659.631 1074.120, 655.344 1073.048, 654.835 1067.036, 646.844 1065.883, 645.310 1061.690, 637.925 " />
            <path fill="none" stroke-width="3.0" stroke-linecap="butt" stroke-opacity="1.0" stroke="rgb(0, 0, 0)" stroke-linejoin="round" d=" M 1082.802, 538.139 1073.578, 542.000 1071.371, 542.924 1062.623, 547.768 1061.810, 548.218 1053.790, 554.191 1051.428, 555.950 1044.560, 563.218 1041.970, 565.959 1036.307, 574.138 1031.158, 582.711 1030.924, 583.101 1027.912, 592.637 1025.786, 599.369 1024.974, 609.336 1024.404, 616.324 1025.942, 626.205 1026.994, 632.964 1029.531, 639.594 1033.189, 648.901 1033.384, 649.397 1037.610, 658.185 1043.221, 666.463 1045.315, 669.551 1052.481, 676.526 1054.423, 678.416 1062.363, 684.495 1062.940, 684.937 1071.646, 689.856 1073.872, 691.114 1083.459, 693.958 1091.976, 696.484 " />
            <path fill="none" stroke-width="3.0" stroke-linecap="butt" stroke-opacity="1.0" stroke="rgb(0, 0, 0)" stroke-linejoin="round" d=" M 1061.977, 639.523 1061.690, 637.925 1059.923, 628.082 1059.214, 624.134 1060.097, 614.173 1060.619, 608.278 1063.967, 598.855 1065.933, 593.319 1072.212, 585.535 1075.273, 581.740 1082.406, 574.731 1084.257, 572.911 " />
            <path fill="none" stroke-width="3.0" stroke-linecap="butt" stroke-opacity="1.0" stroke="rgb(0, 0, 0)" stroke-linejoin="round" d=" M 1086.786, 666.812 1077.754, 662.520 1076.482, 661.916 1070.470, 653.925 1069.179, 652.208 1064.242, 643.512 1061.977, 639.523 " />
            <path fill="none" stroke-width="3.0" stroke-linecap="butt" stroke-opacity="1.0" stroke="rgb(0, 0, 0)" stroke-linejoin="round" d=" M 1086.474, 543.044 1077.246, 546.896 1074.812, 547.912 1066.059, 552.747 1065.059, 553.299 1057.032, 559.264 1054.469, 561.169 1047.593, 568.430 1044.820, 571.358 1039.120, 579.575 1039.043, 579.686 1033.886, 588.254 1033.551, 588.811 1030.534, 598.345 1028.308, 605.377 1027.492, 615.344 1026.895, 622.645 1028.432, 632.527 1029.531, 639.594 " />
            <path fill="none" stroke-width="3.0" stroke-linecap="butt" stroke-opacity="1.0" stroke="rgb(0, 0, 0)" stroke-linejoin="round" d=" M 789.196, 634.042 790.818, 634.159 800.792, 634.881 808.820, 635.462 818.785, 636.306 825.552, 636.879 835.546, 636.516 843.479, 636.228 852.392, 631.695 852.917, 631.429 861.292, 625.965 862.885, 624.925 869.036, 617.041 869.690, 616.203 875.187, 608.119 877.799, 598.466 879.770, 591.181 880.048, 585.399 879.295, 575.428 878.735, 567.999 874.600, 558.894 874.274, 558.177 869.104, 549.617 868.772, 549.067 861.743, 541.954 860.307, 540.500 852.198, 534.647 850.587, 533.484 840.826, 531.310 832.731, 529.507 822.739, 529.104 815.781, 528.824 805.797, 528.256 799.499, 527.897 789.515, 527.329 783.293, 526.975 773.309, 526.407 766.128, 525.998 763.674, 530.580 763.199, 540.569 762.724, 550.557 762.684, 551.401 762.210, 561.390 761.926, 567.350 761.452, 577.339 761.171, 583.240 760.697, 593.229 760.419, 599.071 759.944, 609.060 759.669, 614.844 759.195, 624.833 758.923, 630.559 758.448, 640.547 758.179, 646.216 757.704, 656.204 757.437, 661.815 756.963, 671.804 756.488, 681.793 756.478, 682.010 766.446, 682.805 773.640, 683.379 783.608, 684.174 786.622, 684.414 788.619, 677.042 789.131, 667.055 789.640, 657.123 790.152, 647.136 790.429, 641.737 790.818, 634.159 " />
            <path fill="none" stroke-width="3.0" stroke-linecap="butt" stroke-opacity="1.0" stroke="rgb(0, 0, 0)" stroke-linejoin="round" d=" M 786.622, 684.414 787.132, 674.427 787.642, 664.440 787.658, 664.136 788.168, 654.149 788.458, 648.472 788.969, 638.485 789.196, 634.042 " />
            <path fill="none" stroke-width="3.0" stroke-linecap="butt" stroke-opacity="1.0" stroke="rgb(0, 0, 0)" stroke-linejoin="round" d=" M 848.083, 586.337 844.694, 595.745 843.364, 599.436 834.381, 603.830 832.087, 604.951 822.113, 604.232 812.139, 603.513 811.784, 603.487 801.806, 602.816 792.458, 602.188 792.970, 592.201 793.482, 582.214 793.614, 579.634 794.126, 569.647 794.418, 563.967 794.685, 558.754 " />
            <path fill="none" stroke-width="3.0" stroke-linecap="butt" stroke-opacity="1.0" stroke="rgb(0, 0, 0)" stroke-linejoin="round" d=" M 790.516, 608.201 791.026, 598.214 791.536, 588.227 791.689, 585.233 792.200, 575.246 792.505, 569.276 793.015, 559.289 793.048, 558.649 794.685, 558.754 804.665, 559.389 812.934, 559.915 822.926, 560.333 832.345, 560.727 840.777, 566.103 846.193, 569.556 847.312, 579.493 848.083, 586.337 848.366, 588.849 " />
            <path fill="none" stroke-width="3.0" stroke-linecap="butt" stroke-opacity="1.0" stroke="rgb(0, 0, 0)" stroke-linejoin="round" d=" M 879.770, 591.181 879.017, 581.209 878.431, 573.453 874.295, 564.349 873.884, 563.443 868.713, 554.883 868.275, 554.157 861.247, 547.043 859.646, 545.422 851.539, 539.567 849.738, 538.267 839.979, 536.087 831.540, 534.202 821.548, 533.793 814.266, 533.494 804.283, 532.919 797.674, 532.538 787.691, 531.963 781.162, 531.587 771.178, 531.012 763.674, 530.580 " />
            <path fill="none" stroke-width="3.0" stroke-linecap="butt" stroke-opacity="1.0" stroke="rgb(0, 0, 0)" stroke-linejoin="round" d=" M 848.366, 588.849 844.976, 598.257 842.384, 605.446 833.397, 609.831 830.894, 611.052 820.920, 610.324 810.947, 609.596 810.206, 609.542 800.229, 608.862 790.516, 608.201 792.458, 602.188 " />
            <path fill="none" stroke-width="3.0" stroke-linecap="butt" stroke-opacity="1.0" stroke="rgb(0, 0, 0)" stroke-linejoin="round" d=" M 593.081, 574.771 590.141, 570.005 584.890, 561.495 583.115, 558.617 578.283, 550.786 573.032, 542.275 570.318, 537.876 565.386, 529.883 560.136, 521.373 558.511, 518.738 548.527, 518.163 538.544, 517.588 528.560, 517.013 527.182, 516.934 520.276, 521.269 525.595, 529.737 530.914, 538.205 534.931, 544.599 540.250, 553.067 545.275, 561.064 550.594, 569.532 555.913, 578.000 557.443, 580.437 562.763, 588.905 565.720, 593.613 570.437, 601.123 564.485, 609.159 558.534, 617.195 557.439, 618.673 552.039, 625.965 546.087, 634.001 544.539, 636.091 538.933, 643.661 534.048, 650.256 528.096, 658.292 522.144, 666.328 519.054, 670.501 529.022, 671.307 538.989, 672.113 548.956, 672.919 550.390, 673.035 556.663, 665.985 562.578, 657.923 563.162, 657.127 568.842, 649.385 574.757, 641.322 576.940, 638.345 581.995, 631.455 587.553, 623.878 " />
            <path fill="none" stroke-width="3.0" stroke-linecap="butt" stroke-opacity="1.0" stroke="rgb(0, 0, 0)" stroke-linejoin="round" d=" M 550.390, 673.035 556.304, 664.971 556.998, 664.024 562.771, 656.152 568.685, 648.088 571.005, 644.923 576.145, 637.915 582.059, 629.851 583.903, 627.335 587.048, 623.048 587.553, 623.878 592.756, 632.418 596.921, 639.253 601.676, 647.058 606.879, 655.598 609.394, 659.726 614.597, 668.266 614.709, 668.450 619.912, 676.990 620.981, 678.744 630.948, 679.550 640.916, 680.356 650.883, 681.162 653.076, 681.339 657.543, 674.029 652.246, 665.547 646.949, 657.066 643.472, 651.497 638.914, 644.199 633.698, 635.848 628.401, 627.366 626.748, 624.720 621.763, 616.737 616.466, 608.255 611.169, 599.773 609.827, 597.623 614.907, 590.875 620.921, 582.885 623.856, 578.987 629.308, 571.745 635.322, 563.755 637.096, 561.398 642.846, 553.759 648.428, 546.345 654.442, 538.355 660.456, 530.366 664.610, 524.849 654.626, 524.274 644.643, 523.699 634.659, 523.124 632.491, 522.999 627.485, 527.520 621.599, 535.604 619.654, 538.275 614.208, 545.755 608.322, 553.839 605.244, 558.066 599.875, 565.440 593.989, 573.524 593.081, 574.771 588.184, 581.497 " />
            <path fill="none" stroke-width="3.0" stroke-linecap="butt" stroke-opacity="1.0" stroke="rgb(0, 0, 0)" stroke-linejoin="round" d=" M 588.184, 581.497 584.396, 575.359 579.144, 566.850 577.236, 563.757 572.312, 555.779 567.060, 547.269 564.195, 542.626 559.170, 534.483 553.918, 525.973 552.163, 523.128 " />
            <path fill="none" stroke-width="3.0" stroke-linecap="butt" stroke-opacity="1.0" stroke="rgb(0, 0, 0)" stroke-linejoin="round" d=" M 558.511, 518.738 552.163, 523.128 542.180, 522.546 532.197, 521.964 522.214, 521.382 520.276, 521.269 " />
            <path fill="none" stroke-width="3.0" stroke-linecap="butt" stroke-opacity="1.0" stroke="rgb(0, 0, 0)" stroke-linejoin="round" d=" M 653.076, 681.339 647.778, 672.858 642.480, 664.377 638.737, 658.384 634.094, 650.947 628.778, 642.442 623.481, 633.959 621.698, 631.103 616.616, 622.971 611.318, 614.490 606.021, 606.009 604.453, 603.499 " />
            <path fill="none" stroke-width="3.0" stroke-linecap="butt" stroke-opacity="1.0" stroke="rgb(0, 0, 0)" stroke-linejoin="round" d=" M 609.827, 597.623 604.453, 603.499 609.621, 596.632 615.634, 588.642 618.725, 584.535 624.273, 577.163 630.286, 569.173 632.196, 566.634 638.047, 558.858 643.728, 551.311 649.741, 543.321 655.754, 535.331 660.196, 529.427 " />
            <path fill="none" stroke-width="3.0" stroke-linecap="butt" stroke-opacity="1.0" stroke="rgb(0, 0, 0)" stroke-linejoin="round" d=" M 664.610, 524.849 660.196, 529.427 650.213, 528.845 640.230, 528.263 630.247, 527.681 627.485, 527.520 " />
        </g>
    </g>
</svg>
