<?xml version='1.0' encoding='ascii'?>
<svg xmlns="http://www.w3.org/2000/svg" version="1.1" width="1080" height="1080">
    <g id="ViewLayer_LineSet" xmlns:inkscape="http://www.inkscape.org/namespaces/inkscape" inkscape:groupmode="lineset" inkscape:label="ViewLayer_LineSet">
        <g xmlns:inkscape="http://www.inkscape.org/namespaces/inkscape" inkscape:groupmode="layer" id="strokes" inkscape:label="strokes">
            <path fill="none" stroke-width="3.0" stroke-linecap="butt" stroke-opacity="1.0" stroke="rgb(0, 0, 0)" stroke-linejoin="round" d=" M 629.595, 650.488 629.919, 640.493 629.939, 639.885 630.263, 629.890 630.284, 629.256 630.608, 619.261 630.629, 618.601 630.953, 608.606 630.975, 607.918 631.299, 597.924 631.323, 597.210 631.647, 587.215 631.671, 586.474 631.995, 576.479 632.020, 575.711 632.344, 565.716 632.475, 561.679 622.495, 561.047 612.515, 560.415 612.264, 560.399 608.580, 563.976 608.284, 573.971 608.160, 578.144 607.864, 588.140 607.838, 589.011 607.542, 599.007 607.516, 599.851 607.220, 609.846 607.196, 610.663 606.900, 620.659 606.876, 621.448 606.580, 631.444 606.557, 632.206 606.261, 642.202 606.239, 642.937 605.943, 652.932 605.922, 653.640 605.625, 663.636 605.510, 667.515 615.479, 668.307 625.448, 669.098 625.718, 669.119 629.150, 664.232 629.474, 654.237 629.595, 650.488 " />
            <path fill="none" stroke-width="3.0" stroke-linecap="butt" stroke-opacity="1.0" stroke="rgb(0, 0, 0)" stroke-linejoin="round" d=" M 625.718, 669.119 626.038, 659.125 626.163, 655.205 626.484, 645.210 626.507, 644.471 626.828, 634.476 626.852, 633.710 627.172, 623.715 627.198, 622.921 627.518, 612.927 627.544, 612.106 627.864, 602.111 627.892, 601.262 628.212, 591.267 628.240, 590.391 628.560, 580.397 628.589, 579.493 628.909, 569.498 629.044, 565.283 " />
            <path fill="none" stroke-width="3.0" stroke-linecap="butt" stroke-opacity="1.0" stroke="rgb(0, 0, 0)" stroke-linejoin="round" d=" M 632.475, 561.679 629.044, 565.283 619.065, 564.646 609.085, 564.008 608.580, 563.976 " />
            <path fill="none" stroke-width="3.0" stroke-linecap="butt" stroke-opacity="1.0" stroke="rgb(0, 0, 0)" stroke-linejoin="round" d=" M 535.381, 611.434 533.950, 608.444 532.308, 605.017 531.050, 602.388 528.687, 597.451 527.104, 594.147 525.829, 591.484 523.420, 586.450 521.896, 583.267 520.605, 580.570 518.148, 575.439 516.683, 572.379 515.375, 569.648 512.872, 564.419 511.466, 561.482 510.142, 558.716 507.774, 553.771 503.214, 553.482 497.940, 553.148 492.673, 552.814 486.889, 552.448 485.012, 553.673 483.575, 554.611 481.667, 555.857 481.586, 561.302 481.506, 566.707 481.426, 572.106 481.345, 577.497 481.265, 582.882 481.186, 588.260 481.106, 593.631 481.026, 598.995 480.946, 604.353 480.867, 609.704 480.787, 615.049 480.708, 620.386 480.629, 625.717 480.550, 631.042 480.471, 636.359 480.392, 641.670 480.313, 646.975 480.234, 652.273 480.155, 657.597 485.938, 658.056 491.203, 658.474 496.477, 658.893 499.621, 659.143 501.430, 657.435 502.792, 656.149 504.572, 654.469 504.666, 649.193 504.759, 643.944 504.852, 638.689 504.945, 633.428 505.038, 628.159 505.132, 622.885 505.226, 617.603 505.319, 612.316 505.413, 607.021 505.498, 602.232 " />
            <path fill="none" stroke-width="3.0" stroke-linecap="butt" stroke-opacity="1.0" stroke="rgb(0, 0, 0)" stroke-linejoin="round" d=" M 500.712, 595.536 500.541, 605.534 500.537, 605.750 500.445, 611.116 500.353, 616.475 500.261, 621.828 500.169, 627.174 500.078, 632.513 499.986, 637.845 499.895, 643.171 499.804, 648.491 499.713, 653.803 499.621, 659.143 " />
            <path fill="none" stroke-width="3.0" stroke-linecap="butt" stroke-opacity="1.0" stroke="rgb(0, 0, 0)" stroke-linejoin="round" d=" M 502.255, 595.532 505.467, 602.168 505.498, 602.232 507.776, 606.939 510.780, 613.144 513.143, 618.025 516.088, 624.110 518.505, 629.103 520.085, 632.366 521.392, 635.068 523.863, 640.171 525.813, 644.201 528.648, 644.419 533.992, 644.830 536.834, 645.048 538.484, 643.393 539.727, 642.146 541.352, 640.517 543.448, 636.834 546.108, 632.164 547.517, 629.689 549.221, 626.698 551.832, 622.114 555.018, 616.519 557.578, 612.022 558.958, 609.600 560.839, 606.298 563.349, 601.888 564.172, 600.443 " />
            <path fill="none" stroke-width="3.0" stroke-linecap="butt" stroke-opacity="1.0" stroke="rgb(0, 0, 0)" stroke-linejoin="round" d=" M 502.804, 557.208 505.203, 562.216 506.545, 565.017 507.970, 567.991 510.506, 573.287 511.831, 576.053 513.315, 579.151 515.804, 584.348 518.656, 590.302 521.098, 595.400 522.389, 598.096 523.993, 601.443 526.387, 606.443 527.662, 609.104 529.325, 612.575 531.807, 617.757 532.008, 617.401 534.540, 612.922 535.381, 611.434 536.388, 609.652 537.781, 607.186 540.385, 602.579 542.158, 599.442 543.579, 596.929 546.255, 592.193 547.953, 589.189 549.400, 586.628 552.150, 581.763 553.771, 578.894 555.246, 576.284 558.069, 571.289 559.614, 568.555 561.116, 565.897 563.824, 561.107 565.371, 559.822 566.536, 558.854 568.058, 557.589 572.564, 557.875 577.959, 558.216 583.362, 558.559 589.317, 558.936 589.167, 564.394 589.019, 569.812 588.870, 575.223 588.722, 580.627 588.575, 586.024 588.427, 591.414 588.279, 596.798 588.132, 602.175 587.985, 607.545 587.838, 612.909 587.691, 618.265 587.545, 623.615 587.399, 628.959 587.252, 634.295 587.106, 639.625 586.961, 644.948 586.815, 650.265 586.669, 655.575 586.523, 660.912 585.100, 662.643 584.010, 663.968 582.564, 665.727 576.611, 665.255 571.208, 664.826 565.814, 664.398 562.606, 664.143 562.739, 658.756 562.870, 653.395 563.002, 648.028 563.135, 642.655 563.267, 637.274 563.399, 631.887 563.532, 626.492 563.665, 621.091 563.798, 615.683 563.931, 610.269 564.172, 600.443 564.185, 599.946 564.261, 596.850 " />
            <path fill="none" stroke-width="3.0" stroke-linecap="butt" stroke-opacity="1.0" stroke="rgb(0, 0, 0)" stroke-linejoin="round" d=" M 507.774, 553.771 505.988, 555.006 504.620, 555.952 502.804, 557.208 498.189, 556.913 492.850, 556.571 487.521, 556.231 481.667, 555.857 " />
            <path fill="none" stroke-width="3.0" stroke-linecap="butt" stroke-opacity="1.0" stroke="rgb(0, 0, 0)" stroke-linejoin="round" d=" M 497.463, 600.154 500.712, 595.536 500.712, 595.536 502.255, 595.532 505.617, 595.525 508.208, 595.519 " />
            <path fill="none" stroke-width="3.0" stroke-linecap="butt" stroke-opacity="1.0" stroke="rgb(0, 0, 0)" stroke-linejoin="round" d=" M 551.832, 622.114 553.225, 619.667 555.018, 616.519 " />
            <path fill="none" stroke-width="3.0" stroke-linecap="butt" stroke-opacity="1.0" stroke="rgb(0, 0, 0)" stroke-linejoin="round" d=" M 559.079, 605.957 556.540, 610.420 554.638, 613.762 553.243, 616.213 550.653, 620.764 548.841, 623.948 547.431, 626.426 544.791, 631.064 543.068, 634.092 541.643, 636.596 538.954, 641.322 536.834, 645.048 " />
            <path fill="none" stroke-width="3.0" stroke-linecap="butt" stroke-opacity="1.0" stroke="rgb(0, 0, 0)" stroke-linejoin="round" d=" M 585.345, 562.483 585.196, 568.010 585.049, 573.495 584.901, 578.974 584.754, 584.446 584.606, 589.911 584.459, 595.369 584.313, 600.820 584.166, 606.264 584.019, 611.701 583.873, 617.131 583.727, 622.554 583.581, 627.971 583.435, 633.380 583.290, 638.783 583.144, 644.178 582.999, 649.567 582.854, 654.950 582.709, 660.325 582.564, 665.727 " />
            <path fill="none" stroke-width="3.0" stroke-linecap="butt" stroke-opacity="1.0" stroke="rgb(0, 0, 0)" stroke-linejoin="round" d=" M 589.317, 558.936 587.889, 560.211 586.796, 561.187 585.345, 562.483 579.317, 562.097 573.847, 561.748 568.385, 561.399 563.824, 561.107 " />
            <path fill="none" stroke-width="3.0" stroke-linecap="butt" stroke-opacity="1.0" stroke="rgb(0, 0, 0)" stroke-linejoin="round" d=" M 567.430, 599.644 565.564, 597.999 564.261, 596.850 562.405, 600.111 559.079, 605.957 562.399, 600.112 " />
            <path fill="none" stroke-width="3.0" stroke-linecap="butt" stroke-opacity="1.0" stroke="rgb(0, 0, 0)" stroke-linejoin="round" d=" M 564.261, 596.850 562.399, 600.112 " />
            <path fill="none" stroke-width="3.0" stroke-linecap="butt" stroke-opacity="1.0" stroke="rgb(0, 0, 0)" stroke-linejoin="round" d=" M 439.824, 608.737 436.353, 603.912 432.915, 599.134 428.869, 593.512 424.052, 586.817 420.076, 581.290 415.190, 574.500 411.282, 569.069 406.328, 562.182 402.489, 556.847 396.648, 548.730 395.590, 547.260 387.227, 546.729 380.611, 546.310 374.149, 549.578 374.126, 559.578 374.117, 563.250 374.094, 573.250 374.092, 573.738 374.069, 583.738 374.068, 584.200 374.044, 594.200 374.043, 594.636 374.020, 604.636 374.019, 605.047 373.995, 615.047 373.994, 615.433 373.971, 625.433 373.970, 625.793 373.946, 635.793 373.945, 636.129 373.922, 646.129 373.914, 649.528 380.529, 650.054 390.497, 650.846 392.713, 651.022 398.891, 646.533 398.944, 636.533 398.961, 633.255 399.014, 623.256 399.015, 623.014 399.068, 613.014 399.070, 612.749 399.122, 602.749 399.124, 602.458 399.161, 595.378 " />
            <path fill="none" stroke-width="3.0" stroke-linecap="butt" stroke-opacity="1.0" stroke="rgb(0, 0, 0)" stroke-linejoin="round" d=" M 392.713, 651.022 392.759, 641.022 392.775, 637.586 392.820, 627.586 392.822, 627.222 392.868, 617.222 392.869, 616.833 392.915, 606.833 392.917, 606.419 392.963, 596.419 393.006, 586.922 398.891, 595.006 399.161, 595.378 400.108, 596.678 404.951, 603.329 409.044, 608.953 413.950, 615.692 417.981, 621.230 422.949, 628.056 426.919, 633.507 432.804, 641.592 432.943, 641.783 436.273, 646.356 442.158, 654.441 442.551, 654.981 451.770, 655.713 458.544, 656.252 463.965, 651.652 464.094, 641.653 464.138, 638.250 464.268, 628.251 464.272, 627.912 464.401, 617.913 464.406, 617.549 464.536, 607.550 464.541, 607.161 464.670, 597.162 464.675, 596.748 464.805, 586.749 464.811, 586.309 464.940, 576.310 464.946, 575.844 465.076, 565.845 465.082, 565.354 465.211, 555.355 465.257, 551.822 458.481, 551.392 448.502, 550.759 446.071, 550.604 440.375, 553.961 440.275, 563.960 440.238, 567.621 440.137, 577.621 440.131, 578.211 440.031, 588.210 440.025, 588.774 439.925, 598.773 439.919, 599.311 439.824, 608.737 439.813, 609.822 439.713, 619.821 439.705, 620.601 " />
            <path fill="none" stroke-width="3.0" stroke-linecap="butt" stroke-opacity="1.0" stroke="rgb(0, 0, 0)" stroke-linejoin="round" d=" M 439.705, 620.601 436.458, 616.087 430.578, 607.914 427.097, 603.076 423.001, 597.383 418.122, 590.604 414.097, 585.007 409.148, 578.131 405.192, 572.632 400.177, 565.657 396.287, 560.256 390.447, 552.139 389.302, 550.548 " />
            <path fill="none" stroke-width="3.0" stroke-linecap="butt" stroke-opacity="1.0" stroke="rgb(0, 0, 0)" stroke-linejoin="round" d=" M 395.590, 547.260 389.302, 550.548 380.842, 550.006 374.149, 549.578 " />
            <path fill="none" stroke-width="3.0" stroke-linecap="butt" stroke-opacity="1.0" stroke="rgb(0, 0, 0)" stroke-linejoin="round" d=" M 458.544, 656.252 458.667, 646.252 458.711, 642.688 458.834, 632.688 458.840, 632.225 458.963, 622.225 458.969, 621.736 459.092, 611.737 459.099, 611.221 459.222, 601.222 459.228, 600.681 459.351, 590.682 459.358, 590.114 459.482, 580.115 459.489, 579.522 459.612, 569.523 459.620, 568.903 459.743, 558.904 459.788, 555.203 " />
            <path fill="none" stroke-width="3.0" stroke-linecap="butt" stroke-opacity="1.0" stroke="rgb(0, 0, 0)" stroke-linejoin="round" d=" M 465.257, 551.822 459.788, 555.203 452.932, 554.765 442.953, 554.126 440.375, 553.961 " />
            <path fill="none" stroke-width="3.0" stroke-linecap="butt" stroke-opacity="1.0" stroke="rgb(0, 0, 0)" stroke-linejoin="round" d=" M 562.405, 600.111 564.185, 599.946 " />
        </g>
    </g>
</svg>
