<?xml version='1.0' encoding='ascii'?>
<svg xmlns="http://www.w3.org/2000/svg" version="1.1" width="1080" height="1080">
    <g id="ViewLayer_LineSet" xmlns:inkscape="http://www.inkscape.org/namespaces/inkscape" inkscape:groupmode="lineset" inkscape:label="ViewLayer_LineSet">
        <g xmlns:inkscape="http://www.inkscape.org/namespaces/inkscape" inkscape:groupmode="layer" id="strokes" inkscape:label="strokes">
            <path fill="none" stroke-width="3.0" stroke-linecap="butt" stroke-opacity="1.0" stroke="rgb(0, 0, 0)" stroke-linejoin="round" d=" M 684.300, 648.441 684.688, 638.449 684.883, 633.423 685.271, 623.430 685.469, 618.351 685.857, 608.359 686.056, 603.226 686.445, 593.234 686.646, 588.048 687.034, 578.055 687.238, 572.815 687.626, 562.823 687.832, 557.528 688.220, 547.536 688.428, 542.187 688.816, 532.194 689.206, 522.161 679.222, 521.592 669.238, 521.023 660.269, 520.512 655.904, 524.875 655.555, 534.869 655.205, 544.863 655.194, 545.180 654.844, 555.174 654.649, 560.734 654.299, 570.728 654.107, 576.233 653.757, 586.227 653.566, 591.675 653.216, 601.669 653.028, 607.062 652.678, 617.056 652.491, 622.394 652.141, 632.388 651.956, 637.671 651.607, 647.665 651.424, 652.893 651.074, 662.887 650.734, 672.602 660.702, 673.395 670.671, 674.189 679.665, 674.905 683.544, 667.887 683.933, 657.894 684.300, 648.441 " />
            <path fill="none" stroke-width="3.0" stroke-linecap="butt" stroke-opacity="1.0" stroke="rgb(0, 0, 0)" stroke-linejoin="round" d=" M 679.665, 674.905 680.049, 664.912 680.425, 655.117 680.809, 645.124 681.012, 639.833 681.396, 629.841 681.602, 624.494 681.986, 614.502 682.193, 609.100 682.577, 599.107 682.787, 593.650 683.171, 583.657 683.383, 578.144 683.766, 568.152 683.980, 562.582 684.364, 552.589 684.581, 546.963 684.964, 536.971 685.348, 526.978 685.364, 526.574 " />
            <path fill="none" stroke-width="3.0" stroke-linecap="butt" stroke-opacity="1.0" stroke="rgb(0, 0, 0)" stroke-linejoin="round" d=" M 689.206, 522.161 685.364, 526.574 675.381, 525.998 665.397, 525.422 655.904, 524.875 " />
            <path fill="none" stroke-width="3.0" stroke-linecap="butt" stroke-opacity="1.0" stroke="rgb(0, 0, 0)" stroke-linejoin="round" d=" M 465.416, 589.953 464.134, 587.287 461.807, 582.451 460.024, 578.743 456.674, 571.776 454.429, 567.112 452.622, 563.354 449.204, 556.248 447.043, 551.755 445.211, 547.947 441.726, 540.702 439.648, 536.381 437.792, 532.523 434.240, 525.137 432.244, 520.988 430.365, 517.080 427.003, 510.092 420.651, 509.727 413.306, 509.305 405.978, 508.885 397.936, 508.423 394.708, 509.866 392.228, 510.975 388.925, 512.452 388.894, 520.202 388.862, 527.890 388.831, 535.565 388.800, 543.226 388.769, 550.873 388.738, 558.507 388.707, 566.127 388.677, 573.734 388.646, 581.327 388.615, 588.907 388.584, 596.474 388.554, 604.027 388.523, 611.566 388.493, 619.093 388.462, 626.606 388.432, 634.106 388.402, 641.593 388.371, 649.067 388.341, 656.575 396.381, 657.221 403.706, 657.809 411.048, 658.399 415.427, 658.751 418.518, 656.349 420.838, 654.545 423.860, 652.196 423.921, 644.786 423.982, 637.410 424.043, 630.020 424.104, 622.618 424.165, 615.204 424.226, 607.776 424.287, 600.335 424.348, 592.882 424.410, 585.415 424.443, 581.453 " />
            <path fill="none" stroke-width="3.0" stroke-linecap="butt" stroke-opacity="1.0" stroke="rgb(0, 0, 0)" stroke-linejoin="round" d=" M 416.079, 568.710 416.007, 578.709 415.974, 583.206 415.919, 590.816 415.864, 598.413 415.809, 605.996 415.754, 613.566 415.700, 621.122 415.645, 628.665 415.590, 636.194 415.536, 643.711 415.482, 651.214 415.427, 658.751 " />
            <path fill="none" stroke-width="3.0" stroke-linecap="butt" stroke-opacity="1.0" stroke="rgb(0, 0, 0)" stroke-linejoin="round" d=" M 418.234, 568.695 422.610, 577.687 422.810, 578.098 424.443, 581.453 426.099, 584.856 430.376, 593.646 433.741, 600.559 437.933, 609.175 441.373, 616.243 443.622, 620.862 445.482, 624.686 448.998, 631.909 451.772, 637.612 455.739, 637.916 463.220, 638.489 467.199, 638.795 469.985, 636.497 472.077, 634.771 474.800, 632.525 477.683, 627.329 481.343, 620.735 483.283, 617.239 485.629, 613.011 489.227, 606.528 493.622, 598.608 497.157, 592.237 499.063, 588.804 501.663, 584.120 505.070, 577.979 " />
            <path fill="none" stroke-width="3.0" stroke-linecap="butt" stroke-opacity="1.0" stroke="rgb(0, 0, 0)" stroke-linejoin="round" d=" M 418.481, 514.170 421.906, 521.284 423.821, 525.263 425.854, 529.487 429.474, 537.006 431.364, 540.933 433.482, 545.332 437.033, 552.708 438.901, 556.583 441.101, 561.159 444.583, 568.393 446.425, 572.219 448.711, 576.967 452.124, 584.059 453.941, 587.834 456.312, 592.756 459.848, 600.104 460.126, 599.598 463.621, 593.226 465.416, 589.953 466.175, 588.570 468.102, 585.058 471.703, 578.493 474.158, 574.018 476.124, 570.433 479.832, 563.672 482.187, 559.380 484.195, 555.719 488.011, 548.762 490.263, 544.655 492.313, 540.919 496.239, 533.762 498.389, 529.843 500.480, 526.030 504.251, 519.156 506.846, 517.608 508.793, 516.447 511.328, 514.935 517.656, 515.298 525.238, 515.734 532.837, 516.170 541.216, 516.651 541.048, 524.427 540.880, 532.141 540.713, 539.841 540.547, 547.528 540.380, 555.201 540.214, 562.860 540.048, 570.505 539.883, 578.137 539.717, 585.755 539.552, 593.360 539.388, 600.951 539.224, 608.529 539.059, 616.093 538.896, 623.644 538.732, 631.182 538.569, 638.706 538.406, 646.218 538.244, 653.715 538.080, 661.247 535.751, 663.697 533.963, 665.578 531.580, 668.085 523.203, 667.411 515.606, 666.801 508.026, 666.192 503.521, 665.830 503.656, 658.197 503.790, 650.598 503.924, 642.986 504.058, 635.361 504.193, 627.721 504.328, 620.068 504.463, 612.401 504.599, 604.721 504.734, 597.026 504.870, 589.318 505.046, 579.319 505.070, 577.979 505.129, 574.612 505.207, 570.198 " />
            <path fill="none" stroke-width="3.0" stroke-linecap="butt" stroke-opacity="1.0" stroke="rgb(0, 0, 0)" stroke-linejoin="round" d=" M 427.003, 510.092 423.950, 511.553 421.605, 512.675 418.481, 514.170 412.021, 513.794 404.553, 513.360 397.102, 512.927 388.925, 512.452 " />
            <path fill="none" stroke-width="3.0" stroke-linecap="butt" stroke-opacity="1.0" stroke="rgb(0, 0, 0)" stroke-linejoin="round" d=" M 411.607, 575.284 416.079, 568.710 416.079, 568.710 418.234, 568.695 424.548, 568.654 426.552, 568.640 " />
            <path fill="none" stroke-width="3.0" stroke-linecap="butt" stroke-opacity="1.0" stroke="rgb(0, 0, 0)" stroke-linejoin="round" d=" M 489.227, 606.528 491.149, 603.065 493.622, 598.608 " />
            <path fill="none" stroke-width="3.0" stroke-linecap="butt" stroke-opacity="1.0" stroke="rgb(0, 0, 0)" stroke-linejoin="round" d=" M 498.002, 583.202 494.476, 589.567 491.836, 594.331 489.901, 597.823 486.310, 604.303 483.801, 608.834 481.848, 612.357 478.194, 618.951 475.811, 623.251 473.842, 626.806 470.126, 633.511 467.199, 638.795 " />
            <path fill="none" stroke-width="3.0" stroke-linecap="butt" stroke-opacity="1.0" stroke="rgb(0, 0, 0)" stroke-linejoin="round" d=" M 534.662, 520.924 534.496, 528.840 534.331, 536.693 534.167, 544.531 534.003, 552.355 533.840, 560.166 533.677, 567.961 533.514, 575.743 533.351, 583.511 533.189, 591.265 533.027, 599.004 532.865, 606.730 532.703, 614.442 532.542, 622.139 532.381, 629.823 532.221, 637.493 532.060, 645.150 531.900, 652.792 531.741, 660.421 531.580, 668.085 " />
            <path fill="none" stroke-width="3.0" stroke-linecap="butt" stroke-opacity="1.0" stroke="rgb(0, 0, 0)" stroke-linejoin="round" d=" M 541.216, 516.651 538.868, 518.182 537.065, 519.357 534.662, 520.924 526.136, 520.428 518.404, 519.978 510.690, 519.530 504.251, 519.156 " />
            <path fill="none" stroke-width="3.0" stroke-linecap="butt" stroke-opacity="1.0" stroke="rgb(0, 0, 0)" stroke-linejoin="round" d=" M 509.698, 574.162 508.013, 572.675 505.207, 570.198 502.625, 574.860 498.002, 583.202 502.618, 574.860 " />
            <path fill="none" stroke-width="3.0" stroke-linecap="butt" stroke-opacity="1.0" stroke="rgb(0, 0, 0)" stroke-linejoin="round" d=" M 505.207, 570.198 502.618, 574.860 " />
            <path fill="none" stroke-width="3.0" stroke-linecap="butt" stroke-opacity="1.0" stroke="rgb(0, 0, 0)" stroke-linejoin="round" d=" M 268.354, 582.119 266.856, 580.036 262.044, 573.348 256.382, 565.478 250.542, 557.360 249.639, 556.106 244.075, 548.370 238.234, 540.253 237.236, 538.865 231.767, 531.263 225.928, 523.145 224.833, 521.624 219.460, 514.155 213.620, 506.038 209.805, 500.736 199.821, 500.157 198.439, 500.077 189.456, 499.557 179.884, 502.451 176.994, 503.324 177.199, 513.322 177.389, 522.632 177.594, 532.630 177.692, 537.425 177.896, 547.423 177.993, 552.169 178.198, 562.166 178.294, 566.861 178.498, 576.859 178.593, 581.504 178.798, 591.502 178.892, 596.096 179.096, 606.094 179.189, 610.639 179.393, 620.637 179.485, 625.133 179.690, 635.131 179.869, 643.902 188.849, 644.630 198.817, 645.437 205.410, 645.971 214.276, 641.345 217.234, 639.801 217.073, 629.803 216.937, 621.271 216.776, 611.272 216.707, 606.962 216.546, 596.964 216.476, 592.605 216.316, 582.607 216.245, 578.200 216.158, 572.802 " />
            <path fill="none" stroke-width="3.0" stroke-linecap="butt" stroke-opacity="1.0" stroke="rgb(0, 0, 0)" stroke-linejoin="round" d=" M 205.410, 645.971 205.235, 635.973 205.081, 627.130 204.907, 617.132 204.827, 612.581 204.653, 602.582 204.572, 597.981 204.398, 587.983 204.317, 583.332 204.142, 573.334 203.968, 563.335 203.837, 555.868 209.721, 563.954 213.809, 569.574 216.158, 572.802 220.609, 578.917 226.357, 586.818 232.241, 594.904 233.245, 596.284 238.906, 604.064 244.789, 612.150 245.882, 613.653 251.456, 621.311 257.339, 629.397 259.915, 632.937 264.591, 639.363 270.474, 647.449 273.407, 651.479 283.374, 652.287 286.030, 652.502 295.316, 653.254 303.844, 648.032 305.741, 646.871 305.685, 636.871 305.635, 628.096 305.578, 618.096 305.553, 613.597 305.496, 603.598 305.471, 599.050 305.414, 589.050 305.388, 584.452 305.331, 574.452 305.305, 569.805 305.248, 559.805 305.222, 555.107 305.165, 545.107 305.138, 540.359 305.082, 530.359 305.055, 525.561 304.998, 515.561 304.946, 506.448 295.658, 505.910 285.674, 505.331 278.665, 504.925 269.240, 508.269 267.623, 508.843 267.723, 518.842 267.816, 528.212 267.916, 538.212 267.966, 543.209 268.066, 553.208 268.115, 558.154 268.215, 568.153 268.264, 573.047 268.354, 582.119 268.412, 587.888 268.512, 597.888 268.564, 603.092 " />
            <path fill="none" stroke-width="3.0" stroke-linecap="butt" stroke-opacity="1.0" stroke="rgb(0, 0, 0)" stroke-linejoin="round" d=" M 268.564, 603.092 263.996, 596.741 258.156, 588.623 255.725, 585.243 250.828, 578.437 245.066, 570.427 239.225, 562.309 238.204, 560.889 232.541, 553.015 226.700, 544.898 225.580, 543.342 220.015, 535.605 214.177, 527.485 212.961, 525.794 207.489, 518.194 201.649, 510.077 197.663, 504.536 " />
            <path fill="none" stroke-width="3.0" stroke-linecap="butt" stroke-opacity="1.0" stroke="rgb(0, 0, 0)" stroke-linejoin="round" d=" M 209.805, 500.736 200.261, 503.723 197.663, 504.536 187.680, 503.951 186.119, 503.859 176.994, 503.324 " />
            <path fill="none" stroke-width="3.0" stroke-linecap="butt" stroke-opacity="1.0" stroke="rgb(0, 0, 0)" stroke-linejoin="round" d=" M 295.316, 653.254 295.247, 643.254 295.185, 634.160 295.116, 624.160 295.083, 619.414 295.014, 609.415 294.981, 604.617 294.912, 594.618 294.879, 589.769 294.810, 579.769 294.776, 574.869 294.707, 564.870 294.673, 559.917 294.604, 549.918 294.569, 544.913 294.501, 534.914 294.466, 529.857 294.397, 519.857 294.332, 510.410 " />
            <path fill="none" stroke-width="3.0" stroke-linecap="butt" stroke-opacity="1.0" stroke="rgb(0, 0, 0)" stroke-linejoin="round" d=" M 304.946, 506.448 295.578, 509.945 294.332, 510.410 284.892, 509.856 274.909, 509.270 267.623, 508.843 " />
            <path fill="none" stroke-width="3.0" stroke-linecap="butt" stroke-opacity="1.0" stroke="rgb(0, 0, 0)" stroke-linejoin="round" d=" M 1095.754, 649.863 1089.185, 657.403 1082.617, 664.943 1078.425, 669.755 1081.829, 676.846 " />
            <path fill="none" stroke-width="3.0" stroke-linecap="butt" stroke-opacity="1.0" stroke="rgb(0, 0, 0)" stroke-linejoin="round" d=" M 502.625, 574.860 505.129, 574.612 " />
        </g>
    </g>
</svg>
