<?xml version='1.0' encoding='ascii'?>
<svg xmlns="http://www.w3.org/2000/svg" version="1.1" width="1080" height="1080">
    <g id="ViewLayer_LineSet" xmlns:inkscape="http://www.inkscape.org/namespaces/inkscape" inkscape:groupmode="lineset" inkscape:label="ViewLayer_LineSet">
        <g xmlns:inkscape="http://www.inkscape.org/namespaces/inkscape" inkscape:groupmode="layer" id="strokes" inkscape:label="strokes">
            <path fill="none" stroke-width="3.0" stroke-linecap="butt" stroke-opacity="1.0" stroke="rgb(0, 0, 0)" stroke-linejoin="round" d=" M 258.802, 638.795 258.690, 628.796 258.634, 623.760 258.522, 613.760 258.465, 608.671 258.353, 598.672 258.296, 593.529 258.184, 583.530 258.126, 578.333 258.015, 568.334 257.956, 563.083 257.844, 553.084 257.785, 547.779 257.673, 537.780 257.613, 532.420 257.502, 522.421 257.390, 512.372 247.407, 511.780 237.425, 511.188 230.294, 510.765 220.819, 513.965 217.915, 514.946 218.073, 524.944 218.230, 534.943 218.235, 535.274 218.392, 545.273 218.480, 550.846 218.638, 560.845 218.724, 566.363 218.882, 576.361 218.968, 581.823 219.125, 591.822 219.210, 597.228 219.368, 607.226 219.452, 612.577 219.609, 622.576 219.693, 627.872 219.850, 637.870 219.933, 643.111 220.090, 653.110 220.243, 662.843 230.209, 663.674 240.174, 664.506 247.329, 665.104 255.960, 660.053 259.019, 658.263 258.907, 648.263 258.802, 638.795 " />
            <path fill="none" stroke-width="3.0" stroke-linecap="butt" stroke-opacity="1.0" stroke="rgb(0, 0, 0)" stroke-linejoin="round" d=" M 247.329, 665.104 247.203, 655.105 247.080, 645.293 246.954, 635.294 246.888, 629.992 246.762, 619.992 246.695, 614.635 246.570, 604.636 246.502, 599.223 246.376, 589.224 246.307, 583.755 246.182, 573.756 246.112, 568.231 245.987, 558.232 245.917, 552.651 245.791, 542.652 245.721, 537.014 245.595, 527.015 245.469, 517.016 245.464, 516.601 " />
            <path fill="none" stroke-width="3.0" stroke-linecap="butt" stroke-opacity="1.0" stroke="rgb(0, 0, 0)" stroke-linejoin="round" d=" M 257.390, 512.372 247.965, 515.715 245.464, 516.601 235.482, 516.001 225.500, 515.402 217.915, 514.946 " />
            <path fill="none" stroke-width="3.0" stroke-linecap="butt" stroke-opacity="1.0" stroke="rgb(0, 0, 0)" stroke-linejoin="round" d=" M -2.551, 655.976 3.339, 653.549 7.761, 651.727 13.518, 649.356 13.216, 641.813 12.915, 634.305 12.614, 626.783 12.313, 619.248 12.011, 611.700 11.708, 604.138 11.405, 596.563 11.101, 588.975 10.797, 581.373 10.492, 573.758 10.187, 566.129 9.881, 558.486 9.574, 550.830 9.267, 543.160 8.960, 535.477 8.652, 527.780 8.343, 520.069 8.034, 512.344 7.722, 504.557 0.016, 504.091 -6.972, 503.669 " />
            <path fill="none" stroke-width="3.0" stroke-linecap="butt" stroke-opacity="1.0" stroke="rgb(0, 0, 0)" stroke-linejoin="round" d=" M 7.722, 504.557 1.828, 506.007 -2.700, 507.121 " />
            <path fill="none" stroke-width="3.0" stroke-linecap="butt" stroke-opacity="1.0" stroke="rgb(0, 0, 0)" stroke-linejoin="round" d=" M 952.683, 641.286 951.982, 651.261 951.606, 656.606 950.904, 666.581 950.210, 676.440 951.259, 683.769 961.229, 684.544 968.909, 685.142 978.879, 685.917 982.260, 686.180 983.000, 676.208 983.740, 666.235 983.764, 665.907 984.504, 655.934 984.927, 650.246 985.667, 640.273 985.997, 635.819 995.972, 636.523 1005.947, 637.228 1006.183, 637.245 1016.149, 638.067 1023.388, 638.665 1033.382, 638.316 1041.869, 638.019 1050.855, 633.633 1051.695, 633.223 1060.177, 627.927 1062.104, 626.724 1068.470, 619.013 1069.302, 618.005 1075.138, 609.925 1078.015, 600.347 1080.225, 592.991 1079.664, 583.007 1079.229, 575.266 1075.152, 566.135 1074.760, 565.257 1069.610, 556.685 1069.182, 555.971 1065.859, 550.847 1058.802, 543.762 1057.325, 542.279 1049.178, 536.480 1047.466, 535.261 1037.695, 533.136 1029.167, 531.281 1019.175, 530.887 1011.731, 530.593 1001.746, 530.038 994.987, 529.662 985.002, 529.107 978.321, 528.736 968.337, 528.181 960.670, 527.755 959.968, 537.730 959.266, 547.705 959.232, 548.193 958.530, 558.168 958.131, 563.849 957.429, 573.825 957.033, 579.449 956.331, 589.424 955.940, 594.992 955.238, 604.968 954.850, 610.479 954.149, 620.455 953.765, 625.910 953.063, 635.886 952.683, 641.286 " />
            <path fill="none" stroke-width="3.0" stroke-linecap="butt" stroke-opacity="1.0" stroke="rgb(0, 0, 0)" stroke-linejoin="round" d=" M 961.937, 532.370 961.233, 542.346 960.530, 552.321 960.469, 553.187 959.765, 563.162 959.344, 569.133 958.641, 579.108 958.224, 585.019 957.520, 594.994 957.107, 600.847 956.404, 610.822 955.995, 616.617 955.292, 626.592 954.887, 632.328 954.183, 642.303 953.783, 647.982 953.079, 657.957 952.683, 663.578 951.979, 673.553 951.276, 683.529 951.259, 683.769 " />
            <path fill="none" stroke-width="3.0" stroke-linecap="butt" stroke-opacity="1.0" stroke="rgb(0, 0, 0)" stroke-linejoin="round" d=" M 987.914, 609.983 988.352, 604.080 989.093, 594.108 989.619, 587.020 990.359, 577.047 990.802, 571.066 991.542, 561.094 991.591, 560.442 1001.572, 561.062 1011.552, 561.682 1012.049, 561.713 1022.041, 562.122 1032.027, 562.530 1040.498, 567.845 1043.594, 569.787 1046.102, 571.361 " />
            <path fill="none" stroke-width="3.0" stroke-linecap="butt" stroke-opacity="1.0" stroke="rgb(0, 0, 0)" stroke-linejoin="round" d=" M 1069.182, 555.971 1062.125, 548.886 1060.481, 547.236 1052.335, 541.436 1050.429, 540.079 1040.659, 537.948 1031.770, 536.010 1021.778, 535.610 1013.991, 535.297 1004.007, 534.736 996.920, 534.337 986.935, 533.776 979.930, 533.382 969.946, 532.821 961.937, 532.370 960.670, 527.755 " />
            <path fill="none" stroke-width="3.0" stroke-linecap="butt" stroke-opacity="1.0" stroke="rgb(0, 0, 0)" stroke-linejoin="round" d=" M 1043.594, 569.787 1044.537, 579.742 1045.026, 584.905 1041.375, 594.215 1038.636, 601.199 1029.586, 605.453 1026.909, 606.711 1016.934, 606.008 1006.959, 605.306 1006.037, 605.241 996.058, 604.586 988.352, 604.080 " />
            <path fill="none" stroke-width="3.0" stroke-linecap="butt" stroke-opacity="1.0" stroke="rgb(0, 0, 0)" stroke-linejoin="round" d=" M 1046.102, 571.361 1047.043, 581.316 1047.926, 590.651 1044.268, 599.958 1041.405, 607.243 1032.350, 611.485 1029.448, 612.845 1019.473, 612.135 1009.498, 611.424 1008.169, 611.330 998.191, 610.666 988.213, 610.003 987.914, 609.983 " />
            <path fill="none" stroke-width="3.0" stroke-linecap="butt" stroke-opacity="1.0" stroke="rgb(0, 0, 0)" stroke-linejoin="round" d=" M 810.044, 602.039 815.323, 610.531 820.566, 618.965 825.530, 626.949 830.810, 635.442 832.450, 638.080 837.644, 646.433 842.182, 653.733 847.462, 662.225 852.742, 670.718 856.193, 676.270 855.472, 683.624 845.503, 682.838 835.534, 682.052 825.565, 681.266 822.406, 681.017 817.225, 672.464 816.168, 670.721 810.986, 662.168 810.881, 661.995 805.699, 653.442 803.204, 649.324 798.474, 641.518 793.292, 632.965 788.653, 625.309 785.310, 629.595 779.161, 637.481 777.062, 640.172 771.598, 647.179 765.449, 655.064 762.844, 658.404 756.707, 666.274 750.557, 674.160 749.681, 675.283 739.712, 674.497 729.743, 673.711 719.774, 672.925 717.398, 672.737 720.612, 665.724 726.796, 657.865 732.979, 650.006 736.272, 645.822 741.372, 639.340 747.228, 631.898 753.411, 624.039 755.059, 621.945 760.697, 614.779 766.880, 606.920 770.972, 601.720 " />
            <path fill="none" stroke-width="3.0" stroke-linecap="butt" stroke-opacity="1.0" stroke="rgb(0, 0, 0)" stroke-linejoin="round" d=" M 747.228, 631.898 741.044, 639.757 736.272, 645.822 " />
            <path fill="none" stroke-width="3.0" stroke-linecap="butt" stroke-opacity="1.0" stroke="rgb(0, 0, 0)" stroke-linejoin="round" d=" M 807.062, 605.767 810.044, 602.039 812.553, 598.901 818.798, 591.091 822.223, 586.807 828.117, 579.438 834.363, 571.628 836.535, 568.911 842.751, 561.138 848.785, 553.593 855.030, 545.783 861.276, 537.973 866.281, 531.715 866.811, 527.092 856.826, 526.530 846.842, 525.969 836.858, 525.407 833.723, 525.231 827.603, 533.139 821.483, 541.048 819.864, 543.139 813.744, 551.047 810.506, 555.230 804.901, 562.474 798.780, 570.382 792.693, 578.248 788.993, 572.223 783.761, 563.700 782.000, 560.832 777.191, 552.999 771.959, 544.477 769.263, 540.086 764.356, 532.092 759.124, 523.570 757.512, 520.945 747.528, 520.383 737.544, 519.822 727.560, 519.260 725.240, 519.130 722.057, 523.507 727.360, 531.985 732.662, 540.464 736.651, 546.842 741.954, 555.320 746.952, 563.311 752.254, 571.790 757.556, 580.268 759.070, 582.688 764.372, 591.166 767.311, 595.867 770.972, 601.720 772.009, 603.379 765.823, 611.235 759.636, 619.092 758.194, 620.924 752.455, 628.213 746.269, 636.070 744.484, 638.337 738.526, 645.905 733.334, 652.498 727.148, 660.355 720.961, 668.212 717.398, 672.737 " />
            <path fill="none" stroke-width="3.0" stroke-linecap="butt" stroke-opacity="1.0" stroke="rgb(0, 0, 0)" stroke-linejoin="round" d=" M 790.772, 583.759 787.002, 577.620 781.770, 569.098 779.877, 566.015 774.977, 558.035 769.744, 549.513 766.899, 544.879 761.898, 536.734 756.666, 528.212 754.925, 525.377 " />
            <path fill="none" stroke-width="3.0" stroke-linecap="butt" stroke-opacity="1.0" stroke="rgb(0, 0, 0)" stroke-linejoin="round" d=" M 757.512, 520.945 754.925, 525.377 744.941, 524.809 734.957, 524.241 724.973, 523.673 722.057, 523.507 " />
            <path fill="none" stroke-width="3.0" stroke-linecap="butt" stroke-opacity="1.0" stroke="rgb(0, 0, 0)" stroke-linejoin="round" d=" M 855.472, 683.624 850.192, 675.132 844.912, 666.640 841.196, 660.664 836.573, 653.225 831.280, 644.718 826.001, 636.225 824.230, 633.376 819.172, 625.243 813.892, 616.751 808.612, 608.259 807.062, 605.767 " />
            <path fill="none" stroke-width="3.0" stroke-linecap="butt" stroke-opacity="1.0" stroke="rgb(0, 0, 0)" stroke-linejoin="round" d=" M 819.864, 543.139 825.549, 535.794 831.669, 527.885 833.723, 525.231 832.563, 529.796 " />
            <path fill="none" stroke-width="3.0" stroke-linecap="butt" stroke-opacity="1.0" stroke="rgb(0, 0, 0)" stroke-linejoin="round" d=" M 866.281, 531.715 856.297, 531.146 846.313, 530.578 836.329, 530.010 832.563, 529.796 826.440, 537.702 824.236, 540.548 818.445, 548.026 812.322, 555.932 808.913, 560.333 803.204, 567.706 797.081, 575.612 790.958, 583.518 790.772, 583.759 792.693, 578.248 " />
        </g>
    </g>
</svg>
