<?xml version='1.0' encoding='ascii'?>
<svg xmlns="http://www.w3.org/2000/svg" version="1.1" width="1080" height="1080">
    <g id="ViewLayer_LineSet" xmlns:inkscape="http://www.inkscape.org/namespaces/inkscape" inkscape:groupmode="lineset" inkscape:label="ViewLayer_LineSet">
        <g xmlns:inkscape="http://www.inkscape.org/namespaces/inkscape" inkscape:groupmode="layer" id="strokes" inkscape:label="strokes">
            <path fill="none" stroke-width="3.0" stroke-linecap="butt" stroke-opacity="1.0" stroke="rgb(0, 0, 0)" stroke-linejoin="round" d=" M 785.338, 627.441 782.702, 635.665 776.786, 643.727 774.317, 647.092 767.297, 654.214 765.749, 655.784 756.209, 658.781 755.960, 658.860 748.537, 661.169 738.572, 660.339 730.724, 659.686 723.561, 656.363 714.586, 651.953 713.807, 651.570 707.806, 643.572 706.661, 642.046 701.673, 633.379 699.497, 629.597 697.461, 619.807 696.355, 614.487 696.812, 604.498 697.067, 598.914 699.920, 589.329 701.137, 585.243 " />
            <path fill="none" stroke-width="3.0" stroke-linecap="butt" stroke-opacity="1.0" stroke="rgb(0, 0, 0)" stroke-linejoin="round" d=" M 673.414, 654.876 679.037, 663.145 681.142, 666.242 688.251, 673.275 690.101, 675.105 697.968, 681.278 698.410, 681.625 707.048, 686.664 708.992, 687.798 718.545, 690.754 726.327, 693.161 736.298, 693.924 744.520, 694.553 754.420, 693.146 762.416, 692.009 771.668, 688.215 773.495, 687.466 782.254, 682.640 782.627, 682.435 790.606, 676.406 792.649, 674.862 799.313, 667.406 801.670, 664.768 807.037, 656.554 811.883, 647.807 812.204, 647.228 814.912, 637.602 816.939, 630.398 818.429, 623.786 818.857, 613.795 819.171, 606.452 817.433, 596.604 816.164, 589.410 812.351, 580.166 812.177, 579.742 807.794, 570.809 802.162, 562.546 799.989, 559.357 792.944, 552.260 791.050, 550.352 783.086, 544.305 782.526, 543.879 773.934, 538.762 772.022, 537.624 762.401, 534.896 754.437, 532.638 744.450, 532.120 736.276, 531.696 726.431, 533.445 718.635, 534.829 709.517, 538.934 707.989, 539.622 699.408, 544.758 699.133, 544.922 691.367, 551.222 689.592, 552.662 683.087, 560.257 681.012, 562.679 676.890, 568.015 671.744, 576.348 667.058, 585.182 666.901, 585.479 664.377, 595.156 662.578, 602.054 662.190, 612.046 661.906, 619.329 663.732, 629.161 665.054, 636.282 668.850, 645.534 669.077, 646.086 673.414, 654.876 " />
            <path fill="none" stroke-width="3.0" stroke-linecap="butt" stroke-opacity="1.0" stroke="rgb(0, 0, 0)" stroke-linejoin="round" d=" M 785.337, 627.456 782.285, 636.979 780.527, 642.463 774.608, 650.523 771.985, 654.094 764.961, 661.212 763.257, 662.939 753.713, 665.926 753.283, 666.060 745.721, 668.404 735.756, 667.564 727.572, 666.874 720.274, 663.481 711.302, 659.065 710.336, 658.589 704.334, 650.590 703.052, 648.881 698.063, 640.215 695.749, 636.195 693.710, 626.405 692.543, 620.802 692.995, 610.812 693.261, 604.940 696.111, 595.355 697.712, 589.973 701.137, 585.243 706.103, 578.385 712.887, 571.039 714.263, 569.549 723.731, 566.332 724.695, 566.005 732.249, 563.650 742.231, 564.256 750.336, 564.749 757.617, 568.095 766.626, 572.434 767.922, 573.058 773.948, 581.038 775.337, 582.877 780.402, 591.499 782.860, 595.683 784.913, 605.470 786.149, 611.362 785.645, 621.350 785.338, 627.441 785.337, 627.456 " />
            <path fill="none" stroke-width="3.0" stroke-linecap="butt" stroke-opacity="1.0" stroke="rgb(0, 0, 0)" stroke-linejoin="round" d=" M 816.939, 630.398 817.366, 620.407 817.693, 612.737 815.954, 602.890 814.625, 595.369 810.811, 586.126 810.558, 585.514 806.153, 576.537 806.089, 576.406 800.457, 568.143 798.130, 564.730 791.087, 557.631 789.016, 555.545 781.054, 549.495 780.325, 548.942 771.735, 543.821 769.617, 542.559 759.998, 539.825 751.693, 537.464 741.707, 536.939 733.185, 536.491 723.338, 538.233 715.209, 539.671 706.088, 543.770 704.363, 544.546 695.781, 549.678 695.343, 549.939 687.575, 556.237 685.626, 557.817 679.120, 565.411 676.890, 568.015 " />
            <path fill="none" stroke-width="3.0" stroke-linecap="butt" stroke-opacity="1.0" stroke="rgb(0, 0, 0)" stroke-linejoin="round" d=" M 506.045, 631.485 513.151, 632.019 523.123, 632.768 524.863, 632.899 534.824, 633.774 540.913, 634.309 550.906, 633.925 558.042, 633.651 566.922, 628.847 575.124, 623.127 576.256, 622.337 582.256, 616.003 588.073, 607.870 588.389, 607.429 593.311, 599.483 595.538, 589.734 597.112, 582.845 596.091, 572.897 595.326, 565.440 591.107, 556.374 590.756, 555.617 585.556, 547.075 585.210, 546.507 578.223, 539.353 576.844, 537.941 568.794, 532.009 567.324, 530.926 557.580, 528.679 550.107, 526.955 540.115, 526.539 533.856, 526.279 523.874, 525.690 518.238, 525.358 508.255, 524.769 502.693, 524.442 492.710, 523.853 486.227, 523.471 478.420, 528.005 478.276, 538.004 478.131, 548.003 478.119, 548.832 477.975, 558.831 477.889, 564.786 477.745, 574.785 477.660, 580.680 477.515, 590.679 477.431, 596.516 477.287, 606.515 477.203, 612.294 477.059, 622.293 476.976, 628.013 476.832, 638.012 476.750, 643.675 476.606, 653.674 476.525, 659.279 476.381, 669.278 476.236, 679.277 476.233, 679.480 486.199, 680.305 492.694, 680.842 502.660, 681.667 505.145, 681.873 512.160, 674.746 512.356, 674.548 512.543, 664.549 512.728, 654.623 512.915, 644.625 513.016, 639.233 513.151, 632.019 " />
            <path fill="none" stroke-width="3.0" stroke-linecap="butt" stroke-opacity="1.0" stroke="rgb(0, 0, 0)" stroke-linejoin="round" d=" M 505.145, 681.873 505.324, 671.874 505.502, 661.876 505.507, 661.588 505.686, 651.590 505.787, 645.920 505.966, 635.921 506.045, 631.485 " />
            <path fill="none" stroke-width="3.0" stroke-linecap="butt" stroke-opacity="1.0" stroke="rgb(0, 0, 0)" stroke-linejoin="round" d=" M 557.033, 599.695 551.785, 602.421 541.812, 601.675 532.300, 600.964 522.324, 600.269 513.755, 599.671 513.942, 589.673 514.129, 579.675 514.177, 577.111 514.364, 567.113 514.470, 561.439 514.561, 556.544 " />
            <path fill="none" stroke-width="3.0" stroke-linecap="butt" stroke-opacity="1.0" stroke="rgb(0, 0, 0)" stroke-linejoin="round" d=" M 506.506, 605.636 506.685, 595.638 506.863, 585.640 506.916, 582.662 507.095, 572.663 507.201, 566.700 507.380, 556.701 507.391, 556.070 514.561, 556.544 524.539, 557.202 526.455, 557.329 536.445, 557.761 545.049, 558.133 553.422, 563.599 558.570, 566.959 559.945, 576.864 561.248, 586.257 558.255, 595.798 557.033, 599.695 556.040, 602.860 " />
            <path fill="none" stroke-width="3.0" stroke-linecap="butt" stroke-opacity="1.0" stroke="rgb(0, 0, 0)" stroke-linejoin="round" d=" M 576.256, 622.337 582.072, 614.202 582.496, 613.610 587.503, 605.522 589.724, 595.772 591.362, 588.577 590.336, 578.630 589.532, 570.845 585.311, 561.779 584.871, 560.833 579.670, 552.292 579.217, 551.548 572.232, 544.392 570.691, 542.813 562.643, 536.878 560.991, 535.660 551.249, 533.405 543.456, 531.601 533.465, 531.178 526.909, 530.900 516.927, 530.304 511.007, 529.950 501.025, 529.354 495.181, 529.005 485.199, 528.409 478.420, 528.005 " />
            <path fill="none" stroke-width="3.0" stroke-linecap="butt" stroke-opacity="1.0" stroke="rgb(0, 0, 0)" stroke-linejoin="round" d=" M 556.040, 602.860 547.164, 607.466 545.222, 608.473 535.250, 607.718 525.384, 606.971 515.409, 606.266 506.506, 605.636 513.755, 599.671 " />
            <path fill="none" stroke-width="3.0" stroke-linecap="butt" stroke-opacity="1.0" stroke="rgb(0, 0, 0)" stroke-linejoin="round" d=" M 379.682, 569.069 378.802, 567.649 373.531, 559.151 371.740, 556.263 366.884, 548.434 361.613, 539.936 358.878, 535.527 353.923, 527.536 348.652, 519.038 347.012, 516.394 337.030, 515.804 327.047, 515.214 317.065, 514.623 316.687, 514.601 307.386, 518.274 305.825, 518.891 311.162, 527.348 316.499, 535.804 320.545, 542.215 325.882, 550.672 330.935, 558.677 336.271, 567.134 341.608, 575.591 343.157, 578.045 348.494, 586.502 351.470, 591.218 356.208, 598.727 350.524, 606.953 344.839, 615.180 344.077, 616.282 339.038, 623.575 333.353, 631.802 332.039, 633.704 326.806, 641.276 322.247, 647.874 316.562, 656.101 310.878, 664.328 308.254, 668.124 318.220, 668.953 328.185, 669.782 338.151, 670.611 338.583, 670.647 346.810, 664.960 348.716, 663.642 354.369, 655.393 360.095, 647.037 365.747, 638.788 367.662, 635.994 372.384, 629.102 375.331, 624.801 " />
            <path fill="none" stroke-width="3.0" stroke-linecap="butt" stroke-opacity="1.0" stroke="rgb(0, 0, 0)" stroke-linejoin="round" d=" M 360.095, 647.037 354.788, 654.781 349.136, 663.030 348.716, 663.642 " />
            <path fill="none" stroke-width="3.0" stroke-linecap="butt" stroke-opacity="1.0" stroke="rgb(0, 0, 0)" stroke-linejoin="round" d=" M 338.583, 670.647 344.229, 662.393 344.749, 661.633 350.135, 653.759 355.780, 645.505 357.817, 642.527 362.612, 635.517 368.257, 627.263 369.850, 624.934 372.784, 620.645 375.331, 624.801 380.556, 633.328 382.712, 636.846 387.494, 644.650 392.719, 653.176 395.255, 657.315 400.480, 665.841 400.600, 666.037 405.825, 674.563 406.907, 676.329 416.873, 677.157 426.839, 677.986 436.804, 678.815 437.972, 678.912 445.554, 672.392 446.419, 671.649 441.104, 663.178 435.788, 654.708 432.283, 649.121 427.704, 641.825 422.465, 633.476 417.149, 625.005 415.483, 622.350 410.475, 614.369 405.160, 605.899 399.845, 597.428 398.484, 595.260 403.236, 588.510 408.990, 580.331 411.603, 576.618 417.358, 568.440 423.113, 560.263 423.985, 559.025 429.362, 551.383 434.581, 543.967 440.336, 535.789 446.091, 527.611 449.713, 522.466 439.730, 521.875 429.748, 521.285 419.765, 520.695 418.623, 520.628 409.651, 525.044 409.532, 525.102 403.915, 533.375 402.228, 535.860 397.149, 543.342 391.532, 551.615 388.788, 555.656 383.781, 563.032 379.682, 569.069 374.065, 577.342 372.876, 579.094 " />
            <path fill="none" stroke-width="3.0" stroke-linecap="butt" stroke-opacity="1.0" stroke="rgb(0, 0, 0)" stroke-linejoin="round" d=" M 372.876, 579.094 369.069, 572.958 363.797, 564.460 361.872, 561.358 356.923, 553.381 351.651, 544.884 348.764, 540.231 343.714, 532.090 338.442, 523.593 336.671, 520.738 " />
            <path fill="none" stroke-width="3.0" stroke-linecap="butt" stroke-opacity="1.0" stroke="rgb(0, 0, 0)" stroke-linejoin="round" d=" M 347.012, 516.394 337.793, 520.267 336.671, 520.738 326.689, 520.140 316.707, 519.543 306.724, 518.945 305.825, 518.891 " />
            <path fill="none" stroke-width="3.0" stroke-linecap="butt" stroke-opacity="1.0" stroke="rgb(0, 0, 0)" stroke-linejoin="round" d=" M 437.972, 678.912 432.655, 670.442 427.339, 661.972 423.566, 655.962 418.903, 648.527 413.561, 640.023 408.246, 631.552 406.449, 628.687 401.343, 620.557 396.026, 612.088 390.710, 603.618 389.123, 601.090 " />
            <path fill="none" stroke-width="3.0" stroke-linecap="butt" stroke-opacity="1.0" stroke="rgb(0, 0, 0)" stroke-linejoin="round" d=" M 423.985, 559.025 418.229, 567.202 416.700, 569.374 411.603, 576.618 " />
            <path fill="none" stroke-width="3.0" stroke-linecap="butt" stroke-opacity="1.0" stroke="rgb(0, 0, 0)" stroke-linejoin="round" d=" M 398.484, 595.260 389.996, 600.546 389.123, 601.090 393.949, 594.221 399.697, 586.038 402.449, 582.120 407.630, 574.746 413.379, 566.563 415.029, 564.214 420.493, 556.436 425.797, 548.887 431.545, 540.704 437.294, 532.522 441.175, 526.997 " />
            <path fill="none" stroke-width="3.0" stroke-linecap="butt" stroke-opacity="1.0" stroke="rgb(0, 0, 0)" stroke-linejoin="round" d=" M 449.713, 522.466 441.175, 526.997 431.193, 526.399 421.211, 525.801 411.229, 525.203 409.532, 525.102 " />
        </g>
    </g>
</svg>
