<?xml version='1.0' encoding='ascii'?>
<svg xmlns="http://www.w3.org/2000/svg" version="1.1" width="1080" height="1080">
    <g id="ViewLayer_LineSet" xmlns:inkscape="http://www.inkscape.org/namespaces/inkscape" inkscape:groupmode="lineset" inkscape:label="ViewLayer_LineSet">
        <g xmlns:inkscape="http://www.inkscape.org/namespaces/inkscape" inkscape:groupmode="layer" id="strokes" inkscape:label="strokes">
            <path fill="none" stroke-width="3.0" stroke-linecap="butt" stroke-opacity="1.0" stroke="rgb(0, 0, 0)" stroke-linejoin="round" d=" M 838.025, 624.020 834.903, 633.520 834.044, 636.132 828.068, 644.150 825.528, 647.557 818.460, 654.631 816.844, 656.249 807.296, 659.219 806.961, 659.323 799.467, 661.632 789.501, 660.808 781.522, 660.148 774.321, 656.825 765.338, 652.432 764.518, 652.031 758.515, 644.034 757.369, 642.507 752.388, 633.836 750.218, 630.059 748.220, 620.260 747.137, 614.949 747.653, 604.962 747.942, 599.376 750.865, 589.813 751.370, 588.162 " />
            <path fill="none" stroke-width="3.0" stroke-linecap="butt" stroke-opacity="1.0" stroke="rgb(0, 0, 0)" stroke-linejoin="round" d=" M 724.824, 655.343 730.445, 663.614 732.549, 666.709 739.666, 673.734 741.529, 675.573 749.406, 681.732 749.867, 682.093 758.515, 687.115 760.498, 688.267 770.057, 691.206 777.942, 693.630 787.913, 694.388 796.273, 695.023 806.175, 693.629 814.328, 692.481 823.594, 688.721 825.521, 687.939 834.303, 683.155 834.756, 682.909 842.770, 676.928 844.902, 675.338 851.619, 667.930 854.053, 665.245 859.511, 657.031 864.425, 648.322 864.772, 647.706 867.552, 638.101 869.643, 630.877 870.119, 624.256 870.606, 614.268 870.965, 606.923 869.268, 597.068 868.030, 589.882 864.236, 580.630 864.066, 580.214 859.699, 571.281 854.069, 563.017 851.897, 559.829 844.845, 552.740 842.939, 550.824 834.964, 544.790 834.383, 544.350 825.781, 539.251 823.832, 538.095 814.207, 535.382 806.137, 533.108 796.150, 532.593 787.839, 532.165 777.990, 533.898 770.041, 535.297 760.906, 539.366 759.284, 540.088 750.678, 545.181 750.328, 545.388 742.524, 551.640 740.669, 553.127 734.109, 560.675 731.965, 563.142 726.824, 571.326 723.592, 576.820 718.837, 585.617 718.657, 585.950 716.063, 595.608 714.205, 602.523 713.756, 612.513 713.428, 619.797 715.213, 629.637 716.504, 636.750 720.281, 646.009 720.503, 646.554 724.824, 655.343 " />
            <path fill="none" stroke-width="3.0" stroke-linecap="butt" stroke-opacity="1.0" stroke="rgb(0, 0, 0)" stroke-linejoin="round" d=" M 837.804, 627.933 834.680, 637.433 832.869, 642.939 826.888, 650.954 824.191, 654.569 817.118, 661.638 815.342, 663.412 805.790, 666.372 805.270, 666.533 797.634, 668.876 787.669, 668.041 779.348, 667.344 772.011, 663.952 763.030, 659.553 762.021, 659.059 756.018, 651.061 754.735, 649.351 749.753, 640.680 747.446, 636.665 745.445, 626.867 744.302, 621.273 744.815, 611.286 745.117, 605.411 748.039, 595.848 749.690, 590.445 751.370, 588.162 757.297, 580.107 758.215, 578.859 765.051, 571.561 766.491, 570.024 775.970, 566.836 777.028, 566.480 784.656, 564.126 794.638, 564.729 802.881, 565.227 810.202, 568.573 819.220, 572.894 820.561, 573.537 826.589, 581.516 827.979, 583.356 833.038, 591.982 835.490, 596.162 837.505, 605.957 838.715, 611.840 838.150, 621.824 838.025, 624.020 837.804, 627.933 " />
            <path fill="none" stroke-width="3.0" stroke-linecap="butt" stroke-opacity="1.0" stroke="rgb(0, 0, 0)" stroke-linejoin="round" d=" M 869.643, 630.877 870.130, 620.889 870.504, 613.218 868.806, 603.363 867.511, 595.850 863.716, 586.598 863.469, 585.995 859.076, 577.011 859.016, 576.888 853.385, 568.624 851.060, 565.211 844.009, 558.120 841.926, 556.026 833.953, 549.990 833.203, 549.422 824.603, 544.319 822.445, 543.039 812.822, 540.321 804.406, 537.944 794.420, 537.422 785.755, 536.969 775.905, 538.695 767.617, 540.147 758.480, 544.210 756.656, 545.021 748.047, 550.109 747.532, 550.414 739.725, 556.663 737.692, 558.291 731.131, 565.837 728.827, 568.487 723.592, 576.820 " />
            <path fill="none" stroke-width="3.0" stroke-linecap="butt" stroke-opacity="1.0" stroke="rgb(0, 0, 0)" stroke-linejoin="round" d=" M 521.018, 631.620 527.833, 632.131 537.805, 632.879 539.878, 633.034 549.840, 633.908 555.965, 634.444 565.957, 634.062 573.136, 633.787 581.938, 629.041 582.045, 628.983 590.258, 623.277 591.413, 622.474 597.127, 616.137 602.963, 608.017 603.289, 607.563 608.236, 599.618 610.483, 589.874 612.073, 582.980 611.067, 573.031 610.312, 565.576 606.098, 556.507 605.748, 555.752 600.550, 547.209 600.205, 546.642 593.216, 539.490 591.834, 538.076 583.780, 532.148 582.303, 531.061 572.558, 528.818 565.052, 527.090 555.060, 526.675 548.765, 526.413 538.782, 525.826 533.111, 525.492 523.128, 524.905 517.531, 524.575 507.548, 523.988 501.028, 523.604 493.504, 528.141 493.342, 538.139 493.181, 548.138 493.167, 548.968 493.005, 558.966 492.909, 564.921 492.747, 574.920 492.652, 580.815 492.490, 590.814 492.395, 596.651 492.234, 606.650 492.140, 612.428 491.978, 622.427 491.886, 628.147 491.724, 638.146 491.632, 643.809 491.470, 653.808 491.380, 659.413 491.218, 669.411 491.056, 679.410 491.053, 679.613 501.019, 680.437 507.550, 680.976 517.516, 681.799 520.030, 682.007 526.965, 674.679 527.169, 664.681 527.371, 654.755 527.575, 644.757 527.685, 639.365 527.833, 632.131 " />
            <path fill="none" stroke-width="3.0" stroke-linecap="butt" stroke-opacity="1.0" stroke="rgb(0, 0, 0)" stroke-linejoin="round" d=" M 520.030, 682.007 520.226, 672.009 520.422, 662.011 520.427, 661.723 520.623, 651.725 520.735, 646.054 520.931, 636.056 521.018, 631.620 " />
            <path fill="none" stroke-width="3.0" stroke-linecap="butt" stroke-opacity="1.0" stroke="rgb(0, 0, 0)" stroke-linejoin="round" d=" M 572.245, 599.636 566.607, 602.554 556.635, 601.810 547.079, 601.097 537.103, 600.403 528.493, 599.804 528.697, 589.806 528.901, 579.808 528.953, 577.245 529.157, 567.247 529.273, 561.573 529.374, 556.660 " />
            <path fill="none" stroke-width="3.0" stroke-linecap="butt" stroke-opacity="1.0" stroke="rgb(0, 0, 0)" stroke-linejoin="round" d=" M 521.525, 605.772 521.721, 595.774 521.917, 585.776 521.975, 582.797 522.171, 572.799 522.288, 566.836 522.484, 556.838 522.497, 556.206 529.374, 556.660 539.352, 557.317 541.604, 557.465 551.594, 557.897 560.241, 558.270 568.618, 563.731 573.780, 567.096 575.141, 577.003 576.431, 586.394 573.417, 595.928 572.245, 599.636 571.182, 602.997 " />
            <path fill="none" stroke-width="3.0" stroke-linecap="butt" stroke-opacity="1.0" stroke="rgb(0, 0, 0)" stroke-linejoin="round" d=" M 591.413, 622.474 597.248, 614.352 597.683, 613.747 602.716, 605.659 604.957, 595.914 606.613, 588.714 605.601, 578.766 604.809, 570.983 600.593, 561.915 600.154, 560.971 594.955, 552.429 594.502, 551.685 587.515, 544.531 585.971, 542.951 577.920, 537.020 576.260, 535.797 566.517, 533.547 558.690, 531.738 548.699, 531.316 542.105, 531.037 532.122, 530.442 526.166, 530.087 516.184, 529.492 510.304, 529.142 500.321, 528.547 493.504, 528.141 " />
            <path fill="none" stroke-width="3.0" stroke-linecap="butt" stroke-opacity="1.0" stroke="rgb(0, 0, 0)" stroke-linejoin="round" d=" M 571.182, 602.997 562.299, 607.590 560.328, 608.609 550.356, 607.856 540.445, 607.106 530.470, 606.403 521.525, 605.772 528.493, 599.804 " />
            <path fill="none" stroke-width="3.0" stroke-linecap="butt" stroke-opacity="1.0" stroke="rgb(0, 0, 0)" stroke-linejoin="round" d=" M 379.682, 569.069 378.802, 567.649 373.531, 559.151 371.740, 556.263 366.884, 548.434 361.613, 539.936 358.878, 535.527 353.923, 527.536 348.652, 519.038 347.012, 516.394 337.030, 515.804 327.047, 515.214 317.065, 514.623 316.687, 514.601 307.386, 518.274 305.825, 518.891 311.162, 527.348 316.499, 535.804 320.545, 542.215 325.882, 550.672 330.935, 558.677 336.271, 567.134 341.608, 575.591 343.157, 578.045 348.494, 586.502 351.470, 591.218 356.208, 598.727 350.524, 606.953 344.839, 615.180 344.077, 616.282 339.038, 623.575 333.353, 631.802 332.039, 633.704 326.806, 641.276 322.247, 647.874 316.562, 656.101 310.878, 664.328 308.254, 668.124 318.220, 668.953 328.185, 669.782 338.151, 670.611 338.583, 670.647 346.810, 664.960 348.716, 663.642 354.369, 655.393 360.095, 647.037 365.747, 638.788 367.662, 635.994 372.384, 629.102 375.331, 624.801 " />
            <path fill="none" stroke-width="3.0" stroke-linecap="butt" stroke-opacity="1.0" stroke="rgb(0, 0, 0)" stroke-linejoin="round" d=" M 360.095, 647.037 354.788, 654.781 349.136, 663.030 348.716, 663.642 " />
            <path fill="none" stroke-width="3.0" stroke-linecap="butt" stroke-opacity="1.0" stroke="rgb(0, 0, 0)" stroke-linejoin="round" d=" M 338.583, 670.647 344.229, 662.393 344.749, 661.633 350.135, 653.759 355.780, 645.505 357.817, 642.527 362.612, 635.517 368.257, 627.263 369.850, 624.934 372.784, 620.645 375.331, 624.801 380.556, 633.328 382.712, 636.846 387.494, 644.650 392.719, 653.176 395.255, 657.315 400.480, 665.841 400.600, 666.037 405.825, 674.563 406.907, 676.329 416.873, 677.157 426.839, 677.986 436.804, 678.815 437.972, 678.912 445.554, 672.392 446.419, 671.649 441.104, 663.178 435.788, 654.708 432.283, 649.121 427.704, 641.825 422.465, 633.476 417.149, 625.005 415.483, 622.350 410.475, 614.369 405.160, 605.899 399.845, 597.428 398.484, 595.260 403.236, 588.510 408.990, 580.331 411.603, 576.618 417.358, 568.440 423.113, 560.263 423.985, 559.025 429.362, 551.383 434.581, 543.967 440.336, 535.789 446.091, 527.611 449.713, 522.466 439.730, 521.875 429.748, 521.285 419.765, 520.695 418.623, 520.628 409.651, 525.044 409.532, 525.102 403.915, 533.375 402.228, 535.860 397.149, 543.342 391.532, 551.615 388.788, 555.656 383.781, 563.032 379.682, 569.069 374.065, 577.342 372.876, 579.094 " />
            <path fill="none" stroke-width="3.0" stroke-linecap="butt" stroke-opacity="1.0" stroke="rgb(0, 0, 0)" stroke-linejoin="round" d=" M 372.876, 579.094 369.069, 572.958 363.797, 564.460 361.872, 561.358 356.923, 553.381 351.651, 544.884 348.764, 540.231 343.714, 532.090 338.442, 523.593 336.671, 520.738 " />
            <path fill="none" stroke-width="3.0" stroke-linecap="butt" stroke-opacity="1.0" stroke="rgb(0, 0, 0)" stroke-linejoin="round" d=" M 347.012, 516.394 337.793, 520.267 336.671, 520.738 326.689, 520.140 316.707, 519.543 306.724, 518.945 305.825, 518.891 " />
            <path fill="none" stroke-width="3.0" stroke-linecap="butt" stroke-opacity="1.0" stroke="rgb(0, 0, 0)" stroke-linejoin="round" d=" M 437.972, 678.912 432.655, 670.442 427.339, 661.972 423.566, 655.962 418.903, 648.527 413.561, 640.023 408.246, 631.552 406.449, 628.687 401.343, 620.557 396.026, 612.088 390.710, 603.618 389.123, 601.090 " />
            <path fill="none" stroke-width="3.0" stroke-linecap="butt" stroke-opacity="1.0" stroke="rgb(0, 0, 0)" stroke-linejoin="round" d=" M 423.985, 559.025 418.229, 567.202 416.700, 569.374 411.603, 576.618 " />
            <path fill="none" stroke-width="3.0" stroke-linecap="butt" stroke-opacity="1.0" stroke="rgb(0, 0, 0)" stroke-linejoin="round" d=" M 398.484, 595.260 389.996, 600.546 389.123, 601.090 393.949, 594.221 399.697, 586.038 402.449, 582.120 407.630, 574.746 413.379, 566.563 415.029, 564.214 420.493, 556.436 425.797, 548.887 431.545, 540.704 437.294, 532.522 441.175, 526.997 " />
            <path fill="none" stroke-width="3.0" stroke-linecap="butt" stroke-opacity="1.0" stroke="rgb(0, 0, 0)" stroke-linejoin="round" d=" M 449.713, 522.466 441.175, 526.997 431.193, 526.399 421.211, 525.801 411.229, 525.203 409.532, 525.102 " />
        </g>
    </g>
</svg>
