<?xml version='1.0' encoding='ascii'?>
<svg xmlns="http://www.w3.org/2000/svg" version="1.1" width="1080" height="1080">
    <g id="ViewLayer_LineSet" xmlns:inkscape="http://www.inkscape.org/namespaces/inkscape" inkscape:groupmode="lineset" inkscape:label="ViewLayer_LineSet">
        <g xmlns:inkscape="http://www.inkscape.org/namespaces/inkscape" inkscape:groupmode="layer" id="strokes" inkscape:label="strokes">
            <path fill="none" stroke-width="3.0" stroke-linecap="butt" stroke-opacity="1.0" stroke="rgb(0, 0, 0)" stroke-linejoin="round" d=" M 586.654, 651.746 586.863, 644.137 587.071, 636.515 587.280, 628.880 587.490, 621.230 587.700, 613.567 587.910, 605.890 588.120, 598.199 588.395, 588.181 578.417, 587.505 574.009, 587.206 571.023, 590.009 570.767, 600.098 570.571, 607.841 570.375, 615.571 570.179, 623.287 569.984, 630.989 569.789, 638.677 569.594, 646.352 569.400, 654.012 569.148, 663.950 579.117, 664.741 583.532, 665.091 586.384, 661.617 586.654, 651.746 " />
            <path fill="none" stroke-width="3.0" stroke-linecap="butt" stroke-opacity="1.0" stroke="rgb(0, 0, 0)" stroke-linejoin="round" d=" M 583.532, 665.091 583.801, 655.132 584.009, 647.456 584.217, 639.766 584.425, 632.063 584.634, 624.345 584.843, 616.613 585.053, 608.867 585.263, 601.108 585.533, 591.111 585.536, 590.999 " />
            <path fill="none" stroke-width="3.0" stroke-linecap="butt" stroke-opacity="1.0" stroke="rgb(0, 0, 0)" stroke-linejoin="round" d=" M 588.395, 588.181 585.536, 590.999 575.560, 590.319 571.023, 590.009 " />
            <path fill="none" stroke-width="3.0" stroke-linecap="butt" stroke-opacity="1.0" stroke="rgb(0, 0, 0)" stroke-linejoin="round" d=" M 519.086, 623.527 518.098, 621.466 516.915, 619.000 516.008, 617.109 514.305, 613.557 513.164, 611.179 512.246, 609.263 510.509, 605.642 509.411, 603.353 508.481, 601.413 506.711, 597.723 505.656, 595.523 504.714, 593.559 502.911, 589.799 501.899, 587.688 500.945, 585.699 499.240, 582.144 495.962, 581.922 492.169, 581.666 488.381, 581.409 484.218, 581.127 482.859, 582.103 481.821, 582.849 480.446, 583.837 480.388, 587.733 480.331, 591.601 480.274, 595.466 480.217, 599.327 480.160, 603.185 480.103, 607.039 480.046, 610.890 479.989, 614.738 479.932, 618.582 479.876, 622.422 479.819, 626.259 479.763, 630.093 479.706, 633.923 479.649, 637.750 479.593, 641.573 479.537, 645.393 479.480, 649.209 479.424, 653.022 479.367, 656.856 483.530, 657.186 487.318, 657.486 491.110, 657.787 493.370, 657.966 494.694, 656.740 495.693, 655.814 497.001, 654.602 497.066, 650.794 497.129, 647.007 497.193, 643.216 497.257, 639.422 497.321, 635.624 497.385, 631.823 497.449, 628.019 497.513, 624.211 497.577, 620.400 497.630, 617.255 " />
            <path fill="none" stroke-width="3.0" stroke-linecap="butt" stroke-opacity="1.0" stroke="rgb(0, 0, 0)" stroke-linejoin="round" d=" M 494.156, 610.086 494.120, 612.294 494.000, 619.615 493.937, 623.463 493.874, 627.308 493.811, 631.149 493.747, 634.987 493.685, 638.822 493.622, 642.653 493.559, 646.480 493.496, 650.304 493.433, 654.125 493.370, 657.966 " />
            <path fill="none" stroke-width="3.0" stroke-linecap="butt" stroke-opacity="1.0" stroke="rgb(0, 0, 0)" stroke-linejoin="round" d=" M 494.156, 610.086 495.227, 612.294 497.534, 617.056 497.630, 617.255 499.193, 620.479 501.351, 624.932 503.049, 628.436 505.165, 632.804 506.902, 636.388 508.038, 638.731 508.977, 640.670 510.754, 644.335 512.156, 647.229 514.188, 647.387 518.017, 647.683 520.052, 647.841 521.294, 646.642 522.232, 645.736 523.460, 644.551 524.960, 641.901 526.863, 638.541 527.870, 636.761 529.088, 634.610 530.954, 631.317 533.229, 627.299 535.057, 624.071 536.041, 622.333 537.382, 619.965 539.172, 616.804 539.506, 616.213 " />
            <path fill="none" stroke-width="3.0" stroke-linecap="butt" stroke-opacity="1.0" stroke="rgb(0, 0, 0)" stroke-linejoin="round" d=" M 495.598, 584.870 497.319, 588.457 498.281, 590.464 499.304, 592.595 501.124, 596.388 502.074, 598.370 503.140, 600.591 504.926, 604.314 505.867, 606.270 506.974, 608.582 508.727, 612.236 509.654, 614.169 510.806, 616.568 512.525, 620.152 513.440, 622.061 514.635, 624.550 516.417, 628.266 516.561, 628.011 518.367, 624.805 519.086, 623.527 519.684, 622.466 520.677, 620.702 522.532, 617.410 523.795, 615.167 524.806, 613.372 526.710, 609.991 527.918, 607.847 528.947, 606.020 530.901, 602.551 532.053, 600.505 533.101, 598.646 535.105, 595.087 536.201, 593.141 537.266, 591.249 539.186, 587.841 540.376, 586.831 541.275, 586.069 542.452, 585.071 545.672, 585.289 549.527, 585.550 553.387, 585.811 557.637, 586.099 557.544, 590.002 557.452, 593.876 557.360, 597.748 557.268, 601.615 557.176, 605.480 557.085, 609.340 556.993, 613.198 556.901, 617.051 556.810, 620.902 556.718, 624.749 556.627, 628.592 556.535, 632.432 556.444, 636.268 556.353, 640.102 556.262, 643.931 556.171, 647.757 556.080, 651.580 555.989, 655.399 555.898, 659.239 554.773, 660.478 553.915, 661.423 552.777, 662.676 548.527, 662.339 544.668, 662.033 540.814, 661.728 538.521, 661.546 538.605, 657.680 538.688, 653.835 538.772, 649.986 538.856, 646.134 538.940, 642.278 539.024, 638.419 539.108, 634.556 539.192, 630.690 539.276, 626.820 539.360, 622.947 539.506, 616.213 539.521, 615.566 539.569, 613.355 " />
            <path fill="none" stroke-width="3.0" stroke-linecap="butt" stroke-opacity="1.0" stroke="rgb(0, 0, 0)" stroke-linejoin="round" d=" M 499.240, 582.144 497.928, 583.126 496.925, 583.876 495.598, 584.870 492.292, 584.645 488.466, 584.384 484.644, 584.123 480.446, 583.837 " />
            <path fill="none" stroke-width="3.0" stroke-linecap="butt" stroke-opacity="1.0" stroke="rgb(0, 0, 0)" stroke-linejoin="round" d=" M 494.120, 612.294 495.227, 612.294 497.714, 612.295 499.494, 612.296 497.726, 611.564 494.156, 610.086 491.792, 615.598 " />
            <path fill="none" stroke-width="3.0" stroke-linecap="butt" stroke-opacity="1.0" stroke="rgb(0, 0, 0)" stroke-linejoin="round" d=" M 530.954, 631.317 531.948, 629.560 533.229, 627.299 " />
            <path fill="none" stroke-width="3.0" stroke-linecap="butt" stroke-opacity="1.0" stroke="rgb(0, 0, 0)" stroke-linejoin="round" d=" M 535.890, 619.856 534.085, 623.045 532.733, 625.433 531.741, 627.186 529.899, 630.441 528.609, 632.720 527.605, 634.494 525.725, 637.816 524.497, 639.985 523.482, 641.779 521.564, 645.168 520.052, 647.841 " />
            <path fill="none" stroke-width="3.0" stroke-linecap="butt" stroke-opacity="1.0" stroke="rgb(0, 0, 0)" stroke-linejoin="round" d=" M 554.505, 588.886 554.413, 592.823 554.322, 596.733 554.230, 600.639 554.139, 604.541 554.047, 608.440 553.956, 612.335 553.865, 616.227 553.774, 620.115 553.683, 623.999 553.592, 627.880 553.501, 631.758 553.410, 635.632 553.320, 639.503 553.229, 643.369 553.139, 647.233 553.048, 651.093 552.958, 654.949 552.868, 658.802 552.777, 662.676 " />
            <path fill="none" stroke-width="3.0" stroke-linecap="butt" stroke-opacity="1.0" stroke="rgb(0, 0, 0)" stroke-linejoin="round" d=" M 557.637, 586.099 556.509, 587.103 555.647, 587.870 554.505, 588.886 550.217, 588.594 546.324, 588.328 542.435, 588.063 539.186, 587.841 " />
            <path fill="none" stroke-width="3.0" stroke-linecap="butt" stroke-opacity="1.0" stroke="rgb(0, 0, 0)" stroke-linejoin="round" d=" M 541.834, 615.357 540.606, 614.271 539.569, 613.355 538.253, 615.680 535.890, 619.856 538.246, 615.681 " />
            <path fill="none" stroke-width="3.0" stroke-linecap="butt" stroke-opacity="1.0" stroke="rgb(0, 0, 0)" stroke-linejoin="round" d=" M 539.569, 613.355 538.246, 615.681 " />
            <path fill="none" stroke-width="3.0" stroke-linecap="butt" stroke-opacity="1.0" stroke="rgb(0, 0, 0)" stroke-linejoin="round" d=" M 450.305, 621.662 447.688, 618.026 445.201, 614.570 442.275, 610.502 438.789, 605.659 435.913, 601.660 432.378, 596.748 429.551, 592.818 425.967, 587.837 423.189, 583.977 418.198, 577.041 412.125, 576.629 407.317, 576.303 402.898, 578.933 402.841, 588.767 402.798, 596.316 402.755, 603.852 402.712, 611.375 402.669, 618.884 402.626, 626.380 402.584, 633.864 402.541, 641.333 402.486, 651.025 407.293, 651.407 416.141, 652.108 420.414, 648.841 420.489, 639.214 420.547, 631.793 420.606, 624.359 420.664, 616.913 420.705, 611.660 " />
            <path fill="none" stroke-width="3.0" stroke-linecap="butt" stroke-opacity="1.0" stroke="rgb(0, 0, 0)" stroke-linejoin="round" d=" M 416.141, 652.108 416.212, 642.398 416.267, 634.913 416.322, 627.415 416.377, 619.904 416.450, 609.904 416.479, 605.856 420.705, 611.660 421.605, 612.897 425.100, 617.697 428.054, 621.756 431.595, 626.619 434.504, 630.615 440.390, 638.700 440.954, 639.475 445.302, 645.447 447.705, 648.748 452.235, 654.972 458.895, 655.500 463.786, 655.888 467.661, 652.563 467.791, 642.870 467.891, 635.398 467.991, 627.914 468.091, 620.417 468.192, 612.906 468.293, 605.382 468.393, 597.845 468.495, 590.294 468.625, 580.561 463.733, 580.230 454.767, 579.622 450.749, 582.301 450.639, 592.100 450.553, 599.702 450.467, 607.290 450.381, 614.865 450.305, 621.662 450.296, 622.427 450.208, 630.186 " />
            <path fill="none" stroke-width="3.0" stroke-linecap="butt" stroke-opacity="1.0" stroke="rgb(0, 0, 0)" stroke-linejoin="round" d=" M 450.208, 630.186 447.867, 626.932 443.628, 621.040 441.118, 617.552 438.165, 613.447 434.648, 608.560 431.746, 604.525 428.179, 599.568 425.326, 595.603 421.711, 590.574 418.906, 586.681 413.870, 579.682 " />
            <path fill="none" stroke-width="3.0" stroke-linecap="butt" stroke-opacity="1.0" stroke="rgb(0, 0, 0)" stroke-linejoin="round" d=" M 418.198, 577.041 413.870, 579.682 407.746, 579.264 402.898, 578.933 " />
            <path fill="none" stroke-width="3.0" stroke-linecap="butt" stroke-opacity="1.0" stroke="rgb(0, 0, 0)" stroke-linejoin="round" d=" M 463.786, 655.888 463.912, 646.110 464.010, 638.574 464.107, 631.024 464.205, 623.461 464.303, 615.885 464.401, 608.295 464.499, 600.691 464.598, 593.074 464.725, 583.255 " />
            <path fill="none" stroke-width="3.0" stroke-linecap="butt" stroke-opacity="1.0" stroke="rgb(0, 0, 0)" stroke-linejoin="round" d=" M 468.625, 580.561 464.725, 583.255 459.792, 582.919 450.749, 582.301 " />
            <path fill="none" stroke-width="3.0" stroke-linecap="butt" stroke-opacity="1.0" stroke="rgb(0, 0, 0)" stroke-linejoin="round" d=" M 538.253, 615.680 539.521, 615.566 " />
        </g>
    </g>
</svg>
