<?xml version='1.0' encoding='ascii'?>
<svg xmlns="http://www.w3.org/2000/svg" version="1.1" width="1080" height="1080">
    <g id="ViewLayer_LineSet" xmlns:inkscape="http://www.inkscape.org/namespaces/inkscape" inkscape:groupmode="lineset" inkscape:label="ViewLayer_LineSet">
        <g xmlns:inkscape="http://www.inkscape.org/namespaces/inkscape" inkscape:groupmode="layer" id="strokes" inkscape:label="strokes">
            <path fill="none" stroke-width="3.0" stroke-linecap="butt" stroke-opacity="1.0" stroke="rgb(0, 0, 0)" stroke-linejoin="round" d=" M 878.029, 611.935 877.429, 621.747 874.254, 631.230 872.496, 636.481 866.475, 644.466 863.882, 647.906 856.779, 654.944 855.111, 656.596 845.556, 659.547 845.157, 659.670 837.609, 661.978 827.643, 661.158 819.566, 660.494 812.337, 657.170 803.347, 652.791 802.496, 652.376 796.492, 644.379 795.345, 642.852 790.370, 634.178 788.205, 630.404 786.235, 620.600 785.169, 615.294 785.729, 605.310 786.043, 599.722 788.974, 590.320 " />
            <path fill="none" stroke-width="3.0" stroke-linecap="butt" stroke-opacity="1.0" stroke="rgb(0, 0, 0)" stroke-linejoin="round" d=" M 763.326, 655.693 768.946, 663.964 771.048, 667.059 778.172, 674.077 780.044, 675.922 787.930, 682.072 788.405, 682.443 797.060, 687.452 799.073, 688.617 808.635, 691.544 816.598, 693.981 826.569, 694.735 835.032, 695.375 844.936, 693.991 853.205, 692.834 862.482, 689.099 864.485, 688.292 873.284, 683.540 873.797, 683.263 881.837, 677.318 884.035, 675.693 890.792, 668.321 893.285, 665.601 898.810, 657.388 903.774, 648.708 904.142, 648.064 906.976, 638.474 909.114, 631.236 909.646, 621.250 910.056, 613.577 909.754, 607.275 908.088, 597.415 906.874, 590.235 903.094, 580.977 902.927, 580.567 898.572, 571.634 892.943, 563.369 890.772, 560.182 883.714, 553.099 881.799, 551.177 873.817, 545.153 873.221, 544.703 864.611, 539.616 862.634, 538.447 853.006, 535.746 844.856, 533.460 834.869, 532.947 826.455, 532.515 816.604, 534.237 808.540, 535.646 799.394, 539.689 797.700, 540.437 789.075, 545.498 788.670, 545.736 780.837, 551.953 778.922, 553.474 772.322, 560.987 770.124, 563.489 764.919, 571.672 760.114, 580.442 760.006, 580.639 757.418, 586.302 754.771, 595.945 752.869, 602.875 752.375, 612.862 752.014, 620.148 753.769, 629.993 755.035, 637.100 758.798, 646.365 759.016, 646.904 763.326, 655.693 " />
            <path fill="none" stroke-width="3.0" stroke-linecap="butt" stroke-opacity="1.0" stroke="rgb(0, 0, 0)" stroke-linejoin="round" d=" M 878.082, 612.198 877.471, 622.179 877.097, 628.290 873.920, 637.772 872.069, 643.295 866.043, 651.276 863.289, 654.924 856.180, 661.956 854.350, 663.767 844.792, 666.706 844.205, 666.886 836.513, 669.229 826.547, 668.398 818.125, 667.697 810.758, 664.304 801.770, 659.918 800.729, 659.410 794.725, 651.413 793.441, 649.703 788.465, 641.029 786.163, 637.017 784.190, 627.213 783.066, 621.625 783.625, 611.640 783.953, 605.764 786.929, 596.217 788.618, 590.799 788.974, 590.320 794.946, 582.299 797.243, 579.214 804.118, 571.951 805.606, 570.379 815.092, 567.213 816.221, 566.836 823.905, 564.482 833.887, 565.083 842.234, 565.584 849.584, 568.930 858.608, 573.238 859.984, 573.895 866.013, 581.873 867.404, 583.714 872.458, 592.343 874.905, 596.520 876.891, 606.320 878.029, 611.935 878.082, 612.198 " />
            <path fill="none" stroke-width="3.0" stroke-linecap="butt" stroke-opacity="1.0" stroke="rgb(0, 0, 0)" stroke-linejoin="round" d=" M 910.056, 613.577 908.388, 603.717 907.119, 596.210 903.338, 586.952 903.094, 586.355 898.712, 577.366 898.654, 577.248 893.024, 568.983 890.701, 565.571 883.643, 558.486 881.551, 556.386 873.570, 550.361 872.804, 549.782 864.196, 544.692 862.010, 543.399 852.383, 540.692 843.885, 538.302 833.898, 537.783 825.126, 537.326 815.274, 539.041 806.866, 540.504 797.717, 544.540 795.819, 545.377 787.191, 550.433 786.617, 550.769 778.782, 556.982 776.685, 558.645 770.083, 566.156 767.724, 568.840 762.422, 577.172 757.616, 585.942 757.418, 586.302 " />
            <path fill="none" stroke-width="3.0" stroke-linecap="butt" stroke-opacity="1.0" stroke="rgb(0, 0, 0)" stroke-linejoin="round" d=" M 543.291, 631.821 549.675, 632.298 559.647, 633.044 562.215, 633.236 572.177, 634.107 578.355, 634.647 588.348, 634.266 595.589, 633.990 604.401, 629.262 604.543, 629.186 612.769, 623.501 613.960, 622.678 619.249, 616.337 625.111, 608.236 625.454, 607.763 630.438, 599.818 632.716, 590.081 634.330, 583.181 633.344, 573.230 632.606, 565.777 628.399, 556.705 628.051, 555.954 622.855, 547.410 622.511, 546.844 615.518, 539.695 614.132, 538.277 606.074, 532.356 604.586, 531.262 594.839, 529.025 587.284, 527.291 577.293, 526.876 570.942, 526.613 560.959, 526.028 555.236, 525.692 545.253, 525.106 539.604, 524.775 529.621, 524.189 523.046, 523.803 515.943, 528.343 515.755, 538.342 515.568, 548.340 515.552, 549.170 515.364, 559.168 515.252, 565.123 515.064, 575.121 514.954, 581.017 514.766, 591.015 514.656, 596.852 514.468, 606.850 514.360, 612.629 514.172, 622.627 514.065, 628.348 513.877, 638.346 513.770, 644.009 513.582, 654.007 513.477, 659.612 513.289, 669.611 513.101, 679.609 513.098, 679.812 523.064, 680.633 529.650, 681.176 539.617, 681.996 542.172, 682.207 548.696, 674.876 548.926, 664.878 549.154, 654.952 549.384, 644.954 549.508, 639.562 549.675, 632.298 " />
            <path fill="none" stroke-width="3.0" stroke-linecap="butt" stroke-opacity="1.0" stroke="rgb(0, 0, 0)" stroke-linejoin="round" d=" M 542.172, 682.207 542.394, 672.209 542.616, 662.212 542.622, 661.923 542.845, 651.926 542.971, 646.255 543.193, 636.258 543.291, 631.821 " />
            <path fill="none" stroke-width="3.0" stroke-linecap="butt" stroke-opacity="1.0" stroke="rgb(0, 0, 0)" stroke-linejoin="round" d=" M 594.874, 599.550 588.657, 602.754 578.684, 602.012 569.064, 601.296 559.088, 600.604 550.417, 600.002 550.646, 590.005 550.876, 580.008 550.935, 577.443 551.165, 567.446 551.295, 561.771 551.409, 556.833 " />
            <path fill="none" stroke-width="3.0" stroke-linecap="butt" stroke-opacity="1.0" stroke="rgb(0, 0, 0)" stroke-linejoin="round" d=" M 543.866, 605.974 544.088, 595.976 544.310, 585.979 544.376, 583.000 544.599, 573.002 544.731, 567.039 544.953, 557.041 544.967, 556.409 551.409, 556.833 561.387, 557.488 564.139, 557.669 574.130, 558.099 582.840, 558.474 591.222, 563.928 596.405, 567.300 597.746, 577.210 599.017, 586.598 595.970, 596.122 594.874, 599.550 593.707, 603.200 " />
            <path fill="none" stroke-width="3.0" stroke-linecap="butt" stroke-opacity="1.0" stroke="rgb(0, 0, 0)" stroke-linejoin="round" d=" M 613.960, 622.678 619.822, 614.576 620.274, 613.951 625.346, 605.863 627.619, 596.125 629.300, 588.919 628.310, 578.969 627.535, 571.188 623.325, 562.117 622.889, 561.177 617.692, 552.633 617.241, 551.891 610.250, 544.740 608.702, 543.156 600.646, 537.232 598.974, 536.003 589.229, 533.758 581.351, 531.943 571.360, 531.521 564.709, 531.241 554.727, 530.648 548.716, 530.291 538.734, 529.697 532.800, 529.345 522.818, 528.752 515.943, 528.343 " />
            <path fill="none" stroke-width="3.0" stroke-linecap="butt" stroke-opacity="1.0" stroke="rgb(0, 0, 0)" stroke-linejoin="round" d=" M 593.707, 603.200 584.815, 607.776 582.800, 608.812 572.828, 608.061 562.850, 607.309 552.875, 606.607 543.866, 605.974 550.417, 600.002 " />
            <path fill="none" stroke-width="3.0" stroke-linecap="butt" stroke-opacity="1.0" stroke="rgb(0, 0, 0)" stroke-linejoin="round" d=" M 386.011, 569.241 385.067, 567.719 379.797, 559.220 378.006, 556.333 373.151, 548.504 367.880, 540.005 365.146, 535.596 360.191, 527.606 354.921, 519.107 353.282, 516.463 343.299, 515.874 333.317, 515.284 323.334, 514.694 322.927, 514.670 313.640, 518.379 312.182, 518.961 317.519, 527.418 322.855, 535.875 326.900, 542.286 332.237, 550.743 337.288, 558.748 342.625, 567.205 347.961, 575.662 349.509, 578.116 354.846, 586.573 357.821, 591.289 362.559, 598.798 356.866, 607.019 351.173, 615.240 350.402, 616.352 345.352, 623.646 339.659, 631.867 338.338, 633.775 333.094, 641.347 328.526, 647.944 322.833, 656.166 317.140, 664.387 314.503, 668.195 324.469, 669.023 334.434, 669.851 344.400, 670.679 344.862, 670.717 353.057, 664.987 354.881, 663.712 360.541, 655.468 366.283, 647.106 371.944, 638.863 373.865, 636.063 378.598, 629.172 381.619, 624.771 " />
            <path fill="none" stroke-width="3.0" stroke-linecap="butt" stroke-opacity="1.0" stroke="rgb(0, 0, 0)" stroke-linejoin="round" d=" M 366.283, 647.106 360.965, 654.850 355.305, 663.094 354.881, 663.712 " />
            <path fill="none" stroke-width="3.0" stroke-linecap="butt" stroke-opacity="1.0" stroke="rgb(0, 0, 0)" stroke-linejoin="round" d=" M 344.862, 670.717 350.516, 662.469 351.041, 661.704 356.438, 653.830 362.092, 645.581 364.137, 642.598 368.942, 635.587 374.595, 627.339 376.195, 625.005 379.135, 620.716 381.619, 624.771 386.844, 633.297 389.062, 636.918 393.843, 644.721 399.068, 653.248 401.603, 657.386 406.828, 665.913 406.947, 666.108 412.172, 674.635 413.253, 676.400 423.219, 677.228 433.185, 678.056 443.150, 678.884 444.348, 678.984 451.884, 672.411 452.677, 671.719 447.363, 663.248 442.048, 654.778 438.543, 649.192 433.966, 641.895 428.726, 633.546 423.412, 625.075 421.746, 622.420 416.738, 614.439 411.424, 605.968 406.109, 597.497 404.749, 595.330 409.510, 588.580 415.273, 580.407 417.895, 576.688 423.658, 568.516 429.421, 560.344 430.302, 559.095 435.690, 551.454 440.920, 544.038 446.684, 535.865 452.447, 527.693 456.083, 522.536 446.100, 521.946 436.118, 521.357 426.135, 520.767 424.963, 520.698 415.993, 525.173 410.368, 533.441 408.674, 535.931 403.583, 543.413 397.958, 551.681 395.205, 555.727 390.187, 563.103 386.011, 569.241 380.385, 577.509 379.258, 579.165 " />
            <path fill="none" stroke-width="3.0" stroke-linecap="butt" stroke-opacity="1.0" stroke="rgb(0, 0, 0)" stroke-linejoin="round" d=" M 379.258, 579.165 375.452, 573.029 370.180, 564.531 368.256, 561.429 363.308, 553.452 358.036, 544.954 355.150, 540.302 350.100, 532.161 344.829, 523.663 343.059, 520.809 " />
            <path fill="none" stroke-width="3.0" stroke-linecap="butt" stroke-opacity="1.0" stroke="rgb(0, 0, 0)" stroke-linejoin="round" d=" M 353.282, 516.463 344.079, 520.375 343.059, 520.809 333.077, 520.212 323.095, 519.614 313.112, 519.017 312.182, 518.961 " />
            <path fill="none" stroke-width="3.0" stroke-linecap="butt" stroke-opacity="1.0" stroke="rgb(0, 0, 0)" stroke-linejoin="round" d=" M 444.348, 678.984 439.032, 670.514 433.717, 662.044 429.945, 656.034 425.282, 648.599 419.941, 640.095 414.627, 631.624 412.829, 628.758 407.724, 620.629 402.408, 612.159 397.092, 603.689 395.506, 601.161 " />
            <path fill="none" stroke-width="3.0" stroke-linecap="butt" stroke-opacity="1.0" stroke="rgb(0, 0, 0)" stroke-linejoin="round" d=" M 430.302, 559.095 424.539, 567.267 423.003, 569.444 417.895, 576.688 " />
            <path fill="none" stroke-width="3.0" stroke-linecap="butt" stroke-opacity="1.0" stroke="rgb(0, 0, 0)" stroke-linejoin="round" d=" M 404.749, 595.330 396.292, 600.665 395.506, 601.161 400.342, 594.292 406.099, 586.115 408.861, 582.191 414.052, 574.818 419.809, 566.641 421.467, 564.285 426.942, 556.508 432.257, 548.959 438.014, 540.782 443.770, 532.605 447.668, 527.069 " />
            <path fill="none" stroke-width="3.0" stroke-linecap="butt" stroke-opacity="1.0" stroke="rgb(0, 0, 0)" stroke-linejoin="round" d=" M 456.083, 522.536 447.668, 527.069 437.685, 526.472 427.703, 525.874 417.721, 525.277 415.993, 525.173 " />
        </g>
    </g>
</svg>
