<?xml version='1.0' encoding='ascii'?>
<svg xmlns="http://www.w3.org/2000/svg" version="1.1" width="1080" height="1080">
    <g id="ViewLayer_LineSet" xmlns:inkscape="http://www.inkscape.org/namespaces/inkscape" inkscape:groupmode="lineset" inkscape:label="ViewLayer_LineSet">
        <g xmlns:inkscape="http://www.inkscape.org/namespaces/inkscape" inkscape:groupmode="layer" id="strokes" inkscape:label="strokes">
            <path fill="none" stroke-width="3.0" stroke-linecap="butt" stroke-opacity="1.0" stroke="rgb(0, 0, 0)" stroke-linejoin="round" d=" M 692.846, 648.635 693.244, 638.643 693.444, 633.617 693.842, 623.625 694.045, 618.546 694.443, 608.554 694.648, 603.421 695.046, 593.429 695.253, 588.243 695.651, 578.251 695.860, 573.011 696.258, 563.019 696.469, 557.724 696.867, 547.732 697.080, 542.383 697.478, 532.391 697.878, 522.358 687.894, 521.789 677.911, 521.221 668.904, 520.708 664.701, 525.074 664.341, 535.068 663.981, 545.061 663.970, 545.379 663.610, 555.372 663.409, 560.933 663.049, 570.927 662.851, 576.431 662.491, 586.424 662.295, 591.873 661.935, 601.867 661.741, 607.260 661.381, 617.253 661.188, 622.591 660.828, 632.585 660.638, 637.868 660.278, 647.861 660.090, 653.090 659.730, 663.083 659.380, 672.798 669.349, 673.591 679.317, 674.384 688.348, 675.102 692.071, 668.080 692.469, 658.088 692.846, 648.635 " />
            <path fill="none" stroke-width="3.0" stroke-linecap="butt" stroke-opacity="1.0" stroke="rgb(0, 0, 0)" stroke-linejoin="round" d=" M 688.348, 675.102 688.742, 665.110 689.129, 655.314 689.523, 645.322 689.731, 640.031 690.126, 630.039 690.336, 624.692 690.731, 614.700 690.944, 609.298 691.338, 599.306 691.553, 593.849 691.947, 583.857 692.165, 578.343 692.559, 568.351 692.779, 562.781 693.173, 552.789 693.395, 547.163 693.789, 537.171 694.183, 527.179 694.199, 526.774 " />
            <path fill="none" stroke-width="3.0" stroke-linecap="butt" stroke-opacity="1.0" stroke="rgb(0, 0, 0)" stroke-linejoin="round" d=" M 697.878, 522.358 694.199, 526.774 684.216, 526.199 674.232, 525.624 664.701, 525.074 " />
            <path fill="none" stroke-width="3.0" stroke-linecap="butt" stroke-opacity="1.0" stroke="rgb(0, 0, 0)" stroke-linejoin="round" d=" M 559.276, 593.872 557.138, 589.396 554.829, 584.560 553.058, 580.852 549.732, 573.886 547.504, 569.222 545.710, 565.465 542.317, 558.359 540.171, 553.866 538.353, 550.059 534.893, 542.814 532.830, 538.493 530.988, 534.636 527.461, 527.250 525.480, 523.102 523.614, 519.194 520.277, 512.207 513.834, 511.840 506.384, 511.416 498.952, 510.992 490.795, 510.528 488.170, 511.985 486.154, 513.104 483.469, 514.595 483.353, 522.343 483.238, 530.030 483.122, 537.703 483.008, 545.362 482.893, 553.007 482.778, 560.639 482.664, 568.257 482.550, 575.862 482.436, 583.454 482.323, 591.032 482.209, 598.596 482.096, 606.147 481.983, 613.685 481.870, 621.210 481.757, 628.721 481.645, 636.220 481.533, 643.705 481.421, 651.176 481.308, 658.682 489.463, 659.331 496.893, 659.922 504.341, 660.514 508.782, 660.868 511.271, 658.452 513.139, 656.638 515.572, 654.275 515.713, 646.867 515.853, 639.492 515.994, 632.105 516.134, 624.705 516.276, 617.292 516.417, 609.866 516.558, 602.427 516.700, 594.975 516.842, 587.511 516.984, 580.033 516.987, 579.889 " />
            <path fill="none" stroke-width="3.0" stroke-linecap="butt" stroke-opacity="1.0" stroke="rgb(0, 0, 0)" stroke-linejoin="round" d=" M 510.424, 570.848 510.242, 580.847 510.160, 585.341 510.021, 592.950 509.883, 600.544 509.744, 608.126 509.606, 615.693 509.468, 623.248 509.331, 630.789 509.194, 638.317 509.057, 645.831 508.920, 653.332 508.782, 660.868 " />
            <path fill="none" stroke-width="3.0" stroke-linecap="butt" stroke-opacity="1.0" stroke="rgb(0, 0, 0)" stroke-linejoin="round" d=" M 512.612, 570.835 516.987, 579.889 517.155, 580.237 520.420, 586.995 524.667, 595.783 528.008, 602.696 532.170, 611.311 535.586, 618.379 537.818, 622.998 539.665, 626.821 543.156, 634.044 545.910, 639.746 549.934, 640.051 557.522, 640.627 561.559, 640.934 563.730, 638.622 565.359, 636.886 567.481, 634.626 570.462, 629.433 574.247, 622.842 576.253, 619.347 578.680, 615.120 582.400, 608.640 584.388, 605.178 586.945, 600.724 590.601, 594.356 592.572, 590.924 595.260, 586.242 598.850, 579.988 600.687, 576.788 " />
            <path fill="none" stroke-width="3.0" stroke-linecap="butt" stroke-opacity="1.0" stroke="rgb(0, 0, 0)" stroke-linejoin="round" d=" M 513.456, 516.323 516.855, 523.437 518.756, 527.415 520.775, 531.638 524.367, 539.157 526.244, 543.084 528.346, 547.483 531.870, 554.858 533.724, 558.733 535.909, 563.309 539.365, 570.542 541.193, 574.367 543.462, 579.115 546.850, 586.206 548.654, 589.981 551.007, 594.903 554.517, 602.250 554.805, 601.744 558.423, 595.375 559.276, 593.872 561.066, 590.721 563.060, 587.211 566.787, 580.649 569.328, 576.176 571.363, 572.592 575.202, 565.834 577.638, 561.544 579.717, 557.885 583.667, 550.931 585.998, 546.826 588.120, 543.091 592.183, 535.937 594.408, 532.020 596.573, 528.209 600.476, 521.337 602.431, 519.775 603.898, 518.603 605.808, 517.077 612.226, 517.442 619.916, 517.880 627.624, 518.319 636.123, 518.803 635.869, 526.577 635.617, 534.289 635.365, 541.987 635.114, 549.672 634.863, 557.343 634.613, 565.000 634.363, 572.643 634.114, 580.273 633.865, 587.890 633.616, 595.492 633.368, 603.082 633.121, 610.658 632.873, 618.220 632.627, 625.769 632.380, 633.305 632.135, 640.828 631.889, 648.337 631.644, 655.833 631.398, 663.363 629.679, 665.826 628.359, 667.718 626.600, 670.239 618.103, 669.563 610.397, 668.950 602.709, 668.339 598.139, 667.975 598.359, 660.344 598.578, 652.747 598.797, 645.137 599.016, 637.513 599.236, 629.876 599.456, 622.225 599.677, 614.560 599.898, 606.881 600.119, 599.189 600.341, 591.482 600.629, 581.486 600.764, 576.781 600.768, 576.647 600.891, 572.367 " />
            <path fill="none" stroke-width="3.0" stroke-linecap="butt" stroke-opacity="1.0" stroke="rgb(0, 0, 0)" stroke-linejoin="round" d=" M 520.277, 512.207 517.833, 513.681 515.956, 514.814 513.456, 516.323 506.902, 515.945 499.325, 515.509 491.765, 515.073 483.469, 514.595 " />
            <path fill="none" stroke-width="3.0" stroke-linecap="butt" stroke-opacity="1.0" stroke="rgb(0, 0, 0)" stroke-linejoin="round" d=" M 505.813, 577.419 510.425, 570.848 510.426, 570.848 512.612, 570.835 517.160, 570.807 520.837, 570.784 521.057, 570.783 " />
            <path fill="none" stroke-width="3.0" stroke-linecap="butt" stroke-opacity="1.0" stroke="rgb(0, 0, 0)" stroke-linejoin="round" d=" M 593.435, 585.366 589.786, 591.728 587.054, 596.489 585.052, 599.980 581.336, 606.457 578.739, 610.986 576.718, 614.508 572.937, 621.098 570.471, 625.397 568.433, 628.950 564.588, 635.653 561.559, 640.934 " />
            <path fill="none" stroke-width="3.0" stroke-linecap="butt" stroke-opacity="1.0" stroke="rgb(0, 0, 0)" stroke-linejoin="round" d=" M 631.330, 523.115 631.075, 531.029 630.823, 538.880 630.571, 546.717 630.319, 554.539 630.068, 562.347 629.818, 570.141 629.568, 577.921 629.318, 585.687 629.069, 593.438 628.820, 601.176 628.572, 608.900 628.324, 616.609 628.077, 624.305 627.830, 631.987 627.583, 639.655 627.337, 647.310 627.092, 654.950 626.846, 662.577 626.600, 670.239 " />
            <path fill="none" stroke-width="3.0" stroke-linecap="butt" stroke-opacity="1.0" stroke="rgb(0, 0, 0)" stroke-linejoin="round" d=" M 636.123, 518.803 634.406, 520.348 633.087, 521.534 631.330, 523.115 622.679, 522.617 614.835, 522.165 607.008, 521.714 600.476, 521.337 " />
            <path fill="none" stroke-width="3.0" stroke-linecap="butt" stroke-opacity="1.0" stroke="rgb(0, 0, 0)" stroke-linejoin="round" d=" M 605.407, 576.332 602.443, 573.729 600.891, 572.367 598.219, 577.027 593.435, 585.366 598.212, 577.027 " />
            <path fill="none" stroke-width="3.0" stroke-linecap="butt" stroke-opacity="1.0" stroke="rgb(0, 0, 0)" stroke-linejoin="round" d=" M 600.891, 572.367 598.212, 577.027 " />
            <path fill="none" stroke-width="3.0" stroke-linecap="butt" stroke-opacity="1.0" stroke="rgb(0, 0, 0)" stroke-linejoin="round" d=" M 423.230, 589.787 418.692, 583.478 413.879, 576.790 408.216, 568.920 402.375, 560.803 401.473, 559.548 395.908, 551.812 390.067, 543.695 389.068, 542.307 383.598, 534.705 377.758, 526.587 376.663, 525.065 371.289, 517.597 365.448, 509.480 361.633, 504.177 351.649, 503.607 349.994, 503.513 340.794, 502.988 331.481, 506.630 331.008, 506.816 331.034, 516.815 331.059, 526.115 331.085, 536.115 331.098, 540.903 331.124, 550.903 331.137, 555.640 331.163, 565.640 331.176, 570.327 331.202, 580.327 331.215, 584.964 331.241, 594.963 331.253, 599.550 331.280, 609.550 331.292, 614.088 331.318, 624.087 331.330, 628.575 331.356, 638.575 331.380, 647.337 340.576, 648.069 350.545, 648.863 357.537, 649.420 365.821, 643.819 366.750, 643.191 366.765, 633.191 366.778, 624.668 366.793, 614.668 366.800, 610.365 366.815, 600.365 366.821, 596.014 366.836, 586.014 366.843, 581.614 366.857, 572.105 " />
            <path fill="none" stroke-width="3.0" stroke-linecap="butt" stroke-opacity="1.0" stroke="rgb(0, 0, 0)" stroke-linejoin="round" d=" M 357.537, 649.420 357.541, 639.420 357.545, 630.586 357.549, 620.586 357.551, 616.043 357.555, 606.043 357.557, 601.449 357.562, 591.449 357.564, 586.806 357.568, 576.806 357.572, 566.806 357.575, 559.353 363.460, 567.438 366.857, 572.105 367.552, 573.059 373.438, 581.143 374.354, 582.402 380.105, 590.303 385.990, 598.388 386.996, 599.769 392.659, 607.549 398.543, 615.634 399.638, 617.139 405.214, 624.797 411.099, 632.882 413.677, 636.423 418.355, 642.848 424.240, 650.933 427.175, 654.965 437.143, 655.759 440.103, 655.995 449.613, 656.752 457.353, 650.308 457.474, 640.309 457.581, 631.540 457.703, 621.541 457.758, 617.048 457.879, 607.048 457.934, 602.506 458.056, 592.507 458.112, 587.914 458.234, 577.915 458.290, 573.273 458.412, 563.273 458.469, 558.581 458.590, 548.582 458.648, 543.839 458.770, 533.840 458.828, 529.047 458.950, 519.047 459.061, 509.942 449.548, 509.398 439.565, 508.828 432.146, 508.404 423.857, 512.385 423.776, 522.384 423.700, 531.746 423.619, 541.746 423.579, 546.737 423.498, 556.736 423.458, 561.675 423.377, 571.675 423.337, 576.562 423.257, 586.562 423.230, 589.787 423.217, 591.397 423.136, 601.397 423.094, 606.595 " />
            <path fill="none" stroke-width="3.0" stroke-linecap="butt" stroke-opacity="1.0" stroke="rgb(0, 0, 0)" stroke-linejoin="round" d=" M 423.094, 606.595 418.526, 600.244 412.686, 592.126 410.254, 588.746 405.356, 581.940 399.593, 573.930 393.752, 565.813 392.730, 564.392 387.066, 556.518 381.225, 548.401 380.105, 546.845 374.539, 539.108 368.700, 530.989 367.483, 529.297 362.011, 521.697 356.171, 513.580 352.184, 508.039 " />
            <path fill="none" stroke-width="3.0" stroke-linecap="butt" stroke-opacity="1.0" stroke="rgb(0, 0, 0)" stroke-linejoin="round" d=" M 361.633, 504.177 352.376, 507.960 352.184, 508.039 342.200, 507.462 340.356, 507.356 331.008, 506.816 " />
            <path fill="none" stroke-width="3.0" stroke-linecap="butt" stroke-opacity="1.0" stroke="rgb(0, 0, 0)" stroke-linejoin="round" d=" M 449.613, 656.752 449.725, 646.753 449.828, 637.666 449.940, 627.666 449.994, 622.926 450.106, 612.927 450.160, 608.135 450.273, 598.136 450.327, 593.293 450.440, 583.294 450.495, 578.399 450.608, 568.400 450.664, 563.454 450.776, 553.454 450.833, 548.456 450.945, 538.456 451.002, 533.405 451.115, 523.406 451.221, 513.966 " />
            <path fill="none" stroke-width="3.0" stroke-linecap="butt" stroke-opacity="1.0" stroke="rgb(0, 0, 0)" stroke-linejoin="round" d=" M 459.061, 509.942 451.221, 513.966 441.549, 513.407 431.566, 512.830 423.857, 512.385 " />
            <path fill="none" stroke-width="3.0" stroke-linecap="butt" stroke-opacity="1.0" stroke="rgb(0, 0, 0)" stroke-linejoin="round" d=" M 598.219, 577.027 600.687, 576.788 600.764, 576.781 " />
        </g>
    </g>
</svg>
