<?xml version='1.0' encoding='ascii'?>
<svg xmlns="http://www.w3.org/2000/svg" version="1.1" width="1080" height="1080">
    <g id="ViewLayer_LineSet" xmlns:inkscape="http://www.inkscape.org/namespaces/inkscape" inkscape:groupmode="lineset" inkscape:label="ViewLayer_LineSet">
        <g xmlns:inkscape="http://www.inkscape.org/namespaces/inkscape" inkscape:groupmode="layer" id="strokes" inkscape:label="strokes">
            <path fill="none" stroke-width="3.0" stroke-linecap="butt" stroke-opacity="1.0" stroke="rgb(0, 0, 0)" stroke-linejoin="round" d=" M 642.607, 647.496 642.946, 637.502 643.117, 632.476 643.456, 622.482 643.628, 617.403 643.967, 607.409 644.142, 602.276 644.481, 592.282 644.657, 587.096 644.996, 577.102 645.174, 571.862 645.513, 561.868 645.693, 556.573 646.032, 546.579 646.214, 541.230 646.553, 531.236 646.893, 521.202 636.910, 520.631 626.926, 520.060 618.137, 519.557 612.987, 523.902 612.687, 533.898 612.387, 543.893 612.378, 544.209 612.077, 554.205 611.911, 559.766 611.610, 569.761 611.445, 575.266 611.145, 585.261 610.982, 590.710 610.681, 600.706 610.519, 606.099 610.219, 616.094 610.059, 621.432 609.759, 631.428 609.600, 636.711 609.300, 646.706 609.143, 651.935 608.843, 661.930 608.552, 671.646 618.520, 672.443 628.488, 673.240 637.302, 673.945 641.947, 666.944 642.286, 656.950 642.607, 647.496 " />
            <path fill="none" stroke-width="3.0" stroke-linecap="butt" stroke-opacity="1.0" stroke="rgb(0, 0, 0)" stroke-linejoin="round" d=" M 637.302, 673.945 637.636, 663.950 637.963, 654.155 638.297, 644.160 638.474, 638.869 638.808, 628.875 638.987, 623.528 639.321, 613.534 639.501, 608.132 639.835, 598.138 640.018, 592.681 640.352, 582.686 640.536, 577.173 640.870, 567.179 641.056, 561.609 641.390, 551.615 641.578, 545.989 641.912, 535.994 642.246, 526.000 642.260, 525.597 " />
            <path fill="none" stroke-width="3.0" stroke-linecap="butt" stroke-opacity="1.0" stroke="rgb(0, 0, 0)" stroke-linejoin="round" d=" M 646.893, 521.202 642.260, 525.597 632.276, 525.019 622.293, 524.441 612.987, 523.902 " />
            <path fill="none" stroke-width="3.0" stroke-linecap="butt" stroke-opacity="1.0" stroke="rgb(0, 0, 0)" stroke-linejoin="round" d=" M 380.321, 586.354 379.848, 585.376 377.506, 580.541 375.710, 576.832 372.338, 569.865 370.079, 565.200 368.260, 561.442 364.819, 554.336 362.644, 549.842 360.800, 546.034 357.292, 538.788 355.200, 534.467 353.332, 530.608 349.757, 523.222 347.748, 519.073 345.856, 515.165 342.472, 508.176 336.202, 507.813 328.953, 507.393 321.720, 506.975 313.782, 506.515 310.006, 507.946 307.106, 509.046 303.243, 510.510 303.289, 518.261 303.334, 525.951 303.379, 533.628 303.424, 541.291 303.468, 548.940 303.513, 556.575 303.558, 564.197 303.602, 571.806 303.647, 579.401 303.691, 586.982 303.736, 594.550 303.780, 602.105 303.824, 609.647 303.868, 617.175 303.912, 624.690 303.956, 632.191 304.000, 639.680 304.044, 647.155 304.088, 654.665 312.023, 655.309 319.254, 655.895 326.500, 656.483 330.822, 656.833 334.459, 654.443 337.190, 652.649 340.745, 650.312 340.734, 642.900 340.722, 635.522 340.711, 628.132 340.700, 620.728 340.688, 613.312 340.677, 605.882 340.665, 598.440 340.654, 590.985 340.642, 583.516 340.641, 582.965 " />
            <path fill="none" stroke-width="3.0" stroke-linecap="butt" stroke-opacity="1.0" stroke="rgb(0, 0, 0)" stroke-linejoin="round" d=" M 330.578, 566.771 330.605, 576.771 330.617, 581.271 330.638, 588.883 330.659, 596.481 330.679, 604.066 330.700, 611.638 330.720, 619.196 330.741, 626.740 330.761, 634.272 330.782, 641.790 330.802, 649.294 330.822, 656.833 " />
            <path fill="none" stroke-width="3.0" stroke-linecap="butt" stroke-opacity="1.0" stroke="rgb(0, 0, 0)" stroke-linejoin="round" d=" M 332.703, 566.757 337.101, 575.737 337.308, 576.160 340.619, 582.919 340.641, 582.965 344.924, 591.709 348.311, 598.622 352.530, 607.239 355.992, 614.308 358.255, 618.928 360.127, 622.751 363.666, 629.975 366.458, 635.678 370.373, 635.981 377.757, 636.552 381.684, 636.856 385.028, 634.571 387.538, 632.855 390.807, 630.621 393.601, 625.424 397.147, 618.827 399.027, 615.329 401.301, 611.099 404.788, 604.614 409.047, 596.691 412.473, 590.318 414.319, 586.883 416.838, 582.198 418.409, 579.276 " />
            <path fill="none" stroke-width="3.0" stroke-linecap="butt" stroke-opacity="1.0" stroke="rgb(0, 0, 0)" stroke-linejoin="round" d=" M 332.409, 512.219 335.856, 519.334 337.784, 523.313 339.832, 527.537 343.475, 535.057 345.378, 538.984 347.510, 543.383 351.085, 550.760 352.966, 554.636 355.180, 559.212 358.686, 566.446 360.540, 570.272 362.841, 575.020 366.278, 582.113 368.107, 585.888 370.493, 590.811 374.053, 598.159 374.322, 597.653 377.707, 591.278 380.179, 586.621 380.321, 586.354 382.045, 583.107 385.532, 576.540 387.908, 572.063 389.812, 568.476 393.403, 561.713 395.682, 557.419 397.627, 553.757 401.322, 546.797 403.503, 542.689 405.487, 538.951 409.289, 531.791 411.370, 527.871 413.395, 524.056 417.046, 517.179 420.221, 515.645 422.603, 514.493 425.705, 512.994 431.951, 513.356 439.435, 513.789 446.935, 514.223 455.206, 514.702 455.114, 522.479 455.024, 530.195 454.934, 537.897 454.843, 545.585 454.753, 553.260 454.664, 560.920 454.574, 568.568 454.484, 576.201 454.395, 583.821 454.306, 591.428 454.217, 599.021 454.128, 606.600 454.039, 614.166 453.951, 621.719 453.862, 629.258 453.774, 636.784 453.686, 644.297 453.598, 651.797 453.510, 659.331 450.628, 661.768 448.415, 663.639 445.467, 666.133 437.199, 665.462 429.700, 664.854 422.219, 664.247 417.772, 663.886 417.830, 656.252 417.887, 648.651 417.944, 641.038 418.002, 633.410 418.059, 625.769 418.117, 618.114 418.174, 610.445 418.232, 602.763 418.290, 595.067 418.348, 587.357 418.409, 579.276 418.459, 572.648 418.492, 568.232 " />
            <path fill="none" stroke-width="3.0" stroke-linecap="butt" stroke-opacity="1.0" stroke="rgb(0, 0, 0)" stroke-linejoin="round" d=" M 342.472, 508.176 338.867, 509.624 336.098, 510.737 332.409, 512.219 326.034, 511.845 318.665, 511.414 311.312, 510.983 303.243, 510.510 " />
            <path fill="none" stroke-width="3.0" stroke-linecap="butt" stroke-opacity="1.0" stroke="rgb(0, 0, 0)" stroke-linejoin="round" d=" M 326.232, 573.348 330.578, 566.771 330.578, 566.771 332.703, 566.757 340.616, 566.701 340.905, 566.699 " />
            <path fill="none" stroke-width="3.0" stroke-linecap="butt" stroke-opacity="1.0" stroke="rgb(0, 0, 0)" stroke-linejoin="round" d=" M 404.788, 604.614 406.649, 601.149 409.047, 596.691 " />
            <path fill="none" stroke-width="3.0" stroke-linecap="butt" stroke-opacity="1.0" stroke="rgb(0, 0, 0)" stroke-linejoin="round" d=" M 411.515, 581.242 408.100, 587.609 405.543, 592.375 403.669, 595.869 400.192, 602.351 397.762, 606.883 395.870, 610.409 392.332, 617.004 390.024, 621.306 388.117, 624.863 384.519, 631.571 381.684, 636.856 " />
            <path fill="none" stroke-width="3.0" stroke-linecap="butt" stroke-opacity="1.0" stroke="rgb(0, 0, 0)" stroke-linejoin="round" d=" M 447.055, 518.938 446.969, 526.856 446.885, 534.710 446.800, 542.551 446.716, 550.377 446.631, 558.189 446.547, 565.987 446.463, 573.770 446.379, 581.540 446.296, 589.295 446.212, 597.036 446.129, 604.764 446.046, 612.477 445.963, 620.177 445.880, 627.863 445.797, 635.535 445.714, 643.193 445.632, 650.837 445.549, 658.468 445.467, 666.133 " />
            <path fill="none" stroke-width="3.0" stroke-linecap="butt" stroke-opacity="1.0" stroke="rgb(0, 0, 0)" stroke-linejoin="round" d=" M 455.206, 514.702 452.286, 516.219 450.043, 517.385 447.055, 518.938 438.642, 518.445 431.012, 517.998 423.400, 517.551 417.046, 517.179 " />
            <path fill="none" stroke-width="3.0" stroke-linecap="butt" stroke-opacity="1.0" stroke="rgb(0, 0, 0)" stroke-linejoin="round" d=" M 422.960, 572.196 422.455, 571.748 418.492, 568.232 415.991, 572.896 411.515, 581.242 415.985, 572.896 " />
            <path fill="none" stroke-width="3.0" stroke-linecap="butt" stroke-opacity="1.0" stroke="rgb(0, 0, 0)" stroke-linejoin="round" d=" M 418.492, 568.232 415.985, 572.896 " />
            <path fill="none" stroke-width="3.0" stroke-linecap="butt" stroke-opacity="1.0" stroke="rgb(0, 0, 0)" stroke-linejoin="round" d=" M 193.641, 578.346 188.851, 571.689 183.190, 563.818 177.350, 555.701 176.448, 554.447 170.884, 546.710 165.044, 538.593 164.045, 537.205 158.577, 529.603 152.738, 521.485 151.643, 519.964 146.270, 512.496 140.431, 504.379 136.616, 499.076 126.633, 498.494 125.383, 498.421 116.503, 497.903 106.853, 500.526 102.752, 501.641 103.042, 511.637 103.313, 520.953 103.603, 530.948 103.742, 535.749 104.032, 545.745 104.170, 550.495 104.460, 560.491 104.597, 565.190 104.887, 575.186 105.022, 579.836 105.312, 589.832 105.446, 594.431 105.736, 604.427 105.868, 608.977 106.158, 618.973 106.289, 623.474 106.579, 633.470 106.834, 642.247 115.709, 642.972 125.676, 643.786 132.077, 644.309 141.129, 640.059 145.160, 638.167 144.915, 628.170 144.705, 619.633 144.460, 609.636 144.354, 605.322 144.109, 595.325 144.002, 590.962 143.757, 580.965 143.649, 576.555 143.567, 573.212 " />
            <path fill="none" stroke-width="3.0" stroke-linecap="butt" stroke-opacity="1.0" stroke="rgb(0, 0, 0)" stroke-linejoin="round" d=" M 132.077, 644.309 131.817, 634.312 131.586, 625.464 131.325, 615.467 131.207, 610.912 130.946, 600.915 130.826, 596.310 130.565, 586.313 130.444, 581.657 130.183, 571.661 129.923, 561.664 129.728, 554.188 135.611, 562.275 139.698, 567.894 143.567, 573.212 146.496, 577.236 152.243, 585.138 158.126, 593.224 159.130, 594.604 164.789, 602.383 170.671, 610.470 171.764, 611.973 177.337, 619.631 183.219, 627.718 185.794, 631.257 190.469, 637.682 196.351, 645.769 199.283, 649.799 209.250, 650.613 211.760, 650.818 220.937, 651.568 229.728, 646.802 232.657, 645.214 232.514, 635.215 232.389, 626.435 232.247, 616.436 232.183, 611.934 232.040, 601.935 231.975, 597.383 231.833, 587.384 231.767, 582.783 231.625, 572.784 231.558, 568.133 231.416, 558.134 231.349, 553.432 231.206, 543.433 231.139, 538.682 230.996, 528.683 230.928, 523.880 230.785, 513.881 230.655, 504.764 221.475, 504.228 211.491, 503.645 204.679, 503.248 195.139, 506.246 192.310, 507.135 192.497, 517.134 192.672, 526.509 192.859, 536.507 192.953, 541.508 193.140, 551.507 193.232, 556.456 193.419, 566.454 193.511, 571.352 193.641, 578.346 193.788, 586.196 193.975, 596.194 194.072, 601.403 " />
            <path fill="none" stroke-width="3.0" stroke-linecap="butt" stroke-opacity="1.0" stroke="rgb(0, 0, 0)" stroke-linejoin="round" d=" M 194.072, 601.403 189.505, 595.052 183.665, 586.934 181.234, 583.554 176.337, 576.748 170.576, 568.738 164.736, 560.620 163.714, 559.200 158.051, 551.327 152.211, 543.209 151.092, 541.653 145.526, 533.916 139.689, 525.797 138.473, 524.105 133.002, 516.505 127.162, 508.388 123.176, 502.847 " />
            <path fill="none" stroke-width="3.0" stroke-linecap="butt" stroke-opacity="1.0" stroke="rgb(0, 0, 0)" stroke-linejoin="round" d=" M 136.616, 499.076 126.988, 501.778 123.176, 502.847 113.194, 502.258 111.769, 502.174 102.752, 501.641 " />
            <path fill="none" stroke-width="3.0" stroke-linecap="butt" stroke-opacity="1.0" stroke="rgb(0, 0, 0)" stroke-linejoin="round" d=" M 220.937, 651.568 220.781, 641.569 220.639, 632.470 220.482, 622.471 220.408, 617.721 220.252, 607.723 220.177, 602.922 220.020, 592.923 219.944, 588.070 219.788, 578.072 219.711, 573.168 219.555, 563.169 219.477, 558.213 219.321, 548.214 219.243, 543.206 219.086, 533.207 219.007, 528.146 218.851, 518.147 218.703, 508.695 " />
            <path fill="none" stroke-width="3.0" stroke-linecap="butt" stroke-opacity="1.0" stroke="rgb(0, 0, 0)" stroke-linejoin="round" d=" M 230.655, 504.764 221.156, 507.888 218.703, 508.695 209.375, 508.144 199.392, 507.554 192.310, 507.135 " />
            <path fill="none" stroke-width="3.0" stroke-linecap="butt" stroke-opacity="1.0" stroke="rgb(0, 0, 0)" stroke-linejoin="round" d=" M 1066.682, 601.096 1060.185, 608.697 1053.688, 616.299 1052.195, 618.045 1046.074, 625.208 1039.577, 632.810 1037.571, 635.157 1031.074, 642.758 1025.675, 649.075 1019.178, 656.677 1012.681, 664.279 1008.672, 668.970 1010.785, 676.045 1020.756, 676.804 1030.727, 677.562 1040.699, 678.321 1044.470, 678.607 1050.941, 670.983 1052.113, 669.603 1058.584, 661.978 1058.789, 661.736 1065.260, 654.112 1068.313, 650.515 1074.257, 643.511 1080.728, 635.887 1083.230, 632.938 " />
            <path fill="none" stroke-width="3.0" stroke-linecap="butt" stroke-opacity="1.0" stroke="rgb(0, 0, 0)" stroke-linejoin="round" d=" M 1086.697, 580.963 1081.493, 572.424 1079.623, 569.355 1074.758, 561.372 1069.554, 552.833 1066.737, 548.212 1061.772, 540.065 1056.569, 531.525 1054.849, 528.704 1051.872, 524.208 1041.887, 523.665 1031.901, 523.122 1021.916, 522.579 1018.201, 522.377 1020.531, 526.817 1025.808, 535.311 1031.086, 543.805 1035.034, 550.159 1040.067, 558.260 1045.271, 566.634 1050.548, 575.128 1055.826, 583.622 1057.313, 586.017 1062.591, 594.511 1065.504, 599.200 1066.682, 601.096 1070.173, 606.715 1063.667, 614.309 1057.162, 621.904 1055.149, 624.253 1048.908, 631.539 1042.403, 639.134 1040.240, 641.659 1033.760, 649.224 1028.114, 655.815 1021.609, 663.409 1015.103, 671.004 1010.785, 676.045 " />
            <path fill="none" stroke-width="3.0" stroke-linecap="butt" stroke-opacity="1.0" stroke="rgb(0, 0, 0)" stroke-linejoin="round" d=" M 1054.849, 528.704 1044.865, 528.155 1034.880, 527.606 1024.895, 527.057 1020.531, 526.817 " />
            <path fill="none" stroke-width="3.0" stroke-linecap="butt" stroke-opacity="1.0" stroke="rgb(0, 0, 0)" stroke-linejoin="round" d=" M 415.991, 572.896 418.459, 572.648 " />
        </g>
    </g>
</svg>
