<?xml version='1.0' encoding='ascii'?>
<svg xmlns="http://www.w3.org/2000/svg" version="1.1" width="1080" height="1080">
    <g id="ViewLayer_LineSet" xmlns:inkscape="http://www.inkscape.org/namespaces/inkscape" inkscape:groupmode="lineset" inkscape:label="ViewLayer_LineSet">
        <g xmlns:inkscape="http://www.inkscape.org/namespaces/inkscape" inkscape:groupmode="layer" id="strokes" inkscape:label="strokes">
            <path fill="none" stroke-width="3.0" stroke-linecap="butt" stroke-opacity="1.0" stroke="rgb(0, 0, 0)" stroke-linejoin="round" d=" M 984.718, 596.008 986.624, 605.825 986.840, 606.937 986.103, 616.910 985.673, 622.731 982.352, 632.164 980.487, 637.463 974.346, 645.355 971.599, 648.884 964.399, 655.823 962.584, 657.573 953.012, 660.469 952.431, 660.645 944.733, 662.952 934.766, 662.143 926.412, 661.465 919.104, 658.140 910.096, 653.798 909.158, 653.346 903.151, 645.351 902.002, 643.821 897.042, 635.138 894.891, 631.373 893.000, 621.553 892.269, 617.758 " />
            <path fill="none" stroke-width="3.0" stroke-linecap="butt" stroke-opacity="1.0" stroke="rgb(0, 0, 0)" stroke-linejoin="round" d=" M 871.459, 656.676 877.076, 664.949 879.175, 668.041 886.316, 675.043 888.215, 676.905 896.122, 683.027 896.637, 683.426 905.313, 688.399 907.410, 689.601 916.982, 692.495 925.163, 694.968 935.135, 695.712 943.888, 696.364 953.795, 695.006 962.394, 693.826 971.698, 690.161 973.916, 689.287 982.760, 684.620 983.442, 684.260 991.555, 678.412 993.942, 676.692 1000.806, 669.420 1003.466, 666.602 1009.181, 658.391 1014.285, 649.792 1014.714, 649.069 1017.695, 639.523 1019.969, 632.243 1020.629, 622.265 1021.137, 614.586 1019.557, 604.712 1018.358, 597.221 1015.967, 591.226 1012.227, 581.952 1012.069, 581.559 1007.747, 572.626 1002.121, 564.359 999.954, 561.174 992.879, 554.107 990.939, 552.169 982.936, 546.173 982.296, 545.694 973.667, 540.642 971.610, 539.438 961.973, 536.768 953.600, 534.448 943.613, 533.942 934.909, 533.501 925.053, 535.191 916.665, 536.629 907.487, 540.598 905.592, 541.418 896.917, 546.391 896.352, 546.715 888.443, 552.834 886.355, 554.450 879.646, 561.866 877.297, 564.463 871.911, 572.645 866.967, 581.337 866.812, 581.610 864.019, 591.212 862.079, 597.881 861.458, 603.861 860.837, 613.842 860.383, 621.132 862.052, 630.992 863.253, 638.083 866.974, 647.365 867.183, 647.886 871.459, 656.676 " />
            <path fill="none" stroke-width="3.0" stroke-linecap="butt" stroke-opacity="1.0" stroke="rgb(0, 0, 0)" stroke-linejoin="round" d=" M 985.603, 597.526 987.509, 607.342 988.647, 613.202 987.907, 623.175 987.453, 629.293 984.128, 638.724 982.163, 644.296 976.014, 652.182 973.098, 655.922 965.890, 662.853 963.904, 664.762 954.329, 667.646 953.553, 667.880 945.705, 670.221 935.738, 669.402 927.028, 668.686 919.579, 665.292 910.574, 660.945 909.442, 660.398 903.435, 652.403 902.148, 650.690 897.187, 642.008 894.900, 638.005 893.008, 628.185 891.935, 622.614 892.269, 617.758 892.955, 607.781 893.026, 606.755 896.150, 597.256 897.947, 591.792 904.043, 583.865 906.854, 580.210 913.833, 573.048 915.462, 571.377 924.967, 568.271 926.295, 567.837 934.135, 565.484 944.118, 566.076 952.757, 566.589 960.189, 569.935 969.232, 574.206 970.703, 574.901 976.736, 582.876 978.130, 584.720 983.171, 593.357 984.718, 596.008 985.603, 597.526 " />
            <path fill="none" stroke-width="3.0" stroke-linecap="butt" stroke-opacity="1.0" stroke="rgb(0, 0, 0)" stroke-linejoin="round" d=" M 1018.358, 597.221 1014.618, 587.947 1014.384, 587.366 1010.029, 578.364 1009.978, 578.259 1004.352, 569.992 1002.031, 566.583 994.957, 559.514 992.839, 557.397 984.836, 551.401 984.025, 550.793 975.396, 545.738 973.127, 544.408 963.491, 541.733 954.760, 539.310 944.773, 538.797 935.701, 538.331 925.844, 540.013 917.099, 541.505 907.917, 545.467 905.809, 546.376 897.130, 551.343 896.390, 551.766 888.477, 557.880 886.199, 559.640 879.485, 567.052 876.966, 569.833 871.477, 578.163 866.530, 586.854 866.281, 587.291 863.487, 596.893 861.458, 603.861 " />
            <path fill="none" stroke-width="3.0" stroke-linecap="butt" stroke-opacity="1.0" stroke="rgb(0, 0, 0)" stroke-linejoin="round" d=" M 628.093, 632.587 632.832, 632.937 642.805, 633.675 647.258, 634.004 657.221, 634.865 663.602, 635.417 673.595, 635.042 681.075, 634.762 689.923, 630.103 690.195, 629.959 698.475, 624.352 699.803, 623.453 705.767, 615.426 706.286, 614.728 711.505, 606.642 714.966, 600.582 717.359, 590.872 719.067, 583.946 718.162, 573.987 717.485, 566.543 713.302, 557.460 712.962, 556.720 707.775, 548.171 707.435, 547.611 700.430, 540.474 699.026, 539.044 690.951, 533.146 689.420, 532.029 679.669, 529.813 671.928, 528.055 661.936, 527.645 655.376, 527.376 645.393, 526.796 639.471, 526.452 629.488, 525.873 623.641, 525.534 613.658, 524.954 606.874, 524.560 601.374, 529.115 601.087, 539.111 600.801, 549.107 600.777, 549.940 600.490, 559.935 600.319, 565.891 600.032, 575.887 599.863, 581.784 599.576, 591.780 599.409, 597.617 599.122, 607.613 598.956, 613.393 598.669, 623.389 598.505, 629.110 598.218, 639.106 598.056, 644.770 597.769, 654.766 597.608, 660.372 597.321, 670.368 597.034, 680.364 597.028, 680.570 606.995, 681.382 613.791, 681.935 623.758, 682.747 626.471, 682.968 631.435, 675.623 631.762, 665.628 632.087, 655.701 632.414, 645.706 632.591, 640.312 632.832, 632.937 " />
            <path fill="none" stroke-width="3.0" stroke-linecap="butt" stroke-opacity="1.0" stroke="rgb(0, 0, 0)" stroke-linejoin="round" d=" M 626.471, 682.968 626.793, 672.973 627.115, 662.978 627.124, 662.686 627.446, 652.692 627.628, 647.020 627.950, 637.025 628.093, 632.587 " />
            <path fill="none" stroke-width="3.0" stroke-linecap="butt" stroke-opacity="1.0" stroke="rgb(0, 0, 0)" stroke-linejoin="round" d=" M 681.044, 599.242 672.605, 603.512 662.632, 602.778 652.767, 602.052 642.790, 601.367 633.886, 600.756 634.213, 590.761 634.540, 580.767 634.624, 578.199 634.951, 568.204 635.137, 562.529 635.302, 557.493 " />
            <path fill="none" stroke-width="3.0" stroke-linecap="butt" stroke-opacity="1.0" stroke="rgb(0, 0, 0)" stroke-linejoin="round" d=" M 628.924, 606.742 629.246, 596.747 629.567, 586.752 629.663, 583.770 629.985, 573.775 630.177, 567.810 630.499, 557.815 630.519, 557.182 635.302, 557.493 645.281, 558.141 649.937, 558.444 659.928, 558.869 668.883, 559.251 677.282, 564.678 682.545, 568.078 683.810, 577.998 685.006, 587.374 681.840, 596.860 681.044, 599.242 679.464, 603.975 " />
            <path fill="none" stroke-width="3.0" stroke-linecap="butt" stroke-opacity="1.0" stroke="rgb(0, 0, 0)" stroke-linejoin="round" d=" M 711.505, 606.642 713.895, 596.931 715.676, 589.699 714.767, 579.741 714.058, 571.969 709.873, 562.887 709.445, 561.958 704.258, 553.409 703.811, 552.672 696.807, 545.534 695.241, 543.938 687.167, 538.037 685.451, 536.783 675.701, 534.562 667.630, 532.722 657.639, 532.305 650.770, 532.018 640.787, 531.431 634.570, 531.066 624.588, 530.479 618.449, 530.118 608.466, 529.532 601.374, 529.115 " />
            <path fill="none" stroke-width="3.0" stroke-linecap="butt" stroke-opacity="1.0" stroke="rgb(0, 0, 0)" stroke-linejoin="round" d=" M 679.464, 603.975 670.538, 608.483 668.356, 609.585 658.384, 608.842 648.411, 608.098 648.152, 608.079 638.176, 607.385 628.924, 606.742 633.886, 600.756 " />
            <path fill="none" stroke-width="3.0" stroke-linecap="butt" stroke-opacity="1.0" stroke="rgb(0, 0, 0)" stroke-linejoin="round" d=" M 445.097, 570.840 443.568, 568.371 438.303, 559.869 436.517, 556.985 431.669, 549.155 426.404, 540.653 423.675, 536.247 418.727, 528.256 413.462, 519.754 411.827, 517.112 401.844, 516.527 391.861, 515.942 381.879, 515.356 381.195, 515.316 372.062, 519.389 371.545, 519.620 376.876, 528.080 382.208, 536.540 386.244, 542.946 391.576, 551.406 396.620, 559.409 401.952, 567.869 407.283, 576.329 408.826, 578.778 414.158, 587.238 417.128, 591.952 421.860, 599.461 416.091, 607.630 410.322, 615.798 409.463, 617.015 404.313, 624.308 398.545, 632.476 397.160, 634.436 391.813, 642.007 387.155, 648.604 381.386, 656.773 375.617, 664.941 372.855, 668.853 382.821, 669.674 392.787, 670.496 402.753, 671.318 403.493, 671.379 411.362, 665.208 412.443, 664.361 418.178, 656.168 423.913, 647.976 424.067, 647.756 429.801, 639.564 431.796, 636.714 436.620, 629.823 440.350, 624.495 " />
            <path fill="none" stroke-width="3.0" stroke-linecap="butt" stroke-opacity="1.0" stroke="rgb(0, 0, 0)" stroke-linejoin="round" d=" M 424.067, 647.756 418.645, 655.500 412.911, 663.692 412.443, 664.361 " />
            <path fill="none" stroke-width="3.0" stroke-linecap="butt" stroke-opacity="1.0" stroke="rgb(0, 0, 0)" stroke-linejoin="round" d=" M 403.493, 671.379 409.223, 663.183 409.794, 662.366 415.298, 654.492 421.028, 646.297 423.150, 643.261 428.050, 636.252 433.780, 628.056 435.448, 625.670 438.446, 621.382 440.350, 624.495 445.569, 633.025 448.357, 637.584 453.131, 645.388 458.349, 653.918 460.879, 658.054 466.097, 666.584 466.215, 666.776 471.433, 675.307 472.511, 677.069 482.477, 677.890 492.443, 678.712 502.410, 679.534 503.891, 679.656 510.938, 672.561 511.119, 672.378 505.810, 663.904 500.500, 655.430 497.003, 649.849 492.431, 642.552 487.198, 634.203 481.889, 625.729 480.227, 623.076 475.225, 615.095 469.916, 606.621 464.606, 598.147 463.251, 595.984 468.103, 589.234 473.940, 581.114 476.649, 577.344 482.485, 569.224 488.322, 561.104 489.294, 559.752 494.785, 552.111 500.116, 544.696 505.952, 536.576 511.788, 528.456 515.569, 523.196 505.586, 522.611 495.603, 522.025 485.620, 521.440 484.164, 521.354 476.325, 525.843 470.623, 534.058 468.859, 536.600 463.667, 544.081 457.966, 552.297 455.122, 556.394 450.004, 563.770 445.097, 570.840 439.395, 579.056 438.858, 579.830 " />
            <path fill="none" stroke-width="3.0" stroke-linecap="butt" stroke-opacity="1.0" stroke="rgb(0, 0, 0)" stroke-linejoin="round" d=" M 438.858, 579.830 435.057, 573.694 429.791, 565.192 427.871, 562.093 422.930, 554.116 417.664, 545.615 414.784, 540.965 409.741, 532.824 404.475, 524.322 402.709, 521.471 " />
            <path fill="none" stroke-width="3.0" stroke-linecap="butt" stroke-opacity="1.0" stroke="rgb(0, 0, 0)" stroke-linejoin="round" d=" M 411.827, 517.112 402.805, 521.425 402.709, 521.471 392.727, 520.878 382.745, 520.285 372.762, 519.692 371.545, 519.620 " />
            <path fill="none" stroke-width="3.0" stroke-linecap="butt" stroke-opacity="1.0" stroke="rgb(0, 0, 0)" stroke-linejoin="round" d=" M 503.891, 679.656 498.581, 671.183 493.270, 662.709 489.506, 656.705 484.849, 649.269 479.515, 640.764 474.206, 632.290 472.413, 629.427 467.314, 621.297 462.003, 612.824 456.693, 604.351 455.112, 601.828 " />
            <path fill="none" stroke-width="3.0" stroke-linecap="butt" stroke-opacity="1.0" stroke="rgb(0, 0, 0)" stroke-linejoin="round" d=" M 489.294, 559.752 483.457, 567.872 481.855, 570.101 476.649, 577.344 " />
            <path fill="none" stroke-width="3.0" stroke-linecap="butt" stroke-opacity="1.0" stroke="rgb(0, 0, 0)" stroke-linejoin="round" d=" M 463.251, 595.984 455.112, 601.828 460.043, 594.960 465.874, 586.836 468.728, 582.860 474.021, 575.487 479.853, 567.363 481.581, 564.955 487.163, 557.178 492.583, 549.630 498.414, 541.506 504.246, 533.383 508.295, 527.742 " />
            <path fill="none" stroke-width="3.0" stroke-linecap="butt" stroke-opacity="1.0" stroke="rgb(0, 0, 0)" stroke-linejoin="round" d=" M 515.569, 523.196 508.295, 527.742 498.312, 527.149 488.330, 526.556 478.348, 525.963 476.325, 525.843 " />
        </g>
    </g>
</svg>
