<?xml version='1.0' encoding='ascii'?>
<svg xmlns="http://www.w3.org/2000/svg" version="1.1" width="1080" height="1080">
    <g id="ViewLayer_LineSet" xmlns:inkscape="http://www.inkscape.org/namespaces/inkscape" inkscape:groupmode="lineset" inkscape:label="ViewLayer_LineSet">
        <g xmlns:inkscape="http://www.inkscape.org/namespaces/inkscape" inkscape:groupmode="layer" id="strokes" inkscape:label="strokes">
            <path fill="none" stroke-width="3.0" stroke-linecap="butt" stroke-opacity="1.0" stroke="rgb(0, 0, 0)" stroke-linejoin="round" d=" M 665.539, 638.243 661.523, 643.913 654.615, 651.144 653.211, 652.613 643.630, 655.694 636.365, 658.008 626.400, 657.169 618.842, 656.533 611.762, 653.213 602.806, 648.764 602.118, 648.423 596.119, 640.422 594.977, 638.899 589.974, 630.240 587.783, 626.449 585.665, 616.676 584.508, 611.335 584.833, 601.341 585.014, 595.756 587.711, 586.126 589.132, 581.051 594.859, 572.853 597.089, 569.662 600.475, 565.874 " />
            <path fill="none" stroke-width="3.0" stroke-linecap="butt" stroke-opacity="1.0" stroke="rgb(0, 0, 0)" stroke-linejoin="round" d=" M 560.184, 651.685 565.810, 659.952 567.919, 663.051 575.010, 670.102 576.832, 671.913 584.677, 678.115 585.077, 678.431 593.692, 683.507 595.549, 684.601 605.092, 687.591 612.646, 689.957 622.616, 690.728 630.534, 691.341 640.430, 689.901 648.081, 688.787 657.300, 684.912 658.907, 684.236 667.611, 679.314 667.814, 679.199 675.708, 673.061 677.562, 671.619 684.102, 664.054 686.296, 661.517 691.464, 653.297 695.349, 646.275 700.040, 637.444 700.218, 637.110 702.770, 627.441 704.581, 620.577 704.877, 610.582 705.095, 603.237 703.269, 593.405 701.929, 586.191 698.075, 576.964 697.891, 576.522 693.474, 567.587 687.838, 559.326 685.662, 556.135 678.634, 549.022 676.766, 547.131 668.825, 541.055 668.309, 540.660 659.739, 535.508 657.910, 534.408 648.298, 531.648 640.568, 529.429 630.582, 528.907 622.711, 528.495 612.872, 530.283 605.414, 531.639 596.334, 535.828 595.012, 536.438 586.492, 541.673 586.375, 541.745 580.396, 546.700 572.720, 553.109 570.951, 554.586 564.573, 562.287 562.499, 564.791 557.550, 573.130 553.020, 582.045 552.907, 582.267 550.542, 591.983 548.871, 598.850 548.616, 608.846 548.430, 616.131 550.344, 625.946 551.736, 633.089 555.575, 642.323 555.812, 642.894 560.184, 651.685 " />
            <path fill="none" stroke-width="3.0" stroke-linecap="butt" stroke-opacity="1.0" stroke="rgb(0, 0, 0)" stroke-linejoin="round" d=" M 665.245, 639.215 659.465, 647.375 657.001, 650.854 650.091, 658.082 648.539, 659.706 639.016, 662.758 638.782, 662.833 631.383, 665.181 621.419, 664.332 613.536, 663.660 606.323, 660.270 597.371, 655.815 596.499, 655.381 590.501, 647.380 589.222, 645.673 584.217, 637.016 581.888, 632.986 579.765, 623.214 578.543, 617.589 578.861, 607.595 579.047, 601.721 581.738, 592.090 583.231, 586.746 588.955, 578.547 591.326, 575.151 597.990, 567.695 599.230, 566.307 600.475, 565.874 609.433, 562.756 616.823, 560.397 626.805, 561.009 634.604, 561.488 641.798, 564.831 650.789, 569.209 651.984, 569.791 658.007, 577.774 659.392, 579.610 664.472, 588.223 666.945, 592.417 669.081, 602.186 670.374, 608.100 670.005, 618.093 669.780, 624.200 666.889, 633.773 665.539, 638.243 665.245, 639.215 " />
            <path fill="none" stroke-width="3.0" stroke-linecap="butt" stroke-opacity="1.0" stroke="rgb(0, 0, 0)" stroke-linejoin="round" d=" M 691.464, 653.297 696.155, 644.466 696.421, 643.966 698.970, 634.296 700.860, 627.127 701.153, 617.131 701.377, 609.459 699.547, 599.628 698.143, 592.087 694.287, 582.860 694.024, 582.230 689.590, 573.267 689.518, 573.121 683.883, 564.860 681.553, 561.444 674.526, 554.329 672.484, 552.261 664.544, 546.181 663.863, 545.660 655.295, 540.503 653.263, 539.280 643.654, 536.513 635.591, 534.193 625.605, 533.663 617.399, 533.228 607.559, 535.010 599.781, 536.418 590.700, 540.604 589.189, 541.300 580.668, 546.533 580.396, 546.700 " />
            <path fill="none" stroke-width="3.0" stroke-linecap="butt" stroke-opacity="1.0" stroke="rgb(0, 0, 0)" stroke-linejoin="round" d=" M 110.809, 615.444 120.779, 616.215 125.604, 616.588 128.501, 616.812 138.460, 617.717 143.600, 618.184 153.590, 617.745 159.616, 617.481 168.733, 613.373 173.415, 611.264 181.390, 606.507 189.300, 600.389 189.710, 600.072 195.006, 591.590 195.083, 591.466 199.348, 583.494 201.020, 573.635 202.176, 566.816 200.786, 556.914 199.729, 549.385 195.399, 540.371 195.007, 539.556 189.767, 531.038 189.401, 530.443 182.472, 523.233 181.174, 521.882 173.204, 515.843 171.933, 514.879 162.211, 512.536 155.606, 510.944 145.615, 510.528 140.332, 510.307 130.350, 509.707 125.640, 509.424 115.658, 508.824 111.018, 508.545 101.036, 507.945 95.529, 507.615 85.892, 510.283 80.249, 511.845 80.566, 521.840 80.882, 531.835 80.910, 532.711 81.227, 542.706 81.416, 548.695 81.733, 558.690 81.920, 564.619 82.237, 574.614 82.423, 580.485 82.739, 590.480 82.923, 596.292 83.240, 606.287 83.422, 612.041 83.739, 622.036 83.919, 627.732 84.235, 637.727 84.414, 643.365 84.731, 653.360 85.047, 663.355 85.055, 663.604 95.019, 664.455 100.536, 664.926 110.500, 665.778 112.246, 665.927 121.243, 661.562 126.735, 658.897 126.468, 648.901 126.201, 638.936 125.934, 628.939 125.789, 623.517 125.604, 616.588 " />
            <path fill="none" stroke-width="3.0" stroke-linecap="butt" stroke-opacity="1.0" stroke="rgb(0, 0, 0)" stroke-linejoin="round" d=" M 112.246, 665.927 111.962, 655.931 111.677, 645.935 111.668, 645.604 111.383, 635.609 111.221, 629.906 110.936, 619.910 110.809, 615.444 " />
            <path fill="none" stroke-width="3.0" stroke-linecap="butt" stroke-opacity="1.0" stroke="rgb(0, 0, 0)" stroke-linejoin="round" d=" M 156.449, 586.228 146.479, 585.461 142.182, 585.131 132.208, 584.418 124.729, 583.883 124.462, 573.886 124.195, 563.890 124.125, 561.281 123.858, 551.285 123.705, 545.580 123.580, 540.897 " />
            <path fill="none" stroke-width="3.0" stroke-linecap="butt" stroke-opacity="1.0" stroke="rgb(0, 0, 0)" stroke-linejoin="round" d=" M 110.072, 589.547 109.787, 579.551 109.503, 569.555 109.416, 566.529 109.132, 556.533 108.961, 550.537 108.677, 540.541 108.658, 539.888 118.635, 540.563 123.580, 540.897 126.573, 541.100 136.563, 541.533 144.027, 541.858 152.319, 547.447 157.093, 550.665 158.816, 560.515 160.475, 569.991 158.068, 579.697 156.449, 586.228 156.347, 586.639 147.667, 591.604 146.467, 592.290 " />
            <path fill="none" stroke-width="3.0" stroke-linecap="butt" stroke-opacity="1.0" stroke="rgb(0, 0, 0)" stroke-linejoin="round" d=" M 159.616, 617.481 167.717, 612.645 175.622, 606.521 176.166, 606.100 181.449, 597.609 181.616, 597.340 185.941, 589.225 187.595, 579.362 188.789, 572.238 187.386, 562.337 186.272, 554.479 181.937, 545.467 181.453, 544.461 176.212, 535.944 175.736, 535.172 168.810, 527.959 167.355, 526.444 159.389, 520.398 157.945, 519.302 148.225, 516.949 141.335, 515.281 131.344, 514.856 125.803, 514.621 115.821, 514.013 110.863, 513.710 100.882, 513.102 95.996, 512.804 86.014, 512.196 80.249, 511.845 " />
            <path fill="none" stroke-width="3.0" stroke-linecap="butt" stroke-opacity="1.0" stroke="rgb(0, 0, 0)" stroke-linejoin="round" d=" M 146.467, 592.290 136.497, 591.512 127.816, 590.835 117.842, 590.111 110.072, 589.547 119.400, 585.942 124.729, 583.883 " />
        </g>
    </g>
</svg>
