<?xml version='1.0' encoding='ascii'?>
<svg xmlns="http://www.w3.org/2000/svg" version="1.1" width="1080" height="1080">
    <g id="ViewLayer_LineSet" xmlns:inkscape="http://www.inkscape.org/namespaces/inkscape" inkscape:groupmode="lineset" inkscape:label="ViewLayer_LineSet">
        <g xmlns:inkscape="http://www.inkscape.org/namespaces/inkscape" inkscape:groupmode="layer" id="strokes" inkscape:label="strokes">
            <path fill="none" stroke-width="3.0" stroke-linecap="butt" stroke-opacity="1.0" stroke="rgb(0, 0, 0)" stroke-linejoin="round" d=" M 921.827, 609.009 921.165, 618.987 920.956, 622.143 917.722, 631.606 915.921, 636.876 909.852, 644.823 907.198, 648.299 900.055, 655.297 898.328, 656.989 888.766, 659.917 888.294, 660.062 880.686, 662.370 870.719, 661.554 862.531, 660.884 855.270, 657.560 846.273, 653.196 845.387, 652.766 839.382, 644.770 838.234, 643.242 833.265, 634.564 831.105, 630.793 829.167, 620.983 828.120, 615.685 828.732, 605.703 828.915, 602.705 " />
            <path fill="none" stroke-width="3.0" stroke-linecap="butt" stroke-opacity="1.0" stroke="rgb(0, 0, 0)" stroke-linejoin="round" d=" M 806.809, 656.088 812.427, 664.360 814.529, 667.454 821.659, 674.465 823.542, 676.318 831.436, 682.456 831.927, 682.838 840.591, 687.833 842.637, 689.013 852.204, 691.926 860.254, 694.378 870.226, 695.128 878.805, 695.773 888.710, 694.399 897.112, 693.233 906.400, 689.526 908.490, 688.692 917.307, 683.974 917.888, 683.664 925.957, 677.758 928.231, 676.094 935.031, 668.763 937.591, 666.004 943.192, 657.791 948.213, 649.143 948.606, 648.468 951.498, 638.895 953.691, 631.641 954.275, 621.658 954.724, 613.983 953.092, 604.117 951.851, 596.616 950.743, 590.633 946.979, 581.369 946.815, 580.966 942.474, 572.033 936.846, 563.767 934.676, 560.581 927.612, 553.504 925.687, 551.576 917.696, 545.563 917.082, 545.102 908.465, 540.028 906.456, 538.845 896.824, 536.157 888.584, 533.857 878.597, 533.347 870.067, 532.911 860.214, 534.620 852.020, 536.041 842.860, 540.054 841.086, 540.831 832.440, 545.857 831.971, 546.129 824.108, 552.307 822.123, 553.867 815.479, 561.340 813.221, 563.880 807.943, 572.063 803.081, 580.802 802.955, 581.029 801.194, 586.700 798.488, 596.327 796.535, 603.271 795.990, 613.256 795.591, 620.544 797.312, 630.394 798.552, 637.495 802.298, 646.767 802.513, 647.299 806.809, 656.088 " />
            <path fill="none" stroke-width="3.0" stroke-linecap="butt" stroke-opacity="1.0" stroke="rgb(0, 0, 0)" stroke-linejoin="round" d=" M 922.543, 612.602 921.880, 622.580 921.474, 628.693 918.236, 638.155 916.340, 643.698 910.264, 651.640 907.446, 655.325 900.296, 662.316 898.404, 664.167 888.839, 667.084 888.176, 667.286 880.421, 669.628 870.455, 668.802 861.917, 668.094 854.517, 664.701 845.522, 660.331 844.445, 659.808 838.440, 651.811 837.154, 650.100 832.184, 641.422 829.888, 637.414 827.948, 627.604 826.844, 622.022 827.454, 612.041 827.814, 606.163 828.915, 602.705 831.951, 593.177 832.581, 591.198 838.603, 583.215 841.320, 579.614 848.237, 572.393 849.782, 570.780 859.275, 567.638 860.484, 567.238 868.231, 564.885 878.213, 565.482 886.678, 565.988 894.061, 569.334 903.092, 573.627 904.507, 574.299 910.537, 582.276 911.930, 584.118 916.978, 592.750 919.419, 596.924 921.373, 606.731 921.827, 609.009 922.543, 612.602 " />
            <path fill="none" stroke-width="3.0" stroke-linecap="butt" stroke-opacity="1.0" stroke="rgb(0, 0, 0)" stroke-linejoin="round" d=" M 951.851, 596.616 948.086, 587.352 947.846, 586.762 943.475, 577.768 943.420, 577.654 937.791, 569.389 935.469, 565.978 928.405, 558.900 926.302, 556.793 918.312, 550.779 917.528, 550.188 908.912, 545.112 906.692, 543.804 897.062, 541.111 888.470, 538.707 878.483, 538.191 869.591, 537.730 859.737, 539.432 851.193, 540.906 842.031, 544.912 840.049, 545.779 831.400, 550.798 830.759, 551.170 822.892, 557.343 820.723, 559.045 814.076, 566.516 811.652, 569.239 806.276, 577.571 801.412, 586.308 801.194, 586.700 " />
            <path fill="none" stroke-width="3.0" stroke-linecap="butt" stroke-opacity="1.0" stroke="rgb(0, 0, 0)" stroke-linejoin="round" d=" M 574.414, 632.102 580.194, 632.533 590.166, 633.275 593.427, 633.518 603.389, 634.385 609.641, 634.929 619.634, 634.551 626.963, 634.273 635.788, 629.571 635.978, 629.470 644.224, 623.814 645.465, 622.962 650.160, 616.617 656.059, 608.542 656.424, 608.043 661.460, 600.099 663.781, 590.372 665.429, 583.462 664.473, 573.508 663.757, 566.058 659.559, 556.982 659.213, 556.235 654.021, 547.689 653.678, 547.125 646.681, 539.981 645.289, 538.559 637.224, 532.646 635.720, 531.544 625.972, 529.315 618.349, 527.571 608.357, 527.159 601.930, 526.893 591.947, 526.310 586.151, 525.971 576.168, 525.388 570.446, 525.053 560.463, 524.470 553.812, 524.081 547.297, 528.627 547.073, 538.624 546.849, 548.622 546.830, 549.453 546.606, 559.450 546.472, 565.405 546.248, 575.402 546.116, 581.298 545.892, 591.296 545.761, 597.133 545.537, 607.131 545.407, 612.909 545.183, 622.907 545.055, 628.628 544.830, 638.625 544.703, 644.288 544.479, 654.286 544.354, 659.891 544.129, 669.889 543.905, 679.886 543.901, 680.091 553.867, 680.908 560.531, 681.455 570.497, 682.272 573.110, 682.486 579.062, 675.150 579.327, 665.154 579.591, 655.227 579.856, 645.230 580.000, 639.838 580.194, 632.533 " />
            <path fill="none" stroke-width="3.0" stroke-linecap="butt" stroke-opacity="1.0" stroke="rgb(0, 0, 0)" stroke-linejoin="round" d=" M 573.110, 682.486 573.369, 672.490 573.627, 662.493 573.635, 662.204 573.894, 652.207 574.040, 646.536 574.299, 636.539 574.414, 632.102 " />
            <path fill="none" stroke-width="3.0" stroke-linecap="butt" stroke-opacity="1.0" stroke="rgb(0, 0, 0)" stroke-linejoin="round" d=" M 626.497, 599.434 619.466, 603.032 609.493, 602.293 599.783, 601.573 589.807, 600.884 581.050, 600.279 581.316, 590.283 581.581, 580.286 581.649, 577.721 581.915, 567.724 582.065, 562.049 582.198, 557.075 " />
            <path fill="none" stroke-width="3.0" stroke-linecap="butt" stroke-opacity="1.0" stroke="rgb(0, 0, 0)" stroke-linejoin="round" d=" M 575.083, 606.256 575.341, 596.259 575.600, 586.262 575.677, 583.282 575.936, 573.286 576.090, 567.322 576.349, 557.325 576.365, 556.693 582.198, 557.075 592.176, 557.728 595.628, 557.953 605.618, 558.382 614.419, 558.759 622.807, 564.203 628.019, 567.586 629.332, 577.499 630.575, 586.883 627.485, 596.393 626.497, 599.434 625.180, 603.485 " />
            <path fill="none" stroke-width="3.0" stroke-linecap="butt" stroke-opacity="1.0" stroke="rgb(0, 0, 0)" stroke-linejoin="round" d=" M 645.465, 622.962 651.365, 614.888 651.841, 614.236 656.967, 606.149 659.283, 596.421 661.001, 589.206 660.040, 579.252 659.289, 571.475 655.089, 562.400 654.656, 561.464 649.462, 552.918 649.012, 552.178 642.017, 545.032 640.462, 543.443 632.399, 537.528 630.712, 536.289 620.965, 534.053 613.016, 532.229 603.025, 531.809 596.294, 531.526 586.311, 530.935 580.225, 530.575 570.243, 529.984 564.234, 529.629 554.251, 529.038 547.297, 528.627 " />
            <path fill="none" stroke-width="3.0" stroke-linecap="butt" stroke-opacity="1.0" stroke="rgb(0, 0, 0)" stroke-linejoin="round" d=" M 625.180, 603.485 616.276, 608.035 614.200, 609.096 604.228, 608.348 594.157, 607.592 584.181, 606.893 575.083, 606.256 581.050, 600.279 " />
            <path fill="none" stroke-width="3.0" stroke-linecap="butt" stroke-opacity="1.0" stroke="rgb(0, 0, 0)" stroke-linejoin="round" d=" M 404.239, 569.736 403.114, 567.920 397.845, 559.421 396.056, 556.534 391.203, 548.704 385.934, 540.205 383.202, 535.797 378.249, 527.806 372.981, 519.306 371.342, 516.664 361.360, 516.075 351.377, 515.487 341.394, 514.898 340.902, 514.869 331.658, 518.684 330.495, 519.164 335.830, 527.622 341.165, 536.080 345.207, 542.490 350.542, 550.947 355.592, 558.952 360.926, 567.410 366.261, 575.868 367.808, 578.320 373.143, 586.778 376.117, 591.493 380.853, 599.002 375.136, 607.207 369.419, 615.412 368.622, 616.557 363.541, 623.850 357.824, 632.055 356.484, 633.979 351.209, 641.551 346.612, 648.148 340.896, 656.353 335.179, 664.558 332.504, 668.398 342.470, 669.224 352.435, 670.050 362.401, 670.876 362.949, 670.921 371.051, 665.060 372.638, 663.912 378.322, 655.684 384.109, 647.307 389.792, 639.079 391.736, 636.264 396.497, 629.372 399.736, 624.684 " />
            <path fill="none" stroke-width="3.0" stroke-linecap="butt" stroke-opacity="1.0" stroke="rgb(0, 0, 0)" stroke-linejoin="round" d=" M 384.109, 647.307 378.758, 655.051 373.075, 663.279 372.638, 663.912 " />
            <path fill="none" stroke-width="3.0" stroke-linecap="butt" stroke-opacity="1.0" stroke="rgb(0, 0, 0)" stroke-linejoin="round" d=" M 362.949, 670.921 368.627, 662.689 369.165, 661.908 374.596, 654.034 380.273, 645.802 382.341, 642.802 387.176, 635.792 392.853, 627.560 394.474, 625.210 397.432, 620.921 399.736, 624.684 404.958, 633.212 407.354, 637.123 412.133, 644.927 417.355, 653.454 419.889, 657.592 425.112, 666.120 425.231, 666.314 430.453, 674.842 431.534, 676.606 441.499, 677.432 451.465, 678.258 461.431, 679.084 462.717, 679.191 470.113, 672.461 470.706, 671.922 465.393, 663.451 460.080, 654.979 456.577, 649.394 452.001, 642.098 446.764, 633.749 441.451, 625.277 439.787, 622.623 434.781, 614.641 429.468, 606.169 424.155, 597.698 422.796, 595.532 427.586, 588.781 433.371, 580.625 436.020, 576.891 441.806, 568.734 447.592, 560.578 448.500, 559.297 453.920, 551.656 459.181, 544.241 464.967, 536.084 470.753, 527.928 474.434, 522.740 464.451, 522.151 454.468, 521.563 444.486, 520.974 443.225, 520.900 434.605, 525.380 428.956, 533.632 427.240, 536.137 422.118, 543.619 416.469, 551.871 413.689, 555.933 408.639, 563.309 404.239, 569.736 398.590, 577.988 397.644, 579.370 " />
            <path fill="none" stroke-width="3.0" stroke-linecap="butt" stroke-opacity="1.0" stroke="rgb(0, 0, 0)" stroke-linejoin="round" d=" M 397.644, 579.370 393.839, 573.234 388.570, 564.735 386.647, 561.633 381.701, 553.657 376.431, 545.158 373.547, 540.507 368.499, 532.365 363.229, 523.866 361.460, 521.013 " />
            <path fill="none" stroke-width="3.0" stroke-linecap="butt" stroke-opacity="1.0" stroke="rgb(0, 0, 0)" stroke-linejoin="round" d=" M 371.342, 516.664 362.190, 520.692 361.460, 521.013 351.478, 520.417 341.496, 519.821 331.514, 519.225 330.495, 519.164 " />
            <path fill="none" stroke-width="3.0" stroke-linecap="butt" stroke-opacity="1.0" stroke="rgb(0, 0, 0)" stroke-linejoin="round" d=" M 462.717, 679.191 457.402, 670.720 452.088, 662.249 448.319, 656.241 443.658, 648.805 438.319, 640.301 433.006, 631.829 431.210, 628.965 426.107, 620.835 420.793, 612.364 415.478, 603.893 413.894, 601.367 " />
            <path fill="none" stroke-width="3.0" stroke-linecap="butt" stroke-opacity="1.0" stroke="rgb(0, 0, 0)" stroke-linejoin="round" d=" M 448.500, 559.297 442.714, 567.453 441.158, 569.647 436.020, 576.891 " />
            <path fill="none" stroke-width="3.0" stroke-linecap="butt" stroke-opacity="1.0" stroke="rgb(0, 0, 0)" stroke-linejoin="round" d=" M 422.796, 595.532 414.433, 601.013 413.894, 601.367 418.759, 594.498 424.539, 586.337 427.329, 582.397 432.552, 575.024 438.332, 566.864 440.011, 564.492 445.519, 556.714 450.867, 549.166 456.647, 541.005 462.426, 532.845 466.370, 527.276 " />
            <path fill="none" stroke-width="3.0" stroke-linecap="butt" stroke-opacity="1.0" stroke="rgb(0, 0, 0)" stroke-linejoin="round" d=" M 474.434, 522.740 466.370, 527.276 456.388, 526.680 446.406, 526.084 436.424, 525.489 434.605, 525.380 " />
        </g>
    </g>
</svg>
