<?xml version='1.0' encoding='ascii'?>
<svg xmlns="http://www.w3.org/2000/svg" version="1.1" width="1080" height="1080">
    <g id="ViewLayer_LineSet" xmlns:inkscape="http://www.inkscape.org/namespaces/inkscape" inkscape:groupmode="lineset" inkscape:label="ViewLayer_LineSet">
        <g xmlns:inkscape="http://www.inkscape.org/namespaces/inkscape" inkscape:groupmode="layer" id="strokes" inkscape:label="strokes">
            <path fill="none" stroke-width="3.0" stroke-linecap="butt" stroke-opacity="1.0" stroke="rgb(0, 0, 0)" stroke-linejoin="round" d=" M 774.263, 635.988 768.356, 644.057 766.189, 647.018 759.177, 654.148 757.640, 655.711 748.101, 658.712 747.866, 658.786 740.454, 661.095 730.489, 660.265 722.662, 659.613 715.505, 656.290 706.531, 651.877 705.759, 651.497 699.758, 643.498 698.613, 641.973 693.624, 633.307 691.447, 629.524 689.405, 619.735 688.296, 614.414 688.742, 604.424 688.992, 598.840 691.835, 589.253 693.162, 584.777 " />
            <path fill="none" stroke-width="3.0" stroke-linecap="butt" stroke-opacity="1.0" stroke="rgb(0, 0, 0)" stroke-linejoin="round" d=" M 665.254, 654.802 670.878, 663.071 672.983, 666.168 680.091, 673.202 681.939, 675.031 689.805, 681.206 690.244, 681.551 698.879, 686.593 700.817, 687.724 710.370, 690.682 718.135, 693.087 728.106, 693.850 736.306, 694.478 746.206, 693.069 754.177, 691.934 763.427, 688.135 765.238, 687.391 773.993, 682.559 774.354, 682.360 782.327, 676.324 784.356, 674.787 791.011, 667.323 793.356, 664.693 798.709, 656.479 803.544, 647.725 803.861, 647.153 806.558, 637.523 808.575, 630.322 810.225, 623.711 810.643, 613.720 810.951, 606.378 809.207, 596.531 807.932, 589.336 804.117, 580.092 803.941, 579.668 799.556, 570.734 793.924, 562.471 791.751, 559.283 784.707, 552.184 782.815, 550.277 774.852, 544.228 774.295, 543.804 765.705, 538.685 763.799, 537.549 754.179, 534.819 746.232, 532.563 736.245, 532.045 728.093, 531.622 718.248, 533.373 710.477, 534.755 701.361, 538.866 699.848, 539.548 691.271, 544.690 691.008, 544.849 683.248, 551.156 681.486, 552.589 674.989, 560.191 672.925, 562.606 668.647, 567.940 663.516, 576.274 658.840, 585.113 658.686, 585.405 656.174, 595.084 654.385, 601.980 654.006, 611.972 653.729, 619.255 655.561, 629.085 656.888, 636.208 660.688, 645.458 660.915, 646.012 665.254, 654.802 " />
            <path fill="none" stroke-width="3.0" stroke-linecap="butt" stroke-opacity="1.0" stroke="rgb(0, 0, 0)" stroke-linejoin="round" d=" M 772.220, 642.388 766.310, 650.455 763.699, 654.019 756.683, 661.144 754.990, 662.864 745.448, 665.855 745.032, 665.985 737.482, 668.329 727.517, 667.488 719.355, 666.799 712.063, 663.407 703.092, 658.987 702.133, 658.515 696.132, 650.515 694.850, 648.807 689.859, 640.141 687.544, 636.121 685.499, 626.332 684.328, 620.728 684.770, 610.737 685.031, 604.865 687.870, 595.277 689.463, 589.898 693.162, 584.777 697.832, 578.310 704.608, 570.956 705.974, 569.474 715.441, 566.252 716.389, 565.929 723.932, 563.574 733.913, 564.182 741.996, 564.674 749.271, 568.019 758.279, 572.361 759.567, 572.982 765.593, 580.963 766.982, 582.801 772.048, 591.423 774.507, 595.607 776.566, 605.393 777.807, 611.287 777.312, 621.274 777.010, 627.381 774.263, 635.988 772.220, 642.388 " />
            <path fill="none" stroke-width="3.0" stroke-linecap="butt" stroke-opacity="1.0" stroke="rgb(0, 0, 0)" stroke-linejoin="round" d=" M 808.575, 630.322 808.992, 620.331 809.312, 612.661 807.565, 602.815 806.232, 595.293 802.414, 586.051 802.161, 585.438 797.754, 576.461 797.689, 576.330 792.057, 568.067 789.730, 564.654 782.687, 557.554 780.619, 555.469 772.658, 549.417 771.933, 548.866 763.345, 543.743 761.233, 542.483 751.615, 539.746 743.327, 537.389 733.340, 536.863 724.841, 536.415 714.995, 538.160 706.892, 539.595 697.773, 543.701 696.064, 544.470 687.485, 549.609 687.060, 549.864 679.298, 556.170 677.363, 557.742 670.865, 565.344 668.647, 567.940 " />
            <path fill="none" stroke-width="3.0" stroke-linecap="butt" stroke-opacity="1.0" stroke="rgb(0, 0, 0)" stroke-linejoin="round" d=" M 506.045, 631.485 513.151, 632.019 523.123, 632.768 524.863, 632.899 534.824, 633.774 540.913, 634.309 550.906, 633.925 558.042, 633.651 566.922, 628.847 575.124, 623.127 576.256, 622.337 582.256, 616.003 588.073, 607.870 588.389, 607.429 593.311, 599.483 595.538, 589.734 597.112, 582.845 596.091, 572.897 595.326, 565.440 591.107, 556.374 590.756, 555.617 585.556, 547.075 585.210, 546.507 578.223, 539.353 576.844, 537.941 568.794, 532.009 567.324, 530.926 557.580, 528.679 550.107, 526.955 540.115, 526.539 533.856, 526.279 523.874, 525.690 518.238, 525.358 508.255, 524.769 502.693, 524.442 492.710, 523.853 486.227, 523.471 478.420, 528.005 478.276, 538.004 478.131, 548.003 478.119, 548.832 477.975, 558.831 477.889, 564.786 477.745, 574.785 477.660, 580.680 477.515, 590.679 477.431, 596.516 477.287, 606.515 477.203, 612.294 477.059, 622.293 476.976, 628.013 476.832, 638.012 476.750, 643.675 476.606, 653.674 476.525, 659.279 476.381, 669.278 476.236, 679.277 476.233, 679.480 486.199, 680.305 492.694, 680.842 502.660, 681.667 505.145, 681.873 512.160, 674.746 512.356, 674.548 512.543, 664.549 512.728, 654.623 512.915, 644.625 513.016, 639.233 513.151, 632.019 " />
            <path fill="none" stroke-width="3.0" stroke-linecap="butt" stroke-opacity="1.0" stroke="rgb(0, 0, 0)" stroke-linejoin="round" d=" M 505.145, 681.873 505.324, 671.874 505.502, 661.876 505.507, 661.588 505.686, 651.590 505.787, 645.920 505.966, 635.921 506.045, 631.485 " />
            <path fill="none" stroke-width="3.0" stroke-linecap="butt" stroke-opacity="1.0" stroke="rgb(0, 0, 0)" stroke-linejoin="round" d=" M 557.033, 599.695 551.785, 602.421 541.812, 601.675 532.300, 600.964 522.324, 600.269 513.755, 599.671 513.942, 589.673 514.129, 579.675 514.177, 577.111 514.364, 567.113 514.470, 561.439 514.561, 556.544 " />
            <path fill="none" stroke-width="3.0" stroke-linecap="butt" stroke-opacity="1.0" stroke="rgb(0, 0, 0)" stroke-linejoin="round" d=" M 506.506, 605.636 506.685, 595.638 506.863, 585.640 506.916, 582.662 507.095, 572.663 507.201, 566.700 507.380, 556.701 507.391, 556.070 514.561, 556.544 524.539, 557.202 526.455, 557.329 536.445, 557.761 545.049, 558.133 553.422, 563.599 558.570, 566.959 559.945, 576.864 561.248, 586.257 558.255, 595.798 557.033, 599.695 556.040, 602.860 " />
            <path fill="none" stroke-width="3.0" stroke-linecap="butt" stroke-opacity="1.0" stroke="rgb(0, 0, 0)" stroke-linejoin="round" d=" M 576.256, 622.337 582.072, 614.202 582.496, 613.610 587.503, 605.522 589.724, 595.772 591.362, 588.577 590.336, 578.630 589.532, 570.845 585.311, 561.779 584.871, 560.833 579.670, 552.292 579.217, 551.548 572.232, 544.392 570.691, 542.813 562.643, 536.878 560.991, 535.660 551.249, 533.405 543.456, 531.601 533.465, 531.178 526.909, 530.900 516.927, 530.304 511.007, 529.950 501.025, 529.354 495.181, 529.005 485.199, 528.409 478.420, 528.005 " />
            <path fill="none" stroke-width="3.0" stroke-linecap="butt" stroke-opacity="1.0" stroke="rgb(0, 0, 0)" stroke-linejoin="round" d=" M 556.040, 602.860 547.164, 607.466 545.222, 608.473 535.250, 607.718 525.384, 606.971 515.409, 606.266 506.506, 605.636 513.755, 599.671 " />
            <path fill="none" stroke-width="3.0" stroke-linecap="butt" stroke-opacity="1.0" stroke="rgb(0, 0, 0)" stroke-linejoin="round" d=" M 379.682, 569.069 378.802, 567.649 373.531, 559.151 371.740, 556.263 366.884, 548.434 361.613, 539.936 358.878, 535.527 353.923, 527.536 348.652, 519.038 347.012, 516.394 337.030, 515.804 327.047, 515.214 317.065, 514.623 316.687, 514.601 307.386, 518.274 305.825, 518.891 311.162, 527.348 316.499, 535.804 320.545, 542.215 325.882, 550.672 330.935, 558.677 336.271, 567.134 341.608, 575.591 343.157, 578.045 348.494, 586.502 351.470, 591.218 356.208, 598.727 350.524, 606.953 344.839, 615.180 344.077, 616.282 339.038, 623.575 333.353, 631.802 332.039, 633.704 326.806, 641.276 322.247, 647.874 316.562, 656.101 310.878, 664.328 308.254, 668.124 318.220, 668.953 328.185, 669.782 338.151, 670.611 338.583, 670.647 346.810, 664.960 348.716, 663.642 354.369, 655.393 360.095, 647.037 365.747, 638.788 367.662, 635.994 372.384, 629.102 375.331, 624.801 " />
            <path fill="none" stroke-width="3.0" stroke-linecap="butt" stroke-opacity="1.0" stroke="rgb(0, 0, 0)" stroke-linejoin="round" d=" M 360.095, 647.037 354.788, 654.781 349.136, 663.030 348.716, 663.642 " />
            <path fill="none" stroke-width="3.0" stroke-linecap="butt" stroke-opacity="1.0" stroke="rgb(0, 0, 0)" stroke-linejoin="round" d=" M 338.583, 670.647 344.229, 662.393 344.749, 661.633 350.135, 653.759 355.780, 645.505 357.817, 642.527 362.612, 635.517 368.257, 627.263 369.850, 624.934 372.784, 620.645 375.331, 624.801 380.556, 633.328 382.712, 636.846 387.494, 644.650 392.719, 653.176 395.255, 657.315 400.480, 665.841 400.600, 666.037 405.825, 674.563 406.907, 676.329 416.873, 677.157 426.839, 677.986 436.804, 678.815 437.972, 678.912 445.554, 672.392 446.419, 671.649 441.104, 663.178 435.788, 654.708 432.283, 649.121 427.704, 641.825 422.465, 633.476 417.149, 625.005 415.483, 622.350 410.475, 614.369 405.160, 605.899 399.845, 597.428 398.484, 595.260 403.236, 588.510 408.990, 580.331 411.603, 576.618 417.358, 568.440 423.113, 560.263 423.985, 559.025 429.362, 551.383 434.581, 543.967 440.336, 535.789 446.091, 527.611 449.713, 522.466 439.730, 521.875 429.748, 521.285 419.765, 520.695 418.623, 520.628 409.651, 525.044 409.532, 525.102 403.915, 533.375 402.228, 535.860 397.149, 543.342 391.532, 551.615 388.788, 555.656 383.781, 563.032 379.682, 569.069 374.065, 577.342 372.876, 579.094 " />
            <path fill="none" stroke-width="3.0" stroke-linecap="butt" stroke-opacity="1.0" stroke="rgb(0, 0, 0)" stroke-linejoin="round" d=" M 372.876, 579.094 369.069, 572.958 363.797, 564.460 361.872, 561.358 356.923, 553.381 351.651, 544.884 348.764, 540.231 343.714, 532.090 338.442, 523.593 336.671, 520.738 " />
            <path fill="none" stroke-width="3.0" stroke-linecap="butt" stroke-opacity="1.0" stroke="rgb(0, 0, 0)" stroke-linejoin="round" d=" M 347.012, 516.394 337.793, 520.267 336.671, 520.738 326.689, 520.140 316.707, 519.543 306.724, 518.945 305.825, 518.891 " />
            <path fill="none" stroke-width="3.0" stroke-linecap="butt" stroke-opacity="1.0" stroke="rgb(0, 0, 0)" stroke-linejoin="round" d=" M 437.972, 678.912 432.655, 670.442 427.339, 661.972 423.566, 655.962 418.903, 648.527 413.561, 640.023 408.246, 631.552 406.449, 628.687 401.343, 620.557 396.026, 612.088 390.710, 603.618 389.123, 601.090 " />
            <path fill="none" stroke-width="3.0" stroke-linecap="butt" stroke-opacity="1.0" stroke="rgb(0, 0, 0)" stroke-linejoin="round" d=" M 423.985, 559.025 418.229, 567.202 416.700, 569.374 411.603, 576.618 " />
            <path fill="none" stroke-width="3.0" stroke-linecap="butt" stroke-opacity="1.0" stroke="rgb(0, 0, 0)" stroke-linejoin="round" d=" M 398.484, 595.260 389.996, 600.546 389.123, 601.090 393.949, 594.221 399.697, 586.038 402.449, 582.120 407.630, 574.746 413.379, 566.563 415.029, 564.214 420.493, 556.436 425.797, 548.887 431.545, 540.704 437.294, 532.522 441.175, 526.997 " />
            <path fill="none" stroke-width="3.0" stroke-linecap="butt" stroke-opacity="1.0" stroke="rgb(0, 0, 0)" stroke-linejoin="round" d=" M 449.713, 522.466 441.175, 526.997 431.193, 526.399 421.211, 525.801 411.229, 525.203 409.532, 525.102 " />
        </g>
    </g>
</svg>
