<?xml version='1.0' encoding='ascii'?>
<svg xmlns="http://www.w3.org/2000/svg" version="1.1" width="1080" height="1080">
    <g id="ViewLayer_LineSet" xmlns:inkscape="http://www.inkscape.org/namespaces/inkscape" inkscape:groupmode="lineset" inkscape:label="ViewLayer_LineSet">
        <g xmlns:inkscape="http://www.inkscape.org/namespaces/inkscape" inkscape:groupmode="layer" id="strokes" inkscape:label="strokes">
            <path fill="none" stroke-width="3.0" stroke-linecap="butt" stroke-opacity="1.0" stroke="rgb(0, 0, 0)" stroke-linejoin="round" d=" M 373.600, 641.398 373.623, 631.398 373.635, 626.367 373.658, 616.367 373.670, 611.283 373.693, 601.283 373.705, 596.146 373.728, 586.146 373.740, 580.954 373.763, 570.954 373.776, 565.709 373.799, 555.709 373.811, 550.410 373.834, 540.410 373.846, 535.056 373.870, 525.056 373.893, 515.013 363.910, 514.428 353.927, 513.842 346.300, 513.395 337.061, 517.220 336.084, 517.625 336.105, 527.625 336.125, 537.625 336.126, 537.947 336.146, 547.947 336.158, 553.514 336.179, 563.514 336.190, 569.026 336.211, 579.026 336.222, 584.481 336.242, 594.481 336.254, 599.881 336.274, 609.881 336.285, 615.226 336.306, 625.226 336.317, 630.516 336.337, 640.516 336.348, 645.751 336.369, 655.751 336.389, 665.476 346.355, 666.297 356.321, 667.118 363.972, 667.748 372.092, 661.911 373.555, 660.860 373.578, 650.860 373.600, 641.398 " />
            <path fill="none" stroke-width="3.0" stroke-linecap="butt" stroke-opacity="1.0" stroke="rgb(0, 0, 0)" stroke-linejoin="round" d=" M 363.972, 667.748 363.984, 657.748 363.996, 647.944 364.008, 637.944 364.014, 632.647 364.026, 622.647 364.032, 617.295 364.044, 607.295 364.051, 601.888 364.062, 591.888 364.069, 586.425 364.081, 576.425 364.087, 570.906 364.099, 560.906 364.106, 555.331 364.118, 545.331 364.124, 539.699 364.136, 529.699 364.148, 519.699 364.149, 519.292 " />
            <path fill="none" stroke-width="3.0" stroke-linecap="butt" stroke-opacity="1.0" stroke="rgb(0, 0, 0)" stroke-linejoin="round" d=" M 373.893, 515.013 364.737, 519.034 364.149, 519.292 354.166, 518.699 344.184, 518.106 336.084, 517.625 " />
            <path fill="none" stroke-width="3.0" stroke-linecap="butt" stroke-opacity="1.0" stroke="rgb(0, 0, 0)" stroke-linejoin="round" d=" M -1.709, 649.042 2.392, 649.388 8.148, 647.046 12.469, 645.287 18.097, 642.998 17.805, 635.579 17.513, 628.195 17.221, 620.798 16.929, 613.388 16.636, 605.965 16.343, 598.529 16.049, 591.081 15.996, 589.757 " />
            <path fill="none" stroke-width="3.0" stroke-linecap="butt" stroke-opacity="1.0" stroke="rgb(0, 0, 0)" stroke-linejoin="round" d=" M -0.105, 588.983 0.209, 596.574 0.522, 604.152 0.835, 611.717 1.147, 619.268 1.458, 626.806 1.769, 634.331 2.080, 641.842 2.392, 649.388 " />
            <path fill="none" stroke-width="3.0" stroke-linecap="butt" stroke-opacity="1.0" stroke="rgb(0, 0, 0)" stroke-linejoin="round" d=" M 0.675, 559.229 5.161, 568.167 5.396, 568.635 8.789, 575.396 13.201, 584.188 15.996, 589.757 16.673, 591.104 20.997, 599.723 24.546, 606.794 26.866, 611.415 28.785, 615.239 32.412, 622.465 35.274, 628.170 38.988, 628.468 45.994, 629.031 49.720, 629.330 55.229, 627.094 59.364, 625.415 64.749, 623.229 67.197, 618.024 70.304, 611.417 71.951, 607.914 73.943, 603.678 76.998, 597.183 80.729, 589.248 82.647, 585.170 " />
            <path fill="none" stroke-width="3.0" stroke-linecap="butt" stroke-opacity="1.0" stroke="rgb(0, 0, 0)" stroke-linejoin="round" d=" M 14.327, 500.737 8.578, 502.137 4.163, 503.212 -1.719, 504.644 1.818, 511.761 3.795, 515.741 5.895, 519.966 9.633, 527.488 11.585, 531.417 13.773, 535.817 17.440, 543.196 19.371, 547.073 21.641, 551.650 25.237, 558.887 27.139, 562.714 29.500, 567.463 33.025, 574.558 34.901, 578.334 37.349, 583.258 41.002, 590.609 41.236, 590.102 44.190, 583.717 46.347, 579.053 47.975, 575.534 49.651, 571.913 51.018, 568.956 53.092, 564.473 54.754, 560.880 57.887, 554.107 59.877, 549.806 61.573, 546.139 64.798, 539.168 66.701, 535.053 68.433, 531.310 71.751, 524.139 73.567, 520.213 75.334, 516.392 78.521, 509.504 83.946, 508.021 88.018, 506.908 93.319, 505.459 99.247, 505.813 106.349, 506.238 113.468, 506.663 121.317, 507.132 121.526, 514.917 121.734, 522.639 121.941, 530.348 122.148, 538.043 122.355, 545.724 122.561, 553.391 122.767, 561.045 122.973, 568.686 123.178, 576.312 123.383, 583.925 123.587, 591.525 123.791, 599.111 123.995, 606.684 124.198, 614.243 124.401, 621.789 124.604, 629.322 124.806, 636.841 125.008, 644.347 125.211, 651.888 120.184, 654.276 116.323, 656.110 111.179, 658.554 103.334, 657.893 96.218, 657.294 89.119, 656.695 84.900, 656.340 84.658, 648.698 84.417, 641.091 84.176, 633.471 83.934, 625.836 83.692, 618.189 83.449, 610.527 83.206, 602.851 82.963, 595.162 82.719, 587.459 82.647, 585.170 82.475, 579.742 82.159, 569.747 82.009, 565.020 81.869, 560.601 " />
            <path fill="none" stroke-width="3.0" stroke-linecap="butt" stroke-opacity="1.0" stroke="rgb(0, 0, 0)" stroke-linejoin="round" d=" M 49.651, 571.913 48.410, 569.412 44.952, 562.443 42.635, 557.777 40.770, 554.018 37.242, 546.909 35.011, 542.414 33.121, 538.605 29.524, 531.357 27.378, 527.035 25.463, 523.175 21.797, 515.787 19.737, 511.637 17.797, 507.727 14.327, 500.737 8.377, 500.381 1.497, 499.970 -5.368, 499.560 " />
            <path fill="none" stroke-width="3.0" stroke-linecap="butt" stroke-opacity="1.0" stroke="rgb(0, 0, 0)" stroke-linejoin="round" d=" M 76.998, 597.183 78.627, 593.713 80.729, 589.248 " />
            <path fill="none" stroke-width="3.0" stroke-linecap="butt" stroke-opacity="1.0" stroke="rgb(0, 0, 0)" stroke-linejoin="round" d=" M 75.775, 573.630 72.792, 580.008 70.559, 584.780 68.922, 588.280 65.885, 594.772 63.762, 599.311 62.110, 602.842 59.020, 609.448 57.004, 613.756 55.339, 617.319 52.196, 624.037 49.720, 629.330 " />
            <path fill="none" stroke-width="3.0" stroke-linecap="butt" stroke-opacity="1.0" stroke="rgb(0, 0, 0)" stroke-linejoin="round" d=" M 106.970, 511.228 107.196, 519.153 107.421, 527.015 107.645, 534.862 107.869, 542.695 108.092, 550.514 108.315, 558.319 108.538, 566.109 108.760, 573.886 108.982, 581.648 109.203, 589.396 109.424, 597.131 109.645, 604.851 109.865, 612.557 110.085, 620.250 110.304, 627.929 110.523, 635.594 110.742, 643.245 110.960, 650.882 111.179, 658.554 " />
            <path fill="none" stroke-width="3.0" stroke-linecap="butt" stroke-opacity="1.0" stroke="rgb(0, 0, 0)" stroke-linejoin="round" d=" M 121.317, 507.132 116.178, 508.599 112.230, 509.726 106.970, 511.228 98.994, 510.745 91.760, 510.307 84.544, 509.869 78.521, 509.504 " />
            <path fill="none" stroke-width="3.0" stroke-linecap="butt" stroke-opacity="1.0" stroke="rgb(0, 0, 0)" stroke-linejoin="round" d=" M 86.248, 564.562 81.869, 560.601 79.684, 565.272 75.775, 573.630 79.679, 565.272 " />
            <path fill="none" stroke-width="3.0" stroke-linecap="butt" stroke-opacity="1.0" stroke="rgb(0, 0, 0)" stroke-linejoin="round" d=" M 81.869, 560.601 79.679, 565.272 " />
            <path fill="none" stroke-width="3.0" stroke-linecap="butt" stroke-opacity="1.0" stroke="rgb(0, 0, 0)" stroke-linejoin="round" d=" M 1080.693, 531.216 1070.708, 530.665 1063.786, 530.284 1053.801, 529.733 1046.959, 529.356 1036.974, 528.805 1029.136, 528.373 1028.356, 538.342 1027.575, 548.312 1027.536, 548.809 1026.756, 558.779 1026.311, 564.465 1025.530, 574.434 1025.089, 580.064 1024.309, 590.033 1023.873, 595.606 1023.092, 605.575 1022.660, 611.092 1021.880, 621.061 1021.452, 626.522 1020.672, 636.491 1020.249, 641.896 1019.468, 651.865 1019.049, 657.215 1018.269, 667.184 1017.497, 677.048 1019.810, 684.388 1029.780, 685.157 1037.631, 685.762 1047.602, 686.531 1051.112, 686.802 1051.933, 676.836 1052.753, 666.870 1052.781, 666.530 1053.602, 656.563 1054.071, 650.870 1054.892, 640.904 1055.259, 636.444 1065.234, 637.143 1075.210, 637.841 1075.642, 637.872 1085.608, 638.688 1093.014, 639.294 " />
            <path fill="none" stroke-width="3.0" stroke-linecap="butt" stroke-opacity="1.0" stroke="rgb(0, 0, 0)" stroke-linejoin="round" d=" M 1031.713, 533.000 1030.929, 542.970 1030.145, 552.939 1030.076, 553.816 1029.292, 563.785 1028.823, 569.760 1028.039, 579.729 1027.574, 585.645 1026.790, 595.615 1026.329, 601.472 1025.545, 611.441 1025.089, 617.240 1024.306, 627.210 1023.854, 632.951 1023.070, 642.920 1022.623, 648.603 1021.840, 658.573 1021.397, 664.199 1020.613, 674.168 1019.829, 684.137 1019.810, 684.388 " />
            <path fill="none" stroke-width="3.0" stroke-linecap="butt" stroke-opacity="1.0" stroke="rgb(0, 0, 0)" stroke-linejoin="round" d=" M 1057.386, 610.610 1057.866, 604.782 1058.687, 594.816 1059.277, 587.649 1060.098, 577.683 1060.591, 571.696 1061.411, 561.730 1061.465, 561.073 1071.447, 561.688 1081.428, 562.303 1082.125, 562.346 " />
            <path fill="none" stroke-width="3.0" stroke-linecap="butt" stroke-opacity="1.0" stroke="rgb(0, 0, 0)" stroke-linejoin="round" d=" M 1084.282, 535.932 1074.297, 535.375 1067.042, 534.971 1057.057, 534.414 1049.884, 534.014 1039.900, 533.457 1031.713, 533.000 1029.136, 528.373 " />
            <path fill="none" stroke-width="3.0" stroke-linecap="butt" stroke-opacity="1.0" stroke="rgb(0, 0, 0)" stroke-linejoin="round" d=" M 1095.475, 607.330 1085.499, 606.633 1075.523, 605.937 1074.402, 605.859 1064.423, 605.209 1057.866, 604.782 " />
            <path fill="none" stroke-width="3.0" stroke-linecap="butt" stroke-opacity="1.0" stroke="rgb(0, 0, 0)" stroke-linejoin="round" d=" M 1099.326, 613.476 1089.351, 612.772 1079.376, 612.067 1077.839, 611.959 1067.861, 611.301 1057.883, 610.643 1057.386, 610.610 " />
            <path fill="none" stroke-width="3.0" stroke-linecap="butt" stroke-opacity="1.0" stroke="rgb(0, 0, 0)" stroke-linejoin="round" d=" M 883.341, 603.861 888.614, 612.358 893.220, 619.779 898.176, 627.764 903.450, 636.261 905.085, 638.896 910.271, 647.249 914.802, 654.550 920.075, 663.046 925.349, 671.542 928.791, 677.089 929.440, 684.459 919.470, 683.680 909.500, 682.901 899.531, 682.122 896.019, 681.848 890.845, 673.290 889.793, 671.550 884.618, 662.993 884.516, 662.824 879.342, 654.267 876.854, 650.152 872.133, 642.345 866.959, 633.788 862.332, 626.136 858.916, 630.421 852.684, 638.242 850.489, 640.997 844.906, 648.003 838.674, 655.824 835.962, 659.228 829.692, 667.097 823.460, 674.917 822.514, 676.104 812.544, 675.325 802.574, 674.546 792.605, 673.767 789.884, 673.555 791.782, 666.526 798.046, 658.731 804.310, 650.936 807.774, 646.626 812.983, 640.144 818.962, 632.703 825.226, 624.908 826.959, 622.751 832.716, 615.586 838.980, 607.791 844.009, 601.534 " />
            <path fill="none" stroke-width="3.0" stroke-linecap="butt" stroke-opacity="1.0" stroke="rgb(0, 0, 0)" stroke-linejoin="round" d=" M 818.962, 632.703 812.698, 640.498 807.774, 646.626 " />
            <path fill="none" stroke-width="3.0" stroke-linecap="butt" stroke-opacity="1.0" stroke="rgb(0, 0, 0)" stroke-linejoin="round" d=" M 881.107, 606.595 883.341, 603.861 886.716, 599.731 893.042, 591.986 896.594, 587.638 902.614, 580.269 908.940, 572.525 911.212, 569.743 917.561, 561.971 923.725, 554.427 930.052, 546.682 936.378, 538.938 941.596, 532.551 940.707, 527.912 930.722, 527.355 920.738, 526.798 910.753, 526.241 907.265, 526.047 901.064, 533.892 894.862, 541.736 893.110, 543.953 886.908, 551.798 883.552, 556.043 877.827, 563.286 871.625, 571.131 865.358, 579.059 861.665, 573.033 856.440, 564.506 854.684, 561.641 849.884, 553.808 844.658, 545.281 841.969, 540.894 837.070, 532.899 831.845, 524.373 830.239, 521.751 820.254, 521.194 810.270, 520.637 800.285, 520.081 797.621, 519.932 795.800, 524.325 801.096, 532.807 806.392, 541.289 810.371, 547.662 815.668, 556.144 820.656, 564.132 825.952, 572.614 831.248, 581.097 832.755, 583.510 838.052, 591.993 840.985, 596.690 844.009, 601.534 845.675, 604.203 839.407, 611.995 833.139, 619.786 831.562, 621.746 825.699, 629.035 819.430, 636.827 817.555, 639.158 811.468, 646.725 806.164, 653.318 799.896, 661.110 793.628, 668.901 789.884, 673.555 " />
            <path fill="none" stroke-width="3.0" stroke-linecap="butt" stroke-opacity="1.0" stroke="rgb(0, 0, 0)" stroke-linejoin="round" d=" M 864.809, 584.585 861.047, 578.446 855.821, 569.920 853.933, 566.840 849.042, 558.859 843.817, 550.333 840.978, 545.703 835.986, 537.557 830.761, 529.031 829.026, 526.199 " />
            <path fill="none" stroke-width="3.0" stroke-linecap="butt" stroke-opacity="1.0" stroke="rgb(0, 0, 0)" stroke-linejoin="round" d=" M 830.239, 521.751 829.026, 526.199 819.042, 525.636 809.057, 525.073 799.073, 524.509 795.800, 524.325 " />
            <path fill="none" stroke-width="3.0" stroke-linecap="butt" stroke-opacity="1.0" stroke="rgb(0, 0, 0)" stroke-linejoin="round" d=" M 929.440, 684.459 924.166, 675.963 918.892, 667.466 915.186, 661.497 910.570, 654.058 905.287, 645.550 900.013, 637.053 898.247, 634.207 893.198, 626.073 887.924, 617.577 882.650, 609.081 881.107, 606.595 " />
            <path fill="none" stroke-width="3.0" stroke-linecap="butt" stroke-opacity="1.0" stroke="rgb(0, 0, 0)" stroke-linejoin="round" d=" M 893.110, 543.953 898.916, 536.609 905.118, 528.763 907.265, 526.047 907.511, 530.627 " />
            <path fill="none" stroke-width="3.0" stroke-linecap="butt" stroke-opacity="1.0" stroke="rgb(0, 0, 0)" stroke-linejoin="round" d=" M 941.596, 532.551 931.612, 531.987 921.628, 531.424 911.644, 530.861 907.511, 530.627 901.305, 538.469 899.002, 541.379 893.085, 548.856 886.879, 556.697 883.346, 561.162 877.512, 568.534 871.307, 576.376 865.101, 584.217 864.809, 584.585 865.358, 579.059 " />
            <path fill="none" stroke-width="3.0" stroke-linecap="butt" stroke-opacity="1.0" stroke="rgb(0, 0, 0)" stroke-linejoin="round" d=" M -1.334, 559.247 0.675, 559.229 8.431, 559.162 " />
            <path fill="none" stroke-width="3.0" stroke-linecap="butt" stroke-opacity="1.0" stroke="rgb(0, 0, 0)" stroke-linejoin="round" d=" M 79.684, 565.272 82.009, 565.020 " />
        </g>
    </g>
</svg>
