<?xml version='1.0' encoding='ascii'?>
<svg xmlns="http://www.w3.org/2000/svg" version="1.1" width="1080" height="1080">
    <g id="ViewLayer_LineSet" xmlns:inkscape="http://www.inkscape.org/namespaces/inkscape" inkscape:groupmode="lineset" inkscape:label="ViewLayer_LineSet">
        <g xmlns:inkscape="http://www.inkscape.org/namespaces/inkscape" inkscape:groupmode="layer" id="strokes" inkscape:label="strokes">
            <path fill="none" stroke-width="3.0" stroke-linecap="butt" stroke-opacity="1.0" stroke="rgb(0, 0, 0)" stroke-linejoin="round" d=" M 737.060, 637.467 731.195, 645.567 730.381, 646.693 723.403, 653.856 721.913, 655.386 712.380, 658.407 712.205, 658.462 704.843, 660.772 694.878, 659.938 687.144, 659.291 680.013, 655.968 671.045, 651.542 670.302, 651.175 664.301, 643.176 663.158, 641.651 658.163, 632.987 655.982, 629.202 653.914, 619.418 652.788, 614.092 653.193, 604.100 653.420, 598.517 656.213, 588.915 657.695, 583.819 663.507, 575.682 663.568, 575.597 " />
            <path fill="none" stroke-width="3.0" stroke-linecap="butt" stroke-opacity="1.0" stroke="rgb(0, 0, 0)" stroke-linejoin="round" d=" M 629.308, 654.475 634.932, 662.744 637.039, 665.841 644.141, 672.881 645.980, 674.704 653.838, 680.889 654.264, 681.224 662.893, 686.278 664.803, 687.397 674.352, 690.366 682.046, 692.759 692.016, 693.526 700.120, 694.150 710.019, 692.731 717.880, 691.605 727.120, 687.780 728.860, 687.060 737.599, 682.199 737.905, 682.029 745.852, 675.959 747.820, 674.455 754.437, 666.958 756.729, 664.360 762.019, 656.145 766.806, 647.365 767.104, 646.819 769.545, 639.908 772.193, 630.265 774.082, 623.383 774.459, 613.390 774.736, 606.049 772.964, 596.207 771.667, 589.006 767.838, 579.768 767.660, 579.338 763.264, 570.405 757.630, 562.142 755.456, 558.953 748.418, 551.849 746.534, 549.948 738.579, 543.889 738.035, 543.475 729.452, 538.344 727.573, 537.220 717.956, 534.479 710.082, 532.235 700.096, 531.714 692.040, 531.294 682.196, 533.057 674.533, 534.429 665.428, 538.565 663.982, 539.222 655.423, 544.395 655.211, 544.523 647.479, 550.865 645.772, 552.264 640.957, 557.412 634.500, 565.047 632.332, 567.610 627.263, 575.944 622.636, 584.810 622.497, 585.076 620.035, 594.768 618.287, 601.652 617.950, 611.646 617.704, 618.927 619.565, 628.753 620.914, 635.881 624.727, 645.126 624.958, 645.686 629.308, 654.475 " />
            <path fill="none" stroke-width="3.0" stroke-linecap="butt" stroke-opacity="1.0" stroke="rgb(0, 0, 0)" stroke-linejoin="round" d=" M 735.622, 642.056 729.755, 650.154 727.196, 653.687 720.215, 660.847 718.571, 662.533 709.035, 665.544 708.682, 665.655 701.183, 667.999 691.219, 667.154 683.152, 666.470 675.887, 663.078 666.923, 658.646 665.994, 658.186 659.994, 650.186 658.713, 648.479 653.717, 639.816 651.397, 635.792 649.325, 626.009 648.137, 620.399 648.537, 610.407 648.772, 604.536 651.561, 594.933 653.119, 589.568 658.930, 581.430 661.394, 577.979 663.568, 575.597 669.455, 569.142 678.915, 565.899 679.798, 565.597 687.288, 563.241 697.269, 563.852 705.255, 564.340 712.503, 567.685 721.504, 572.040 722.761, 572.648 728.786, 580.629 730.173, 582.467 735.245, 591.086 737.708, 595.273 739.794, 605.053 741.052, 610.953 740.601, 620.943 740.325, 627.048 737.335, 636.590 737.060, 637.467 735.622, 642.056 " />
            <path fill="none" stroke-width="3.0" stroke-linecap="butt" stroke-opacity="1.0" stroke="rgb(0, 0, 0)" stroke-linejoin="round" d=" M 767.104, 646.819 769.751, 637.176 771.724, 629.987 772.098, 619.994 772.385, 612.326 770.610, 602.485 769.253, 594.957 765.422, 585.720 765.165, 585.102 760.749, 576.130 760.682, 575.994 755.049, 567.732 752.721, 564.317 745.684, 557.212 743.624, 555.133 735.671, 549.071 734.960, 548.530 726.379, 543.395 724.295, 542.147 714.679, 539.400 706.468, 537.054 696.482, 536.526 688.083, 536.081 678.239, 537.837 670.247, 539.262 661.141, 543.394 659.500, 544.138 650.940, 549.308 650.568, 549.533 642.835, 555.873 640.957, 557.412 " />
            <path fill="none" stroke-width="3.0" stroke-linecap="butt" stroke-opacity="1.0" stroke="rgb(0, 0, 0)" stroke-linejoin="round" d=" M 506.045, 631.485 513.151, 632.019 523.123, 632.768 524.863, 632.899 534.824, 633.774 540.913, 634.309 550.906, 633.925 558.042, 633.651 566.922, 628.847 575.124, 623.127 576.256, 622.337 582.256, 616.003 588.073, 607.870 588.389, 607.429 593.311, 599.483 595.538, 589.734 597.112, 582.845 596.091, 572.897 595.326, 565.440 591.107, 556.374 590.756, 555.617 585.556, 547.075 585.210, 546.507 578.223, 539.353 576.844, 537.941 568.794, 532.009 567.324, 530.926 557.580, 528.679 550.107, 526.955 540.115, 526.539 533.856, 526.279 523.874, 525.690 518.238, 525.358 508.255, 524.769 502.693, 524.442 492.710, 523.853 486.227, 523.471 478.420, 528.005 478.276, 538.004 478.131, 548.003 478.119, 548.832 477.975, 558.831 477.889, 564.786 477.745, 574.785 477.660, 580.680 477.515, 590.679 477.431, 596.516 477.287, 606.515 477.203, 612.294 477.059, 622.293 476.976, 628.013 476.832, 638.012 476.750, 643.675 476.606, 653.674 476.525, 659.279 476.381, 669.278 476.236, 679.277 476.233, 679.480 486.199, 680.305 492.694, 680.842 502.660, 681.667 505.145, 681.873 512.160, 674.746 512.356, 674.548 512.543, 664.549 512.728, 654.623 512.915, 644.625 513.016, 639.233 513.151, 632.019 " />
            <path fill="none" stroke-width="3.0" stroke-linecap="butt" stroke-opacity="1.0" stroke="rgb(0, 0, 0)" stroke-linejoin="round" d=" M 505.145, 681.873 505.324, 671.874 505.502, 661.876 505.507, 661.588 505.686, 651.590 505.787, 645.920 505.966, 635.921 506.045, 631.485 " />
            <path fill="none" stroke-width="3.0" stroke-linecap="butt" stroke-opacity="1.0" stroke="rgb(0, 0, 0)" stroke-linejoin="round" d=" M 557.033, 599.695 551.785, 602.421 541.812, 601.675 532.300, 600.964 522.324, 600.269 513.755, 599.671 513.942, 589.673 514.129, 579.675 514.177, 577.111 514.364, 567.113 514.470, 561.439 514.561, 556.544 " />
            <path fill="none" stroke-width="3.0" stroke-linecap="butt" stroke-opacity="1.0" stroke="rgb(0, 0, 0)" stroke-linejoin="round" d=" M 506.506, 605.636 506.685, 595.638 506.863, 585.640 506.916, 582.662 507.095, 572.663 507.201, 566.700 507.380, 556.701 507.391, 556.070 514.561, 556.544 524.539, 557.202 526.455, 557.329 536.445, 557.761 545.049, 558.133 553.422, 563.599 558.570, 566.959 559.945, 576.864 561.248, 586.257 558.255, 595.798 557.033, 599.695 556.040, 602.860 " />
            <path fill="none" stroke-width="3.0" stroke-linecap="butt" stroke-opacity="1.0" stroke="rgb(0, 0, 0)" stroke-linejoin="round" d=" M 576.256, 622.337 582.072, 614.202 582.496, 613.610 587.503, 605.522 589.724, 595.772 591.362, 588.577 590.336, 578.630 589.532, 570.845 585.311, 561.779 584.871, 560.833 579.670, 552.292 579.217, 551.548 572.232, 544.392 570.691, 542.813 562.643, 536.878 560.991, 535.660 551.249, 533.405 543.456, 531.601 533.465, 531.178 526.909, 530.900 516.927, 530.304 511.007, 529.950 501.025, 529.354 495.181, 529.005 485.199, 528.409 478.420, 528.005 " />
            <path fill="none" stroke-width="3.0" stroke-linecap="butt" stroke-opacity="1.0" stroke="rgb(0, 0, 0)" stroke-linejoin="round" d=" M 556.040, 602.860 547.164, 607.466 545.222, 608.473 535.250, 607.718 525.384, 606.971 515.409, 606.266 506.506, 605.636 513.755, 599.671 " />
            <path fill="none" stroke-width="3.0" stroke-linecap="butt" stroke-opacity="1.0" stroke="rgb(0, 0, 0)" stroke-linejoin="round" d=" M 338.339, 566.720 337.885, 565.988 332.610, 557.492 330.816, 554.602 325.955, 546.773 320.680, 538.277 317.941, 533.865 312.980, 525.874 307.706, 517.378 306.063, 514.732 296.081, 514.140 286.098, 513.549 275.931, 512.947 266.541, 516.386 264.302, 517.205 269.643, 525.660 274.983, 534.115 279.035, 540.531 284.376, 548.985 289.434, 556.993 294.775, 565.447 300.115, 573.902 301.668, 576.361 307.008, 584.816 309.989, 589.534 314.731, 597.043 309.101, 605.308 303.471, 613.572 302.767, 614.605 297.798, 621.901 292.168, 630.166 290.895, 632.034 285.734, 639.609 281.238, 646.209 275.608, 654.474 269.978, 662.738 267.438, 666.468 277.403, 667.299 287.369, 668.130 297.574, 668.982 305.993, 663.586 308.455, 662.008 314.053, 653.722 319.679, 645.396 325.277, 637.110 327.143, 634.349 331.801, 627.455 334.270, 623.801 " />
            <path fill="none" stroke-width="3.0" stroke-linecap="butt" stroke-opacity="1.0" stroke="rgb(0, 0, 0)" stroke-linejoin="round" d=" M 319.679, 645.396 314.443, 653.143 308.845, 661.430 308.455, 662.008 " />
            <path fill="none" stroke-width="3.0" stroke-linecap="butt" stroke-opacity="1.0" stroke="rgb(0, 0, 0)" stroke-linejoin="round" d=" M 297.574, 668.982 303.165, 660.691 303.654, 659.965 308.965, 652.088 314.556, 643.796 316.541, 640.851 321.269, 633.838 326.860, 625.547 328.407, 623.252 331.300, 618.961 334.270, 623.801 339.499, 632.325 341.240, 635.163 346.027, 642.966 351.257, 651.490 353.797, 655.632 359.027, 664.155 359.149, 664.354 364.378, 672.878 365.463, 674.646 375.428, 675.478 385.393, 676.309 395.359, 677.141 396.329, 677.222 404.197, 671.049 405.547, 669.989 400.228, 661.521 394.910, 653.053 391.398, 647.462 386.815, 640.165 381.570, 631.816 376.252, 623.348 374.583, 620.690 369.570, 612.709 364.251, 604.240 358.932, 595.772 357.568, 593.599 362.255, 586.846 367.957, 578.631 370.511, 574.950 376.213, 566.735 381.915, 558.520 382.727, 557.350 388.032, 549.706 393.182, 542.287 398.884, 534.072 404.585, 525.856 408.111, 520.777 398.128, 520.186 388.146, 519.594 378.163, 519.003 377.218, 518.947 368.098, 523.047 367.337, 523.389 361.775, 531.700 360.135, 534.151 355.126, 541.636 349.564, 549.947 346.882, 553.955 341.944, 561.334 338.339, 566.720 332.777, 575.030 331.190, 577.402 " />
            <path fill="none" stroke-width="3.0" stroke-linecap="butt" stroke-opacity="1.0" stroke="rgb(0, 0, 0)" stroke-linejoin="round" d=" M 331.190, 577.402 327.379, 571.265 322.104, 562.770 320.175, 559.665 315.221, 551.688 309.945, 543.193 307.054, 538.538 301.998, 530.397 296.722, 521.902 294.948, 519.045 " />
            <path fill="none" stroke-width="3.0" stroke-linecap="butt" stroke-opacity="1.0" stroke="rgb(0, 0, 0)" stroke-linejoin="round" d=" M 306.063, 514.732 296.740, 518.349 294.948, 519.045 284.966, 518.446 274.984, 517.846 265.002, 517.247 264.302, 517.205 " />
            <path fill="none" stroke-width="3.0" stroke-linecap="butt" stroke-opacity="1.0" stroke="rgb(0, 0, 0)" stroke-linejoin="round" d=" M 396.329, 677.222 391.009, 668.754 385.689, 660.287 381.910, 654.271 377.242, 646.836 371.895, 638.332 366.577, 629.863 364.776, 626.995 359.665, 618.866 354.345, 610.398 349.026, 601.931 347.434, 599.397 " />
            <path fill="none" stroke-width="3.0" stroke-linecap="butt" stroke-opacity="1.0" stroke="rgb(0, 0, 0)" stroke-linejoin="round" d=" M 382.727, 557.350 377.025, 565.565 375.540, 567.703 370.511, 574.950 " />
            <path fill="none" stroke-width="3.0" stroke-linecap="butt" stroke-opacity="1.0" stroke="rgb(0, 0, 0)" stroke-linejoin="round" d=" M 357.568, 593.599 348.888, 598.565 347.434, 599.397 352.194, 592.526 357.888, 584.305 360.578, 580.420 365.688, 573.044 371.382, 564.823 372.986, 562.507 378.375, 554.726 383.607, 547.174 389.301, 538.954 394.995, 530.733 398.774, 525.276 " />
            <path fill="none" stroke-width="3.0" stroke-linecap="butt" stroke-opacity="1.0" stroke="rgb(0, 0, 0)" stroke-linejoin="round" d=" M 408.111, 520.777 399.102, 525.118 398.774, 525.276 388.792, 524.677 378.810, 524.078 368.828, 523.479 367.337, 523.389 " />
        </g>
    </g>
</svg>
